<?xml version="1.0" encoding="UTF-8" standalone="no"?>
<!DOCTYPE svg PUBLIC "-//W3C//DTD SVG 1.1//EN"
 "http://www.w3.org/Graphics/SVG/1.1/DTD/svg11.dtd">
<!-- Generated by graphviz version 2.43.0 (0)
 -->
<!-- Title: ActParser.H Pages: 1 -->
<!--zoomable 252 -->
<svg id="main" version="1.1" xmlns="http://www.w3.org/2000/svg" xmlns:xlink="http://www.w3.org/1999/xlink" xml:space="preserve" onload="init(evt)">
<style type="text/css"><![CDATA[
.edge:hover path { stroke: red; }
.edge:hover polygon { stroke: red; fill: red; }
]]></style>
<script type="text/javascript"><![CDATA[
var edges = document.getElementsByTagName('g');
if (edges && edges.length) {
  for (var i=0;i<edges.length;i++) {
    if (edges[i].id.substr(0,4)=='edge') {
      edges[i].setAttribute('class','edge');
    }
  }
}
]]></script>
        <defs>
                <circle id="rim" cx="0" cy="0" r="7"/>
                <circle id="rim2" cx="0" cy="0" r="3.5"/>
                <g id="zoomPlus">
                        <use xlink:href="#rim" fill="#404040">
                                <set attributeName="fill" to="#808080" begin="zoomplus.mouseover" end="zoomplus.mouseout"/>
                        </use>
                        <path d="M-4,0h8M0,-4v8" fill="none" stroke="white" stroke-width="1.5" pointer-events="none"/>
                </g>
                <g id="zoomMin">
                        <use xlink:href="#rim" fill="#404040">
                                <set attributeName="fill" to="#808080" begin="zoomminus.mouseover" end="zoomminus.mouseout"/>
                        </use>
                        <path d="M-4,0h8" fill="none" stroke="white" stroke-width="1.5" pointer-events="none"/>
                </g>
                <g id="dirArrow">
                        <path fill="none" stroke="white" stroke-width="1.5" d="M0,-3.0v7 M-2.5,-0.5L0,-3.0L2.5,-0.5"/>
                </g>
               <g id="resetDef">
                       <use xlink:href="#rim2" fill="#404040">
                               <set attributeName="fill" to="#808080" begin="reset.mouseover" end="reset.mouseout"/>
                       </use>
               </g>
        </defs>

<script type="text/javascript">
var viewWidth = 1025;
var viewHeight = 252;
var sectionId = 'dynsection-1';
</script>
<script xlink:href="svgpan.js"/>
<svg id="graph" class="graph">
<g id="viewport">
<title>ActParser.H</title>
<polygon fill="white" stroke="transparent" points="-4,4 -4,-248 1021.38,-248 1021.38,4 -4,4"/>
<!-- Node1 -->
<g id="node1" class="node">
<title>Node1</title>
<g id="a_node1"><a xlink:title=" ">
<polygon fill="#bfbfbf" stroke="black" points="610.38,-224.5 610.38,-243.5 682.38,-243.5 682.38,-224.5 610.38,-224.5"/>
<text text-anchor="middle" x="646.38" y="-231.5" font-family="Helvetica,sans-Serif" font-size="10.00">ActParser.H</text>
</a>
</g>
</g>
<!-- Node2 -->
<g id="node2" class="node">
<title>Node2</title>
<g id="a_node2"><a xlink:href="actuator__ops_8_h.html" target="_top" xlink:title=" ">
<polygon fill="white" stroke="black" points="531.38,-168.5 531.38,-187.5 621.38,-187.5 621.38,-168.5 531.38,-168.5"/>
<text text-anchor="middle" x="576.38" y="-175.5" font-family="Helvetica,sans-Serif" font-size="10.00">actuator_ops.H</text>
</a>
</g>
</g>
<!-- Node1&#45;&gt;Node2 -->
<g id="edge1" class="edge">
<title>Node1&#45;&gt;Node2</title>
<path fill="none" stroke="midnightblue" d="M627.07,-218.1C614.47,-208.38 598.45,-196.03 587.83,-187.83"/>
<polygon fill="midnightblue" stroke="midnightblue" points="625.08,-220.99 635.13,-224.32 629.35,-215.44 625.08,-220.99"/>
</g>
<!-- Node4 -->
<g id="node4" class="node">
<title>Node4</title>
<g id="a_node4"><a xlink:href="_actuator_model_8_h.html" target="_top" xlink:title=" ">
<polygon fill="white" stroke="black" points="329.38,-56.5 329.38,-75.5 427.38,-75.5 427.38,-56.5 329.38,-56.5"/>
<text text-anchor="middle" x="378.38" y="-63.5" font-family="Helvetica,sans-Serif" font-size="10.00">ActuatorModel.H</text>
</a>
</g>
</g>
<!-- Node1&#45;&gt;Node4 -->
<g id="edge27" class="edge">
<title>Node1&#45;&gt;Node4</title>
<path fill="none" stroke="midnightblue" d="M600.11,-230.43C490.63,-223.29 220.83,-199.1 166.38,-132 160.78,-125.1 160.79,-118.91 166.38,-112 186.45,-87.22 272.88,-75.53 329,-70.45"/>
<polygon fill="midnightblue" stroke="midnightblue" points="599.99,-233.93 610.19,-231.07 600.43,-226.94 599.99,-233.93"/>
</g>
<!-- Node5 -->
<g id="node5" class="node">
<title>Node5</title>
<g id="a_node5"><a xlink:href="_actuator_8cpp.html" target="_top" xlink:title=" ">
<polygon fill="white" stroke="black" points="57.88,-0.5 57.88,-19.5 134.88,-19.5 134.88,-0.5 57.88,-0.5"/>
<text text-anchor="middle" x="96.38" y="-7.5" font-family="Helvetica,sans-Serif" font-size="10.00">Actuator.cpp</text>
</a>
</g>
</g>
<!-- Node1&#45;&gt;Node5 -->
<g id="edge28" class="edge">
<title>Node1&#45;&gt;Node5</title>
<path fill="none" stroke="midnightblue" d="M600.02,-233.41C465.6,-233.47 80.63,-225.37 8.38,-132 -23.57,-90.71 48.9,-39.66 81.52,-19.64"/>
<polygon fill="midnightblue" stroke="midnightblue" points="600.39,-236.91 610.38,-233.39 600.37,-229.91 600.39,-236.91"/>
</g>
<!-- Node16 -->
<g id="node16" class="node">
<title>Node16</title>
<g id="a_node16"><a xlink:href="wing__ops_8_h.html" target="_top" xlink:title=" ">
<polygon fill="white" stroke="black" points="663.88,-112.5 663.88,-131.5 736.88,-131.5 736.88,-112.5 663.88,-112.5"/>
<text text-anchor="middle" x="700.38" y="-119.5" font-family="Helvetica,sans-Serif" font-size="10.00">wing_ops.H</text>
</a>
</g>
</g>
<!-- Node1&#45;&gt;Node16 -->
<g id="edge32" class="edge">
<title>Node1&#45;&gt;Node16</title>
<path fill="none" stroke="midnightblue" d="M655.06,-215.32C666.82,-191.37 687.35,-149.55 696.16,-131.59"/>
<polygon fill="midnightblue" stroke="midnightblue" points="651.88,-213.85 650.62,-224.37 658.17,-216.93 651.88,-213.85"/>
</g>
<!-- Node18 -->
<g id="node18" class="node">
<title>Node18</title>
<g id="a_node18"><a xlink:href="wing__ops_8cpp.html" target="_top" xlink:title=" ">
<polygon fill="white" stroke="black" points="717.88,-56.5 717.88,-75.5 800.88,-75.5 800.88,-56.5 717.88,-56.5"/>
<text text-anchor="middle" x="759.38" y="-63.5" font-family="Helvetica,sans-Serif" font-size="10.00">wing_ops.cpp</text>
</a>
</g>
</g>
<!-- Node1&#45;&gt;Node18 -->
<g id="edge33" class="edge">
<title>Node1&#45;&gt;Node18</title>
<path fill="none" stroke="midnightblue" d="M666.97,-218.25C690.11,-200.5 726.96,-168.51 746.38,-132 756.22,-113.51 758.64,-88.46 759.22,-75.52"/>
<polygon fill="midnightblue" stroke="midnightblue" points="664.75,-215.53 658.84,-224.33 668.95,-221.14 664.75,-215.53"/>
</g>
<!-- Node19 -->
<g id="node19" class="node">
<title>Node19</title>
<g id="a_node19"><a xlink:href="turbine__utils_8_h.html" target="_top" xlink:title=" ">
<polygon fill="white" stroke="black" points="803.38,-168.5 803.38,-187.5 891.38,-187.5 891.38,-168.5 803.38,-168.5"/>
<text text-anchor="middle" x="847.38" y="-175.5" font-family="Helvetica,sans-Serif" font-size="10.00">turbine_utils.H</text>
</a>
</g>
</g>
<!-- Node1&#45;&gt;Node19 -->
<g id="edge29" class="edge">
<title>Node1&#45;&gt;Node19</title>
<path fill="none" stroke="midnightblue" d="M687.96,-221.83C725.91,-211.63 781.19,-196.78 815.68,-187.52"/>
<polygon fill="midnightblue" stroke="midnightblue" points="686.98,-218.47 678.23,-224.44 688.8,-225.23 686.98,-218.47"/>
</g>
<!-- Node3 -->
<g id="node3" class="node">
<title>Node3</title>
<g id="a_node3"><a xlink:href="_act_src_line_op_8_h.html" target="_top" xlink:title=" ">
<polygon fill="white" stroke="black" points="175.38,-112.5 175.38,-131.5 267.38,-131.5 267.38,-112.5 175.38,-112.5"/>
<text text-anchor="middle" x="221.38" y="-119.5" font-family="Helvetica,sans-Serif" font-size="10.00">ActSrcLineOp.H</text>
</a>
</g>
</g>
<!-- Node2&#45;&gt;Node3 -->
<g id="edge2" class="edge">
<title>Node2&#45;&gt;Node3</title>
<path fill="none" stroke="midnightblue" d="M521.33,-168.97C461.13,-160.13 361.84,-145.4 276.38,-132 273.51,-131.55 270.56,-131.08 267.59,-130.61"/>
<polygon fill="midnightblue" stroke="midnightblue" points="520.97,-172.45 531.37,-170.44 521.99,-165.53 520.97,-172.45"/>
</g>
<!-- Node2&#45;&gt;Node4 -->
<g id="edge9" class="edge">
<title>Node2&#45;&gt;Node4</title>
<path fill="none" stroke="midnightblue" d="M570.75,-158.86C565.28,-144.15 555.54,-123.96 540.38,-112 508.07,-86.51 462.21,-75.44 427.52,-70.65"/>
<polygon fill="midnightblue" stroke="midnightblue" points="567.47,-160.07 574,-168.41 574.09,-157.82 567.47,-160.07"/>
</g>
<!-- Node10 -->
<g id="node10" class="node">
<title>Node10</title>
<g id="a_node10"><a xlink:href="_act_src_disk_op___turbine_8_h.html" target="_top" xlink:title=" ">
<polygon fill="white" stroke="black" points="285.38,-112.5 285.38,-131.5 419.38,-131.5 419.38,-112.5 285.38,-112.5"/>
<text text-anchor="middle" x="352.38" y="-119.5" font-family="Helvetica,sans-Serif" font-size="10.00">ActSrcDiskOp_Turbine.H</text>
</a>
</g>
</g>
<!-- Node2&#45;&gt;Node10 -->
<g id="edge10" class="edge">
<title>Node2&#45;&gt;Node10</title>
<path fill="none" stroke="midnightblue" d="M531.12,-166.09C488.8,-155.89 426.47,-140.86 387.71,-131.52"/>
<polygon fill="midnightblue" stroke="midnightblue" points="530.35,-169.5 540.89,-168.44 531.99,-162.7 530.35,-169.5"/>
</g>
<!-- Node11 -->
<g id="node11" class="node">
<title>Node11</title>
<g id="a_node11"><a xlink:href="_act_src_disk_op_8_h.html" target="_top" xlink:title=" ">
<polygon fill="white" stroke="black" points="437.88,-112.5 437.88,-131.5 530.88,-131.5 530.88,-112.5 437.88,-112.5"/>
<text text-anchor="middle" x="484.38" y="-119.5" font-family="Helvetica,sans-Serif" font-size="10.00">ActSrcDiskOp.H</text>
</a>
</g>
</g>
<!-- Node2&#45;&gt;Node11 -->
<g id="edge12" class="edge">
<title>Node2&#45;&gt;Node11</title>
<path fill="none" stroke="midnightblue" d="M552.83,-163.18C535.9,-153.24 513.6,-140.15 499.13,-131.65"/>
<polygon fill="midnightblue" stroke="midnightblue" points="551.2,-166.28 561.6,-168.32 554.75,-160.24 551.2,-166.28"/>
</g>
<!-- Node12 -->
<g id="node12" class="node">
<title>Node12</title>
<g id="a_node12"><a xlink:href="uniform__ct__ops_8_h.html" target="_top" xlink:title=" ">
<polygon fill="white" stroke="black" points="17.38,-112.5 17.38,-131.5 119.38,-131.5 119.38,-112.5 17.38,-112.5"/>
<text text-anchor="middle" x="68.38" y="-119.5" font-family="Helvetica,sans-Serif" font-size="10.00">uniform_ct_ops.H</text>
</a>
</g>
</g>
<!-- Node2&#45;&gt;Node12 -->
<g id="edge14" class="edge">
<title>Node2&#45;&gt;Node12</title>
<path fill="none" stroke="midnightblue" d="M521.2,-171.13C422.22,-160.61 215.86,-138.68 119.72,-128.46"/>
<polygon fill="midnightblue" stroke="midnightblue" points="520.99,-174.63 531.3,-172.21 521.73,-167.67 520.99,-174.63"/>
</g>
<!-- Node14 -->
<g id="node14" class="node">
<title>Node14</title>
<g id="a_node14"><a xlink:href="turbine__fast__ops_8_h.html" target="_top" xlink:title=" ">
<polygon fill="white" stroke="black" points="793.38,-112.5 793.38,-131.5 901.38,-131.5 901.38,-112.5 793.38,-112.5"/>
<text text-anchor="middle" x="847.38" y="-119.5" font-family="Helvetica,sans-Serif" font-size="10.00">turbine_fast_ops.H</text>
</a>
</g>
</g>
<!-- Node2&#45;&gt;Node14 -->
<g id="edge17" class="edge">
<title>Node2&#45;&gt;Node14</title>
<path fill="none" stroke="midnightblue" d="M629.21,-166.47C680.43,-156.27 757.15,-140.98 804.64,-131.52"/>
<polygon fill="midnightblue" stroke="midnightblue" points="628.45,-163.06 619.32,-168.44 629.81,-169.92 628.45,-163.06"/>
</g>
<!-- Node15 -->
<g id="node15" class="node">
<title>Node15</title>
<g id="a_node15"><a xlink:href="fixed__wing__ops_8_h.html" target="_top" xlink:title=" ">
<polygon fill="white" stroke="black" points="474.88,-56.5 474.88,-75.5 575.88,-75.5 575.88,-56.5 474.88,-56.5"/>
<text text-anchor="middle" x="525.38" y="-63.5" font-family="Helvetica,sans-Serif" font-size="10.00">fixed_wing_ops.H</text>
</a>
</g>
</g>
<!-- Node2&#45;&gt;Node15 -->
<g id="edge19" class="edge">
<title>Node2&#45;&gt;Node15</title>
<path fill="none" stroke="midnightblue" d="M579.15,-158.08C580.28,-144.62 580.03,-126.43 573.38,-112 566.21,-96.44 550.96,-83.66 539.57,-75.75"/>
<polygon fill="midnightblue" stroke="midnightblue" points="575.67,-157.76 578,-168.1 582.62,-158.57 575.67,-157.76"/>
</g>
<!-- Node2&#45;&gt;Node16 -->
<g id="edge21" class="edge">
<title>Node2&#45;&gt;Node16</title>
<path fill="none" stroke="midnightblue" d="M605.39,-164.37C628.61,-154.26 660.54,-140.35 680.82,-131.52"/>
<polygon fill="midnightblue" stroke="midnightblue" points="603.8,-161.24 596.03,-168.44 606.6,-167.66 603.8,-161.24"/>
</g>
<!-- Node17 -->
<g id="node17" class="node">
<title>Node17</title>
<g id="a_node17"><a xlink:href="flat__plate__ops_8_h.html" target="_top" xlink:title=" ">
<polygon fill="white" stroke="black" points="593.88,-56.5 593.88,-75.5 688.88,-75.5 688.88,-56.5 593.88,-56.5"/>
<text text-anchor="middle" x="641.38" y="-63.5" font-family="Helvetica,sans-Serif" font-size="10.00">flat_plate_ops.H</text>
</a>
</g>
</g>
<!-- Node2&#45;&gt;Node17 -->
<g id="edge26" class="edge">
<title>Node2&#45;&gt;Node17</title>
<path fill="none" stroke="midnightblue" d="M586.64,-159.64C600.76,-135.74 625.65,-93.63 636.3,-75.59"/>
<polygon fill="midnightblue" stroke="midnightblue" points="583.56,-157.98 581.48,-168.37 589.58,-161.54 583.56,-157.98"/>
</g>
<!-- Node3&#45;&gt;Node4 -->
<g id="edge3" class="edge">
<title>Node3&#45;&gt;Node4</title>
<path fill="none" stroke="midnightblue" d="M255.77,-109.17C285.33,-99 327.25,-84.59 353.62,-75.52"/>
<polygon fill="midnightblue" stroke="midnightblue" points="254.58,-105.88 246.26,-112.44 256.85,-112.5 254.58,-105.88"/>
</g>
<!-- Node4&#45;&gt;Node5 -->
<g id="edge4" class="edge">
<title>Node4&#45;&gt;Node5</title>
<path fill="none" stroke="midnightblue" d="M323.69,-54.53C268.23,-43.91 183.8,-27.74 134.97,-18.39"/>
<polygon fill="midnightblue" stroke="midnightblue" points="323.22,-58 333.7,-56.44 324.53,-51.13 323.22,-58"/>
</g>
<!-- Node6 -->
<g id="node6" class="node">
<title>Node6</title>
<g id="a_node6"><a xlink:href="_actuator_disk_8cpp.html" target="_top" xlink:title=" ">
<polygon fill="white" stroke="black" points="225.38,-0.5 225.38,-19.5 325.38,-19.5 325.38,-0.5 225.38,-0.5"/>
<text text-anchor="middle" x="275.38" y="-7.5" font-family="Helvetica,sans-Serif" font-size="10.00">ActuatorDisk.cpp</text>
</a>
</g>
</g>
<!-- Node4&#45;&gt;Node6 -->
<g id="edge5" class="edge">
<title>Node4&#45;&gt;Node6</title>
<path fill="none" stroke="midnightblue" d="M352.8,-51.59C333.76,-41.61 308.32,-28.27 291.89,-19.65"/>
<polygon fill="midnightblue" stroke="midnightblue" points="351.35,-54.78 361.83,-56.32 354.6,-48.58 351.35,-54.78"/>
</g>
<!-- Node7 -->
<g id="node7" class="node">
<title>Node7</title>
<g id="a_node7"><a xlink:href="_turbine_fast_8cpp.html" target="_top" xlink:title=" ">
<polygon fill="white" stroke="black" points="755.38,-0.5 755.38,-19.5 847.38,-19.5 847.38,-0.5 755.38,-0.5"/>
<text text-anchor="middle" x="801.38" y="-7.5" font-family="Helvetica,sans-Serif" font-size="10.00">TurbineFast.cpp</text>
</a>
</g>
</g>
<!-- Node4&#45;&gt;Node7 -->
<g id="edge6" class="edge">
<title>Node4&#45;&gt;Node7</title>
<path fill="none" stroke="midnightblue" d="M437.77,-57.42C522.96,-46.54 678.09,-26.74 755.24,-16.89"/>
<polygon fill="midnightblue" stroke="midnightblue" points="437.21,-53.96 427.73,-58.7 438.1,-60.91 437.21,-53.96"/>
</g>
<!-- Node8 -->
<g id="node8" class="node">
<title>Node8</title>
<g id="a_node8"><a xlink:href="_fixed_wing_8cpp.html" target="_top" xlink:title=" ">
<polygon fill="white" stroke="black" points="379.88,-0.5 379.88,-19.5 466.88,-19.5 466.88,-0.5 379.88,-0.5"/>
<text text-anchor="middle" x="423.38" y="-7.5" font-family="Helvetica,sans-Serif" font-size="10.00">FixedWing.cpp</text>
</a>
</g>
</g>
<!-- Node4&#45;&gt;Node8 -->
<g id="edge7" class="edge">
<title>Node4&#45;&gt;Node8</title>
<path fill="none" stroke="midnightblue" d="M392.43,-48.14C400.27,-38.74 409.71,-27.4 416.09,-19.75"/>
<polygon fill="midnightblue" stroke="midnightblue" points="389.53,-46.16 385.81,-56.08 394.9,-50.64 389.53,-46.16"/>
</g>
<!-- Node9 -->
<g id="node9" class="node">
<title>Node9</title>
<g id="a_node9"><a xlink:href="_flat_plate_8cpp.html" target="_top" xlink:title=" ">
<polygon fill="white" stroke="black" points="575.38,-0.5 575.38,-19.5 655.38,-19.5 655.38,-0.5 575.38,-0.5"/>
<text text-anchor="middle" x="615.38" y="-7.5" font-family="Helvetica,sans-Serif" font-size="10.00">FlatPlate.cpp</text>
</a>
</g>
</g>
<!-- Node4&#45;&gt;Node9 -->
<g id="edge8" class="edge">
<title>Node4&#45;&gt;Node9</title>
<path fill="none" stroke="midnightblue" d="M425.71,-54.22C470.49,-44.01 536.82,-28.9 578,-19.52"/>
<polygon fill="midnightblue" stroke="midnightblue" points="424.91,-50.81 415.93,-56.44 426.46,-57.63 424.91,-50.81"/>
</g>
<!-- Node10&#45;&gt;Node4 -->
<g id="edge11" class="edge">
<title>Node10&#45;&gt;Node4</title>
<path fill="none" stroke="midnightblue" d="M361.06,-102.98C365.47,-93.82 370.63,-83.09 374.17,-75.75"/>
<polygon fill="midnightblue" stroke="midnightblue" points="357.86,-101.55 356.67,-112.08 364.17,-104.59 357.86,-101.55"/>
</g>
<!-- Node11&#45;&gt;Node4 -->
<g id="edge13" class="edge">
<title>Node11&#45;&gt;Node4</title>
<path fill="none" stroke="midnightblue" d="M458.33,-107.73C438.7,-97.73 412.35,-84.31 395.37,-75.65"/>
<polygon fill="midnightblue" stroke="midnightblue" points="456.85,-110.9 467.35,-112.32 460.03,-104.67 456.85,-110.9"/>
</g>
<!-- Node12&#45;&gt;Node6 -->
<g id="edge15" class="edge">
<title>Node12&#45;&gt;Node6</title>
<path fill="none" stroke="midnightblue" d="M68.98,-102.09C70.47,-87.52 74.88,-67.9 87.38,-56 106.95,-37.37 176.26,-24.38 225.01,-17.3"/>
<polygon fill="midnightblue" stroke="midnightblue" points="65.46,-102.26 68.31,-112.46 72.45,-102.7 65.46,-102.26"/>
</g>
<!-- Node13 -->
<g id="node13" class="node">
<title>Node13</title>
<g id="a_node13"><a xlink:href="uniform__ct__ops_8cpp.html" target="_top" xlink:title=" ">
<polygon fill="white" stroke="black" points="96.38,-56.5 96.38,-75.5 208.38,-75.5 208.38,-56.5 96.38,-56.5"/>
<text text-anchor="middle" x="152.38" y="-63.5" font-family="Helvetica,sans-Serif" font-size="10.00">uniform_ct_ops.cpp</text>
</a>
</g>
</g>
<!-- Node12&#45;&gt;Node13 -->
<g id="edge16" class="edge">
<title>Node12&#45;&gt;Node13</title>
<path fill="none" stroke="midnightblue" d="M90.31,-106.9C105.72,-97 125.83,-84.07 138.92,-75.65"/>
<polygon fill="midnightblue" stroke="midnightblue" points="88.4,-103.97 81.88,-112.32 92.18,-109.86 88.4,-103.97"/>
</g>
<!-- Node14&#45;&gt;Node7 -->
<g id="edge18" class="edge">
<title>Node14&#45;&gt;Node7</title>
<path fill="none" stroke="midnightblue" d="M839.85,-103C829.82,-79 812.45,-37.47 804.97,-19.59"/>
<polygon fill="midnightblue" stroke="midnightblue" points="836.68,-104.49 843.77,-112.37 843.14,-101.79 836.68,-104.49"/>
</g>
<!-- Node15&#45;&gt;Node8 -->
<g id="edge20" class="edge">
<title>Node15&#45;&gt;Node8</title>
<path fill="none" stroke="midnightblue" d="M500.05,-51.59C481.19,-41.61 456,-28.27 439.73,-19.65"/>
<polygon fill="midnightblue" stroke="midnightblue" points="498.52,-54.74 508.99,-56.32 501.79,-48.55 498.52,-54.74"/>
</g>
<!-- Node16&#45;&gt;Node15 -->
<g id="edge22" class="edge">
<title>Node16&#45;&gt;Node15</title>
<path fill="none" stroke="midnightblue" d="M662.91,-109.44C629.91,-99.26 582.63,-84.66 552.98,-75.52"/>
<polygon fill="midnightblue" stroke="midnightblue" points="662.06,-112.84 672.65,-112.44 664.13,-106.15 662.06,-112.84"/>
</g>
<!-- Node16&#45;&gt;Node17 -->
<g id="edge23" class="edge">
<title>Node16&#45;&gt;Node17</title>
<path fill="none" stroke="midnightblue" d="M683.49,-105.54C672.97,-95.91 659.81,-83.87 651.03,-75.83"/>
<polygon fill="midnightblue" stroke="midnightblue" points="681.16,-108.15 690.9,-112.32 685.89,-102.99 681.16,-108.15"/>
</g>
<!-- Node16&#45;&gt;Node18 -->
<g id="edge25" class="edge">
<title>Node16&#45;&gt;Node18</title>
<path fill="none" stroke="midnightblue" d="M717.28,-105.54C727.8,-95.91 740.95,-83.87 749.73,-75.83"/>
<polygon fill="midnightblue" stroke="midnightblue" points="714.87,-102.99 709.86,-112.32 719.6,-108.15 714.87,-102.99"/>
</g>
<!-- Node17&#45;&gt;Node9 -->
<g id="edge24" class="edge">
<title>Node17&#45;&gt;Node9</title>
<path fill="none" stroke="midnightblue" d="M632.71,-46.98C628.29,-37.82 623.13,-27.09 619.59,-19.75"/>
<polygon fill="midnightblue" stroke="midnightblue" points="629.6,-48.59 637.09,-56.08 635.9,-45.55 629.6,-48.59"/>
</g>
<!-- Node19&#45;&gt;Node14 -->
<g id="edge30" class="edge">
<title>Node19&#45;&gt;Node14</title>
<path fill="none" stroke="midnightblue" d="M847.38,-157.8C847.38,-148.91 847.38,-138.78 847.38,-131.75"/>
<polygon fill="midnightblue" stroke="midnightblue" points="843.88,-158.08 847.38,-168.08 850.88,-158.08 843.88,-158.08"/>
</g>
<!-- Node20 -->
<g id="node20" class="node">
<title>Node20</title>
<g id="a_node20"><a xlink:href="turbine__utils_8cpp.html" target="_top" xlink:title=" ">
<polygon fill="white" stroke="black" points="919.38,-112.5 919.38,-131.5 1017.38,-131.5 1017.38,-112.5 919.38,-112.5"/>
<text text-anchor="middle" x="968.38" y="-119.5" font-family="Helvetica,sans-Serif" font-size="10.00">turbine_utils.cpp</text>
</a>
</g>
</g>
<!-- Node19&#45;&gt;Node20 -->
<g id="edge31" class="edge">
<title>Node19&#45;&gt;Node20</title>
<path fill="none" stroke="midnightblue" d="M875.69,-164.37C898.35,-154.26 929.51,-140.35 949.3,-131.52"/>
<polygon fill="midnightblue" stroke="midnightblue" points="874.26,-161.17 866.55,-168.44 877.11,-167.56 874.26,-161.17"/>
</g>
</g>
</svg>
        <g id="navigator" transform="translate(0 0)" fill="#404254">
                <rect fill="#f2f5e9" fill-opacity="0.5" stroke="#606060" stroke-width=".5" x="0" y="0" width="60" height="60"/>
                <use id="zoomplus" xlink:href="#zoomPlus" x="17" y="9" onmousedown="handleZoom(evt,'in')"/>
                <use id="zoomminus" xlink:href="#zoomMin" x="42" y="9" onmousedown="handleZoom(evt,'out')"/>
                <use id="reset" xlink:href="#resetDef" x="30" y="36" onmousedown="handleReset()"/>
                <g id="arrowUp" xlink:href="#dirArrow" transform="translate(30 24)" onmousedown="handlePan(0,-1)">
                  <use xlink:href="#rim" fill="#404040">
                        <set attributeName="fill" to="#808080" begin="arrowUp.mouseover" end="arrowUp.mouseout"/>
                  </use>
                  <path fill="none" stroke="white" stroke-width="1.5" d="M0,-3.0v7 M-2.5,-0.5L0,-3.0L2.5,-0.5"/>
                </g>
                <g id="arrowRight" xlink:href="#dirArrow" transform="rotate(90) translate(36 -43)" onmousedown="handlePan(1,0)">
                  <use xlink:href="#rim" fill="#404040">
                        <set attributeName="fill" to="#808080" begin="arrowRight.mouseover" end="arrowRight.mouseout"/>
                  </use>
                  <path fill="none" stroke="white" stroke-width="1.5" d="M0,-3.0v7 M-2.5,-0.5L0,-3.0L2.5,-0.5"/>
                </g>
                <g id="arrowDown" xlink:href="#dirArrow" transform="rotate(180) translate(-30 -48)" onmousedown="handlePan(0,1)">
                  <use xlink:href="#rim" fill="#404040">
                        <set attributeName="fill" to="#808080" begin="arrowDown.mouseover" end="arrowDown.mouseout"/>
                  </use>
                  <path fill="none" stroke="white" stroke-width="1.5" d="M0,-3.0v7 M-2.5,-0.5L0,-3.0L2.5,-0.5"/>
                </g>
                <g id="arrowLeft" xlink:href="#dirArrow" transform="rotate(270) translate(-36 17)" onmousedown="handlePan(-1,0)">
                  <use xlink:href="#rim" fill="#404040">
                        <set attributeName="fill" to="#808080" begin="arrowLeft.mouseover" end="arrowLeft.mouseout"/>
                  </use>
                  <path fill="none" stroke="white" stroke-width="1.5" d="M0,-3.0v7 M-2.5,-0.5L0,-3.0L2.5,-0.5"/>
                </g>
        </g>
        <svg viewBox="0 0 15 15" width="100%" height="30px" preserveAspectRatio="xMaxYMin meet">
         <g id="arrow_out" transform="scale(0.3 0.3)">
          <a xlink:href="_act_parser_8_h__dep__incl_org.svg" target="_base">
           <rect id="button" ry="5" rx="5" y="6" x="6" height="38" width="38"
                fill="#f2f5e9" fill-opacity="0.5" stroke="#606060" stroke-width="1.0"/>
           <path id="arrow"
             d="M 11.500037,31.436501 C 11.940474,20.09759 22.043105,11.32322 32.158766,21.979434 L 37.068811,17.246167 C 37.068811,17.246167 37.088388,32 37.088388,32 L 22.160133,31.978069 C 22.160133,31.978069 26.997745,27.140456 26.997745,27.140456 C 18.528582,18.264221 13.291696,25.230495 11.500037,31.436501 z"
             style="fill:#404040;"/>
          </a>
         </g>
        </svg>
</svg>
