<?xml version="1.0" encoding="UTF-8" standalone="no"?>
<!DOCTYPE svg PUBLIC "-//W3C//DTD SVG 1.1//EN"
 "http://www.w3.org/Graphics/SVG/1.1/DTD/svg11.dtd">
<!-- Generated by graphviz version 2.43.0 (0)
 -->
<!-- Title: CollMgr.H Pages: 1 -->
<svg width="3611pt" height="364pt"
 viewBox="0.00 0.00 3610.50 364.00" xmlns="http://www.w3.org/2000/svg" xmlns:xlink="http://www.w3.org/1999/xlink">
<g id="graph0" class="graph" transform="scale(1 1) rotate(0) translate(4 360)">
<title>CollMgr.H</title>
<polygon fill="white" stroke="transparent" points="-4,4 -4,-360 3606.5,-360 3606.5,4 -4,4"/>
<!-- Node1 -->
<g id="node1" class="node">
<title>Node1</title>
<g id="a_node1"><a xlink:title=" ">
<polygon fill="#bfbfbf" stroke="black" points="2270.5,-336.5 2270.5,-355.5 2334.5,-355.5 2334.5,-336.5 2270.5,-336.5"/>
<text text-anchor="middle" x="2302.5" y="-343.5" font-family="Helvetica,sans-Serif" font-size="10.00">CollMgr.H</text>
</a>
</g>
</g>
<!-- Node2 -->
<g id="node2" class="node">
<title>Node2</title>
<g id="a_node2"><a xlink:href="_p_d_e_base_8_h.html" target="_top" xlink:title=" ">
<polygon fill="white" stroke="black" points="3175,-280.5 3175,-299.5 3246,-299.5 3246,-280.5 3175,-280.5"/>
<text text-anchor="middle" x="3210.5" y="-287.5" font-family="Helvetica,sans-Serif" font-size="10.00">PDEBase.H</text>
</a>
</g>
</g>
<!-- Node1&#45;&gt;Node2 -->
<g id="edge1" class="edge">
<title>Node1&#45;&gt;Node2</title>
<path fill="none" stroke="midnightblue" d="M2344.57,-342.5C2498.73,-333.33 3031.21,-301.66 3174.66,-293.13"/>
<polygon fill="midnightblue" stroke="midnightblue" points="2344.32,-339.01 2334.55,-343.09 2344.74,-345.99 2344.32,-339.01"/>
</g>
<!-- Node137 -->
<g id="node25" class="node">
<title>Node137</title>
<g id="a_node25"><a xlink:href="_derived_quantity_8_h.html" target="_top" xlink:title=" ">
<polygon fill="white" stroke="black" points="3188.5,-168.5 3188.5,-187.5 3294.5,-187.5 3294.5,-168.5 3188.5,-168.5"/>
<text text-anchor="middle" x="3241.5" y="-175.5" font-family="Helvetica,sans-Serif" font-size="10.00">DerivedQuantity.H</text>
</a>
</g>
</g>
<!-- Node1&#45;&gt;Node137 -->
<g id="edge80" class="edge">
<title>Node1&#45;&gt;Node137</title>
<path fill="none" stroke="midnightblue" d="M2344.7,-344.19C2524.09,-340.59 3215.9,-325.13 3254.5,-300 3284.67,-280.36 3295.5,-257.57 3282.5,-224 3276.62,-208.82 3262.98,-195.62 3253.04,-187.51"/>
<polygon fill="midnightblue" stroke="midnightblue" points="2344.53,-340.69 2334.6,-344.39 2344.67,-347.69 2344.53,-340.69"/>
</g>
<!-- Node182 -->
<g id="node33" class="node">
<title>Node182</title>
<g id="a_node33"><a xlink:href="_physics_8_h.html" target="_top" xlink:title=" ">
<polygon fill="white" stroke="black" points="1376.5,-280.5 1376.5,-299.5 1440.5,-299.5 1440.5,-280.5 1376.5,-280.5"/>
<text text-anchor="middle" x="1408.5" y="-287.5" font-family="Helvetica,sans-Serif" font-size="10.00">Physics.H</text>
</a>
</g>
</g>
<!-- Node1&#45;&gt;Node182 -->
<g id="edge48" class="edge">
<title>Node1&#45;&gt;Node182</title>
<path fill="none" stroke="midnightblue" d="M2260.43,-342.46C2106.71,-333.17 1577.37,-301.2 1440.84,-292.95"/>
<polygon fill="midnightblue" stroke="midnightblue" points="2260.23,-345.95 2270.42,-343.06 2260.65,-338.97 2260.23,-345.95"/>
</g>
<!-- Node200 -->
<g id="node48" class="node">
<title>Node200</title>
<g id="a_node48"><a xlink:href="_ext_solver_8_h.html" target="_top" xlink:title=" ">
<polygon fill="white" stroke="black" points="82,-280.5 82,-299.5 155,-299.5 155,-280.5 82,-280.5"/>
<text text-anchor="middle" x="118.5" y="-287.5" font-family="Helvetica,sans-Serif" font-size="10.00">ExtSolver.H</text>
</a>
</g>
</g>
<!-- Node1&#45;&gt;Node200 -->
<g id="edge75" class="edge">
<title>Node1&#45;&gt;Node200</title>
<path fill="none" stroke="midnightblue" d="M2260.28,-343.96C1982.17,-337.08 416.44,-298.37 155.4,-291.91"/>
<polygon fill="midnightblue" stroke="midnightblue" points="2260.28,-347.46 2270.36,-344.21 2260.45,-340.46 2260.28,-347.46"/>
</g>
<!-- Node3 -->
<g id="node3" class="node">
<title>Node3</title>
<g id="a_node3"><a xlink:href="_c_f_d_sim_8_h.html" target="_top" xlink:title=" ">
<polygon fill="white" stroke="red" points="2421.5,-224.5 2421.5,-243.5 2487.5,-243.5 2487.5,-224.5 2421.5,-224.5"/>
<text text-anchor="middle" x="2454.5" y="-231.5" font-family="Helvetica,sans-Serif" font-size="10.00">CFDSim.H</text>
</a>
</g>
</g>
<!-- Node2&#45;&gt;Node3 -->
<g id="edge2" class="edge">
<title>Node2&#45;&gt;Node3</title>
<path fill="none" stroke="midnightblue" d="M3164.46,-285.71C3024.85,-275.74 2608.46,-246 2487.68,-237.37"/>
<polygon fill="midnightblue" stroke="midnightblue" points="3164.57,-289.23 3174.8,-286.45 3165.07,-282.25 3164.57,-289.23"/>
</g>
<!-- Node7 -->
<g id="node6" class="node">
<title>Node7</title>
<g id="a_node6"><a xlink:href="incflo_8cpp.html" target="_top" xlink:title=" ">
<polygon fill="white" stroke="black" points="2791,-0.5 2791,-19.5 2854,-19.5 2854,-0.5 2791,-0.5"/>
<text text-anchor="middle" x="2822.5" y="-7.5" font-family="Helvetica,sans-Serif" font-size="10.00">incflo.cpp</text>
</a>
</g>
</g>
<!-- Node2&#45;&gt;Node7 -->
<g id="edge39" class="edge">
<title>Node2&#45;&gt;Node7</title>
<path fill="none" stroke="midnightblue" d="M3239.81,-275.85C3272.99,-258.72 3322.5,-225.39 3322.5,-179 3322.5,-179 3322.5,-179 3322.5,-121 3322.5,-24.67 2964.07,-12.61 2854.16,-11.17"/>
<polygon fill="midnightblue" stroke="midnightblue" points="3237.93,-272.87 3230.52,-280.44 3241.04,-279.14 3237.93,-272.87"/>
</g>
<!-- Node8 -->
<g id="node7" class="node">
<title>Node8</title>
<g id="a_node7"><a xlink:href="incflo__advance_8cpp.html" target="_top" xlink:title=" ">
<polygon fill="white" stroke="black" points="2888.5,-112.5 2888.5,-131.5 2998.5,-131.5 2998.5,-112.5 2888.5,-112.5"/>
<text text-anchor="middle" x="2943.5" y="-119.5" font-family="Helvetica,sans-Serif" font-size="10.00">incflo_advance.cpp</text>
</a>
</g>
</g>
<!-- Node2&#45;&gt;Node8 -->
<g id="edge40" class="edge">
<title>Node2&#45;&gt;Node8</title>
<path fill="none" stroke="midnightblue" d="M3186.9,-274.81C3175.83,-267.02 3163.37,-256.42 3155.5,-244 3136.86,-214.59 3161.31,-192.42 3136.5,-168 3126.14,-157.8 3045.35,-141.46 2991.63,-131.53"/>
<polygon fill="midnightblue" stroke="midnightblue" points="3185.1,-277.82 3195.37,-280.44 3188.97,-271.99 3185.1,-277.82"/>
</g>
<!-- Node35 -->
<g id="node11" class="node">
<title>Node35</title>
<g id="a_node11"><a xlink:href="_p_d_e_8_h.html" target="_top" xlink:title=" ">
<polygon fill="white" stroke="red" points="2572,-112.5 2572,-131.5 2619,-131.5 2619,-112.5 2572,-112.5"/>
<text text-anchor="middle" x="2595.5" y="-119.5" font-family="Helvetica,sans-Serif" font-size="10.00">PDE.H</text>
</a>
</g>
</g>
<!-- Node2&#45;&gt;Node35 -->
<g id="edge37" class="edge">
<title>Node2&#45;&gt;Node35</title>
<path fill="none" stroke="midnightblue" d="M3164.62,-280.57C3083.89,-265.29 2911.52,-230.59 2769.5,-188 2712.82,-171 2648,-144.98 2615.82,-131.6"/>
<polygon fill="midnightblue" stroke="midnightblue" points="3164.45,-284.1 3174.93,-282.51 3165.75,-277.22 3164.45,-284.1"/>
</g>
<!-- Node85 -->
<g id="node17" class="node">
<title>Node85</title>
<g id="a_node17"><a xlink:href="_p_d_e_base_8cpp.html" target="_top" xlink:title=" ">
<polygon fill="white" stroke="black" points="2888.5,-168.5 2888.5,-187.5 2968.5,-187.5 2968.5,-168.5 2888.5,-168.5"/>
<text text-anchor="middle" x="2928.5" y="-175.5" font-family="Helvetica,sans-Serif" font-size="10.00">PDEBase.cpp</text>
</a>
</g>
</g>
<!-- Node2&#45;&gt;Node85 -->
<g id="edge38" class="edge">
<title>Node2&#45;&gt;Node85</title>
<path fill="none" stroke="midnightblue" d="M3179.03,-276.73C3121.4,-254.25 3000.26,-206.99 2950.53,-187.59"/>
<polygon fill="midnightblue" stroke="midnightblue" points="3177.78,-280 3188.37,-280.37 3180.33,-273.47 3177.78,-280"/>
</g>
<!-- Node102 -->
<g id="node19" class="node">
<title>Node102</title>
<g id="a_node19"><a xlink:href="_tioga_interface_8cpp.html" target="_top" xlink:title=" ">
<polygon fill="white" stroke="black" points="2987,-168.5 2987,-187.5 3094,-187.5 3094,-168.5 2987,-168.5"/>
<text text-anchor="middle" x="3040.5" y="-175.5" font-family="Helvetica,sans-Serif" font-size="10.00">TiogaInterface.cpp</text>
</a>
</g>
</g>
<!-- Node2&#45;&gt;Node102 -->
<g id="edge41" class="edge">
<title>Node2&#45;&gt;Node102</title>
<path fill="none" stroke="midnightblue" d="M3235.84,-275.14C3256.52,-262.05 3280.11,-241.83 3265.5,-224 3244.25,-198.08 3153.75,-186.8 3094.2,-182.1"/>
<polygon fill="midnightblue" stroke="midnightblue" points="3233.76,-272.3 3226.99,-280.45 3237.36,-278.31 3233.76,-272.3"/>
</g>
<!-- Node51 -->
<g id="node29" class="node">
<title>Node51</title>
<g id="a_node29"><a xlink:href="_one_eq_ksgs_8cpp.html" target="_top" xlink:title=" ">
<polygon fill="white" stroke="black" points="3164.5,-224.5 3164.5,-243.5 3256.5,-243.5 3256.5,-224.5 3164.5,-224.5"/>
<text text-anchor="middle" x="3210.5" y="-231.5" font-family="Helvetica,sans-Serif" font-size="10.00">OneEqKsgs.cpp</text>
</a>
</g>
</g>
<!-- Node2&#45;&gt;Node51 -->
<g id="edge42" class="edge">
<title>Node2&#45;&gt;Node51</title>
<path fill="none" stroke="midnightblue" d="M3210.5,-269.8C3210.5,-260.91 3210.5,-250.78 3210.5,-243.75"/>
<polygon fill="midnightblue" stroke="midnightblue" points="3207,-270.08 3210.5,-280.08 3214,-270.08 3207,-270.08"/>
</g>
<!-- Node45 -->
<g id="node30" class="node">
<title>Node45</title>
<g id="a_node30"><a xlink:href="_k_omega_s_s_t_i_8_h.html" target="_top" xlink:title=" ">
<polygon fill="white" stroke="black" points="3427,-224.5 3427,-243.5 3516,-243.5 3516,-224.5 3427,-224.5"/>
<text text-anchor="middle" x="3471.5" y="-231.5" font-family="Helvetica,sans-Serif" font-size="10.00">KOmegaSSTI.H</text>
</a>
</g>
</g>
<!-- Node2&#45;&gt;Node45 -->
<g id="edge43" class="edge">
<title>Node2&#45;&gt;Node45</title>
<path fill="none" stroke="midnightblue" d="M3256.28,-279.53C3305.43,-269.36 3382.81,-253.35 3430.17,-243.55"/>
<polygon fill="midnightblue" stroke="midnightblue" points="3255.33,-276.15 3246.24,-281.6 3256.75,-283.01 3255.33,-276.15"/>
</g>
<!-- Node46 -->
<g id="node31" class="node">
<title>Node46</title>
<g id="a_node31"><a xlink:href="_k_omega_s_s_t_8cpp.html" target="_top" xlink:title=" ">
<polygon fill="white" stroke="black" points="3355,-168.5 3355,-187.5 3450,-187.5 3450,-168.5 3355,-168.5"/>
<text text-anchor="middle" x="3402.5" y="-175.5" font-family="Helvetica,sans-Serif" font-size="10.00">KOmegaSST.cpp</text>
</a>
</g>
</g>
<!-- Node2&#45;&gt;Node46 -->
<g id="edge46" class="edge">
<title>Node2&#45;&gt;Node46</title>
<path fill="none" stroke="midnightblue" d="M3255.99,-277.95C3280.95,-270.64 3311.77,-259.52 3336.5,-244 3361.57,-228.27 3384.69,-201.57 3395.72,-187.8"/>
<polygon fill="midnightblue" stroke="midnightblue" points="3254.71,-274.68 3246.03,-280.76 3256.61,-281.41 3254.71,-274.68"/>
</g>
<!-- Node47 -->
<g id="node32" class="node">
<title>Node47</title>
<g id="a_node32"><a xlink:href="_k_omega_s_s_t_i_d_d_e_s_8cpp.html" target="_top" xlink:title=" ">
<polygon fill="white" stroke="black" points="3476.5,-168.5 3476.5,-187.5 3602.5,-187.5 3602.5,-168.5 3476.5,-168.5"/>
<text text-anchor="middle" x="3539.5" y="-175.5" font-family="Helvetica,sans-Serif" font-size="10.00">KOmegaSSTIDDES.cpp</text>
</a>
</g>
</g>
<!-- Node2&#45;&gt;Node47 -->
<g id="edge47" class="edge">
<title>Node2&#45;&gt;Node47</title>
<path fill="none" stroke="midnightblue" d="M3256.55,-288.67C3334.42,-287.13 3487.39,-279.52 3525.5,-244 3541.21,-229.36 3541.48,-201.68 3540.46,-187.64"/>
<polygon fill="midnightblue" stroke="midnightblue" points="3256.02,-285.18 3246.08,-288.85 3256.14,-292.18 3256.02,-285.18"/>
</g>
<!-- Node4 -->
<g id="node4" class="node">
<title>Node4</title>
<g id="a_node4"><a xlink:href="_c_f_d_sim_8cpp.html" target="_top" xlink:title=" ">
<polygon fill="white" stroke="black" points="1499.5,-168.5 1499.5,-187.5 1575.5,-187.5 1575.5,-168.5 1499.5,-168.5"/>
<text text-anchor="middle" x="1537.5" y="-175.5" font-family="Helvetica,sans-Serif" font-size="10.00">CFDSim.cpp</text>
</a>
</g>
</g>
<!-- Node3&#45;&gt;Node4 -->
<g id="edge3" class="edge">
<title>Node3&#45;&gt;Node4</title>
<path fill="none" stroke="midnightblue" d="M2410.98,-231.44C2287.39,-226.83 1923.74,-212.08 1622.5,-188 1607.12,-186.77 1590.2,-185.05 1575.54,-183.45"/>
<polygon fill="midnightblue" stroke="midnightblue" points="2411.05,-234.94 2421.17,-231.81 2411.31,-227.95 2411.05,-234.94"/>
</g>
<!-- Node5 -->
<g id="node5" class="node">
<title>Node5</title>
<g id="a_node5"><a xlink:href="incflo_8_h.html" target="_top" xlink:title=" ">
<polygon fill="white" stroke="red" points="2779,-168.5 2779,-187.5 2832,-187.5 2832,-168.5 2779,-168.5"/>
<text text-anchor="middle" x="2805.5" y="-175.5" font-family="Helvetica,sans-Serif" font-size="10.00">incflo.H</text>
</a>
</g>
</g>
<!-- Node3&#45;&gt;Node5 -->
<g id="edge4" class="edge">
<title>Node3&#45;&gt;Node5</title>
<path fill="none" stroke="midnightblue" d="M2497.81,-226.34C2571.31,-215.03 2718.34,-192.41 2778.7,-183.12"/>
<polygon fill="midnightblue" stroke="midnightblue" points="2496.87,-222.94 2487.52,-227.92 2497.94,-229.86 2496.87,-222.94"/>
</g>
<!-- Node18 -->
<g id="node10" class="node">
<title>Node18</title>
<g id="a_node10"><a xlink:href="_p_d_e_ops_8_h.html" target="_top" xlink:title=" ">
<polygon fill="white" stroke="red" points="2619,-168.5 2619,-187.5 2684,-187.5 2684,-168.5 2619,-168.5"/>
<text text-anchor="middle" x="2651.5" y="-175.5" font-family="Helvetica,sans-Serif" font-size="10.00">PDEOps.H</text>
</a>
</g>
</g>
<!-- Node3&#45;&gt;Node18 -->
<g id="edge9" class="edge">
<title>Node3&#45;&gt;Node18</title>
<path fill="none" stroke="midnightblue" d="M2495.73,-221.7C2532.91,-211.51 2586.77,-196.74 2620.43,-187.52"/>
<polygon fill="midnightblue" stroke="midnightblue" points="2494.43,-218.42 2485.72,-224.44 2496.28,-225.18 2494.43,-218.42"/>
</g>
<!-- Node3&#45;&gt;Node35 -->
<g id="edge11" class="edge">
<title>Node3&#45;&gt;Node35</title>
<path fill="none" stroke="midnightblue" d="M2497.39,-225.61C2521.93,-219.37 2551.68,-208.08 2571.5,-188 2587.05,-172.24 2592.64,-145.56 2594.56,-131.79"/>
<polygon fill="midnightblue" stroke="midnightblue" points="2496.52,-222.22 2487.59,-227.92 2498.12,-229.04 2496.52,-222.22"/>
</g>
<!-- Node57 -->
<g id="node12" class="node">
<title>Node57</title>
<g id="a_node12"><a xlink:href="_a_b_l_forcing_8cpp.html" target="_top" xlink:title=" ">
<polygon fill="white" stroke="black" points="2311,-0.5 2311,-19.5 2402,-19.5 2402,-0.5 2311,-0.5"/>
<text text-anchor="middle" x="2356.5" y="-7.5" font-family="Helvetica,sans-Serif" font-size="10.00">ABLForcing.cpp</text>
</a>
</g>
</g>
<!-- Node3&#45;&gt;Node57 -->
<g id="edge12" class="edge">
<title>Node3&#45;&gt;Node57</title>
<path fill="none" stroke="midnightblue" d="M2427.52,-219.53C2398.38,-203.29 2353.58,-172.99 2334.5,-132 2316.3,-92.9 2340.52,-40.17 2351.55,-19.66"/>
<polygon fill="midnightblue" stroke="midnightblue" points="2425.92,-222.64 2436.38,-224.31 2429.24,-216.48 2425.92,-222.64"/>
</g>
<!-- Node58 -->
<g id="node13" class="node">
<title>Node58</title>
<g id="a_node13"><a xlink:href="_a_b_l_wall_function_8_h.html" target="_top" xlink:title=" ">
<polygon fill="white" stroke="red" points="2344,-112.5 2344,-131.5 2451,-131.5 2451,-112.5 2344,-112.5"/>
<text text-anchor="middle" x="2397.5" y="-119.5" font-family="Helvetica,sans-Serif" font-size="10.00">ABLWallFunction.H</text>
</a>
</g>
</g>
<!-- Node3&#45;&gt;Node58 -->
<g id="edge13" class="edge">
<title>Node3&#45;&gt;Node58</title>
<path fill="none" stroke="midnightblue" d="M2443.41,-215.51C2438.34,-207.28 2432.4,-197.26 2427.5,-188 2417.04,-168.22 2406.46,-144.12 2401.1,-131.56"/>
<polygon fill="midnightblue" stroke="midnightblue" points="2440.57,-217.57 2448.83,-224.2 2446.5,-213.86 2440.57,-217.57"/>
</g>
<!-- Node66 -->
<g id="node15" class="node">
<title>Node66</title>
<g id="a_node15"><a xlink:href="_field_plane_averaging_8_h.html" target="_top" xlink:title=" ">
<polygon fill="white" stroke="red" points="2436.5,-168.5 2436.5,-187.5 2562.5,-187.5 2562.5,-168.5 2436.5,-168.5"/>
<text text-anchor="middle" x="2499.5" y="-175.5" font-family="Helvetica,sans-Serif" font-size="10.00">FieldPlaneAveraging.H</text>
</a>
</g>
</g>
<!-- Node3&#45;&gt;Node66 -->
<g id="edge18" class="edge">
<title>Node3&#45;&gt;Node66</title>
<path fill="none" stroke="midnightblue" d="M2468.55,-216.14C2476.39,-206.74 2485.83,-195.4 2492.21,-187.75"/>
<polygon fill="midnightblue" stroke="midnightblue" points="2465.64,-214.16 2461.93,-224.08 2471.02,-218.64 2465.64,-214.16"/>
</g>
<!-- Node73 -->
<g id="node16" class="node">
<title>Node73</title>
<g id="a_node16"><a xlink:href="_a_b_l_boundary_plane_8_h.html" target="_top" xlink:title=" ">
<polygon fill="white" stroke="red" points="2637,-112.5 2637,-131.5 2756,-131.5 2756,-112.5 2637,-112.5"/>
<text text-anchor="middle" x="2696.5" y="-119.5" font-family="Helvetica,sans-Serif" font-size="10.00">ABLBoundaryPlane.H</text>
</a>
</g>
</g>
<!-- Node3&#45;&gt;Node73 -->
<g id="edge21" class="edge">
<title>Node3&#45;&gt;Node73</title>
<path fill="none" stroke="midnightblue" d="M2497.79,-231C2559.31,-227.17 2667.39,-216.47 2692.5,-188 2706.26,-172.4 2702.31,-145.64 2698.99,-131.83"/>
<polygon fill="midnightblue" stroke="midnightblue" points="2497.38,-227.52 2487.6,-231.6 2497.79,-234.5 2497.38,-227.52"/>
</g>
<!-- Node3&#45;&gt;Node85 -->
<g id="edge23" class="edge">
<title>Node3&#45;&gt;Node85</title>
<path fill="none" stroke="midnightblue" d="M2497.69,-229.21C2573.93,-222.34 2737.27,-206.77 2874.5,-188 2879.02,-187.38 2883.74,-186.68 2888.44,-185.94"/>
<polygon fill="midnightblue" stroke="midnightblue" points="2497.17,-225.74 2487.52,-230.12 2497.8,-232.72 2497.17,-225.74"/>
</g>
<!-- Node100 -->
<g id="node18" class="node">
<title>Node100</title>
<g id="a_node18"><a xlink:href="_convecting_taylor_vortex_8_h.html" target="_top" xlink:title=" ">
<polygon fill="white" stroke="red" points="1632,-168.5 1632,-187.5 1775,-187.5 1775,-168.5 1632,-168.5"/>
<text text-anchor="middle" x="1703.5" y="-175.5" font-family="Helvetica,sans-Serif" font-size="10.00">ConvectingTaylorVortex.H</text>
</a>
</g>
</g>
<!-- Node3&#45;&gt;Node100 -->
<g id="edge24" class="edge">
<title>Node3&#45;&gt;Node100</title>
<path fill="none" stroke="midnightblue" d="M2411.23,-230.78C2304.5,-225.14 2020.12,-209.23 1783.5,-188 1780.72,-187.75 1777.88,-187.48 1775.01,-187.21"/>
<polygon fill="midnightblue" stroke="midnightblue" points="2411.13,-234.27 2421.29,-231.3 2411.49,-227.28 2411.13,-234.27"/>
</g>
<!-- Node3&#45;&gt;Node102 -->
<g id="edge25" class="edge">
<title>Node3&#45;&gt;Node102</title>
<path fill="none" stroke="midnightblue" d="M2497.66,-230.11C2587.24,-223.93 2799.83,-208.32 2977.5,-188 2980.57,-187.65 2983.73,-187.27 2986.91,-186.86"/>
<polygon fill="midnightblue" stroke="midnightblue" points="2497.34,-226.62 2487.61,-230.8 2497.82,-233.61 2497.34,-226.62"/>
</g>
<!-- Node103 -->
<g id="node20" class="node">
<title>Node103</title>
<g id="a_node20"><a xlink:href="_channel_flow_8_h.html" target="_top" xlink:title=" ">
<polygon fill="white" stroke="red" points="1793,-168.5 1793,-187.5 1882,-187.5 1882,-168.5 1793,-168.5"/>
<text text-anchor="middle" x="1837.5" y="-175.5" font-family="Helvetica,sans-Serif" font-size="10.00">ChannelFlow.H</text>
</a>
</g>
</g>
<!-- Node3&#45;&gt;Node103 -->
<g id="edge26" class="edge">
<title>Node3&#45;&gt;Node103</title>
<path fill="none" stroke="midnightblue" d="M2411.29,-230.86C2316.64,-225.89 2084.04,-212.11 1890.5,-188 1887.81,-187.67 1885.06,-187.29 1882.28,-186.89"/>
<polygon fill="midnightblue" stroke="midnightblue" points="2411.17,-234.36 2421.34,-231.38 2411.53,-227.37 2411.17,-234.36"/>
</g>
<!-- Node105 -->
<g id="node21" class="node">
<title>Node105</title>
<g id="a_node21"><a xlink:href="_ekman_spiral_8_h.html" target="_top" xlink:title=" ">
<polygon fill="white" stroke="red" points="1900,-168.5 1900,-187.5 1989,-187.5 1989,-168.5 1900,-168.5"/>
<text text-anchor="middle" x="1944.5" y="-175.5" font-family="Helvetica,sans-Serif" font-size="10.00">EkmanSpiral.H</text>
</a>
</g>
</g>
<!-- Node3&#45;&gt;Node105 -->
<g id="edge27" class="edge">
<title>Node3&#45;&gt;Node105</title>
<path fill="none" stroke="midnightblue" d="M2411.09,-229.74C2329.75,-223.42 2148.93,-208.29 1997.5,-188 1994.82,-187.64 1992.06,-187.25 1989.29,-186.83"/>
<polygon fill="midnightblue" stroke="midnightblue" points="2411.19,-233.26 2421.43,-230.54 2411.73,-226.28 2411.19,-233.26"/>
</g>
<!-- Node108 -->
<g id="node22" class="node">
<title>Node108</title>
<g id="a_node22"><a xlink:href="_hybrid_r_a_n_s_l_e_s_a_b_l_8_h.html" target="_top" xlink:title=" ">
<polygon fill="white" stroke="red" points="2007,-168.5 2007,-187.5 2130,-187.5 2130,-168.5 2007,-168.5"/>
<text text-anchor="middle" x="2068.5" y="-175.5" font-family="Helvetica,sans-Serif" font-size="10.00">HybridRANSLESABL.H</text>
</a>
</g>
</g>
<!-- Node3&#45;&gt;Node108 -->
<g id="edge28" class="edge">
<title>Node3&#45;&gt;Node108</title>
<path fill="none" stroke="midnightblue" d="M2411.19,-226.94C2342.38,-217.31 2207.83,-198.49 2129.35,-187.51"/>
<polygon fill="midnightblue" stroke="midnightblue" points="2410.87,-230.43 2421.26,-228.35 2411.84,-223.5 2410.87,-230.43"/>
</g>
<!-- Node110 -->
<g id="node23" class="node">
<title>Node110</title>
<g id="a_node23"><a xlink:href="_m_m_s_8_h.html" target="_top" xlink:title=" ">
<polygon fill="white" stroke="red" points="2148,-168.5 2148,-187.5 2199,-187.5 2199,-168.5 2148,-168.5"/>
<text text-anchor="middle" x="2173.5" y="-175.5" font-family="Helvetica,sans-Serif" font-size="10.00">MMS.H</text>
</a>
</g>
</g>
<!-- Node3&#45;&gt;Node110 -->
<g id="edge29" class="edge">
<title>Node3&#45;&gt;Node110</title>
<path fill="none" stroke="midnightblue" d="M2411.14,-226.16C2361.66,-218.11 2278.39,-203.82 2207.5,-188 2204.76,-187.39 2201.9,-186.71 2199.07,-186"/>
<polygon fill="midnightblue" stroke="midnightblue" points="2410.74,-229.64 2421.17,-227.78 2411.86,-222.73 2410.74,-229.64"/>
</g>
<!-- Node120 -->
<g id="node24" class="node">
<title>Node120</title>
<g id="a_node24"><a xlink:href="_synthetic_turbulence_8_h.html" target="_top" xlink:title=" ">
<polygon fill="white" stroke="red" points="2217,-168.5 2217,-187.5 2342,-187.5 2342,-168.5 2217,-168.5"/>
<text text-anchor="middle" x="2279.5" y="-175.5" font-family="Helvetica,sans-Serif" font-size="10.00">SyntheticTurbulence.H</text>
</a>
</g>
</g>
<!-- Node3&#45;&gt;Node120 -->
<g id="edge30" class="edge">
<title>Node3&#45;&gt;Node120</title>
<path fill="none" stroke="midnightblue" d="M2417.03,-221.44C2384.03,-211.26 2336.74,-196.66 2307.1,-187.52"/>
<polygon fill="midnightblue" stroke="midnightblue" points="2416.18,-224.84 2426.77,-224.44 2418.25,-218.15 2416.18,-224.84"/>
</g>
<!-- Node3&#45;&gt;Node137 -->
<g id="edge31" class="edge">
<title>Node3&#45;&gt;Node137</title>
<path fill="none" stroke="midnightblue" d="M2498.14,-230.01C2632.8,-220.77 3041.58,-192.72 3188.34,-182.65"/>
<polygon fill="midnightblue" stroke="midnightblue" points="2497.55,-226.54 2487.81,-230.71 2498.03,-233.52 2497.55,-226.54"/>
</g>
<!-- Node140 -->
<g id="node27" class="node">
<title>Node140</title>
<g id="a_node27"><a xlink:href="_i_o_manager_8cpp.html" target="_top" xlink:title=" ">
<polygon fill="white" stroke="black" points="3025,-56.5 3025,-75.5 3114,-75.5 3114,-56.5 3025,-56.5"/>
<text text-anchor="middle" x="3069.5" y="-63.5" font-family="Helvetica,sans-Serif" font-size="10.00">IOManager.cpp</text>
</a>
</g>
</g>
<!-- Node3&#45;&gt;Node140 -->
<g id="edge36" class="edge">
<title>Node3&#45;&gt;Node140</title>
<path fill="none" stroke="midnightblue" d="M2497.6,-232.97C2586.36,-232.12 2785.84,-225.91 2840.5,-188 2871.7,-166.36 2849.62,-135.42 2879.5,-112 2921.26,-79.28 2982.97,-69.75 3024.63,-67.28"/>
<polygon fill="midnightblue" stroke="midnightblue" points="2497.56,-229.47 2487.59,-233.05 2497.62,-236.47 2497.56,-229.47"/>
</g>
<!-- Node5&#45;&gt;Node7 -->
<g id="edge5" class="edge">
<title>Node5&#45;&gt;Node7</title>
<path fill="none" stroke="midnightblue" d="M2807.45,-157.93C2811.14,-121.92 2818.99,-45.23 2821.62,-19.57"/>
<polygon fill="midnightblue" stroke="midnightblue" points="2803.95,-157.77 2806.41,-168.08 2810.91,-158.48 2803.95,-157.77"/>
</g>
<!-- Node5&#45;&gt;Node8 -->
<g id="edge6" class="edge">
<title>Node5&#45;&gt;Node8</title>
<path fill="none" stroke="midnightblue" d="M2836.75,-164.77C2862.67,-154.63 2898.86,-140.47 2921.74,-131.52"/>
<polygon fill="midnightblue" stroke="midnightblue" points="2835.4,-161.54 2827.37,-168.44 2837.95,-168.06 2835.4,-161.54"/>
</g>
<!-- Node13 -->
<g id="node8" class="node">
<title>Node13</title>
<g id="a_node8"><a xlink:href="init_8cpp.html" target="_top" xlink:title=" ">
<polygon fill="white" stroke="black" points="1824,-0.5 1824,-19.5 1877,-19.5 1877,-0.5 1824,-0.5"/>
<text text-anchor="middle" x="1850.5" y="-7.5" font-family="Helvetica,sans-Serif" font-size="10.00">init.cpp</text>
</a>
</g>
</g>
<!-- Node5&#45;&gt;Node13 -->
<g id="edge7" class="edge">
<title>Node5&#45;&gt;Node13</title>
<path fill="none" stroke="midnightblue" d="M2798.95,-158.83C2792.54,-143.8 2781.29,-123.17 2764.5,-112 2613.62,-11.66 2011.66,-9.85 1877.22,-10.73"/>
<polygon fill="midnightblue" stroke="midnightblue" points="2795.7,-160.13 2802.62,-168.16 2802.21,-157.57 2795.7,-160.13"/>
</g>
<!-- Node16 -->
<g id="node9" class="node">
<title>Node16</title>
<g id="a_node9"><a xlink:href="io_8cpp.html" target="_top" xlink:title=" ">
<polygon fill="white" stroke="black" points="2469.5,-112.5 2469.5,-131.5 2515.5,-131.5 2515.5,-112.5 2469.5,-112.5"/>
<text text-anchor="middle" x="2492.5" y="-119.5" font-family="Helvetica,sans-Serif" font-size="10.00">io.cpp</text>
</a>
</g>
</g>
<!-- Node5&#45;&gt;Node16 -->
<g id="edge8" class="edge">
<title>Node5&#45;&gt;Node16</title>
<path fill="none" stroke="midnightblue" d="M2768.58,-170.63C2703.35,-159.38 2569.5,-136.28 2515.67,-127"/>
<polygon fill="midnightblue" stroke="midnightblue" points="2768.36,-174.14 2778.81,-172.4 2769.55,-167.25 2768.36,-174.14"/>
</g>
<!-- Node18&#45;&gt;Node35 -->
<g id="edge10" class="edge">
<title>Node18&#45;&gt;Node35</title>
<path fill="none" stroke="midnightblue" d="M2635.17,-161.25C2625.24,-151.67 2612.91,-139.79 2604.66,-131.83"/>
<polygon fill="midnightblue" stroke="midnightblue" points="2632.87,-163.9 2642.5,-168.32 2637.73,-158.86 2632.87,-163.9"/>
</g>
<!-- Node59 -->
<g id="node14" class="node">
<title>Node59</title>
<g id="a_node14"><a xlink:href="_a_b_l_8_h.html" target="_top" xlink:title=" ">
<polygon fill="white" stroke="red" points="2374.5,-56.5 2374.5,-75.5 2420.5,-75.5 2420.5,-56.5 2374.5,-56.5"/>
<text text-anchor="middle" x="2397.5" y="-63.5" font-family="Helvetica,sans-Serif" font-size="10.00">ABL.H</text>
</a>
</g>
</g>
<!-- Node58&#45;&gt;Node59 -->
<g id="edge14" class="edge">
<title>Node58&#45;&gt;Node59</title>
<path fill="none" stroke="midnightblue" d="M2397.5,-101.8C2397.5,-92.91 2397.5,-82.78 2397.5,-75.75"/>
<polygon fill="midnightblue" stroke="midnightblue" points="2394,-102.08 2397.5,-112.08 2401,-102.08 2394,-102.08"/>
</g>
<!-- Node59&#45;&gt;Node7 -->
<g id="edge16" class="edge">
<title>Node59&#45;&gt;Node7</title>
<path fill="none" stroke="midnightblue" d="M2430.65,-60.79C2510.52,-50.64 2712.77,-24.94 2790.97,-15.01"/>
<polygon fill="midnightblue" stroke="midnightblue" points="2430.13,-57.33 2420.65,-62.06 2431.01,-64.27 2430.13,-57.33"/>
</g>
<!-- Node59&#45;&gt;Node13 -->
<g id="edge17" class="edge">
<title>Node59&#45;&gt;Node13</title>
<path fill="none" stroke="midnightblue" d="M2364.22,-61.71C2264.22,-51.84 1967.76,-22.58 1877.12,-13.63"/>
<polygon fill="midnightblue" stroke="midnightblue" points="2364.05,-65.21 2374.35,-62.71 2364.74,-58.25 2364.05,-65.21"/>
</g>
<!-- Node59&#45;&gt;Node57 -->
<g id="edge15" class="edge">
<title>Node59&#45;&gt;Node57</title>
<path fill="none" stroke="midnightblue" d="M2384.48,-47.86C2377.38,-38.5 2368.9,-27.33 2363.14,-19.75"/>
<polygon fill="midnightblue" stroke="midnightblue" points="2381.89,-50.24 2390.73,-56.08 2387.47,-46 2381.89,-50.24"/>
</g>
<!-- Node66&#45;&gt;Node58 -->
<g id="edge19" class="edge">
<title>Node66&#45;&gt;Node58</title>
<path fill="none" stroke="midnightblue" d="M2474.17,-163.59C2455.31,-153.61 2430.12,-140.27 2413.85,-131.65"/>
<polygon fill="midnightblue" stroke="midnightblue" points="2472.64,-166.74 2483.11,-168.32 2475.91,-160.55 2472.64,-166.74"/>
</g>
<!-- Node66&#45;&gt;Node59 -->
<g id="edge20" class="edge">
<title>Node66&#45;&gt;Node59</title>
<path fill="none" stroke="midnightblue" d="M2514.34,-160.22C2524.68,-146.4 2534.92,-126.74 2524.5,-112 2500.88,-78.57 2450.2,-69.82 2420.5,-67.62"/>
<polygon fill="midnightblue" stroke="midnightblue" points="2511.32,-158.38 2507.74,-168.35 2516.76,-162.79 2511.32,-158.38"/>
</g>
<!-- Node73&#45;&gt;Node59 -->
<g id="edge22" class="edge">
<title>Node73&#45;&gt;Node59</title>
<path fill="none" stroke="midnightblue" d="M2639.25,-110.66C2573.06,-98.71 2467.24,-79.6 2420.72,-71.19"/>
<polygon fill="midnightblue" stroke="midnightblue" points="2638.66,-114.11 2649.12,-112.44 2639.9,-107.22 2638.66,-114.11"/>
</g>
<!-- Node138 -->
<g id="node26" class="node">
<title>Node138</title>
<g id="a_node26"><a xlink:href="_derived_qty_defs_8_h.html" target="_top" xlink:title=" ">
<polygon fill="white" stroke="red" points="3017,-112.5 3017,-131.5 3122,-131.5 3122,-112.5 3017,-112.5"/>
<text text-anchor="middle" x="3069.5" y="-119.5" font-family="Helvetica,sans-Serif" font-size="10.00">DerivedQtyDefs.H</text>
</a>
</g>
</g>
<!-- Node137&#45;&gt;Node138 -->
<g id="edge32" class="edge">
<title>Node137&#45;&gt;Node138</title>
<path fill="none" stroke="midnightblue" d="M3204.67,-165.44C3172.24,-155.26 3125.76,-140.66 3096.63,-131.52"/>
<polygon fill="midnightblue" stroke="midnightblue" points="3203.66,-168.79 3214.25,-168.44 3205.75,-162.11 3203.66,-168.79"/>
</g>
<!-- Node137&#45;&gt;Node140 -->
<g id="edge35" class="edge">
<title>Node137&#45;&gt;Node140</title>
<path fill="none" stroke="midnightblue" d="M3256.07,-160.26C3266.47,-146.2 3276.8,-126.18 3265.5,-112 3246.96,-88.72 3166.17,-76.49 3114.28,-70.91"/>
<polygon fill="midnightblue" stroke="midnightblue" points="3253.28,-158.14 3249.78,-168.14 3258.75,-162.51 3253.28,-158.14"/>
</g>
<!-- Node141 -->
<g id="node28" class="node">
<title>Node141</title>
<g id="a_node28"><a xlink:href="_derived_quantity_8cpp.html" target="_top" xlink:title=" ">
<polygon fill="white" stroke="black" points="3140.5,-112.5 3140.5,-131.5 3256.5,-131.5 3256.5,-112.5 3140.5,-112.5"/>
<text text-anchor="middle" x="3198.5" y="-119.5" font-family="Helvetica,sans-Serif" font-size="10.00">DerivedQuantity.cpp</text>
</a>
</g>
</g>
<!-- Node137&#45;&gt;Node141 -->
<g id="edge34" class="edge">
<title>Node137&#45;&gt;Node141</title>
<path fill="none" stroke="midnightblue" d="M3228.08,-160.14C3220.59,-150.74 3211.56,-139.4 3205.47,-131.75"/>
<polygon fill="midnightblue" stroke="midnightblue" points="3225.43,-162.44 3234.4,-168.08 3230.91,-158.08 3225.43,-162.44"/>
</g>
<!-- Node138&#45;&gt;Node140 -->
<g id="edge33" class="edge">
<title>Node138&#45;&gt;Node140</title>
<path fill="none" stroke="midnightblue" d="M3069.5,-101.8C3069.5,-92.91 3069.5,-82.78 3069.5,-75.75"/>
<polygon fill="midnightblue" stroke="midnightblue" points="3066,-102.08 3069.5,-112.08 3073,-102.08 3066,-102.08"/>
</g>
<!-- Node45&#45;&gt;Node46 -->
<g id="edge44" class="edge">
<title>Node45&#45;&gt;Node46</title>
<path fill="none" stroke="midnightblue" d="M3452.46,-218.1C3440.04,-208.38 3424.26,-196.03 3413.79,-187.83"/>
<polygon fill="midnightblue" stroke="midnightblue" points="3450.38,-220.92 3460.41,-224.32 3454.7,-215.4 3450.38,-220.92"/>
</g>
<!-- Node45&#45;&gt;Node47 -->
<g id="edge45" class="edge">
<title>Node45&#45;&gt;Node47</title>
<path fill="none" stroke="midnightblue" d="M3490.26,-218.1C3502.5,-208.38 3518.06,-196.03 3528.38,-187.83"/>
<polygon fill="midnightblue" stroke="midnightblue" points="3488.08,-215.36 3482.43,-224.32 3492.43,-220.85 3488.08,-215.36"/>
</g>
<!-- Node182&#45;&gt;Node3 -->
<g id="edge49" class="edge">
<title>Node182&#45;&gt;Node3</title>
<path fill="none" stroke="midnightblue" d="M1450.84,-286.81C1622.84,-277.93 2267.46,-244.66 2421.36,-236.71"/>
<polygon fill="midnightblue" stroke="midnightblue" points="1450.47,-283.33 1440.66,-287.34 1450.83,-290.32 1450.47,-283.33"/>
</g>
<!-- Node182&#45;&gt;Node8 -->
<g id="edge55" class="edge">
<title>Node182&#45;&gt;Node8</title>
<path fill="none" stroke="midnightblue" d="M1450.77,-288.13C1707.19,-282.63 3045.08,-250.97 3102.5,-188 3108.49,-181.43 3107.86,-175.09 3102.5,-168 3089.78,-151.18 3039.24,-138.84 2998.51,-131.38"/>
<polygon fill="midnightblue" stroke="midnightblue" points="1450.66,-284.63 1440.74,-288.34 1450.81,-291.63 1450.66,-284.63"/>
</g>
<!-- Node182&#45;&gt;Node13 -->
<g id="edge73" class="edge">
<title>Node182&#45;&gt;Node13</title>
<path fill="none" stroke="midnightblue" d="M1420.49,-271.75C1426.12,-263.46 1432.83,-253.33 1438.5,-244 1458.55,-211.03 1452.43,-194.48 1480.5,-168 1584.06,-70.33 1757.52,-28.62 1823.72,-15.71"/>
<polygon fill="midnightblue" stroke="midnightblue" points="1417.48,-269.95 1414.7,-280.18 1423.25,-273.92 1417.48,-269.95"/>
</g>
<!-- Node182&#45;&gt;Node16 -->
<g id="edge74" class="edge">
<title>Node182&#45;&gt;Node16</title>
<path fill="none" stroke="midnightblue" d="M1450.53,-277.8C1475.33,-270.22 1506.8,-258.87 1532.5,-244 1577.81,-217.77 1573.73,-187.04 1622.5,-168 1795.93,-100.31 2275.55,-160.67 2459.5,-132 2462.67,-131.51 2465.97,-130.82 2469.2,-130.05"/>
<polygon fill="midnightblue" stroke="midnightblue" points="1449.28,-274.52 1440.69,-280.72 1451.27,-281.23 1449.28,-274.52"/>
</g>
<!-- Node182&#45;&gt;Node59 -->
<g id="edge50" class="edge">
<title>Node182&#45;&gt;Node59</title>
<path fill="none" stroke="midnightblue" d="M1450.24,-277.63C1467.04,-270.78 1484.72,-260.15 1494.5,-244 1512.02,-215.06 1467.94,-193.21 1490.5,-168 1551.38,-99.96 2237.94,-72.56 2374.11,-67.78"/>
<polygon fill="midnightblue" stroke="midnightblue" points="1448.67,-274.48 1440.51,-281.24 1451.1,-281.04 1448.67,-274.48"/>
</g>
<!-- Node182&#45;&gt;Node100 -->
<g id="edge53" class="edge">
<title>Node182&#45;&gt;Node100</title>
<path fill="none" stroke="midnightblue" d="M1450.87,-285.31C1494.34,-280.3 1563.1,-268.92 1617.5,-244 1649.15,-229.5 1680.21,-201.76 1694.82,-187.67"/>
<polygon fill="midnightblue" stroke="midnightblue" points="1450.22,-281.86 1440.66,-286.42 1450.98,-288.82 1450.22,-281.86"/>
</g>
<!-- Node182&#45;&gt;Node103 -->
<g id="edge58" class="edge">
<title>Node182&#45;&gt;Node103</title>
<path fill="none" stroke="midnightblue" d="M1450.74,-282.99C1499.01,-275.69 1580.15,-262.06 1648.5,-244 1710.4,-227.65 1781.24,-201.1 1815.99,-187.55"/>
<polygon fill="midnightblue" stroke="midnightblue" points="1450.04,-279.56 1440.66,-284.5 1451.07,-286.48 1450.04,-279.56"/>
</g>
<!-- Node182&#45;&gt;Node105 -->
<g id="edge59" class="edge">
<title>Node182&#45;&gt;Node105</title>
<path fill="none" stroke="midnightblue" d="M1451.12,-283.63C1507.21,-276.25 1608.74,-261.85 1694.5,-244 1775.28,-227.18 1869.09,-200.96 1915.47,-187.54"/>
<polygon fill="midnightblue" stroke="midnightblue" points="1450.32,-280.2 1440.86,-284.96 1451.22,-287.14 1450.32,-280.2"/>
</g>
<!-- Node182&#45;&gt;Node108 -->
<g id="edge61" class="edge">
<title>Node182&#45;&gt;Node108</title>
<path fill="none" stroke="midnightblue" d="M1450.9,-284.4C1515.67,-277.15 1643.08,-262.02 1750.5,-244 1852.48,-226.89 1971.65,-200.91 2030.97,-187.57"/>
<polygon fill="midnightblue" stroke="midnightblue" points="1450.23,-280.95 1440.68,-285.54 1451,-287.91 1450.23,-280.95"/>
</g>
<!-- Node182&#45;&gt;Node110 -->
<g id="edge62" class="edge">
<title>Node182&#45;&gt;Node110</title>
<path fill="none" stroke="midnightblue" d="M1451.03,-285.21C1525.48,-278.38 1684.2,-262.94 1817.5,-244 1960.88,-223.63 1996.93,-218.5 2138.5,-188 2141.57,-187.34 2144.77,-186.59 2147.94,-185.82"/>
<polygon fill="midnightblue" stroke="midnightblue" points="1450.31,-281.76 1440.67,-286.16 1450.94,-288.74 1450.31,-281.76"/>
</g>
<!-- Node182&#45;&gt;Node120 -->
<g id="edge70" class="edge">
<title>Node182&#45;&gt;Node120</title>
<path fill="none" stroke="midnightblue" d="M1450.83,-286.24C1536,-280.43 1734.11,-265.69 1899.5,-244 2022.27,-227.9 2166.05,-201.12 2236.36,-187.51"/>
<polygon fill="midnightblue" stroke="midnightblue" points="1450.51,-282.75 1440.77,-286.92 1450.98,-289.74 1450.51,-282.75"/>
</g>
<!-- Node183 -->
<g id="node34" class="node">
<title>Node183</title>
<g id="a_node34"><a xlink:href="_actuator_8_h.html" target="_top" xlink:title=" ">
<polygon fill="white" stroke="red" points="165.5,-224.5 165.5,-243.5 233.5,-243.5 233.5,-224.5 165.5,-224.5"/>
<text text-anchor="middle" x="199.5" y="-231.5" font-family="Helvetica,sans-Serif" font-size="10.00">Actuator.H</text>
</a>
</g>
</g>
<!-- Node182&#45;&gt;Node183 -->
<g id="edge51" class="edge">
<title>Node182&#45;&gt;Node183</title>
<path fill="none" stroke="midnightblue" d="M1366.08,-288.32C1183.85,-285.24 466.5,-271.57 242.5,-244 239.62,-243.65 236.65,-243.2 233.68,-242.69"/>
<polygon fill="midnightblue" stroke="midnightblue" points="1366.27,-291.82 1376.33,-288.49 1366.39,-284.82 1366.27,-291.82"/>
</g>
<!-- Node185 -->
<g id="node35" class="node">
<title>Node185</title>
<g id="a_node35"><a xlink:href="_multi_phase_8_h.html" target="_top" xlink:title=" ">
<polygon fill="white" stroke="red" points="252,-224.5 252,-243.5 333,-243.5 333,-224.5 252,-224.5"/>
<text text-anchor="middle" x="292.5" y="-231.5" font-family="Helvetica,sans-Serif" font-size="10.00">MultiPhase.H</text>
</a>
</g>
</g>
<!-- Node182&#45;&gt;Node185 -->
<g id="edge52" class="edge">
<title>Node182&#45;&gt;Node185</title>
<path fill="none" stroke="midnightblue" d="M1365.88,-289.33C1221.51,-290 737.85,-288.54 341.5,-244 338.75,-243.69 335.92,-243.32 333.08,-242.9"/>
<polygon fill="midnightblue" stroke="midnightblue" points="1366.09,-292.83 1376.07,-289.28 1366.05,-285.83 1366.09,-292.83"/>
</g>
<!-- Node188 -->
<g id="node36" class="node">
<title>Node188</title>
<g id="a_node36"><a xlink:href="_i_b_8_h.html" target="_top" xlink:title=" ">
<polygon fill="white" stroke="red" points="351,-224.5 351,-243.5 388,-243.5 388,-224.5 351,-224.5"/>
<text text-anchor="middle" x="369.5" y="-231.5" font-family="Helvetica,sans-Serif" font-size="10.00">IB.H</text>
</a>
</g>
</g>
<!-- Node182&#45;&gt;Node188 -->
<g id="edge54" class="edge">
<title>Node182&#45;&gt;Node188</title>
<path fill="none" stroke="midnightblue" d="M1366.01,-288.68C1198.92,-287.16 586.96,-279.27 396.5,-244 393.78,-243.5 390.96,-242.78 388.21,-241.97"/>
<polygon fill="midnightblue" stroke="midnightblue" points="1366.1,-292.18 1376.13,-288.76 1366.16,-285.18 1366.1,-292.18"/>
</g>
<!-- Node189 -->
<g id="node37" class="node">
<title>Node189</title>
<g id="a_node37"><a xlink:href="_boussinesq_bubble_8_h.html" target="_top" xlink:title=" ">
<polygon fill="white" stroke="red" points="1289.5,-56.5 1289.5,-75.5 1405.5,-75.5 1405.5,-56.5 1289.5,-56.5"/>
<text text-anchor="middle" x="1347.5" y="-63.5" font-family="Helvetica,sans-Serif" font-size="10.00">BoussinesqBubble.H</text>
</a>
</g>
</g>
<!-- Node182&#45;&gt;Node189 -->
<g id="edge56" class="edge">
<title>Node182&#45;&gt;Node189</title>
<path fill="none" stroke="midnightblue" d="M1417.13,-270.92C1422.27,-257.88 1427.14,-239.85 1423.5,-224 1409.56,-163.2 1368.84,-98.59 1353.47,-75.67"/>
<polygon fill="midnightblue" stroke="midnightblue" points="1413.89,-269.6 1413.11,-280.17 1420.31,-272.39 1413.89,-269.6"/>
</g>
<!-- Node190 -->
<g id="node38" class="node">
<title>Node190</title>
<g id="a_node38"><a xlink:href="_free_stream_8_h.html" target="_top" xlink:title=" ">
<polygon fill="white" stroke="red" points="406,-224.5 406,-243.5 489,-243.5 489,-224.5 406,-224.5"/>
<text text-anchor="middle" x="447.5" y="-231.5" font-family="Helvetica,sans-Serif" font-size="10.00">FreeStream.H</text>
</a>
</g>
</g>
<!-- Node182&#45;&gt;Node190 -->
<g id="edge60" class="edge">
<title>Node182&#45;&gt;Node190</title>
<path fill="none" stroke="midnightblue" d="M1365.75,-288.84C1235.2,-287.93 830.34,-282.02 497.5,-244 494.78,-243.69 491.99,-243.32 489.18,-242.92"/>
<polygon fill="midnightblue" stroke="midnightblue" points="1366.08,-292.34 1376.1,-288.9 1366.12,-285.34 1366.08,-292.34"/>
</g>
<!-- Node191 -->
<g id="node39" class="node">
<title>Node191</title>
<g id="a_node39"><a xlink:href="_dam_break_8_h.html" target="_top" xlink:title=" ">
<polygon fill="white" stroke="red" points="507,-224.5 507,-243.5 586,-243.5 586,-224.5 507,-224.5"/>
<text text-anchor="middle" x="546.5" y="-231.5" font-family="Helvetica,sans-Serif" font-size="10.00">DamBreak.H</text>
</a>
</g>
</g>
<!-- Node182&#45;&gt;Node191 -->
<g id="edge63" class="edge">
<title>Node182&#45;&gt;Node191</title>
<path fill="none" stroke="midnightblue" d="M1365.92,-288.54C1244.91,-286.81 888.8,-278.91 595.5,-244 592.41,-243.63 589.22,-243.19 586.02,-242.7"/>
<polygon fill="midnightblue" stroke="midnightblue" points="1366.18,-292.04 1376.23,-288.68 1366.27,-285.04 1366.18,-292.04"/>
</g>
<!-- Node192 -->
<g id="node40" class="node">
<title>Node192</title>
<g id="a_node40"><a xlink:href="_rain_drop_8_h.html" target="_top" xlink:title=" ">
<polygon fill="white" stroke="red" points="604.5,-224.5 604.5,-243.5 676.5,-243.5 676.5,-224.5 604.5,-224.5"/>
<text text-anchor="middle" x="640.5" y="-231.5" font-family="Helvetica,sans-Serif" font-size="10.00">RainDrop.H</text>
</a>
</g>
</g>
<!-- Node182&#45;&gt;Node192 -->
<g id="edge64" class="edge">
<title>Node182&#45;&gt;Node192</title>
<path fill="none" stroke="midnightblue" d="M1366.1,-288.36C1254.32,-286.24 942.52,-277.54 685.5,-244 682.66,-243.63 679.72,-243.18 676.78,-242.69"/>
<polygon fill="midnightblue" stroke="midnightblue" points="1366.22,-291.86 1376.28,-288.55 1366.35,-284.86 1366.22,-291.86"/>
</g>
<!-- Node193 -->
<g id="node41" class="node">
<title>Node193</title>
<g id="a_node41"><a xlink:href="_sloshing_tank_8_h.html" target="_top" xlink:title=" ">
<polygon fill="white" stroke="red" points="695,-224.5 695,-243.5 786,-243.5 786,-224.5 695,-224.5"/>
<text text-anchor="middle" x="740.5" y="-231.5" font-family="Helvetica,sans-Serif" font-size="10.00">SloshingTank.H</text>
</a>
</g>
</g>
<!-- Node182&#45;&gt;Node193 -->
<g id="edge65" class="edge">
<title>Node182&#45;&gt;Node193</title>
<path fill="none" stroke="midnightblue" d="M1366.17,-287.24C1266.34,-282.8 1008.5,-269.62 794.5,-244 791.76,-243.67 788.95,-243.3 786.12,-242.91"/>
<polygon fill="midnightblue" stroke="midnightblue" points="1366.3,-290.75 1376.44,-287.69 1366.6,-283.76 1366.3,-290.75"/>
</g>
<!-- Node194 -->
<g id="node42" class="node">
<title>Node194</title>
<g id="a_node42"><a xlink:href="_vortex_patch_8_h.html" target="_top" xlink:title=" ">
<polygon fill="white" stroke="red" points="804,-224.5 804,-243.5 889,-243.5 889,-224.5 804,-224.5"/>
<text text-anchor="middle" x="846.5" y="-231.5" font-family="Helvetica,sans-Serif" font-size="10.00">VortexPatch.H</text>
</a>
</g>
</g>
<!-- Node182&#45;&gt;Node194 -->
<g id="edge66" class="edge">
<title>Node182&#45;&gt;Node194</title>
<path fill="none" stroke="midnightblue" d="M1366.33,-286.53C1278.73,-281.13 1070.79,-266.88 897.5,-244 894.74,-243.64 891.89,-243.23 889.03,-242.79"/>
<polygon fill="midnightblue" stroke="midnightblue" points="1366.21,-290.03 1376.41,-287.15 1366.64,-283.04 1366.21,-290.03"/>
</g>
<!-- Node195 -->
<g id="node43" class="node">
<title>Node195</title>
<g id="a_node43"><a xlink:href="_n_w_b_8_h.html" target="_top" xlink:title=" ">
<polygon fill="white" stroke="red" points="907,-224.5 907,-243.5 958,-243.5 958,-224.5 907,-224.5"/>
<text text-anchor="middle" x="932.5" y="-231.5" font-family="Helvetica,sans-Serif" font-size="10.00">NWB.H</text>
</a>
</g>
</g>
<!-- Node182&#45;&gt;Node195 -->
<g id="edge67" class="edge">
<title>Node182&#45;&gt;Node195</title>
<path fill="none" stroke="midnightblue" d="M1366.43,-286.81C1287.65,-282.25 1112.69,-269.92 967.5,-244 964.41,-243.45 961.19,-242.77 958.02,-242.03"/>
<polygon fill="midnightblue" stroke="midnightblue" points="1366.27,-290.31 1376.45,-287.38 1366.66,-283.32 1366.27,-290.31"/>
</g>
<!-- Node196 -->
<g id="node44" class="node">
<title>Node196</title>
<g id="a_node44"><a xlink:href="_zalesak_disk_8_h.html" target="_top" xlink:title=" ">
<polygon fill="white" stroke="red" points="976.5,-224.5 976.5,-243.5 1064.5,-243.5 1064.5,-224.5 976.5,-224.5"/>
<text text-anchor="middle" x="1020.5" y="-231.5" font-family="Helvetica,sans-Serif" font-size="10.00">ZalesakDisk.H</text>
</a>
</g>
</g>
<!-- Node182&#45;&gt;Node196 -->
<g id="edge68" class="edge">
<title>Node182&#45;&gt;Node196</title>
<path fill="none" stroke="midnightblue" d="M1366.05,-283.78C1302.39,-275.84 1178.47,-259.96 1073.5,-244 1070.64,-243.57 1067.69,-243.1 1064.73,-242.63"/>
<polygon fill="midnightblue" stroke="midnightblue" points="1365.75,-287.27 1376.11,-285.03 1366.62,-280.32 1365.75,-287.27"/>
</g>
<!-- Node197 -->
<g id="node45" class="node">
<title>Node197</title>
<g id="a_node45"><a xlink:href="_rayleigh_taylor_8_h.html" target="_top" xlink:title=" ">
<polygon fill="white" stroke="red" points="1082.5,-224.5 1082.5,-243.5 1180.5,-243.5 1180.5,-224.5 1082.5,-224.5"/>
<text text-anchor="middle" x="1131.5" y="-231.5" font-family="Helvetica,sans-Serif" font-size="10.00">RayleighTaylor.H</text>
</a>
</g>
</g>
<!-- Node182&#45;&gt;Node197 -->
<g id="edge69" class="edge">
<title>Node182&#45;&gt;Node197</title>
<path fill="none" stroke="midnightblue" d="M1366.32,-280.78C1314.77,-270.73 1227.93,-253.8 1175.54,-243.59"/>
<polygon fill="midnightblue" stroke="midnightblue" points="1365.97,-284.27 1376.45,-282.75 1367.31,-277.4 1365.97,-284.27"/>
</g>
<!-- Node198 -->
<g id="node46" class="node">
<title>Node198</title>
<g id="a_node46"><a xlink:href="_taylor_green_vortex_8_h.html" target="_top" xlink:title=" ">
<polygon fill="white" stroke="red" points="1199,-224.5 1199,-243.5 1316,-243.5 1316,-224.5 1199,-224.5"/>
<text text-anchor="middle" x="1257.5" y="-231.5" font-family="Helvetica,sans-Serif" font-size="10.00">TaylorGreenVortex.H</text>
</a>
</g>
</g>
<!-- Node182&#45;&gt;Node198 -->
<g id="edge71" class="edge">
<title>Node182&#45;&gt;Node198</title>
<path fill="none" stroke="midnightblue" d="M1375.05,-277.04C1346.64,-266.88 1306.56,-252.55 1281.31,-243.52"/>
<polygon fill="midnightblue" stroke="midnightblue" points="1373.98,-280.37 1384.57,-280.44 1376.34,-273.78 1373.98,-280.37"/>
</g>
<!-- Node199 -->
<g id="node47" class="node">
<title>Node199</title>
<g id="a_node47"><a xlink:href="_vortex_ring_8_h.html" target="_top" xlink:title=" ">
<polygon fill="white" stroke="red" points="1334.5,-224.5 1334.5,-243.5 1414.5,-243.5 1414.5,-224.5 1334.5,-224.5"/>
<text text-anchor="middle" x="1374.5" y="-231.5" font-family="Helvetica,sans-Serif" font-size="10.00">VortexRing.H</text>
</a>
</g>
</g>
<!-- Node182&#45;&gt;Node199 -->
<g id="edge72" class="edge">
<title>Node182&#45;&gt;Node199</title>
<path fill="none" stroke="midnightblue" d="M1397.52,-271.57C1391.67,-262.27 1384.73,-251.25 1380.01,-243.75"/>
<polygon fill="midnightblue" stroke="midnightblue" points="1394.6,-273.49 1402.89,-280.08 1400.52,-269.76 1394.6,-273.49"/>
</g>
<!-- Node189&#45;&gt;Node13 -->
<g id="edge57" class="edge">
<title>Node189&#45;&gt;Node13</title>
<path fill="none" stroke="midnightblue" d="M1415.66,-56.44C1416.95,-56.29 1418.23,-56.15 1419.5,-56 1572.35,-38.47 1756.03,-20.23 1823.75,-13.6"/>
<polygon fill="midnightblue" stroke="midnightblue" points="1415.17,-52.98 1405.65,-57.63 1415.99,-59.93 1415.17,-52.98"/>
</g>
<!-- Node200&#45;&gt;Node4 -->
<g id="edge76" class="edge">
<title>Node200&#45;&gt;Node4</title>
<path fill="none" stroke="midnightblue" d="M123.69,-270.79C129.13,-255.38 139.35,-234.22 156.5,-224 215.75,-188.71 1283.27,-180.51 1499.49,-179.21"/>
<polygon fill="midnightblue" stroke="midnightblue" points="120.35,-269.75 120.65,-280.34 127.02,-271.87 120.35,-269.75"/>
</g>
<!-- Node201 -->
<g id="node49" class="node">
<title>Node201</title>
<g id="a_node49"><a xlink:href="_fast_iface_8_h.html" target="_top" xlink:title=" ">
<polygon fill="white" stroke="red" points="0,-224.5 0,-243.5 71,-243.5 71,-224.5 0,-224.5"/>
<text text-anchor="middle" x="35.5" y="-231.5" font-family="Helvetica,sans-Serif" font-size="10.00">FastIface.H</text>
</a>
</g>
</g>
<!-- Node200&#45;&gt;Node201 -->
<g id="edge77" class="edge">
<title>Node200&#45;&gt;Node201</title>
<path fill="none" stroke="midnightblue" d="M96.4,-274.62C81.24,-264.76 61.62,-251.99 48.8,-243.65"/>
<polygon fill="midnightblue" stroke="midnightblue" points="94.87,-277.8 105.16,-280.32 98.69,-271.94 94.87,-277.8"/>
</g>
<!-- Node202 -->
<g id="node50" class="node">
<title>Node202</title>
<g id="a_node50"><a xlink:href="_turbine_fast_8_h.html" target="_top" xlink:title=" ">
<polygon fill="white" stroke="red" points="26.5,-168.5 26.5,-187.5 108.5,-187.5 108.5,-168.5 26.5,-168.5"/>
<text text-anchor="middle" x="67.5" y="-175.5" font-family="Helvetica,sans-Serif" font-size="10.00">TurbineFast.H</text>
</a>
</g>
</g>
<!-- Node200&#45;&gt;Node202 -->
<g id="edge79" class="edge">
<title>Node200&#45;&gt;Node202</title>
<path fill="none" stroke="midnightblue" d="M110.15,-271C99.03,-247 79.77,-205.47 71.48,-187.59"/>
<polygon fill="midnightblue" stroke="midnightblue" points="107.12,-272.77 114.5,-280.37 113.47,-269.82 107.12,-272.77"/>
</g>
<!-- Node201&#45;&gt;Node202 -->
<g id="edge78" class="edge">
<title>Node201&#45;&gt;Node202</title>
<path fill="none" stroke="midnightblue" d="M46,-215.27C51.47,-206.05 57.92,-195.17 62.31,-187.75"/>
<polygon fill="midnightblue" stroke="midnightblue" points="42.87,-213.7 40.78,-224.08 48.89,-217.26 42.87,-213.7"/>
</g>
</g>
</svg>
