<?xml version="1.0" encoding="UTF-8" standalone="no"?>
<!DOCTYPE svg PUBLIC "-//W3C//DTD SVG 1.1//EN"
 "http://www.w3.org/Graphics/SVG/1.1/DTD/svg11.dtd">
<!-- Generated by graphviz version 2.43.0 (0)
 -->
<!-- Title: Factory.H Pages: 1 -->
<svg width="3442pt" height="308pt"
 viewBox="0.00 0.00 3442.00 308.00" xmlns="http://www.w3.org/2000/svg" xmlns:xlink="http://www.w3.org/1999/xlink">
<g id="graph0" class="graph" transform="scale(1 1) rotate(0) translate(4 304)">
<title>Factory.H</title>
<polygon fill="white" stroke="transparent" points="-4,4 -4,-304 3438,-304 3438,4 -4,4"/>
<!-- Node1 -->
<g id="node1" class="node">
<title>Node1</title>
<g id="a_node1"><a xlink:title=" ">
<polygon fill="#bfbfbf" stroke="black" points="2400.5,-280.5 2400.5,-299.5 2461.5,-299.5 2461.5,-280.5 2400.5,-280.5"/>
<text text-anchor="middle" x="2431" y="-287.5" font-family="Helvetica,sans-Serif" font-size="10.00">Factory.H</text>
</a>
</g>
</g>
<!-- Node2 -->
<g id="node2" class="node">
<title>Node2</title>
<g id="a_node2"><a xlink:href="_p_d_e_base_8_h.html" target="_top" xlink:title=" ">
<polygon fill="white" stroke="black" points="306.5,-224.5 306.5,-243.5 377.5,-243.5 377.5,-224.5 306.5,-224.5"/>
<text text-anchor="middle" x="342" y="-231.5" font-family="Helvetica,sans-Serif" font-size="10.00">PDEBase.H</text>
</a>
</g>
</g>
<!-- Node1&#45;&gt;Node2 -->
<g id="edge1" class="edge">
<title>Node1&#45;&gt;Node2</title>
<path fill="none" stroke="midnightblue" d="M2390.15,-289.09C2182.65,-289.36 1224.58,-288.02 442,-244 420.59,-242.8 396.67,-240.67 377.59,-238.79"/>
<polygon fill="midnightblue" stroke="midnightblue" points="2390.3,-292.59 2400.29,-289.08 2390.29,-285.59 2390.3,-292.59"/>
</g>
<!-- Node62 -->
<g id="node5" class="node">
<title>Node62</title>
<g id="a_node5"><a xlink:href="_a_b_l_stats_base_8_h.html" target="_top" xlink:title=" ">
<polygon fill="white" stroke="red" points="620.5,-112.5 620.5,-131.5 715.5,-131.5 715.5,-112.5 620.5,-112.5"/>
<text text-anchor="middle" x="668" y="-119.5" font-family="Helvetica,sans-Serif" font-size="10.00">ABLStatsBase.H</text>
</a>
</g>
</g>
<!-- Node1&#45;&gt;Node62 -->
<g id="edge59" class="edge">
<title>Node1&#45;&gt;Node62</title>
<path fill="none" stroke="midnightblue" d="M2390.33,-289.26C2163.06,-290.53 1048.47,-294.06 709,-244 615.56,-230.22 561.31,-263.07 504,-188 498.61,-180.93 498.61,-175.07 504,-168 511.59,-158.05 581.02,-141.55 627.08,-131.53"/>
<polygon fill="midnightblue" stroke="midnightblue" points="2390.49,-292.76 2400.47,-289.2 2390.45,-285.76 2390.49,-292.76"/>
</g>
<!-- Node137 -->
<g id="node15" class="node">
<title>Node137</title>
<g id="a_node15"><a xlink:href="_derived_quantity_8_h.html" target="_top" xlink:title=" ">
<polygon fill="white" stroke="red" points="734,-112.5 734,-131.5 840,-131.5 840,-112.5 734,-112.5"/>
<text text-anchor="middle" x="787" y="-119.5" font-family="Helvetica,sans-Serif" font-size="10.00">DerivedQuantity.H</text>
</a>
</g>
</g>
<!-- Node1&#45;&gt;Node137 -->
<g id="edge71" class="edge">
<title>Node1&#45;&gt;Node137</title>
<path fill="none" stroke="midnightblue" d="M2390.29,-288.43C2118.85,-284.44 579.76,-258.75 513,-188 506.9,-181.54 507.25,-174.78 513,-168 516.57,-163.8 655.05,-142.61 733.74,-130.87"/>
<polygon fill="midnightblue" stroke="midnightblue" points="2390.44,-291.93 2400.49,-288.58 2390.54,-284.93 2390.44,-291.93"/>
</g>
<!-- Node182 -->
<g id="node21" class="node">
<title>Node182</title>
<g id="a_node21"><a xlink:href="_physics_8_h.html" target="_top" xlink:title=" ">
<polygon fill="white" stroke="red" points="1488,-224.5 1488,-243.5 1552,-243.5 1552,-224.5 1488,-224.5"/>
<text text-anchor="middle" x="1520" y="-231.5" font-family="Helvetica,sans-Serif" font-size="10.00">Physics.H</text>
</a>
</g>
</g>
<!-- Node1&#45;&gt;Node182 -->
<g id="edge26" class="edge">
<title>Node1&#45;&gt;Node182</title>
<path fill="none" stroke="midnightblue" d="M2390,-286.57C2235.58,-277.42 1690.87,-245.13 1552.27,-236.91"/>
<polygon fill="midnightblue" stroke="midnightblue" points="2390.24,-290.09 2400.43,-287.19 2390.65,-283.1 2390.24,-290.09"/>
</g>
<!-- Node200 -->
<g id="node34" class="node">
<title>Node200</title>
<g id="a_node34"><a xlink:href="_turbulence_model_8_h.html" target="_top" xlink:title=" ">
<polygon fill="white" stroke="red" points="1879,-224.5 1879,-243.5 1989,-243.5 1989,-224.5 1879,-224.5"/>
<text text-anchor="middle" x="1934" y="-231.5" font-family="Helvetica,sans-Serif" font-size="10.00">TurbulenceModel.H</text>
</a>
</g>
</g>
<!-- Node1&#45;&gt;Node200 -->
<g id="edge47" class="edge">
<title>Node1&#45;&gt;Node200</title>
<path fill="none" stroke="midnightblue" d="M2390.13,-285.21C2313.39,-277.98 2142.53,-261.41 1999,-244 1995.83,-243.62 1992.58,-243.21 1989.3,-242.79"/>
<polygon fill="midnightblue" stroke="midnightblue" points="2390.04,-288.71 2400.32,-286.16 2390.69,-281.74 2390.04,-288.71"/>
</g>
<!-- Node201 -->
<g id="node35" class="node">
<title>Node201</title>
<g id="a_node35"><a xlink:href="_post_processing_8_h.html" target="_top" xlink:title=" ">
<polygon fill="white" stroke="red" points="2007.5,-224.5 2007.5,-243.5 2108.5,-243.5 2108.5,-224.5 2007.5,-224.5"/>
<text text-anchor="middle" x="2058" y="-231.5" font-family="Helvetica,sans-Serif" font-size="10.00">PostProcessing.H</text>
</a>
</g>
</g>
<!-- Node1&#45;&gt;Node201 -->
<g id="edge50" class="edge">
<title>Node1&#45;&gt;Node201</title>
<path fill="none" stroke="midnightblue" d="M2390.49,-283.14C2321.96,-273.21 2183.29,-253.14 2108.52,-242.31"/>
<polygon fill="midnightblue" stroke="midnightblue" points="2390.08,-286.61 2400.48,-284.58 2391.08,-279.68 2390.08,-286.61"/>
</g>
<!-- Node203 -->
<g id="node36" class="node">
<title>Node203</title>
<g id="a_node36"><a xlink:href="_time_averaging_8_h.html" target="_top" xlink:title=" ">
<polygon fill="white" stroke="red" points="2207.5,-168.5 2207.5,-187.5 2308.5,-187.5 2308.5,-168.5 2207.5,-168.5"/>
<text text-anchor="middle" x="2258" y="-175.5" font-family="Helvetica,sans-Serif" font-size="10.00">TimeAveraging.H</text>
</a>
</g>
</g>
<!-- Node1&#45;&gt;Node203 -->
<g id="edge70" class="edge">
<title>Node1&#45;&gt;Node203</title>
<path fill="none" stroke="midnightblue" d="M2390.37,-288.5C2321.51,-286.69 2186.46,-278.69 2157,-244 2134.53,-217.54 2184.01,-198 2221.36,-187.58"/>
<polygon fill="midnightblue" stroke="midnightblue" points="2390.35,-292 2400.43,-288.73 2390.51,-285 2390.35,-292"/>
</g>
<!-- Node206 -->
<g id="node37" class="node">
<title>Node206</title>
<g id="a_node37"><a xlink:href="_overset_manager_8_h.html" target="_top" xlink:title=" ">
<polygon fill="white" stroke="red" points="2550.5,-56.5 2550.5,-75.5 2657.5,-75.5 2657.5,-56.5 2550.5,-56.5"/>
<text text-anchor="middle" x="2604" y="-63.5" font-family="Helvetica,sans-Serif" font-size="10.00">OversetManager.H</text>
</a>
</g>
</g>
<!-- Node1&#45;&gt;Node206 -->
<g id="edge54" class="edge">
<title>Node1&#45;&gt;Node206</title>
<path fill="none" stroke="midnightblue" d="M2471.74,-289.02C2599.15,-288.64 2983.77,-284.17 3021,-244 3131.25,-125.02 2793.18,-82.87 2657.62,-70.98"/>
<polygon fill="midnightblue" stroke="midnightblue" points="2471.61,-285.52 2461.62,-289.04 2471.63,-292.52 2471.61,-285.52"/>
</g>
<!-- Node208 -->
<g id="node38" class="node">
<title>Node208</title>
<g id="a_node38"><a xlink:href="_ext_solver_8_h.html" target="_top" xlink:title=" ">
<polygon fill="white" stroke="red" points="2165.5,-224.5 2165.5,-243.5 2238.5,-243.5 2238.5,-224.5 2165.5,-224.5"/>
<text text-anchor="middle" x="2202" y="-231.5" font-family="Helvetica,sans-Serif" font-size="10.00">ExtSolver.H</text>
</a>
</g>
</g>
<!-- Node1&#45;&gt;Node208 -->
<g id="edge56" class="edge">
<title>Node1&#45;&gt;Node208</title>
<path fill="none" stroke="midnightblue" d="M2390.25,-279.39C2347.15,-269.23 2279.81,-253.35 2238.43,-243.59"/>
<polygon fill="midnightblue" stroke="midnightblue" points="2389.58,-282.83 2400.12,-281.72 2391.19,-276.02 2389.58,-282.83"/>
</g>
<!-- Node211 -->
<g id="node39" class="node">
<title>Node211</title>
<g id="a_node39"><a xlink:href="_density_source_8_h.html" target="_top" xlink:title=" ">
<polygon fill="white" stroke="red" points="2257,-224.5 2257,-243.5 2355,-243.5 2355,-224.5 2257,-224.5"/>
<text text-anchor="middle" x="2306" y="-231.5" font-family="Helvetica,sans-Serif" font-size="10.00">DensitySource.H</text>
</a>
</g>
</g>
<!-- Node1&#45;&gt;Node211 -->
<g id="edge57" class="edge">
<title>Node1&#45;&gt;Node211</title>
<path fill="none" stroke="midnightblue" d="M2401.76,-276.37C2378.35,-266.26 2346.16,-252.35 2325.71,-243.52"/>
<polygon fill="midnightblue" stroke="midnightblue" points="2400.63,-279.69 2411.19,-280.44 2403.4,-273.26 2400.63,-279.69"/>
</g>
<!-- Node212 -->
<g id="node40" class="node">
<title>Node212</title>
<g id="a_node40"><a xlink:href="_momentum_source_8_h.html" target="_top" xlink:title=" ">
<polygon fill="white" stroke="red" points="2373,-224.5 2373,-243.5 2489,-243.5 2489,-224.5 2373,-224.5"/>
<text text-anchor="middle" x="2431" y="-231.5" font-family="Helvetica,sans-Serif" font-size="10.00">MomentumSource.H</text>
</a>
</g>
</g>
<!-- Node1&#45;&gt;Node212 -->
<g id="edge58" class="edge">
<title>Node1&#45;&gt;Node212</title>
<path fill="none" stroke="midnightblue" d="M2431,-269.8C2431,-260.91 2431,-250.78 2431,-243.75"/>
<polygon fill="midnightblue" stroke="midnightblue" points="2427.5,-270.08 2431,-280.08 2434.5,-270.08 2427.5,-270.08"/>
</g>
<!-- Node223 -->
<g id="node41" class="node">
<title>Node223</title>
<g id="a_node41"><a xlink:href="_source_term_8_h.html" target="_top" xlink:title=" ">
<polygon fill="white" stroke="red" points="2507,-224.5 2507,-243.5 2591,-243.5 2591,-224.5 2507,-224.5"/>
<text text-anchor="middle" x="2549" y="-231.5" font-family="Helvetica,sans-Serif" font-size="10.00">SourceTerm.H</text>
</a>
</g>
</g>
<!-- Node1&#45;&gt;Node223 -->
<g id="edge60" class="edge">
<title>Node1&#45;&gt;Node223</title>
<path fill="none" stroke="midnightblue" d="M2458.9,-276.23C2480.97,-266.13 2511.18,-252.31 2530.39,-243.52"/>
<polygon fill="midnightblue" stroke="midnightblue" points="2457.33,-273.1 2449.7,-280.44 2460.25,-279.46 2457.33,-273.1"/>
</g>
<!-- Node224 -->
<g id="node42" class="node">
<title>Node224</title>
<g id="a_node42"><a xlink:href="_s_d_r_source_8_h.html" target="_top" xlink:title=" ">
<polygon fill="white" stroke="red" points="2609,-224.5 2609,-243.5 2689,-243.5 2689,-224.5 2609,-224.5"/>
<text text-anchor="middle" x="2649" y="-231.5" font-family="Helvetica,sans-Serif" font-size="10.00">SDRSource.H</text>
</a>
</g>
</g>
<!-- Node1&#45;&gt;Node224 -->
<g id="edge61" class="edge">
<title>Node1&#45;&gt;Node224</title>
<path fill="none" stroke="midnightblue" d="M2471.73,-278.91C2512.85,-268.73 2575.66,-253.17 2614.43,-243.56"/>
<polygon fill="midnightblue" stroke="midnightblue" points="2470.64,-275.58 2461.77,-281.38 2472.32,-282.37 2470.64,-275.58"/>
</g>
<!-- Node226 -->
<g id="node43" class="node">
<title>Node226</title>
<g id="a_node43"><a xlink:href="_temperature_source_8_h.html" target="_top" xlink:title=" ">
<polygon fill="white" stroke="red" points="2707,-224.5 2707,-243.5 2829,-243.5 2829,-224.5 2707,-224.5"/>
<text text-anchor="middle" x="2768" y="-231.5" font-family="Helvetica,sans-Serif" font-size="10.00">TemperatureSource.H</text>
</a>
</g>
</g>
<!-- Node1&#45;&gt;Node226 -->
<g id="edge62" class="edge">
<title>Node1&#45;&gt;Node226</title>
<path fill="none" stroke="midnightblue" d="M2471.49,-282.51C2532.32,-272.76 2647.33,-254.34 2714.84,-243.52"/>
<polygon fill="midnightblue" stroke="midnightblue" points="2470.82,-279.07 2461.5,-284.11 2471.93,-285.99 2470.82,-279.07"/>
</g>
<!-- Node227 -->
<g id="node44" class="node">
<title>Node227</title>
<g id="a_node44"><a xlink:href="_t_k_e_source_8_h.html" target="_top" xlink:title=" ">
<polygon fill="white" stroke="red" points="2847.5,-224.5 2847.5,-243.5 2926.5,-243.5 2926.5,-224.5 2847.5,-224.5"/>
<text text-anchor="middle" x="2887" y="-231.5" font-family="Helvetica,sans-Serif" font-size="10.00">TKESource.H</text>
</a>
</g>
</g>
<!-- Node1&#45;&gt;Node227 -->
<g id="edge63" class="edge">
<title>Node1&#45;&gt;Node227</title>
<path fill="none" stroke="midnightblue" d="M2471.94,-285.45C2545.45,-278.86 2704.59,-263.6 2838,-244 2841.08,-243.55 2844.26,-243.04 2847.46,-242.51"/>
<polygon fill="midnightblue" stroke="midnightblue" points="2471.38,-281.99 2461.73,-286.36 2472,-288.96 2471.38,-281.99"/>
</g>
<!-- Node98 -->
<g id="node45" class="node">
<title>Node98</title>
<g id="a_node45"><a xlink:href="_i_b_model_8_h.html" target="_top" xlink:title=" ">
<polygon fill="white" stroke="red" points="2944.5,-224.5 2944.5,-243.5 3011.5,-243.5 3011.5,-224.5 2944.5,-224.5"/>
<text text-anchor="middle" x="2978" y="-231.5" font-family="Helvetica,sans-Serif" font-size="10.00">IBModel.H</text>
</a>
</g>
</g>
<!-- Node1&#45;&gt;Node98 -->
<g id="edge64" class="edge">
<title>Node1&#45;&gt;Node98</title>
<path fill="none" stroke="midnightblue" d="M2471.74,-287.06C2557.85,-282.6 2764.52,-269.91 2936,-244 2938.65,-243.6 2941.39,-243.13 2944.14,-242.63"/>
<polygon fill="midnightblue" stroke="midnightblue" points="2471.42,-283.57 2461.61,-287.58 2471.77,-290.56 2471.42,-283.57"/>
</g>
<!-- Node231 -->
<g id="node46" class="node">
<title>Node231</title>
<g id="a_node46"><a xlink:href="_refinement_criteria_8_h.html" target="_top" xlink:title=" ">
<polygon fill="white" stroke="red" points="2846.5,-56.5 2846.5,-75.5 2965.5,-75.5 2965.5,-56.5 2846.5,-56.5"/>
<text text-anchor="middle" x="2906" y="-63.5" font-family="Helvetica,sans-Serif" font-size="10.00">RefinementCriteria.H</text>
</a>
</g>
</g>
<!-- Node1&#45;&gt;Node231 -->
<g id="edge65" class="edge">
<title>Node1&#45;&gt;Node231</title>
<path fill="none" stroke="midnightblue" d="M2472.08,-288.93C2602.47,-288.3 3000.8,-283.15 3042,-244 3066.59,-220.63 3064.6,-198.12 3049,-168 3023.84,-119.42 2963.36,-89.22 2929.67,-75.57"/>
<polygon fill="midnightblue" stroke="midnightblue" points="2471.72,-285.43 2461.74,-288.97 2471.75,-292.43 2471.72,-285.43"/>
</g>
<!-- Node246 -->
<g id="node47" class="node">
<title>Node246</title>
<g id="a_node47"><a xlink:href="_u_d_f_8_h.html" target="_top" xlink:title=" ">
<polygon fill="white" stroke="red" points="1813.5,-224.5 1813.5,-243.5 1860.5,-243.5 1860.5,-224.5 1813.5,-224.5"/>
<text text-anchor="middle" x="1837" y="-231.5" font-family="Helvetica,sans-Serif" font-size="10.00">UDF.H</text>
</a>
</g>
</g>
<!-- Node1&#45;&gt;Node246 -->
<g id="edge67" class="edge">
<title>Node1&#45;&gt;Node246</title>
<path fill="none" stroke="midnightblue" d="M2390.24,-288.32C2297.28,-286.22 2062.77,-277.71 1870,-244 1866.96,-243.47 1863.79,-242.78 1860.67,-242.02"/>
<polygon fill="midnightblue" stroke="midnightblue" points="2390.27,-291.83 2400.34,-288.54 2390.42,-284.83 2390.27,-291.83"/>
</g>
<!-- Node248 -->
<g id="node48" class="node">
<title>Node248</title>
<g id="a_node48"><a xlink:href="_transport_model_8_h.html" target="_top" xlink:title=" ">
<polygon fill="white" stroke="red" points="3106,-224.5 3106,-243.5 3208,-243.5 3208,-224.5 3106,-224.5"/>
<text text-anchor="middle" x="3157" y="-231.5" font-family="Helvetica,sans-Serif" font-size="10.00">TransportModel.H</text>
</a>
</g>
</g>
<!-- Node1&#45;&gt;Node248 -->
<g id="edge69" class="edge">
<title>Node1&#45;&gt;Node248</title>
<path fill="none" stroke="midnightblue" d="M2471.75,-287.21C2575.45,-282.46 2857.77,-268.16 3092,-244 3096.53,-243.53 3101.24,-242.99 3105.95,-242.41"/>
<polygon fill="midnightblue" stroke="midnightblue" points="2471.53,-283.72 2461.7,-287.67 2471.85,-290.71 2471.53,-283.72"/>
</g>
<!-- Node250 -->
<g id="node49" class="node">
<title>Node250</title>
<g id="a_node49"><a xlink:href="_sampler_base_8_h.html" target="_top" xlink:title=" ">
<polygon fill="white" stroke="red" points="3226,-224.5 3226,-243.5 3318,-243.5 3318,-224.5 3226,-224.5"/>
<text text-anchor="middle" x="3272" y="-231.5" font-family="Helvetica,sans-Serif" font-size="10.00">SamplerBase.H</text>
</a>
</g>
</g>
<!-- Node1&#45;&gt;Node250 -->
<g id="edge72" class="edge">
<title>Node1&#45;&gt;Node250</title>
<path fill="none" stroke="midnightblue" d="M2472.08,-288.17C2588.93,-285.47 2933.08,-275.27 3217,-244 3219.89,-243.68 3222.85,-243.32 3225.83,-242.92"/>
<polygon fill="midnightblue" stroke="midnightblue" points="2471.73,-284.67 2461.81,-288.4 2471.89,-291.67 2471.73,-284.67"/>
</g>
<!-- Node166 -->
<g id="node50" class="node">
<title>Node166</title>
<g id="a_node50"><a xlink:href="_actuator_model_8_h.html" target="_top" xlink:title=" ">
<polygon fill="white" stroke="red" points="3336,-224.5 3336,-243.5 3434,-243.5 3434,-224.5 3336,-224.5"/>
<text text-anchor="middle" x="3385" y="-231.5" font-family="Helvetica,sans-Serif" font-size="10.00">ActuatorModel.H</text>
</a>
</g>
</g>
<!-- Node1&#45;&gt;Node166 -->
<g id="edge73" class="edge">
<title>Node1&#45;&gt;Node166</title>
<path fill="none" stroke="midnightblue" d="M2471.69,-288.46C2598.56,-286.45 2998.09,-277.69 3327,-244 3329.94,-243.7 3332.96,-243.35 3336,-242.97"/>
<polygon fill="midnightblue" stroke="midnightblue" points="2471.59,-284.96 2461.64,-288.61 2471.7,-291.96 2471.59,-284.96"/>
</g>
<!-- Node3 -->
<g id="node3" class="node">
<title>Node3</title>
<g id="a_node3"><a xlink:href="_c_f_d_sim_8_h.html" target="_top" xlink:title=" ">
<polygon fill="white" stroke="red" points="522,-168.5 522,-187.5 588,-187.5 588,-168.5 522,-168.5"/>
<text text-anchor="middle" x="555" y="-175.5" font-family="Helvetica,sans-Serif" font-size="10.00">CFDSim.H</text>
</a>
</g>
</g>
<!-- Node2&#45;&gt;Node3 -->
<g id="edge2" class="edge">
<title>Node2&#45;&gt;Node3</title>
<path fill="none" stroke="midnightblue" d="M385.58,-221.95C425.94,-211.72 485.09,-196.72 521.76,-187.43"/>
<polygon fill="midnightblue" stroke="midnightblue" points="384.58,-218.59 375.75,-224.44 386.3,-225.38 384.58,-218.59"/>
</g>
<!-- Node35 -->
<g id="node4" class="node">
<title>Node35</title>
<g id="a_node4"><a xlink:href="_p_d_e_8_h.html" target="_top" xlink:title=" ">
<polygon fill="white" stroke="red" points="555.5,-112.5 555.5,-131.5 602.5,-131.5 602.5,-112.5 555.5,-112.5"/>
<text text-anchor="middle" x="579" y="-119.5" font-family="Helvetica,sans-Serif" font-size="10.00">PDE.H</text>
</a>
</g>
</g>
<!-- Node2&#45;&gt;Node35 -->
<g id="edge15" class="edge">
<title>Node2&#45;&gt;Node35</title>
<path fill="none" stroke="midnightblue" d="M361.2,-218.36C380.7,-204.01 412.2,-182.28 442,-168 462.32,-158.26 521.8,-139.97 555.32,-129.97"/>
<polygon fill="midnightblue" stroke="midnightblue" points="359.05,-215.59 353.13,-224.37 363.24,-221.2 359.05,-215.59"/>
</g>
<!-- Node7 -->
<g id="node7" class="node">
<title>Node7</title>
<g id="a_node7"><a xlink:href="incflo_8cpp.html" target="_top" xlink:title=" ">
<polygon fill="white" stroke="black" points="2128.5,-0.5 2128.5,-19.5 2191.5,-19.5 2191.5,-0.5 2128.5,-0.5"/>
<text text-anchor="middle" x="2160" y="-7.5" font-family="Helvetica,sans-Serif" font-size="10.00">incflo.cpp</text>
</a>
</g>
</g>
<!-- Node2&#45;&gt;Node7 -->
<g id="edge17" class="edge">
<title>Node2&#45;&gt;Node7</title>
<path fill="none" stroke="midnightblue" d="M331.43,-215.46C317.17,-189.29 296.43,-140.07 323,-112 387.67,-43.68 1889.52,-15.56 2128.17,-11.52"/>
<polygon fill="midnightblue" stroke="midnightblue" points="328.47,-217.33 336.47,-224.28 334.55,-213.86 328.47,-217.33"/>
</g>
<!-- Node85 -->
<g id="node8" class="node">
<title>Node85</title>
<g id="a_node8"><a xlink:href="_p_d_e_base_8cpp.html" target="_top" xlink:title=" ">
<polygon fill="white" stroke="black" points="332,-112.5 332,-131.5 412,-131.5 412,-112.5 332,-112.5"/>
<text text-anchor="middle" x="372" y="-119.5" font-family="Helvetica,sans-Serif" font-size="10.00">PDEBase.cpp</text>
</a>
</g>
</g>
<!-- Node2&#45;&gt;Node85 -->
<g id="edge16" class="edge">
<title>Node2&#45;&gt;Node85</title>
<path fill="none" stroke="midnightblue" d="M347,-214.67C353.56,-190.62 364.8,-149.39 369.66,-131.59"/>
<polygon fill="midnightblue" stroke="midnightblue" points="343.61,-213.8 344.35,-224.37 350.36,-215.64 343.61,-213.8"/>
</g>
<!-- Node102 -->
<g id="node10" class="node">
<title>Node102</title>
<g id="a_node10"><a xlink:href="_tioga_interface_8cpp.html" target="_top" xlink:title=" ">
<polygon fill="white" stroke="black" points="430.5,-112.5 430.5,-131.5 537.5,-131.5 537.5,-112.5 430.5,-112.5"/>
<text text-anchor="middle" x="484" y="-119.5" font-family="Helvetica,sans-Serif" font-size="10.00">TiogaInterface.cpp</text>
</a>
</g>
</g>
<!-- Node2&#45;&gt;Node102 -->
<g id="edge19" class="edge">
<title>Node2&#45;&gt;Node102</title>
<path fill="none" stroke="midnightblue" d="M355.42,-216.38C367.25,-202.39 385.44,-182.42 404,-168 423.38,-152.94 448.39,-139.71 465.25,-131.57"/>
<polygon fill="midnightblue" stroke="midnightblue" points="352.61,-214.28 348.93,-224.21 358,-218.74 352.61,-214.28"/>
</g>
<!-- Node8 -->
<g id="node16" class="node">
<title>Node8</title>
<g id="a_node16"><a xlink:href="incflo__advance_8cpp.html" target="_top" xlink:title=" ">
<polygon fill="white" stroke="black" points="2003,-168.5 2003,-187.5 2113,-187.5 2113,-168.5 2003,-168.5"/>
<text text-anchor="middle" x="2058" y="-175.5" font-family="Helvetica,sans-Serif" font-size="10.00">incflo_advance.cpp</text>
</a>
</g>
</g>
<!-- Node2&#45;&gt;Node8 -->
<g id="edge18" class="edge">
<title>Node2&#45;&gt;Node8</title>
<path fill="none" stroke="midnightblue" d="M387.89,-232.45C620.32,-229.55 1669.3,-215.17 1994,-188 1996.91,-187.76 1999.88,-187.47 2002.89,-187.15"/>
<polygon fill="midnightblue" stroke="midnightblue" points="387.71,-228.95 377.76,-232.57 387.8,-235.95 387.71,-228.95"/>
</g>
<!-- Node51 -->
<g id="node17" class="node">
<title>Node51</title>
<g id="a_node17"><a xlink:href="_one_eq_ksgs_8cpp.html" target="_top" xlink:title=" ">
<polygon fill="white" stroke="black" points="0,-168.5 0,-187.5 92,-187.5 92,-168.5 0,-168.5"/>
<text text-anchor="middle" x="46" y="-175.5" font-family="Helvetica,sans-Serif" font-size="10.00">OneEqKsgs.cpp</text>
</a>
</g>
</g>
<!-- Node2&#45;&gt;Node51 -->
<g id="edge20" class="edge">
<title>Node2&#45;&gt;Node51</title>
<path fill="none" stroke="midnightblue" d="M296.39,-224.68C240.89,-214.55 147.72,-197.56 92.03,-187.4"/>
<polygon fill="midnightblue" stroke="midnightblue" points="295.83,-228.13 306.3,-226.49 297.09,-221.25 295.83,-228.13"/>
</g>
<!-- Node45 -->
<g id="node18" class="node">
<title>Node45</title>
<g id="a_node18"><a xlink:href="_k_omega_s_s_t_i_8_h.html" target="_top" xlink:title=" ">
<polygon fill="white" stroke="black" points="148.5,-168.5 148.5,-187.5 237.5,-187.5 237.5,-168.5 148.5,-168.5"/>
<text text-anchor="middle" x="193" y="-175.5" font-family="Helvetica,sans-Serif" font-size="10.00">KOmegaSSTI.H</text>
</a>
</g>
</g>
<!-- Node2&#45;&gt;Node45 -->
<g id="edge21" class="edge">
<title>Node2&#45;&gt;Node45</title>
<path fill="none" stroke="midnightblue" d="M308.63,-220.91C280.62,-210.75 241.3,-196.51 216.5,-187.52"/>
<polygon fill="midnightblue" stroke="midnightblue" points="307.8,-224.33 318.39,-224.44 310.18,-217.75 307.8,-224.33"/>
</g>
<!-- Node46 -->
<g id="node19" class="node">
<title>Node46</title>
<g id="a_node19"><a xlink:href="_k_omega_s_s_t_8cpp.html" target="_top" xlink:title=" ">
<polygon fill="white" stroke="black" points="180.5,-112.5 180.5,-131.5 275.5,-131.5 275.5,-112.5 180.5,-112.5"/>
<text text-anchor="middle" x="228" y="-119.5" font-family="Helvetica,sans-Serif" font-size="10.00">KOmegaSST.cpp</text>
</a>
</g>
</g>
<!-- Node2&#45;&gt;Node46 -->
<g id="edge24" class="edge">
<title>Node2&#45;&gt;Node46</title>
<path fill="none" stroke="midnightblue" d="M323.57,-217.8C313.46,-209.26 300.8,-198.29 290,-188 269.68,-168.64 247.28,-144.37 235.77,-131.67"/>
<polygon fill="midnightblue" stroke="midnightblue" points="321.46,-220.59 331.38,-224.32 325.95,-215.22 321.46,-220.59"/>
</g>
<!-- Node47 -->
<g id="node20" class="node">
<title>Node47</title>
<g id="a_node20"><a xlink:href="_k_omega_s_s_t_i_d_d_e_s_8cpp.html" target="_top" xlink:title=" ">
<polygon fill="white" stroke="black" points="36,-112.5 36,-131.5 162,-131.5 162,-112.5 36,-112.5"/>
<text text-anchor="middle" x="99" y="-119.5" font-family="Helvetica,sans-Serif" font-size="10.00">KOmegaSSTIDDES.cpp</text>
</a>
</g>
</g>
<!-- Node2&#45;&gt;Node47 -->
<g id="edge25" class="edge">
<title>Node2&#45;&gt;Node47</title>
<path fill="none" stroke="midnightblue" d="M296.22,-232.82C252.16,-230.5 185.56,-221.14 139,-188 118.92,-173.71 106.9,-145.87 101.83,-131.72"/>
<polygon fill="midnightblue" stroke="midnightblue" points="296.21,-236.32 306.35,-233.25 296.51,-229.33 296.21,-236.32"/>
</g>
<!-- Node3&#45;&gt;Node35 -->
<g id="edge3" class="edge">
<title>Node3&#45;&gt;Node35</title>
<path fill="none" stroke="midnightblue" d="M563.14,-158.69C567.18,-149.59 571.88,-139.01 575.11,-131.75"/>
<polygon fill="midnightblue" stroke="midnightblue" points="559.83,-157.52 558.96,-168.08 566.22,-160.37 559.83,-157.52"/>
</g>
<!-- Node3&#45;&gt;Node62 -->
<g id="edge4" class="edge">
<title>Node3&#45;&gt;Node62</title>
<path fill="none" stroke="midnightblue" d="M582,-164.1C603.11,-154.01 631.86,-140.27 650.18,-131.52"/>
<polygon fill="midnightblue" stroke="midnightblue" points="580.42,-160.97 572.91,-168.44 583.44,-167.29 580.42,-160.97"/>
</g>
<!-- Node3&#45;&gt;Node85 -->
<g id="edge7" class="edge">
<title>Node3&#45;&gt;Node85</title>
<path fill="none" stroke="midnightblue" d="M516.26,-165.57C481.74,-155.38 431.99,-140.7 400.86,-131.52"/>
<polygon fill="midnightblue" stroke="midnightblue" points="515.42,-168.97 526,-168.44 517.4,-162.26 515.42,-168.97"/>
</g>
<!-- Node100 -->
<g id="node9" class="node">
<title>Node100</title>
<g id="a_node9"><a xlink:href="_convecting_taylor_vortex_8_h.html" target="_top" xlink:title=" ">
<polygon fill="white" stroke="red" points="1605.5,-112.5 1605.5,-131.5 1748.5,-131.5 1748.5,-112.5 1605.5,-112.5"/>
<text text-anchor="middle" x="1677" y="-119.5" font-family="Helvetica,sans-Serif" font-size="10.00">ConvectingTaylorVortex.H</text>
</a>
</g>
</g>
<!-- Node3&#45;&gt;Node100 -->
<g id="edge8" class="edge">
<title>Node3&#45;&gt;Node100</title>
<path fill="none" stroke="midnightblue" d="M598.21,-168.25C1031.47,-115.92 1145.18,-159.11 1576,-132 1585.49,-131.4 1595.47,-130.66 1605.31,-129.85"/>
<polygon fill="midnightblue" stroke="midnightblue" points="597.75,-164.78 588.24,-169.46 598.59,-171.73 597.75,-164.78"/>
</g>
<!-- Node3&#45;&gt;Node102 -->
<g id="edge9" class="edge">
<title>Node3&#45;&gt;Node102</title>
<path fill="none" stroke="midnightblue" d="M535.41,-162.1C522.63,-152.38 506.39,-140.03 495.61,-131.83"/>
<polygon fill="midnightblue" stroke="midnightblue" points="533.51,-165.06 543.59,-168.32 537.75,-159.48 533.51,-165.06"/>
</g>
<!-- Node103 -->
<g id="node11" class="node">
<title>Node103</title>
<g id="a_node11"><a xlink:href="_channel_flow_8_h.html" target="_top" xlink:title=" ">
<polygon fill="white" stroke="red" points="869.5,-112.5 869.5,-131.5 958.5,-131.5 958.5,-112.5 869.5,-112.5"/>
<text text-anchor="middle" x="914" y="-119.5" font-family="Helvetica,sans-Serif" font-size="10.00">ChannelFlow.H</text>
</a>
</g>
</g>
<!-- Node3&#45;&gt;Node103 -->
<g id="edge10" class="edge">
<title>Node3&#45;&gt;Node103</title>
<path fill="none" stroke="midnightblue" d="M598.32,-168.12C648.09,-160.06 794.42,-139.61 869.22,-129.21"/>
<polygon fill="midnightblue" stroke="midnightblue" points="597.57,-164.7 588.29,-169.81 598.74,-171.6 597.57,-164.7"/>
</g>
<!-- Node105 -->
<g id="node12" class="node">
<title>Node105</title>
<g id="a_node12"><a xlink:href="_ekman_spiral_8_h.html" target="_top" xlink:title=" ">
<polygon fill="white" stroke="red" points="1142.5,-112.5 1142.5,-131.5 1231.5,-131.5 1231.5,-112.5 1142.5,-112.5"/>
<text text-anchor="middle" x="1187" y="-119.5" font-family="Helvetica,sans-Serif" font-size="10.00">EkmanSpiral.H</text>
</a>
</g>
</g>
<!-- Node3&#45;&gt;Node105 -->
<g id="edge11" class="edge">
<title>Node3&#45;&gt;Node105</title>
<path fill="none" stroke="midnightblue" d="M598.21,-168.19C807.64,-138.91 1045.43,-127.95 1142.45,-124.43"/>
<polygon fill="midnightblue" stroke="midnightblue" points="597.67,-164.73 588.26,-169.59 598.65,-171.66 597.67,-164.73"/>
</g>
<!-- Node108 -->
<g id="node13" class="node">
<title>Node108</title>
<g id="a_node13"><a xlink:href="_hybrid_r_a_n_s_l_e_s_a_b_l_8_h.html" target="_top" xlink:title=" ">
<polygon fill="white" stroke="red" points="1332.5,-112.5 1332.5,-131.5 1455.5,-131.5 1455.5,-112.5 1332.5,-112.5"/>
<text text-anchor="middle" x="1394" y="-119.5" font-family="Helvetica,sans-Serif" font-size="10.00">HybridRANSLESABL.H</text>
</a>
</g>
</g>
<!-- Node3&#45;&gt;Node108 -->
<g id="edge12" class="edge">
<title>Node3&#45;&gt;Node108</title>
<path fill="none" stroke="midnightblue" d="M598.48,-168.18C883.52,-130.99 958.59,-148.21 1241,-132 1271.02,-130.28 1304.35,-128.32 1332.21,-126.67"/>
<polygon fill="midnightblue" stroke="midnightblue" points="597.71,-164.75 588.25,-169.53 598.62,-171.69 597.71,-164.75"/>
</g>
<!-- Node110 -->
<g id="node14" class="node">
<title>Node110</title>
<g id="a_node14"><a xlink:href="_m_m_s_8_h.html" target="_top" xlink:title=" ">
<polygon fill="white" stroke="red" points="1515.5,-112.5 1515.5,-131.5 1566.5,-131.5 1566.5,-112.5 1515.5,-112.5"/>
<text text-anchor="middle" x="1541" y="-119.5" font-family="Helvetica,sans-Serif" font-size="10.00">MMS.H</text>
</a>
</g>
</g>
<!-- Node3&#45;&gt;Node110 -->
<g id="edge13" class="edge">
<title>Node3&#45;&gt;Node110</title>
<path fill="none" stroke="midnightblue" d="M598.24,-168.24C982.44,-121.05 1083.84,-162.44 1465,-132 1481.82,-130.66 1500.66,-128.43 1515.37,-126.53"/>
<polygon fill="midnightblue" stroke="midnightblue" points="597.74,-164.77 588.24,-169.48 598.6,-171.72 597.74,-164.77"/>
</g>
<!-- Node3&#45;&gt;Node137 -->
<g id="edge14" class="edge">
<title>Node3&#45;&gt;Node137</title>
<path fill="none" stroke="midnightblue" d="M598.03,-166.98C641.84,-156.79 709.03,-141.15 750.38,-131.52"/>
<polygon fill="midnightblue" stroke="midnightblue" points="597.19,-163.59 588.24,-169.26 598.77,-170.4 597.19,-163.59"/>
</g>
<!-- Node59 -->
<g id="node6" class="node">
<title>Node59</title>
<g id="a_node6"><a xlink:href="_a_b_l_8_h.html" target="_top" xlink:title=" ">
<polygon fill="white" stroke="red" points="1764,-56.5 1764,-75.5 1810,-75.5 1810,-56.5 1764,-56.5"/>
<text text-anchor="middle" x="1787" y="-63.5" font-family="Helvetica,sans-Serif" font-size="10.00">ABL.H</text>
</a>
</g>
</g>
<!-- Node62&#45;&gt;Node59 -->
<g id="edge5" class="edge">
<title>Node62&#45;&gt;Node59</title>
<path fill="none" stroke="midnightblue" d="M725.5,-112.09C1147.94,-70.53 1650.83,-67.22 1763.76,-67"/>
<polygon fill="midnightblue" stroke="midnightblue" points="725.14,-108.61 715.53,-113.08 725.83,-115.57 725.14,-108.61"/>
</g>
<!-- Node59&#45;&gt;Node7 -->
<g id="edge6" class="edge">
<title>Node59&#45;&gt;Node7</title>
<path fill="none" stroke="midnightblue" d="M1820.26,-60.19C1891.62,-49.85 2058.59,-25.68 2128.42,-15.57"/>
<polygon fill="midnightblue" stroke="midnightblue" points="1819.45,-56.77 1810.05,-61.66 1820.45,-63.69 1819.45,-56.77"/>
</g>
<!-- Node45&#45;&gt;Node46 -->
<g id="edge22" class="edge">
<title>Node45&#45;&gt;Node46</title>
<path fill="none" stroke="midnightblue" d="M204.3,-159.57C210.32,-150.27 217.47,-139.25 222.33,-131.75"/>
<polygon fill="midnightblue" stroke="midnightblue" points="201.28,-157.79 198.78,-168.08 207.16,-161.6 201.28,-157.79"/>
</g>
<!-- Node45&#45;&gt;Node47 -->
<g id="edge23" class="edge">
<title>Node45&#45;&gt;Node47</title>
<path fill="none" stroke="midnightblue" d="M168.94,-163.18C151.64,-153.24 128.85,-140.15 114.07,-131.65"/>
<polygon fill="midnightblue" stroke="midnightblue" points="167.48,-166.38 177.9,-168.32 170.97,-160.31 167.48,-166.38"/>
</g>
<!-- Node182&#45;&gt;Node3 -->
<g id="edge27" class="edge">
<title>Node182&#45;&gt;Node3</title>
<path fill="none" stroke="midnightblue" d="M1477.98,-233.3C1347.12,-233.72 935.39,-231.27 598,-188 594.82,-187.59 591.53,-187.08 588.25,-186.5"/>
<polygon fill="midnightblue" stroke="midnightblue" points="1478.01,-236.8 1487.99,-233.26 1477.98,-229.8 1478.01,-236.8"/>
</g>
<!-- Node182&#45;&gt;Node59 -->
<g id="edge28" class="edge">
<title>Node182&#45;&gt;Node59</title>
<path fill="none" stroke="midnightblue" d="M1562.16,-232.17C1605.01,-229.46 1671.63,-219.88 1719,-188 1760.38,-160.15 1779.3,-98.23 1785.03,-75.54"/>
<polygon fill="midnightblue" stroke="midnightblue" points="1561.87,-228.68 1552.07,-232.72 1562.25,-235.67 1561.87,-228.68"/>
</g>
<!-- Node182&#45;&gt;Node100 -->
<g id="edge31" class="edge">
<title>Node182&#45;&gt;Node100</title>
<path fill="none" stroke="midnightblue" d="M1562.25,-228.59C1610.75,-222.55 1685.84,-209.89 1703,-188 1716.65,-170.59 1697.75,-145.08 1685.68,-131.79"/>
<polygon fill="midnightblue" stroke="midnightblue" points="1561.55,-225.15 1552.04,-229.81 1562.38,-232.1 1561.55,-225.15"/>
</g>
<!-- Node182&#45;&gt;Node103 -->
<g id="edge35" class="edge">
<title>Node182&#45;&gt;Node103</title>
<path fill="none" stroke="midnightblue" d="M1546.08,-219.44C1568.33,-206.18 1594.34,-185.48 1578,-168 1567.39,-156.65 1105.72,-132.6 958.57,-125.21"/>
<polygon fill="midnightblue" stroke="midnightblue" points="1544.18,-216.49 1537.21,-224.47 1547.64,-222.58 1544.18,-216.49"/>
</g>
<!-- Node182&#45;&gt;Node105 -->
<g id="edge36" class="edge">
<title>Node182&#45;&gt;Node105</title>
<path fill="none" stroke="midnightblue" d="M1560.31,-221.22C1593.21,-209.64 1631.21,-190.47 1611,-168 1598.41,-154 1337.91,-133.82 1231.59,-126.14"/>
<polygon fill="midnightblue" stroke="midnightblue" points="1559.14,-217.92 1550.78,-224.42 1561.37,-224.56 1559.14,-217.92"/>
</g>
<!-- Node182&#45;&gt;Node108 -->
<g id="edge38" class="edge">
<title>Node182&#45;&gt;Node108</title>
<path fill="none" stroke="midnightblue" d="M1562.37,-227.12C1609.78,-218.81 1676.56,-200.84 1649,-168 1636.65,-153.28 1527.02,-138.14 1455.58,-129.72"/>
<polygon fill="midnightblue" stroke="midnightblue" points="1561.59,-223.7 1552.3,-228.8 1562.73,-230.61 1561.59,-223.7"/>
</g>
<!-- Node182&#45;&gt;Node110 -->
<g id="edge39" class="edge">
<title>Node182&#45;&gt;Node110</title>
<path fill="none" stroke="midnightblue" d="M1562.11,-227.51C1606.44,-220.77 1671.88,-207.74 1687,-188 1692.41,-180.94 1692.28,-175.15 1687,-168 1672.63,-148.53 1604.55,-133.95 1566.64,-127.18"/>
<polygon fill="midnightblue" stroke="midnightblue" points="1561.55,-224.06 1552.17,-228.97 1562.57,-230.98 1561.55,-224.06"/>
</g>
<!-- Node182&#45;&gt;Node8 -->
<g id="edge33" class="edge">
<title>Node182&#45;&gt;Node8</title>
<path fill="none" stroke="midnightblue" d="M1562.28,-229.63C1645.21,-222.88 1834.97,-206.72 1994,-188 1996.9,-187.66 1999.87,-187.29 2002.86,-186.91"/>
<polygon fill="midnightblue" stroke="midnightblue" points="1561.92,-226.15 1552.24,-230.44 1562.49,-233.12 1561.92,-226.15"/>
</g>
<!-- Node183 -->
<g id="node22" class="node">
<title>Node183</title>
<g id="a_node22"><a xlink:href="_actuator_8_h.html" target="_top" xlink:title=" ">
<polygon fill="white" stroke="red" points="1815,-168.5 1815,-187.5 1883,-187.5 1883,-168.5 1815,-168.5"/>
<text text-anchor="middle" x="1849" y="-175.5" font-family="Helvetica,sans-Serif" font-size="10.00">Actuator.H</text>
</a>
</g>
</g>
<!-- Node182&#45;&gt;Node183 -->
<g id="edge29" class="edge">
<title>Node182&#45;&gt;Node183</title>
<path fill="none" stroke="midnightblue" d="M1562.14,-226.61C1617.16,-218.18 1716.4,-202.7 1801,-188 1805.51,-187.22 1810.25,-186.36 1814.93,-185.5"/>
<polygon fill="midnightblue" stroke="midnightblue" points="1561.43,-223.18 1552.07,-228.15 1562.49,-230.1 1561.43,-223.18"/>
</g>
<!-- Node185 -->
<g id="node23" class="node">
<title>Node185</title>
<g id="a_node23"><a xlink:href="_multi_phase_8_h.html" target="_top" xlink:title=" ">
<polygon fill="white" stroke="red" points="606.5,-168.5 606.5,-187.5 687.5,-187.5 687.5,-168.5 606.5,-168.5"/>
<text text-anchor="middle" x="647" y="-175.5" font-family="Helvetica,sans-Serif" font-size="10.00">MultiPhase.H</text>
</a>
</g>
</g>
<!-- Node182&#45;&gt;Node185 -->
<g id="edge30" class="edge">
<title>Node182&#45;&gt;Node185</title>
<path fill="none" stroke="midnightblue" d="M1477.7,-232.53C1355.99,-230.77 994.61,-222.79 697,-188 693.93,-187.64 690.77,-187.21 687.6,-186.74"/>
<polygon fill="midnightblue" stroke="midnightblue" points="1477.67,-236.03 1487.72,-232.67 1477.77,-229.03 1477.67,-236.03"/>
</g>
<!-- Node188 -->
<g id="node24" class="node">
<title>Node188</title>
<g id="a_node24"><a xlink:href="_i_b_8_h.html" target="_top" xlink:title=" ">
<polygon fill="white" stroke="red" points="705.5,-168.5 705.5,-187.5 742.5,-187.5 742.5,-168.5 705.5,-168.5"/>
<text text-anchor="middle" x="724" y="-175.5" font-family="Helvetica,sans-Serif" font-size="10.00">IB.H</text>
</a>
</g>
</g>
<!-- Node182&#45;&gt;Node188 -->
<g id="edge32" class="edge">
<title>Node182&#45;&gt;Node188</title>
<path fill="none" stroke="midnightblue" d="M1477.41,-231.92C1337.49,-228.15 892.91,-214.34 752,-188 748.89,-187.42 745.64,-186.59 742.51,-185.67"/>
<polygon fill="midnightblue" stroke="midnightblue" points="1477.62,-235.43 1487.71,-232.19 1477.81,-228.43 1477.62,-235.43"/>
</g>
<!-- Node189 -->
<g id="node25" class="node">
<title>Node189</title>
<g id="a_node25"><a xlink:href="_boussinesq_bubble_8_h.html" target="_top" xlink:title=" ">
<polygon fill="white" stroke="red" points="761,-168.5 761,-187.5 877,-187.5 877,-168.5 761,-168.5"/>
<text text-anchor="middle" x="819" y="-175.5" font-family="Helvetica,sans-Serif" font-size="10.00">BoussinesqBubble.H</text>
</a>
</g>
</g>
<!-- Node182&#45;&gt;Node189 -->
<g id="edge34" class="edge">
<title>Node182&#45;&gt;Node189</title>
<path fill="none" stroke="midnightblue" d="M1477.82,-230.89C1376.06,-225.6 1109.05,-210.57 887,-188 883.8,-187.67 880.52,-187.32 877.21,-186.94"/>
<polygon fill="midnightblue" stroke="midnightblue" points="1477.83,-234.39 1487.99,-231.41 1478.19,-227.4 1477.83,-234.39"/>
</g>
<!-- Node190 -->
<g id="node26" class="node">
<title>Node190</title>
<g id="a_node26"><a xlink:href="_free_stream_8_h.html" target="_top" xlink:title=" ">
<polygon fill="white" stroke="red" points="1901.5,-168.5 1901.5,-187.5 1984.5,-187.5 1984.5,-168.5 1901.5,-168.5"/>
<text text-anchor="middle" x="1943" y="-175.5" font-family="Helvetica,sans-Serif" font-size="10.00">FreeStream.H</text>
</a>
</g>
</g>
<!-- Node182&#45;&gt;Node190 -->
<g id="edge37" class="edge">
<title>Node182&#45;&gt;Node190</title>
<path fill="none" stroke="midnightblue" d="M1562.5,-228.62C1631.69,-221.31 1772.96,-205.69 1892,-188 1895.02,-187.55 1898.14,-187.06 1901.28,-186.55"/>
<polygon fill="midnightblue" stroke="midnightblue" points="1562,-225.15 1552.42,-229.68 1562.73,-232.11 1562,-225.15"/>
</g>
<!-- Node191 -->
<g id="node27" class="node">
<title>Node191</title>
<g id="a_node27"><a xlink:href="_dam_break_8_h.html" target="_top" xlink:title=" ">
<polygon fill="white" stroke="red" points="895.5,-168.5 895.5,-187.5 974.5,-187.5 974.5,-168.5 895.5,-168.5"/>
<text text-anchor="middle" x="935" y="-175.5" font-family="Helvetica,sans-Serif" font-size="10.00">DamBreak.H</text>
</a>
</g>
</g>
<!-- Node182&#45;&gt;Node191 -->
<g id="edge40" class="edge">
<title>Node182&#45;&gt;Node191</title>
<path fill="none" stroke="midnightblue" d="M1477.7,-230.86C1386.96,-225.96 1166.97,-212.42 984,-188 980.91,-187.59 977.73,-187.11 974.53,-186.6"/>
<polygon fill="midnightblue" stroke="midnightblue" points="1477.69,-234.36 1487.86,-231.4 1478.06,-227.37 1477.69,-234.36"/>
</g>
<!-- Node192 -->
<g id="node28" class="node">
<title>Node192</title>
<g id="a_node28"><a xlink:href="_rain_drop_8_h.html" target="_top" xlink:title=" ">
<polygon fill="white" stroke="red" points="993,-168.5 993,-187.5 1065,-187.5 1065,-168.5 993,-168.5"/>
<text text-anchor="middle" x="1029" y="-175.5" font-family="Helvetica,sans-Serif" font-size="10.00">RainDrop.H</text>
</a>
</g>
</g>
<!-- Node182&#45;&gt;Node192 -->
<g id="edge41" class="edge">
<title>Node182&#45;&gt;Node192</title>
<path fill="none" stroke="midnightblue" d="M1477.68,-230.03C1398.4,-224.18 1222.21,-209.8 1075,-188 1071.78,-187.52 1068.44,-186.98 1065.1,-186.39"/>
<polygon fill="midnightblue" stroke="midnightblue" points="1477.54,-233.53 1487.76,-230.77 1478.05,-226.55 1477.54,-233.53"/>
</g>
<!-- Node193 -->
<g id="node29" class="node">
<title>Node193</title>
<g id="a_node29"><a xlink:href="_sloshing_tank_8_h.html" target="_top" xlink:title=" ">
<polygon fill="white" stroke="red" points="1083.5,-168.5 1083.5,-187.5 1174.5,-187.5 1174.5,-168.5 1083.5,-168.5"/>
<text text-anchor="middle" x="1129" y="-175.5" font-family="Helvetica,sans-Serif" font-size="10.00">SloshingTank.H</text>
</a>
</g>
</g>
<!-- Node182&#45;&gt;Node193 -->
<g id="edge42" class="edge">
<title>Node182&#45;&gt;Node193</title>
<path fill="none" stroke="midnightblue" d="M1477.94,-227.77C1414.25,-219.75 1289.6,-203.71 1184,-188 1180.94,-187.54 1177.78,-187.06 1174.6,-186.57"/>
<polygon fill="midnightblue" stroke="midnightblue" points="1477.63,-231.25 1487.99,-229.03 1478.5,-224.31 1477.63,-231.25"/>
</g>
<!-- Node194 -->
<g id="node30" class="node">
<title>Node194</title>
<g id="a_node30"><a xlink:href="_vortex_patch_8_h.html" target="_top" xlink:title=" ">
<polygon fill="white" stroke="red" points="1192.5,-168.5 1192.5,-187.5 1277.5,-187.5 1277.5,-168.5 1192.5,-168.5"/>
<text text-anchor="middle" x="1235" y="-175.5" font-family="Helvetica,sans-Serif" font-size="10.00">VortexPatch.H</text>
</a>
</g>
</g>
<!-- Node182&#45;&gt;Node194 -->
<g id="edge43" class="edge">
<title>Node182&#45;&gt;Node194</title>
<path fill="none" stroke="midnightblue" d="M1477.98,-225.04C1424.24,-214.86 1331.69,-197.32 1277.66,-187.08"/>
<polygon fill="midnightblue" stroke="midnightblue" points="1477.38,-228.49 1487.86,-226.91 1478.69,-221.61 1477.38,-228.49"/>
</g>
<!-- Node195 -->
<g id="node31" class="node">
<title>Node195</title>
<g id="a_node31"><a xlink:href="_n_w_b_8_h.html" target="_top" xlink:title=" ">
<polygon fill="white" stroke="red" points="1295.5,-168.5 1295.5,-187.5 1346.5,-187.5 1346.5,-168.5 1295.5,-168.5"/>
<text text-anchor="middle" x="1321" y="-175.5" font-family="Helvetica,sans-Serif" font-size="10.00">NWB.H</text>
</a>
</g>
</g>
<!-- Node182&#45;&gt;Node195 -->
<g id="edge44" class="edge">
<title>Node182&#45;&gt;Node195</title>
<path fill="none" stroke="midnightblue" d="M1478.8,-221.82C1439.07,-211.04 1380.15,-195.05 1346.69,-185.97"/>
<polygon fill="midnightblue" stroke="midnightblue" points="1477.9,-225.2 1488.47,-224.44 1479.73,-218.45 1477.9,-225.2"/>
</g>
<!-- Node196 -->
<g id="node32" class="node">
<title>Node196</title>
<g id="a_node32"><a xlink:href="_zalesak_disk_8_h.html" target="_top" xlink:title=" ">
<polygon fill="white" stroke="red" points="1365,-168.5 1365,-187.5 1453,-187.5 1453,-168.5 1365,-168.5"/>
<text text-anchor="middle" x="1409" y="-175.5" font-family="Helvetica,sans-Serif" font-size="10.00">ZalesakDisk.H</text>
</a>
</g>
</g>
<!-- Node182&#45;&gt;Node196 -->
<g id="edge45" class="edge">
<title>Node182&#45;&gt;Node196</title>
<path fill="none" stroke="midnightblue" d="M1492.99,-219.86C1472.41,-209.85 1444.66,-196.35 1426.79,-187.65"/>
<polygon fill="midnightblue" stroke="midnightblue" points="1491.64,-223.1 1502.17,-224.32 1494.7,-216.8 1491.64,-223.1"/>
</g>
<!-- Node197 -->
<g id="node33" class="node">
<title>Node197</title>
<g id="a_node33"><a xlink:href="_rayleigh_taylor_8_h.html" target="_top" xlink:title=" ">
<polygon fill="white" stroke="red" points="1471,-168.5 1471,-187.5 1569,-187.5 1569,-168.5 1471,-168.5"/>
<text text-anchor="middle" x="1520" y="-175.5" font-family="Helvetica,sans-Serif" font-size="10.00">RayleighTaylor.H</text>
</a>
</g>
</g>
<!-- Node182&#45;&gt;Node197 -->
<g id="edge46" class="edge">
<title>Node182&#45;&gt;Node197</title>
<path fill="none" stroke="midnightblue" d="M1520,-213.8C1520,-204.91 1520,-194.78 1520,-187.75"/>
<polygon fill="midnightblue" stroke="midnightblue" points="1516.5,-214.08 1520,-224.08 1523.5,-214.08 1516.5,-214.08"/>
</g>
<!-- Node200&#45;&gt;Node7 -->
<g id="edge48" class="edge">
<title>Node200&#45;&gt;Node7</title>
<path fill="none" stroke="midnightblue" d="M1991.06,-222.52C2042.91,-212.48 2112.71,-197.51 2122,-188 2169,-139.89 2163.98,-48.53 2161.06,-19.84"/>
<polygon fill="midnightblue" stroke="midnightblue" points="1990.11,-219.14 1980.95,-224.46 1991.43,-226.01 1990.11,-219.14"/>
</g>
<!-- Node200&#45;&gt;Node8 -->
<g id="edge49" class="edge">
<title>Node200&#45;&gt;Node8</title>
<path fill="none" stroke="midnightblue" d="M1963.01,-220.37C1986.23,-210.26 2018.16,-196.35 2038.44,-187.52"/>
<polygon fill="midnightblue" stroke="midnightblue" points="1961.42,-217.24 1953.65,-224.44 1964.21,-223.66 1961.42,-217.24"/>
</g>
<!-- Node201&#45;&gt;Node7 -->
<g id="edge51" class="edge">
<title>Node201&#45;&gt;Node7</title>
<path fill="none" stroke="midnightblue" d="M2109.29,-221.09C2126.75,-214.36 2144.49,-203.96 2155,-188 2191.01,-133.31 2170.56,-47.1 2162.67,-19.68"/>
<polygon fill="midnightblue" stroke="midnightblue" points="2107.95,-217.85 2099.67,-224.47 2110.26,-224.46 2107.95,-217.85"/>
</g>
<!-- Node201&#45;&gt;Node8 -->
<g id="edge52" class="edge">
<title>Node201&#45;&gt;Node8</title>
<path fill="none" stroke="midnightblue" d="M2058,-213.8C2058,-204.91 2058,-194.78 2058,-187.75"/>
<polygon fill="midnightblue" stroke="midnightblue" points="2054.5,-214.08 2058,-224.08 2061.5,-214.08 2054.5,-214.08"/>
</g>
<!-- Node201&#45;&gt;Node203 -->
<g id="edge53" class="edge">
<title>Node201&#45;&gt;Node203</title>
<path fill="none" stroke="midnightblue" d="M2099.37,-221.83C2137.14,-211.63 2192.14,-196.78 2226.46,-187.52"/>
<polygon fill="midnightblue" stroke="midnightblue" points="2098.43,-218.46 2089.69,-224.44 2100.26,-225.22 2098.43,-218.46"/>
</g>
<!-- Node206&#45;&gt;Node7 -->
<g id="edge55" class="edge">
<title>Node206&#45;&gt;Node7</title>
<path fill="none" stroke="midnightblue" d="M2540.23,-57.24C2443.68,-45.5 2263.99,-23.65 2191.51,-14.83"/>
<polygon fill="midnightblue" stroke="midnightblue" points="2540.09,-60.75 2550.44,-58.49 2540.94,-53.8 2540.09,-60.75"/>
</g>
<!-- Node231&#45;&gt;Node7 -->
<g id="edge66" class="edge">
<title>Node231&#45;&gt;Node7</title>
<path fill="none" stroke="midnightblue" d="M2836.19,-59.95C2679.17,-48.58 2303.19,-21.37 2191.69,-13.29"/>
<polygon fill="midnightblue" stroke="midnightblue" points="2835.99,-63.44 2846.21,-60.67 2836.49,-56.46 2835.99,-63.44"/>
</g>
<!-- Node246&#45;&gt;Node190 -->
<g id="edge68" class="edge">
<title>Node246&#45;&gt;Node190</title>
<path fill="none" stroke="midnightblue" d="M1863.06,-219.73C1882.68,-209.73 1909.03,-196.31 1926.01,-187.65"/>
<polygon fill="midnightblue" stroke="midnightblue" points="1861.35,-216.67 1854.03,-224.32 1864.53,-222.9 1861.35,-216.67"/>
</g>
</g>
</svg>
