<?xml version="1.0" encoding="UTF-8" standalone="no"?>
<!DOCTYPE svg PUBLIC "-//W3C//DTD SVG 1.1//EN"
 "http://www.w3.org/Graphics/SVG/1.1/DTD/svg11.dtd">
<!-- Generated by graphviz version 2.43.0 (0)
 -->
<!-- Title: Field.cpp Pages: 1 -->
<!--zoomable 263 -->
<svg id="main" version="1.1" xmlns="http://www.w3.org/2000/svg" xmlns:xlink="http://www.w3.org/1999/xlink" xml:space="preserve" onload="init(evt)">
<style type="text/css"><![CDATA[
.edge:hover path { stroke: red; }
.edge:hover polygon { stroke: red; fill: red; }
]]></style>
<script type="text/javascript"><![CDATA[
var edges = document.getElementsByTagName('g');
if (edges && edges.length) {
  for (var i=0;i<edges.length;i++) {
    if (edges[i].id.substr(0,4)=='edge') {
      edges[i].setAttribute('class','edge');
    }
  }
}
]]></script>
        <defs>
                <circle id="rim" cx="0" cy="0" r="7"/>
                <circle id="rim2" cx="0" cy="0" r="3.5"/>
                <g id="zoomPlus">
                        <use xlink:href="#rim" fill="#404040">
                                <set attributeName="fill" to="#808080" begin="zoomplus.mouseover" end="zoomplus.mouseout"/>
                        </use>
                        <path d="M-4,0h8M0,-4v8" fill="none" stroke="white" stroke-width="1.5" pointer-events="none"/>
                </g>
                <g id="zoomMin">
                        <use xlink:href="#rim" fill="#404040">
                                <set attributeName="fill" to="#808080" begin="zoomminus.mouseover" end="zoomminus.mouseout"/>
                        </use>
                        <path d="M-4,0h8" fill="none" stroke="white" stroke-width="1.5" pointer-events="none"/>
                </g>
                <g id="dirArrow">
                        <path fill="none" stroke="white" stroke-width="1.5" d="M0,-3.0v7 M-2.5,-0.5L0,-3.0L2.5,-0.5"/>
                </g>
               <g id="resetDef">
                       <use xlink:href="#rim2" fill="#404040">
                               <set attributeName="fill" to="#808080" begin="reset.mouseover" end="reset.mouseout"/>
                       </use>
               </g>
        </defs>

<script type="text/javascript">
var viewWidth = 2246;
var viewHeight = 263;
var sectionId = 'dynsection-0';
</script>
<script xlink:href="svgpan.js"/>
<svg id="graph" class="graph">
<g id="viewport">
<title>Field.cpp</title>
<polygon fill="white" stroke="transparent" points="-4,4 -4,-259 2241.69,-259 2241.69,4 -4,4"/>
<!-- Node1 -->
<g id="node1" class="node">
<title>Node1</title>
<g id="a_node1"><a xlink:title=" ">
<polygon fill="#bfbfbf" stroke="black" points="1443.69,-235.5 1443.69,-254.5 1503.69,-254.5 1503.69,-235.5 1443.69,-235.5"/>
<text text-anchor="middle" x="1473.69" y="-242.5" font-family="Helvetica,sans-Serif" font-size="10.00">Field.cpp</text>
</a>
</g>
</g>
<!-- Node2 -->
<g id="node2" class="node">
<title>Node2</title>
<g id="a_node2"><a xlink:title=" ">
<polygon fill="white" stroke="#bfbfbf" points="2124.19,-112.5 2124.19,-131.5 2169.19,-131.5 2169.19,-112.5 2124.19,-112.5"/>
<text text-anchor="middle" x="2146.69" y="-119.5" font-family="Helvetica,sans-Serif" font-size="10.00">utility</text>
</a>
</g>
</g>
<!-- Node1&#45;&gt;Node2 -->
<g id="edge1" class="edge">
<title>Node1&#45;&gt;Node2</title>
<path fill="none" stroke="midnightblue" d="M1503.88,-242.64C1573.07,-239.11 1748.22,-227.85 1891.69,-199 1973.5,-182.55 2066.83,-151.47 2114.68,-134.6"/>
<polygon fill="midnightblue" stroke="midnightblue" points="2115.93,-137.87 2124.18,-131.23 2113.59,-131.28 2115.93,-137.87"/>
</g>
<!-- Node3 -->
<g id="node3" class="node">
<title>Node3</title>
<g id="a_node3"><a xlink:href="_field_8_h.html" target="_top" xlink:title=" ">
<polygon fill="white" stroke="black" points="1248.69,-112.5 1248.69,-131.5 1372.69,-131.5 1372.69,-112.5 1248.69,-112.5"/>
<text text-anchor="middle" x="1310.69" y="-119.5" font-family="Helvetica,sans-Serif" font-size="10.00">amr&#45;wind/core/Field.H</text>
</a>
</g>
</g>
<!-- Node1&#45;&gt;Node3 -->
<g id="edge2" class="edge">
<title>Node1&#45;&gt;Node3</title>
<path fill="none" stroke="midnightblue" d="M1452.97,-235.47C1434.66,-227.43 1407.69,-214.36 1386.69,-199 1362.57,-181.37 1338.9,-156.07 1324.54,-139.58"/>
<polygon fill="midnightblue" stroke="midnightblue" points="1327.09,-137.18 1317.93,-131.86 1321.77,-141.73 1327.09,-137.18"/>
</g>
<!-- Node15 -->
<g id="node15" class="node">
<title>Node15</title>
<g id="a_node15"><a xlink:href="_field_repo_8_h.html" target="_top" xlink:title=" ">
<polygon fill="white" stroke="black" points="477.19,-174 477.19,-193 626.19,-193 626.19,-174 477.19,-174"/>
<text text-anchor="middle" x="551.69" y="-181" font-family="Helvetica,sans-Serif" font-size="10.00">amr&#45;wind/core/FieldRepo.H</text>
</a>
</g>
</g>
<!-- Node1&#45;&gt;Node15 -->
<g id="edge17" class="edge">
<title>Node1&#45;&gt;Node15</title>
<path fill="none" stroke="midnightblue" d="M1443.53,-242.05C1318.01,-233.95 834.24,-202.73 636.57,-189.98"/>
<polygon fill="midnightblue" stroke="midnightblue" points="636.73,-186.48 626.52,-189.33 636.28,-193.47 636.73,-186.48"/>
</g>
<!-- Node23 -->
<g id="node23" class="node">
<title>Node23</title>
<g id="a_node23"><a xlink:href="_field_fill_patch_ops_8_h.html" target="_top" xlink:title=" ">
<polygon fill="white" stroke="black" points="1036.69,-168.5 1036.69,-198.5 1190.69,-198.5 1190.69,-168.5 1036.69,-168.5"/>
<text text-anchor="start" x="1044.69" y="-186.5" font-family="Helvetica,sans-Serif" font-size="10.00">amr&#45;wind/core/FieldFillPatch</text>
<text text-anchor="middle" x="1113.69" y="-175.5" font-family="Helvetica,sans-Serif" font-size="10.00">Ops.H</text>
</a>
</g>
</g>
<!-- Node1&#45;&gt;Node23 -->
<g id="edge40" class="edge">
<title>Node1&#45;&gt;Node23</title>
<path fill="none" stroke="midnightblue" d="M1443.61,-239.03C1390.78,-230.3 1279.46,-211.9 1200.77,-198.89"/>
<polygon fill="midnightblue" stroke="midnightblue" points="1201.3,-195.43 1190.86,-197.26 1200.16,-202.34 1201.3,-195.43"/>
</g>
<!-- Node24 -->
<g id="node24" class="node">
<title>Node24</title>
<g id="a_node24"><a xlink:href="_sim_time_8_h.html" target="_top" xlink:title=" ">
<polygon fill="white" stroke="black" points="1827.69,-112.5 1827.69,-131.5 1971.69,-131.5 1971.69,-112.5 1827.69,-112.5"/>
<text text-anchor="middle" x="1899.69" y="-119.5" font-family="Helvetica,sans-Serif" font-size="10.00">amr&#45;wind/core/SimTime.H</text>
</a>
</g>
</g>
<!-- Node1&#45;&gt;Node24 -->
<g id="edge60" class="edge">
<title>Node1&#45;&gt;Node24</title>
<path fill="none" stroke="midnightblue" d="M1497.63,-235.43C1539.62,-220.58 1629.43,-189.56 1706.69,-168 1754.29,-154.71 1809.25,-142.17 1848.31,-133.71"/>
<polygon fill="midnightblue" stroke="midnightblue" points="1849.35,-137.07 1858.39,-131.55 1847.87,-130.23 1849.35,-137.07"/>
</g>
<!-- Node29 -->
<g id="node29" class="node">
<title>Node29</title>
<g id="a_node29"><a xlink:href="_field_b_c_ops_8_h.html" target="_top" xlink:title=" ">
<polygon fill="white" stroke="black" points="1395.69,-174 1395.69,-193 1551.69,-193 1551.69,-174 1395.69,-174"/>
<text text-anchor="middle" x="1473.69" y="-181" font-family="Helvetica,sans-Serif" font-size="10.00">amr&#45;wind/core/FieldBCOps.H</text>
</a>
</g>
</g>
<!-- Node1&#45;&gt;Node29 -->
<g id="edge53" class="edge">
<title>Node1&#45;&gt;Node29</title>
<path fill="none" stroke="midnightblue" d="M1473.69,-235.48C1473.69,-227.08 1473.69,-213.98 1473.69,-203.16"/>
<polygon fill="midnightblue" stroke="midnightblue" points="1477.19,-203.01 1473.69,-193.01 1470.19,-203.01 1477.19,-203.01"/>
</g>
<!-- Node32 -->
<g id="node32" class="node">
<title>Node32</title>
<g id="a_node32"><a xlink:href="_b_c_interface_8_h.html" target="_top" xlink:title=" ">
<polygon fill="white" stroke="black" points="1716.19,-168.5 1716.19,-198.5 1883.19,-198.5 1883.19,-168.5 1716.19,-168.5"/>
<text text-anchor="start" x="1724.19" y="-186.5" font-family="Helvetica,sans-Serif" font-size="10.00">amr&#45;wind/boundary_conditions</text>
<text text-anchor="middle" x="1799.69" y="-175.5" font-family="Helvetica,sans-Serif" font-size="10.00">/BCInterface.H</text>
</a>
</g>
</g>
<!-- Node1&#45;&gt;Node32 -->
<g id="edge61" class="edge">
<title>Node1&#45;&gt;Node32</title>
<path fill="none" stroke="midnightblue" d="M1503.77,-238.51C1550.8,-229.93 1643.49,-213.01 1712.66,-200.38"/>
<polygon fill="midnightblue" stroke="midnightblue" points="1713.48,-203.79 1722.69,-198.55 1712.22,-196.91 1713.48,-203.79"/>
</g>
<!-- Node4 -->
<g id="node4" class="node">
<title>Node4</title>
<g id="a_node4"><a xlink:title=" ">
<polygon fill="white" stroke="#bfbfbf" points="206.69,-0.5 206.69,-19.5 250.69,-19.5 250.69,-0.5 206.69,-0.5"/>
<text text-anchor="middle" x="228.69" y="-7.5" font-family="Helvetica,sans-Serif" font-size="10.00">string</text>
</a>
</g>
</g>
<!-- Node3&#45;&gt;Node4 -->
<g id="edge3" class="edge">
<title>Node3&#45;&gt;Node4</title>
<path fill="none" stroke="midnightblue" d="M1248.32,-118.03C1211,-116.26 1162.63,-113.98 1119.69,-112 1031.25,-107.92 407.65,-104.07 323.69,-76 293.07,-65.76 263.26,-42.56 245.43,-26.83"/>
<polygon fill="midnightblue" stroke="midnightblue" points="247.45,-23.93 237.69,-19.8 242.74,-29.12 247.45,-23.93"/>
</g>
<!-- Node5 -->
<g id="node5" class="node">
<title>Node5</title>
<g id="a_node5"><a xlink:title=" ">
<polygon fill="white" stroke="#bfbfbf" points="1281.69,-56.5 1281.69,-75.5 1339.69,-75.5 1339.69,-56.5 1281.69,-56.5"/>
<text text-anchor="middle" x="1310.69" y="-63.5" font-family="Helvetica,sans-Serif" font-size="10.00">memory</text>
</a>
</g>
</g>
<!-- Node3&#45;&gt;Node5 -->
<g id="edge4" class="edge">
<title>Node3&#45;&gt;Node5</title>
<path fill="none" stroke="midnightblue" d="M1310.69,-112.08C1310.69,-105.01 1310.69,-94.86 1310.69,-85.99"/>
<polygon fill="midnightblue" stroke="midnightblue" points="1314.19,-85.75 1310.69,-75.75 1307.19,-85.75 1314.19,-85.75"/>
</g>
<!-- Node6 -->
<g id="node6" class="node">
<title>Node6</title>
<g id="a_node6"><a xlink:title=" ">
<polygon fill="white" stroke="#bfbfbf" points="1056.19,-56.5 1056.19,-75.5 1149.19,-75.5 1149.19,-56.5 1056.19,-56.5"/>
<text text-anchor="middle" x="1102.69" y="-63.5" font-family="Helvetica,sans-Serif" font-size="10.00">unordered_map</text>
</a>
</g>
</g>
<!-- Node3&#45;&gt;Node6 -->
<g id="edge5" class="edge">
<title>Node3&#45;&gt;Node6</title>
<path fill="none" stroke="midnightblue" d="M1277.73,-112.44C1241.9,-103.14 1184.52,-88.25 1145.3,-78.06"/>
<polygon fill="midnightblue" stroke="midnightblue" points="1146.05,-74.64 1135.49,-75.52 1144.29,-81.42 1146.05,-74.64"/>
</g>
<!-- Node7 -->
<g id="node7" class="node">
<title>Node7</title>
<g id="a_node7"><a xlink:title=" ">
<polygon fill="white" stroke="#bfbfbf" points="1357.69,-56.5 1357.69,-75.5 1421.69,-75.5 1421.69,-56.5 1357.69,-56.5"/>
<text text-anchor="middle" x="1389.69" y="-63.5" font-family="Helvetica,sans-Serif" font-size="10.00">algorithm</text>
</a>
</g>
</g>
<!-- Node3&#45;&gt;Node7 -->
<g id="edge6" class="edge">
<title>Node3&#45;&gt;Node7</title>
<path fill="none" stroke="midnightblue" d="M1323.38,-112.32C1335.59,-103.98 1354.26,-91.21 1368.69,-81.35"/>
<polygon fill="midnightblue" stroke="midnightblue" points="1370.74,-84.19 1377.02,-75.65 1366.79,-78.41 1370.74,-84.19"/>
</g>
<!-- Node8 -->
<g id="node8" class="node">
<title>Node8</title>
<g id="a_node8"><a xlink:title=" ">
<polygon fill="white" stroke="#bfbfbf" points="481.19,-0.5 481.19,-19.5 590.19,-19.5 590.19,-0.5 481.19,-0.5"/>
<text text-anchor="middle" x="535.69" y="-7.5" font-family="Helvetica,sans-Serif" font-size="10.00">AMReX_MultiFab.H</text>
</a>
</g>
</g>
<!-- Node3&#45;&gt;Node8 -->
<g id="edge7" class="edge">
<title>Node3&#45;&gt;Node8</title>
<path fill="none" stroke="midnightblue" d="M1295.2,-112.37C1268.22,-97.82 1210.43,-68.74 1157.69,-56 1104.63,-43.19 749.19,-22.64 600.69,-14.49"/>
<polygon fill="midnightblue" stroke="midnightblue" points="600.54,-10.98 590.36,-13.92 600.16,-17.97 600.54,-10.98"/>
</g>
<!-- Node9 -->
<g id="node9" class="node">
<title>Node9</title>
<g id="a_node9"><a xlink:title=" ">
<polygon fill="white" stroke="#bfbfbf" points="1440.19,-56.5 1440.19,-75.5 1539.19,-75.5 1539.19,-56.5 1440.19,-56.5"/>
<text text-anchor="middle" x="1489.69" y="-63.5" font-family="Helvetica,sans-Serif" font-size="10.00">AMReX_BCRec.H</text>
</a>
</g>
</g>
<!-- Node3&#45;&gt;Node9 -->
<g id="edge8" class="edge">
<title>Node3&#45;&gt;Node9</title>
<path fill="none" stroke="midnightblue" d="M1339.05,-112.44C1369.42,-103.28 1417.8,-88.69 1451.5,-78.52"/>
<polygon fill="midnightblue" stroke="midnightblue" points="1452.89,-81.76 1461.46,-75.52 1450.87,-75.05 1452.89,-81.76"/>
</g>
<!-- Node10 -->
<g id="node10" class="node">
<title>Node10</title>
<g id="a_node10"><a xlink:title=" ">
<polygon fill="white" stroke="#bfbfbf" points="1557.19,-56.5 1557.19,-75.5 1644.19,-75.5 1644.19,-56.5 1557.19,-56.5"/>
<text text-anchor="middle" x="1600.69" y="-63.5" font-family="Helvetica,sans-Serif" font-size="10.00">AMReX_Gpu.H</text>
</a>
</g>
</g>
<!-- Node3&#45;&gt;Node10 -->
<g id="edge9" class="edge">
<title>Node3&#45;&gt;Node10</title>
<path fill="none" stroke="midnightblue" d="M1356.64,-112.44C1408.36,-102.81 1492.29,-87.18 1546.99,-77"/>
<polygon fill="midnightblue" stroke="midnightblue" points="1547.66,-80.43 1556.85,-75.16 1546.38,-73.55 1547.66,-80.43"/>
</g>
<!-- Node11 -->
<g id="node11" class="node">
<title>Node11</title>
<g id="a_node11"><a xlink:href="incflo__enums_8_h.html" target="_top" xlink:title=" ">
<polygon fill="white" stroke="black" points="1662.19,-56.5 1662.19,-75.5 1803.19,-75.5 1803.19,-56.5 1662.19,-56.5"/>
<text text-anchor="middle" x="1732.69" y="-63.5" font-family="Helvetica,sans-Serif" font-size="10.00">amr&#45;wind/incflo_enums.H</text>
</a>
</g>
</g>
<!-- Node3&#45;&gt;Node11 -->
<g id="edge10" class="edge">
<title>Node3&#45;&gt;Node11</title>
<path fill="none" stroke="midnightblue" d="M1372.95,-113.03C1448.15,-103.41 1574.62,-87.23 1655.82,-76.84"/>
<polygon fill="midnightblue" stroke="midnightblue" points="1656.5,-80.28 1665.98,-75.54 1655.62,-73.33 1656.5,-80.28"/>
</g>
<!-- Node12 -->
<g id="node12" class="node">
<title>Node12</title>
<g id="a_node12"><a xlink:href="_field_desc_types_8_h.html" target="_top" xlink:title=" ">
<polygon fill="white" stroke="black" points="712.69,-0.5 712.69,-19.5 888.69,-19.5 888.69,-0.5 712.69,-0.5"/>
<text text-anchor="middle" x="800.69" y="-7.5" font-family="Helvetica,sans-Serif" font-size="10.00">amr&#45;wind/core/FieldDescTypes.H</text>
</a>
</g>
</g>
<!-- Node3&#45;&gt;Node12 -->
<g id="edge11" class="edge">
<title>Node3&#45;&gt;Node12</title>
<path fill="none" stroke="midnightblue" d="M1303.21,-112.41C1290.02,-97.91 1261.03,-68.9 1229.69,-56 1171.82,-32.19 1006.7,-20.29 899.01,-14.9"/>
<polygon fill="midnightblue" stroke="midnightblue" points="898.93,-11.39 888.77,-14.39 898.59,-18.38 898.93,-11.39"/>
</g>
<!-- Node13 -->
<g id="node13" class="node">
<title>Node13</title>
<g id="a_node13"><a xlink:href="_view_field_8_h.html" target="_top" xlink:title=" ">
<polygon fill="white" stroke="black" points="332.69,-56.5 332.69,-75.5 480.69,-75.5 480.69,-56.5 332.69,-56.5"/>
<text text-anchor="middle" x="406.69" y="-63.5" font-family="Helvetica,sans-Serif" font-size="10.00">amr&#45;wind/core/ViewField.H</text>
</a>
</g>
</g>
<!-- Node3&#45;&gt;Node13 -->
<g id="edge12" class="edge">
<title>Node3&#45;&gt;Node13</title>
<path fill="none" stroke="midnightblue" d="M1248.55,-117.29C1090.17,-107.83 671.17,-82.8 491,-72.04"/>
<polygon fill="midnightblue" stroke="midnightblue" points="490.97,-68.53 480.78,-71.43 490.55,-75.52 490.97,-68.53"/>
</g>
<!-- Node13&#45;&gt;Node4 -->
<g id="edge13" class="edge">
<title>Node13&#45;&gt;Node4</title>
<path fill="none" stroke="midnightblue" d="M378.48,-56.44C346.41,-46.71 294.16,-30.86 260.62,-20.69"/>
<polygon fill="midnightblue" stroke="midnightblue" points="261.44,-17.28 250.85,-17.73 259.41,-23.98 261.44,-17.28"/>
</g>
<!-- Node13&#45;&gt;Node8 -->
<g id="edge15" class="edge">
<title>Node13&#45;&gt;Node8</title>
<path fill="none" stroke="midnightblue" d="M427.13,-56.44C448.36,-47.56 481.79,-33.56 505.94,-23.45"/>
<polygon fill="midnightblue" stroke="midnightblue" points="507.47,-26.61 515.34,-19.52 504.77,-20.15 507.47,-26.61"/>
</g>
<!-- Node13&#45;&gt;Node12 -->
<g id="edge14" class="edge">
<title>Node13&#45;&gt;Node12</title>
<path fill="none" stroke="midnightblue" d="M469.12,-56.44C539.58,-46.79 654.04,-31.1 728.34,-20.92"/>
<polygon fill="midnightblue" stroke="midnightblue" points="729.12,-24.34 738.55,-19.52 728.17,-17.41 729.12,-24.34"/>
</g>
<!-- Node14 -->
<g id="node14" class="node">
<title>Node14</title>
<g id="a_node14"><a xlink:title=" ">
<polygon fill="white" stroke="#bfbfbf" points="330.69,-0.5 330.69,-19.5 428.69,-19.5 428.69,-0.5 330.69,-0.5"/>
<text text-anchor="middle" x="379.69" y="-7.5" font-family="Helvetica,sans-Serif" font-size="10.00">AMReX_Vector.H</text>
</a>
</g>
</g>
<!-- Node13&#45;&gt;Node14 -->
<g id="edge16" class="edge">
<title>Node13&#45;&gt;Node14</title>
<path fill="none" stroke="midnightblue" d="M402.23,-56.08C398.53,-48.69 393.16,-37.95 388.59,-28.81"/>
<polygon fill="midnightblue" stroke="midnightblue" points="391.66,-27.13 384.06,-19.75 385.4,-30.26 391.66,-27.13"/>
</g>
<!-- Node15&#45;&gt;Node3 -->
<g id="edge25" class="edge">
<title>Node15&#45;&gt;Node3</title>
<path fill="none" stroke="midnightblue" d="M626.19,-176.66C772.18,-165.21 1094.2,-139.97 1238.39,-128.67"/>
<polygon fill="midnightblue" stroke="midnightblue" points="1238.77,-132.15 1248.46,-127.88 1238.22,-125.17 1238.77,-132.15"/>
</g>
<!-- Node15&#45;&gt;Node4 -->
<g id="edge18" class="edge">
<title>Node15&#45;&gt;Node4</title>
<path fill="none" stroke="midnightblue" d="M477.03,-180.73C358.58,-176.94 133.61,-165.45 61.69,-132 29.2,-116.89 17.69,-108.98 3.69,-76 0.21,-67.82 -1.95,-62.87 3.69,-56 27.71,-26.7 140.28,-16.09 196.53,-12.58"/>
<polygon fill="midnightblue" stroke="midnightblue" points="196.89,-16.07 206.66,-11.99 196.48,-9.08 196.89,-16.07"/>
</g>
<!-- Node15&#45;&gt;Node6 -->
<g id="edge19" class="edge">
<title>Node15&#45;&gt;Node6</title>
<path fill="none" stroke="midnightblue" d="M626.23,-175.37C697.35,-167.72 807.19,-153.65 900.69,-132 961.93,-117.82 1031.28,-93.66 1070.72,-79.13"/>
<polygon fill="midnightblue" stroke="midnightblue" points="1072.16,-82.33 1080.31,-75.57 1069.72,-75.77 1072.16,-82.33"/>
</g>
<!-- Node15&#45;&gt;Node8 -->
<g id="edge38" class="edge">
<title>Node15&#45;&gt;Node8</title>
<path fill="none" stroke="midnightblue" d="M477.15,-177.57C437.39,-171.67 389.6,-158.99 354.69,-132 332.18,-114.6 330.8,-103.54 323.69,-76 321.46,-67.39 318.09,-62.91 323.69,-56 333.07,-44.41 412.18,-29.91 471.02,-20.56"/>
<polygon fill="midnightblue" stroke="midnightblue" points="471.68,-24 481.02,-18.98 470.59,-17.08 471.68,-24"/>
</g>
<!-- Node15&#45;&gt;Node12 -->
<g id="edge20" class="edge">
<title>Node15&#45;&gt;Node12</title>
<path fill="none" stroke="midnightblue" d="M551.72,-173.58C552.25,-158.99 555.31,-129.88 570.69,-112 614.76,-60.74 689.78,-34.53 742.12,-21.82"/>
<polygon fill="midnightblue" stroke="midnightblue" points="743,-25.21 751.94,-19.53 741.41,-18.39 743,-25.21"/>
</g>
<!-- Node16 -->
<g id="node16" class="node">
<title>Node16</title>
<g id="a_node16"><a xlink:href="_field_utils_8_h.html" target="_top" xlink:title=" ">
<polygon fill="white" stroke="black" points="745.69,-112.5 745.69,-131.5 891.69,-131.5 891.69,-112.5 745.69,-112.5"/>
<text text-anchor="middle" x="818.69" y="-119.5" font-family="Helvetica,sans-Serif" font-size="10.00">amr&#45;wind/core/FieldUtils.H</text>
</a>
</g>
</g>
<!-- Node15&#45;&gt;Node16 -->
<g id="edge21" class="edge">
<title>Node15&#45;&gt;Node16</title>
<path fill="none" stroke="midnightblue" d="M589.94,-173.98C637.53,-163.37 718.8,-145.26 770.56,-133.72"/>
<polygon fill="midnightblue" stroke="midnightblue" points="771.5,-137.1 780.5,-131.51 769.98,-130.27 771.5,-137.1"/>
</g>
<!-- Node18 -->
<g id="node18" class="node">
<title>Node18</title>
<g id="a_node18"><a xlink:href="_int_field_8_h.html" target="_top" xlink:title=" ">
<polygon fill="white" stroke="black" points="84.19,-112.5 84.19,-131.5 221.19,-131.5 221.19,-112.5 84.19,-112.5"/>
<text text-anchor="middle" x="152.69" y="-119.5" font-family="Helvetica,sans-Serif" font-size="10.00">amr&#45;wind/core/IntField.H</text>
</a>
</g>
</g>
<!-- Node15&#45;&gt;Node18 -->
<g id="edge26" class="edge">
<title>Node15&#45;&gt;Node18</title>
<path fill="none" stroke="midnightblue" d="M494.52,-173.98C421.93,-163.15 296.88,-144.5 219.83,-133.01"/>
<polygon fill="midnightblue" stroke="midnightblue" points="220.15,-129.52 209.75,-131.51 219.12,-136.45 220.15,-129.52"/>
</g>
<!-- Node19 -->
<g id="node19" class="node">
<title>Node19</title>
<g id="a_node19"><a xlink:title=" ">
<polygon fill="white" stroke="#bfbfbf" points="12.69,-56.5 12.69,-75.5 124.69,-75.5 124.69,-56.5 12.69,-56.5"/>
<text text-anchor="middle" x="68.69" y="-63.5" font-family="Helvetica,sans-Serif" font-size="10.00">AMReX_iMultiFab.H</text>
</a>
</g>
</g>
<!-- Node15&#45;&gt;Node19 -->
<g id="edge39" class="edge">
<title>Node15&#45;&gt;Node19</title>
<path fill="none" stroke="midnightblue" d="M476.95,-179.71C349.8,-174.22 102.36,-160.05 74.69,-132 62.89,-120.04 62.74,-100.14 64.71,-85.51"/>
<polygon fill="midnightblue" stroke="midnightblue" points="68.17,-86.01 66.47,-75.56 61.28,-84.79 68.17,-86.01"/>
</g>
<!-- Node20 -->
<g id="node20" class="node">
<title>Node20</title>
<g id="a_node20"><a xlink:href="_scratch_field_8_h.html" target="_top" xlink:title=" ">
<polygon fill="white" stroke="black" points="363.69,-112.5 363.69,-131.5 523.69,-131.5 523.69,-112.5 363.69,-112.5"/>
<text text-anchor="middle" x="443.69" y="-119.5" font-family="Helvetica,sans-Serif" font-size="10.00">amr&#45;wind/core/ScratchField.H</text>
</a>
</g>
</g>
<!-- Node15&#45;&gt;Node20 -->
<g id="edge30" class="edge">
<title>Node15&#45;&gt;Node20</title>
<path fill="none" stroke="midnightblue" d="M536.21,-173.98C518.41,-164.17 488.95,-147.93 468.05,-136.42"/>
<polygon fill="midnightblue" stroke="midnightblue" points="469.58,-133.27 459.13,-131.51 466.2,-139.4 469.58,-133.27"/>
</g>
<!-- Node22 -->
<g id="node22" class="node">
<title>Node22</title>
<g id="a_node22"><a xlink:title=" ">
<polygon fill="white" stroke="#bfbfbf" points="579.69,-112.5 579.69,-131.5 689.69,-131.5 689.69,-112.5 579.69,-112.5"/>
<text text-anchor="middle" x="634.69" y="-119.5" font-family="Helvetica,sans-Serif" font-size="10.00">AMReX_AmrCore.H</text>
</a>
</g>
</g>
<!-- Node15&#45;&gt;Node22 -->
<g id="edge37" class="edge">
<title>Node15&#45;&gt;Node22</title>
<path fill="none" stroke="midnightblue" d="M563.58,-173.98C576.89,-164.43 598.69,-148.81 614.64,-137.37"/>
<polygon fill="midnightblue" stroke="midnightblue" points="616.73,-140.18 622.82,-131.51 612.65,-134.49 616.73,-140.18"/>
</g>
<!-- Node16&#45;&gt;Node8 -->
<g id="edge23" class="edge">
<title>Node16&#45;&gt;Node8</title>
<path fill="none" stroke="midnightblue" d="M799.28,-112.47C778.92,-103.48 745.99,-88.89 717.69,-76 698.5,-67.27 694.3,-63.7 674.69,-56 641.78,-43.08 603.5,-30.89 575.45,-22.46"/>
<polygon fill="midnightblue" stroke="midnightblue" points="576.2,-19.03 565.61,-19.53 574.2,-25.74 576.2,-19.03"/>
</g>
<!-- Node16&#45;&gt;Node12 -->
<g id="edge22" class="edge">
<title>Node16&#45;&gt;Node12</title>
<path fill="none" stroke="midnightblue" d="M830.98,-112.3C846.55,-100.14 870.16,-77.16 859.69,-56 853.08,-42.66 840.42,-32.19 828.51,-24.73"/>
<polygon fill="midnightblue" stroke="midnightblue" points="830.08,-21.59 819.67,-19.6 826.57,-27.64 830.08,-21.59"/>
</g>
<!-- Node17 -->
<g id="node17" class="node">
<title>Node17</title>
<g id="a_node17"><a xlink:title=" ">
<polygon fill="white" stroke="#bfbfbf" points="726.69,-56.5 726.69,-75.5 850.69,-75.5 850.69,-56.5 726.69,-56.5"/>
<text text-anchor="middle" x="788.69" y="-63.5" font-family="Helvetica,sans-Serif" font-size="10.00">AMReX_Interpolater.H</text>
</a>
</g>
</g>
<!-- Node16&#45;&gt;Node17 -->
<g id="edge24" class="edge">
<title>Node16&#45;&gt;Node17</title>
<path fill="none" stroke="midnightblue" d="M813.73,-112.08C809.58,-104.61 803.53,-93.72 798.42,-84.52"/>
<polygon fill="midnightblue" stroke="midnightblue" points="801.46,-82.79 793.55,-75.75 795.34,-86.19 801.46,-82.79"/>
</g>
<!-- Node18&#45;&gt;Node4 -->
<g id="edge27" class="edge">
<title>Node18&#45;&gt;Node4</title>
<path fill="none" stroke="midnightblue" d="M154.42,-112.36C157.35,-99.26 164.22,-74 176.69,-56 184.86,-44.19 196.84,-33.54 207.24,-25.57"/>
<polygon fill="midnightblue" stroke="midnightblue" points="209.48,-28.27 215.48,-19.54 205.35,-22.62 209.48,-28.27"/>
</g>
<!-- Node18&#45;&gt;Node12 -->
<g id="edge28" class="edge">
<title>Node18&#45;&gt;Node12</title>
<path fill="none" stroke="midnightblue" d="M221.26,-114.72C289.69,-107.78 397.63,-95.01 489.69,-76 521.79,-69.37 528.77,-63.47 560.69,-56 620.22,-42.06 688.86,-29.54 737.44,-21.27"/>
<polygon fill="midnightblue" stroke="midnightblue" points="738.22,-24.69 747.49,-19.57 737.05,-17.79 738.22,-24.69"/>
</g>
<!-- Node18&#45;&gt;Node19 -->
<g id="edge29" class="edge">
<title>Node18&#45;&gt;Node19</title>
<path fill="none" stroke="midnightblue" d="M139.19,-112.32C126.09,-103.9 105.97,-90.97 90.58,-81.07"/>
<polygon fill="midnightblue" stroke="midnightblue" points="92.45,-78.12 82.15,-75.65 88.67,-84.01 92.45,-78.12"/>
</g>
<!-- Node20&#45;&gt;Node4 -->
<g id="edge31" class="edge">
<title>Node20&#45;&gt;Node4</title>
<path fill="none" stroke="midnightblue" d="M379.49,-112.5C331.63,-104.97 271.44,-92.59 252.69,-76 239.33,-64.19 233.4,-44.26 230.76,-29.58"/>
<polygon fill="midnightblue" stroke="midnightblue" points="234.22,-29 229.33,-19.6 227.29,-29.99 234.22,-29"/>
</g>
<!-- Node20&#45;&gt;Node8 -->
<g id="edge34" class="edge">
<title>Node20&#45;&gt;Node8</title>
<path fill="none" stroke="midnightblue" d="M453.35,-112.5C463.02,-103.78 478.09,-89.6 489.69,-76 502.68,-60.76 515.7,-41.96 524.55,-28.5"/>
<polygon fill="midnightblue" stroke="midnightblue" points="527.7,-30.07 530.2,-19.78 521.83,-26.27 527.7,-30.07"/>
</g>
<!-- Node20&#45;&gt;Node12 -->
<g id="edge32" class="edge">
<title>Node20&#45;&gt;Node12</title>
<path fill="none" stroke="midnightblue" d="M466.63,-112.39C490.27,-103.47 528.16,-89.03 560.69,-76 582.14,-67.41 586.69,-63.11 608.69,-56 653.69,-41.46 706.04,-29.51 744.7,-21.58"/>
<polygon fill="midnightblue" stroke="midnightblue" points="745.61,-24.97 754.72,-19.56 744.22,-18.11 745.61,-24.97"/>
</g>
<!-- Node20&#45;&gt;Node13 -->
<g id="edge33" class="edge">
<title>Node20&#45;&gt;Node13</title>
<path fill="none" stroke="midnightblue" d="M437.58,-112.08C432.4,-104.53 424.84,-93.49 418.49,-84.23"/>
<polygon fill="midnightblue" stroke="midnightblue" points="421.22,-82.02 412.68,-75.75 415.45,-85.98 421.22,-82.02"/>
</g>
<!-- Node20&#45;&gt;Node14 -->
<g id="edge35" class="edge">
<title>Node20&#45;&gt;Node14</title>
<path fill="none" stroke="midnightblue" d="M381.26,-112.45C359.36,-106.12 336.93,-95.11 323.69,-76 310.6,-57.12 333.59,-37.41 353.95,-24.71"/>
<polygon fill="midnightblue" stroke="midnightblue" points="355.85,-27.65 362.69,-19.56 352.3,-21.62 355.85,-27.65"/>
</g>
<!-- Node21 -->
<g id="node21" class="node">
<title>Node21</title>
<g id="a_node21"><a xlink:title=" ">
<polygon fill="white" stroke="#bfbfbf" points="907.19,-56.5 907.19,-75.5 1038.19,-75.5 1038.19,-56.5 907.19,-56.5"/>
<text text-anchor="middle" x="972.69" y="-63.5" font-family="Helvetica,sans-Serif" font-size="10.00">AMReX_PhysBCFunct.H</text>
</a>
</g>
</g>
<!-- Node20&#45;&gt;Node21 -->
<g id="edge36" class="edge">
<title>Node20&#45;&gt;Node21</title>
<path fill="none" stroke="midnightblue" d="M523.74,-112.83C624.87,-102.51 797.62,-84.87 896.75,-74.75"/>
<polygon fill="midnightblue" stroke="midnightblue" points="897.4,-78.2 906.99,-73.71 896.69,-71.24 897.4,-78.2"/>
</g>
<!-- Node23&#45;&gt;Node3 -->
<g id="edge41" class="edge">
<title>Node23&#45;&gt;Node3</title>
<path fill="none" stroke="midnightblue" d="M1160.37,-168.4C1194.56,-158.07 1240.39,-144.23 1272.43,-134.56"/>
<polygon fill="midnightblue" stroke="midnightblue" points="1273.75,-137.81 1282.31,-131.57 1271.72,-131.11 1273.75,-137.81"/>
</g>
<!-- Node23&#45;&gt;Node8 -->
<g id="edge49" class="edge">
<title>Node23&#45;&gt;Node8</title>
<path fill="none" stroke="midnightblue" d="M1036.46,-181.28C958.72,-177.97 836.38,-166.99 736.69,-132 717.5,-125.27 606.01,-55.45 557.84,-25.04"/>
<polygon fill="midnightblue" stroke="midnightblue" points="559.68,-22.06 549.36,-19.67 555.94,-27.98 559.68,-22.06"/>
</g>
<!-- Node23&#45;&gt;Node12 -->
<g id="edge46" class="edge">
<title>Node23&#45;&gt;Node12</title>
<path fill="none" stroke="midnightblue" d="M1126.78,-168.22C1148.52,-142.77 1186.91,-89.14 1157.69,-56 1140.73,-36.78 998.8,-23.71 899.1,-16.8"/>
<polygon fill="midnightblue" stroke="midnightblue" points="899.19,-13.3 888.98,-16.11 898.72,-20.28 899.19,-13.3"/>
</g>
<!-- Node23&#45;&gt;Node16 -->
<g id="edge47" class="edge">
<title>Node23&#45;&gt;Node16</title>
<path fill="none" stroke="midnightblue" d="M1044.15,-168.47C991.03,-157.76 918.99,-143.23 870.77,-133.51"/>
<polygon fill="midnightblue" stroke="midnightblue" points="871.36,-130.05 860.86,-131.51 869.97,-136.91 871.36,-130.05"/>
</g>
<!-- Node23&#45;&gt;Node21 -->
<g id="edge51" class="edge">
<title>Node23&#45;&gt;Node21</title>
<path fill="none" stroke="midnightblue" d="M1036.34,-170.63C1013.63,-163.26 991.06,-151.32 976.69,-132 966.89,-118.83 966.92,-99.69 968.78,-85.59"/>
<polygon fill="midnightblue" stroke="midnightblue" points="972.26,-86.02 970.51,-75.57 965.36,-84.83 972.26,-86.02"/>
</g>
<!-- Node23&#45;&gt;Node22 -->
<g id="edge48" class="edge">
<title>Node23&#45;&gt;Node22</title>
<path fill="none" stroke="midnightblue" d="M1036.59,-173.17C954.17,-163.16 819.66,-146.71 703.69,-132 702.58,-131.86 701.46,-131.72 700.33,-131.57"/>
<polygon fill="midnightblue" stroke="midnightblue" points="700.41,-128.05 690.04,-130.26 699.52,-135 700.41,-128.05"/>
</g>
<!-- Node23&#45;&gt;Node24 -->
<g id="edge42" class="edge">
<title>Node23&#45;&gt;Node24</title>
<path fill="none" stroke="midnightblue" d="M1190.84,-176.66C1339.53,-165.4 1664.54,-140.8 1817.28,-129.24"/>
<polygon fill="midnightblue" stroke="midnightblue" points="1817.82,-132.71 1827.53,-128.46 1817.29,-125.73 1817.82,-132.71"/>
</g>
<!-- Node25 -->
<g id="node25" class="node">
<title>Node25</title>
<g id="a_node25"><a xlink:title=" ">
<polygon fill="white" stroke="#bfbfbf" points="1859.69,-56.5 1859.69,-75.5 1951.69,-75.5 1951.69,-56.5 1859.69,-56.5"/>
<text text-anchor="middle" x="1905.69" y="-63.5" font-family="Helvetica,sans-Serif" font-size="10.00">AMReX_REAL.H</text>
</a>
</g>
</g>
<!-- Node23&#45;&gt;Node25 -->
<g id="edge50" class="edge">
<title>Node23&#45;&gt;Node25</title>
<path fill="none" stroke="midnightblue" d="M1185.01,-168.5C1264.49,-153.22 1396.93,-128.7 1511.69,-112 1631.41,-94.58 1772.43,-79.87 1849.09,-72.36"/>
<polygon fill="midnightblue" stroke="midnightblue" points="1849.85,-75.8 1859.47,-71.35 1849.17,-68.83 1849.85,-75.8"/>
</g>
<!-- Node28 -->
<g id="node28" class="node">
<title>Node28</title>
<g id="a_node28"><a xlink:title=" ">
<polygon fill="white" stroke="#bfbfbf" points="986.19,-112.5 986.19,-131.5 1111.19,-131.5 1111.19,-112.5 986.19,-112.5"/>
<text text-anchor="middle" x="1048.69" y="-119.5" font-family="Helvetica,sans-Serif" font-size="10.00">AMReX_FillPatchUtil.H</text>
</a>
</g>
</g>
<!-- Node23&#45;&gt;Node28 -->
<g id="edge52" class="edge">
<title>Node23&#45;&gt;Node28</title>
<path fill="none" stroke="midnightblue" d="M1098.28,-168.4C1088.45,-159.4 1075.69,-147.72 1065.58,-138.47"/>
<polygon fill="midnightblue" stroke="midnightblue" points="1067.88,-135.83 1058.14,-131.66 1063.16,-140.99 1067.88,-135.83"/>
</g>
<!-- Node24&#45;&gt;Node25 -->
<g id="edge43" class="edge">
<title>Node24&#45;&gt;Node25</title>
<path fill="none" stroke="midnightblue" d="M1900.68,-112.08C1901.47,-104.93 1902.62,-94.64 1903.61,-85.69"/>
<polygon fill="midnightblue" stroke="midnightblue" points="1907.09,-86.08 1904.71,-75.75 1900.13,-85.3 1907.09,-86.08"/>
</g>
<!-- Node26 -->
<g id="node26" class="node">
<title>Node26</title>
<g id="a_node26"><a xlink:title=" ">
<polygon fill="white" stroke="#bfbfbf" points="1969.69,-56.5 1969.69,-75.5 2103.69,-75.5 2103.69,-56.5 1969.69,-56.5"/>
<text text-anchor="middle" x="2036.69" y="-63.5" font-family="Helvetica,sans-Serif" font-size="10.00">AMReX_GpuQualifiers.H</text>
</a>
</g>
</g>
<!-- Node24&#45;&gt;Node26 -->
<g id="edge44" class="edge">
<title>Node24&#45;&gt;Node26</title>
<path fill="none" stroke="midnightblue" d="M1921.39,-112.44C1944.04,-103.52 1979.76,-89.44 2005.44,-79.32"/>
<polygon fill="midnightblue" stroke="midnightblue" points="2007.06,-82.44 2015.08,-75.52 2004.49,-75.93 2007.06,-82.44"/>
</g>
<!-- Node27 -->
<g id="node27" class="node">
<title>Node27</title>
<g id="a_node27"><a xlink:title=" ">
<polygon fill="white" stroke="#bfbfbf" points="2121.69,-56.5 2121.69,-75.5 2237.69,-75.5 2237.69,-56.5 2121.69,-56.5"/>
<text text-anchor="middle" x="2179.69" y="-63.5" font-family="Helvetica,sans-Serif" font-size="10.00">AMReX_Extension.H</text>
</a>
</g>
</g>
<!-- Node24&#45;&gt;Node27 -->
<g id="edge45" class="edge">
<title>Node24&#45;&gt;Node27</title>
<path fill="none" stroke="midnightblue" d="M1944.05,-112.44C1993.31,-102.94 2072.81,-87.61 2125.66,-77.42"/>
<polygon fill="midnightblue" stroke="midnightblue" points="2126.37,-80.85 2135.53,-75.52 2125.04,-73.97 2126.37,-80.85"/>
</g>
<!-- Node29&#45;&gt;Node3 -->
<g id="edge55" class="edge">
<title>Node29&#45;&gt;Node3</title>
<path fill="none" stroke="midnightblue" d="M1450.33,-173.98C1422.37,-163.77 1375.36,-146.61 1343.69,-135.05"/>
<polygon fill="midnightblue" stroke="midnightblue" points="1344.59,-131.65 1334,-131.51 1342.19,-138.23 1344.59,-131.65"/>
</g>
<!-- Node29&#45;&gt;Node10 -->
<g id="edge56" class="edge">
<title>Node29&#45;&gt;Node10</title>
<path fill="none" stroke="midnightblue" d="M1471.53,-173.66C1468.55,-159.2 1464.98,-130.25 1478.69,-112 1488.32,-99.17 1524.86,-86.72 1555.46,-78.18"/>
<polygon fill="midnightblue" stroke="midnightblue" points="1556.41,-81.55 1565.14,-75.55 1554.57,-74.79 1556.41,-81.55"/>
</g>
<!-- Node29&#45;&gt;Node12 -->
<g id="edge54" class="edge">
<title>Node29&#45;&gt;Node12</title>
<path fill="none" stroke="midnightblue" d="M1475.61,-173.82C1479.5,-158.5 1489.85,-126.87 1511.69,-112 1623.79,-35.65 1905.44,-154.02 1811.69,-56 1780.47,-23.36 1146.99,-14.12 899.01,-11.75"/>
<polygon fill="midnightblue" stroke="midnightblue" points="898.95,-8.25 888.92,-11.66 898.89,-15.25 898.95,-8.25"/>
</g>
<!-- Node29&#45;&gt;Node21 -->
<g id="edge59" class="edge">
<title>Node29&#45;&gt;Node21</title>
<path fill="none" stroke="midnightblue" d="M1432.61,-173.98C1385.83,-164.19 1307.13,-147.48 1239.69,-132 1160.84,-113.9 1069.3,-91.26 1016.47,-78.03"/>
<polygon fill="midnightblue" stroke="midnightblue" points="1017.31,-74.63 1006.76,-75.6 1015.61,-81.42 1017.31,-74.63"/>
</g>
<!-- Node30 -->
<g id="node30" class="node">
<title>Node30</title>
<g id="a_node30"><a xlink:title=" ">
<polygon fill="white" stroke="#bfbfbf" points="1654.19,-112.5 1654.19,-131.5 1771.19,-131.5 1771.19,-112.5 1654.19,-112.5"/>
<text text-anchor="middle" x="1712.69" y="-119.5" font-family="Helvetica,sans-Serif" font-size="10.00">AMReX_FArrayBox.H</text>
</a>
</g>
</g>
<!-- Node29&#45;&gt;Node30 -->
<g id="edge57" class="edge">
<title>Node29&#45;&gt;Node30</title>
<path fill="none" stroke="midnightblue" d="M1507.93,-173.98C1550.26,-163.44 1622.36,-145.49 1668.74,-133.94"/>
<polygon fill="midnightblue" stroke="midnightblue" points="1669.65,-137.32 1678.51,-131.51 1667.96,-130.53 1669.65,-137.32"/>
</g>
<!-- Node31 -->
<g id="node31" class="node">
<title>Node31</title>
<g id="a_node31"><a xlink:title=" ">
<polygon fill="white" stroke="#bfbfbf" points="1521.19,-112.5 1521.19,-131.5 1636.19,-131.5 1636.19,-112.5 1521.19,-112.5"/>
<text text-anchor="middle" x="1578.69" y="-119.5" font-family="Helvetica,sans-Serif" font-size="10.00">AMReX_Geometry.H</text>
</a>
</g>
</g>
<!-- Node29&#45;&gt;Node31 -->
<g id="edge58" class="edge">
<title>Node29&#45;&gt;Node31</title>
<path fill="none" stroke="midnightblue" d="M1488.73,-173.98C1505.96,-164.21 1534.43,-148.08 1554.72,-136.58"/>
<polygon fill="midnightblue" stroke="midnightblue" points="1556.7,-139.48 1563.67,-131.51 1553.24,-133.39 1556.7,-139.48"/>
</g>
<!-- Node32&#45;&gt;Node2 -->
<g id="edge65" class="edge">
<title>Node32&#45;&gt;Node2</title>
<path fill="none" stroke="midnightblue" d="M1883.41,-171.75C1944.75,-163.26 2030.13,-150.15 2114.08,-131.91"/>
<polygon fill="midnightblue" stroke="midnightblue" points="2115.03,-135.28 2124.04,-129.72 2113.52,-128.45 2115.03,-135.28"/>
</g>
<!-- Node32&#45;&gt;Node3 -->
<g id="edge62" class="edge">
<title>Node32&#45;&gt;Node3</title>
<path fill="none" stroke="midnightblue" d="M1716.18,-172.34C1622.41,-160.93 1471.77,-142.6 1382.89,-131.79"/>
<polygon fill="midnightblue" stroke="midnightblue" points="1383.25,-128.3 1372.9,-130.57 1382.4,-135.25 1383.25,-128.3"/>
</g>
<!-- Node32&#45;&gt;Node11 -->
<g id="edge63" class="edge">
<title>Node32&#45;&gt;Node11</title>
<path fill="none" stroke="midnightblue" d="M1797.92,-168.38C1795.56,-153.49 1790.38,-129.77 1779.69,-112 1772.75,-100.47 1762.09,-89.93 1752.68,-81.95"/>
<polygon fill="midnightblue" stroke="midnightblue" points="1754.83,-79.19 1744.85,-75.64 1750.44,-84.64 1754.83,-79.19"/>
</g>
<!-- Node33 -->
<g id="node33" class="node">
<title>Node33</title>
<g id="a_node33"><a xlink:title=" ">
<polygon fill="white" stroke="#bfbfbf" points="1989.69,-112.5 1989.69,-131.5 2105.69,-131.5 2105.69,-112.5 1989.69,-112.5"/>
<text text-anchor="middle" x="2047.69" y="-119.5" font-family="Helvetica,sans-Serif" font-size="10.00">AMReX_BC_TYPES.H</text>
</a>
</g>
</g>
<!-- Node32&#45;&gt;Node33 -->
<g id="edge64" class="edge">
<title>Node32&#45;&gt;Node33</title>
<path fill="none" stroke="midnightblue" d="M1858.14,-168.47C1902.24,-157.9 1961.85,-143.59 2002.36,-133.87"/>
<polygon fill="midnightblue" stroke="midnightblue" points="2003.32,-137.24 2012.23,-131.51 2001.69,-130.44 2003.32,-137.24"/>
</g>
</g>
</svg>
        <g id="navigator" transform="translate(0 0)" fill="#404254">
                <rect fill="#f2f5e9" fill-opacity="0.5" stroke="#606060" stroke-width=".5" x="0" y="0" width="60" height="60"/>
                <use id="zoomplus" xlink:href="#zoomPlus" x="17" y="9" onmousedown="handleZoom(evt,'in')"/>
                <use id="zoomminus" xlink:href="#zoomMin" x="42" y="9" onmousedown="handleZoom(evt,'out')"/>
                <use id="reset" xlink:href="#resetDef" x="30" y="36" onmousedown="handleReset()"/>
                <g id="arrowUp" xlink:href="#dirArrow" transform="translate(30 24)" onmousedown="handlePan(0,-1)">
                  <use xlink:href="#rim" fill="#404040">
                        <set attributeName="fill" to="#808080" begin="arrowUp.mouseover" end="arrowUp.mouseout"/>
                  </use>
                  <path fill="none" stroke="white" stroke-width="1.5" d="M0,-3.0v7 M-2.5,-0.5L0,-3.0L2.5,-0.5"/>
                </g>
                <g id="arrowRight" xlink:href="#dirArrow" transform="rotate(90) translate(36 -43)" onmousedown="handlePan(1,0)">
                  <use xlink:href="#rim" fill="#404040">
                        <set attributeName="fill" to="#808080" begin="arrowRight.mouseover" end="arrowRight.mouseout"/>
                  </use>
                  <path fill="none" stroke="white" stroke-width="1.5" d="M0,-3.0v7 M-2.5,-0.5L0,-3.0L2.5,-0.5"/>
                </g>
                <g id="arrowDown" xlink:href="#dirArrow" transform="rotate(180) translate(-30 -48)" onmousedown="handlePan(0,1)">
                  <use xlink:href="#rim" fill="#404040">
                        <set attributeName="fill" to="#808080" begin="arrowDown.mouseover" end="arrowDown.mouseout"/>
                  </use>
                  <path fill="none" stroke="white" stroke-width="1.5" d="M0,-3.0v7 M-2.5,-0.5L0,-3.0L2.5,-0.5"/>
                </g>
                <g id="arrowLeft" xlink:href="#dirArrow" transform="rotate(270) translate(-36 17)" onmousedown="handlePan(-1,0)">
                  <use xlink:href="#rim" fill="#404040">
                        <set attributeName="fill" to="#808080" begin="arrowLeft.mouseover" end="arrowLeft.mouseout"/>
                  </use>
                  <path fill="none" stroke="white" stroke-width="1.5" d="M0,-3.0v7 M-2.5,-0.5L0,-3.0L2.5,-0.5"/>
                </g>
        </g>
        <svg viewBox="0 0 15 15" width="100%" height="30px" preserveAspectRatio="xMaxYMin meet">
         <g id="arrow_out" transform="scale(0.3 0.3)">
          <a xlink:href="_field_8cpp__incl_org.svg" target="_base">
           <rect id="button" ry="5" rx="5" y="6" x="6" height="38" width="38"
                fill="#f2f5e9" fill-opacity="0.5" stroke="#606060" stroke-width="1.0"/>
           <path id="arrow"
             d="M 11.500037,31.436501 C 11.940474,20.09759 22.043105,11.32322 32.158766,21.979434 L 37.068811,17.246167 C 37.068811,17.246167 37.088388,32 37.088388,32 L 22.160133,31.978069 C 22.160133,31.978069 26.997745,27.140456 26.997745,27.140456 C 18.528582,18.264221 13.291696,25.230495 11.500037,31.436501 z"
             style="fill:#404040;"/>
          </a>
         </g>
        </svg>
</svg>
