<?xml version="1.0" encoding="UTF-8" standalone="no"?>
<!DOCTYPE svg PUBLIC "-//W3C//DTD SVG 1.1//EN"
 "http://www.w3.org/Graphics/SVG/1.1/DTD/svg11.dtd">
<!-- Generated by graphviz version 2.43.0 (0)
 -->
<!-- Title: FieldRepo.H Pages: 1 -->
<svg width="3832pt" height="140pt"
 viewBox="0.00 0.00 3831.50 140.00" xmlns="http://www.w3.org/2000/svg" xmlns:xlink="http://www.w3.org/1999/xlink">
<g id="graph0" class="graph" transform="scale(1 1) rotate(0) translate(4 136)">
<title>FieldRepo.H</title>
<polygon fill="white" stroke="transparent" points="-4,4 -4,-136 3827.5,-136 3827.5,4 -4,4"/>
<!-- Node1 -->
<g id="node1" class="node">
<title>Node1</title>
<g id="a_node1"><a xlink:title=" ">
<polygon fill="#bfbfbf" stroke="black" points="1705.5,-112.5 1705.5,-131.5 1780.5,-131.5 1780.5,-112.5 1705.5,-112.5"/>
<text text-anchor="middle" x="1743" y="-119.5" font-family="Helvetica,sans-Serif" font-size="10.00">FieldRepo.H</text>
</a>
</g>
</g>
<!-- Node2 -->
<g id="node2" class="node">
<title>Node2</title>
<g id="a_node2"><a xlink:href="_b_c_interface_8cpp.html" target="_top" xlink:title=" ">
<polygon fill="white" stroke="black" points="0,-0.5 0,-19.5 94,-19.5 94,-0.5 0,-0.5"/>
<text text-anchor="middle" x="47" y="-7.5" font-family="Helvetica,sans-Serif" font-size="10.00">BCInterface.cpp</text>
</a>
</g>
</g>
<!-- Node1&#45;&gt;Node2 -->
<g id="edge1" class="edge">
<title>Node1&#45;&gt;Node2</title>
<path fill="none" stroke="midnightblue" d="M1694.97,-120.73C1432.54,-119.11 181.07,-109.65 107,-76 80.71,-64.06 60.68,-34.6 51.89,-19.79"/>
<polygon fill="midnightblue" stroke="midnightblue" points="1695.29,-124.23 1705.31,-120.79 1695.33,-117.23 1695.29,-124.23"/>
</g>
<!-- Node3 -->
<g id="node3" class="node">
<title>Node3</title>
<g id="a_node3"><a xlink:href="_fixed_gradient_b_c_8_h.html" target="_top" xlink:title=" ">
<polygon fill="white" stroke="black" points="116,-56.5 116,-75.5 224,-75.5 224,-56.5 116,-56.5"/>
<text text-anchor="middle" x="170" y="-63.5" font-family="Helvetica,sans-Serif" font-size="10.00">FixedGradientBC.H</text>
</a>
</g>
</g>
<!-- Node1&#45;&gt;Node3 -->
<g id="edge2" class="edge">
<title>Node1&#45;&gt;Node3</title>
<path fill="none" stroke="midnightblue" d="M1695.39,-120.3C1472.11,-116.91 527.2,-101.32 233,-76 230.14,-75.75 227.21,-75.46 224.25,-75.14"/>
<polygon fill="midnightblue" stroke="midnightblue" points="1695.42,-123.8 1705.47,-120.45 1695.53,-116.8 1695.42,-123.8"/>
</g>
<!-- Node5 -->
<g id="node5" class="node">
<title>Node5</title>
<g id="a_node5"><a xlink:href="velocity__bcs_8_h.html" target="_top" xlink:title=" ">
<polygon fill="white" stroke="black" points="242,-56.5 242,-75.5 330,-75.5 330,-56.5 242,-56.5"/>
<text text-anchor="middle" x="286" y="-63.5" font-family="Helvetica,sans-Serif" font-size="10.00">velocity_bcs.H</text>
</a>
</g>
</g>
<!-- Node1&#45;&gt;Node5 -->
<g id="edge5" class="edge">
<title>Node1&#45;&gt;Node5</title>
<path fill="none" stroke="midnightblue" d="M1695.15,-120.24C1481.66,-116.75 614.8,-101.27 344,-76 339.54,-75.58 334.89,-75.04 330.26,-74.44"/>
<polygon fill="midnightblue" stroke="midnightblue" points="1695.34,-123.75 1705.4,-120.41 1695.46,-116.75 1695.34,-123.75"/>
</g>
<!-- Node8 -->
<g id="node7" class="node">
<title>Node8</title>
<g id="a_node7"><a xlink:href="_c_f_d_sim_8_h.html" target="_top" xlink:title=" ">
<polygon fill="white" stroke="red" points="658,-56.5 658,-75.5 724,-75.5 724,-56.5 658,-56.5"/>
<text text-anchor="middle" x="691" y="-63.5" font-family="Helvetica,sans-Serif" font-size="10.00">CFDSim.H</text>
</a>
</g>
</g>
<!-- Node1&#45;&gt;Node8 -->
<g id="edge7" class="edge">
<title>Node1&#45;&gt;Node8</title>
<path fill="none" stroke="midnightblue" d="M1695.13,-121.3C1550.31,-121.7 1104.37,-119.05 738,-76 733.46,-75.47 728.7,-74.75 724.03,-73.95"/>
<polygon fill="midnightblue" stroke="midnightblue" points="1695.44,-124.8 1705.43,-121.27 1695.41,-117.8 1695.44,-124.8"/>
</g>
<!-- Node10 -->
<g id="node9" class="node">
<title>Node10</title>
<g id="a_node9"><a xlink:href="incflo_8_h.html" target="_top" xlink:title=" ">
<polygon fill="white" stroke="red" points="505.5,-0.5 505.5,-19.5 558.5,-19.5 558.5,-0.5 505.5,-0.5"/>
<text text-anchor="middle" x="532" y="-7.5" font-family="Helvetica,sans-Serif" font-size="10.00">incflo.H</text>
</a>
</g>
</g>
<!-- Node1&#45;&gt;Node10 -->
<g id="edge26" class="edge">
<title>Node1&#45;&gt;Node10</title>
<path fill="none" stroke="midnightblue" d="M1695.22,-120.55C1495.63,-118.49 734.15,-108.54 632,-76 594.71,-64.12 557.98,-34.35 541.3,-19.59"/>
<polygon fill="midnightblue" stroke="midnightblue" points="1695.35,-124.06 1705.39,-120.66 1695.42,-117.06 1695.35,-124.06"/>
</g>
<!-- Node88 -->
<g id="node10" class="node">
<title>Node88</title>
<g id="a_node10"><a xlink:href="_p_d_e_base_8cpp.html" target="_top" xlink:title=" ">
<polygon fill="white" stroke="black" points="342,-0.5 342,-19.5 422,-19.5 422,-0.5 342,-0.5"/>
<text text-anchor="middle" x="382" y="-7.5" font-family="Helvetica,sans-Serif" font-size="10.00">PDEBase.cpp</text>
</a>
</g>
</g>
<!-- Node1&#45;&gt;Node88 -->
<g id="edge43" class="edge">
<title>Node1&#45;&gt;Node88</title>
<path fill="none" stroke="midnightblue" d="M1695.07,-121.27C1458.38,-122.35 423.74,-124.31 377,-76 362.36,-60.87 371.63,-33.41 377.8,-19.53"/>
<polygon fill="midnightblue" stroke="midnightblue" points="1695.43,-124.76 1705.41,-121.22 1695.39,-117.76 1695.43,-124.76"/>
</g>
<!-- Node102 -->
<g id="node11" class="node">
<title>Node102</title>
<g id="a_node11"><a xlink:href="_i_b_8cpp.html" target="_top" xlink:title=" ">
<polygon fill="white" stroke="black" points="440.5,-0.5 440.5,-19.5 487.5,-19.5 487.5,-0.5 440.5,-0.5"/>
<text text-anchor="middle" x="464" y="-7.5" font-family="Helvetica,sans-Serif" font-size="10.00">IB.cpp</text>
</a>
</g>
</g>
<!-- Node1&#45;&gt;Node102 -->
<g id="edge51" class="edge">
<title>Node1&#45;&gt;Node102</title>
<path fill="none" stroke="midnightblue" d="M1695.25,-120.35C1475.58,-117.2 570.59,-102.66 517,-76 492.49,-63.81 475.4,-34.47 468.04,-19.74"/>
<polygon fill="midnightblue" stroke="midnightblue" points="1695.43,-123.85 1705.48,-120.49 1695.53,-116.85 1695.43,-123.85"/>
</g>
<!-- Node105 -->
<g id="node12" class="node">
<title>Node105</title>
<g id="a_node12"><a xlink:href="_tioga_interface_8cpp.html" target="_top" xlink:title=" ">
<polygon fill="white" stroke="black" points="576.5,-0.5 576.5,-19.5 683.5,-19.5 683.5,-0.5 576.5,-0.5"/>
<text text-anchor="middle" x="630" y="-7.5" font-family="Helvetica,sans-Serif" font-size="10.00">TiogaInterface.cpp</text>
</a>
</g>
</g>
<!-- Node1&#45;&gt;Node105 -->
<g id="edge52" class="edge">
<title>Node1&#45;&gt;Node105</title>
<path fill="none" stroke="midnightblue" d="M1695.22,-120.58C1489.88,-118.56 690.74,-108.64 649,-76 631.78,-62.53 629.55,-34.32 629.62,-19.9"/>
<polygon fill="midnightblue" stroke="midnightblue" points="1695.36,-124.08 1705.39,-120.67 1695.42,-117.08 1695.36,-124.08"/>
</g>
<!-- Node126 -->
<g id="node13" class="node">
<title>Node126</title>
<g id="a_node13"><a xlink:href="_vortex_ring_8cpp.html" target="_top" xlink:title=" ">
<polygon fill="white" stroke="black" points="796,-0.5 796,-19.5 886,-19.5 886,-0.5 796,-0.5"/>
<text text-anchor="middle" x="841" y="-7.5" font-family="Helvetica,sans-Serif" font-size="10.00">VortexRing.cpp</text>
</a>
</g>
</g>
<!-- Node1&#45;&gt;Node126 -->
<g id="edge57" class="edge">
<title>Node1&#45;&gt;Node126</title>
<path fill="none" stroke="midnightblue" d="M1695.1,-120.24C1514.38,-117.18 882.55,-104.48 851,-76 835.24,-61.77 837.1,-33.91 839.3,-19.73"/>
<polygon fill="midnightblue" stroke="midnightblue" points="1695.3,-123.75 1705.35,-120.42 1695.41,-116.75 1695.3,-123.75"/>
</g>
<!-- Node137 -->
<g id="node14" class="node">
<title>Node137</title>
<g id="a_node14"><a xlink:href="_re_averaging_8cpp.html" target="_top" xlink:title=" ">
<polygon fill="white" stroke="black" points="904,-0.5 904,-19.5 1002,-19.5 1002,-0.5 904,-0.5"/>
<text text-anchor="middle" x="953" y="-7.5" font-family="Helvetica,sans-Serif" font-size="10.00">ReAveraging.cpp</text>
</a>
</g>
</g>
<!-- Node1&#45;&gt;Node137 -->
<g id="edge60" class="edge">
<title>Node1&#45;&gt;Node137</title>
<path fill="none" stroke="midnightblue" d="M1695.14,-120.37C1515.34,-117.75 888.96,-106.48 860,-76 836.73,-51.51 886.37,-30.66 921.68,-19.57"/>
<polygon fill="midnightblue" stroke="midnightblue" points="1695.3,-123.87 1705.35,-120.51 1695.4,-116.87 1695.3,-123.87"/>
</g>
<!-- Node138 -->
<g id="node15" class="node">
<title>Node138</title>
<g id="a_node15"><a xlink:href="_reynolds_stress_8cpp.html" target="_top" xlink:title=" ">
<polygon fill="white" stroke="black" points="1020,-0.5 1020,-19.5 1132,-19.5 1132,-0.5 1020,-0.5"/>
<text text-anchor="middle" x="1076" y="-7.5" font-family="Helvetica,sans-Serif" font-size="10.00">ReynoldsStress.cpp</text>
</a>
</g>
</g>
<!-- Node1&#45;&gt;Node138 -->
<g id="edge61" class="edge">
<title>Node1&#45;&gt;Node138</title>
<path fill="none" stroke="midnightblue" d="M1695.28,-120.34C1516.71,-117.66 896.68,-106.19 868,-76 861.88,-69.56 862.42,-62.92 868,-56 877.6,-44.1 961.72,-28.78 1019.99,-19.43"/>
<polygon fill="midnightblue" stroke="midnightblue" points="1695.36,-123.85 1705.41,-120.49 1695.47,-116.85 1695.36,-123.85"/>
</g>
<!-- Node170 -->
<g id="node16" class="node">
<title>Node170</title>
<g id="a_node16"><a xlink:href="_actuator_8cpp.html" target="_top" xlink:title=" ">
<polygon fill="white" stroke="black" points="1150.5,-0.5 1150.5,-19.5 1227.5,-19.5 1227.5,-0.5 1150.5,-0.5"/>
<text text-anchor="middle" x="1189" y="-7.5" font-family="Helvetica,sans-Serif" font-size="10.00">Actuator.cpp</text>
</a>
</g>
</g>
<!-- Node1&#45;&gt;Node170 -->
<g id="edge67" class="edge">
<title>Node1&#45;&gt;Node170</title>
<path fill="none" stroke="midnightblue" d="M1695.32,-120.29C1519.06,-117.46 913.06,-105.57 885,-76 855.81,-45.24 851.21,-67.52 1141,-20 1144.01,-19.51 1147.13,-18.97 1150.25,-18.42"/>
<polygon fill="midnightblue" stroke="midnightblue" points="1695.28,-123.79 1705.33,-120.45 1695.39,-116.79 1695.28,-123.79"/>
</g>
<!-- Node185 -->
<g id="node17" class="node">
<title>Node185</title>
<g id="a_node17"><a xlink:href="_godunov_8_h.html" target="_top" xlink:title=" ">
<polygon fill="white" stroke="red" points="894,-56.5 894,-75.5 964,-75.5 964,-56.5 894,-56.5"/>
<text text-anchor="middle" x="929" y="-63.5" font-family="Helvetica,sans-Serif" font-size="10.00">Godunov.H</text>
</a>
</g>
</g>
<!-- Node1&#45;&gt;Node185 -->
<g id="edge17" class="edge">
<title>Node1&#45;&gt;Node185</title>
<path fill="none" stroke="midnightblue" d="M1695.09,-120.58C1573.73,-119.01 1244.58,-111.52 973,-76 970.22,-75.64 967.35,-75.2 964.47,-74.71"/>
<polygon fill="midnightblue" stroke="midnightblue" points="1695.12,-124.08 1705.16,-120.71 1695.21,-117.08 1695.12,-124.08"/>
</g>
<!-- Node191 -->
<g id="node18" class="node">
<title>Node191</title>
<g id="a_node18"><a xlink:href="_m_o_l_8_h.html" target="_top" xlink:title=" ">
<polygon fill="white" stroke="red" points="982.5,-56.5 982.5,-75.5 1031.5,-75.5 1031.5,-56.5 982.5,-56.5"/>
<text text-anchor="middle" x="1007" y="-63.5" font-family="Helvetica,sans-Serif" font-size="10.00">MOL.H</text>
</a>
</g>
</g>
<!-- Node1&#45;&gt;Node191 -->
<g id="edge18" class="edge">
<title>Node1&#45;&gt;Node191</title>
<path fill="none" stroke="midnightblue" d="M1695.29,-121.13C1581.35,-120.75 1284.71,-115.68 1041,-76 1037.99,-75.51 1034.85,-74.87 1031.76,-74.15"/>
<polygon fill="midnightblue" stroke="midnightblue" points="1695.41,-124.63 1705.42,-121.15 1695.43,-117.63 1695.41,-124.63"/>
</g>
<!-- Node194 -->
<g id="node19" class="node">
<title>Node194</title>
<g id="a_node19"><a xlink:href="_field_8cpp.html" target="_top" xlink:title=" ">
<polygon fill="white" stroke="black" points="1050,-56.5 1050,-75.5 1110,-75.5 1110,-56.5 1050,-56.5"/>
<text text-anchor="middle" x="1080" y="-63.5" font-family="Helvetica,sans-Serif" font-size="10.00">Field.cpp</text>
</a>
</g>
</g>
<!-- Node1&#45;&gt;Node194 -->
<g id="edge19" class="edge">
<title>Node1&#45;&gt;Node194</title>
<path fill="none" stroke="midnightblue" d="M1694.86,-120.06C1589.77,-117.46 1332.13,-108.08 1119,-76 1116.11,-75.57 1113.13,-75.03 1110.15,-74.44"/>
<polygon fill="midnightblue" stroke="midnightblue" points="1695.06,-123.57 1705.14,-120.31 1695.23,-116.57 1695.06,-123.57"/>
</g>
<!-- Node195 -->
<g id="node20" class="node">
<title>Node195</title>
<g id="a_node20"><a xlink:href="_field_repo_8cpp.html" target="_top" xlink:title=" ">
<polygon fill="white" stroke="black" points="1128.5,-56.5 1128.5,-75.5 1213.5,-75.5 1213.5,-56.5 1128.5,-56.5"/>
<text text-anchor="middle" x="1171" y="-63.5" font-family="Helvetica,sans-Serif" font-size="10.00">FieldRepo.cpp</text>
</a>
</g>
</g>
<!-- Node1&#45;&gt;Node195 -->
<g id="edge20" class="edge">
<title>Node1&#45;&gt;Node195</title>
<path fill="none" stroke="midnightblue" d="M1695.18,-118.29C1603.24,-112.77 1395.57,-98.77 1222,-76 1219.24,-75.64 1216.39,-75.23 1213.53,-74.8"/>
<polygon fill="midnightblue" stroke="midnightblue" points="1695.09,-121.79 1705.28,-118.89 1695.51,-114.8 1695.09,-121.79"/>
</g>
<!-- Node196 -->
<g id="node21" class="node">
<title>Node196</title>
<g id="a_node21"><a xlink:href="_int_field_8cpp.html" target="_top" xlink:title=" ">
<polygon fill="white" stroke="black" points="1231.5,-56.5 1231.5,-75.5 1304.5,-75.5 1304.5,-56.5 1231.5,-56.5"/>
<text text-anchor="middle" x="1268" y="-63.5" font-family="Helvetica,sans-Serif" font-size="10.00">IntField.cpp</text>
</a>
</g>
</g>
<!-- Node1&#45;&gt;Node196 -->
<g id="edge21" class="edge">
<title>Node1&#45;&gt;Node196</title>
<path fill="none" stroke="midnightblue" d="M1695.09,-117.37C1615.63,-111.04 1451.68,-96.65 1314,-76 1310.94,-75.54 1307.78,-75.02 1304.61,-74.47"/>
<polygon fill="midnightblue" stroke="midnightblue" points="1695.03,-120.88 1705.27,-118.17 1695.58,-113.9 1695.03,-120.88"/>
</g>
<!-- Node197 -->
<g id="node22" class="node">
<title>Node197</title>
<g id="a_node22"><a xlink:href="_scratch_field_8cpp.html" target="_top" xlink:title=" ">
<polygon fill="white" stroke="black" points="1323,-56.5 1323,-75.5 1419,-75.5 1419,-56.5 1323,-56.5"/>
<text text-anchor="middle" x="1371" y="-63.5" font-family="Helvetica,sans-Serif" font-size="10.00">ScratchField.cpp</text>
</a>
</g>
</g>
<!-- Node1&#45;&gt;Node197 -->
<g id="edge22" class="edge">
<title>Node1&#45;&gt;Node197</title>
<path fill="none" stroke="midnightblue" d="M1694.93,-114.36C1633.13,-105.76 1522.5,-90.21 1428,-76 1425.13,-75.57 1422.17,-75.12 1419.19,-74.66"/>
<polygon fill="midnightblue" stroke="midnightblue" points="1694.77,-117.87 1705.15,-115.78 1695.73,-110.93 1694.77,-117.87"/>
</g>
<!-- Node198 -->
<g id="node23" class="node">
<title>Node198</title>
<g id="a_node23"><a xlink:href="_view_field_8cpp.html" target="_top" xlink:title=" ">
<polygon fill="white" stroke="black" points="1437,-56.5 1437,-75.5 1521,-75.5 1521,-56.5 1437,-56.5"/>
<text text-anchor="middle" x="1479" y="-63.5" font-family="Helvetica,sans-Serif" font-size="10.00">ViewField.cpp</text>
</a>
</g>
</g>
<!-- Node1&#45;&gt;Node198 -->
<g id="edge23" class="edge">
<title>Node1&#45;&gt;Node198</title>
<path fill="none" stroke="midnightblue" d="M1695.58,-111.3C1645.81,-101.12 1568.31,-85.27 1520.77,-75.54"/>
<polygon fill="midnightblue" stroke="midnightblue" points="1694.96,-114.75 1705.46,-113.32 1696.36,-107.89 1694.96,-114.75"/>
</g>
<!-- Node199 -->
<g id="node24" class="node">
<title>Node199</title>
<g id="a_node24"><a xlink:href="field__algebra_8cpp.html" target="_top" xlink:title=" ">
<polygon fill="white" stroke="black" points="1539,-56.5 1539,-75.5 1639,-75.5 1639,-56.5 1539,-56.5"/>
<text text-anchor="middle" x="1589" y="-63.5" font-family="Helvetica,sans-Serif" font-size="10.00">field_algebra.cpp</text>
</a>
</g>
</g>
<!-- Node1&#45;&gt;Node199 -->
<g id="edge24" class="edge">
<title>Node1&#45;&gt;Node199</title>
<path fill="none" stroke="midnightblue" d="M1708.89,-109.04C1679.91,-98.88 1639.04,-84.55 1613.29,-75.52"/>
<polygon fill="midnightblue" stroke="midnightblue" points="1708,-112.44 1718.6,-112.44 1710.32,-105.83 1708,-112.44"/>
</g>
<!-- Node200 -->
<g id="node25" class="node">
<title>Node200</title>
<g id="a_node25"><a xlink:href="diffusion_8_h.html" target="_top" xlink:title=" ">
<polygon fill="white" stroke="red" points="1657.5,-56.5 1657.5,-75.5 1726.5,-75.5 1726.5,-56.5 1657.5,-56.5"/>
<text text-anchor="middle" x="1692" y="-63.5" font-family="Helvetica,sans-Serif" font-size="10.00">diffusion.H</text>
</a>
</g>
</g>
<!-- Node1&#45;&gt;Node200 -->
<g id="edge25" class="edge">
<title>Node1&#45;&gt;Node200</title>
<path fill="none" stroke="midnightblue" d="M1727.62,-104.72C1718.63,-95.2 1707.64,-83.56 1700.26,-75.75"/>
<polygon fill="midnightblue" stroke="midnightblue" points="1725.17,-107.22 1734.58,-112.08 1730.26,-102.41 1725.17,-107.22"/>
</g>
<!-- Node201 -->
<g id="node26" class="node">
<title>Node201</title>
<g id="a_node26"><a xlink:href="_p_d_e_helpers_8_h.html" target="_top" xlink:title=" ">
<polygon fill="white" stroke="red" points="386,-56.5 386,-75.5 470,-75.5 470,-56.5 386,-56.5"/>
<text text-anchor="middle" x="428" y="-63.5" font-family="Helvetica,sans-Serif" font-size="10.00">PDEHelpers.H</text>
</a>
</g>
</g>
<!-- Node1&#45;&gt;Node201 -->
<g id="edge27" class="edge">
<title>Node1&#45;&gt;Node201</title>
<path fill="none" stroke="midnightblue" d="M1695.1,-121.42C1527.84,-122.41 954.43,-122.03 484,-76 479.49,-75.56 474.8,-74.99 470.12,-74.34"/>
<polygon fill="midnightblue" stroke="midnightblue" points="1695.32,-124.91 1705.29,-121.35 1695.27,-117.91 1695.32,-124.91"/>
</g>
<!-- Node202 -->
<g id="node27" class="node">
<title>Node202</title>
<g id="a_node27"><a xlink:href="_density_source_8_h.html" target="_top" xlink:title=" ">
<polygon fill="white" stroke="red" points="1745,-56.5 1745,-75.5 1843,-75.5 1843,-56.5 1745,-56.5"/>
<text text-anchor="middle" x="1794" y="-63.5" font-family="Helvetica,sans-Serif" font-size="10.00">DensitySource.H</text>
</a>
</g>
</g>
<!-- Node1&#45;&gt;Node202 -->
<g id="edge29" class="edge">
<title>Node1&#45;&gt;Node202</title>
<path fill="none" stroke="midnightblue" d="M1758.38,-104.72C1767.37,-95.2 1778.36,-83.56 1785.74,-75.75"/>
<polygon fill="midnightblue" stroke="midnightblue" points="1755.74,-102.41 1751.42,-112.08 1760.83,-107.22 1755.74,-102.41"/>
</g>
<!-- Node203 -->
<g id="node28" class="node">
<title>Node203</title>
<g id="a_node28"><a xlink:href="_momentum_source_8_h.html" target="_top" xlink:title=" ">
<polygon fill="white" stroke="red" points="1975,-56.5 1975,-75.5 2091,-75.5 2091,-56.5 1975,-56.5"/>
<text text-anchor="middle" x="2033" y="-63.5" font-family="Helvetica,sans-Serif" font-size="10.00">MomentumSource.H</text>
</a>
</g>
</g>
<!-- Node1&#45;&gt;Node203 -->
<g id="edge30" class="edge">
<title>Node1&#45;&gt;Node203</title>
<path fill="none" stroke="midnightblue" d="M1790.71,-112.12C1845.2,-101.97 1933.71,-85.49 1987.33,-75.5"/>
<polygon fill="midnightblue" stroke="midnightblue" points="1789.81,-108.72 1780.62,-114 1791.09,-115.61 1789.81,-108.72"/>
</g>
<!-- Node70 -->
<g id="node29" class="node">
<title>Node70</title>
<g id="a_node29"><a xlink:href="_a_b_l_mean_boussinesq_8_h.html" target="_top" xlink:title=" ">
<polygon fill="white" stroke="red" points="1628,-0.5 1628,-19.5 1756,-19.5 1756,-0.5 1628,-0.5"/>
<text text-anchor="middle" x="1692" y="-7.5" font-family="Helvetica,sans-Serif" font-size="10.00">ABLMeanBoussinesq.H</text>
</a>
</g>
</g>
<!-- Node1&#45;&gt;Node70 -->
<g id="edge37" class="edge">
<title>Node1&#45;&gt;Node70</title>
<path fill="none" stroke="midnightblue" d="M1790.72,-111.19C1828.76,-101.13 1872.52,-83.08 1852,-56 1839.32,-39.27 1789.37,-27.02 1748.61,-19.56"/>
<polygon fill="midnightblue" stroke="midnightblue" points="1789.56,-107.87 1780.71,-113.7 1791.26,-114.66 1789.56,-107.87"/>
</g>
<!-- Node207 -->
<g id="node30" class="node">
<title>Node207</title>
<g id="a_node30"><a xlink:href="_boussinesq_buoyancy_8_h.html" target="_top" xlink:title=" ">
<polygon fill="white" stroke="red" points="1774.5,-0.5 1774.5,-19.5 1903.5,-19.5 1903.5,-0.5 1774.5,-0.5"/>
<text text-anchor="middle" x="1839" y="-7.5" font-family="Helvetica,sans-Serif" font-size="10.00">BoussinesqBuoyancy.H</text>
</a>
</g>
</g>
<!-- Node1&#45;&gt;Node207 -->
<g id="edge38" class="edge">
<title>Node1&#45;&gt;Node207</title>
<path fill="none" stroke="midnightblue" d="M1790.73,-117.17C1818.48,-112.21 1851.36,-101.03 1869,-76 1882.03,-57.51 1861.37,-32.46 1848.34,-19.52"/>
<polygon fill="midnightblue" stroke="midnightblue" points="1790.12,-113.73 1780.78,-118.73 1791.2,-120.64 1790.12,-113.73"/>
</g>
<!-- Node208 -->
<g id="node31" class="node">
<title>Node208</title>
<g id="a_node31"><a xlink:href="_coriolis_forcing_8_h.html" target="_top" xlink:title=" ">
<polygon fill="white" stroke="red" points="1921.5,-0.5 1921.5,-19.5 2020.5,-19.5 2020.5,-0.5 1921.5,-0.5"/>
<text text-anchor="middle" x="1971" y="-7.5" font-family="Helvetica,sans-Serif" font-size="10.00">CoriolisForcing.H</text>
</a>
</g>
</g>
<!-- Node1&#45;&gt;Node208 -->
<g id="edge39" class="edge">
<title>Node1&#45;&gt;Node208</title>
<path fill="none" stroke="midnightblue" d="M1790.31,-110.54C1818.98,-103.13 1855.73,-91.72 1886,-76 1916.34,-60.25 1946.98,-33.56 1961.81,-19.8"/>
<polygon fill="midnightblue" stroke="midnightblue" points="1789.38,-107.16 1780.53,-112.99 1791.08,-113.95 1789.38,-107.16"/>
</g>
<!-- Node209 -->
<g id="node32" class="node">
<title>Node209</title>
<g id="a_node32"><a xlink:href="_density_buoyancy_8_h.html" target="_top" xlink:title=" ">
<polygon fill="white" stroke="red" points="2038.5,-0.5 2038.5,-19.5 2149.5,-19.5 2149.5,-0.5 2038.5,-0.5"/>
<text text-anchor="middle" x="2094" y="-7.5" font-family="Helvetica,sans-Serif" font-size="10.00">DensityBuoyancy.H</text>
</a>
</g>
</g>
<!-- Node1&#45;&gt;Node209 -->
<g id="edge40" class="edge">
<title>Node1&#45;&gt;Node209</title>
<path fill="none" stroke="midnightblue" d="M1790.74,-118.44C1883.29,-112.99 2079.86,-98.84 2100,-76 2113.79,-60.36 2104.66,-33.62 2098.43,-19.82"/>
<polygon fill="midnightblue" stroke="midnightblue" points="1790.3,-114.96 1780.52,-119.03 1790.7,-121.95 1790.3,-114.96"/>
</g>
<!-- Node211 -->
<g id="node33" class="node">
<title>Node211</title>
<g id="a_node33"><a xlink:href="_gravity_forcing_8_h.html" target="_top" xlink:title=" ">
<polygon fill="white" stroke="red" points="2168,-0.5 2168,-19.5 2266,-19.5 2266,-0.5 2168,-0.5"/>
<text text-anchor="middle" x="2217" y="-7.5" font-family="Helvetica,sans-Serif" font-size="10.00">GravityForcing.H</text>
</a>
</g>
</g>
<!-- Node1&#45;&gt;Node211 -->
<g id="edge41" class="edge">
<title>Node1&#45;&gt;Node211</title>
<path fill="none" stroke="midnightblue" d="M1790.91,-117.99C1878.05,-112.07 2058.96,-97.56 2118,-76 2154.31,-62.74 2190.68,-33.9 2207.44,-19.51"/>
<polygon fill="midnightblue" stroke="midnightblue" points="1790.5,-114.51 1780.76,-118.67 1790.97,-121.49 1790.5,-114.51"/>
</g>
<!-- Node213 -->
<g id="node34" class="node">
<title>Node213</title>
<g id="a_node34"><a xlink:href="_m_m_s_forcing_8_h.html" target="_top" xlink:title=" ">
<polygon fill="white" stroke="red" points="2284,-0.5 2284,-19.5 2370,-19.5 2370,-0.5 2284,-0.5"/>
<text text-anchor="middle" x="2327" y="-7.5" font-family="Helvetica,sans-Serif" font-size="10.00">MMSForcing.H</text>
</a>
</g>
</g>
<!-- Node1&#45;&gt;Node213 -->
<g id="edge53" class="edge">
<title>Node1&#45;&gt;Node213</title>
<path fill="none" stroke="midnightblue" d="M1790.97,-119.49C1867.89,-116.23 2023.15,-106.18 2151,-76 2181.59,-68.78 2266.09,-35.5 2305.83,-19.56"/>
<polygon fill="midnightblue" stroke="midnightblue" points="1790.5,-116.01 1780.65,-119.91 1790.78,-123 1790.5,-116.01"/>
</g>
<!-- Node214 -->
<g id="node35" class="node">
<title>Node214</title>
<g id="a_node35"><a xlink:href="_source_term_8_h.html" target="_top" xlink:title=" ">
<polygon fill="white" stroke="red" points="2223,-56.5 2223,-75.5 2307,-75.5 2307,-56.5 2223,-56.5"/>
<text text-anchor="middle" x="2265" y="-63.5" font-family="Helvetica,sans-Serif" font-size="10.00">SourceTerm.H</text>
</a>
</g>
</g>
<!-- Node1&#45;&gt;Node214 -->
<g id="edge42" class="edge">
<title>Node1&#45;&gt;Node214</title>
<path fill="none" stroke="midnightblue" d="M1790.59,-117.4C1875.03,-110.79 2056.54,-95.59 2209,-76 2213.49,-75.42 2218.18,-74.76 2222.84,-74.07"/>
<polygon fill="midnightblue" stroke="midnightblue" points="1790.24,-113.92 1780.54,-118.18 1790.78,-120.9 1790.24,-113.92"/>
</g>
<!-- Node215 -->
<g id="node36" class="node">
<title>Node215</title>
<g id="a_node36"><a xlink:href="_s_d_r_source_8_h.html" target="_top" xlink:title=" ">
<polygon fill="white" stroke="red" points="2325,-56.5 2325,-75.5 2405,-75.5 2405,-56.5 2325,-56.5"/>
<text text-anchor="middle" x="2365" y="-63.5" font-family="Helvetica,sans-Serif" font-size="10.00">SDRSource.H</text>
</a>
</g>
</g>
<!-- Node1&#45;&gt;Node215 -->
<g id="edge44" class="edge">
<title>Node1&#45;&gt;Node215</title>
<path fill="none" stroke="midnightblue" d="M1790.92,-118.91C1889.54,-114.25 2122.21,-101.34 2316,-76 2318.92,-75.62 2321.92,-75.18 2324.94,-74.71"/>
<polygon fill="midnightblue" stroke="midnightblue" points="1790.51,-115.43 1780.68,-119.39 1790.84,-122.42 1790.51,-115.43"/>
</g>
<!-- Node217 -->
<g id="node37" class="node">
<title>Node217</title>
<g id="a_node37"><a xlink:href="_temperature_source_8_h.html" target="_top" xlink:title=" ">
<polygon fill="white" stroke="red" points="2423,-56.5 2423,-75.5 2545,-75.5 2545,-56.5 2423,-56.5"/>
<text text-anchor="middle" x="2484" y="-63.5" font-family="Helvetica,sans-Serif" font-size="10.00">TemperatureSource.H</text>
</a>
</g>
</g>
<!-- Node1&#45;&gt;Node217 -->
<g id="edge45" class="edge">
<title>Node1&#45;&gt;Node217</title>
<path fill="none" stroke="midnightblue" d="M1790.64,-118.8C1900.62,-113.52 2180.7,-98.8 2414,-76 2416.93,-75.71 2419.92,-75.4 2422.94,-75.07"/>
<polygon fill="midnightblue" stroke="midnightblue" points="1790.35,-115.31 1780.53,-119.29 1790.69,-122.31 1790.35,-115.31"/>
</g>
<!-- Node218 -->
<g id="node38" class="node">
<title>Node218</title>
<g id="a_node38"><a xlink:href="_t_k_e_source_8_h.html" target="_top" xlink:title=" ">
<polygon fill="white" stroke="red" points="2563.5,-56.5 2563.5,-75.5 2642.5,-75.5 2642.5,-56.5 2563.5,-56.5"/>
<text text-anchor="middle" x="2603" y="-63.5" font-family="Helvetica,sans-Serif" font-size="10.00">TKESource.H</text>
</a>
</g>
</g>
<!-- Node1&#45;&gt;Node218 -->
<g id="edge46" class="edge">
<title>Node1&#45;&gt;Node218</title>
<path fill="none" stroke="midnightblue" d="M1790.79,-120.45C1916.32,-118.55 2265.6,-110.35 2554,-76 2557.09,-75.63 2560.28,-75.19 2563.48,-74.7"/>
<polygon fill="midnightblue" stroke="midnightblue" points="1790.69,-116.95 1780.74,-120.6 1790.79,-123.95 1790.69,-116.95"/>
</g>
<!-- Node222 -->
<g id="node39" class="node">
<title>Node222</title>
<g id="a_node39"><a xlink:href="_split_advection_8_h.html" target="_top" xlink:title=" ">
<polygon fill="white" stroke="red" points="2660,-56.5 2660,-75.5 2758,-75.5 2758,-56.5 2660,-56.5"/>
<text text-anchor="middle" x="2709" y="-63.5" font-family="Helvetica,sans-Serif" font-size="10.00">SplitAdvection.H</text>
</a>
</g>
</g>
<!-- Node1&#45;&gt;Node222 -->
<g id="edge47" class="edge">
<title>Node1&#45;&gt;Node222</title>
<path fill="none" stroke="midnightblue" d="M1790.76,-120.39C1926.03,-118.28 2323.13,-109.47 2651,-76 2653.94,-75.7 2656.96,-75.35 2660,-74.97"/>
<polygon fill="midnightblue" stroke="midnightblue" points="1790.68,-116.89 1780.73,-120.54 1790.78,-123.89 1790.68,-116.89"/>
</g>
<!-- Node224 -->
<g id="node40" class="node">
<title>Node224</title>
<g id="a_node40"><a xlink:href="fvm__utils_8_h.html" target="_top" xlink:title=" ">
<polygon fill="white" stroke="red" points="2776.5,-56.5 2776.5,-75.5 2849.5,-75.5 2849.5,-56.5 2776.5,-56.5"/>
<text text-anchor="middle" x="2813" y="-63.5" font-family="Helvetica,sans-Serif" font-size="10.00">fvm_utils.H</text>
</a>
</g>
</g>
<!-- Node1&#45;&gt;Node224 -->
<g id="edge48" class="edge">
<title>Node1&#45;&gt;Node224</title>
<path fill="none" stroke="midnightblue" d="M1790.84,-121.43C1937.4,-122.2 2392.98,-120.55 2767,-76 2770.07,-75.63 2773.24,-75.18 2776.42,-74.67"/>
<polygon fill="midnightblue" stroke="midnightblue" points="1790.84,-117.93 1780.82,-121.37 1790.8,-124.93 1790.84,-117.93"/>
</g>
<!-- Node235 -->
<g id="node41" class="node">
<title>Node235</title>
<g id="a_node41"><a xlink:href="_i_b_8_h.html" target="_top" xlink:title=" ">
<polygon fill="white" stroke="red" points="526.5,-56.5 526.5,-75.5 563.5,-75.5 563.5,-56.5 526.5,-56.5"/>
<text text-anchor="middle" x="545" y="-63.5" font-family="Helvetica,sans-Serif" font-size="10.00">IB.H</text>
</a>
</g>
</g>
<!-- Node1&#45;&gt;Node235 -->
<g id="edge49" class="edge">
<title>Node1&#45;&gt;Node235</title>
<path fill="none" stroke="midnightblue" d="M1695.25,-120.6C1504.77,-118.8 798.77,-109.91 578,-76 573.3,-75.28 568.32,-74.13 563.69,-72.89"/>
<polygon fill="midnightblue" stroke="midnightblue" points="1695.47,-124.11 1705.5,-120.7 1695.53,-117.11 1695.47,-124.11"/>
</g>
<!-- Node236 -->
<g id="node42" class="node">
<title>Node236</title>
<g id="a_node42"><a xlink:href="_linear_profile_8cpp.html" target="_top" xlink:title=" ">
<polygon fill="white" stroke="black" points="2868,-56.5 2868,-75.5 2966,-75.5 2966,-56.5 2868,-56.5"/>
<text text-anchor="middle" x="2917" y="-63.5" font-family="Helvetica,sans-Serif" font-size="10.00">LinearProfile.cpp</text>
</a>
</g>
</g>
<!-- Node1&#45;&gt;Node236 -->
<g id="edge54" class="edge">
<title>Node1&#45;&gt;Node236</title>
<path fill="none" stroke="midnightblue" d="M1790.75,-120.96C1945.35,-120.45 2446.1,-115.6 2858,-76 2861.2,-75.69 2864.49,-75.33 2867.8,-74.92"/>
<polygon fill="midnightblue" stroke="midnightblue" points="1790.63,-117.47 1780.64,-120.99 1790.65,-124.47 1790.63,-117.47"/>
</g>
<!-- Node43 -->
<g id="node43" class="node">
<title>Node43</title>
<g id="a_node43"><a xlink:href="_power_law_profile_8cpp.html" target="_top" xlink:title=" ">
<polygon fill="white" stroke="black" points="2984.5,-56.5 2984.5,-75.5 3101.5,-75.5 3101.5,-56.5 2984.5,-56.5"/>
<text text-anchor="middle" x="3043" y="-63.5" font-family="Helvetica,sans-Serif" font-size="10.00">PowerLawProfile.cpp</text>
</a>
</g>
</g>
<!-- Node1&#45;&gt;Node43 -->
<g id="edge55" class="edge">
<title>Node1&#45;&gt;Node43</title>
<path fill="none" stroke="midnightblue" d="M1790.92,-120.89C1955.83,-120.15 2515.09,-114.75 2975,-76 2978.09,-75.74 2981.25,-75.44 2984.43,-75.11"/>
<polygon fill="midnightblue" stroke="midnightblue" points="1790.61,-117.39 1780.63,-120.93 1790.64,-124.39 1790.61,-117.39"/>
</g>
<!-- Node237 -->
<g id="node44" class="node">
<title>Node237</title>
<g id="a_node44"><a xlink:href="_u_d_f_8cpp.html" target="_top" xlink:title=" ">
<polygon fill="white" stroke="black" points="3120,-56.5 3120,-75.5 3176,-75.5 3176,-56.5 3120,-56.5"/>
<text text-anchor="middle" x="3148" y="-63.5" font-family="Helvetica,sans-Serif" font-size="10.00">UDF.cpp</text>
</a>
</g>
</g>
<!-- Node1&#45;&gt;Node237 -->
<g id="edge56" class="edge">
<title>Node1&#45;&gt;Node237</title>
<path fill="none" stroke="midnightblue" d="M1790.85,-120.71C2001.45,-119.21 2847,-111.11 3110,-76 3113.23,-75.57 3116.58,-74.98 3119.9,-74.32"/>
<polygon fill="midnightblue" stroke="midnightblue" points="1790.71,-117.21 1780.73,-120.78 1790.76,-124.21 1790.71,-117.21"/>
</g>
<!-- Node238 -->
<g id="node45" class="node">
<title>Node238</title>
<g id="a_node45"><a xlink:href="_transport_model_8_h.html" target="_top" xlink:title=" ">
<polygon fill="white" stroke="red" points="3194,-56.5 3194,-75.5 3296,-75.5 3296,-56.5 3194,-56.5"/>
<text text-anchor="middle" x="3245" y="-63.5" font-family="Helvetica,sans-Serif" font-size="10.00">TransportModel.H</text>
</a>
</g>
</g>
<!-- Node1&#45;&gt;Node238 -->
<g id="edge58" class="edge">
<title>Node1&#45;&gt;Node238</title>
<path fill="none" stroke="midnightblue" d="M1790.91,-120.26C2008.52,-116.8 2905.2,-101.26 3185,-76 3187.94,-75.73 3190.95,-75.42 3193.99,-75.07"/>
<polygon fill="midnightblue" stroke="midnightblue" points="1790.72,-116.77 1780.77,-120.42 1790.83,-123.77 1790.72,-116.77"/>
</g>
<!-- Node132 -->
<g id="node46" class="node">
<title>Node132</title>
<g id="a_node46"><a xlink:href="_smagorinsky_8_h.html" target="_top" xlink:title=" ">
<polygon fill="white" stroke="red" points="3314.5,-56.5 3314.5,-75.5 3403.5,-75.5 3403.5,-56.5 3314.5,-56.5"/>
<text text-anchor="middle" x="3359" y="-63.5" font-family="Helvetica,sans-Serif" font-size="10.00">Smagorinsky.H</text>
</a>
</g>
</g>
<!-- Node1&#45;&gt;Node132 -->
<g id="edge59" class="edge">
<title>Node1&#45;&gt;Node132</title>
<path fill="none" stroke="midnightblue" d="M1791.13,-120.5C2020.09,-117.98 3000.49,-105.62 3305,-76 3308.03,-75.71 3311.14,-75.34 3314.27,-74.94"/>
<polygon fill="midnightblue" stroke="midnightblue" points="1790.76,-117 1780.8,-120.61 1790.84,-124 1790.76,-117"/>
</g>
<!-- Node168 -->
<g id="node47" class="node">
<title>Node168</title>
<g id="a_node47"><a xlink:href="_act_src_line_op_8_h.html" target="_top" xlink:title=" ">
<polygon fill="white" stroke="red" points="3422,-56.5 3422,-75.5 3514,-75.5 3514,-56.5 3422,-56.5"/>
<text text-anchor="middle" x="3468" y="-63.5" font-family="Helvetica,sans-Serif" font-size="10.00">ActSrcLineOp.H</text>
</a>
</g>
</g>
<!-- Node1&#45;&gt;Node168 -->
<g id="edge62" class="edge">
<title>Node1&#45;&gt;Node168</title>
<path fill="none" stroke="midnightblue" d="M1790.56,-120.57C2027.79,-118.29 3084.79,-106.57 3412,-76 3415.24,-75.7 3418.57,-75.32 3421.92,-74.9"/>
<polygon fill="midnightblue" stroke="midnightblue" points="1790.49,-117.07 1780.53,-120.66 1790.56,-124.07 1790.49,-117.07"/>
</g>
<!-- Node175 -->
<g id="node48" class="node">
<title>Node175</title>
<g id="a_node48"><a xlink:href="_act_src_disk_op___turbine_8_h.html" target="_top" xlink:title=" ">
<polygon fill="white" stroke="red" points="3532,-56.5 3532,-75.5 3666,-75.5 3666,-56.5 3532,-56.5"/>
<text text-anchor="middle" x="3599" y="-63.5" font-family="Helvetica,sans-Serif" font-size="10.00">ActSrcDiskOp_Turbine.H</text>
</a>
</g>
</g>
<!-- Node1&#45;&gt;Node175 -->
<g id="edge63" class="edge">
<title>Node1&#45;&gt;Node175</title>
<path fill="none" stroke="midnightblue" d="M1790.86,-121.41C1997.85,-122.86 2836.56,-125.22 3523,-76 3525.92,-75.79 3528.89,-75.55 3531.9,-75.29"/>
<polygon fill="midnightblue" stroke="midnightblue" points="1790.67,-117.91 1780.64,-121.34 1790.62,-124.91 1790.67,-117.91"/>
</g>
<!-- Node176 -->
<g id="node49" class="node">
<title>Node176</title>
<g id="a_node49"><a xlink:href="_act_src_disk_op_8_h.html" target="_top" xlink:title=" ">
<polygon fill="white" stroke="red" points="3686.5,-0.5 3686.5,-19.5 3779.5,-19.5 3779.5,-0.5 3686.5,-0.5"/>
<text text-anchor="middle" x="3733" y="-7.5" font-family="Helvetica,sans-Serif" font-size="10.00">ActSrcDiskOp.H</text>
</a>
</g>
</g>
<!-- Node1&#45;&gt;Node176 -->
<g id="edge64" class="edge">
<title>Node1&#45;&gt;Node176</title>
<path fill="none" stroke="midnightblue" d="M1790.69,-120.96C2079.66,-120.59 3586.9,-116.7 3675,-76 3700.81,-64.08 3719.99,-34.61 3728.36,-19.8"/>
<polygon fill="midnightblue" stroke="midnightblue" points="1790.53,-117.46 1780.54,-120.97 1790.54,-124.46 1790.53,-117.46"/>
</g>
<!-- Node242 -->
<g id="node50" class="node">
<title>Node242</title>
<g id="a_node50"><a xlink:href="disk__spreading_8_h.html" target="_top" xlink:title=" ">
<polygon fill="white" stroke="red" points="3722.5,-56.5 3722.5,-75.5 3823.5,-75.5 3823.5,-56.5 3722.5,-56.5"/>
<text text-anchor="middle" x="3773" y="-63.5" font-family="Helvetica,sans-Serif" font-size="10.00">disk_spreading.H</text>
</a>
</g>
</g>
<!-- Node1&#45;&gt;Node242 -->
<g id="edge65" class="edge">
<title>Node1&#45;&gt;Node242</title>
<path fill="none" stroke="midnightblue" d="M1791.13,-120.65C2054.02,-118.61 3318.63,-107.31 3708,-76 3712.66,-75.63 3717.49,-75.14 3722.32,-74.59"/>
<polygon fill="midnightblue" stroke="midnightblue" points="1790.76,-117.15 1780.78,-120.73 1790.81,-124.15 1790.76,-117.15"/>
</g>
<!-- Node3&#45;&gt;Node2 -->
<g id="edge3" class="edge">
<title>Node3&#45;&gt;Node2</title>
<path fill="none" stroke="midnightblue" d="M141.23,-52.37C118.19,-42.26 86.52,-28.35 66.4,-19.52"/>
<polygon fill="midnightblue" stroke="midnightblue" points="139.95,-55.63 150.51,-56.44 142.76,-49.22 139.95,-55.63"/>
</g>
<!-- Node4 -->
<g id="node4" class="node">
<title>Node4</title>
<g id="a_node4"><a xlink:href="_fixed_gradient_b_c_8cpp.html" target="_top" xlink:title=" ">
<polygon fill="white" stroke="black" points="112,-0.5 112,-19.5 230,-19.5 230,-0.5 112,-0.5"/>
<text text-anchor="middle" x="171" y="-7.5" font-family="Helvetica,sans-Serif" font-size="10.00">FixedGradientBC.cpp</text>
</a>
</g>
</g>
<!-- Node3&#45;&gt;Node4 -->
<g id="edge4" class="edge">
<title>Node3&#45;&gt;Node4</title>
<path fill="none" stroke="midnightblue" d="M170.36,-45.8C170.52,-36.91 170.71,-26.78 170.84,-19.75"/>
<polygon fill="midnightblue" stroke="midnightblue" points="166.85,-46.02 170.17,-56.08 173.85,-46.15 166.85,-46.02"/>
</g>
<!-- Node6 -->
<g id="node6" class="node">
<title>Node6</title>
<g id="a_node6"><a xlink:href="icns__bcop_8_h.html" target="_top" xlink:title=" ">
<polygon fill="white" stroke="red" points="248.5,-0.5 248.5,-19.5 323.5,-19.5 323.5,-0.5 248.5,-0.5"/>
<text text-anchor="middle" x="286" y="-7.5" font-family="Helvetica,sans-Serif" font-size="10.00">icns_bcop.H</text>
</a>
</g>
</g>
<!-- Node5&#45;&gt;Node6 -->
<g id="edge6" class="edge">
<title>Node5&#45;&gt;Node6</title>
<path fill="none" stroke="midnightblue" d="M286,-45.8C286,-36.91 286,-26.78 286,-19.75"/>
<polygon fill="midnightblue" stroke="midnightblue" points="282.5,-46.08 286,-56.08 289.5,-46.08 282.5,-46.08"/>
</g>
<!-- Node9 -->
<g id="node8" class="node">
<title>Node9</title>
<g id="a_node8"><a xlink:href="_c_f_d_sim_8cpp.html" target="_top" xlink:title=" ">
<polygon fill="white" stroke="black" points="702,-0.5 702,-19.5 778,-19.5 778,-0.5 702,-0.5"/>
<text text-anchor="middle" x="740" y="-7.5" font-family="Helvetica,sans-Serif" font-size="10.00">CFDSim.cpp</text>
</a>
</g>
</g>
<!-- Node8&#45;&gt;Node9 -->
<g id="edge8" class="edge">
<title>Node8&#45;&gt;Node9</title>
<path fill="none" stroke="midnightblue" d="M706.03,-48.43C714.62,-38.97 725.04,-27.48 732.06,-19.75"/>
<polygon fill="midnightblue" stroke="midnightblue" points="703.22,-46.33 699.09,-56.08 708.4,-51.03 703.22,-46.33"/>
</g>
<!-- Node8&#45;&gt;Node10 -->
<g id="edge9" class="edge">
<title>Node8&#45;&gt;Node10</title>
<path fill="none" stroke="midnightblue" d="M656.17,-53.17C626.23,-43 583.78,-28.59 557.08,-19.52"/>
<polygon fill="midnightblue" stroke="midnightblue" points="655.21,-56.54 665.81,-56.44 657.46,-49.91 655.21,-56.54"/>
</g>
<!-- Node8&#45;&gt;Node88 -->
<g id="edge10" class="edge">
<title>Node8&#45;&gt;Node88</title>
<path fill="none" stroke="midnightblue" d="M647.61,-57.63C595.97,-48.83 507.16,-33.58 431,-20 428.1,-19.48 425.11,-18.95 422.11,-18.4"/>
<polygon fill="midnightblue" stroke="midnightblue" points="647.29,-61.13 657.74,-59.36 648.47,-54.23 647.29,-61.13"/>
</g>
<!-- Node8&#45;&gt;Node102 -->
<g id="edge11" class="edge">
<title>Node8&#45;&gt;Node102</title>
<path fill="none" stroke="midnightblue" d="M647.91,-55.67C608.3,-46.95 548.02,-33.31 496,-20 493.32,-19.31 490.51,-18.57 487.73,-17.81"/>
<polygon fill="midnightblue" stroke="midnightblue" points="647.24,-59.11 657.76,-57.83 648.74,-52.27 647.24,-59.11"/>
</g>
<!-- Node8&#45;&gt;Node105 -->
<g id="edge12" class="edge">
<title>Node8&#45;&gt;Node105</title>
<path fill="none" stroke="midnightblue" d="M673.53,-49.54C662.66,-39.91 649.06,-27.87 639.98,-19.83"/>
<polygon fill="midnightblue" stroke="midnightblue" points="671.39,-52.32 681.2,-56.32 676.03,-47.07 671.39,-52.32"/>
</g>
<!-- Node8&#45;&gt;Node126 -->
<g id="edge13" class="edge">
<title>Node8&#45;&gt;Node126</title>
<path fill="none" stroke="midnightblue" d="M724.22,-53.04C752.45,-42.88 792.26,-28.55 817.34,-19.52"/>
<polygon fill="midnightblue" stroke="midnightblue" points="722.99,-49.76 714.77,-56.44 725.36,-56.35 722.99,-49.76"/>
</g>
<!-- Node8&#45;&gt;Node137 -->
<g id="edge14" class="edge">
<title>Node8&#45;&gt;Node137</title>
<path fill="none" stroke="midnightblue" d="M734.18,-56.1C783.32,-45.97 863.02,-29.55 911.46,-19.56"/>
<polygon fill="midnightblue" stroke="midnightblue" points="733.27,-52.71 724.18,-58.16 734.68,-59.57 733.27,-52.71"/>
</g>
<!-- Node8&#45;&gt;Node138 -->
<g id="edge15" class="edge">
<title>Node8&#45;&gt;Node138</title>
<path fill="none" stroke="midnightblue" d="M734.39,-58.91C804.41,-49.09 942.3,-29.75 1019.76,-18.89"/>
<polygon fill="midnightblue" stroke="midnightblue" points="733.57,-55.49 724.16,-60.35 734.55,-62.43 733.57,-55.49"/>
</g>
<!-- Node8&#45;&gt;Node170 -->
<g id="edge16" class="edge">
<title>Node8&#45;&gt;Node170</title>
<path fill="none" stroke="midnightblue" d="M734.38,-61.91C814.81,-55.89 992.43,-41.32 1141,-20 1144.02,-19.57 1147.14,-19.08 1150.27,-18.56"/>
<polygon fill="midnightblue" stroke="midnightblue" points="733.86,-58.43 724.14,-62.66 734.38,-65.41 733.86,-58.43"/>
</g>
<!-- Node201&#45;&gt;Node88 -->
<g id="edge28" class="edge">
<title>Node201&#45;&gt;Node88</title>
<path fill="none" stroke="midnightblue" d="M413.89,-48.43C405.82,-38.97 396.04,-27.48 389.45,-19.75"/>
<polygon fill="midnightblue" stroke="midnightblue" points="411.25,-50.74 420.4,-56.08 416.58,-46.2 411.25,-50.74"/>
</g>
<!-- Node203&#45;&gt;Node70 -->
<g id="edge31" class="edge">
<title>Node203&#45;&gt;Node70</title>
<path fill="none" stroke="midnightblue" d="M1968.93,-54.85C1904.5,-44.65 1806.28,-29.1 1745.78,-19.52"/>
<polygon fill="midnightblue" stroke="midnightblue" points="1968.54,-58.34 1978.97,-56.44 1969.64,-51.42 1968.54,-58.34"/>
</g>
<!-- Node203&#45;&gt;Node207 -->
<g id="edge32" class="edge">
<title>Node203&#45;&gt;Node207</title>
<path fill="none" stroke="midnightblue" d="M1992.4,-53.7C1955.78,-43.51 1902.74,-28.74 1869.6,-19.52"/>
<polygon fill="midnightblue" stroke="midnightblue" points="1991.69,-57.13 2002.26,-56.44 1993.56,-50.39 1991.69,-57.13"/>
</g>
<!-- Node203&#45;&gt;Node208 -->
<g id="edge33" class="edge">
<title>Node203&#45;&gt;Node208</title>
<path fill="none" stroke="midnightblue" d="M2015.25,-49.54C2004.19,-39.91 1990.37,-27.87 1981.14,-19.83"/>
<polygon fill="midnightblue" stroke="midnightblue" points="2013.2,-52.4 2023.04,-56.32 2017.8,-47.12 2013.2,-52.4"/>
</g>
<!-- Node203&#45;&gt;Node209 -->
<g id="edge34" class="edge">
<title>Node203&#45;&gt;Node209</title>
<path fill="none" stroke="midnightblue" d="M2050.47,-49.54C2061.34,-39.91 2074.94,-27.87 2084.02,-19.83"/>
<polygon fill="midnightblue" stroke="midnightblue" points="2047.97,-47.07 2042.8,-56.32 2052.61,-52.32 2047.97,-47.07"/>
</g>
<!-- Node203&#45;&gt;Node211 -->
<g id="edge35" class="edge">
<title>Node203&#45;&gt;Node211</title>
<path fill="none" stroke="midnightblue" d="M2071.95,-53.57C2106.66,-43.38 2156.68,-28.7 2187.98,-19.52"/>
<polygon fill="midnightblue" stroke="midnightblue" points="2070.77,-50.27 2062.16,-56.44 2072.74,-56.99 2070.77,-50.27"/>
</g>
<!-- Node203&#45;&gt;Node213 -->
<g id="edge36" class="edge">
<title>Node203&#45;&gt;Node213</title>
<path fill="none" stroke="midnightblue" d="M2089.48,-54.63C2146.26,-44.2 2232.53,-28.35 2283.98,-18.9"/>
<polygon fill="midnightblue" stroke="midnightblue" points="2088.79,-51.19 2079.59,-56.44 2090.05,-58.08 2088.79,-51.19"/>
</g>
<!-- Node235&#45;&gt;Node102 -->
<g id="edge50" class="edge">
<title>Node235&#45;&gt;Node102</title>
<path fill="none" stroke="midnightblue" d="M523.43,-50.62C508.64,-40.76 489.49,-27.99 476.98,-19.65"/>
<polygon fill="midnightblue" stroke="midnightblue" points="521.72,-53.69 531.99,-56.32 525.61,-47.86 521.72,-53.69"/>
</g>
<!-- Node242&#45;&gt;Node176 -->
<g id="edge66" class="edge">
<title>Node242&#45;&gt;Node176</title>
<path fill="none" stroke="midnightblue" d="M3760.3,-47.86C3753.37,-38.5 3745.09,-27.33 3739.48,-19.75"/>
<polygon fill="midnightblue" stroke="midnightblue" points="3757.63,-50.13 3766.39,-56.08 3763.25,-45.96 3757.63,-50.13"/>
</g>
</g>
</svg>
