<?xml version="1.0" encoding="UTF-8" standalone="no"?>
<!DOCTYPE svg PUBLIC "-//W3C//DTD SVG 1.1//EN"
 "http://www.w3.org/Graphics/SVG/1.1/DTD/svg11.dtd">
<!-- Generated by graphviz version 2.43.0 (0)
 -->
<!-- Title: Field.H Pages: 1 -->
<svg width="3857pt" height="252pt"
 viewBox="0.00 0.00 3857.39 252.00" xmlns="http://www.w3.org/2000/svg" xmlns:xlink="http://www.w3.org/1999/xlink">
<g id="graph0" class="graph" transform="scale(1 1) rotate(0) translate(4 248)">
<title>Field.H</title>
<polygon fill="white" stroke="transparent" points="-4,4 -4,-248 3853.39,-248 3853.39,4 -4,4"/>
<!-- Node1 -->
<g id="node1" class="node">
<title>Node1</title>
<g id="a_node1"><a xlink:title=" ">
<polygon fill="#bfbfbf" stroke="black" points="2044.89,-224.5 2044.89,-243.5 2094.89,-243.5 2094.89,-224.5 2044.89,-224.5"/>
<text text-anchor="middle" x="2069.89" y="-231.5" font-family="Helvetica,sans-Serif" font-size="10.00">Field.H</text>
</a>
</g>
</g>
<!-- Node2 -->
<g id="node2" class="node">
<title>Node2</title>
<g id="a_node2"><a xlink:href="_b_c_interface_8_h.html" target="_top" xlink:title=" ">
<polygon fill="white" stroke="black" points="6.89,-168.5 6.89,-187.5 90.89,-187.5 90.89,-168.5 6.89,-168.5"/>
<text text-anchor="middle" x="48.89" y="-175.5" font-family="Helvetica,sans-Serif" font-size="10.00">BCInterface.H</text>
</a>
</g>
</g>
<!-- Node1&#45;&gt;Node2 -->
<g id="edge1" class="edge">
<title>Node1&#45;&gt;Node2</title>
<path fill="none" stroke="midnightblue" d="M2034.68,-232.75C1804.14,-231.05 507.38,-220.16 112.89,-188 105.84,-187.43 98.39,-186.59 91.15,-185.65"/>
<polygon fill="midnightblue" stroke="midnightblue" points="2034.82,-236.25 2044.84,-232.83 2034.87,-229.25 2034.82,-236.25"/>
</g>
<!-- Node4 -->
<g id="node4" class="node">
<title>Node4</title>
<g id="a_node4"><a xlink:href="_field_8cpp.html" target="_top" xlink:title=" ">
<polygon fill="white" stroke="black" points="91.89,-112.5 91.89,-131.5 151.89,-131.5 151.89,-112.5 91.89,-112.5"/>
<text text-anchor="middle" x="121.89" y="-119.5" font-family="Helvetica,sans-Serif" font-size="10.00">Field.cpp</text>
</a>
</g>
</g>
<!-- Node1&#45;&gt;Node4 -->
<g id="edge46" class="edge">
<title>Node1&#45;&gt;Node4</title>
<path fill="none" stroke="midnightblue" d="M2034.47,-232.7C1776.12,-230.43 190.5,-215.41 149.89,-188 130.74,-175.08 124.62,-146.08 122.71,-131.59"/>
<polygon fill="midnightblue" stroke="midnightblue" points="2034.75,-236.2 2044.78,-232.79 2034.81,-229.2 2034.75,-236.2"/>
</g>
<!-- Node15 -->
<g id="node6" class="node">
<title>Node15</title>
<g id="a_node6"><a xlink:href="_field_repo_8_h.html" target="_top" xlink:title=" ">
<polygon fill="white" stroke="red" points="956.39,-168.5 956.39,-187.5 1031.39,-187.5 1031.39,-168.5 956.39,-168.5"/>
<text text-anchor="middle" x="993.89" y="-175.5" font-family="Helvetica,sans-Serif" font-size="10.00">FieldRepo.H</text>
</a>
</g>
</g>
<!-- Node1&#45;&gt;Node15 -->
<g id="edge5" class="edge">
<title>Node1&#45;&gt;Node15</title>
<path fill="none" stroke="midnightblue" d="M2034.5,-231.22C1872.06,-223.07 1198.69,-189.28 1031.56,-180.89"/>
<polygon fill="midnightblue" stroke="midnightblue" points="2034.71,-234.74 2044.88,-231.74 2035.06,-227.75 2034.71,-234.74"/>
</g>
<!-- Node72 -->
<g id="node11" class="node">
<title>Node72</title>
<g id="a_node11"><a xlink:href="_field_plane_averaging_8_h.html" target="_top" xlink:title=" ">
<polygon fill="white" stroke="red" points="2169.89,-56.5 2169.89,-75.5 2295.89,-75.5 2295.89,-56.5 2169.89,-56.5"/>
<text text-anchor="middle" x="2232.89" y="-63.5" font-family="Helvetica,sans-Serif" font-size="10.00">FieldPlaneAveraging.H</text>
</a>
</g>
</g>
<!-- Node1&#45;&gt;Node72 -->
<g id="edge50" class="edge">
<title>Node1&#45;&gt;Node72</title>
<path fill="none" stroke="midnightblue" d="M2085.94,-216.65C2120.03,-181.94 2198.62,-101.9 2224.48,-75.57"/>
<polygon fill="midnightblue" stroke="midnightblue" points="2083.16,-214.49 2078.65,-224.08 2088.16,-219.39 2083.16,-214.49"/>
</g>
<!-- Node75 -->
<g id="node12" class="node">
<title>Node75</title>
<g id="a_node12"><a xlink:href="_second_moment_averaging_8_h.html" target="_top" xlink:title=" ">
<polygon fill="white" stroke="red" points="2073.89,-0.5 2073.89,-19.5 2225.89,-19.5 2225.89,-0.5 2073.89,-0.5"/>
<text text-anchor="middle" x="2149.89" y="-7.5" font-family="Helvetica,sans-Serif" font-size="10.00">SecondMomentAveraging.H</text>
</a>
</g>
</g>
<!-- Node1&#45;&gt;Node75 -->
<g id="edge75" class="edge">
<title>Node1&#45;&gt;Node75</title>
<path fill="none" stroke="midnightblue" d="M2076.42,-214.87C2092.73,-169.63 2134.76,-52.99 2146.69,-19.88"/>
<polygon fill="midnightblue" stroke="midnightblue" points="2073.12,-213.7 2073.02,-224.3 2079.71,-216.08 2073.12,-213.7"/>
</g>
<!-- Node77 -->
<g id="node13" class="node">
<title>Node77</title>
<g id="a_node13"><a xlink:href="_third_moment_averaging_8_h.html" target="_top" xlink:title=" ">
<polygon fill="white" stroke="red" points="2248.39,-0.5 2248.39,-19.5 2389.39,-19.5 2389.39,-0.5 2248.39,-0.5"/>
<text text-anchor="middle" x="2318.89" y="-7.5" font-family="Helvetica,sans-Serif" font-size="10.00">ThirdMomentAveraging.H</text>
</a>
</g>
</g>
<!-- Node1&#45;&gt;Node77 -->
<g id="edge76" class="edge">
<title>Node1&#45;&gt;Node77</title>
<path fill="none" stroke="midnightblue" d="M2094.75,-219.57C2149.4,-189.57 2277.31,-116.58 2304.89,-76 2316.7,-58.62 2318.79,-33.1 2319.02,-19.8"/>
<polygon fill="midnightblue" stroke="midnightblue" points="2092.84,-216.63 2085.74,-224.49 2096.19,-222.77 2092.84,-216.63"/>
</g>
<!-- Node79 -->
<g id="node14" class="node">
<title>Node79</title>
<g id="a_node14"><a xlink:href="_a_b_l_boundary_plane_8_h.html" target="_top" xlink:title=" ">
<polygon fill="white" stroke="red" points="1266.39,-56.5 1266.39,-75.5 1385.39,-75.5 1385.39,-56.5 1266.39,-56.5"/>
<text text-anchor="middle" x="1325.89" y="-63.5" font-family="Helvetica,sans-Serif" font-size="10.00">ABLBoundaryPlane.H</text>
</a>
</g>
</g>
<!-- Node1&#45;&gt;Node79 -->
<g id="edge51" class="edge">
<title>Node1&#45;&gt;Node79</title>
<path fill="none" stroke="midnightblue" d="M2034.83,-226.07C1997.66,-218.33 1937.44,-204.67 1886.89,-188 1825.59,-167.79 1811.28,-159.5 1752.89,-132 1735.62,-123.87 1733.13,-117.61 1714.89,-112 1577.66,-69.84 1536.39,-93.42 1393.89,-76 1391.17,-75.67 1388.39,-75.32 1385.58,-74.97"/>
<polygon fill="midnightblue" stroke="midnightblue" points="2034.18,-229.51 2044.68,-228.09 2035.59,-222.65 2034.18,-229.51"/>
</g>
<!-- Node106 -->
<g id="node15" class="node">
<title>Node106</title>
<g id="a_node15"><a xlink:href="_convecting_taylor_vortex_8_h.html" target="_top" xlink:title=" ">
<polygon fill="white" stroke="red" points="1403.39,-56.5 1403.39,-75.5 1546.39,-75.5 1546.39,-56.5 1403.39,-56.5"/>
<text text-anchor="middle" x="1474.89" y="-63.5" font-family="Helvetica,sans-Serif" font-size="10.00">ConvectingTaylorVortex.H</text>
</a>
</g>
</g>
<!-- Node1&#45;&gt;Node106 -->
<g id="edge53" class="edge">
<title>Node1&#45;&gt;Node106</title>
<path fill="none" stroke="midnightblue" d="M2036.66,-220.89C2011.9,-211.85 1977.27,-199.19 1946.89,-188 1879.72,-163.26 1861.95,-159.56 1795.89,-132 1776.44,-123.88 1773.04,-118.19 1752.89,-112 1714.33,-100.16 1609.99,-84.89 1540.68,-75.53"/>
<polygon fill="midnightblue" stroke="midnightblue" points="2035.7,-224.26 2046.3,-224.4 2038.1,-217.69 2035.7,-224.26"/>
</g>
<!-- Node109 -->
<g id="node16" class="node">
<title>Node109</title>
<g id="a_node16"><a xlink:href="_channel_flow_8_h.html" target="_top" xlink:title=" ">
<polygon fill="white" stroke="red" points="1564.39,-56.5 1564.39,-75.5 1653.39,-75.5 1653.39,-56.5 1564.39,-56.5"/>
<text text-anchor="middle" x="1608.89" y="-63.5" font-family="Helvetica,sans-Serif" font-size="10.00">ChannelFlow.H</text>
</a>
</g>
</g>
<!-- Node1&#45;&gt;Node109 -->
<g id="edge55" class="edge">
<title>Node1&#45;&gt;Node109</title>
<path fill="none" stroke="midnightblue" d="M2039.7,-220.37C2021.07,-212.1 1996.98,-200.53 1976.89,-188 1953.65,-173.51 1904.95,-123.03 1879.89,-112 1790.4,-72.63 1759.33,-92.04 1662.89,-76 1659.89,-75.5 1656.79,-74.99 1653.68,-74.47"/>
<polygon fill="midnightblue" stroke="midnightblue" points="2038.33,-223.59 2048.9,-224.38 2041.13,-217.18 2038.33,-223.59"/>
</g>
<!-- Node111 -->
<g id="node17" class="node">
<title>Node111</title>
<g id="a_node17"><a xlink:href="_ekman_spiral_8_h.html" target="_top" xlink:title=" ">
<polygon fill="white" stroke="red" points="1671.39,-56.5 1671.39,-75.5 1760.39,-75.5 1760.39,-56.5 1671.39,-56.5"/>
<text text-anchor="middle" x="1715.89" y="-63.5" font-family="Helvetica,sans-Serif" font-size="10.00">EkmanSpiral.H</text>
</a>
</g>
</g>
<!-- Node1&#45;&gt;Node111 -->
<g id="edge56" class="edge">
<title>Node1&#45;&gt;Node111</title>
<path fill="none" stroke="midnightblue" d="M2047.74,-218.68C2034.74,-210.08 2018.13,-198.76 2003.89,-188 1961.85,-156.23 1960.1,-135.4 1912.89,-112 1886.56,-98.95 1810.35,-83.71 1760.8,-74.74"/>
<polygon fill="midnightblue" stroke="midnightblue" points="2046.19,-221.85 2056.47,-224.41 2050.03,-216 2046.19,-221.85"/>
</g>
<!-- Node114 -->
<g id="node18" class="node">
<title>Node114</title>
<g id="a_node18"><a xlink:href="_hybrid_r_a_n_s_l_e_s_a_b_l_8_h.html" target="_top" xlink:title=" ">
<polygon fill="white" stroke="red" points="1778.39,-56.5 1778.39,-75.5 1901.39,-75.5 1901.39,-56.5 1778.39,-56.5"/>
<text text-anchor="middle" x="1839.89" y="-63.5" font-family="Helvetica,sans-Serif" font-size="10.00">HybridRANSLESABL.H</text>
</a>
</g>
</g>
<!-- Node1&#45;&gt;Node114 -->
<g id="edge58" class="edge">
<title>Node1&#45;&gt;Node114</title>
<path fill="none" stroke="midnightblue" d="M2054.22,-216.98C2022.25,-184.32 1952.4,-113.01 1950.89,-112 1925.83,-95.24 1893.54,-83.03 1870.26,-75.59"/>
<polygon fill="midnightblue" stroke="midnightblue" points="2051.97,-219.69 2061.46,-224.39 2056.97,-214.79 2051.97,-219.69"/>
</g>
<!-- Node116 -->
<g id="node19" class="node">
<title>Node116</title>
<g id="a_node19"><a xlink:href="_m_m_s_8_h.html" target="_top" xlink:title=" ">
<polygon fill="white" stroke="red" points="1919.39,-56.5 1919.39,-75.5 1970.39,-75.5 1970.39,-56.5 1919.39,-56.5"/>
<text text-anchor="middle" x="1944.89" y="-63.5" font-family="Helvetica,sans-Serif" font-size="10.00">MMS.H</text>
</a>
</g>
</g>
<!-- Node1&#45;&gt;Node116 -->
<g id="edge59" class="edge">
<title>Node1&#45;&gt;Node116</title>
<path fill="none" stroke="midnightblue" d="M2059.7,-215.69C2045.19,-191.55 2017.18,-146.84 1988.89,-112 1977.87,-98.43 1963.44,-84.24 1954.16,-75.51"/>
<polygon fill="midnightblue" stroke="midnightblue" points="2056.77,-217.61 2064.89,-224.41 2062.78,-214.03 2056.77,-217.61"/>
</g>
<!-- Node126 -->
<g id="node20" class="node">
<title>Node126</title>
<g id="a_node20"><a xlink:href="_synthetic_turbulence_8_h.html" target="_top" xlink:title=" ">
<polygon fill="white" stroke="red" points="1988.39,-56.5 1988.39,-75.5 2113.39,-75.5 2113.39,-56.5 1988.39,-56.5"/>
<text text-anchor="middle" x="2050.89" y="-63.5" font-family="Helvetica,sans-Serif" font-size="10.00">SyntheticTurbulence.H</text>
</a>
</g>
</g>
<!-- Node1&#45;&gt;Node126 -->
<g id="edge66" class="edge">
<title>Node1&#45;&gt;Node126</title>
<path fill="none" stroke="midnightblue" d="M2067.71,-213.93C2063.58,-177.92 2054.81,-101.23 2051.87,-75.57"/>
<polygon fill="midnightblue" stroke="midnightblue" points="2064.25,-214.54 2068.87,-224.08 2071.21,-213.74 2064.25,-214.54"/>
</g>
<!-- Node140 -->
<g id="node21" class="node">
<title>Node140</title>
<g id="a_node21"><a xlink:href="_re_averaging_8cpp.html" target="_top" xlink:title=" ">
<polygon fill="white" stroke="black" points="506.89,-56.5 506.89,-75.5 604.89,-75.5 604.89,-56.5 506.89,-56.5"/>
<text text-anchor="middle" x="555.89" y="-63.5" font-family="Helvetica,sans-Serif" font-size="10.00">ReAveraging.cpp</text>
</a>
</g>
</g>
<!-- Node1&#45;&gt;Node140 -->
<g id="edge72" class="edge">
<title>Node1&#45;&gt;Node140</title>
<path fill="none" stroke="midnightblue" d="M2034.53,-232.16C1804.02,-226.54 522.79,-192.58 468.89,-132 447.33,-107.77 494.02,-86.76 526.97,-75.58"/>
<polygon fill="midnightblue" stroke="midnightblue" points="2034.62,-235.67 2044.71,-232.41 2034.79,-228.67 2034.62,-235.67"/>
</g>
<!-- Node141 -->
<g id="node22" class="node">
<title>Node141</title>
<g id="a_node22"><a xlink:href="_reynolds_stress_8cpp.html" target="_top" xlink:title=" ">
<polygon fill="white" stroke="black" points="1135.89,-56.5 1135.89,-75.5 1247.89,-75.5 1247.89,-56.5 1135.89,-56.5"/>
<text text-anchor="middle" x="1191.89" y="-63.5" font-family="Helvetica,sans-Serif" font-size="10.00">ReynoldsStress.cpp</text>
</a>
</g>
</g>
<!-- Node1&#45;&gt;Node141 -->
<g id="edge73" class="edge">
<title>Node1&#45;&gt;Node141</title>
<path fill="none" stroke="midnightblue" d="M2034.65,-229.61C1986.67,-224.29 1898.56,-212.02 1826.89,-188 1774.12,-170.31 1763.61,-158.89 1714.89,-132 1699.87,-123.71 1698.2,-117.31 1681.89,-112 1501.63,-53.33 1445.29,-97.01 1256.89,-76 1254.06,-75.68 1251.16,-75.34 1248.24,-74.99"/>
<polygon fill="midnightblue" stroke="midnightblue" points="2034.51,-233.11 2044.82,-230.7 2035.25,-226.15 2034.51,-233.11"/>
</g>
<!-- Node200 -->
<g id="node28" class="node">
<title>Node200</title>
<g id="a_node28"><a xlink:href="_view_field_8cpp.html" target="_top" xlink:title=" ">
<polygon fill="white" stroke="black" points="1262.89,-112.5 1262.89,-131.5 1346.89,-131.5 1346.89,-112.5 1262.89,-112.5"/>
<text text-anchor="middle" x="1304.89" y="-119.5" font-family="Helvetica,sans-Serif" font-size="10.00">ViewField.cpp</text>
</a>
</g>
</g>
<!-- Node1&#45;&gt;Node200 -->
<g id="edge48" class="edge">
<title>Node1&#45;&gt;Node200</title>
<path fill="none" stroke="midnightblue" d="M2034.44,-232.32C1948.46,-230.16 1722.24,-221.48 1536.89,-188 1459.91,-174.1 1371.6,-145.82 1329.59,-131.59"/>
<polygon fill="midnightblue" stroke="midnightblue" points="2034.61,-235.82 2044.69,-232.56 2034.78,-228.82 2034.61,-235.82"/>
</g>
<!-- Node238 -->
<g id="node31" class="node">
<title>Node238</title>
<g id="a_node31"><a xlink:href="_linear_profile_8cpp.html" target="_top" xlink:title=" ">
<polygon fill="white" stroke="black" points="1364.89,-112.5 1364.89,-131.5 1462.89,-131.5 1462.89,-112.5 1364.89,-112.5"/>
<text text-anchor="middle" x="1413.89" y="-119.5" font-family="Helvetica,sans-Serif" font-size="10.00">LinearProfile.cpp</text>
</a>
</g>
</g>
<!-- Node1&#45;&gt;Node238 -->
<g id="edge68" class="edge">
<title>Node1&#45;&gt;Node238</title>
<path fill="none" stroke="midnightblue" d="M2034.7,-232.14C1957.52,-229.68 1767.89,-220.54 1612.89,-188 1546.37,-174.04 1470.85,-145.79 1434.97,-131.58"/>
<polygon fill="midnightblue" stroke="midnightblue" points="2034.73,-235.64 2044.83,-232.44 2034.94,-228.64 2034.73,-235.64"/>
</g>
<!-- Node46 -->
<g id="node32" class="node">
<title>Node46</title>
<g id="a_node32"><a xlink:href="_power_law_profile_8cpp.html" target="_top" xlink:title=" ">
<polygon fill="white" stroke="black" points="1481.39,-112.5 1481.39,-131.5 1598.39,-131.5 1598.39,-112.5 1481.39,-112.5"/>
<text text-anchor="middle" x="1539.89" y="-119.5" font-family="Helvetica,sans-Serif" font-size="10.00">PowerLawProfile.cpp</text>
</a>
</g>
</g>
<!-- Node1&#45;&gt;Node46 -->
<g id="edge69" class="edge">
<title>Node1&#45;&gt;Node46</title>
<path fill="none" stroke="midnightblue" d="M2034.14,-233.49C1962.17,-233.51 1795.39,-228.72 1662.89,-188 1619.72,-174.73 1573.98,-146.17 1552.47,-131.73"/>
<polygon fill="midnightblue" stroke="midnightblue" points="2034.46,-236.99 2044.45,-233.45 2034.44,-229.99 2034.46,-236.99"/>
</g>
<!-- Node239 -->
<g id="node33" class="node">
<title>Node239</title>
<g id="a_node33"><a xlink:href="_u_d_f_8cpp.html" target="_top" xlink:title=" ">
<polygon fill="white" stroke="black" points="1616.89,-112.5 1616.89,-131.5 1672.89,-131.5 1672.89,-112.5 1616.89,-112.5"/>
<text text-anchor="middle" x="1644.89" y="-119.5" font-family="Helvetica,sans-Serif" font-size="10.00">UDF.cpp</text>
</a>
</g>
</g>
<!-- Node1&#45;&gt;Node239 -->
<g id="edge70" class="edge">
<title>Node1&#45;&gt;Node239</title>
<path fill="none" stroke="midnightblue" d="M2034.64,-232.63C1951.25,-231.16 1744.52,-223.9 1686.89,-188 1665.68,-174.79 1653.12,-146.46 1647.83,-131.96"/>
<polygon fill="midnightblue" stroke="midnightblue" points="2034.59,-236.13 2044.64,-232.79 2034.7,-229.13 2034.59,-236.13"/>
</g>
<!-- Node245 -->
<g id="node34" class="node">
<title>Node245</title>
<g id="a_node34"><a xlink:href="_field_b_c_ops_8_h.html" target="_top" xlink:title=" ">
<polygon fill="white" stroke="red" points="287.39,-168.5 287.39,-187.5 370.39,-187.5 370.39,-168.5 287.39,-168.5"/>
<text text-anchor="middle" x="328.89" y="-175.5" font-family="Helvetica,sans-Serif" font-size="10.00">FieldBCOps.H</text>
</a>
</g>
</g>
<!-- Node1&#45;&gt;Node245 -->
<g id="edge39" class="edge">
<title>Node1&#45;&gt;Node245</title>
<path fill="none" stroke="midnightblue" d="M2034.25,-232.76C1859.57,-231.44 1076.3,-223.72 435.89,-188 414.3,-186.8 390.3,-184.83 370.52,-183.05"/>
<polygon fill="midnightblue" stroke="midnightblue" points="2034.39,-236.26 2044.42,-232.84 2034.44,-229.26 2034.39,-236.26"/>
</g>
<!-- Node246 -->
<g id="node35" class="node">
<title>Node246</title>
<g id="a_node35"><a xlink:href="_field_fill_patch_ops_8_h.html" target="_top" xlink:title=" ">
<polygon fill="white" stroke="red" points="158.89,-168.5 158.89,-187.5 268.89,-187.5 268.89,-168.5 158.89,-168.5"/>
<text text-anchor="middle" x="213.89" y="-175.5" font-family="Helvetica,sans-Serif" font-size="10.00">FieldFillPatchOps.H</text>
</a>
</g>
</g>
<!-- Node1&#45;&gt;Node246 -->
<g id="edge43" class="edge">
<title>Node1&#45;&gt;Node246</title>
<path fill="none" stroke="midnightblue" d="M2034.61,-232.67C1815.43,-230.51 637.41,-217.69 277.89,-188 274.98,-187.76 272,-187.48 269,-187.16"/>
<polygon fill="midnightblue" stroke="midnightblue" points="2034.85,-236.17 2044.89,-232.77 2034.92,-229.17 2034.85,-236.17"/>
</g>
<!-- Node247 -->
<g id="node36" class="node">
<title>Node247</title>
<g id="a_node36"><a xlink:href="field__ops_8_h.html" target="_top" xlink:title=" ">
<polygon fill="white" stroke="red" points="2193.39,-168.5 2193.39,-187.5 2264.39,-187.5 2264.39,-168.5 2193.39,-168.5"/>
<text text-anchor="middle" x="2228.89" y="-175.5" font-family="Helvetica,sans-Serif" font-size="10.00">field_ops.H</text>
</a>
</g>
</g>
<!-- Node1&#45;&gt;Node247 -->
<g id="edge47" class="edge">
<title>Node1&#45;&gt;Node247</title>
<path fill="none" stroke="midnightblue" d="M2104.72,-221.17C2134.65,-211 2177.11,-196.59 2203.81,-187.52"/>
<polygon fill="midnightblue" stroke="midnightblue" points="2103.43,-217.91 2095.08,-224.44 2105.68,-224.54 2103.43,-217.91"/>
</g>
<!-- Node248 -->
<g id="node37" class="node">
<title>Node248</title>
<g id="a_node37"><a xlink:href="_a_b_l_field_init_8_h.html" target="_top" xlink:title=" ">
<polygon fill="white" stroke="red" points="2282.39,-168.5 2282.39,-187.5 2367.39,-187.5 2367.39,-168.5 2282.39,-168.5"/>
<text text-anchor="middle" x="2324.89" y="-175.5" font-family="Helvetica,sans-Serif" font-size="10.00">ABLFieldInit.H</text>
</a>
</g>
</g>
<!-- Node1&#45;&gt;Node248 -->
<g id="edge49" class="edge">
<title>Node1&#45;&gt;Node248</title>
<path fill="none" stroke="midnightblue" d="M2105.3,-225.5C2152.35,-215.54 2235.25,-197.98 2284.62,-187.53"/>
<polygon fill="midnightblue" stroke="midnightblue" points="2104.33,-222.13 2095.27,-227.62 2105.78,-228.98 2104.33,-222.13"/>
</g>
<!-- Node250 -->
<g id="node38" class="node">
<title>Node250</title>
<g id="a_node38"><a xlink:href="_multi_phase_8_h.html" target="_top" xlink:title=" ">
<polygon fill="white" stroke="red" points="2385.39,-168.5 2385.39,-187.5 2466.39,-187.5 2466.39,-168.5 2385.39,-168.5"/>
<text text-anchor="middle" x="2425.89" y="-175.5" font-family="Helvetica,sans-Serif" font-size="10.00">MultiPhase.H</text>
</a>
</g>
</g>
<!-- Node1&#45;&gt;Node250 -->
<g id="edge52" class="edge">
<title>Node1&#45;&gt;Node250</title>
<path fill="none" stroke="midnightblue" d="M2104.96,-228.28C2162.04,-220.5 2278.57,-204.23 2376.89,-188 2379.62,-187.55 2382.43,-187.07 2385.27,-186.58"/>
<polygon fill="midnightblue" stroke="midnightblue" points="2104.44,-224.82 2095.01,-229.63 2105.39,-231.75 2104.44,-224.82"/>
</g>
<!-- Node251 -->
<g id="node39" class="node">
<title>Node251</title>
<g id="a_node39"><a xlink:href="_boussinesq_bubble_8_h.html" target="_top" xlink:title=" ">
<polygon fill="white" stroke="red" points="2484.89,-168.5 2484.89,-187.5 2600.89,-187.5 2600.89,-168.5 2484.89,-168.5"/>
<text text-anchor="middle" x="2542.89" y="-175.5" font-family="Helvetica,sans-Serif" font-size="10.00">BoussinesqBubble.H</text>
</a>
</g>
</g>
<!-- Node1&#45;&gt;Node251 -->
<g id="edge54" class="edge">
<title>Node1&#45;&gt;Node251</title>
<path fill="none" stroke="midnightblue" d="M2105.2,-229.36C2175.72,-222.04 2338.97,-204.78 2475.89,-188 2478.8,-187.64 2481.78,-187.27 2484.79,-186.89"/>
<polygon fill="midnightblue" stroke="midnightblue" points="2104.68,-225.9 2095.09,-230.41 2105.4,-232.86 2104.68,-225.9"/>
</g>
<!-- Node252 -->
<g id="node40" class="node">
<title>Node252</title>
<g id="a_node40"><a xlink:href="_free_stream_8_h.html" target="_top" xlink:title=" ">
<polygon fill="white" stroke="red" points="2619.39,-168.5 2619.39,-187.5 2702.39,-187.5 2702.39,-168.5 2619.39,-168.5"/>
<text text-anchor="middle" x="2660.89" y="-175.5" font-family="Helvetica,sans-Serif" font-size="10.00">FreeStream.H</text>
</a>
</g>
</g>
<!-- Node1&#45;&gt;Node252 -->
<g id="edge57" class="edge">
<title>Node1&#45;&gt;Node252</title>
<path fill="none" stroke="midnightblue" d="M2105.04,-231.19C2191.31,-226.5 2420.25,-212.58 2609.89,-188 2612.92,-187.61 2616.05,-187.16 2619.19,-186.68"/>
<polygon fill="midnightblue" stroke="midnightblue" points="2104.8,-227.7 2095.01,-231.73 2105.18,-234.69 2104.8,-227.7"/>
</g>
<!-- Node253 -->
<g id="node41" class="node">
<title>Node253</title>
<g id="a_node41"><a xlink:href="_dam_break_8_h.html" target="_top" xlink:title=" ">
<polygon fill="white" stroke="red" points="2720.39,-168.5 2720.39,-187.5 2799.39,-187.5 2799.39,-168.5 2720.39,-168.5"/>
<text text-anchor="middle" x="2759.89" y="-175.5" font-family="Helvetica,sans-Serif" font-size="10.00">DamBreak.H</text>
</a>
</g>
</g>
<!-- Node1&#45;&gt;Node253 -->
<g id="edge60" class="edge">
<title>Node1&#45;&gt;Node253</title>
<path fill="none" stroke="midnightblue" d="M2105.23,-231.95C2202.4,-228.77 2481.7,-217.55 2711.89,-188 2714.58,-187.65 2717.35,-187.25 2720.13,-186.82"/>
<polygon fill="midnightblue" stroke="midnightblue" points="2104.96,-228.46 2095.08,-232.28 2105.18,-235.46 2104.96,-228.46"/>
</g>
<!-- Node254 -->
<g id="node42" class="node">
<title>Node254</title>
<g id="a_node42"><a xlink:href="_rain_drop_8_h.html" target="_top" xlink:title=" ">
<polygon fill="white" stroke="red" points="2817.89,-168.5 2817.89,-187.5 2889.89,-187.5 2889.89,-168.5 2817.89,-168.5"/>
<text text-anchor="middle" x="2853.89" y="-175.5" font-family="Helvetica,sans-Serif" font-size="10.00">RainDrop.H</text>
</a>
</g>
</g>
<!-- Node1&#45;&gt;Node254 -->
<g id="edge61" class="edge">
<title>Node1&#45;&gt;Node254</title>
<path fill="none" stroke="midnightblue" d="M2105.43,-232.55C2212.29,-230.85 2539.93,-222.92 2808.89,-188 2811.73,-187.63 2814.67,-187.19 2817.61,-186.7"/>
<polygon fill="midnightblue" stroke="midnightblue" points="2105.16,-229.06 2095.21,-232.71 2105.26,-236.06 2105.16,-229.06"/>
</g>
<!-- Node255 -->
<g id="node43" class="node">
<title>Node255</title>
<g id="a_node43"><a xlink:href="_sloshing_tank_8_h.html" target="_top" xlink:title=" ">
<polygon fill="white" stroke="red" points="2908.39,-168.5 2908.39,-187.5 2999.39,-187.5 2999.39,-168.5 2908.39,-168.5"/>
<text text-anchor="middle" x="2953.89" y="-175.5" font-family="Helvetica,sans-Serif" font-size="10.00">SloshingTank.H</text>
</a>
</g>
</g>
<!-- Node1&#45;&gt;Node255 -->
<g id="edge62" class="edge">
<title>Node1&#45;&gt;Node255</title>
<path fill="none" stroke="midnightblue" d="M2105.37,-232.44C2220.33,-230.34 2592.8,-221.25 2898.89,-188 2901.97,-187.67 2905.13,-187.27 2908.32,-186.85"/>
<polygon fill="midnightblue" stroke="midnightblue" points="2105,-228.95 2095.06,-232.62 2105.12,-235.95 2105,-228.95"/>
</g>
<!-- Node256 -->
<g id="node44" class="node">
<title>Node256</title>
<g id="a_node44"><a xlink:href="_vortex_patch_8_h.html" target="_top" xlink:title=" ">
<polygon fill="white" stroke="red" points="3017.39,-168.5 3017.39,-187.5 3102.39,-187.5 3102.39,-168.5 3017.39,-168.5"/>
<text text-anchor="middle" x="3059.89" y="-175.5" font-family="Helvetica,sans-Serif" font-size="10.00">VortexPatch.H</text>
</a>
</g>
</g>
<!-- Node1&#45;&gt;Node256 -->
<g id="edge63" class="edge">
<title>Node1&#45;&gt;Node256</title>
<path fill="none" stroke="midnightblue" d="M2105.08,-232.92C2229.17,-232.29 2657.82,-227.23 3008.89,-188 3011.66,-187.69 3014.51,-187.32 3017.37,-186.92"/>
<polygon fill="midnightblue" stroke="midnightblue" points="2104.99,-229.42 2095.01,-232.96 2105.03,-236.42 2104.99,-229.42"/>
</g>
<!-- Node257 -->
<g id="node45" class="node">
<title>Node257</title>
<g id="a_node45"><a xlink:href="_zalesak_disk_8_h.html" target="_top" xlink:title=" ">
<polygon fill="white" stroke="red" points="3120.89,-168.5 3120.89,-187.5 3208.89,-187.5 3208.89,-168.5 3120.89,-168.5"/>
<text text-anchor="middle" x="3164.89" y="-175.5" font-family="Helvetica,sans-Serif" font-size="10.00">ZalesakDisk.H</text>
</a>
</g>
</g>
<!-- Node1&#45;&gt;Node257 -->
<g id="edge64" class="edge">
<title>Node1&#45;&gt;Node257</title>
<path fill="none" stroke="midnightblue" d="M2105.34,-233.07C2238.15,-233 2718.7,-229.71 3111.89,-188 3114.77,-187.69 3117.72,-187.33 3120.7,-186.93"/>
<polygon fill="midnightblue" stroke="midnightblue" points="2104.97,-229.57 2094.97,-233.07 2104.97,-236.57 2104.97,-229.57"/>
</g>
<!-- Node258 -->
<g id="node46" class="node">
<title>Node258</title>
<g id="a_node46"><a xlink:href="_rayleigh_taylor_8_h.html" target="_top" xlink:title=" ">
<polygon fill="white" stroke="red" points="3226.89,-168.5 3226.89,-187.5 3324.89,-187.5 3324.89,-168.5 3226.89,-168.5"/>
<text text-anchor="middle" x="3275.89" y="-175.5" font-family="Helvetica,sans-Serif" font-size="10.00">RayleighTaylor.H</text>
</a>
</g>
</g>
<!-- Node1&#45;&gt;Node258 -->
<g id="edge65" class="edge">
<title>Node1&#45;&gt;Node258</title>
<path fill="none" stroke="midnightblue" d="M2105.2,-233.09C2245.95,-233.14 2780.6,-230.36 3217.89,-188 3220.73,-187.72 3223.64,-187.4 3226.58,-187.05"/>
<polygon fill="midnightblue" stroke="midnightblue" points="2105.01,-229.59 2095,-233.08 2105,-236.59 2105.01,-229.59"/>
</g>
<!-- Node259 -->
<g id="node47" class="node">
<title>Node259</title>
<g id="a_node47"><a xlink:href="_taylor_green_vortex_8_h.html" target="_top" xlink:title=" ">
<polygon fill="white" stroke="red" points="3343.39,-168.5 3343.39,-187.5 3460.39,-187.5 3460.39,-168.5 3343.39,-168.5"/>
<text text-anchor="middle" x="3401.89" y="-175.5" font-family="Helvetica,sans-Serif" font-size="10.00">TaylorGreenVortex.H</text>
</a>
</g>
</g>
<!-- Node1&#45;&gt;Node259 -->
<g id="edge67" class="edge">
<title>Node1&#45;&gt;Node259</title>
<path fill="none" stroke="midnightblue" d="M2105.26,-232.98C2254.6,-232.65 2848.23,-228.69 3333.89,-188 3336.97,-187.74 3340.13,-187.44 3343.32,-187.11"/>
<polygon fill="midnightblue" stroke="midnightblue" points="2104.88,-229.48 2094.89,-233 2104.9,-236.48 2104.88,-229.48"/>
</g>
<!-- Node260 -->
<g id="node48" class="node">
<title>Node260</title>
<g id="a_node48"><a xlink:href="_vortex_ring_8_h.html" target="_top" xlink:title=" ">
<polygon fill="white" stroke="red" points="3478.89,-168.5 3478.89,-187.5 3558.89,-187.5 3558.89,-168.5 3478.89,-168.5"/>
<text text-anchor="middle" x="3518.89" y="-175.5" font-family="Helvetica,sans-Serif" font-size="10.00">VortexRing.H</text>
</a>
</g>
</g>
<!-- Node1&#45;&gt;Node260 -->
<g id="edge71" class="edge">
<title>Node1&#45;&gt;Node260</title>
<path fill="none" stroke="midnightblue" d="M2105.16,-232.58C2294.67,-230.23 3193.56,-217.65 3469.89,-188 3472.81,-187.69 3475.82,-187.3 3478.85,-186.86"/>
<polygon fill="midnightblue" stroke="midnightblue" points="2104.89,-229.08 2094.94,-232.71 2104.98,-236.08 2104.89,-229.08"/>
</g>
<!-- Node261 -->
<g id="node49" class="node">
<title>Node261</title>
<g id="a_node49"><a xlink:href="_sampling_container_8cpp.html" target="_top" xlink:title=" ">
<polygon fill="white" stroke="black" points="3577.39,-168.5 3577.39,-187.5 3706.39,-187.5 3706.39,-168.5 3577.39,-168.5"/>
<text text-anchor="middle" x="3641.89" y="-175.5" font-family="Helvetica,sans-Serif" font-size="10.00">SamplingContainer.cpp</text>
</a>
</g>
</g>
<!-- Node1&#45;&gt;Node261 -->
<g id="edge74" class="edge">
<title>Node1&#45;&gt;Node261</title>
<path fill="none" stroke="midnightblue" d="M2105.2,-233.12C2270.52,-233.46 2984.62,-232.14 3567.89,-188 3570.99,-187.77 3574.15,-187.5 3577.35,-187.2"/>
<polygon fill="midnightblue" stroke="midnightblue" points="2105.12,-229.62 2095.11,-233.1 2105.1,-236.62 2105.12,-229.62"/>
</g>
<!-- Node262 -->
<g id="node50" class="node">
<title>Node262</title>
<g id="a_node50"><a xlink:href="_actuator_container_8cpp.html" target="_top" xlink:title=" ">
<polygon fill="white" stroke="black" points="3724.39,-168.5 3724.39,-187.5 3849.39,-187.5 3849.39,-168.5 3724.39,-168.5"/>
<text text-anchor="middle" x="3786.89" y="-175.5" font-family="Helvetica,sans-Serif" font-size="10.00">ActuatorContainer.cpp</text>
</a>
</g>
</g>
<!-- Node1&#45;&gt;Node262 -->
<g id="edge77" class="edge">
<title>Node1&#45;&gt;Node262</title>
<path fill="none" stroke="midnightblue" d="M2105.25,-233.33C2280.25,-234.67 3070.97,-237.57 3715.89,-188 3718.61,-187.79 3721.4,-187.55 3724.2,-187.29"/>
<polygon fill="midnightblue" stroke="midnightblue" points="2105.11,-229.82 2095.08,-233.24 2105.05,-236.82 2105.11,-229.82"/>
</g>
<!-- Node3 -->
<g id="node3" class="node">
<title>Node3</title>
<g id="a_node3"><a xlink:href="_b_c_interface_8cpp.html" target="_top" xlink:title=" ">
<polygon fill="white" stroke="black" points="282.89,-56.5 282.89,-75.5 376.89,-75.5 376.89,-56.5 282.89,-56.5"/>
<text text-anchor="middle" x="329.89" y="-63.5" font-family="Helvetica,sans-Serif" font-size="10.00">BCInterface.cpp</text>
</a>
</g>
</g>
<!-- Node2&#45;&gt;Node3 -->
<g id="edge2" class="edge">
<title>Node2&#45;&gt;Node3</title>
<path fill="none" stroke="midnightblue" d="M27.45,-162.21C10.21,-148.54 -9.03,-127.98 4.89,-112 40.34,-71.3 201.39,-66.2 282.67,-66.29"/>
<polygon fill="midnightblue" stroke="midnightblue" points="25.5,-165.12 35.6,-168.32 29.7,-159.52 25.5,-165.12"/>
</g>
<!-- Node2&#45;&gt;Node4 -->
<g id="edge3" class="edge">
<title>Node2&#45;&gt;Node4</title>
<path fill="none" stroke="midnightblue" d="M69.03,-162.1C82.17,-152.38 98.87,-140.03 109.95,-131.83"/>
<polygon fill="midnightblue" stroke="midnightblue" points="66.58,-159.56 60.62,-168.32 70.74,-165.19 66.58,-159.56"/>
</g>
<!-- Node5 -->
<g id="node5" class="node">
<title>Node5</title>
<g id="a_node5"><a xlink:href="_b_c_ops_8_h.html" target="_top" xlink:title=" ">
<polygon fill="white" stroke="red" points="14.39,-112.5 14.39,-131.5 73.39,-131.5 73.39,-112.5 14.39,-112.5"/>
<text text-anchor="middle" x="43.89" y="-119.5" font-family="Helvetica,sans-Serif" font-size="10.00">BCOps.H</text>
</a>
</g>
</g>
<!-- Node2&#45;&gt;Node5 -->
<g id="edge4" class="edge">
<title>Node2&#45;&gt;Node5</title>
<path fill="none" stroke="midnightblue" d="M47.14,-158.1C46.31,-149.14 45.36,-138.86 44.7,-131.75"/>
<polygon fill="midnightblue" stroke="midnightblue" points="43.66,-158.45 48.06,-168.08 50.63,-157.8 43.66,-158.45"/>
</g>
<!-- Node15&#45;&gt;Node3 -->
<g id="edge6" class="edge">
<title>Node15&#45;&gt;Node3</title>
<path fill="none" stroke="midnightblue" d="M945.96,-175.04C834.04,-170.13 558.24,-155.91 468.89,-132 420.51,-119.05 368.22,-90.07 343.86,-75.58"/>
<polygon fill="midnightblue" stroke="midnightblue" points="946.12,-178.55 956.26,-175.49 946.42,-171.56 946.12,-178.55"/>
</g>
<!-- Node15&#45;&gt;Node4 -->
<g id="edge26" class="edge">
<title>Node15&#45;&gt;Node4</title>
<path fill="none" stroke="midnightblue" d="M946.07,-177.3C818.08,-177.47 457.29,-173.89 160.89,-132 158,-131.59 155.01,-131.08 152.03,-130.5"/>
<polygon fill="midnightblue" stroke="midnightblue" points="946.31,-180.8 956.3,-177.27 946.3,-173.8 946.31,-180.8"/>
</g>
<!-- Node16 -->
<g id="node7" class="node">
<title>Node16</title>
<g id="a_node7"><a xlink:href="_fixed_gradient_b_c_8_h.html" target="_top" xlink:title=" ">
<polygon fill="white" stroke="red" points="275.89,-112.5 275.89,-131.5 383.89,-131.5 383.89,-112.5 275.89,-112.5"/>
<text text-anchor="middle" x="329.89" y="-119.5" font-family="Helvetica,sans-Serif" font-size="10.00">FixedGradientBC.H</text>
</a>
</g>
</g>
<!-- Node15&#45;&gt;Node16 -->
<g id="edge7" class="edge">
<title>Node15&#45;&gt;Node16</title>
<path fill="none" stroke="midnightblue" d="M945.95,-174.3C844.62,-168.38 601.24,-153.12 397.89,-132 393.39,-131.53 388.72,-131.01 384.05,-130.45"/>
<polygon fill="midnightblue" stroke="midnightblue" points="945.98,-177.81 956.17,-174.89 946.39,-170.82 945.98,-177.81"/>
</g>
<!-- Node18 -->
<g id="node8" class="node">
<title>Node18</title>
<g id="a_node8"><a xlink:href="velocity__bcs_8_h.html" target="_top" xlink:title=" ">
<polygon fill="white" stroke="red" points="169.89,-112.5 169.89,-131.5 257.89,-131.5 257.89,-112.5 169.89,-112.5"/>
<text text-anchor="middle" x="213.89" y="-119.5" font-family="Helvetica,sans-Serif" font-size="10.00">velocity_bcs.H</text>
</a>
</g>
</g>
<!-- Node15&#45;&gt;Node18 -->
<g id="edge9" class="edge">
<title>Node15&#45;&gt;Node18</title>
<path fill="none" stroke="midnightblue" d="M946.31,-175.81C829.98,-172.51 522.05,-161.48 266.89,-132 264.01,-131.67 261.06,-131.28 258.08,-130.87"/>
<polygon fill="midnightblue" stroke="midnightblue" points="946.21,-179.3 956.31,-176.08 946.41,-172.31 946.21,-179.3"/>
</g>
<!-- Node19 -->
<g id="node9" class="node">
<title>Node19</title>
<g id="a_node9"><a xlink:href="_c_f_d_sim_8_h.html" target="_top" xlink:title=" ">
<polygon fill="white" stroke="red" points="1804.89,-112.5 1804.89,-131.5 1870.89,-131.5 1870.89,-112.5 1804.89,-112.5"/>
<text text-anchor="middle" x="1837.89" y="-119.5" font-family="Helvetica,sans-Serif" font-size="10.00">CFDSim.H</text>
</a>
</g>
</g>
<!-- Node15&#45;&gt;Node19 -->
<g id="edge10" class="edge">
<title>Node15&#45;&gt;Node19</title>
<path fill="none" stroke="midnightblue" d="M1041.58,-173.95C1195.11,-164.13 1674.13,-133.48 1804.72,-125.12"/>
<polygon fill="midnightblue" stroke="midnightblue" points="1041.27,-170.46 1031.52,-174.59 1041.72,-177.45 1041.27,-170.46"/>
</g>
<!-- Node21 -->
<g id="node10" class="node">
<title>Node21</title>
<g id="a_node10"><a xlink:href="incflo_8_h.html" target="_top" xlink:title=" ">
<polygon fill="white" stroke="red" points="1064.39,-56.5 1064.39,-75.5 1117.39,-75.5 1117.39,-56.5 1064.39,-56.5"/>
<text text-anchor="middle" x="1090.89" y="-63.5" font-family="Helvetica,sans-Serif" font-size="10.00">incflo.H</text>
</a>
</g>
</g>
<!-- Node15&#45;&gt;Node21 -->
<g id="edge33" class="edge">
<title>Node15&#45;&gt;Node21</title>
<path fill="none" stroke="midnightblue" d="M1041.61,-165.8C1059.5,-159.08 1078.09,-148.49 1088.89,-132 1100.14,-114.81 1096.41,-89.21 1093.3,-75.84"/>
<polygon fill="midnightblue" stroke="midnightblue" points="1040.12,-162.61 1031.79,-169.16 1042.39,-169.24 1040.12,-162.61"/>
</g>
<!-- Node15&#45;&gt;Node140 -->
<g id="edge37" class="edge">
<title>Node15&#45;&gt;Node140</title>
<path fill="none" stroke="midnightblue" d="M945.98,-174.82C842.05,-169.68 602.89,-155.43 574.89,-132 558.12,-117.97 555.69,-90.01 555.61,-75.77"/>
<polygon fill="midnightblue" stroke="midnightblue" points="946.04,-178.33 956.2,-175.32 946.38,-171.34 946.04,-178.33"/>
</g>
<!-- Node15&#45;&gt;Node141 -->
<g id="edge38" class="edge">
<title>Node15&#45;&gt;Node141</title>
<path fill="none" stroke="midnightblue" d="M1030.92,-165.15C1053.56,-157.2 1082.73,-145.7 1106.89,-132 1136.62,-115.14 1167.52,-88.94 1182.56,-75.53"/>
<polygon fill="midnightblue" stroke="midnightblue" points="1029.65,-161.88 1021.33,-168.44 1031.92,-168.5 1029.65,-161.88"/>
</g>
<!-- Node188 -->
<g id="node23" class="node">
<title>Node188</title>
<g id="a_node23"><a xlink:href="_godunov_8_h.html" target="_top" xlink:title=" ">
<polygon fill="white" stroke="red" points="1174.89,-112.5 1174.89,-131.5 1244.89,-131.5 1244.89,-112.5 1174.89,-112.5"/>
<text text-anchor="middle" x="1209.89" y="-119.5" font-family="Helvetica,sans-Serif" font-size="10.00">Godunov.H</text>
</a>
</g>
</g>
<!-- Node15&#45;&gt;Node188 -->
<g id="edge24" class="edge">
<title>Node15&#45;&gt;Node188</title>
<path fill="none" stroke="midnightblue" d="M1038.05,-165.96C1078.85,-155.76 1138.6,-140.82 1175.82,-131.52"/>
<polygon fill="midnightblue" stroke="midnightblue" points="1036.97,-162.62 1028.11,-168.44 1038.66,-169.41 1036.97,-162.62"/>
</g>
<!-- Node194 -->
<g id="node24" class="node">
<title>Node194</title>
<g id="a_node24"><a xlink:href="_m_o_l_8_h.html" target="_top" xlink:title=" ">
<polygon fill="white" stroke="red" points="478.39,-112.5 478.39,-131.5 527.39,-131.5 527.39,-112.5 478.39,-112.5"/>
<text text-anchor="middle" x="502.89" y="-119.5" font-family="Helvetica,sans-Serif" font-size="10.00">MOL.H</text>
</a>
</g>
</g>
<!-- Node15&#45;&gt;Node194 -->
<g id="edge25" class="edge">
<title>Node15&#45;&gt;Node194</title>
<path fill="none" stroke="midnightblue" d="M946.07,-174.25C863.3,-169.05 688.15,-156.06 541.89,-132 537.23,-131.23 532.29,-130.24 527.55,-129.19"/>
<polygon fill="midnightblue" stroke="midnightblue" points="945.98,-177.75 956.17,-174.88 946.41,-170.77 945.98,-177.75"/>
</g>
<!-- Node197 -->
<g id="node25" class="node">
<title>Node197</title>
<g id="a_node25"><a xlink:href="_field_repo_8cpp.html" target="_top" xlink:title=" ">
<polygon fill="white" stroke="black" points="584.39,-112.5 584.39,-131.5 669.39,-131.5 669.39,-112.5 584.39,-112.5"/>
<text text-anchor="middle" x="626.89" y="-119.5" font-family="Helvetica,sans-Serif" font-size="10.00">FieldRepo.cpp</text>
</a>
</g>
</g>
<!-- Node15&#45;&gt;Node197 -->
<g id="edge27" class="edge">
<title>Node15&#45;&gt;Node197</title>
<path fill="none" stroke="midnightblue" d="M946.13,-170.7C884.19,-162.42 772.82,-147.13 677.89,-132 675.14,-131.56 672.3,-131.1 669.45,-130.62"/>
<polygon fill="midnightblue" stroke="midnightblue" points="946,-174.22 956.37,-172.07 946.92,-167.28 946,-174.22"/>
</g>
<!-- Node198 -->
<g id="node26" class="node">
<title>Node198</title>
<g id="a_node26"><a xlink:href="_int_field_8cpp.html" target="_top" xlink:title=" ">
<polygon fill="white" stroke="black" points="687.39,-112.5 687.39,-131.5 760.39,-131.5 760.39,-112.5 687.39,-112.5"/>
<text text-anchor="middle" x="723.89" y="-119.5" font-family="Helvetica,sans-Serif" font-size="10.00">IntField.cpp</text>
</a>
</g>
</g>
<!-- Node15&#45;&gt;Node198 -->
<g id="edge28" class="edge">
<title>Node15&#45;&gt;Node198</title>
<path fill="none" stroke="midnightblue" d="M946.52,-167.53C893.55,-156.93 808.9,-140 760.68,-130.36"/>
<polygon fill="midnightblue" stroke="midnightblue" points="945.85,-170.96 956.35,-169.49 947.23,-164.1 945.85,-170.96"/>
</g>
<!-- Node199 -->
<g id="node27" class="node">
<title>Node199</title>
<g id="a_node27"><a xlink:href="_scratch_field_8cpp.html" target="_top" xlink:title=" ">
<polygon fill="white" stroke="black" points="778.89,-112.5 778.89,-131.5 874.89,-131.5 874.89,-112.5 778.89,-112.5"/>
<text text-anchor="middle" x="826.89" y="-119.5" font-family="Helvetica,sans-Serif" font-size="10.00">ScratchField.cpp</text>
</a>
</g>
</g>
<!-- Node15&#45;&gt;Node199 -->
<g id="edge29" class="edge">
<title>Node15&#45;&gt;Node199</title>
<path fill="none" stroke="midnightblue" d="M957.72,-165.3C926.25,-155.13 881.39,-140.62 853.23,-131.52"/>
<polygon fill="midnightblue" stroke="midnightblue" points="956.84,-168.7 967.43,-168.44 958.99,-162.04 956.84,-168.7"/>
</g>
<!-- Node15&#45;&gt;Node200 -->
<g id="edge30" class="edge">
<title>Node15&#45;&gt;Node200</title>
<path fill="none" stroke="midnightblue" d="M1041.76,-168.76C1093.93,-159.78 1179.85,-144.94 1253.89,-132 1256.81,-131.49 1259.83,-130.96 1262.87,-130.43"/>
<polygon fill="midnightblue" stroke="midnightblue" points="1041.05,-165.33 1031.79,-170.48 1042.24,-172.23 1041.05,-165.33"/>
</g>
<!-- Node201 -->
<g id="node29" class="node">
<title>Node201</title>
<g id="a_node29"><a xlink:href="field__algebra_8cpp.html" target="_top" xlink:title=" ">
<polygon fill="white" stroke="black" points="892.89,-112.5 892.89,-131.5 992.89,-131.5 992.89,-112.5 892.89,-112.5"/>
<text text-anchor="middle" x="942.89" y="-119.5" font-family="Helvetica,sans-Serif" font-size="10.00">field_algebra.cpp</text>
</a>
</g>
</g>
<!-- Node15&#45;&gt;Node201 -->
<g id="edge31" class="edge">
<title>Node15&#45;&gt;Node201</title>
<path fill="none" stroke="midnightblue" d="M978.51,-160.72C969.52,-151.2 958.53,-139.56 951.15,-131.75"/>
<polygon fill="midnightblue" stroke="midnightblue" points="976.06,-163.22 985.47,-168.08 981.15,-158.41 976.06,-163.22"/>
</g>
<!-- Node202 -->
<g id="node30" class="node">
<title>Node202</title>
<g id="a_node30"><a xlink:href="diffusion_8_h.html" target="_top" xlink:title=" ">
<polygon fill="white" stroke="red" points="1011.39,-112.5 1011.39,-131.5 1080.39,-131.5 1080.39,-112.5 1011.39,-112.5"/>
<text text-anchor="middle" x="1045.89" y="-119.5" font-family="Helvetica,sans-Serif" font-size="10.00">diffusion.H</text>
</a>
</g>
</g>
<!-- Node15&#45;&gt;Node202 -->
<g id="edge32" class="edge">
<title>Node15&#45;&gt;Node202</title>
<path fill="none" stroke="midnightblue" d="M1009.57,-160.72C1018.73,-151.2 1029.94,-139.56 1037.46,-131.75"/>
<polygon fill="midnightblue" stroke="midnightblue" points="1006.89,-158.45 1002.48,-168.08 1011.93,-163.31 1006.89,-158.45"/>
</g>
<!-- Node15&#45;&gt;Node238 -->
<g id="edge34" class="edge">
<title>Node15&#45;&gt;Node238</title>
<path fill="none" stroke="midnightblue" d="M1041.62,-171.53C1110.93,-163.49 1243.43,-147.71 1355.89,-132 1358.82,-131.59 1361.82,-131.16 1364.86,-130.72"/>
<polygon fill="midnightblue" stroke="midnightblue" points="1040.99,-168.08 1031.46,-172.71 1041.8,-175.04 1040.99,-168.08"/>
</g>
<!-- Node15&#45;&gt;Node46 -->
<g id="edge35" class="edge">
<title>Node15&#45;&gt;Node46</title>
<path fill="none" stroke="midnightblue" d="M1041.41,-173.12C1127.39,-165.98 1314.5,-149.82 1471.89,-132 1474.97,-131.65 1478.12,-131.28 1481.3,-130.9"/>
<polygon fill="midnightblue" stroke="midnightblue" points="1041.11,-169.64 1031.43,-173.95 1041.69,-176.61 1041.11,-169.64"/>
</g>
<!-- Node15&#45;&gt;Node239 -->
<g id="edge36" class="edge">
<title>Node15&#45;&gt;Node239</title>
<path fill="none" stroke="midnightblue" d="M1041.66,-176.18C1145.36,-173.82 1398.62,-164.89 1607.89,-132 1610.76,-131.55 1613.74,-130.99 1616.7,-130.36"/>
<polygon fill="midnightblue" stroke="midnightblue" points="1041.43,-172.69 1031.51,-176.4 1041.59,-179.69 1041.43,-172.69"/>
</g>
<!-- Node16&#45;&gt;Node3 -->
<g id="edge8" class="edge">
<title>Node16&#45;&gt;Node3</title>
<path fill="none" stroke="midnightblue" d="M329.89,-101.8C329.89,-92.91 329.89,-82.78 329.89,-75.75"/>
<polygon fill="midnightblue" stroke="midnightblue" points="326.39,-102.08 329.89,-112.08 333.39,-102.08 326.39,-102.08"/>
</g>
<!-- Node19&#45;&gt;Node21 -->
<g id="edge11" class="edge">
<title>Node19&#45;&gt;Node21</title>
<path fill="none" stroke="midnightblue" d="M1794.3,-118.46C1644.75,-109.72 1159.93,-81.13 1126.89,-76 1123.83,-75.53 1120.66,-74.91 1117.51,-74.23"/>
<polygon fill="midnightblue" stroke="midnightblue" points="1794.29,-121.97 1804.47,-119.05 1794.69,-114.98 1794.29,-121.97"/>
</g>
<!-- Node19&#45;&gt;Node72 -->
<g id="edge12" class="edge">
<title>Node19&#45;&gt;Node72</title>
<path fill="none" stroke="midnightblue" d="M1881.48,-115.04C1951.71,-105.44 2090.14,-86.51 2170.71,-75.5"/>
<polygon fill="midnightblue" stroke="midnightblue" points="1880.66,-111.62 1871.23,-116.44 1881.61,-118.56 1880.66,-111.62"/>
</g>
<!-- Node19&#45;&gt;Node79 -->
<g id="edge15" class="edge">
<title>Node19&#45;&gt;Node79</title>
<path fill="none" stroke="midnightblue" d="M1794.84,-116.4C1781.41,-114.97 1766.53,-113.41 1752.89,-112 1593.38,-95.56 1553.17,-94.52 1393.89,-76 1391.17,-75.68 1388.39,-75.35 1385.58,-75.01"/>
<polygon fill="midnightblue" stroke="midnightblue" points="1794.48,-119.88 1804.79,-117.45 1795.22,-112.92 1794.48,-119.88"/>
</g>
<!-- Node19&#45;&gt;Node106 -->
<g id="edge16" class="edge">
<title>Node19&#45;&gt;Node106</title>
<path fill="none" stroke="midnightblue" d="M1794.74,-112.65C1793.44,-112.43 1792.16,-112.21 1790.89,-112 1704.94,-97.66 1605.35,-83.96 1541.31,-75.52"/>
<polygon fill="midnightblue" stroke="midnightblue" points="1794.34,-116.14 1804.8,-114.46 1795.57,-109.25 1794.34,-116.14"/>
</g>
<!-- Node19&#45;&gt;Node109 -->
<g id="edge17" class="edge">
<title>Node19&#45;&gt;Node109</title>
<path fill="none" stroke="midnightblue" d="M1794.66,-110.81C1751.48,-100.62 1685.84,-85.15 1645.26,-75.58"/>
<polygon fill="midnightblue" stroke="midnightblue" points="1794.05,-114.26 1804.59,-113.15 1795.66,-107.45 1794.05,-114.26"/>
</g>
<!-- Node19&#45;&gt;Node111 -->
<g id="edge18" class="edge">
<title>Node19&#45;&gt;Node111</title>
<path fill="none" stroke="midnightblue" d="M1809.35,-108.37C1786.5,-98.26 1755.08,-84.35 1735.13,-75.52"/>
<polygon fill="midnightblue" stroke="midnightblue" points="1808,-111.6 1818.56,-112.44 1810.83,-105.2 1808,-111.6"/>
</g>
<!-- Node19&#45;&gt;Node114 -->
<g id="edge19" class="edge">
<title>Node19&#45;&gt;Node114</title>
<path fill="none" stroke="midnightblue" d="M1838.6,-101.8C1838.93,-92.91 1839.3,-82.78 1839.56,-75.75"/>
<polygon fill="midnightblue" stroke="midnightblue" points="1835.09,-101.96 1838.22,-112.08 1842.09,-102.22 1835.09,-101.96"/>
</g>
<!-- Node19&#45;&gt;Node116 -->
<g id="edge20" class="edge">
<title>Node19&#45;&gt;Node116</title>
<path fill="none" stroke="midnightblue" d="M1864.19,-107.73C1884,-97.73 1910.6,-84.31 1927.74,-75.65"/>
<polygon fill="midnightblue" stroke="midnightblue" points="1862.43,-104.69 1855.08,-112.32 1865.58,-110.94 1862.43,-104.69"/>
</g>
<!-- Node19&#45;&gt;Node126 -->
<g id="edge21" class="edge">
<title>Node19&#45;&gt;Node126</title>
<path fill="none" stroke="midnightblue" d="M1880.95,-110.08C1921.13,-99.9 1980.27,-84.9 2017.14,-75.56"/>
<polygon fill="midnightblue" stroke="midnightblue" points="1880,-106.71 1871.17,-112.56 1881.72,-113.5 1880,-106.71"/>
</g>
<!-- Node19&#45;&gt;Node140 -->
<g id="edge22" class="edge">
<title>Node19&#45;&gt;Node140</title>
<path fill="none" stroke="midnightblue" d="M1794.6,-118.3C1763.29,-116.39 1719.99,-113.86 1681.89,-112 1265.42,-91.67 761.97,-74 605.02,-68.65"/>
<polygon fill="midnightblue" stroke="midnightblue" points="1794.53,-121.8 1804.73,-118.92 1794.96,-114.81 1794.53,-121.8"/>
</g>
<!-- Node19&#45;&gt;Node141 -->
<g id="edge23" class="edge">
<title>Node19&#45;&gt;Node141</title>
<path fill="none" stroke="midnightblue" d="M1794.51,-117.79C1668.8,-108.48 1309.84,-81.71 1256.89,-76 1254.06,-75.69 1251.16,-75.36 1248.23,-75.01"/>
<polygon fill="midnightblue" stroke="midnightblue" points="1794.32,-121.29 1804.55,-118.54 1794.83,-114.31 1794.32,-121.29"/>
</g>
<!-- Node72&#45;&gt;Node75 -->
<g id="edge13" class="edge">
<title>Node72&#45;&gt;Node75</title>
<path fill="none" stroke="midnightblue" d="M2210.79,-50.62C2195.63,-40.76 2176.01,-27.99 2163.19,-19.65"/>
<polygon fill="midnightblue" stroke="midnightblue" points="2209.26,-53.8 2219.55,-56.32 2213.08,-47.94 2209.26,-53.8"/>
</g>
<!-- Node72&#45;&gt;Node77 -->
<g id="edge14" class="edge">
<title>Node72&#45;&gt;Node77</title>
<path fill="none" stroke="midnightblue" d="M2255.34,-50.9C2271.11,-41 2291.7,-28.07 2305.11,-19.65"/>
<polygon fill="midnightblue" stroke="midnightblue" points="2253.31,-48.04 2246.71,-56.32 2257.04,-53.97 2253.31,-48.04"/>
</g>
<!-- Node245&#45;&gt;Node4 -->
<g id="edge42" class="edge">
<title>Node245&#45;&gt;Node4</title>
<path fill="none" stroke="midnightblue" d="M286.36,-165.91C246.39,-155.48 187.58,-140.14 152.18,-130.9"/>
<polygon fill="midnightblue" stroke="midnightblue" points="285.53,-169.31 296.09,-168.44 287.3,-162.53 285.53,-169.31"/>
</g>
<!-- Node245&#45;&gt;Node16 -->
<g id="edge40" class="edge">
<title>Node245&#45;&gt;Node16</title>
<path fill="none" stroke="midnightblue" d="M329.24,-157.8C329.41,-148.91 329.6,-138.78 329.73,-131.75"/>
<polygon fill="midnightblue" stroke="midnightblue" points="325.74,-158.02 329.05,-168.08 332.74,-158.15 325.74,-158.02"/>
</g>
<!-- Node245&#45;&gt;Node18 -->
<g id="edge41" class="edge">
<title>Node245&#45;&gt;Node18</title>
<path fill="none" stroke="midnightblue" d="M301.41,-164.1C279.92,-154.01 250.67,-140.27 232.03,-131.52"/>
<polygon fill="midnightblue" stroke="midnightblue" points="300.13,-167.36 310.67,-168.44 303.1,-161.02 300.13,-167.36"/>
</g>
<!-- Node246&#45;&gt;Node4 -->
<g id="edge45" class="edge">
<title>Node246&#45;&gt;Node4</title>
<path fill="none" stroke="midnightblue" d="M190.34,-163.18C173.41,-153.24 151.11,-140.15 136.63,-131.65"/>
<polygon fill="midnightblue" stroke="midnightblue" points="188.71,-166.28 199.11,-168.32 192.25,-160.24 188.71,-166.28"/>
</g>
<!-- Node246&#45;&gt;Node18 -->
<g id="edge44" class="edge">
<title>Node246&#45;&gt;Node18</title>
<path fill="none" stroke="midnightblue" d="M213.89,-157.8C213.89,-148.91 213.89,-138.78 213.89,-131.75"/>
<polygon fill="midnightblue" stroke="midnightblue" points="210.39,-158.08 213.89,-168.08 217.39,-158.08 210.39,-158.08"/>
</g>
</g>
</svg>
