<?xml version="1.0" encoding="UTF-8" standalone="no"?>
<!DOCTYPE svg PUBLIC "-//W3C//DTD SVG 1.1//EN"
 "http://www.w3.org/Graphics/SVG/1.1/DTD/svg11.dtd">
<!-- Generated by graphviz version 2.43.0 (0)
 -->
<!-- Title: FieldRepo.cpp Pages: 1 -->
<svg width="1663pt" height="252pt"
 viewBox="0.00 0.00 1663.12 252.00" xmlns="http://www.w3.org/2000/svg" xmlns:xlink="http://www.w3.org/1999/xlink">
<g id="graph0" class="graph" transform="scale(1 1) rotate(0) translate(4 248)">
<title>FieldRepo.cpp</title>
<polygon fill="white" stroke="transparent" points="-4,4 -4,-248 1659.12,-248 1659.12,4 -4,4"/>
<!-- Node1 -->
<g id="node1" class="node">
<title>Node1</title>
<g id="a_node1"><a xlink:title=" ">
<polygon fill="#bfbfbf" stroke="black" points="495.5,-224.5 495.5,-243.5 580.5,-243.5 580.5,-224.5 495.5,-224.5"/>
<text text-anchor="middle" x="538" y="-231.5" font-family="Helvetica,sans-Serif" font-size="10.00">FieldRepo.cpp</text>
</a>
</g>
</g>
<!-- Node2 -->
<g id="node2" class="node">
<title>Node2</title>
<g id="a_node2"><a xlink:title=" ">
<polygon fill="white" stroke="#bfbfbf" points="202,-56.5 202,-75.5 260,-75.5 260,-56.5 202,-56.5"/>
<text text-anchor="middle" x="231" y="-63.5" font-family="Helvetica,sans-Serif" font-size="10.00">memory</text>
</a>
</g>
</g>
<!-- Node1&#45;&gt;Node2 -->
<g id="edge1" class="edge">
<title>Node1&#45;&gt;Node2</title>
<path fill="none" stroke="midnightblue" d="M521.93,-224.31C471.57,-197.08 316.61,-113.29 255.83,-80.43"/>
<polygon fill="midnightblue" stroke="midnightblue" points="257.38,-77.28 246.91,-75.61 254.05,-83.44 257.38,-77.28"/>
</g>
<!-- Node3 -->
<g id="node3" class="node">
<title>Node3</title>
<g id="a_node3"><a xlink:href="_field_repo_8_h.html" target="_top" xlink:title=" ">
<polygon fill="white" stroke="black" points="865.5,-168.5 865.5,-187.5 1014.5,-187.5 1014.5,-168.5 865.5,-168.5"/>
<text text-anchor="middle" x="940" y="-175.5" font-family="Helvetica,sans-Serif" font-size="10.00">amr&#45;wind/core/FieldRepo.H</text>
</a>
</g>
</g>
<!-- Node1&#45;&gt;Node3 -->
<g id="edge2" class="edge">
<title>Node1&#45;&gt;Node3</title>
<path fill="none" stroke="midnightblue" d="M580.64,-227.27C648.7,-218.13 782.72,-200.13 866.48,-188.88"/>
<polygon fill="midnightblue" stroke="midnightblue" points="866.99,-192.34 876.43,-187.54 866.06,-185.4 866.99,-192.34"/>
</g>
<!-- Node4 -->
<g id="node4" class="node">
<title>Node4</title>
<g id="a_node4"><a xlink:title=" ">
<polygon fill="white" stroke="#bfbfbf" points="1404,-0.5 1404,-19.5 1448,-19.5 1448,-0.5 1404,-0.5"/>
<text text-anchor="middle" x="1426" y="-7.5" font-family="Helvetica,sans-Serif" font-size="10.00">string</text>
</a>
</g>
</g>
<!-- Node3&#45;&gt;Node4 -->
<g id="edge3" class="edge">
<title>Node3&#45;&gt;Node4</title>
<path fill="none" stroke="midnightblue" d="M1014.87,-176.2C1119.68,-173.84 1315.61,-164.95 1479,-132 1557.81,-116.1 1603.77,-141.05 1651,-76 1656.22,-68.81 1656.64,-62.87 1651,-56 1626.98,-26.7 1514.41,-16.09 1458.16,-12.58"/>
<polygon fill="midnightblue" stroke="midnightblue" points="1458.21,-9.08 1448.02,-11.99 1457.8,-16.07 1458.21,-9.08"/>
</g>
<!-- Node5 -->
<g id="node5" class="node">
<title>Node5</title>
<g id="a_node5"><a xlink:title=" ">
<polygon fill="white" stroke="#bfbfbf" points="278.5,-56.5 278.5,-75.5 371.5,-75.5 371.5,-56.5 278.5,-56.5"/>
<text text-anchor="middle" x="325" y="-63.5" font-family="Helvetica,sans-Serif" font-size="10.00">unordered_map</text>
</a>
</g>
</g>
<!-- Node3&#45;&gt;Node5 -->
<g id="edge4" class="edge">
<title>Node3&#45;&gt;Node5</title>
<path fill="none" stroke="midnightblue" d="M865.38,-169.31C796.26,-161.67 690.77,-148.69 600,-132 516.37,-116.62 419.92,-92.27 366.35,-78.15"/>
<polygon fill="midnightblue" stroke="midnightblue" points="367.1,-74.73 356.54,-75.55 365.31,-81.49 367.1,-74.73"/>
</g>
<!-- Node6 -->
<g id="node6" class="node">
<title>Node6</title>
<g id="a_node6"><a xlink:href="_field_desc_types_8_h.html" target="_top" xlink:title=" ">
<polygon fill="white" stroke="black" points="928,-0.5 928,-19.5 1104,-19.5 1104,-0.5 928,-0.5"/>
<text text-anchor="middle" x="1016" y="-7.5" font-family="Helvetica,sans-Serif" font-size="10.00">amr&#45;wind/core/FieldDescTypes.H</text>
</a>
</g>
</g>
<!-- Node3&#45;&gt;Node6 -->
<g id="edge5" class="edge">
<title>Node3&#45;&gt;Node6</title>
<path fill="none" stroke="midnightblue" d="M939.3,-168.38C938.03,-147.51 937.21,-93.26 959,-56 966.48,-43.2 979.11,-32.67 990.59,-25.02"/>
<polygon fill="midnightblue" stroke="midnightblue" points="992.79,-27.77 999.42,-19.51 989.08,-21.83 992.79,-27.77"/>
</g>
<!-- Node7 -->
<g id="node7" class="node">
<title>Node7</title>
<g id="a_node7"><a xlink:href="_field_utils_8_h.html" target="_top" xlink:title=" ">
<polygon fill="white" stroke="black" points="0,-56.5 0,-75.5 146,-75.5 146,-56.5 0,-56.5"/>
<text text-anchor="middle" x="73" y="-63.5" font-family="Helvetica,sans-Serif" font-size="10.00">amr&#45;wind/core/FieldUtils.H</text>
</a>
</g>
</g>
<!-- Node3&#45;&gt;Node7 -->
<g id="edge6" class="edge">
<title>Node3&#45;&gt;Node7</title>
<path fill="none" stroke="midnightblue" d="M865.24,-175.14C682.83,-170.24 225.07,-155.73 160,-132 131.64,-121.66 104.73,-98.83 88.54,-83.18"/>
<polygon fill="midnightblue" stroke="midnightblue" points="90.65,-80.34 81.11,-75.75 85.71,-85.29 90.65,-80.34"/>
</g>
<!-- Node8 -->
<g id="node8" class="node">
<title>Node8</title>
<g id="a_node8"><a xlink:title=" ">
<polygon fill="white" stroke="#bfbfbf" points="345.5,-0.5 345.5,-19.5 454.5,-19.5 454.5,-0.5 345.5,-0.5"/>
<text text-anchor="middle" x="400" y="-7.5" font-family="Helvetica,sans-Serif" font-size="10.00">AMReX_MultiFab.H</text>
</a>
</g>
</g>
<!-- Node3&#45;&gt;Node8 -->
<g id="edge37" class="edge">
<title>Node3&#45;&gt;Node8</title>
<path fill="none" stroke="midnightblue" d="M865.36,-172.53C684.75,-160.93 235.82,-127.19 193,-76 151.34,-26.19 259.65,-13.99 334.85,-11.33"/>
<polygon fill="midnightblue" stroke="midnightblue" points="335.33,-14.82 345.22,-11.02 335.12,-7.82 335.33,-14.82"/>
</g>
<!-- Node10 -->
<g id="node10" class="node">
<title>Node10</title>
<g id="a_node10"><a xlink:href="_field_8_h.html" target="_top" xlink:title=" ">
<polygon fill="white" stroke="black" points="609,-112.5 609,-131.5 733,-131.5 733,-112.5 609,-112.5"/>
<text text-anchor="middle" x="671" y="-119.5" font-family="Helvetica,sans-Serif" font-size="10.00">amr&#45;wind/core/Field.H</text>
</a>
</g>
</g>
<!-- Node3&#45;&gt;Node10 -->
<g id="edge10" class="edge">
<title>Node3&#45;&gt;Node10</title>
<path fill="none" stroke="midnightblue" d="M897.38,-168.44C850.25,-158.98 774.31,-143.74 723.54,-133.55"/>
<polygon fill="midnightblue" stroke="midnightblue" points="723.92,-130.05 713.42,-131.52 722.54,-136.92 723.92,-130.05"/>
</g>
<!-- Node17 -->
<g id="node17" class="node">
<title>Node17</title>
<g id="a_node17"><a xlink:href="_int_field_8_h.html" target="_top" xlink:title=" ">
<polygon fill="white" stroke="black" points="1025.5,-112.5 1025.5,-131.5 1162.5,-131.5 1162.5,-112.5 1025.5,-112.5"/>
<text text-anchor="middle" x="1094" y="-119.5" font-family="Helvetica,sans-Serif" font-size="10.00">amr&#45;wind/core/IntField.H</text>
</a>
</g>
</g>
<!-- Node3&#45;&gt;Node17 -->
<g id="edge25" class="edge">
<title>Node3&#45;&gt;Node17</title>
<path fill="none" stroke="midnightblue" d="M964.4,-168.44C990.2,-159.4 1031.08,-145.06 1060.02,-134.92"/>
<polygon fill="midnightblue" stroke="midnightblue" points="1061.43,-138.13 1069.71,-131.52 1059.12,-131.52 1061.43,-138.13"/>
</g>
<!-- Node18 -->
<g id="node18" class="node">
<title>Node18</title>
<g id="a_node18"><a xlink:title=" ">
<polygon fill="white" stroke="#bfbfbf" points="968,-56.5 968,-75.5 1080,-75.5 1080,-56.5 968,-56.5"/>
<text text-anchor="middle" x="1024" y="-63.5" font-family="Helvetica,sans-Serif" font-size="10.00">AMReX_iMultiFab.H</text>
</a>
</g>
</g>
<!-- Node3&#45;&gt;Node18 -->
<g id="edge38" class="edge">
<title>Node3&#45;&gt;Node18</title>
<path fill="none" stroke="midnightblue" d="M946.59,-168.37C960.52,-150.14 993.13,-107.43 1011.27,-83.68"/>
<polygon fill="midnightblue" stroke="midnightblue" points="1014.15,-85.66 1017.44,-75.59 1008.59,-81.41 1014.15,-85.66"/>
</g>
<!-- Node19 -->
<g id="node19" class="node">
<title>Node19</title>
<g id="a_node19"><a xlink:href="_scratch_field_8_h.html" target="_top" xlink:title=" ">
<polygon fill="white" stroke="black" points="1182,-112.5 1182,-131.5 1342,-131.5 1342,-112.5 1182,-112.5"/>
<text text-anchor="middle" x="1262" y="-119.5" font-family="Helvetica,sans-Serif" font-size="10.00">amr&#45;wind/core/ScratchField.H</text>
</a>
</g>
</g>
<!-- Node3&#45;&gt;Node19 -->
<g id="edge29" class="edge">
<title>Node3&#45;&gt;Node19</title>
<path fill="none" stroke="midnightblue" d="M991.02,-168.44C1048.02,-158.89 1140.24,-143.42 1201,-133.23"/>
<polygon fill="midnightblue" stroke="midnightblue" points="1201.93,-136.62 1211.22,-131.52 1200.78,-129.72 1201.93,-136.62"/>
</g>
<!-- Node21 -->
<g id="node21" class="node">
<title>Node21</title>
<g id="a_node21"><a xlink:title=" ">
<polygon fill="white" stroke="#bfbfbf" points="1360,-112.5 1360,-131.5 1470,-131.5 1470,-112.5 1360,-112.5"/>
<text text-anchor="middle" x="1415" y="-119.5" font-family="Helvetica,sans-Serif" font-size="10.00">AMReX_AmrCore.H</text>
</a>
</g>
</g>
<!-- Node3&#45;&gt;Node21 -->
<g id="edge36" class="edge">
<title>Node3&#45;&gt;Node21</title>
<path fill="none" stroke="midnightblue" d="M1014.7,-169.52C1094.95,-161.32 1226.49,-147.43 1349.85,-132.11"/>
<polygon fill="midnightblue" stroke="midnightblue" points="1350.37,-135.57 1359.86,-130.86 1349.5,-128.63 1350.37,-135.57"/>
</g>
<!-- Node7&#45;&gt;Node6 -->
<g id="edge7" class="edge">
<title>Node7&#45;&gt;Node6</title>
<path fill="none" stroke="midnightblue" d="M146.28,-59.27C161.71,-58.13 177.89,-56.98 193,-56 454.55,-39.04 763.15,-23.31 917.57,-15.74"/>
<polygon fill="midnightblue" stroke="midnightblue" points="918.15,-19.21 927.97,-15.23 917.81,-12.22 918.15,-19.21"/>
</g>
<!-- Node7&#45;&gt;Node8 -->
<g id="edge8" class="edge">
<title>Node7&#45;&gt;Node8</title>
<path fill="none" stroke="midnightblue" d="M124.81,-56.44C182.82,-46.87 276.74,-31.36 338.44,-21.17"/>
<polygon fill="midnightblue" stroke="midnightblue" points="339.13,-24.6 348.43,-19.52 337.99,-17.69 339.13,-24.6"/>
</g>
<!-- Node9 -->
<g id="node9" class="node">
<title>Node9</title>
<g id="a_node9"><a xlink:title=" ">
<polygon fill="white" stroke="#bfbfbf" points="11,-0.5 11,-19.5 135,-19.5 135,-0.5 11,-0.5"/>
<text text-anchor="middle" x="73" y="-7.5" font-family="Helvetica,sans-Serif" font-size="10.00">AMReX_Interpolater.H</text>
</a>
</g>
</g>
<!-- Node7&#45;&gt;Node9 -->
<g id="edge9" class="edge">
<title>Node7&#45;&gt;Node9</title>
<path fill="none" stroke="midnightblue" d="M73,-56.08C73,-49.01 73,-38.86 73,-29.99"/>
<polygon fill="midnightblue" stroke="midnightblue" points="76.5,-29.75 73,-19.75 69.5,-29.75 76.5,-29.75"/>
</g>
<!-- Node10&#45;&gt;Node2 -->
<g id="edge12" class="edge">
<title>Node10&#45;&gt;Node2</title>
<path fill="none" stroke="midnightblue" d="M608.69,-116.38C531.48,-110.13 395.75,-97.43 270.53,-76.08"/>
<polygon fill="midnightblue" stroke="midnightblue" points="270.84,-72.58 260.39,-74.33 269.64,-79.48 270.84,-72.58"/>
</g>
<!-- Node10&#45;&gt;Node4 -->
<g id="edge11" class="edge">
<title>Node10&#45;&gt;Node4</title>
<path fill="none" stroke="midnightblue" d="M733.09,-118.63C886.57,-112.5 1275.46,-95.28 1331,-76 1339.28,-73.13 1380.78,-43.7 1406.11,-25.44"/>
<polygon fill="midnightblue" stroke="midnightblue" points="1408.26,-28.2 1414.32,-19.51 1404.16,-22.53 1408.26,-28.2"/>
</g>
<!-- Node10&#45;&gt;Node5 -->
<g id="edge13" class="edge">
<title>Node10&#45;&gt;Node5</title>
<path fill="none" stroke="midnightblue" d="M616.18,-112.44C552.05,-102.44 446.45,-85.95 381.58,-75.83"/>
<polygon fill="midnightblue" stroke="midnightblue" points="381.95,-72.35 371.53,-74.26 380.87,-79.26 381.95,-72.35"/>
</g>
<!-- Node10&#45;&gt;Node6 -->
<g id="edge19" class="edge">
<title>Node10&#45;&gt;Node6</title>
<path fill="none" stroke="midnightblue" d="M729.34,-112.46C772.28,-105.23 831.7,-93.28 882,-76 892.9,-72.26 953.58,-42.22 989.44,-24.31"/>
<polygon fill="midnightblue" stroke="midnightblue" points="991.45,-27.22 998.83,-19.62 988.32,-20.96 991.45,-27.22"/>
</g>
<!-- Node10&#45;&gt;Node8 -->
<g id="edge15" class="edge">
<title>Node10&#45;&gt;Node8</title>
<path fill="none" stroke="midnightblue" d="M608.75,-117.29C543.38,-112.14 446.32,-100.53 419,-76 406.03,-64.36 401.71,-44.41 400.37,-29.67"/>
<polygon fill="midnightblue" stroke="midnightblue" points="403.86,-29.44 399.83,-19.65 396.87,-29.82 403.86,-29.44"/>
</g>
<!-- Node11 -->
<g id="node11" class="node">
<title>Node11</title>
<g id="a_node11"><a xlink:title=" ">
<polygon fill="white" stroke="#bfbfbf" points="428,-56.5 428,-75.5 492,-75.5 492,-56.5 428,-56.5"/>
<text text-anchor="middle" x="460" y="-63.5" font-family="Helvetica,sans-Serif" font-size="10.00">algorithm</text>
</a>
</g>
</g>
<!-- Node10&#45;&gt;Node11 -->
<g id="edge14" class="edge">
<title>Node10&#45;&gt;Node11</title>
<path fill="none" stroke="midnightblue" d="M637.57,-112.44C600.9,-103.06 541.99,-87.98 502.17,-77.79"/>
<polygon fill="midnightblue" stroke="midnightblue" points="502.79,-74.34 492.24,-75.25 501.06,-81.12 502.79,-74.34"/>
</g>
<!-- Node12 -->
<g id="node12" class="node">
<title>Node12</title>
<g id="a_node12"><a xlink:title=" ">
<polygon fill="white" stroke="#bfbfbf" points="510.5,-56.5 510.5,-75.5 609.5,-75.5 609.5,-56.5 510.5,-56.5"/>
<text text-anchor="middle" x="560" y="-63.5" font-family="Helvetica,sans-Serif" font-size="10.00">AMReX_BCRec.H</text>
</a>
</g>
</g>
<!-- Node10&#45;&gt;Node12 -->
<g id="edge16" class="edge">
<title>Node10&#45;&gt;Node12</title>
<path fill="none" stroke="midnightblue" d="M653.17,-112.32C635.28,-103.62 607.52,-90.12 586.95,-80.11"/>
<polygon fill="midnightblue" stroke="midnightblue" points="588.31,-76.88 577.79,-75.65 585.25,-83.18 588.31,-76.88"/>
</g>
<!-- Node13 -->
<g id="node13" class="node">
<title>Node13</title>
<g id="a_node13"><a xlink:title=" ">
<polygon fill="white" stroke="#bfbfbf" points="627.5,-56.5 627.5,-75.5 714.5,-75.5 714.5,-56.5 627.5,-56.5"/>
<text text-anchor="middle" x="671" y="-63.5" font-family="Helvetica,sans-Serif" font-size="10.00">AMReX_Gpu.H</text>
</a>
</g>
</g>
<!-- Node10&#45;&gt;Node13 -->
<g id="edge17" class="edge">
<title>Node10&#45;&gt;Node13</title>
<path fill="none" stroke="midnightblue" d="M671,-112.08C671,-105.01 671,-94.86 671,-85.99"/>
<polygon fill="midnightblue" stroke="midnightblue" points="674.5,-85.75 671,-75.75 667.5,-85.75 674.5,-85.75"/>
</g>
<!-- Node14 -->
<g id="node14" class="node">
<title>Node14</title>
<g id="a_node14"><a xlink:href="incflo__enums_8_h.html" target="_top" xlink:title=" ">
<polygon fill="white" stroke="black" points="732.5,-56.5 732.5,-75.5 873.5,-75.5 873.5,-56.5 732.5,-56.5"/>
<text text-anchor="middle" x="803" y="-63.5" font-family="Helvetica,sans-Serif" font-size="10.00">amr&#45;wind/incflo_enums.H</text>
</a>
</g>
</g>
<!-- Node10&#45;&gt;Node14 -->
<g id="edge18" class="edge">
<title>Node10&#45;&gt;Node14</title>
<path fill="none" stroke="midnightblue" d="M691.92,-112.44C713.74,-103.52 748.15,-89.44 772.89,-79.32"/>
<polygon fill="midnightblue" stroke="midnightblue" points="774.25,-82.54 782.18,-75.52 771.6,-76.06 774.25,-82.54"/>
</g>
<!-- Node15 -->
<g id="node15" class="node">
<title>Node15</title>
<g id="a_node15"><a xlink:href="_view_field_8_h.html" target="_top" xlink:title=" ">
<polygon fill="white" stroke="black" points="1174,-56.5 1174,-75.5 1322,-75.5 1322,-56.5 1174,-56.5"/>
<text text-anchor="middle" x="1248" y="-63.5" font-family="Helvetica,sans-Serif" font-size="10.00">amr&#45;wind/core/ViewField.H</text>
</a>
</g>
</g>
<!-- Node10&#45;&gt;Node15 -->
<g id="edge20" class="edge">
<title>Node10&#45;&gt;Node15</title>
<path fill="none" stroke="midnightblue" d="M733.02,-115.2C836.96,-105.47 1046.42,-85.87 1163.65,-74.89"/>
<polygon fill="midnightblue" stroke="midnightblue" points="1164.03,-78.37 1173.66,-73.96 1163.37,-71.4 1164.03,-78.37"/>
</g>
<!-- Node15&#45;&gt;Node4 -->
<g id="edge21" class="edge">
<title>Node15&#45;&gt;Node4</title>
<path fill="none" stroke="midnightblue" d="M1276.2,-56.44C1308.28,-46.71 1360.52,-30.86 1394.07,-20.69"/>
<polygon fill="midnightblue" stroke="midnightblue" points="1395.28,-23.98 1403.83,-17.73 1393.25,-17.28 1395.28,-23.98"/>
</g>
<!-- Node15&#45;&gt;Node6 -->
<g id="edge22" class="edge">
<title>Node15&#45;&gt;Node6</title>
<path fill="none" stroke="midnightblue" d="M1211.24,-56.44C1170.94,-47.06 1106.19,-31.99 1062.42,-21.8"/>
<polygon fill="midnightblue" stroke="midnightblue" points="1063.12,-18.37 1052.59,-19.52 1061.54,-25.19 1063.12,-18.37"/>
</g>
<!-- Node15&#45;&gt;Node8 -->
<g id="edge23" class="edge">
<title>Node15&#45;&gt;Node8</title>
<path fill="none" stroke="midnightblue" d="M1173.6,-57.17C1169,-56.75 1164.44,-56.36 1160,-56 903.13,-35.27 596.7,-20.01 465.19,-13.92"/>
<polygon fill="midnightblue" stroke="midnightblue" points="465.05,-10.41 454.9,-13.44 464.72,-17.4 465.05,-10.41"/>
</g>
<!-- Node16 -->
<g id="node16" class="node">
<title>Node16</title>
<g id="a_node16"><a xlink:title=" ">
<polygon fill="white" stroke="#bfbfbf" points="1243,-0.5 1243,-19.5 1341,-19.5 1341,-0.5 1243,-0.5"/>
<text text-anchor="middle" x="1292" y="-7.5" font-family="Helvetica,sans-Serif" font-size="10.00">AMReX_Vector.H</text>
</a>
</g>
</g>
<!-- Node15&#45;&gt;Node16 -->
<g id="edge24" class="edge">
<title>Node15&#45;&gt;Node16</title>
<path fill="none" stroke="midnightblue" d="M1255.27,-56.08C1261.54,-48.38 1270.79,-37.03 1278.43,-27.65"/>
<polygon fill="midnightblue" stroke="midnightblue" points="1281.27,-29.71 1284.87,-19.75 1275.84,-25.29 1281.27,-29.71"/>
</g>
<!-- Node17&#45;&gt;Node4 -->
<g id="edge26" class="edge">
<title>Node17&#45;&gt;Node4</title>
<path fill="none" stroke="midnightblue" d="M1158.24,-112.47C1232.28,-102.29 1346.1,-85.48 1364,-76 1385.23,-64.76 1403.36,-43.51 1414.43,-28.37"/>
<polygon fill="midnightblue" stroke="midnightblue" points="1417.51,-30.08 1420.38,-19.88 1411.77,-26.06 1417.51,-30.08"/>
</g>
<!-- Node17&#45;&gt;Node6 -->
<g id="edge27" class="edge">
<title>Node17&#45;&gt;Node6</title>
<path fill="none" stroke="midnightblue" d="M1095.68,-112.25C1097.73,-99.02 1099.72,-73.59 1089,-56 1080.16,-41.51 1064.71,-31 1050.3,-23.8"/>
<polygon fill="midnightblue" stroke="midnightblue" points="1051.6,-20.54 1041.06,-19.53 1048.67,-26.9 1051.6,-20.54"/>
</g>
<!-- Node17&#45;&gt;Node18 -->
<g id="edge28" class="edge">
<title>Node17&#45;&gt;Node18</title>
<path fill="none" stroke="midnightblue" d="M1082.75,-112.32C1072.2,-104.18 1056.2,-91.84 1043.56,-82.09"/>
<polygon fill="midnightblue" stroke="midnightblue" points="1045.51,-79.17 1035.45,-75.83 1041.23,-84.71 1045.51,-79.17"/>
</g>
<!-- Node19&#45;&gt;Node4 -->
<g id="edge30" class="edge">
<title>Node19&#45;&gt;Node4</title>
<path fill="none" stroke="midnightblue" d="M1342.1,-112.61C1449.72,-101.16 1628.2,-81.42 1633,-76 1683.02,-19.55 1528.17,-11.64 1458.32,-10.87"/>
<polygon fill="midnightblue" stroke="midnightblue" points="1458.3,-7.37 1448.28,-10.81 1458.25,-14.37 1458.3,-7.37"/>
</g>
<!-- Node19&#45;&gt;Node6 -->
<g id="edge31" class="edge">
<title>Node19&#45;&gt;Node6</title>
<path fill="none" stroke="midnightblue" d="M1283.56,-112.33C1310.25,-100.4 1349.98,-77.88 1331,-56 1303.32,-24.08 1196.26,-14.24 1114.56,-11.49"/>
<polygon fill="midnightblue" stroke="midnightblue" points="1114.33,-7.98 1104.23,-11.17 1114.12,-14.98 1114.33,-7.98"/>
</g>
<!-- Node19&#45;&gt;Node8 -->
<g id="edge33" class="edge">
<title>Node19&#45;&gt;Node8</title>
<path fill="none" stroke="midnightblue" d="M1244.35,-112.37C1213.63,-97.81 1147.96,-68.71 1089,-56 971.06,-30.58 612.6,-17.31 464.79,-12.8"/>
<polygon fill="midnightblue" stroke="midnightblue" points="464.61,-9.3 454.51,-12.49 464.4,-16.29 464.61,-9.3"/>
</g>
<!-- Node19&#45;&gt;Node15 -->
<g id="edge32" class="edge">
<title>Node19&#45;&gt;Node15</title>
<path fill="none" stroke="midnightblue" d="M1259.69,-112.08C1257.83,-104.93 1255.16,-94.64 1252.85,-85.69"/>
<polygon fill="midnightblue" stroke="midnightblue" points="1256.17,-84.55 1250.27,-75.75 1249.39,-86.31 1256.17,-84.55"/>
</g>
<!-- Node19&#45;&gt;Node16 -->
<g id="edge34" class="edge">
<title>Node19&#45;&gt;Node16</title>
<path fill="none" stroke="midnightblue" d="M1342.25,-113.04C1365.23,-106.61 1387.86,-95.39 1402,-76 1421.13,-49.75 1382.4,-32.27 1345.73,-22.11"/>
<polygon fill="midnightblue" stroke="midnightblue" points="1346.55,-18.7 1335.99,-19.56 1344.78,-25.48 1346.55,-18.7"/>
</g>
<!-- Node20 -->
<g id="node20" class="node">
<title>Node20</title>
<g id="a_node20"><a xlink:title=" ">
<polygon fill="white" stroke="#bfbfbf" points="1492.5,-56.5 1492.5,-75.5 1623.5,-75.5 1623.5,-56.5 1492.5,-56.5"/>
<text text-anchor="middle" x="1558" y="-63.5" font-family="Helvetica,sans-Serif" font-size="10.00">AMReX_PhysBCFunct.H</text>
</a>
</g>
</g>
<!-- Node19&#45;&gt;Node20 -->
<g id="edge35" class="edge">
<title>Node19&#45;&gt;Node20</title>
<path fill="none" stroke="midnightblue" d="M1308.9,-112.44C1361.08,-102.92 1445.37,-87.55 1501.23,-77.36"/>
<polygon fill="midnightblue" stroke="midnightblue" points="1502.11,-80.75 1511.32,-75.52 1500.85,-73.87 1502.11,-80.75"/>
</g>
</g>
</svg>
