<?xml version="1.0" encoding="UTF-8" standalone="no"?>
<!DOCTYPE svg PUBLIC "-//W3C//DTD SVG 1.1//EN"
 "http://www.w3.org/Graphics/SVG/1.1/DTD/svg11.dtd">
<!-- Generated by graphviz version 2.43.0 (0)
 -->
<!-- Title: FreeSurface.H Pages: 1 -->
<svg width="2192pt" height="330pt"
 viewBox="0.00 0.00 2191.77 330.00" xmlns="http://www.w3.org/2000/svg" xmlns:xlink="http://www.w3.org/1999/xlink">
<g id="graph0" class="graph" transform="scale(1 1) rotate(0) translate(4 326)">
<title>FreeSurface.H</title>
<polygon fill="white" stroke="transparent" points="-4,4 -4,-326 2187.77,-326 2187.77,4 -4,4"/>
<!-- Node1 -->
<g id="node1" class="node">
<title>Node1</title>
<g id="a_node1"><a xlink:title=" ">
<polygon fill="#bfbfbf" stroke="black" points="1991.51,-302.5 1991.51,-321.5 2076.51,-321.5 2076.51,-302.5 1991.51,-302.5"/>
<text text-anchor="middle" x="2034.01" y="-309.5" font-family="Helvetica,sans-Serif" font-size="10.00">FreeSurface.H</text>
</a>
</g>
</g>
<!-- Node2 -->
<g id="node2" class="node">
<title>Node2</title>
<g id="a_node2"><a xlink:title=" ">
<polygon fill="white" stroke="#bfbfbf" points="1847.01,-56.5 1847.01,-75.5 1905.01,-75.5 1905.01,-56.5 1847.01,-56.5"/>
<text text-anchor="middle" x="1876.01" y="-63.5" font-family="Helvetica,sans-Serif" font-size="10.00">memory</text>
</a>
</g>
</g>
<!-- Node1&#45;&gt;Node2 -->
<g id="edge1" class="edge">
<title>Node1&#45;&gt;Node2</title>
<path fill="none" stroke="midnightblue" d="M2048.14,-302.34C2093.28,-273.63 2227.74,-179.6 2169.01,-112 2133.32,-70.91 1985.7,-85.01 1915.58,-75.85"/>
<polygon fill="midnightblue" stroke="midnightblue" points="1915.84,-72.35 1905.42,-74.25 1914.75,-79.26 1915.84,-72.35"/>
</g>
<!-- Node3 -->
<g id="node3" class="node">
<title>Node3</title>
<g id="a_node3"><a xlink:href="_c_f_d_sim_8_h.html" target="_top" xlink:title=" ">
<polygon fill="white" stroke="black" points="1428.01,-246.5 1428.01,-265.5 1544.01,-265.5 1544.01,-246.5 1428.01,-246.5"/>
<text text-anchor="middle" x="1486.01" y="-253.5" font-family="Helvetica,sans-Serif" font-size="10.00">amr&#45;wind/CFDSim.H</text>
</a>
</g>
</g>
<!-- Node1&#45;&gt;Node3 -->
<g id="edge2" class="edge">
<title>Node1&#45;&gt;Node3</title>
<path fill="none" stroke="midnightblue" d="M1991.47,-306.81C1897,-297.5 1669.05,-275.04 1554.35,-263.73"/>
<polygon fill="midnightblue" stroke="midnightblue" points="1554.58,-260.24 1544.28,-262.74 1553.89,-267.21 1554.58,-260.24"/>
</g>
<!-- Node37 -->
<g id="node37" class="node">
<title>Node37</title>
<g id="a_node37"><a xlink:href="_post_processing_8_h.html" target="_top" xlink:title=" ">
<polygon fill="white" stroke="black" points="1982.01,-179.5 1982.01,-209.5 2086.01,-209.5 2086.01,-179.5 1982.01,-179.5"/>
<text text-anchor="start" x="1990.01" y="-197.5" font-family="Helvetica,sans-Serif" font-size="10.00">amr&#45;wind/utilities</text>
<text text-anchor="middle" x="2034.01" y="-186.5" font-family="Helvetica,sans-Serif" font-size="10.00">/PostProcessing.H</text>
</a>
</g>
</g>
<!-- Node1&#45;&gt;Node37 -->
<g id="edge67" class="edge">
<title>Node1&#45;&gt;Node37</title>
<path fill="none" stroke="midnightblue" d="M2034.01,-302.32C2034.01,-284.97 2034.01,-245.46 2034.01,-219.66"/>
<polygon fill="midnightblue" stroke="midnightblue" points="2037.51,-219.55 2034.01,-209.55 2030.51,-219.55 2037.51,-219.55"/>
</g>
<!-- Node4 -->
<g id="node4" class="node">
<title>Node4</title>
<g id="a_node4"><a xlink:title=" ">
<polygon fill="white" stroke="#bfbfbf" points="983.01,-118 983.01,-137 1093.01,-137 1093.01,-118 983.01,-118"/>
<text text-anchor="middle" x="1038.01" y="-125" font-family="Helvetica,sans-Serif" font-size="10.00">AMReX_AmrCore.H</text>
</a>
</g>
</g>
<!-- Node3&#45;&gt;Node4 -->
<g id="edge3" class="edge">
<title>Node3&#45;&gt;Node4</title>
<path fill="none" stroke="midnightblue" d="M1441.34,-246.47C1399.99,-238.26 1336.95,-224.91 1283.01,-210 1205.93,-188.7 1117.29,-157.5 1070.65,-140.55"/>
<polygon fill="midnightblue" stroke="midnightblue" points="1071.67,-137.2 1061.08,-137.06 1069.27,-143.78 1071.67,-137.2"/>
</g>
<!-- Node5 -->
<g id="node5" class="node">
<title>Node5</title>
<g id="a_node5"><a xlink:href="_sim_time_8_h.html" target="_top" xlink:title=" ">
<polygon fill="white" stroke="black" points="1292.01,-185 1292.01,-204 1436.01,-204 1436.01,-185 1292.01,-185"/>
<text text-anchor="middle" x="1364.01" y="-192" font-family="Helvetica,sans-Serif" font-size="10.00">amr&#45;wind/core/SimTime.H</text>
</a>
</g>
</g>
<!-- Node3&#45;&gt;Node5 -->
<g id="edge4" class="edge">
<title>Node3&#45;&gt;Node5</title>
<path fill="none" stroke="midnightblue" d="M1468.53,-246.48C1448.15,-236.53 1414.24,-219.99 1390.59,-208.46"/>
<polygon fill="midnightblue" stroke="midnightblue" points="1391.98,-205.25 1381.46,-204.01 1388.92,-211.54 1391.98,-205.25"/>
</g>
<!-- Node9 -->
<g id="node9" class="node">
<title>Node9</title>
<g id="a_node9"><a xlink:href="_field_repo_8_h.html" target="_top" xlink:title=" ">
<polygon fill="white" stroke="black" points="512.51,-185 512.51,-204 661.51,-204 661.51,-185 512.51,-185"/>
<text text-anchor="middle" x="587.01" y="-192" font-family="Helvetica,sans-Serif" font-size="10.00">amr&#45;wind/core/FieldRepo.H</text>
</a>
</g>
</g>
<!-- Node3&#45;&gt;Node9 -->
<g id="edge8" class="edge">
<title>Node3&#45;&gt;Node9</title>
<path fill="none" stroke="midnightblue" d="M1427.72,-251.14C1273.26,-240.92 852.88,-213.1 671.83,-201.11"/>
<polygon fill="midnightblue" stroke="midnightblue" points="672.03,-197.62 661.82,-200.45 671.57,-204.6 672.03,-197.62"/>
</g>
<!-- Node27 -->
<g id="node27" class="node">
<title>Node27</title>
<g id="a_node27"><a xlink:href="_p_d_e_base_8_h.html" target="_top" xlink:title=" ">
<polygon fill="white" stroke="black" points="1670.51,-179.5 1670.51,-209.5 1825.51,-209.5 1825.51,-179.5 1670.51,-179.5"/>
<text text-anchor="start" x="1678.51" y="-197.5" font-family="Helvetica,sans-Serif" font-size="10.00">amr&#45;wind/equation_systems</text>
<text text-anchor="middle" x="1748.01" y="-186.5" font-family="Helvetica,sans-Serif" font-size="10.00">/PDEBase.H</text>
</a>
</g>
</g>
<!-- Node3&#45;&gt;Node27 -->
<g id="edge45" class="edge">
<title>Node3&#45;&gt;Node27</title>
<path fill="none" stroke="midnightblue" d="M1523.55,-246.48C1563.27,-237.46 1626.89,-223.01 1676.27,-211.79"/>
<polygon fill="midnightblue" stroke="midnightblue" points="1677.29,-215.15 1686.27,-209.52 1675.74,-208.32 1677.29,-215.15"/>
</g>
<!-- Node35 -->
<g id="node35" class="node">
<title>Node35</title>
<g id="a_node35"><a xlink:href="_physics_8_h.html" target="_top" xlink:title=" ">
<polygon fill="white" stroke="black" points="1496.51,-185 1496.51,-204 1633.51,-204 1633.51,-185 1496.51,-185"/>
<text text-anchor="middle" x="1565.01" y="-192" font-family="Helvetica,sans-Serif" font-size="10.00">amr&#45;wind/core/Physics.H</text>
</a>
</g>
</g>
<!-- Node3&#45;&gt;Node35 -->
<g id="edge62" class="edge">
<title>Node3&#45;&gt;Node35</title>
<path fill="none" stroke="midnightblue" d="M1497.33,-246.48C1509.89,-237.02 1530.37,-221.6 1545.51,-210.19"/>
<polygon fill="midnightblue" stroke="midnightblue" points="1547.83,-212.82 1553.72,-204.01 1543.62,-207.23 1547.83,-212.82"/>
</g>
<!-- Node6 -->
<g id="node6" class="node">
<title>Node6</title>
<g id="a_node6"><a xlink:title=" ">
<polygon fill="white" stroke="#bfbfbf" points="1397.01,-118 1397.01,-137 1489.01,-137 1489.01,-118 1397.01,-118"/>
<text text-anchor="middle" x="1443.01" y="-125" font-family="Helvetica,sans-Serif" font-size="10.00">AMReX_REAL.H</text>
</a>
</g>
</g>
<!-- Node5&#45;&gt;Node6 -->
<g id="edge5" class="edge">
<title>Node5&#45;&gt;Node6</title>
<path fill="none" stroke="midnightblue" d="M1374.67,-184.73C1387.46,-174.21 1409.13,-156.38 1424.64,-143.62"/>
<polygon fill="midnightblue" stroke="midnightblue" points="1427.03,-146.18 1432.53,-137.13 1422.58,-140.78 1427.03,-146.18"/>
</g>
<!-- Node7 -->
<g id="node7" class="node">
<title>Node7</title>
<g id="a_node7"><a xlink:title=" ">
<polygon fill="white" stroke="#bfbfbf" points="1111.01,-118 1111.01,-137 1245.01,-137 1245.01,-118 1111.01,-118"/>
<text text-anchor="middle" x="1178.01" y="-125" font-family="Helvetica,sans-Serif" font-size="10.00">AMReX_GpuQualifiers.H</text>
</a>
</g>
</g>
<!-- Node5&#45;&gt;Node7 -->
<g id="edge6" class="edge">
<title>Node5&#45;&gt;Node7</title>
<path fill="none" stroke="midnightblue" d="M1339.32,-184.87C1306.71,-173.47 1249.13,-153.35 1212.32,-140.49"/>
<polygon fill="midnightblue" stroke="midnightblue" points="1213.11,-137.06 1202.52,-137.06 1210.81,-143.67 1213.11,-137.06"/>
</g>
<!-- Node8 -->
<g id="node8" class="node">
<title>Node8</title>
<g id="a_node8"><a xlink:title=" ">
<polygon fill="white" stroke="#bfbfbf" points="1263.01,-118 1263.01,-137 1379.01,-137 1379.01,-118 1263.01,-118"/>
<text text-anchor="middle" x="1321.01" y="-125" font-family="Helvetica,sans-Serif" font-size="10.00">AMReX_Extension.H</text>
</a>
</g>
</g>
<!-- Node5&#45;&gt;Node8 -->
<g id="edge7" class="edge">
<title>Node5&#45;&gt;Node8</title>
<path fill="none" stroke="midnightblue" d="M1358.22,-184.73C1351.64,-174.79 1340.75,-158.34 1332.45,-145.79"/>
<polygon fill="midnightblue" stroke="midnightblue" points="1335.16,-143.54 1326.72,-137.13 1329.32,-147.4 1335.16,-143.54"/>
</g>
<!-- Node9&#45;&gt;Node4 -->
<g id="edge42" class="edge">
<title>Node9&#45;&gt;Node4</title>
<path fill="none" stroke="midnightblue" d="M661.57,-185.34C738.75,-176.49 862.69,-161.17 969.01,-143 975.74,-141.85 982.81,-140.51 989.76,-139.12"/>
<polygon fill="midnightblue" stroke="midnightblue" points="990.7,-142.51 999.79,-137.07 989.29,-135.65 990.7,-142.51"/>
</g>
<!-- Node10 -->
<g id="node10" class="node">
<title>Node10</title>
<g id="a_node10"><a xlink:title=" ">
<polygon fill="white" stroke="#bfbfbf" points="1334.01,-0.5 1334.01,-19.5 1378.01,-19.5 1378.01,-0.5 1334.01,-0.5"/>
<text text-anchor="middle" x="1356.01" y="-7.5" font-family="Helvetica,sans-Serif" font-size="10.00">string</text>
</a>
</g>
</g>
<!-- Node9&#45;&gt;Node10 -->
<g id="edge9" class="edge">
<title>Node9&#45;&gt;Node10</title>
<path fill="none" stroke="midnightblue" d="M661.72,-193.48C727.14,-190.72 823.18,-179.85 898.01,-143 916.07,-134.11 912.63,-120.19 931.01,-112 1018,-73.25 1293.57,-146.11 1358.01,-76 1369.22,-63.81 1366.93,-44.26 1362.93,-29.78"/>
<polygon fill="midnightblue" stroke="midnightblue" points="1366.14,-28.34 1359.74,-19.9 1359.48,-30.5 1366.14,-28.34"/>
</g>
<!-- Node11 -->
<g id="node11" class="node">
<title>Node11</title>
<g id="a_node11"><a xlink:title=" ">
<polygon fill="white" stroke="#bfbfbf" points="1581.51,-56.5 1581.51,-75.5 1674.51,-75.5 1674.51,-56.5 1581.51,-56.5"/>
<text text-anchor="middle" x="1628.01" y="-63.5" font-family="Helvetica,sans-Serif" font-size="10.00">unordered_map</text>
</a>
</g>
</g>
<!-- Node9&#45;&gt;Node11 -->
<g id="edge10" class="edge">
<title>Node9&#45;&gt;Node11</title>
<path fill="none" stroke="midnightblue" d="M661.82,-192.68C733.36,-189.57 843.05,-178.67 931.01,-143 952.85,-134.15 951.82,-119.91 974.01,-112 1096.48,-68.35 1423.85,-89.53 1571.03,-75.9"/>
<polygon fill="midnightblue" stroke="midnightblue" points="1571.71,-79.35 1581.31,-74.86 1571.01,-72.39 1571.71,-79.35"/>
</g>
<!-- Node12 -->
<g id="node12" class="node">
<title>Node12</title>
<g id="a_node12"><a xlink:href="_field_desc_types_8_h.html" target="_top" xlink:title=" ">
<polygon fill="white" stroke="black" points="531.01,-0.5 531.01,-19.5 707.01,-19.5 707.01,-0.5 531.01,-0.5"/>
<text text-anchor="middle" x="619.01" y="-7.5" font-family="Helvetica,sans-Serif" font-size="10.00">amr&#45;wind/core/FieldDescTypes.H</text>
</a>
</g>
</g>
<!-- Node9&#45;&gt;Node12 -->
<g id="edge11" class="edge">
<title>Node9&#45;&gt;Node12</title>
<path fill="none" stroke="midnightblue" d="M565.76,-184.93C517.81,-164.38 408.53,-109.97 450.01,-56 462.24,-40.1 506.85,-28.63 547.17,-21.24"/>
<polygon fill="midnightblue" stroke="midnightblue" points="547.79,-24.69 557.03,-19.5 546.58,-17.79 547.79,-24.69"/>
</g>
<!-- Node13 -->
<g id="node13" class="node">
<title>Node13</title>
<g id="a_node13"><a xlink:href="_field_utils_8_h.html" target="_top" xlink:title=" ">
<polygon fill="white" stroke="black" points="13.01,-56.5 13.01,-75.5 159.01,-75.5 159.01,-56.5 13.01,-56.5"/>
<text text-anchor="middle" x="86.01" y="-63.5" font-family="Helvetica,sans-Serif" font-size="10.00">amr&#45;wind/core/FieldUtils.H</text>
</a>
</g>
</g>
<!-- Node9&#45;&gt;Node13 -->
<g id="edge12" class="edge">
<title>Node9&#45;&gt;Node13</title>
<path fill="none" stroke="midnightblue" d="M512.39,-189.66C410.02,-183.5 232.03,-169.33 173.01,-143 142.79,-129.52 115.39,-101.84 99.72,-83.87"/>
<polygon fill="midnightblue" stroke="midnightblue" points="102.14,-81.31 93.01,-75.93 96.8,-85.83 102.14,-81.31"/>
</g>
<!-- Node14 -->
<g id="node14" class="node">
<title>Node14</title>
<g id="a_node14"><a xlink:title=" ">
<polygon fill="white" stroke="#bfbfbf" points="233.51,-0.5 233.51,-19.5 342.51,-19.5 342.51,-0.5 233.51,-0.5"/>
<text text-anchor="middle" x="288.01" y="-7.5" font-family="Helvetica,sans-Serif" font-size="10.00">AMReX_MultiFab.H</text>
</a>
</g>
</g>
<!-- Node9&#45;&gt;Node14 -->
<g id="edge43" class="edge">
<title>Node9&#45;&gt;Node14</title>
<path fill="none" stroke="midnightblue" d="M512.35,-194.31C419.43,-193.29 256.91,-184.85 125.01,-143 66.42,-124.41 35.23,-128.96 4.01,-76 -0.5,-68.34 -1.76,-62.76 4.01,-56 18.07,-39.54 143.47,-24.72 222.87,-16.88"/>
<polygon fill="midnightblue" stroke="midnightblue" points="223.66,-20.32 233.27,-15.87 222.98,-13.36 223.66,-20.32"/>
</g>
<!-- Node16 -->
<g id="node16" class="node">
<title>Node16</title>
<g id="a_node16"><a xlink:href="_field_8_h.html" target="_top" xlink:title=" ">
<polygon fill="white" stroke="black" points="765.01,-118 765.01,-137 889.01,-137 889.01,-118 765.01,-118"/>
<text text-anchor="middle" x="827.01" y="-125" font-family="Helvetica,sans-Serif" font-size="10.00">amr&#45;wind/core/Field.H</text>
</a>
</g>
</g>
<!-- Node9&#45;&gt;Node16 -->
<g id="edge16" class="edge">
<title>Node9&#45;&gt;Node16</title>
<path fill="none" stroke="midnightblue" d="M618.88,-184.87C661.77,-173.25 738.12,-152.58 785.47,-139.75"/>
<polygon fill="midnightblue" stroke="midnightblue" points="786.66,-143.06 795.39,-137.06 784.83,-136.3 786.66,-143.06"/>
</g>
<!-- Node23 -->
<g id="node23" class="node">
<title>Node23</title>
<g id="a_node23"><a xlink:href="_int_field_8_h.html" target="_top" xlink:title=" ">
<polygon fill="white" stroke="black" points="299.51,-118 299.51,-137 436.51,-137 436.51,-118 299.51,-118"/>
<text text-anchor="middle" x="368.01" y="-125" font-family="Helvetica,sans-Serif" font-size="10.00">amr&#45;wind/core/IntField.H</text>
</a>
</g>
</g>
<!-- Node9&#45;&gt;Node23 -->
<g id="edge31" class="edge">
<title>Node9&#45;&gt;Node23</title>
<path fill="none" stroke="midnightblue" d="M557.93,-184.87C518.97,-173.3 449.71,-152.75 406.47,-139.91"/>
<polygon fill="midnightblue" stroke="midnightblue" points="407.45,-136.55 396.87,-137.06 405.46,-143.26 407.45,-136.55"/>
</g>
<!-- Node24 -->
<g id="node24" class="node">
<title>Node24</title>
<g id="a_node24"><a xlink:title=" ">
<polygon fill="white" stroke="#bfbfbf" points="215.01,-56.5 215.01,-75.5 327.01,-75.5 327.01,-56.5 215.01,-56.5"/>
<text text-anchor="middle" x="271.01" y="-63.5" font-family="Helvetica,sans-Serif" font-size="10.00">AMReX_iMultiFab.H</text>
</a>
</g>
</g>
<!-- Node9&#45;&gt;Node24 -->
<g id="edge44" class="edge">
<title>Node9&#45;&gt;Node24</title>
<path fill="none" stroke="midnightblue" d="M512.41,-189.96C435.21,-184.75 321.58,-172.23 290.01,-143 274.3,-128.44 270.73,-103.03 270.31,-85.63"/>
<polygon fill="midnightblue" stroke="midnightblue" points="273.81,-85.58 270.39,-75.55 266.81,-85.52 273.81,-85.58"/>
</g>
<!-- Node25 -->
<g id="node25" class="node">
<title>Node25</title>
<g id="a_node25"><a xlink:href="_scratch_field_8_h.html" target="_top" xlink:title=" ">
<polygon fill="white" stroke="black" points="507.01,-118 507.01,-137 667.01,-137 667.01,-118 507.01,-118"/>
<text text-anchor="middle" x="587.01" y="-125" font-family="Helvetica,sans-Serif" font-size="10.00">amr&#45;wind/core/ScratchField.H</text>
</a>
</g>
</g>
<!-- Node9&#45;&gt;Node25 -->
<g id="edge35" class="edge">
<title>Node9&#45;&gt;Node25</title>
<path fill="none" stroke="midnightblue" d="M587.01,-184.73C587.01,-175.18 587.01,-159.62 587.01,-147.28"/>
<polygon fill="midnightblue" stroke="midnightblue" points="590.51,-147.13 587.01,-137.13 583.51,-147.13 590.51,-147.13"/>
</g>
<!-- Node13&#45;&gt;Node12 -->
<g id="edge13" class="edge">
<title>Node13&#45;&gt;Node12</title>
<path fill="none" stroke="midnightblue" d="M159.29,-57.58C254.28,-47.95 420.11,-31.15 524.49,-20.58"/>
<polygon fill="midnightblue" stroke="midnightblue" points="525.11,-24.03 534.71,-19.54 524.41,-17.07 525.11,-24.03"/>
</g>
<!-- Node13&#45;&gt;Node14 -->
<g id="edge14" class="edge">
<title>Node13&#45;&gt;Node14</title>
<path fill="none" stroke="midnightblue" d="M118.02,-56.44C152.74,-47.16 208.3,-32.31 246.39,-22.13"/>
<polygon fill="midnightblue" stroke="midnightblue" points="247.4,-25.48 256.16,-19.52 245.59,-18.72 247.4,-25.48"/>
</g>
<!-- Node15 -->
<g id="node15" class="node">
<title>Node15</title>
<g id="a_node15"><a xlink:title=" ">
<polygon fill="white" stroke="#bfbfbf" points="24.01,-0.5 24.01,-19.5 148.01,-19.5 148.01,-0.5 24.01,-0.5"/>
<text text-anchor="middle" x="86.01" y="-7.5" font-family="Helvetica,sans-Serif" font-size="10.00">AMReX_Interpolater.H</text>
</a>
</g>
</g>
<!-- Node13&#45;&gt;Node15 -->
<g id="edge15" class="edge">
<title>Node13&#45;&gt;Node15</title>
<path fill="none" stroke="midnightblue" d="M86.01,-56.08C86.01,-49.01 86.01,-38.86 86.01,-29.99"/>
<polygon fill="midnightblue" stroke="midnightblue" points="89.51,-29.75 86.01,-19.75 82.51,-29.75 89.51,-29.75"/>
</g>
<!-- Node16&#45;&gt;Node2 -->
<g id="edge18" class="edge">
<title>Node16&#45;&gt;Node2</title>
<path fill="none" stroke="midnightblue" d="M889.18,-119.58C915.34,-116.87 946.13,-113.95 974.01,-112 1354.13,-85.36 1455.56,-127.79 1836.74,-75.9"/>
<polygon fill="midnightblue" stroke="midnightblue" points="1837.23,-79.37 1846.66,-74.54 1836.28,-72.43 1837.23,-79.37"/>
</g>
<!-- Node16&#45;&gt;Node10 -->
<g id="edge17" class="edge">
<title>Node16&#45;&gt;Node10</title>
<path fill="none" stroke="midnightblue" d="M867.51,-117.95C878.95,-115.76 891.44,-113.58 903.01,-112 950.96,-105.46 1299.53,-106.6 1337.01,-76 1350.51,-64.98 1354.75,-44.93 1355.93,-30"/>
<polygon fill="midnightblue" stroke="midnightblue" points="1359.43,-29.95 1356.33,-19.82 1352.44,-29.67 1359.43,-29.95"/>
</g>
<!-- Node16&#45;&gt;Node11 -->
<g id="edge19" class="edge">
<title>Node16&#45;&gt;Node11</title>
<path fill="none" stroke="midnightblue" d="M887.87,-117.96C905.03,-115.77 923.73,-113.59 941.01,-112 1217.46,-86.56 1291.04,-105.86 1571.26,-75.96"/>
<polygon fill="midnightblue" stroke="midnightblue" points="1571.75,-79.42 1581.31,-74.87 1570.99,-72.47 1571.75,-79.42"/>
</g>
<!-- Node16&#45;&gt;Node12 -->
<g id="edge25" class="edge">
<title>Node16&#45;&gt;Node12</title>
<path fill="none" stroke="midnightblue" d="M854.84,-117.96C889.34,-105.98 940.96,-82.66 918.01,-56 904.82,-40.68 799.21,-27.5 717.19,-19.43"/>
<polygon fill="midnightblue" stroke="midnightblue" points="717.35,-15.93 707.06,-18.45 716.68,-22.9 717.35,-15.93"/>
</g>
<!-- Node16&#45;&gt;Node14 -->
<g id="edge21" class="edge">
<title>Node16&#45;&gt;Node14</title>
<path fill="none" stroke="midnightblue" d="M803.71,-117.96C762.81,-103.28 675.2,-73.18 599.01,-56 514.95,-37.04 416.22,-24.35 352.93,-17.4"/>
<polygon fill="midnightblue" stroke="midnightblue" points="353.02,-13.89 342.7,-16.3 352.27,-20.85 353.02,-13.89"/>
</g>
<!-- Node17 -->
<g id="node17" class="node">
<title>Node17</title>
<g id="a_node17"><a xlink:title=" ">
<polygon fill="white" stroke="#bfbfbf" points="1264.01,-56.5 1264.01,-75.5 1328.01,-75.5 1328.01,-56.5 1264.01,-56.5"/>
<text text-anchor="middle" x="1296.01" y="-63.5" font-family="Helvetica,sans-Serif" font-size="10.00">algorithm</text>
</a>
</g>
</g>
<!-- Node16&#45;&gt;Node17 -->
<g id="edge20" class="edge">
<title>Node16&#45;&gt;Node17</title>
<path fill="none" stroke="midnightblue" d="M868.32,-117.95C879.54,-115.81 891.72,-113.65 903.01,-112 1058.18,-89.28 1099.12,-100.47 1254.01,-76 1254.12,-75.98 1254.22,-75.97 1254.32,-75.95"/>
<polygon fill="midnightblue" stroke="midnightblue" points="1254.74,-79.43 1263.98,-74.24 1253.52,-72.54 1254.74,-79.43"/>
</g>
<!-- Node18 -->
<g id="node18" class="node">
<title>Node18</title>
<g id="a_node18"><a xlink:title=" ">
<polygon fill="white" stroke="#bfbfbf" points="1041.51,-56.5 1041.51,-75.5 1140.51,-75.5 1140.51,-56.5 1041.51,-56.5"/>
<text text-anchor="middle" x="1091.01" y="-63.5" font-family="Helvetica,sans-Serif" font-size="10.00">AMReX_BCRec.H</text>
</a>
</g>
</g>
<!-- Node16&#45;&gt;Node18 -->
<g id="edge22" class="edge">
<title>Node16&#45;&gt;Node18</title>
<path fill="none" stroke="midnightblue" d="M864.84,-117.98C911.89,-107.37 992.25,-89.26 1043.43,-77.72"/>
<polygon fill="midnightblue" stroke="midnightblue" points="1044.27,-81.12 1053.26,-75.51 1042.74,-74.29 1044.27,-81.12"/>
</g>
<!-- Node19 -->
<g id="node19" class="node">
<title>Node19</title>
<g id="a_node19"><a xlink:title=" ">
<polygon fill="white" stroke="#bfbfbf" points="1158.51,-56.5 1158.51,-75.5 1245.51,-75.5 1245.51,-56.5 1158.51,-56.5"/>
<text text-anchor="middle" x="1202.01" y="-63.5" font-family="Helvetica,sans-Serif" font-size="10.00">AMReX_Gpu.H</text>
</a>
</g>
</g>
<!-- Node16&#45;&gt;Node19 -->
<g id="edge23" class="edge">
<title>Node16&#45;&gt;Node19</title>
<path fill="none" stroke="midnightblue" d="M869.96,-117.97C880.74,-115.92 892.29,-113.81 903.01,-112 1008.78,-94.18 1038.17,-93.29 1148.17,-76.1"/>
<polygon fill="midnightblue" stroke="midnightblue" points="1149.02,-79.51 1158.35,-74.5 1147.93,-72.59 1149.02,-79.51"/>
</g>
<!-- Node20 -->
<g id="node20" class="node">
<title>Node20</title>
<g id="a_node20"><a xlink:href="incflo__enums_8_h.html" target="_top" xlink:title=" ">
<polygon fill="white" stroke="black" points="1422.51,-56.5 1422.51,-75.5 1563.51,-75.5 1563.51,-56.5 1422.51,-56.5"/>
<text text-anchor="middle" x="1493.01" y="-63.5" font-family="Helvetica,sans-Serif" font-size="10.00">amr&#45;wind/incflo_enums.H</text>
</a>
</g>
</g>
<!-- Node16&#45;&gt;Node20 -->
<g id="edge24" class="edge">
<title>Node16&#45;&gt;Node20</title>
<path fill="none" stroke="midnightblue" d="M889.08,-118.09C905.91,-115.95 924.15,-113.76 941.01,-112 1030.05,-102.71 1281.61,-83.13 1412.15,-73.14"/>
<polygon fill="midnightblue" stroke="midnightblue" points="1412.78,-76.6 1422.49,-72.35 1412.25,-69.62 1412.78,-76.6"/>
</g>
<!-- Node21 -->
<g id="node21" class="node">
<title>Node21</title>
<g id="a_node21"><a xlink:href="_view_field_8_h.html" target="_top" xlink:title=" ">
<polygon fill="white" stroke="black" points="761.01,-56.5 761.01,-75.5 909.01,-75.5 909.01,-56.5 761.01,-56.5"/>
<text text-anchor="middle" x="835.01" y="-63.5" font-family="Helvetica,sans-Serif" font-size="10.00">amr&#45;wind/core/ViewField.H</text>
</a>
</g>
</g>
<!-- Node16&#45;&gt;Node21 -->
<g id="edge26" class="edge">
<title>Node16&#45;&gt;Node21</title>
<path fill="none" stroke="midnightblue" d="M828.16,-117.98C829.29,-109.58 831.05,-96.48 832.51,-85.66"/>
<polygon fill="midnightblue" stroke="midnightblue" points="836.01,-85.89 833.87,-75.51 829.07,-84.95 836.01,-85.89"/>
</g>
<!-- Node21&#45;&gt;Node10 -->
<g id="edge27" class="edge">
<title>Node21&#45;&gt;Node10</title>
<path fill="none" stroke="midnightblue" d="M909.11,-57.32C1024.43,-45.37 1242.12,-22.81 1323.89,-14.33"/>
<polygon fill="midnightblue" stroke="midnightblue" points="1324.25,-17.81 1333.84,-13.3 1323.53,-10.85 1324.25,-17.81"/>
</g>
<!-- Node21&#45;&gt;Node12 -->
<g id="edge28" class="edge">
<title>Node21&#45;&gt;Node12</title>
<path fill="none" stroke="midnightblue" d="M800.79,-56.44C763.5,-47.12 703.75,-32.18 663,-22"/>
<polygon fill="midnightblue" stroke="midnightblue" points="663.63,-18.55 653.08,-19.52 661.93,-25.34 663.63,-18.55"/>
</g>
<!-- Node21&#45;&gt;Node14 -->
<g id="edge29" class="edge">
<title>Node21&#45;&gt;Node14</title>
<path fill="none" stroke="midnightblue" d="M760.6,-57.37C756,-56.9 751.45,-56.44 747.01,-56 606.58,-41.93 441.92,-25.9 352.98,-17.28"/>
<polygon fill="midnightblue" stroke="midnightblue" points="353.07,-13.78 342.78,-16.29 352.4,-20.74 353.07,-13.78"/>
</g>
<!-- Node22 -->
<g id="node22" class="node">
<title>Node22</title>
<g id="a_node22"><a xlink:title=" ">
<polygon fill="white" stroke="#bfbfbf" points="786.01,-0.5 786.01,-19.5 884.01,-19.5 884.01,-0.5 786.01,-0.5"/>
<text text-anchor="middle" x="835.01" y="-7.5" font-family="Helvetica,sans-Serif" font-size="10.00">AMReX_Vector.H</text>
</a>
</g>
</g>
<!-- Node21&#45;&gt;Node22 -->
<g id="edge30" class="edge">
<title>Node21&#45;&gt;Node22</title>
<path fill="none" stroke="midnightblue" d="M835.01,-56.08C835.01,-49.01 835.01,-38.86 835.01,-29.99"/>
<polygon fill="midnightblue" stroke="midnightblue" points="838.51,-29.75 835.01,-19.75 831.51,-29.75 838.51,-29.75"/>
</g>
<!-- Node23&#45;&gt;Node10 -->
<g id="edge32" class="edge">
<title>Node23&#45;&gt;Node10</title>
<path fill="none" stroke="midnightblue" d="M436.8,-118.5C456.55,-116.29 478.13,-113.96 498.01,-112 684.46,-93.61 739.89,-134.08 918.01,-76 934.32,-70.68 934.78,-61.52 951.01,-56 1020.07,-32.52 1240.66,-17.67 1323.85,-12.78"/>
<polygon fill="midnightblue" stroke="midnightblue" points="1324.19,-16.27 1333.98,-12.19 1323.79,-9.28 1324.19,-16.27"/>
</g>
<!-- Node23&#45;&gt;Node12 -->
<g id="edge33" class="edge">
<title>Node23&#45;&gt;Node12</title>
<path fill="none" stroke="midnightblue" d="M371.63,-117.53C378.23,-102.32 393.75,-71.62 417.01,-56 447.42,-35.58 485.64,-24.29 520.63,-18.09"/>
<polygon fill="midnightblue" stroke="midnightblue" points="521.59,-21.48 530.89,-16.4 520.45,-14.58 521.59,-21.48"/>
</g>
<!-- Node23&#45;&gt;Node24 -->
<g id="edge34" class="edge">
<title>Node23&#45;&gt;Node24</title>
<path fill="none" stroke="midnightblue" d="M354.12,-117.98C338.34,-108.3 312.38,-92.37 293.67,-80.89"/>
<polygon fill="midnightblue" stroke="midnightblue" points="295.24,-77.75 284.89,-75.51 291.58,-83.72 295.24,-77.75"/>
</g>
<!-- Node25&#45;&gt;Node10 -->
<g id="edge36" class="edge">
<title>Node25&#45;&gt;Node10</title>
<path fill="none" stroke="midnightblue" d="M665.86,-117.96C739.86,-109.39 853.43,-94.76 951.01,-76 987.43,-69 995.6,-63 1032.01,-56 1138.06,-35.6 1265.34,-20.68 1323.79,-14.35"/>
<polygon fill="midnightblue" stroke="midnightblue" points="1324.31,-17.81 1333.88,-13.27 1323.57,-10.85 1324.31,-17.81"/>
</g>
<!-- Node25&#45;&gt;Node12 -->
<g id="edge37" class="edge">
<title>Node25&#45;&gt;Node12</title>
<path fill="none" stroke="midnightblue" d="M589.42,-117.82C594.59,-99.17 606.84,-54.94 613.85,-29.63"/>
<polygon fill="midnightblue" stroke="midnightblue" points="617.28,-30.35 616.58,-19.78 610.54,-28.48 617.28,-30.35"/>
</g>
<!-- Node25&#45;&gt;Node14 -->
<g id="edge39" class="edge">
<title>Node25&#45;&gt;Node14</title>
<path fill="none" stroke="midnightblue" d="M563.18,-117.95C535.79,-108.06 489.52,-91.2 450.01,-76 403.88,-58.25 350.76,-36.73 318.29,-23.45"/>
<polygon fill="midnightblue" stroke="midnightblue" points="319.49,-20.16 308.91,-19.6 316.84,-26.63 319.49,-20.16"/>
</g>
<!-- Node25&#45;&gt;Node21 -->
<g id="edge38" class="edge">
<title>Node25&#45;&gt;Node21</title>
<path fill="none" stroke="midnightblue" d="M622.55,-117.98C666.56,-107.42 741.6,-89.41 789.71,-77.87"/>
<polygon fill="midnightblue" stroke="midnightblue" points="790.64,-81.25 799.55,-75.51 789.01,-74.44 790.64,-81.25"/>
</g>
<!-- Node25&#45;&gt;Node22 -->
<g id="edge40" class="edge">
<title>Node25&#45;&gt;Node22</title>
<path fill="none" stroke="midnightblue" d="M605.65,-117.82C648.94,-97.66 756.43,-47.6 807.38,-23.87"/>
<polygon fill="midnightblue" stroke="midnightblue" points="808.91,-27.02 816.5,-19.62 805.95,-20.67 808.91,-27.02"/>
</g>
<!-- Node26 -->
<g id="node26" class="node">
<title>Node26</title>
<g id="a_node26"><a xlink:title=" ">
<polygon fill="white" stroke="#bfbfbf" points="459.51,-56.5 459.51,-75.5 590.51,-75.5 590.51,-56.5 459.51,-56.5"/>
<text text-anchor="middle" x="525.01" y="-63.5" font-family="Helvetica,sans-Serif" font-size="10.00">AMReX_PhysBCFunct.H</text>
</a>
</g>
</g>
<!-- Node25&#45;&gt;Node26 -->
<g id="edge41" class="edge">
<title>Node25&#45;&gt;Node26</title>
<path fill="none" stroke="midnightblue" d="M578.13,-117.98C568.56,-108.78 553.1,-93.96 541.33,-82.66"/>
<polygon fill="midnightblue" stroke="midnightblue" points="543.52,-79.91 533.88,-75.51 538.67,-84.96 543.52,-79.91"/>
</g>
<!-- Node27&#45;&gt;Node10 -->
<g id="edge46" class="edge">
<title>Node27&#45;&gt;Node10</title>
<path fill="none" stroke="midnightblue" d="M1825.59,-188.53C1936.1,-180.75 2128.19,-164.34 2152.01,-143 2181.3,-116.77 2195.03,-84.56 2168.01,-56 2140.77,-27.2 1536.16,-14.3 1388.38,-11.56"/>
<polygon fill="midnightblue" stroke="midnightblue" points="1388.22,-8.06 1378.16,-11.38 1388.1,-15.06 1388.22,-8.06"/>
</g>
<!-- Node27&#45;&gt;Node12 -->
<g id="edge60" class="edge">
<title>Node27&#45;&gt;Node12</title>
<path fill="none" stroke="midnightblue" d="M1670.25,-182C1660.75,-180.85 1651.17,-179.81 1642.01,-179 1543.87,-170.31 846.62,-181.7 756.01,-143 698.46,-118.41 651.05,-57.9 630.3,-28.12"/>
<polygon fill="midnightblue" stroke="midnightblue" points="633.03,-25.92 624.52,-19.62 627.24,-29.85 633.03,-25.92"/>
</g>
<!-- Node27&#45;&gt;Node20 -->
<g id="edge61" class="edge">
<title>Node27&#45;&gt;Node20</title>
<path fill="none" stroke="midnightblue" d="M1725.46,-179.37C1709.94,-169.49 1688.97,-155.82 1671.01,-143 1652.71,-129.93 1650.89,-122.53 1631.01,-112 1602.46,-96.87 1567.88,-85.6 1540.48,-78.13"/>
<polygon fill="midnightblue" stroke="midnightblue" points="1541.3,-74.73 1530.73,-75.55 1539.5,-81.49 1541.3,-74.73"/>
</g>
<!-- Node28 -->
<g id="node28" class="node">
<title>Node28</title>
<g id="a_node28"><a xlink:href="_factory_8_h.html" target="_top" xlink:title=" ">
<polygon fill="white" stroke="black" points="1835.01,-118 1835.01,-137 1969.01,-137 1969.01,-118 1835.01,-118"/>
<text text-anchor="middle" x="1902.01" y="-125" font-family="Helvetica,sans-Serif" font-size="10.00">amr&#45;wind/core/Factory.H</text>
</a>
</g>
</g>
<!-- Node27&#45;&gt;Node28 -->
<g id="edge47" class="edge">
<title>Node27&#45;&gt;Node28</title>
<path fill="none" stroke="midnightblue" d="M1781.43,-179.4C1808.57,-167.94 1846.48,-151.94 1872.51,-140.95"/>
<polygon fill="midnightblue" stroke="midnightblue" points="1874.01,-144.12 1881.86,-137.01 1871.29,-137.67 1874.01,-144.12"/>
</g>
<!-- Node32 -->
<g id="node32" class="node">
<title>Node32</title>
<g id="a_node32"><a xlink:href="_coll_mgr_8_h.html" target="_top" xlink:title=" ">
<polygon fill="white" stroke="black" points="1679.51,-118 1679.51,-137 1816.51,-137 1816.51,-118 1679.51,-118"/>
<text text-anchor="middle" x="1748.01" y="-125" font-family="Helvetica,sans-Serif" font-size="10.00">amr&#45;wind/core/CollMgr.H</text>
</a>
</g>
</g>
<!-- Node27&#45;&gt;Node32 -->
<g id="edge53" class="edge">
<title>Node27&#45;&gt;Node32</title>
<path fill="none" stroke="midnightblue" d="M1748.01,-179.4C1748.01,-170.06 1748.01,-157.71 1748.01,-147.52"/>
<polygon fill="midnightblue" stroke="midnightblue" points="1751.51,-147.19 1748.01,-137.19 1744.51,-147.19 1751.51,-147.19"/>
</g>
<!-- Node33 -->
<g id="node33" class="node">
<title>Node33</title>
<g id="a_node33"><a xlink:href="_p_d_e_fields_8_h.html" target="_top" xlink:title=" ">
<polygon fill="white" stroke="black" points="1987.51,-112.5 1987.51,-142.5 2142.51,-142.5 2142.51,-112.5 1987.51,-112.5"/>
<text text-anchor="start" x="1995.51" y="-130.5" font-family="Helvetica,sans-Serif" font-size="10.00">amr&#45;wind/equation_systems</text>
<text text-anchor="middle" x="2065.01" y="-119.5" font-family="Helvetica,sans-Serif" font-size="10.00">/PDEFields.H</text>
</a>
</g>
</g>
<!-- Node27&#45;&gt;Node33 -->
<g id="edge58" class="edge">
<title>Node27&#45;&gt;Node33</title>
<path fill="none" stroke="midnightblue" d="M1816.41,-179.48C1866.42,-169.22 1934.36,-155.29 1986.58,-144.58"/>
<polygon fill="midnightblue" stroke="midnightblue" points="1987.38,-147.99 1996.47,-142.55 1985.97,-141.13 1987.38,-147.99"/>
</g>
<!-- Node28&#45;&gt;Node2 -->
<g id="edge48" class="edge">
<title>Node28&#45;&gt;Node2</title>
<path fill="none" stroke="midnightblue" d="M1898.29,-117.98C1894.54,-109.4 1888.65,-95.93 1883.87,-84.98"/>
<polygon fill="midnightblue" stroke="midnightblue" points="1886.94,-83.27 1879.73,-75.51 1880.53,-86.07 1886.94,-83.27"/>
</g>
<!-- Node28&#45;&gt;Node11 -->
<g id="edge49" class="edge">
<title>Node28&#45;&gt;Node11</title>
<path fill="none" stroke="midnightblue" d="M1862.76,-117.98C1813.82,-107.35 1730.18,-89.18 1677.07,-77.65"/>
<polygon fill="midnightblue" stroke="midnightblue" points="1677.71,-74.21 1667.2,-75.51 1676.23,-81.05 1677.71,-74.21"/>
</g>
<!-- Node29 -->
<g id="node29" class="node">
<title>Node29</title>
<g id="a_node29"><a xlink:title=" ">
<polygon fill="white" stroke="#bfbfbf" points="1769.01,-56.5 1769.01,-75.5 1829.01,-75.5 1829.01,-56.5 1769.01,-56.5"/>
<text text-anchor="middle" x="1799.01" y="-63.5" font-family="Helvetica,sans-Serif" font-size="10.00">iostream</text>
</a>
</g>
</g>
<!-- Node28&#45;&gt;Node29 -->
<g id="edge50" class="edge">
<title>Node28&#45;&gt;Node29</title>
<path fill="none" stroke="midnightblue" d="M1887.26,-117.98C1870.35,-108.21 1842.43,-92.08 1822.52,-80.58"/>
<polygon fill="midnightblue" stroke="midnightblue" points="1824.15,-77.48 1813.74,-75.51 1820.65,-83.54 1824.15,-77.48"/>
</g>
<!-- Node30 -->
<g id="node30" class="node">
<title>Node30</title>
<g id="a_node30"><a xlink:title=" ">
<polygon fill="white" stroke="#bfbfbf" points="1923.01,-56.5 1923.01,-75.5 2013.01,-75.5 2013.01,-56.5 1923.01,-56.5"/>
<text text-anchor="middle" x="1968.01" y="-63.5" font-family="Helvetica,sans-Serif" font-size="10.00">AMReX_Print.H</text>
</a>
</g>
</g>
<!-- Node28&#45;&gt;Node30 -->
<g id="edge51" class="edge">
<title>Node28&#45;&gt;Node30</title>
<path fill="none" stroke="midnightblue" d="M1911.47,-117.98C1921.76,-108.7 1938.43,-93.67 1951.01,-82.33"/>
<polygon fill="midnightblue" stroke="midnightblue" points="1953.49,-84.8 1958.58,-75.51 1948.81,-79.61 1953.49,-84.8"/>
</g>
<!-- Node31 -->
<g id="node31" class="node">
<title>Node31</title>
<g id="a_node31"><a xlink:title=" ">
<polygon fill="white" stroke="#bfbfbf" points="2031.01,-56.5 2031.01,-75.5 2093.01,-75.5 2093.01,-56.5 2031.01,-56.5"/>
<text text-anchor="middle" x="2062.01" y="-63.5" font-family="Helvetica,sans-Serif" font-size="10.00">AMReX.H</text>
</a>
</g>
</g>
<!-- Node28&#45;&gt;Node31 -->
<g id="edge52" class="edge">
<title>Node28&#45;&gt;Node31</title>
<path fill="none" stroke="midnightblue" d="M1924.94,-117.98C1952.38,-107.77 1998.53,-90.61 2029.61,-79.05"/>
<polygon fill="midnightblue" stroke="midnightblue" points="2030.98,-82.28 2039.13,-75.51 2028.54,-75.71 2030.98,-82.28"/>
</g>
<!-- Node32&#45;&gt;Node2 -->
<g id="edge55" class="edge">
<title>Node32&#45;&gt;Node2</title>
<path fill="none" stroke="midnightblue" d="M1766.35,-117.98C1787.84,-107.99 1823.64,-91.35 1848.46,-79.81"/>
<polygon fill="midnightblue" stroke="midnightblue" points="1850.12,-82.9 1857.71,-75.51 1847.17,-76.55 1850.12,-82.9"/>
</g>
<!-- Node32&#45;&gt;Node10 -->
<g id="edge54" class="edge">
<title>Node32&#45;&gt;Node10</title>
<path fill="none" stroke="midnightblue" d="M1746.96,-117.88C1744.6,-102.66 1737.39,-71.18 1717.01,-56 1665.38,-17.53 1466.97,-11.79 1388.36,-11.05"/>
<polygon fill="midnightblue" stroke="midnightblue" points="1388.11,-7.55 1378.09,-10.98 1388.06,-14.55 1388.11,-7.55"/>
</g>
<!-- Node32&#45;&gt;Node11 -->
<g id="edge56" class="edge">
<title>Node32&#45;&gt;Node11</title>
<path fill="none" stroke="midnightblue" d="M1730.82,-117.98C1710.77,-108.03 1677.42,-91.49 1654.15,-79.96"/>
<polygon fill="midnightblue" stroke="midnightblue" points="1655.69,-76.82 1645.18,-75.51 1652.58,-83.09 1655.69,-76.82"/>
</g>
<!-- Node32&#45;&gt;Node22 -->
<g id="edge57" class="edge">
<title>Node32&#45;&gt;Node22</title>
<path fill="none" stroke="midnightblue" d="M1743.14,-117.79C1733.81,-102.11 1711.79,-69.53 1683.01,-56 1612.18,-22.69 1075.25,-13.68 894.32,-11.57"/>
<polygon fill="midnightblue" stroke="midnightblue" points="894.23,-8.07 884.19,-11.46 894.15,-15.07 894.23,-8.07"/>
</g>
<!-- Node34 -->
<g id="node34" class="node">
<title>Node34</title>
<g id="a_node34"><a xlink:title=" ">
<polygon fill="white" stroke="#bfbfbf" points="2111.01,-56.5 2111.01,-75.5 2159.01,-75.5 2159.01,-56.5 2111.01,-56.5"/>
<text text-anchor="middle" x="2135.01" y="-63.5" font-family="Helvetica,sans-Serif" font-size="10.00">iosfwd</text>
</a>
</g>
</g>
<!-- Node33&#45;&gt;Node34 -->
<g id="edge59" class="edge">
<title>Node33&#45;&gt;Node34</title>
<path fill="none" stroke="midnightblue" d="M2081.6,-112.4C2092.3,-103.31 2106.2,-91.49 2117.14,-82.19"/>
<polygon fill="midnightblue" stroke="midnightblue" points="2119.48,-84.8 2124.83,-75.66 2114.94,-79.47 2119.48,-84.8"/>
</g>
<!-- Node35&#45;&gt;Node14 -->
<g id="edge65" class="edge">
<title>Node35&#45;&gt;Node14</title>
<path fill="none" stroke="midnightblue" d="M1503.45,-184.99C1484.72,-182.69 1464.06,-180.44 1445.01,-179 1316.99,-169.29 410.53,-187.29 290.01,-143 239.57,-124.46 178.64,-102.25 206.01,-56 214.99,-40.84 231.08,-30.45 246.65,-23.5"/>
<polygon fill="midnightblue" stroke="midnightblue" points="248.26,-26.63 256.21,-19.62 245.62,-20.14 248.26,-26.63"/>
</g>
<!-- Node35&#45;&gt;Node28 -->
<g id="edge63" class="edge">
<title>Node35&#45;&gt;Node28</title>
<path fill="none" stroke="midnightblue" d="M1609.42,-184.94C1670.87,-173.08 1781.75,-151.7 1847.95,-138.93"/>
<polygon fill="midnightblue" stroke="midnightblue" points="1848.62,-142.36 1857.78,-137.03 1847.3,-135.49 1848.62,-142.36"/>
</g>
<!-- Node35&#45;&gt;Node32 -->
<g id="edge64" class="edge">
<title>Node35&#45;&gt;Node32</title>
<path fill="none" stroke="midnightblue" d="M1589.32,-184.87C1621.4,-173.47 1678.04,-153.35 1714.27,-140.49"/>
<polygon fill="midnightblue" stroke="midnightblue" points="1715.65,-143.71 1723.9,-137.06 1713.31,-137.11 1715.65,-143.71"/>
</g>
<!-- Node36 -->
<g id="node36" class="node">
<title>Node36</title>
<g id="a_node36"><a xlink:title=" ">
<polygon fill="white" stroke="#bfbfbf" points="1507.51,-118 1507.51,-137 1622.51,-137 1622.51,-118 1507.51,-118"/>
<text text-anchor="middle" x="1565.01" y="-125" font-family="Helvetica,sans-Serif" font-size="10.00">AMReX_Geometry.H</text>
</a>
</g>
</g>
<!-- Node35&#45;&gt;Node36 -->
<g id="edge66" class="edge">
<title>Node35&#45;&gt;Node36</title>
<path fill="none" stroke="midnightblue" d="M1565.01,-184.73C1565.01,-175.18 1565.01,-159.62 1565.01,-147.28"/>
<polygon fill="midnightblue" stroke="midnightblue" points="1568.51,-147.13 1565.01,-137.13 1561.51,-147.13 1568.51,-147.13"/>
</g>
<!-- Node37&#45;&gt;Node2 -->
<g id="edge68" class="edge">
<title>Node37&#45;&gt;Node2</title>
<path fill="none" stroke="midnightblue" d="M2085.56,-179.39C2127.98,-165.27 2177.34,-141.45 2152.01,-112 2118.91,-73.51 1981.53,-84.82 1915.4,-75.84"/>
<polygon fill="midnightblue" stroke="midnightblue" points="1915.85,-72.37 1905.42,-74.22 1914.73,-79.28 1915.85,-72.37"/>
</g>
<!-- Node37&#45;&gt;Node28 -->
<g id="edge69" class="edge">
<title>Node37&#45;&gt;Node28</title>
<path fill="none" stroke="midnightblue" d="M2005.37,-179.4C1982.52,-168.14 1950.76,-152.5 1928.49,-141.54"/>
<polygon fill="midnightblue" stroke="midnightblue" points="1929.81,-138.28 1919.29,-137.01 1926.72,-144.56 1929.81,-138.28"/>
</g>
</g>
</svg>
