<?xml version="1.0" encoding="UTF-8" standalone="no"?>
<!DOCTYPE svg PUBLIC "-//W3C//DTD SVG 1.1//EN"
 "http://www.w3.org/Graphics/SVG/1.1/DTD/svg11.dtd">
<!-- Generated by graphviz version 2.43.0 (0)
 -->
<!-- Title: IB.H Pages: 1 -->
<!--zoomable 252 -->
<svg id="main" version="1.1" xmlns="http://www.w3.org/2000/svg" xmlns:xlink="http://www.w3.org/1999/xlink" xml:space="preserve" onload="init(evt)">
<style type="text/css"><![CDATA[
.edge:hover path { stroke: red; }
.edge:hover polygon { stroke: red; fill: red; }
]]></style>
<script type="text/javascript"><![CDATA[
var edges = document.getElementsByTagName('g');
if (edges && edges.length) {
  for (var i=0;i<edges.length;i++) {
    if (edges[i].id.substr(0,4)=='edge') {
      edges[i].setAttribute('class','edge');
    }
  }
}
]]></script>
        <defs>
                <circle id="rim" cx="0" cy="0" r="7"/>
                <circle id="rim2" cx="0" cy="0" r="3.5"/>
                <g id="zoomPlus">
                        <use xlink:href="#rim" fill="#404040">
                                <set attributeName="fill" to="#808080" begin="zoomplus.mouseover" end="zoomplus.mouseout"/>
                        </use>
                        <path d="M-4,0h8M0,-4v8" fill="none" stroke="white" stroke-width="1.5" pointer-events="none"/>
                </g>
                <g id="zoomMin">
                        <use xlink:href="#rim" fill="#404040">
                                <set attributeName="fill" to="#808080" begin="zoomminus.mouseover" end="zoomminus.mouseout"/>
                        </use>
                        <path d="M-4,0h8" fill="none" stroke="white" stroke-width="1.5" pointer-events="none"/>
                </g>
                <g id="dirArrow">
                        <path fill="none" stroke="white" stroke-width="1.5" d="M0,-3.0v7 M-2.5,-0.5L0,-3.0L2.5,-0.5"/>
                </g>
               <g id="resetDef">
                       <use xlink:href="#rim2" fill="#404040">
                               <set attributeName="fill" to="#808080" begin="reset.mouseover" end="reset.mouseout"/>
                       </use>
               </g>
        </defs>

<script type="text/javascript">
var viewWidth = 2217;
var viewHeight = 252;
var sectionId = 'dynsection-0';
</script>
<script xlink:href="svgpan.js"/>
<svg id="graph" class="graph">
<g id="viewport">
<title>IB.H</title>
<polygon fill="white" stroke="transparent" points="-4,4 -4,-248 2213,-248 2213,4 -4,4"/>
<!-- Node1 -->
<g id="node1" class="node">
<title>Node1</title>
<g id="a_node1"><a xlink:title=" ">
<polygon fill="#bfbfbf" stroke="black" points="770.5,-224.5 770.5,-243.5 807.5,-243.5 807.5,-224.5 770.5,-224.5"/>
<text text-anchor="middle" x="789" y="-231.5" font-family="Helvetica,sans-Serif" font-size="10.00">IB.H</text>
</a>
</g>
</g>
<!-- Node2 -->
<g id="node2" class="node">
<title>Node2</title>
<g id="a_node2"><a xlink:href="_physics_8_h.html" target="_top" xlink:title=" ">
<polygon fill="white" stroke="black" points="374.5,-168.5 374.5,-187.5 511.5,-187.5 511.5,-168.5 374.5,-168.5"/>
<text text-anchor="middle" x="443" y="-175.5" font-family="Helvetica,sans-Serif" font-size="10.00">amr&#45;wind/core/Physics.H</text>
</a>
</g>
</g>
<!-- Node1&#45;&gt;Node2 -->
<g id="edge1" class="edge">
<title>Node1&#45;&gt;Node2</title>
<path fill="none" stroke="midnightblue" d="M770.4,-230.1C721.67,-222.49 588.51,-201.71 507.81,-189.11"/>
<polygon fill="midnightblue" stroke="midnightblue" points="508.17,-185.63 497.75,-187.55 507.09,-192.55 508.17,-185.63"/>
</g>
<!-- Node14 -->
<g id="node14" class="node">
<title>Node14</title>
<g id="a_node14"><a xlink:href="_field_repo_8_h.html" target="_top" xlink:title=" ">
<polygon fill="white" stroke="black" points="1103.5,-168.5 1103.5,-187.5 1252.5,-187.5 1252.5,-168.5 1103.5,-168.5"/>
<text text-anchor="middle" x="1178" y="-175.5" font-family="Helvetica,sans-Serif" font-size="10.00">amr&#45;wind/core/FieldRepo.H</text>
</a>
</g>
</g>
<!-- Node1&#45;&gt;Node14 -->
<g id="edge15" class="edge">
<title>Node1&#45;&gt;Node14</title>
<path fill="none" stroke="midnightblue" d="M807.5,-230.43C860.4,-223.09 1014.4,-201.71 1106.36,-188.95"/>
<polygon fill="midnightblue" stroke="midnightblue" points="1107,-192.39 1116.43,-187.55 1106.04,-185.46 1107,-192.39"/>
</g>
<!-- Node3 -->
<g id="node3" class="node">
<title>Node3</title>
<g id="a_node3"><a xlink:href="_factory_8_h.html" target="_top" xlink:title=" ">
<polygon fill="white" stroke="black" points="89,-112.5 89,-131.5 223,-131.5 223,-112.5 89,-112.5"/>
<text text-anchor="middle" x="156" y="-119.5" font-family="Helvetica,sans-Serif" font-size="10.00">amr&#45;wind/core/Factory.H</text>
</a>
</g>
</g>
<!-- Node2&#45;&gt;Node3 -->
<g id="edge2" class="edge">
<title>Node2&#45;&gt;Node3</title>
<path fill="none" stroke="midnightblue" d="M397.52,-168.44C347.04,-158.94 265.54,-143.61 211.38,-133.42"/>
<polygon fill="midnightblue" stroke="midnightblue" points="211.74,-129.93 201.26,-131.52 210.44,-136.81 211.74,-129.93"/>
</g>
<!-- Node9 -->
<g id="node9" class="node">
<title>Node9</title>
<g id="a_node9"><a xlink:href="_coll_mgr_8_h.html" target="_top" xlink:title=" ">
<polygon fill="white" stroke="black" points="374.5,-112.5 374.5,-131.5 511.5,-131.5 511.5,-112.5 374.5,-112.5"/>
<text text-anchor="middle" x="443" y="-119.5" font-family="Helvetica,sans-Serif" font-size="10.00">amr&#45;wind/core/CollMgr.H</text>
</a>
</g>
</g>
<!-- Node2&#45;&gt;Node9 -->
<g id="edge8" class="edge">
<title>Node2&#45;&gt;Node9</title>
<path fill="none" stroke="midnightblue" d="M443,-168.08C443,-161.01 443,-150.86 443,-141.99"/>
<polygon fill="midnightblue" stroke="midnightblue" points="446.5,-141.75 443,-131.75 439.5,-141.75 446.5,-141.75"/>
</g>
<!-- Node12 -->
<g id="node12" class="node">
<title>Node12</title>
<g id="a_node12"><a xlink:title=" ">
<polygon fill="white" stroke="#bfbfbf" points="1675.5,-0.5 1675.5,-19.5 1784.5,-19.5 1784.5,-0.5 1675.5,-0.5"/>
<text text-anchor="middle" x="1730" y="-7.5" font-family="Helvetica,sans-Serif" font-size="10.00">AMReX_MultiFab.H</text>
</a>
</g>
</g>
<!-- Node2&#45;&gt;Node12 -->
<g id="edge13" class="edge">
<title>Node2&#45;&gt;Node12</title>
<path fill="none" stroke="midnightblue" d="M511.87,-176.46C763.79,-174.22 1626.78,-164.25 1746,-132 1796.68,-118.29 1823.08,-121.07 1850,-76 1866.73,-47.99 1830.75,-31.31 1793.91,-21.87"/>
<polygon fill="midnightblue" stroke="midnightblue" points="1794.6,-18.43 1784.06,-19.51 1792.97,-25.24 1794.6,-18.43"/>
</g>
<!-- Node13 -->
<g id="node13" class="node">
<title>Node13</title>
<g id="a_node13"><a xlink:title=" ">
<polygon fill="white" stroke="#bfbfbf" points="241.5,-112.5 241.5,-131.5 356.5,-131.5 356.5,-112.5 241.5,-112.5"/>
<text text-anchor="middle" x="299" y="-119.5" font-family="Helvetica,sans-Serif" font-size="10.00">AMReX_Geometry.H</text>
</a>
</g>
</g>
<!-- Node2&#45;&gt;Node13 -->
<g id="edge14" class="edge">
<title>Node2&#45;&gt;Node13</title>
<path fill="none" stroke="midnightblue" d="M420.18,-168.44C396.17,-159.44 358.17,-145.19 331.13,-135.05"/>
<polygon fill="midnightblue" stroke="midnightblue" points="332.3,-131.75 321.71,-131.52 329.84,-138.3 332.3,-131.75"/>
</g>
<!-- Node4 -->
<g id="node4" class="node">
<title>Node4</title>
<g id="a_node4"><a xlink:title=" ">
<polygon fill="white" stroke="#bfbfbf" points="304,-56.5 304,-75.5 362,-75.5 362,-56.5 304,-56.5"/>
<text text-anchor="middle" x="333" y="-63.5" font-family="Helvetica,sans-Serif" font-size="10.00">memory</text>
</a>
</g>
</g>
<!-- Node3&#45;&gt;Node4 -->
<g id="edge3" class="edge">
<title>Node3&#45;&gt;Node4</title>
<path fill="none" stroke="midnightblue" d="M184.05,-112.44C214.08,-103.28 261.91,-88.69 295.24,-78.52"/>
<polygon fill="midnightblue" stroke="midnightblue" points="296.54,-81.78 305.09,-75.52 294.5,-75.09 296.54,-81.78"/>
</g>
<!-- Node5 -->
<g id="node5" class="node">
<title>Node5</title>
<g id="a_node5"><a xlink:title=" ">
<polygon fill="white" stroke="#bfbfbf" points="418.5,-56.5 418.5,-75.5 511.5,-75.5 511.5,-56.5 418.5,-56.5"/>
<text text-anchor="middle" x="465" y="-63.5" font-family="Helvetica,sans-Serif" font-size="10.00">unordered_map</text>
</a>
</g>
</g>
<!-- Node3&#45;&gt;Node5 -->
<g id="edge4" class="edge">
<title>Node3&#45;&gt;Node5</title>
<path fill="none" stroke="midnightblue" d="M204.96,-112.44C260.19,-102.79 349.87,-87.12 408.15,-76.94"/>
<polygon fill="midnightblue" stroke="midnightblue" points="409.04,-80.33 418.29,-75.16 407.84,-73.44 409.04,-80.33"/>
</g>
<!-- Node6 -->
<g id="node6" class="node">
<title>Node6</title>
<g id="a_node6"><a xlink:title=" ">
<polygon fill="white" stroke="#bfbfbf" points="80,-56.5 80,-75.5 140,-75.5 140,-56.5 80,-56.5"/>
<text text-anchor="middle" x="110" y="-63.5" font-family="Helvetica,sans-Serif" font-size="10.00">iostream</text>
</a>
</g>
</g>
<!-- Node3&#45;&gt;Node6 -->
<g id="edge5" class="edge">
<title>Node3&#45;&gt;Node6</title>
<path fill="none" stroke="midnightblue" d="M148.4,-112.08C141.77,-104.3 131.98,-92.8 123.94,-83.37"/>
<polygon fill="midnightblue" stroke="midnightblue" points="126.6,-81.09 117.45,-75.75 121.27,-85.63 126.6,-81.09"/>
</g>
<!-- Node7 -->
<g id="node7" class="node">
<title>Node7</title>
<g id="a_node7"><a xlink:title=" ">
<polygon fill="white" stroke="#bfbfbf" points="158,-56.5 158,-75.5 248,-75.5 248,-56.5 158,-56.5"/>
<text text-anchor="middle" x="203" y="-63.5" font-family="Helvetica,sans-Serif" font-size="10.00">AMReX_Print.H</text>
</a>
</g>
</g>
<!-- Node3&#45;&gt;Node7 -->
<g id="edge6" class="edge">
<title>Node3&#45;&gt;Node7</title>
<path fill="none" stroke="midnightblue" d="M163.76,-112.08C170.54,-104.3 180.54,-92.8 188.76,-83.37"/>
<polygon fill="midnightblue" stroke="midnightblue" points="191.46,-85.59 195.38,-75.75 186.18,-81 191.46,-85.59"/>
</g>
<!-- Node8 -->
<g id="node8" class="node">
<title>Node8</title>
<g id="a_node8"><a xlink:title=" ">
<polygon fill="white" stroke="#bfbfbf" points="0,-56.5 0,-75.5 62,-75.5 62,-56.5 0,-56.5"/>
<text text-anchor="middle" x="31" y="-63.5" font-family="Helvetica,sans-Serif" font-size="10.00">AMReX.H</text>
</a>
</g>
</g>
<!-- Node3&#45;&gt;Node8 -->
<g id="edge7" class="edge">
<title>Node3&#45;&gt;Node8</title>
<path fill="none" stroke="midnightblue" d="M136.19,-112.44C115.71,-103.6 83.52,-89.69 60.14,-79.59"/>
<polygon fill="midnightblue" stroke="midnightblue" points="61.28,-76.27 50.71,-75.52 58.51,-82.7 61.28,-76.27"/>
</g>
<!-- Node9&#45;&gt;Node4 -->
<g id="edge10" class="edge">
<title>Node9&#45;&gt;Node4</title>
<path fill="none" stroke="midnightblue" d="M425.33,-112.32C407.61,-103.62 380.1,-90.12 359.71,-80.11"/>
<polygon fill="midnightblue" stroke="midnightblue" points="361.15,-76.92 350.63,-75.65 358.06,-83.2 361.15,-76.92"/>
</g>
<!-- Node9&#45;&gt;Node5 -->
<g id="edge11" class="edge">
<title>Node9&#45;&gt;Node5</title>
<path fill="none" stroke="midnightblue" d="M446.63,-112.08C449.61,-104.77 453.93,-94.18 457.62,-85.1"/>
<polygon fill="midnightblue" stroke="midnightblue" points="460.9,-86.33 461.43,-75.75 454.42,-83.69 460.9,-86.33"/>
</g>
<!-- Node10 -->
<g id="node10" class="node">
<title>Node10</title>
<g id="a_node10"><a xlink:title=" ">
<polygon fill="white" stroke="#bfbfbf" points="727,-0.5 727,-19.5 771,-19.5 771,-0.5 727,-0.5"/>
<text text-anchor="middle" x="749" y="-7.5" font-family="Helvetica,sans-Serif" font-size="10.00">string</text>
</a>
</g>
</g>
<!-- Node9&#45;&gt;Node10 -->
<g id="edge9" class="edge">
<title>Node9&#45;&gt;Node10</title>
<path fill="none" stroke="midnightblue" d="M432.29,-112.22C417.35,-98.93 393.72,-73.43 409,-56 429.14,-33.02 635.61,-17.96 716.63,-12.89"/>
<polygon fill="midnightblue" stroke="midnightblue" points="716.98,-16.38 726.75,-12.27 716.56,-9.39 716.98,-16.38"/>
</g>
<!-- Node11 -->
<g id="node11" class="node">
<title>Node11</title>
<g id="a_node11"><a xlink:title=" ">
<polygon fill="white" stroke="#bfbfbf" points="491,-0.5 491,-19.5 589,-19.5 589,-0.5 491,-0.5"/>
<text text-anchor="middle" x="540" y="-7.5" font-family="Helvetica,sans-Serif" font-size="10.00">AMReX_Vector.H</text>
</a>
</g>
</g>
<!-- Node9&#45;&gt;Node11 -->
<g id="edge12" class="edge">
<title>Node9&#45;&gt;Node11</title>
<path fill="none" stroke="midnightblue" d="M374.28,-113.47C323.68,-105.16 268.01,-88.4 295,-56 318.19,-28.17 415.96,-17.49 480.76,-13.44"/>
<polygon fill="midnightblue" stroke="midnightblue" points="481.08,-16.92 490.86,-12.84 480.67,-9.93 481.08,-16.92"/>
</g>
<!-- Node14&#45;&gt;Node5 -->
<g id="edge17" class="edge">
<title>Node14&#45;&gt;Node5</title>
<path fill="none" stroke="midnightblue" d="M1103.32,-176.2C962.22,-173.92 661.86,-165.2 564,-132 532.26,-121.23 500.79,-97.82 482.13,-82.23"/>
<polygon fill="midnightblue" stroke="midnightblue" points="484.37,-79.54 474.5,-75.69 479.81,-84.86 484.37,-79.54"/>
</g>
<!-- Node14&#45;&gt;Node10 -->
<g id="edge16" class="edge">
<title>Node14&#45;&gt;Node10</title>
<path fill="none" stroke="midnightblue" d="M1103.41,-175.64C965.51,-171.29 679.79,-152.96 626,-76 601.02,-40.26 672.44,-22.6 716.72,-15.3"/>
<polygon fill="midnightblue" stroke="midnightblue" points="717.44,-18.73 726.78,-13.74 716.36,-11.81 717.44,-18.73"/>
</g>
<!-- Node14&#45;&gt;Node12 -->
<g id="edge50" class="edge">
<title>Node14&#45;&gt;Node12</title>
<path fill="none" stroke="midnightblue" d="M1252.54,-175.53C1413.81,-171.85 1790.57,-160.41 1915,-132 1979.13,-117.36 2015.33,-130.61 2052,-76 2056.96,-68.62 2057.83,-62.71 2052,-56 2035.39,-36.91 1884.03,-22.48 1794.86,-15.55"/>
<polygon fill="midnightblue" stroke="midnightblue" points="1795.08,-12.06 1784.84,-14.79 1794.55,-19.04 1795.08,-12.06"/>
</g>
<!-- Node15 -->
<g id="node15" class="node">
<title>Node15</title>
<g id="a_node15"><a xlink:href="_field_desc_types_8_h.html" target="_top" xlink:title=" ">
<polygon fill="white" stroke="black" points="996,-0.5 996,-19.5 1172,-19.5 1172,-0.5 996,-0.5"/>
<text text-anchor="middle" x="1084" y="-7.5" font-family="Helvetica,sans-Serif" font-size="10.00">amr&#45;wind/core/FieldDescTypes.H</text>
</a>
</g>
</g>
<!-- Node14&#45;&gt;Node15 -->
<g id="edge18" class="edge">
<title>Node14&#45;&gt;Node15</title>
<path fill="none" stroke="midnightblue" d="M1155.23,-168.37C1139.22,-161.11 1118.65,-149.14 1107,-132 1085.84,-100.87 1082.91,-55.33 1083.14,-29.93"/>
<polygon fill="midnightblue" stroke="midnightblue" points="1086.64,-29.89 1083.41,-19.79 1079.64,-29.7 1086.64,-29.89"/>
</g>
<!-- Node16 -->
<g id="node16" class="node">
<title>Node16</title>
<g id="a_node16"><a xlink:href="_field_utils_8_h.html" target="_top" xlink:title=" ">
<polygon fill="white" stroke="black" points="1897,-56.5 1897,-75.5 2043,-75.5 2043,-56.5 1897,-56.5"/>
<text text-anchor="middle" x="1970" y="-63.5" font-family="Helvetica,sans-Serif" font-size="10.00">amr&#45;wind/core/FieldUtils.H</text>
</a>
</g>
</g>
<!-- Node14&#45;&gt;Node16 -->
<g id="edge19" class="edge">
<title>Node14&#45;&gt;Node16</title>
<path fill="none" stroke="midnightblue" d="M1252.62,-177.58C1409.63,-177.92 1769.06,-173.94 1883,-132 1911.33,-121.57 1938.25,-98.77 1954.44,-83.14"/>
<polygon fill="midnightblue" stroke="midnightblue" points="1957.27,-85.27 1961.89,-75.73 1952.33,-80.31 1957.27,-85.27"/>
</g>
<!-- Node18 -->
<g id="node18" class="node">
<title>Node18</title>
<g id="a_node18"><a xlink:href="_field_8_h.html" target="_top" xlink:title=" ">
<polygon fill="white" stroke="black" points="1116,-112.5 1116,-131.5 1240,-131.5 1240,-112.5 1116,-112.5"/>
<text text-anchor="middle" x="1178" y="-119.5" font-family="Helvetica,sans-Serif" font-size="10.00">amr&#45;wind/core/Field.H</text>
</a>
</g>
</g>
<!-- Node14&#45;&gt;Node18 -->
<g id="edge23" class="edge">
<title>Node14&#45;&gt;Node18</title>
<path fill="none" stroke="midnightblue" d="M1178,-168.08C1178,-161.01 1178,-150.86 1178,-141.99"/>
<polygon fill="midnightblue" stroke="midnightblue" points="1181.5,-141.75 1178,-131.75 1174.5,-141.75 1181.5,-141.75"/>
</g>
<!-- Node24 -->
<g id="node24" class="node">
<title>Node24</title>
<g id="a_node24"><a xlink:href="_int_field_8_h.html" target="_top" xlink:title=" ">
<polygon fill="white" stroke="black" points="1600.5,-112.5 1600.5,-131.5 1737.5,-131.5 1737.5,-112.5 1600.5,-112.5"/>
<text text-anchor="middle" x="1669" y="-119.5" font-family="Helvetica,sans-Serif" font-size="10.00">amr&#45;wind/core/IntField.H</text>
</a>
</g>
</g>
<!-- Node14&#45;&gt;Node24 -->
<g id="edge38" class="edge">
<title>Node14&#45;&gt;Node24</title>
<path fill="none" stroke="midnightblue" d="M1252.57,-168.8C1343.72,-158.77 1497.28,-141.89 1590.28,-131.66"/>
<polygon fill="midnightblue" stroke="midnightblue" points="1590.91,-135.11 1600.47,-130.54 1590.15,-128.15 1590.91,-135.11"/>
</g>
<!-- Node25 -->
<g id="node25" class="node">
<title>Node25</title>
<g id="a_node25"><a xlink:title=" ">
<polygon fill="white" stroke="#bfbfbf" points="1729,-56.5 1729,-75.5 1841,-75.5 1841,-56.5 1729,-56.5"/>
<text text-anchor="middle" x="1785" y="-63.5" font-family="Helvetica,sans-Serif" font-size="10.00">AMReX_iMultiFab.H</text>
</a>
</g>
</g>
<!-- Node14&#45;&gt;Node25 -->
<g id="edge51" class="edge">
<title>Node14&#45;&gt;Node25</title>
<path fill="none" stroke="midnightblue" d="M1252.68,-174.87C1397.3,-170.2 1705.03,-157.38 1746,-132 1762.92,-121.51 1773.46,-100.72 1779.26,-85.47"/>
<polygon fill="midnightblue" stroke="midnightblue" points="1782.72,-86.16 1782.66,-75.56 1776.1,-83.88 1782.72,-86.16"/>
</g>
<!-- Node26 -->
<g id="node26" class="node">
<title>Node26</title>
<g id="a_node26"><a xlink:href="_scratch_field_8_h.html" target="_top" xlink:title=" ">
<polygon fill="white" stroke="black" points="788,-112.5 788,-131.5 948,-131.5 948,-112.5 788,-112.5"/>
<text text-anchor="middle" x="868" y="-119.5" font-family="Helvetica,sans-Serif" font-size="10.00">amr&#45;wind/core/ScratchField.H</text>
</a>
</g>
</g>
<!-- Node14&#45;&gt;Node26 -->
<g id="edge42" class="edge">
<title>Node14&#45;&gt;Node26</title>
<path fill="none" stroke="midnightblue" d="M1128.88,-168.44C1074.12,-158.9 985.59,-143.48 927.09,-133.29"/>
<polygon fill="midnightblue" stroke="midnightblue" points="927.34,-129.78 916.89,-131.52 926.14,-136.68 927.34,-129.78"/>
</g>
<!-- Node28 -->
<g id="node28" class="node">
<title>Node28</title>
<g id="a_node28"><a xlink:title=" ">
<polygon fill="white" stroke="#bfbfbf" points="2099,-112.5 2099,-131.5 2209,-131.5 2209,-112.5 2099,-112.5"/>
<text text-anchor="middle" x="2154" y="-119.5" font-family="Helvetica,sans-Serif" font-size="10.00">AMReX_AmrCore.H</text>
</a>
</g>
</g>
<!-- Node14&#45;&gt;Node28 -->
<g id="edge49" class="edge">
<title>Node14&#45;&gt;Node28</title>
<path fill="none" stroke="midnightblue" d="M1252.5,-175.32C1407.66,-171.39 1776.64,-159.72 2085,-132 2086.11,-131.9 2087.24,-131.8 2088.37,-131.69"/>
<polygon fill="midnightblue" stroke="midnightblue" points="2089.1,-135.13 2098.68,-130.61 2088.37,-128.17 2089.1,-135.13"/>
</g>
<!-- Node16&#45;&gt;Node12 -->
<g id="edge21" class="edge">
<title>Node16&#45;&gt;Node12</title>
<path fill="none" stroke="midnightblue" d="M1931.97,-56.44C1890.19,-47.04 1823.02,-31.93 1777.73,-21.74"/>
<polygon fill="midnightblue" stroke="midnightblue" points="1778.38,-18.3 1767.85,-19.52 1776.84,-25.13 1778.38,-18.3"/>
</g>
<!-- Node16&#45;&gt;Node15 -->
<g id="edge20" class="edge">
<title>Node16&#45;&gt;Node15</title>
<path fill="none" stroke="midnightblue" d="M1896.72,-59.31C1881.29,-58.17 1865.11,-57.01 1850,-56 1610.35,-39.97 1328.31,-24.2 1182.47,-16.27"/>
<polygon fill="midnightblue" stroke="midnightblue" points="1182.38,-12.76 1172.2,-15.72 1182,-19.75 1182.38,-12.76"/>
</g>
<!-- Node17 -->
<g id="node17" class="node">
<title>Node17</title>
<g id="a_node17"><a xlink:title=" ">
<polygon fill="white" stroke="#bfbfbf" points="1908,-0.5 1908,-19.5 2032,-19.5 2032,-0.5 1908,-0.5"/>
<text text-anchor="middle" x="1970" y="-7.5" font-family="Helvetica,sans-Serif" font-size="10.00">AMReX_Interpolater.H</text>
</a>
</g>
</g>
<!-- Node16&#45;&gt;Node17 -->
<g id="edge22" class="edge">
<title>Node16&#45;&gt;Node17</title>
<path fill="none" stroke="midnightblue" d="M1970,-56.08C1970,-49.01 1970,-38.86 1970,-29.99"/>
<polygon fill="midnightblue" stroke="midnightblue" points="1973.5,-29.75 1970,-19.75 1966.5,-29.75 1973.5,-29.75"/>
</g>
<!-- Node18&#45;&gt;Node4 -->
<g id="edge25" class="edge">
<title>Node18&#45;&gt;Node4</title>
<path fill="none" stroke="midnightblue" d="M1115.86,-118.62C984.95,-113.32 671.27,-99.18 409,-76 397.02,-74.94 384.02,-73.51 372.21,-72.09"/>
<polygon fill="midnightblue" stroke="midnightblue" points="372.54,-68.61 362.19,-70.87 371.69,-75.56 372.54,-68.61"/>
</g>
<!-- Node18&#45;&gt;Node5 -->
<g id="edge26" class="edge">
<title>Node18&#45;&gt;Node5</title>
<path fill="none" stroke="midnightblue" d="M1115.97,-116.3C979.24,-105.95 653.61,-81.28 521.82,-71.3"/>
<polygon fill="midnightblue" stroke="midnightblue" points="521.79,-67.79 511.55,-70.53 521.26,-74.77 521.79,-67.79"/>
</g>
<!-- Node18&#45;&gt;Node10 -->
<g id="edge24" class="edge">
<title>Node18&#45;&gt;Node10</title>
<path fill="none" stroke="midnightblue" d="M1150.19,-112.46C1107.54,-99.48 1023.31,-74.39 951,-56 891.39,-40.84 821.17,-25.83 781.19,-17.55"/>
<polygon fill="midnightblue" stroke="midnightblue" points="781.72,-14.09 771.22,-15.5 780.31,-20.94 781.72,-14.09"/>
</g>
<!-- Node18&#45;&gt;Node12 -->
<g id="edge28" class="edge">
<title>Node18&#45;&gt;Node12</title>
<path fill="none" stroke="midnightblue" d="M1240.23,-121.64C1324.66,-120.89 1479.37,-113.8 1605,-76 1643.87,-64.3 1684.88,-40.45 1708.92,-25.12"/>
<polygon fill="midnightblue" stroke="midnightblue" points="1711.07,-27.9 1717.55,-19.52 1707.25,-22.03 1711.07,-27.9"/>
</g>
<!-- Node18&#45;&gt;Node15 -->
<g id="edge32" class="edge">
<title>Node18&#45;&gt;Node15</title>
<path fill="none" stroke="midnightblue" d="M1170.62,-112.37C1154.97,-94.05 1118.22,-51.05 1097.98,-27.36"/>
<polygon fill="midnightblue" stroke="midnightblue" points="1100.5,-24.92 1091.34,-19.59 1095.18,-29.47 1100.5,-24.92"/>
</g>
<!-- Node19 -->
<g id="node19" class="node">
<title>Node19</title>
<g id="a_node19"><a xlink:title=" ">
<polygon fill="white" stroke="#bfbfbf" points="1310,-56.5 1310,-75.5 1374,-75.5 1374,-56.5 1310,-56.5"/>
<text text-anchor="middle" x="1342" y="-63.5" font-family="Helvetica,sans-Serif" font-size="10.00">algorithm</text>
</a>
</g>
</g>
<!-- Node18&#45;&gt;Node19 -->
<g id="edge27" class="edge">
<title>Node18&#45;&gt;Node19</title>
<path fill="none" stroke="midnightblue" d="M1203.99,-112.44C1231.7,-103.32 1275.75,-88.81 1306.62,-78.65"/>
<polygon fill="midnightblue" stroke="midnightblue" points="1307.73,-81.97 1316.14,-75.52 1305.54,-75.32 1307.73,-81.97"/>
</g>
<!-- Node20 -->
<g id="node20" class="node">
<title>Node20</title>
<g id="a_node20"><a xlink:title=" ">
<polygon fill="white" stroke="#bfbfbf" points="1392.5,-56.5 1392.5,-75.5 1491.5,-75.5 1491.5,-56.5 1392.5,-56.5"/>
<text text-anchor="middle" x="1442" y="-63.5" font-family="Helvetica,sans-Serif" font-size="10.00">AMReX_BCRec.H</text>
</a>
</g>
</g>
<!-- Node18&#45;&gt;Node20 -->
<g id="edge29" class="edge">
<title>Node18&#45;&gt;Node20</title>
<path fill="none" stroke="midnightblue" d="M1219.83,-112.44C1266.08,-102.98 1340.61,-87.74 1390.44,-77.55"/>
<polygon fill="midnightblue" stroke="midnightblue" points="1391.27,-80.95 1400.36,-75.52 1389.87,-74.09 1391.27,-80.95"/>
</g>
<!-- Node21 -->
<g id="node21" class="node">
<title>Node21</title>
<g id="a_node21"><a xlink:title=" ">
<polygon fill="white" stroke="#bfbfbf" points="1509.5,-56.5 1509.5,-75.5 1596.5,-75.5 1596.5,-56.5 1509.5,-56.5"/>
<text text-anchor="middle" x="1553" y="-63.5" font-family="Helvetica,sans-Serif" font-size="10.00">AMReX_Gpu.H</text>
</a>
</g>
</g>
<!-- Node18&#45;&gt;Node21 -->
<g id="edge30" class="edge">
<title>Node18&#45;&gt;Node21</title>
<path fill="none" stroke="midnightblue" d="M1240.11,-112.87C1302.86,-104.53 1402.86,-90.9 1499.41,-76.05"/>
<polygon fill="midnightblue" stroke="midnightblue" points="1500,-79.5 1509.34,-74.52 1498.93,-72.59 1500,-79.5"/>
</g>
<!-- Node22 -->
<g id="node22" class="node">
<title>Node22</title>
<g id="a_node22"><a xlink:href="incflo__enums_8_h.html" target="_top" xlink:title=" ">
<polygon fill="white" stroke="black" points="1150.5,-56.5 1150.5,-75.5 1291.5,-75.5 1291.5,-56.5 1150.5,-56.5"/>
<text text-anchor="middle" x="1221" y="-63.5" font-family="Helvetica,sans-Serif" font-size="10.00">amr&#45;wind/incflo_enums.H</text>
</a>
</g>
</g>
<!-- Node18&#45;&gt;Node22 -->
<g id="edge31" class="edge">
<title>Node18&#45;&gt;Node22</title>
<path fill="none" stroke="midnightblue" d="M1185.1,-112.08C1191.24,-104.38 1200.27,-93.03 1207.74,-83.65"/>
<polygon fill="midnightblue" stroke="midnightblue" points="1210.54,-85.75 1214.03,-75.75 1205.06,-81.39 1210.54,-85.75"/>
</g>
<!-- Node23 -->
<g id="node23" class="node">
<title>Node23</title>
<g id="a_node23"><a xlink:href="_view_field_8_h.html" target="_top" xlink:title=" ">
<polygon fill="white" stroke="black" points="794,-56.5 794,-75.5 942,-75.5 942,-56.5 794,-56.5"/>
<text text-anchor="middle" x="868" y="-63.5" font-family="Helvetica,sans-Serif" font-size="10.00">amr&#45;wind/core/ViewField.H</text>
</a>
</g>
</g>
<!-- Node18&#45;&gt;Node23 -->
<g id="edge33" class="edge">
<title>Node18&#45;&gt;Node23</title>
<path fill="none" stroke="midnightblue" d="M1128.88,-112.44C1074.12,-102.9 985.59,-87.48 927.09,-77.29"/>
<polygon fill="midnightblue" stroke="midnightblue" points="927.34,-73.78 916.89,-75.52 926.14,-80.68 927.34,-73.78"/>
</g>
<!-- Node23&#45;&gt;Node10 -->
<g id="edge34" class="edge">
<title>Node23&#45;&gt;Node10</title>
<path fill="none" stroke="midnightblue" d="M849.14,-56.44C829.73,-47.64 799.27,-33.81 777.04,-23.72"/>
<polygon fill="midnightblue" stroke="midnightblue" points="778.32,-20.46 767.77,-19.52 775.43,-26.84 778.32,-20.46"/>
</g>
<!-- Node23&#45;&gt;Node11 -->
<g id="edge37" class="edge">
<title>Node23&#45;&gt;Node11</title>
<path fill="none" stroke="midnightblue" d="M816.03,-56.44C756.99,-46.72 660.86,-30.9 599.04,-20.72"/>
<polygon fill="midnightblue" stroke="midnightblue" points="599.49,-17.25 589.05,-19.08 598.35,-24.15 599.49,-17.25"/>
</g>
<!-- Node23&#45;&gt;Node12 -->
<g id="edge36" class="edge">
<title>Node23&#45;&gt;Node12</title>
<path fill="none" stroke="midnightblue" d="M942.24,-60.35C1108.41,-49.94 1508,-24.91 1665.05,-15.07"/>
<polygon fill="midnightblue" stroke="midnightblue" points="1665.73,-18.53 1675.49,-14.41 1665.29,-11.55 1665.73,-18.53"/>
</g>
<!-- Node23&#45;&gt;Node15 -->
<g id="edge35" class="edge">
<title>Node23&#45;&gt;Node15</title>
<path fill="none" stroke="midnightblue" d="M902.23,-56.44C939.51,-47.12 999.27,-32.18 1040.01,-22"/>
<polygon fill="midnightblue" stroke="midnightblue" points="1041.08,-25.34 1049.93,-19.52 1039.38,-18.55 1041.08,-25.34"/>
</g>
<!-- Node24&#45;&gt;Node10 -->
<g id="edge39" class="edge">
<title>Node24&#45;&gt;Node10</title>
<path fill="none" stroke="midnightblue" d="M1663.6,-112.26C1653.94,-97.55 1632.15,-68.22 1605,-56 1585.87,-47.39 935.77,-19.01 781.57,-12.39"/>
<polygon fill="midnightblue" stroke="midnightblue" points="781.48,-8.88 771.34,-11.95 781.18,-15.88 781.48,-8.88"/>
</g>
<!-- Node24&#45;&gt;Node15 -->
<g id="edge40" class="edge">
<title>Node24&#45;&gt;Node15</title>
<path fill="none" stroke="midnightblue" d="M1673.92,-112.11C1680.87,-98.21 1691.22,-71.34 1677,-56 1644.16,-20.57 1342.44,-12.9 1182.5,-11.33"/>
<polygon fill="midnightblue" stroke="midnightblue" points="1182.21,-7.82 1172.18,-11.23 1182.14,-14.82 1182.21,-7.82"/>
</g>
<!-- Node24&#45;&gt;Node25 -->
<g id="edge41" class="edge">
<title>Node24&#45;&gt;Node25</title>
<path fill="none" stroke="midnightblue" d="M1687.38,-112.44C1706.22,-103.68 1735.73,-89.94 1757.38,-79.86"/>
<polygon fill="midnightblue" stroke="midnightblue" points="1759.12,-82.91 1766.71,-75.52 1756.16,-76.56 1759.12,-82.91"/>
</g>
<!-- Node26&#45;&gt;Node10 -->
<g id="edge43" class="edge">
<title>Node26&#45;&gt;Node10</title>
<path fill="none" stroke="midnightblue" d="M787.73,-116.17C728.24,-110.73 654.28,-99.35 635,-76 609.08,-44.59 674.94,-25.35 717.05,-16.6"/>
<polygon fill="midnightblue" stroke="midnightblue" points="717.78,-20.03 726.92,-14.65 716.43,-13.16 717.78,-20.03"/>
</g>
<!-- Node26&#45;&gt;Node11 -->
<g id="edge47" class="edge">
<title>Node26&#45;&gt;Node11</title>
<path fill="none" stroke="midnightblue" d="M787.89,-115.45C739.39,-109.85 677.22,-98.6 626,-76 598.88,-64.03 572.4,-41.99 556.15,-26.92"/>
<polygon fill="midnightblue" stroke="midnightblue" points="558.29,-24.13 548.63,-19.77 553.46,-29.2 558.29,-24.13"/>
</g>
<!-- Node26&#45;&gt;Node12 -->
<g id="edge46" class="edge">
<title>Node26&#45;&gt;Node12</title>
<path fill="none" stroke="midnightblue" d="M897.19,-112.44C946.81,-98.26 1050.98,-70.07 1141,-56 1329.96,-26.48 1556.17,-16.09 1665.09,-12.62"/>
<polygon fill="midnightblue" stroke="midnightblue" points="1665.38,-16.11 1675.26,-12.31 1665.16,-9.12 1665.38,-16.11"/>
</g>
<!-- Node26&#45;&gt;Node15 -->
<g id="edge44" class="edge">
<title>Node26&#45;&gt;Node15</title>
<path fill="none" stroke="midnightblue" d="M884.95,-112.37C922.57,-93.21 1013.24,-47.04 1058.05,-24.22"/>
<polygon fill="midnightblue" stroke="midnightblue" points="1059.81,-27.25 1067.13,-19.59 1056.63,-21.01 1059.81,-27.25"/>
</g>
<!-- Node26&#45;&gt;Node23 -->
<g id="edge45" class="edge">
<title>Node26&#45;&gt;Node23</title>
<path fill="none" stroke="midnightblue" d="M868,-112.08C868,-105.01 868,-94.86 868,-85.99"/>
<polygon fill="midnightblue" stroke="midnightblue" points="871.5,-85.75 868,-75.75 864.5,-85.75 871.5,-85.75"/>
</g>
<!-- Node27 -->
<g id="node27" class="node">
<title>Node27</title>
<g id="a_node27"><a xlink:title=" ">
<polygon fill="white" stroke="#bfbfbf" points="644.5,-56.5 644.5,-75.5 775.5,-75.5 775.5,-56.5 644.5,-56.5"/>
<text text-anchor="middle" x="710" y="-63.5" font-family="Helvetica,sans-Serif" font-size="10.00">AMReX_PhysBCFunct.H</text>
</a>
</g>
</g>
<!-- Node26&#45;&gt;Node27 -->
<g id="edge48" class="edge">
<title>Node26&#45;&gt;Node27</title>
<path fill="none" stroke="midnightblue" d="M842.96,-112.44C816.38,-103.36 774.19,-88.94 744.48,-78.78"/>
<polygon fill="midnightblue" stroke="midnightblue" points="745.51,-75.44 734.92,-75.52 743.25,-82.06 745.51,-75.44"/>
</g>
</g>
</svg>
        <g id="navigator" transform="translate(0 0)" fill="#404254">
                <rect fill="#f2f5e9" fill-opacity="0.5" stroke="#606060" stroke-width=".5" x="0" y="0" width="60" height="60"/>
                <use id="zoomplus" xlink:href="#zoomPlus" x="17" y="9" onmousedown="handleZoom(evt,'in')"/>
                <use id="zoomminus" xlink:href="#zoomMin" x="42" y="9" onmousedown="handleZoom(evt,'out')"/>
                <use id="reset" xlink:href="#resetDef" x="30" y="36" onmousedown="handleReset()"/>
                <g id="arrowUp" xlink:href="#dirArrow" transform="translate(30 24)" onmousedown="handlePan(0,-1)">
                  <use xlink:href="#rim" fill="#404040">
                        <set attributeName="fill" to="#808080" begin="arrowUp.mouseover" end="arrowUp.mouseout"/>
                  </use>
                  <path fill="none" stroke="white" stroke-width="1.5" d="M0,-3.0v7 M-2.5,-0.5L0,-3.0L2.5,-0.5"/>
                </g>
                <g id="arrowRight" xlink:href="#dirArrow" transform="rotate(90) translate(36 -43)" onmousedown="handlePan(1,0)">
                  <use xlink:href="#rim" fill="#404040">
                        <set attributeName="fill" to="#808080" begin="arrowRight.mouseover" end="arrowRight.mouseout"/>
                  </use>
                  <path fill="none" stroke="white" stroke-width="1.5" d="M0,-3.0v7 M-2.5,-0.5L0,-3.0L2.5,-0.5"/>
                </g>
                <g id="arrowDown" xlink:href="#dirArrow" transform="rotate(180) translate(-30 -48)" onmousedown="handlePan(0,1)">
                  <use xlink:href="#rim" fill="#404040">
                        <set attributeName="fill" to="#808080" begin="arrowDown.mouseover" end="arrowDown.mouseout"/>
                  </use>
                  <path fill="none" stroke="white" stroke-width="1.5" d="M0,-3.0v7 M-2.5,-0.5L0,-3.0L2.5,-0.5"/>
                </g>
                <g id="arrowLeft" xlink:href="#dirArrow" transform="rotate(270) translate(-36 17)" onmousedown="handlePan(-1,0)">
                  <use xlink:href="#rim" fill="#404040">
                        <set attributeName="fill" to="#808080" begin="arrowLeft.mouseover" end="arrowLeft.mouseout"/>
                  </use>
                  <path fill="none" stroke="white" stroke-width="1.5" d="M0,-3.0v7 M-2.5,-0.5L0,-3.0L2.5,-0.5"/>
                </g>
        </g>
        <svg viewBox="0 0 15 15" width="100%" height="30px" preserveAspectRatio="xMaxYMin meet">
         <g id="arrow_out" transform="scale(0.3 0.3)">
          <a xlink:href="_i_b_8_h__incl_org.svg" target="_base">
           <rect id="button" ry="5" rx="5" y="6" x="6" height="38" width="38"
                fill="#f2f5e9" fill-opacity="0.5" stroke="#606060" stroke-width="1.0"/>
           <path id="arrow"
             d="M 11.500037,31.436501 C 11.940474,20.09759 22.043105,11.32322 32.158766,21.979434 L 37.068811,17.246167 C 37.068811,17.246167 37.088388,32 37.088388,32 L 22.160133,31.978069 C 22.160133,31.978069 26.997745,27.140456 26.997745,27.140456 C 18.528582,18.264221 13.291696,25.230495 11.500037,31.436501 z"
             style="fill:#404040;"/>
          </a>
         </g>
        </svg>
</svg>
