<?xml version="1.0" encoding="UTF-8" standalone="no"?>
<!DOCTYPE svg PUBLIC "-//W3C//DTD SVG 1.1//EN"
 "http://www.w3.org/Graphics/SVG/1.1/DTD/svg11.dtd">
<!-- Generated by graphviz version 2.43.0 (0)
 -->
<!-- Title: IntField.H Pages: 1 -->
<!--zoomable 196 -->
<svg id="main" version="1.1" xmlns="http://www.w3.org/2000/svg" xmlns:xlink="http://www.w3.org/1999/xlink" xml:space="preserve" onload="init(evt)">
<style type="text/css"><![CDATA[
.edge:hover path { stroke: red; }
.edge:hover polygon { stroke: red; fill: red; }
]]></style>
<script type="text/javascript"><![CDATA[
var edges = document.getElementsByTagName('g');
if (edges && edges.length) {
  for (var i=0;i<edges.length;i++) {
    if (edges[i].id.substr(0,4)=='edge') {
      edges[i].setAttribute('class','edge');
    }
  }
}
]]></script>
        <defs>
                <circle id="rim" cx="0" cy="0" r="7"/>
                <circle id="rim2" cx="0" cy="0" r="3.5"/>
                <g id="zoomPlus">
                        <use xlink:href="#rim" fill="#404040">
                                <set attributeName="fill" to="#808080" begin="zoomplus.mouseover" end="zoomplus.mouseout"/>
                        </use>
                        <path d="M-4,0h8M0,-4v8" fill="none" stroke="white" stroke-width="1.5" pointer-events="none"/>
                </g>
                <g id="zoomMin">
                        <use xlink:href="#rim" fill="#404040">
                                <set attributeName="fill" to="#808080" begin="zoomminus.mouseover" end="zoomminus.mouseout"/>
                        </use>
                        <path d="M-4,0h8" fill="none" stroke="white" stroke-width="1.5" pointer-events="none"/>
                </g>
                <g id="dirArrow">
                        <path fill="none" stroke="white" stroke-width="1.5" d="M0,-3.0v7 M-2.5,-0.5L0,-3.0L2.5,-0.5"/>
                </g>
               <g id="resetDef">
                       <use xlink:href="#rim2" fill="#404040">
                               <set attributeName="fill" to="#808080" begin="reset.mouseover" end="reset.mouseout"/>
                       </use>
               </g>
        </defs>

<script type="text/javascript">
var viewWidth = 3755;
var viewHeight = 196;
var sectionId = 'dynsection-1';
</script>
<script xlink:href="svgpan.js"/>
<svg id="graph" class="graph">
<g id="viewport">
<title>IntField.H</title>
<polygon fill="white" stroke="transparent" points="-4,4 -4,-192 3750.5,-192 3750.5,4 -4,4"/>
<!-- Node1 -->
<g id="node1" class="node">
<title>Node1</title>
<g id="a_node1"><a xlink:title=" ">
<polygon fill="#bfbfbf" stroke="black" points="812,-168.5 812,-187.5 875,-187.5 875,-168.5 812,-168.5"/>
<text text-anchor="middle" x="843.5" y="-175.5" font-family="Helvetica,sans-Serif" font-size="10.00">IntField.H</text>
</a>
</g>
</g>
<!-- Node2 -->
<g id="node2" class="node">
<title>Node2</title>
<g id="a_node2"><a xlink:href="_field_repo_8_h.html" target="_top" xlink:title=" ">
<polygon fill="white" stroke="black" points="1612,-112.5 1612,-131.5 1687,-131.5 1687,-112.5 1612,-112.5"/>
<text text-anchor="middle" x="1649.5" y="-119.5" font-family="Helvetica,sans-Serif" font-size="10.00">FieldRepo.H</text>
</a>
</g>
</g>
<!-- Node1&#45;&gt;Node2 -->
<g id="edge1" class="edge">
<title>Node1&#45;&gt;Node2</title>
<path fill="none" stroke="midnightblue" d="M885.42,-174.19C1025.76,-164.79 1477.82,-134.5 1611.76,-125.53"/>
<polygon fill="midnightblue" stroke="midnightblue" points="884.84,-170.72 875.1,-174.88 885.31,-177.71 884.84,-170.72"/>
</g>
<!-- Node197 -->
<g id="node21" class="node">
<title>Node197</title>
<g id="a_node21"><a xlink:href="_int_field_8cpp.html" target="_top" xlink:title=" ">
<polygon fill="white" stroke="black" points="0,-56.5 0,-75.5 73,-75.5 73,-56.5 0,-56.5"/>
<text text-anchor="middle" x="36.5" y="-63.5" font-family="Helvetica,sans-Serif" font-size="10.00">IntField.cpp</text>
</a>
</g>
</g>
<!-- Node1&#45;&gt;Node197 -->
<g id="edge68" class="edge">
<title>Node1&#45;&gt;Node197</title>
<path fill="none" stroke="midnightblue" d="M801.73,-172.37C686.71,-159.41 355.75,-120.82 82.5,-76 79.45,-75.5 76.29,-74.95 73.12,-74.38"/>
<polygon fill="midnightblue" stroke="midnightblue" points="801.54,-175.87 811.86,-173.51 802.32,-168.91 801.54,-175.87"/>
</g>
<!-- Node3 -->
<g id="node3" class="node">
<title>Node3</title>
<g id="a_node3"><a xlink:href="_b_c_interface_8cpp.html" target="_top" xlink:title=" ">
<polygon fill="white" stroke="black" points="1215.5,-0.5 1215.5,-19.5 1309.5,-19.5 1309.5,-0.5 1215.5,-0.5"/>
<text text-anchor="middle" x="1262.5" y="-7.5" font-family="Helvetica,sans-Serif" font-size="10.00">BCInterface.cpp</text>
</a>
</g>
</g>
<!-- Node2&#45;&gt;Node3 -->
<g id="edge2" class="edge">
<title>Node2&#45;&gt;Node3</title>
<path fill="none" stroke="midnightblue" d="M1649.3,-102.13C1648.05,-87.29 1643.78,-67.28 1630.5,-56 1606.46,-35.58 1403.52,-20.05 1309.71,-13.89"/>
<polygon fill="midnightblue" stroke="midnightblue" points="1645.8,-102.42 1649.75,-112.25 1652.8,-102.1 1645.8,-102.42"/>
</g>
<!-- Node4 -->
<g id="node4" class="node">
<title>Node4</title>
<g id="a_node4"><a xlink:href="_fixed_gradient_b_c_8_h.html" target="_top" xlink:title=" ">
<polygon fill="white" stroke="black" points="637.5,-56.5 637.5,-75.5 745.5,-75.5 745.5,-56.5 637.5,-56.5"/>
<text text-anchor="middle" x="691.5" y="-63.5" font-family="Helvetica,sans-Serif" font-size="10.00">FixedGradientBC.H</text>
</a>
</g>
</g>
<!-- Node2&#45;&gt;Node4 -->
<g id="edge3" class="edge">
<title>Node2&#45;&gt;Node4</title>
<path fill="none" stroke="midnightblue" d="M1601.57,-120.14C1467.47,-117.38 1077.16,-107.09 754.5,-76 751.64,-75.72 748.71,-75.41 745.76,-75.07"/>
<polygon fill="midnightblue" stroke="midnightblue" points="1601.83,-123.64 1611.89,-120.34 1601.97,-116.64 1601.83,-123.64"/>
</g>
<!-- Node6 -->
<g id="node6" class="node">
<title>Node6</title>
<g id="a_node6"><a xlink:href="velocity__bcs_8_h.html" target="_top" xlink:title=" ">
<polygon fill="white" stroke="black" points="3658.5,-56.5 3658.5,-75.5 3746.5,-75.5 3746.5,-56.5 3658.5,-56.5"/>
<text text-anchor="middle" x="3702.5" y="-63.5" font-family="Helvetica,sans-Serif" font-size="10.00">velocity_bcs.H</text>
</a>
</g>
</g>
<!-- Node2&#45;&gt;Node6 -->
<g id="edge6" class="edge">
<title>Node2&#45;&gt;Node6</title>
<path fill="none" stroke="midnightblue" d="M1697.25,-120.87C1962.12,-120.01 3253.1,-113.91 3649.5,-76 3652.38,-75.72 3655.34,-75.38 3658.32,-75"/>
<polygon fill="midnightblue" stroke="midnightblue" points="1697.18,-117.37 1687.19,-120.9 1697.2,-124.37 1697.18,-117.37"/>
</g>
<!-- Node9 -->
<g id="node8" class="node">
<title>Node9</title>
<g id="a_node8"><a xlink:href="_c_f_d_sim_8_h.html" target="_top" xlink:title=" ">
<polygon fill="white" stroke="red" points="401.5,-56.5 401.5,-75.5 467.5,-75.5 467.5,-56.5 401.5,-56.5"/>
<text text-anchor="middle" x="434.5" y="-63.5" font-family="Helvetica,sans-Serif" font-size="10.00">CFDSim.H</text>
</a>
</g>
</g>
<!-- Node2&#45;&gt;Node9 -->
<g id="edge8" class="edge">
<title>Node2&#45;&gt;Node9</title>
<path fill="none" stroke="midnightblue" d="M1601.7,-120.12C1410.97,-116.46 703.98,-101.44 481.5,-76 476.96,-75.48 472.2,-74.77 467.53,-73.97"/>
<polygon fill="midnightblue" stroke="midnightblue" points="1601.89,-123.62 1611.95,-120.32 1602.02,-116.63 1601.89,-123.62"/>
</g>
<!-- Node11 -->
<g id="node9" class="node">
<title>Node11</title>
<g id="a_node9"><a xlink:href="incflo_8_h.html" target="_top" xlink:title=" ">
<polygon fill="white" stroke="red" points="254,-0.5 254,-19.5 307,-19.5 307,-0.5 254,-0.5"/>
<text text-anchor="middle" x="280.5" y="-7.5" font-family="Helvetica,sans-Serif" font-size="10.00">incflo.H</text>
</a>
</g>
</g>
<!-- Node2&#45;&gt;Node11 -->
<g id="edge26" class="edge">
<title>Node2&#45;&gt;Node11</title>
<path fill="none" stroke="midnightblue" d="M1601.63,-120.87C1384.13,-120.08 494.47,-114.48 376.5,-76 340.33,-64.2 305.24,-34.4 289.35,-19.6"/>
<polygon fill="midnightblue" stroke="midnightblue" points="1601.76,-124.37 1611.77,-120.91 1601.78,-117.37 1601.76,-124.37"/>
</g>
<!-- Node89 -->
<g id="node10" class="node">
<title>Node89</title>
<g id="a_node10"><a xlink:href="_p_d_e_base_8cpp.html" target="_top" xlink:title=" ">
<polygon fill="white" stroke="black" points="90.5,-0.5 90.5,-19.5 170.5,-19.5 170.5,-0.5 90.5,-0.5"/>
<text text-anchor="middle" x="130.5" y="-7.5" font-family="Helvetica,sans-Serif" font-size="10.00">PDEBase.cpp</text>
</a>
</g>
</g>
<!-- Node2&#45;&gt;Node89 -->
<g id="edge43" class="edge">
<title>Node2&#45;&gt;Node89</title>
<path fill="none" stroke="midnightblue" d="M1601.62,-121.12C1368.2,-121.5 355.45,-120.55 222.5,-76 204.51,-69.97 160.95,-35.75 140.91,-19.53"/>
<polygon fill="midnightblue" stroke="midnightblue" points="1601.83,-124.62 1611.82,-121.1 1601.82,-117.62 1601.83,-124.62"/>
</g>
<!-- Node103 -->
<g id="node11" class="node">
<title>Node103</title>
<g id="a_node11"><a xlink:href="_i_b_8cpp.html" target="_top" xlink:title=" ">
<polygon fill="white" stroke="black" points="189,-0.5 189,-19.5 236,-19.5 236,-0.5 189,-0.5"/>
<text text-anchor="middle" x="212.5" y="-7.5" font-family="Helvetica,sans-Serif" font-size="10.00">IB.cpp</text>
</a>
</g>
</g>
<!-- Node2&#45;&gt;Node103 -->
<g id="edge51" class="edge">
<title>Node2&#45;&gt;Node103</title>
<path fill="none" stroke="midnightblue" d="M1601.9,-120.66C1380.58,-118.88 457.68,-109.51 333.5,-76 289.99,-64.26 244.77,-34.43 224.08,-19.61"/>
<polygon fill="midnightblue" stroke="midnightblue" points="1601.87,-124.16 1611.9,-120.73 1601.93,-117.16 1601.87,-124.16"/>
</g>
<!-- Node106 -->
<g id="node12" class="node">
<title>Node106</title>
<g id="a_node12"><a xlink:href="_tioga_interface_8cpp.html" target="_top" xlink:title=" ">
<polygon fill="white" stroke="black" points="325,-0.5 325,-19.5 432,-19.5 432,-0.5 325,-0.5"/>
<text text-anchor="middle" x="378.5" y="-7.5" font-family="Helvetica,sans-Serif" font-size="10.00">TiogaInterface.cpp</text>
</a>
</g>
</g>
<!-- Node2&#45;&gt;Node106 -->
<g id="edge52" class="edge">
<title>Node2&#45;&gt;Node106</title>
<path fill="none" stroke="midnightblue" d="M1601.63,-120.92C1377.39,-120.32 439.65,-115.49 392.5,-76 376.04,-62.21 376.11,-34.15 377.38,-19.83"/>
<polygon fill="midnightblue" stroke="midnightblue" points="1601.76,-124.42 1611.77,-120.94 1601.78,-117.42 1601.76,-124.42"/>
</g>
<!-- Node127 -->
<g id="node13" class="node">
<title>Node127</title>
<g id="a_node13"><a xlink:href="_vortex_ring_8cpp.html" target="_top" xlink:title=" ">
<polygon fill="white" stroke="black" points="450.5,-0.5 450.5,-19.5 540.5,-19.5 540.5,-0.5 450.5,-0.5"/>
<text text-anchor="middle" x="495.5" y="-7.5" font-family="Helvetica,sans-Serif" font-size="10.00">VortexRing.cpp</text>
</a>
</g>
</g>
<!-- Node2&#45;&gt;Node127 -->
<g id="edge57" class="edge">
<title>Node2&#45;&gt;Node127</title>
<path fill="none" stroke="midnightblue" d="M1601.76,-120.41C1409.02,-117.85 693.92,-106.36 597.5,-76 559.65,-64.08 522.09,-34.33 505.02,-19.58"/>
<polygon fill="midnightblue" stroke="midnightblue" points="1601.82,-123.91 1611.86,-120.55 1601.91,-116.92 1601.82,-123.91"/>
</g>
<!-- Node138 -->
<g id="node14" class="node">
<title>Node138</title>
<g id="a_node14"><a xlink:href="_re_averaging_8cpp.html" target="_top" xlink:title=" ">
<polygon fill="white" stroke="black" points="558.5,-0.5 558.5,-19.5 656.5,-19.5 656.5,-0.5 558.5,-0.5"/>
<text text-anchor="middle" x="607.5" y="-7.5" font-family="Helvetica,sans-Serif" font-size="10.00">ReAveraging.cpp</text>
</a>
</g>
</g>
<!-- Node2&#45;&gt;Node138 -->
<g id="edge60" class="edge">
<title>Node2&#45;&gt;Node138</title>
<path fill="none" stroke="midnightblue" d="M1601.67,-120.7C1402.29,-119.25 646,-111.4 610.5,-76 595.62,-61.16 600.78,-33.57 604.71,-19.59"/>
<polygon fill="midnightblue" stroke="midnightblue" points="1601.8,-124.21 1611.83,-120.78 1601.85,-117.21 1601.8,-124.21"/>
</g>
<!-- Node139 -->
<g id="node15" class="node">
<title>Node139</title>
<g id="a_node15"><a xlink:href="_reynolds_stress_8cpp.html" target="_top" xlink:title=" ">
<polygon fill="white" stroke="black" points="674.5,-0.5 674.5,-19.5 786.5,-19.5 786.5,-0.5 674.5,-0.5"/>
<text text-anchor="middle" x="730.5" y="-7.5" font-family="Helvetica,sans-Serif" font-size="10.00">ReynoldsStress.cpp</text>
</a>
</g>
</g>
<!-- Node2&#45;&gt;Node139 -->
<g id="edge61" class="edge">
<title>Node2&#45;&gt;Node139</title>
<path fill="none" stroke="midnightblue" d="M1601.76,-120.73C1403.62,-119.36 654.82,-111.85 620.5,-76 595.04,-49.4 648.85,-29.97 689.83,-19.59"/>
<polygon fill="midnightblue" stroke="midnightblue" points="1601.83,-124.23 1611.86,-120.79 1601.88,-117.23 1601.83,-124.23"/>
</g>
<!-- Node171 -->
<g id="node16" class="node">
<title>Node171</title>
<g id="a_node16"><a xlink:href="_actuator_8cpp.html" target="_top" xlink:title=" ">
<polygon fill="white" stroke="black" points="805,-0.5 805,-19.5 882,-19.5 882,-0.5 805,-0.5"/>
<text text-anchor="middle" x="843.5" y="-7.5" font-family="Helvetica,sans-Serif" font-size="10.00">Actuator.cpp</text>
</a>
</g>
</g>
<!-- Node2&#45;&gt;Node171 -->
<g id="edge67" class="edge">
<title>Node2&#45;&gt;Node171</title>
<path fill="none" stroke="midnightblue" d="M1601.8,-120.71C1404.71,-119.28 662.53,-111.56 628.5,-76 622.35,-69.58 622.9,-62.9 628.5,-56 631.3,-52.56 743.53,-30.36 804.69,-18.48"/>
<polygon fill="midnightblue" stroke="midnightblue" points="1601.83,-124.21 1611.85,-120.78 1601.88,-117.21 1601.83,-124.21"/>
</g>
<!-- Node186 -->
<g id="node17" class="node">
<title>Node186</title>
<g id="a_node17"><a xlink:href="_godunov_8_h.html" target="_top" xlink:title=" ">
<polygon fill="white" stroke="red" points="763.5,-56.5 763.5,-75.5 833.5,-75.5 833.5,-56.5 763.5,-56.5"/>
<text text-anchor="middle" x="798.5" y="-63.5" font-family="Helvetica,sans-Serif" font-size="10.00">Godunov.H</text>
</a>
</g>
</g>
<!-- Node2&#45;&gt;Node186 -->
<g id="edge17" class="edge">
<title>Node2&#45;&gt;Node186</title>
<path fill="none" stroke="midnightblue" d="M1601.91,-120.77C1476.9,-119.63 1129.12,-113.1 842.5,-76 839.72,-75.64 836.85,-75.2 833.97,-74.72"/>
<polygon fill="midnightblue" stroke="midnightblue" points="1601.89,-124.27 1611.91,-120.85 1601.94,-117.27 1601.89,-124.27"/>
</g>
<!-- Node192 -->
<g id="node18" class="node">
<title>Node192</title>
<g id="a_node18"><a xlink:href="_m_o_l_8_h.html" target="_top" xlink:title=" ">
<polygon fill="white" stroke="red" points="852,-56.5 852,-75.5 901,-75.5 901,-56.5 852,-56.5"/>
<text text-anchor="middle" x="876.5" y="-63.5" font-family="Helvetica,sans-Serif" font-size="10.00">MOL.H</text>
</a>
</g>
</g>
<!-- Node2&#45;&gt;Node192 -->
<g id="edge18" class="edge">
<title>Node2&#45;&gt;Node192</title>
<path fill="none" stroke="midnightblue" d="M1601.77,-121.35C1483.72,-121.51 1168.87,-117.64 910.5,-76 907.49,-75.51 904.35,-74.87 901.26,-74.16"/>
<polygon fill="midnightblue" stroke="midnightblue" points="1601.93,-124.85 1611.92,-121.32 1601.91,-117.85 1601.93,-124.85"/>
</g>
<!-- Node195 -->
<g id="node19" class="node">
<title>Node195</title>
<g id="a_node19"><a xlink:href="_field_8cpp.html" target="_top" xlink:title=" ">
<polygon fill="white" stroke="black" points="919.5,-56.5 919.5,-75.5 979.5,-75.5 979.5,-56.5 919.5,-56.5"/>
<text text-anchor="middle" x="949.5" y="-63.5" font-family="Helvetica,sans-Serif" font-size="10.00">Field.cpp</text>
</a>
</g>
</g>
<!-- Node2&#45;&gt;Node195 -->
<g id="edge19" class="edge">
<title>Node2&#45;&gt;Node195</title>
<path fill="none" stroke="midnightblue" d="M1601.59,-120.34C1492.29,-118.27 1216.38,-109.83 988.5,-76 985.61,-75.57 982.62,-75.04 979.64,-74.45"/>
<polygon fill="midnightblue" stroke="midnightblue" points="1601.58,-123.84 1611.64,-120.52 1601.7,-116.84 1601.58,-123.84"/>
</g>
<!-- Node196 -->
<g id="node20" class="node">
<title>Node196</title>
<g id="a_node20"><a xlink:href="_field_repo_8cpp.html" target="_top" xlink:title=" ">
<polygon fill="white" stroke="black" points="998,-56.5 998,-75.5 1083,-75.5 1083,-56.5 998,-56.5"/>
<text text-anchor="middle" x="1040.5" y="-63.5" font-family="Helvetica,sans-Serif" font-size="10.00">FieldRepo.cpp</text>
</a>
</g>
</g>
<!-- Node2&#45;&gt;Node196 -->
<g id="edge20" class="edge">
<title>Node2&#45;&gt;Node196</title>
<path fill="none" stroke="midnightblue" d="M1601.87,-118.61C1505.44,-113.46 1280.32,-99.79 1092.5,-76 1089.41,-75.61 1086.22,-75.16 1083.02,-74.68"/>
<polygon fill="midnightblue" stroke="midnightblue" points="1601.72,-122.11 1611.89,-119.14 1602.09,-115.12 1601.72,-122.11"/>
</g>
<!-- Node2&#45;&gt;Node197 -->
<g id="edge21" class="edge">
<title>Node2&#45;&gt;Node197</title>
<path fill="none" stroke="midnightblue" d="M1601.57,-120.69C1372.49,-119.03 387.7,-110 82.5,-76 79.43,-75.66 76.25,-75.22 73.07,-74.72"/>
<polygon fill="midnightblue" stroke="midnightblue" points="1601.88,-124.19 1611.9,-120.76 1601.93,-117.19 1601.88,-124.19"/>
</g>
<!-- Node198 -->
<g id="node22" class="node">
<title>Node198</title>
<g id="a_node22"><a xlink:href="_scratch_field_8cpp.html" target="_top" xlink:title=" ">
<polygon fill="white" stroke="black" points="1101.5,-56.5 1101.5,-75.5 1197.5,-75.5 1197.5,-56.5 1101.5,-56.5"/>
<text text-anchor="middle" x="1149.5" y="-63.5" font-family="Helvetica,sans-Serif" font-size="10.00">ScratchField.cpp</text>
</a>
</g>
</g>
<!-- Node2&#45;&gt;Node198 -->
<g id="edge22" class="edge">
<title>Node2&#45;&gt;Node198</title>
<path fill="none" stroke="midnightblue" d="M1601.36,-116.99C1519.9,-110.01 1349.75,-94.57 1206.5,-76 1203.62,-75.63 1200.66,-75.22 1197.68,-74.8"/>
<polygon fill="midnightblue" stroke="midnightblue" points="1601.53,-120.52 1611.79,-117.88 1602.12,-113.54 1601.53,-120.52"/>
</g>
<!-- Node199 -->
<g id="node23" class="node">
<title>Node199</title>
<g id="a_node23"><a xlink:href="_view_field_8cpp.html" target="_top" xlink:title=" ">
<polygon fill="white" stroke="black" points="1215.5,-56.5 1215.5,-75.5 1299.5,-75.5 1299.5,-56.5 1215.5,-56.5"/>
<text text-anchor="middle" x="1257.5" y="-63.5" font-family="Helvetica,sans-Serif" font-size="10.00">ViewField.cpp</text>
</a>
</g>
</g>
<!-- Node2&#45;&gt;Node199 -->
<g id="edge23" class="edge">
<title>Node2&#45;&gt;Node199</title>
<path fill="none" stroke="midnightblue" d="M1601.73,-115.36C1535.7,-107.41 1412.84,-92.08 1308.5,-76 1305.57,-75.55 1302.54,-75.06 1299.5,-74.56"/>
<polygon fill="midnightblue" stroke="midnightblue" points="1601.49,-118.86 1611.83,-116.57 1602.32,-111.91 1601.49,-118.86"/>
</g>
<!-- Node200 -->
<g id="node24" class="node">
<title>Node200</title>
<g id="a_node24"><a xlink:href="field__algebra_8cpp.html" target="_top" xlink:title=" ">
<polygon fill="white" stroke="black" points="1317.5,-56.5 1317.5,-75.5 1417.5,-75.5 1417.5,-56.5 1317.5,-56.5"/>
<text text-anchor="middle" x="1367.5" y="-63.5" font-family="Helvetica,sans-Serif" font-size="10.00">field_algebra.cpp</text>
</a>
</g>
</g>
<!-- Node2&#45;&gt;Node200 -->
<g id="edge24" class="edge">
<title>Node2&#45;&gt;Node200</title>
<path fill="none" stroke="midnightblue" d="M1601.92,-111.89C1548.87,-101.73 1463.74,-85.43 1411.98,-75.52"/>
<polygon fill="midnightblue" stroke="midnightblue" points="1601.28,-115.33 1611.76,-113.77 1602.6,-108.46 1601.28,-115.33"/>
</g>
<!-- Node201 -->
<g id="node25" class="node">
<title>Node201</title>
<g id="a_node25"><a xlink:href="diffusion_8_h.html" target="_top" xlink:title=" ">
<polygon fill="white" stroke="red" points="1436,-56.5 1436,-75.5 1505,-75.5 1505,-56.5 1436,-56.5"/>
<text text-anchor="middle" x="1470.5" y="-63.5" font-family="Helvetica,sans-Serif" font-size="10.00">diffusion.H</text>
</a>
</g>
</g>
<!-- Node2&#45;&gt;Node201 -->
<g id="edge25" class="edge">
<title>Node2&#45;&gt;Node201</title>
<path fill="none" stroke="midnightblue" d="M1611.17,-109.44C1577.42,-99.26 1529.05,-84.66 1498.73,-75.52"/>
<polygon fill="midnightblue" stroke="midnightblue" points="1610.55,-112.91 1621.14,-112.44 1612.57,-106.2 1610.55,-112.91"/>
</g>
<!-- Node202 -->
<g id="node26" class="node">
<title>Node202</title>
<g id="a_node26"><a xlink:href="_p_d_e_helpers_8_h.html" target="_top" xlink:title=" ">
<polygon fill="white" stroke="red" points="91.5,-56.5 91.5,-75.5 175.5,-75.5 175.5,-56.5 91.5,-56.5"/>
<text text-anchor="middle" x="133.5" y="-63.5" font-family="Helvetica,sans-Serif" font-size="10.00">PDEHelpers.H</text>
</a>
</g>
</g>
<!-- Node2&#45;&gt;Node202 -->
<g id="edge27" class="edge">
<title>Node2&#45;&gt;Node202</title>
<path fill="none" stroke="midnightblue" d="M1601.71,-120.35C1382.63,-117.27 472.96,-103.03 189.5,-76 184.99,-75.57 180.29,-75 175.62,-74.36"/>
<polygon fill="midnightblue" stroke="midnightblue" points="1601.86,-123.86 1611.91,-120.5 1601.96,-116.86 1601.86,-123.86"/>
</g>
<!-- Node203 -->
<g id="node27" class="node">
<title>Node203</title>
<g id="a_node27"><a xlink:href="_density_source_8_h.html" target="_top" xlink:title=" ">
<polygon fill="white" stroke="red" points="1523.5,-56.5 1523.5,-75.5 1621.5,-75.5 1621.5,-56.5 1523.5,-56.5"/>
<text text-anchor="middle" x="1572.5" y="-63.5" font-family="Helvetica,sans-Serif" font-size="10.00">DensitySource.H</text>
</a>
</g>
</g>
<!-- Node2&#45;&gt;Node203 -->
<g id="edge29" class="edge">
<title>Node2&#45;&gt;Node203</title>
<path fill="none" stroke="midnightblue" d="M1628.6,-106.34C1614.59,-96.52 1596.62,-83.91 1584.84,-75.65"/>
<polygon fill="midnightblue" stroke="midnightblue" points="1626.93,-109.45 1637.13,-112.32 1630.95,-103.72 1626.93,-109.45"/>
</g>
<!-- Node204 -->
<g id="node28" class="node">
<title>Node204</title>
<g id="a_node28"><a xlink:href="_momentum_source_8_h.html" target="_top" xlink:title=" ">
<polygon fill="white" stroke="red" points="1791.5,-56.5 1791.5,-75.5 1907.5,-75.5 1907.5,-56.5 1791.5,-56.5"/>
<text text-anchor="middle" x="1849.5" y="-63.5" font-family="Helvetica,sans-Serif" font-size="10.00">MomentumSource.H</text>
</a>
</g>
</g>
<!-- Node2&#45;&gt;Node204 -->
<g id="edge30" class="edge">
<title>Node2&#45;&gt;Node204</title>
<path fill="none" stroke="midnightblue" d="M1690.87,-109.83C1728.64,-99.63 1783.64,-84.78 1817.96,-75.52"/>
<polygon fill="midnightblue" stroke="midnightblue" points="1689.93,-106.46 1681.19,-112.44 1691.76,-113.22 1689.93,-106.46"/>
</g>
<!-- Node71 -->
<g id="node29" class="node">
<title>Node71</title>
<g id="a_node29"><a xlink:href="_a_b_l_mean_boussinesq_8_h.html" target="_top" xlink:title=" ">
<polygon fill="white" stroke="red" points="1487.5,-0.5 1487.5,-19.5 1615.5,-19.5 1615.5,-0.5 1487.5,-0.5"/>
<text text-anchor="middle" x="1551.5" y="-7.5" font-family="Helvetica,sans-Serif" font-size="10.00">ABLMeanBoussinesq.H</text>
</a>
</g>
</g>
<!-- Node2&#45;&gt;Node71 -->
<g id="edge37" class="edge">
<title>Node2&#45;&gt;Node71</title>
<path fill="none" stroke="midnightblue" d="M1660.2,-103.17C1667.02,-89.26 1672.97,-70.01 1663.5,-56 1650.59,-36.9 1628.1,-25.91 1606.64,-19.58"/>
<polygon fill="midnightblue" stroke="midnightblue" points="1656.99,-101.75 1655.28,-112.21 1663.14,-105.1 1656.99,-101.75"/>
</g>
<!-- Node208 -->
<g id="node30" class="node">
<title>Node208</title>
<g id="a_node30"><a xlink:href="_boussinesq_buoyancy_8_h.html" target="_top" xlink:title=" ">
<polygon fill="white" stroke="red" points="1634,-0.5 1634,-19.5 1763,-19.5 1763,-0.5 1634,-0.5"/>
<text text-anchor="middle" x="1698.5" y="-7.5" font-family="Helvetica,sans-Serif" font-size="10.00">BoussinesqBuoyancy.H</text>
</a>
</g>
</g>
<!-- Node2&#45;&gt;Node208 -->
<g id="edge38" class="edge">
<title>Node2&#45;&gt;Node208</title>
<path fill="none" stroke="midnightblue" d="M1673.87,-106.73C1684.45,-99.09 1695.72,-88.64 1701.5,-76 1709.95,-57.51 1705.04,-32.88 1701.37,-19.89"/>
<polygon fill="midnightblue" stroke="midnightblue" points="1671.65,-104 1665.28,-112.47 1675.54,-109.82 1671.65,-104"/>
</g>
<!-- Node209 -->
<g id="node31" class="node">
<title>Node209</title>
<g id="a_node31"><a xlink:href="_coriolis_forcing_8_h.html" target="_top" xlink:title=" ">
<polygon fill="white" stroke="red" points="1781,-0.5 1781,-19.5 1880,-19.5 1880,-0.5 1781,-0.5"/>
<text text-anchor="middle" x="1830.5" y="-7.5" font-family="Helvetica,sans-Serif" font-size="10.00">CoriolisForcing.H</text>
</a>
</g>
</g>
<!-- Node2&#45;&gt;Node209 -->
<g id="edge39" class="edge">
<title>Node2&#45;&gt;Node209</title>
<path fill="none" stroke="midnightblue" d="M1672.52,-107.01C1710.52,-83.92 1785.23,-38.51 1816.36,-19.59"/>
<polygon fill="midnightblue" stroke="midnightblue" points="1670.43,-104.18 1663.7,-112.37 1674.07,-110.17 1670.43,-104.18"/>
</g>
<!-- Node210 -->
<g id="node32" class="node">
<title>Node210</title>
<g id="a_node32"><a xlink:href="_density_buoyancy_8_h.html" target="_top" xlink:title=" ">
<polygon fill="white" stroke="red" points="1898,-0.5 1898,-19.5 2009,-19.5 2009,-0.5 1898,-0.5"/>
<text text-anchor="middle" x="1953.5" y="-7.5" font-family="Helvetica,sans-Serif" font-size="10.00">DensityBuoyancy.H</text>
</a>
</g>
</g>
<!-- Node2&#45;&gt;Node210 -->
<g id="edge40" class="edge">
<title>Node2&#45;&gt;Node210</title>
<path fill="none" stroke="midnightblue" d="M1697.36,-117.83C1764.38,-112.59 1881.9,-100.19 1916.5,-76 1936.29,-62.16 1946.86,-34.12 1951.15,-19.82"/>
<polygon fill="midnightblue" stroke="midnightblue" points="1696.76,-114.37 1687.06,-118.62 1697.29,-121.35 1696.76,-114.37"/>
</g>
<!-- Node212 -->
<g id="node33" class="node">
<title>Node212</title>
<g id="a_node33"><a xlink:href="_gravity_forcing_8_h.html" target="_top" xlink:title=" ">
<polygon fill="white" stroke="red" points="2027.5,-0.5 2027.5,-19.5 2125.5,-19.5 2125.5,-0.5 2027.5,-0.5"/>
<text text-anchor="middle" x="2076.5" y="-7.5" font-family="Helvetica,sans-Serif" font-size="10.00">GravityForcing.H</text>
</a>
</g>
</g>
<!-- Node2&#45;&gt;Node212 -->
<g id="edge41" class="edge">
<title>Node2&#45;&gt;Node212</title>
<path fill="none" stroke="midnightblue" d="M1697.38,-117.82C1755.67,-112.99 1856.58,-101.51 1939.5,-76 1986.3,-61.6 2037.42,-33.81 2061.87,-19.69"/>
<polygon fill="midnightblue" stroke="midnightblue" points="1697.05,-114.34 1687.36,-118.62 1697.6,-121.32 1697.05,-114.34"/>
</g>
<!-- Node214 -->
<g id="node34" class="node">
<title>Node214</title>
<g id="a_node34"><a xlink:href="_m_m_s_forcing_8_h.html" target="_top" xlink:title=" ">
<polygon fill="white" stroke="red" points="2781.5,-0.5 2781.5,-19.5 2867.5,-19.5 2867.5,-0.5 2781.5,-0.5"/>
<text text-anchor="middle" x="2824.5" y="-7.5" font-family="Helvetica,sans-Serif" font-size="10.00">MMSForcing.H</text>
</a>
</g>
</g>
<!-- Node2&#45;&gt;Node214 -->
<g id="edge53" class="edge">
<title>Node2&#45;&gt;Node214</title>
<path fill="none" stroke="midnightblue" d="M1697.65,-120.72C1981.19,-118.94 3421.95,-108.35 3453.5,-76 3459.71,-69.64 3459.56,-62.51 3453.5,-56 3413.73,-13.28 3003.75,-10.51 2867.94,-10.77"/>
<polygon fill="midnightblue" stroke="midnightblue" points="1697.27,-117.22 1687.29,-120.78 1697.31,-124.22 1697.27,-117.22"/>
</g>
<!-- Node215 -->
<g id="node35" class="node">
<title>Node215</title>
<g id="a_node35"><a xlink:href="_source_term_8_h.html" target="_top" xlink:title=" ">
<polygon fill="white" stroke="red" points="2001.5,-56.5 2001.5,-75.5 2085.5,-75.5 2085.5,-56.5 2001.5,-56.5"/>
<text text-anchor="middle" x="2043.5" y="-63.5" font-family="Helvetica,sans-Serif" font-size="10.00">SourceTerm.H</text>
</a>
</g>
</g>
<!-- Node2&#45;&gt;Node215 -->
<g id="edge42" class="edge">
<title>Node2&#45;&gt;Node215</title>
<path fill="none" stroke="midnightblue" d="M1697.07,-115.08C1762.55,-106.83 1884.09,-91.19 1987.5,-76 1991.98,-75.34 1996.66,-74.63 2001.32,-73.9"/>
<polygon fill="midnightblue" stroke="midnightblue" points="1696.54,-111.62 1687.06,-116.34 1697.42,-118.56 1696.54,-111.62"/>
</g>
<!-- Node216 -->
<g id="node36" class="node">
<title>Node216</title>
<g id="a_node36"><a xlink:href="_s_d_r_source_8_h.html" target="_top" xlink:title=" ">
<polygon fill="white" stroke="red" points="2103.5,-56.5 2103.5,-75.5 2183.5,-75.5 2183.5,-56.5 2103.5,-56.5"/>
<text text-anchor="middle" x="2143.5" y="-63.5" font-family="Helvetica,sans-Serif" font-size="10.00">SDRSource.H</text>
</a>
</g>
</g>
<!-- Node2&#45;&gt;Node216 -->
<g id="edge44" class="edge">
<title>Node2&#45;&gt;Node216</title>
<path fill="none" stroke="midnightblue" d="M1697.59,-117.42C1779.38,-111.04 1950.66,-96.45 2094.5,-76 2097.41,-75.59 2100.41,-75.12 2103.43,-74.63"/>
<polygon fill="midnightblue" stroke="midnightblue" points="1696.83,-113.97 1687.13,-118.23 1697.37,-120.95 1696.83,-113.97"/>
</g>
<!-- Node218 -->
<g id="node37" class="node">
<title>Node218</title>
<g id="a_node37"><a xlink:href="_temperature_source_8_h.html" target="_top" xlink:title=" ">
<polygon fill="white" stroke="red" points="2201.5,-56.5 2201.5,-75.5 2323.5,-75.5 2323.5,-56.5 2201.5,-56.5"/>
<text text-anchor="middle" x="2262.5" y="-63.5" font-family="Helvetica,sans-Serif" font-size="10.00">TemperatureSource.H</text>
</a>
</g>
</g>
<!-- Node2&#45;&gt;Node218 -->
<g id="edge45" class="edge">
<title>Node2&#45;&gt;Node218</title>
<path fill="none" stroke="midnightblue" d="M1697.19,-117.78C1791.78,-111.22 2009.8,-95.31 2192.5,-76 2195.42,-75.69 2198.42,-75.36 2201.44,-75.02"/>
<polygon fill="midnightblue" stroke="midnightblue" points="1696.81,-114.29 1687.08,-118.47 1697.3,-121.28 1696.81,-114.29"/>
</g>
<!-- Node219 -->
<g id="node38" class="node">
<title>Node219</title>
<g id="a_node38"><a xlink:href="_t_k_e_source_8_h.html" target="_top" xlink:title=" ">
<polygon fill="white" stroke="red" points="2342,-56.5 2342,-75.5 2421,-75.5 2421,-56.5 2342,-56.5"/>
<text text-anchor="middle" x="2381.5" y="-63.5" font-family="Helvetica,sans-Serif" font-size="10.00">TKESource.H</text>
</a>
</g>
</g>
<!-- Node2&#45;&gt;Node219 -->
<g id="edge46" class="edge">
<title>Node2&#45;&gt;Node219</title>
<path fill="none" stroke="midnightblue" d="M1697.28,-119.76C1808.87,-116.43 2095.17,-105.51 2332.5,-76 2335.59,-75.62 2338.78,-75.16 2341.98,-74.66"/>
<polygon fill="midnightblue" stroke="midnightblue" points="1696.93,-116.26 1687.03,-120.05 1697.13,-123.26 1696.93,-116.26"/>
</g>
<!-- Node223 -->
<g id="node39" class="node">
<title>Node223</title>
<g id="a_node39"><a xlink:href="_split_advection_8_h.html" target="_top" xlink:title=" ">
<polygon fill="white" stroke="red" points="2438.5,-56.5 2438.5,-75.5 2536.5,-75.5 2536.5,-56.5 2438.5,-56.5"/>
<text text-anchor="middle" x="2487.5" y="-63.5" font-family="Helvetica,sans-Serif" font-size="10.00">SplitAdvection.H</text>
</a>
</g>
</g>
<!-- Node2&#45;&gt;Node223 -->
<g id="edge47" class="edge">
<title>Node2&#45;&gt;Node223</title>
<path fill="none" stroke="midnightblue" d="M1697.5,-119.84C1819.86,-116.53 2153.28,-105.33 2429.5,-76 2432.44,-75.69 2435.46,-75.33 2438.5,-74.94"/>
<polygon fill="midnightblue" stroke="midnightblue" points="1697.25,-116.34 1687.35,-120.11 1697.44,-123.34 1697.25,-116.34"/>
</g>
<!-- Node225 -->
<g id="node40" class="node">
<title>Node225</title>
<g id="a_node40"><a xlink:href="fvm__utils_8_h.html" target="_top" xlink:title=" ">
<polygon fill="white" stroke="red" points="2555,-56.5 2555,-75.5 2628,-75.5 2628,-56.5 2555,-56.5"/>
<text text-anchor="middle" x="2591.5" y="-63.5" font-family="Helvetica,sans-Serif" font-size="10.00">fvm_utils.H</text>
</a>
</g>
</g>
<!-- Node2&#45;&gt;Node225 -->
<g id="edge48" class="edge">
<title>Node2&#45;&gt;Node225</title>
<path fill="none" stroke="midnightblue" d="M1697.58,-121C1832.07,-120.47 2223.38,-115.4 2545.5,-76 2548.57,-75.62 2551.74,-75.16 2554.92,-74.65"/>
<polygon fill="midnightblue" stroke="midnightblue" points="1697.21,-117.5 1687.22,-121.03 1697.23,-124.5 1697.21,-117.5"/>
</g>
<!-- Node236 -->
<g id="node41" class="node">
<title>Node236</title>
<g id="a_node41"><a xlink:href="_i_b_8_h.html" target="_top" xlink:title=" ">
<polygon fill="white" stroke="red" points="232,-56.5 232,-75.5 269,-75.5 269,-56.5 232,-56.5"/>
<text text-anchor="middle" x="250.5" y="-63.5" font-family="Helvetica,sans-Serif" font-size="10.00">IB.H</text>
</a>
</g>
</g>
<!-- Node2&#45;&gt;Node236 -->
<g id="edge49" class="edge">
<title>Node2&#45;&gt;Node236</title>
<path fill="none" stroke="midnightblue" d="M1601.66,-120.92C1391.08,-120.33 545.67,-115.51 283.5,-76 278.8,-75.29 273.82,-74.15 269.19,-72.91"/>
<polygon fill="midnightblue" stroke="midnightblue" points="1601.76,-124.42 1611.77,-120.95 1601.78,-117.42 1601.76,-124.42"/>
</g>
<!-- Node237 -->
<g id="node42" class="node">
<title>Node237</title>
<g id="a_node42"><a xlink:href="_linear_profile_8cpp.html" target="_top" xlink:title=" ">
<polygon fill="white" stroke="black" points="2646.5,-56.5 2646.5,-75.5 2744.5,-75.5 2744.5,-56.5 2646.5,-56.5"/>
<text text-anchor="middle" x="2695.5" y="-63.5" font-family="Helvetica,sans-Serif" font-size="10.00">LinearProfile.cpp</text>
</a>
</g>
</g>
<!-- Node2&#45;&gt;Node237 -->
<g id="edge54" class="edge">
<title>Node2&#45;&gt;Node237</title>
<path fill="none" stroke="midnightblue" d="M1697.44,-120.61C1840.5,-119.06 2276.79,-111.54 2636.5,-76 2639.7,-75.68 2642.98,-75.31 2646.29,-74.9"/>
<polygon fill="midnightblue" stroke="midnightblue" points="1697.22,-117.11 1687.25,-120.72 1697.29,-124.11 1697.22,-117.11"/>
</g>
<!-- Node44 -->
<g id="node43" class="node">
<title>Node44</title>
<g id="a_node43"><a xlink:href="_power_law_profile_8cpp.html" target="_top" xlink:title=" ">
<polygon fill="white" stroke="black" points="2763,-56.5 2763,-75.5 2880,-75.5 2880,-56.5 2763,-56.5"/>
<text text-anchor="middle" x="2821.5" y="-63.5" font-family="Helvetica,sans-Serif" font-size="10.00">PowerLawProfile.cpp</text>
</a>
</g>
</g>
<!-- Node2&#45;&gt;Node44 -->
<g id="edge55" class="edge">
<title>Node2&#45;&gt;Node44</title>
<path fill="none" stroke="midnightblue" d="M1697.27,-120.6C1850.86,-118.99 2345.76,-111.22 2753.5,-76 2756.58,-75.73 2759.74,-75.43 2762.93,-75.1"/>
<polygon fill="midnightblue" stroke="midnightblue" points="1697.19,-117.1 1687.23,-120.7 1697.26,-124.1 1697.19,-117.1"/>
</g>
<!-- Node238 -->
<g id="node44" class="node">
<title>Node238</title>
<g id="a_node44"><a xlink:href="_u_d_f_8cpp.html" target="_top" xlink:title=" ">
<polygon fill="white" stroke="black" points="2898.5,-56.5 2898.5,-75.5 2954.5,-75.5 2954.5,-56.5 2898.5,-56.5"/>
<text text-anchor="middle" x="2926.5" y="-63.5" font-family="Helvetica,sans-Serif" font-size="10.00">UDF.cpp</text>
</a>
</g>
</g>
<!-- Node2&#45;&gt;Node238 -->
<g id="edge56" class="edge">
<title>Node2&#45;&gt;Node238</title>
<path fill="none" stroke="midnightblue" d="M1697.31,-120.52C1895.35,-118.33 2651.97,-107.99 2888.5,-76 2891.72,-75.56 2895.08,-74.97 2898.39,-74.31"/>
<polygon fill="midnightblue" stroke="midnightblue" points="1697.19,-117.02 1687.23,-120.63 1697.26,-124.02 1697.19,-117.02"/>
</g>
<!-- Node239 -->
<g id="node45" class="node">
<title>Node239</title>
<g id="a_node45"><a xlink:href="_transport_model_8_h.html" target="_top" xlink:title=" ">
<polygon fill="white" stroke="red" points="2972.5,-56.5 2972.5,-75.5 3074.5,-75.5 3074.5,-56.5 2972.5,-56.5"/>
<text text-anchor="middle" x="3023.5" y="-63.5" font-family="Helvetica,sans-Serif" font-size="10.00">TransportModel.H</text>
</a>
</g>
</g>
<!-- Node2&#45;&gt;Node239 -->
<g id="edge58" class="edge">
<title>Node2&#45;&gt;Node239</title>
<path fill="none" stroke="midnightblue" d="M1697.45,-121.34C1869.31,-122.13 2470.35,-121.28 2963.5,-76 2966.44,-75.73 2969.45,-75.41 2972.49,-75.06"/>
<polygon fill="midnightblue" stroke="midnightblue" points="1697.25,-117.84 1687.23,-121.29 1697.21,-124.84 1697.25,-117.84"/>
</g>
<!-- Node133 -->
<g id="node46" class="node">
<title>Node133</title>
<g id="a_node46"><a xlink:href="_smagorinsky_8_h.html" target="_top" xlink:title=" ">
<polygon fill="white" stroke="red" points="3093,-56.5 3093,-75.5 3182,-75.5 3182,-56.5 3093,-56.5"/>
<text text-anchor="middle" x="3137.5" y="-63.5" font-family="Helvetica,sans-Serif" font-size="10.00">Smagorinsky.H</text>
</a>
</g>
</g>
<!-- Node2&#45;&gt;Node133 -->
<g id="edge59" class="edge">
<title>Node2&#45;&gt;Node133</title>
<path fill="none" stroke="midnightblue" d="M1697.16,-120.36C1913.6,-117.34 2805.47,-103.41 3083.5,-76 3086.53,-75.7 3089.64,-75.34 3092.77,-74.93"/>
<polygon fill="midnightblue" stroke="midnightblue" points="1697.02,-116.86 1687.07,-120.5 1697.12,-123.86 1697.02,-116.86"/>
</g>
<!-- Node169 -->
<g id="node47" class="node">
<title>Node169</title>
<g id="a_node47"><a xlink:href="_act_src_line_op_8_h.html" target="_top" xlink:title=" ">
<polygon fill="white" stroke="red" points="3200.5,-56.5 3200.5,-75.5 3292.5,-75.5 3292.5,-56.5 3200.5,-56.5"/>
<text text-anchor="middle" x="3246.5" y="-63.5" font-family="Helvetica,sans-Serif" font-size="10.00">ActSrcLineOp.H</text>
</a>
</g>
</g>
<!-- Node2&#45;&gt;Node169 -->
<g id="edge62" class="edge">
<title>Node2&#45;&gt;Node169</title>
<path fill="none" stroke="midnightblue" d="M1697.35,-120.44C1923.9,-117.68 2890.17,-104.4 3190.5,-76 3193.74,-75.69 3197.07,-75.32 3200.42,-74.89"/>
<polygon fill="midnightblue" stroke="midnightblue" points="1697.08,-116.95 1687.13,-120.57 1697.17,-123.95 1697.08,-116.95"/>
</g>
<!-- Node176 -->
<g id="node48" class="node">
<title>Node176</title>
<g id="a_node48"><a xlink:href="_act_src_disk_op___turbine_8_h.html" target="_top" xlink:title=" ">
<polygon fill="white" stroke="red" points="3310.5,-56.5 3310.5,-75.5 3444.5,-75.5 3444.5,-56.5 3310.5,-56.5"/>
<text text-anchor="middle" x="3377.5" y="-63.5" font-family="Helvetica,sans-Serif" font-size="10.00">ActSrcDiskOp_Turbine.H</text>
</a>
</g>
</g>
<!-- Node2&#45;&gt;Node176 -->
<g id="edge63" class="edge">
<title>Node2&#45;&gt;Node176</title>
<path fill="none" stroke="midnightblue" d="M1697.12,-121.28C1894.53,-122.1 2667.91,-122.05 3301.5,-76 3304.42,-75.79 3307.39,-75.55 3310.39,-75.28"/>
<polygon fill="midnightblue" stroke="midnightblue" points="1697.1,-117.78 1687.08,-121.23 1697.06,-124.78 1697.1,-117.78"/>
</g>
<!-- Node177 -->
<g id="node49" class="node">
<title>Node177</title>
<g id="a_node49"><a xlink:href="_act_src_disk_op_8_h.html" target="_top" xlink:title=" ">
<polygon fill="white" stroke="red" points="3503,-0.5 3503,-19.5 3596,-19.5 3596,-0.5 3503,-0.5"/>
<text text-anchor="middle" x="3549.5" y="-7.5" font-family="Helvetica,sans-Serif" font-size="10.00">ActSrcDiskOp.H</text>
</a>
</g>
</g>
<!-- Node2&#45;&gt;Node177 -->
<g id="edge64" class="edge">
<title>Node2&#45;&gt;Node177</title>
<path fill="none" stroke="midnightblue" d="M1697.43,-120.7C1976.76,-118.82 3385.1,-107.81 3470.5,-76 3501.79,-64.34 3529.73,-34.75 3542.36,-19.85"/>
<polygon fill="midnightblue" stroke="midnightblue" points="1697.2,-117.2 1687.22,-120.76 1697.25,-124.2 1697.2,-117.2"/>
</g>
<!-- Node243 -->
<g id="node50" class="node">
<title>Node243</title>
<g id="a_node50"><a xlink:href="disk__spreading_8_h.html" target="_top" xlink:title=" ">
<polygon fill="white" stroke="red" points="3539,-56.5 3539,-75.5 3640,-75.5 3640,-56.5 3539,-56.5"/>
<text text-anchor="middle" x="3589.5" y="-63.5" font-family="Helvetica,sans-Serif" font-size="10.00">disk_spreading.H</text>
</a>
</g>
</g>
<!-- Node2&#45;&gt;Node243 -->
<g id="edge65" class="edge">
<title>Node2&#45;&gt;Node243</title>
<path fill="none" stroke="midnightblue" d="M1697.06,-120.59C1951.47,-118.3 3153.77,-106.02 3524.5,-76 3529.16,-75.62 3533.99,-75.14 3538.82,-74.58"/>
<polygon fill="midnightblue" stroke="midnightblue" points="1697,-117.09 1687.04,-120.68 1697.07,-124.09 1697,-117.09"/>
</g>
<!-- Node4&#45;&gt;Node3 -->
<g id="edge4" class="edge">
<title>Node4&#45;&gt;Node3</title>
<path fill="none" stroke="midnightblue" d="M755.97,-55.89C931.46,-35.83 1127.44,-20.72 1215.49,-14.32"/>
<polygon fill="midnightblue" stroke="midnightblue" points="755.31,-52.44 745.77,-57.06 756.11,-59.39 755.31,-52.44"/>
</g>
<!-- Node5 -->
<g id="node5" class="node">
<title>Node5</title>
<g id="a_node5"><a xlink:href="_fixed_gradient_b_c_8cpp.html" target="_top" xlink:title=" ">
<polygon fill="white" stroke="black" points="900.5,-0.5 900.5,-19.5 1018.5,-19.5 1018.5,-0.5 900.5,-0.5"/>
<text text-anchor="middle" x="959.5" y="-7.5" font-family="Helvetica,sans-Serif" font-size="10.00">FixedGradientBC.cpp</text>
</a>
</g>
</g>
<!-- Node4&#45;&gt;Node5 -->
<g id="edge5" class="edge">
<title>Node4&#45;&gt;Node5</title>
<path fill="none" stroke="midnightblue" d="M744.06,-54.41C794.71,-44.2 870.37,-28.96 917.23,-19.52"/>
<polygon fill="midnightblue" stroke="midnightblue" points="743.08,-51.04 733.97,-56.44 744.46,-57.9 743.08,-51.04"/>
</g>
<!-- Node7 -->
<g id="node7" class="node">
<title>Node7</title>
<g id="a_node7"><a xlink:href="icns__bcop_8_h.html" target="_top" xlink:title=" ">
<polygon fill="white" stroke="red" points="3665,-0.5 3665,-19.5 3740,-19.5 3740,-0.5 3665,-0.5"/>
<text text-anchor="middle" x="3702.5" y="-7.5" font-family="Helvetica,sans-Serif" font-size="10.00">icns_bcop.H</text>
</a>
</g>
</g>
<!-- Node6&#45;&gt;Node7 -->
<g id="edge7" class="edge">
<title>Node6&#45;&gt;Node7</title>
<path fill="none" stroke="midnightblue" d="M3702.5,-45.8C3702.5,-36.91 3702.5,-26.78 3702.5,-19.75"/>
<polygon fill="midnightblue" stroke="midnightblue" points="3699,-46.08 3702.5,-56.08 3706,-46.08 3699,-46.08"/>
</g>
<!-- Node9&#45;&gt;Node11 -->
<g id="edge9" class="edge">
<title>Node9&#45;&gt;Node11</title>
<path fill="none" stroke="midnightblue" d="M400.39,-53.04C371.41,-42.88 330.54,-28.55 304.79,-19.52"/>
<polygon fill="midnightblue" stroke="midnightblue" points="399.5,-56.44 410.1,-56.44 401.82,-49.83 399.5,-56.44"/>
</g>
<!-- Node9&#45;&gt;Node89 -->
<g id="edge10" class="edge">
<title>Node9&#45;&gt;Node89</title>
<path fill="none" stroke="midnightblue" d="M391.53,-57.51C340.83,-48.65 254.01,-33.42 179.5,-20 176.61,-19.48 173.62,-18.94 170.61,-18.39"/>
<polygon fill="midnightblue" stroke="midnightblue" points="391.02,-60.98 401.48,-59.25 392.23,-54.08 391.02,-60.98"/>
</g>
<!-- Node9&#45;&gt;Node103 -->
<g id="edge11" class="edge">
<title>Node9&#45;&gt;Node103</title>
<path fill="none" stroke="midnightblue" d="M391.59,-55.37C353,-46.59 294.81,-33.03 244.5,-20 241.82,-19.31 239.02,-18.56 236.24,-17.79"/>
<polygon fill="midnightblue" stroke="midnightblue" points="390.92,-58.81 401.45,-57.61 392.47,-51.98 390.92,-58.81"/>
</g>
<!-- Node9&#45;&gt;Node106 -->
<g id="edge12" class="edge">
<title>Node9&#45;&gt;Node106</title>
<path fill="none" stroke="midnightblue" d="M418.17,-49.25C408.24,-39.67 395.91,-27.79 387.66,-19.83"/>
<polygon fill="midnightblue" stroke="midnightblue" points="415.87,-51.9 425.5,-56.32 420.73,-46.86 415.87,-51.9"/>
</g>
<!-- Node9&#45;&gt;Node127 -->
<g id="edge13" class="edge">
<title>Node9&#45;&gt;Node127</title>
<path fill="none" stroke="midnightblue" d="M451.97,-49.54C462.84,-39.91 476.44,-27.87 485.52,-19.83"/>
<polygon fill="midnightblue" stroke="midnightblue" points="449.47,-47.07 444.3,-56.32 454.11,-52.32 449.47,-47.07"/>
</g>
<!-- Node9&#45;&gt;Node138 -->
<g id="edge14" class="edge">
<title>Node9&#45;&gt;Node138</title>
<path fill="none" stroke="midnightblue" d="M471.55,-53.44C504.16,-43.26 550.91,-28.66 580.22,-19.52"/>
<polygon fill="midnightblue" stroke="midnightblue" points="470.42,-50.12 461.91,-56.44 472.5,-56.8 470.42,-50.12"/>
</g>
<!-- Node9&#45;&gt;Node139 -->
<g id="edge15" class="edge">
<title>Node9&#45;&gt;Node139</title>
<path fill="none" stroke="midnightblue" d="M477.71,-57.12C532.66,-47.09 627.21,-29.84 683.79,-19.52"/>
<polygon fill="midnightblue" stroke="midnightblue" points="476.8,-53.72 467.59,-58.96 478.06,-60.61 476.8,-53.72"/>
</g>
<!-- Node9&#45;&gt;Node171 -->
<g id="edge16" class="edge">
<title>Node9&#45;&gt;Node171</title>
<path fill="none" stroke="midnightblue" d="M478.27,-60.42C546.31,-53.1 681.47,-37.78 795.5,-20 798.52,-19.53 801.63,-19.01 804.76,-18.47"/>
<polygon fill="midnightblue" stroke="midnightblue" points="477.51,-56.98 467.94,-61.52 478.26,-63.94 477.51,-56.98"/>
</g>
<!-- Node202&#45;&gt;Node89 -->
<g id="edge28" class="edge">
<title>Node202&#45;&gt;Node89</title>
<path fill="none" stroke="midnightblue" d="M132.43,-45.8C131.94,-36.91 131.38,-26.78 130.99,-19.75"/>
<polygon fill="midnightblue" stroke="midnightblue" points="128.96,-46.29 133,-56.08 135.94,-45.9 128.96,-46.29"/>
</g>
<!-- Node204&#45;&gt;Node71 -->
<g id="edge31" class="edge">
<title>Node204&#45;&gt;Node71</title>
<path fill="none" stroke="midnightblue" d="M1792.11,-54.6C1735.79,-44.4 1650.94,-29.02 1598.5,-19.52"/>
<polygon fill="midnightblue" stroke="midnightblue" points="1791.82,-58.1 1802.28,-56.44 1793.07,-51.22 1791.82,-58.1"/>
</g>
<!-- Node204&#45;&gt;Node208 -->
<g id="edge32" class="edge">
<title>Node204&#45;&gt;Node208</title>
<path fill="none" stroke="midnightblue" d="M1816.05,-53.04C1787.64,-42.88 1747.56,-28.55 1722.31,-19.52"/>
<polygon fill="midnightblue" stroke="midnightblue" points="1814.98,-56.37 1825.57,-56.44 1817.34,-49.78 1814.98,-56.37"/>
</g>
<!-- Node204&#45;&gt;Node209 -->
<g id="edge33" class="edge">
<title>Node204&#45;&gt;Node209</title>
<path fill="none" stroke="midnightblue" d="M1842.95,-46.4C1839.78,-37.36 1836.11,-26.94 1833.58,-19.75"/>
<polygon fill="midnightblue" stroke="midnightblue" points="1839.74,-47.81 1846.36,-56.08 1846.35,-45.49 1839.74,-47.81"/>
</g>
<!-- Node204&#45;&gt;Node210 -->
<g id="edge34" class="edge">
<title>Node204&#45;&gt;Node210</title>
<path fill="none" stroke="midnightblue" d="M1875.33,-51.59C1894.56,-41.61 1920.24,-28.27 1936.83,-19.65"/>
<polygon fill="midnightblue" stroke="midnightblue" points="1873.47,-48.61 1866.21,-56.32 1876.7,-54.82 1873.47,-48.61"/>
</g>
<!-- Node204&#45;&gt;Node212 -->
<g id="edge35" class="edge">
<title>Node204&#45;&gt;Node212</title>
<path fill="none" stroke="midnightblue" d="M1895.37,-54.09C1938.25,-43.89 2001.42,-28.86 2040.7,-19.52"/>
<polygon fill="midnightblue" stroke="midnightblue" points="1894.39,-50.72 1885.47,-56.44 1896.01,-57.53 1894.39,-50.72"/>
</g>
<!-- Node204&#45;&gt;Node214 -->
<g id="edge36" class="edge">
<title>Node204&#45;&gt;Node214</title>
<path fill="none" stroke="midnightblue" d="M1917.87,-60.57C1941.5,-59.08 1968.16,-57.42 1992.5,-56 2294.31,-38.34 2657.87,-19.52 2781.18,-13.21"/>
<polygon fill="midnightblue" stroke="midnightblue" points="1917.35,-57.1 1907.59,-61.23 1917.79,-64.09 1917.35,-57.1"/>
</g>
<!-- Node236&#45;&gt;Node103 -->
<g id="edge50" class="edge">
<title>Node236&#45;&gt;Node103</title>
<path fill="none" stroke="midnightblue" d="M238.44,-47.86C231.86,-38.5 223.99,-27.33 218.66,-19.75"/>
<polygon fill="midnightblue" stroke="midnightblue" points="235.61,-49.92 244.23,-56.08 241.33,-45.89 235.61,-49.92"/>
</g>
<!-- Node243&#45;&gt;Node177 -->
<g id="edge66" class="edge">
<title>Node243&#45;&gt;Node177</title>
<path fill="none" stroke="midnightblue" d="M3576.8,-47.86C3569.87,-38.5 3561.59,-27.33 3555.98,-19.75"/>
<polygon fill="midnightblue" stroke="midnightblue" points="3574.13,-50.13 3582.89,-56.08 3579.75,-45.96 3574.13,-50.13"/>
</g>
</g>
</svg>
        <g id="navigator" transform="translate(0 0)" fill="#404254">
                <rect fill="#f2f5e9" fill-opacity="0.5" stroke="#606060" stroke-width=".5" x="0" y="0" width="60" height="60"/>
                <use id="zoomplus" xlink:href="#zoomPlus" x="17" y="9" onmousedown="handleZoom(evt,'in')"/>
                <use id="zoomminus" xlink:href="#zoomMin" x="42" y="9" onmousedown="handleZoom(evt,'out')"/>
                <use id="reset" xlink:href="#resetDef" x="30" y="36" onmousedown="handleReset()"/>
                <g id="arrowUp" xlink:href="#dirArrow" transform="translate(30 24)" onmousedown="handlePan(0,-1)">
                  <use xlink:href="#rim" fill="#404040">
                        <set attributeName="fill" to="#808080" begin="arrowUp.mouseover" end="arrowUp.mouseout"/>
                  </use>
                  <path fill="none" stroke="white" stroke-width="1.5" d="M0,-3.0v7 M-2.5,-0.5L0,-3.0L2.5,-0.5"/>
                </g>
                <g id="arrowRight" xlink:href="#dirArrow" transform="rotate(90) translate(36 -43)" onmousedown="handlePan(1,0)">
                  <use xlink:href="#rim" fill="#404040">
                        <set attributeName="fill" to="#808080" begin="arrowRight.mouseover" end="arrowRight.mouseout"/>
                  </use>
                  <path fill="none" stroke="white" stroke-width="1.5" d="M0,-3.0v7 M-2.5,-0.5L0,-3.0L2.5,-0.5"/>
                </g>
                <g id="arrowDown" xlink:href="#dirArrow" transform="rotate(180) translate(-30 -48)" onmousedown="handlePan(0,1)">
                  <use xlink:href="#rim" fill="#404040">
                        <set attributeName="fill" to="#808080" begin="arrowDown.mouseover" end="arrowDown.mouseout"/>
                  </use>
                  <path fill="none" stroke="white" stroke-width="1.5" d="M0,-3.0v7 M-2.5,-0.5L0,-3.0L2.5,-0.5"/>
                </g>
                <g id="arrowLeft" xlink:href="#dirArrow" transform="rotate(270) translate(-36 17)" onmousedown="handlePan(-1,0)">
                  <use xlink:href="#rim" fill="#404040">
                        <set attributeName="fill" to="#808080" begin="arrowLeft.mouseover" end="arrowLeft.mouseout"/>
                  </use>
                  <path fill="none" stroke="white" stroke-width="1.5" d="M0,-3.0v7 M-2.5,-0.5L0,-3.0L2.5,-0.5"/>
                </g>
        </g>
        <svg viewBox="0 0 15 15" width="100%" height="30px" preserveAspectRatio="xMaxYMin meet">
         <g id="arrow_out" transform="scale(0.3 0.3)">
          <a xlink:href="_int_field_8_h__dep__incl_org.svg" target="_base">
           <rect id="button" ry="5" rx="5" y="6" x="6" height="38" width="38"
                fill="#f2f5e9" fill-opacity="0.5" stroke="#606060" stroke-width="1.0"/>
           <path id="arrow"
             d="M 11.500037,31.436501 C 11.940474,20.09759 22.043105,11.32322 32.158766,21.979434 L 37.068811,17.246167 C 37.068811,17.246167 37.088388,32 37.088388,32 L 22.160133,31.978069 C 22.160133,31.978069 26.997745,27.140456 26.997745,27.140456 C 18.528582,18.264221 13.291696,25.230495 11.500037,31.436501 z"
             style="fill:#404040;"/>
          </a>
         </g>
        </svg>
</svg>
