<?xml version="1.0" encoding="UTF-8" standalone="no"?>
<!DOCTYPE svg PUBLIC "-//W3C//DTD SVG 1.1//EN"
 "http://www.w3.org/Graphics/SVG/1.1/DTD/svg11.dtd">
<!-- Generated by graphviz version 2.43.0 (0)
 -->
<!-- Title: MultiParser.H Pages: 1 -->
<!--zoomable 308 -->
<svg id="main" version="1.1" xmlns="http://www.w3.org/2000/svg" xmlns:xlink="http://www.w3.org/1999/xlink" xml:space="preserve" onload="init(evt)">
<style type="text/css"><![CDATA[
.edge:hover path { stroke: red; }
.edge:hover polygon { stroke: red; fill: red; }
]]></style>
<script type="text/javascript"><![CDATA[
var edges = document.getElementsByTagName('g');
if (edges && edges.length) {
  for (var i=0;i<edges.length;i++) {
    if (edges[i].id.substr(0,4)=='edge') {
      edges[i].setAttribute('class','edge');
    }
  }
}
]]></script>
        <defs>
                <circle id="rim" cx="0" cy="0" r="7"/>
                <circle id="rim2" cx="0" cy="0" r="3.5"/>
                <g id="zoomPlus">
                        <use xlink:href="#rim" fill="#404040">
                                <set attributeName="fill" to="#808080" begin="zoomplus.mouseover" end="zoomplus.mouseout"/>
                        </use>
                        <path d="M-4,0h8M0,-4v8" fill="none" stroke="white" stroke-width="1.5" pointer-events="none"/>
                </g>
                <g id="zoomMin">
                        <use xlink:href="#rim" fill="#404040">
                                <set attributeName="fill" to="#808080" begin="zoomminus.mouseover" end="zoomminus.mouseout"/>
                        </use>
                        <path d="M-4,0h8" fill="none" stroke="white" stroke-width="1.5" pointer-events="none"/>
                </g>
                <g id="dirArrow">
                        <path fill="none" stroke="white" stroke-width="1.5" d="M0,-3.0v7 M-2.5,-0.5L0,-3.0L2.5,-0.5"/>
                </g>
               <g id="resetDef">
                       <use xlink:href="#rim2" fill="#404040">
                               <set attributeName="fill" to="#808080" begin="reset.mouseover" end="reset.mouseout"/>
                       </use>
               </g>
        </defs>

<script type="text/javascript">
var viewWidth = 1568;
var viewHeight = 308;
var sectionId = 'dynsection-1';
</script>
<script xlink:href="svgpan.js"/>
<svg id="graph" class="graph">
<g id="viewport">
<title>MultiParser.H</title>
<polygon fill="white" stroke="transparent" points="-4,4 -4,-304 1564.06,-304 1564.06,4 -4,4"/>
<!-- Node1 -->
<g id="node1" class="node">
<title>Node1</title>
<g id="a_node1"><a xlink:title=" ">
<polygon fill="#bfbfbf" stroke="black" points="416.5,-280.5 416.5,-299.5 497.5,-299.5 497.5,-280.5 416.5,-280.5"/>
<text text-anchor="middle" x="457" y="-287.5" font-family="Helvetica,sans-Serif" font-size="10.00">MultiParser.H</text>
</a>
</g>
</g>
<!-- Node2 -->
<g id="node2" class="node">
<title>Node2</title>
<g id="a_node2"><a xlink:href="bluff__body__ops_8_h.html" target="_top" xlink:title=" ">
<polygon fill="white" stroke="black" points="223.5,-224.5 223.5,-243.5 324.5,-243.5 324.5,-224.5 223.5,-224.5"/>
<text text-anchor="middle" x="274" y="-231.5" font-family="Helvetica,sans-Serif" font-size="10.00">bluff_body_ops.H</text>
</a>
</g>
</g>
<!-- Node1&#45;&gt;Node2 -->
<g id="edge1" class="edge">
<title>Node1&#45;&gt;Node2</title>
<path fill="none" stroke="midnightblue" d="M418.26,-277.57C383.74,-267.38 333.99,-252.7 302.86,-243.52"/>
<polygon fill="midnightblue" stroke="midnightblue" points="417.42,-280.97 428,-280.44 419.4,-274.26 417.42,-280.97"/>
</g>
<!-- Node3 -->
<g id="node3" class="node">
<title>Node3</title>
<g id="a_node3"><a xlink:href="bluff__body__ops_8cpp.html" target="_top" xlink:title=" ">
<polygon fill="white" stroke="black" points="0,-168.5 0,-187.5 110,-187.5 110,-168.5 0,-168.5"/>
<text text-anchor="middle" x="55" y="-175.5" font-family="Helvetica,sans-Serif" font-size="10.00">bluff_body_ops.cpp</text>
</a>
</g>
</g>
<!-- Node1&#45;&gt;Node3 -->
<g id="edge9" class="edge">
<title>Node1&#45;&gt;Node3</title>
<path fill="none" stroke="midnightblue" d="M406.26,-282.69C356.6,-275.8 279.14,-263.13 214,-244 161.06,-228.46 101.6,-201.43 72.69,-187.64"/>
<polygon fill="midnightblue" stroke="midnightblue" points="406.04,-286.2 416.42,-284.08 406.98,-279.26 406.04,-286.2"/>
</g>
<!-- Node10 -->
<g id="node10" class="node">
<title>Node10</title>
<g id="a_node10"><a xlink:href="_i_b_model_8_h.html" target="_top" xlink:title=" ">
<polygon fill="white" stroke="black" points="423.5,-168.5 423.5,-187.5 490.5,-187.5 490.5,-168.5 423.5,-168.5"/>
<text text-anchor="middle" x="457" y="-175.5" font-family="Helvetica,sans-Serif" font-size="10.00">IBModel.H</text>
</a>
</g>
</g>
<!-- Node1&#45;&gt;Node10 -->
<g id="edge10" class="edge">
<title>Node1&#45;&gt;Node10</title>
<path fill="none" stroke="midnightblue" d="M457,-270.35C457,-246.25 457,-205.31 457,-187.59"/>
<polygon fill="midnightblue" stroke="midnightblue" points="453.5,-270.37 457,-280.37 460.5,-270.37 453.5,-270.37"/>
</g>
<!-- Node11 -->
<g id="node11" class="node">
<title>Node11</title>
<g id="a_node11"><a xlink:href="_i_b_8cpp.html" target="_top" xlink:title=" ">
<polygon fill="white" stroke="black" points="457.5,-112.5 457.5,-131.5 504.5,-131.5 504.5,-112.5 457.5,-112.5"/>
<text text-anchor="middle" x="481" y="-119.5" font-family="Helvetica,sans-Serif" font-size="10.00">IB.cpp</text>
</a>
</g>
</g>
<!-- Node1&#45;&gt;Node11 -->
<g id="edge15" class="edge">
<title>Node1&#45;&gt;Node11</title>
<path fill="none" stroke="midnightblue" d="M466.78,-271.51C477.15,-251.88 492.86,-218.77 499,-188 503.08,-167.56 492.78,-144.12 486.13,-131.73"/>
<polygon fill="midnightblue" stroke="midnightblue" points="463.62,-270 461.93,-280.45 469.77,-273.34 463.62,-270"/>
</g>
<!-- Node12 -->
<g id="node12" class="node">
<title>Node12</title>
<g id="a_node12"><a xlink:href="_act_parser_8_h.html" target="_top" xlink:title=" ">
<polygon fill="white" stroke="black" points="1034,-224.5 1034,-243.5 1106,-243.5 1106,-224.5 1034,-224.5"/>
<text text-anchor="middle" x="1070" y="-231.5" font-family="Helvetica,sans-Serif" font-size="10.00">ActParser.H</text>
</a>
</g>
</g>
<!-- Node1&#45;&gt;Node12 -->
<g id="edge16" class="edge">
<title>Node1&#45;&gt;Node12</title>
<path fill="none" stroke="midnightblue" d="M507.76,-284.53C628.25,-273.91 929.2,-247.4 1033.63,-238.2"/>
<polygon fill="midnightblue" stroke="midnightblue" points="507.35,-281.05 497.7,-285.42 507.96,-288.02 507.35,-281.05"/>
</g>
<!-- Node2&#45;&gt;Node3 -->
<g id="edge2" class="edge">
<title>Node2&#45;&gt;Node3</title>
<path fill="none" stroke="midnightblue" d="M229.49,-222.02C188.12,-211.82 127.36,-196.84 89.54,-187.52"/>
<polygon fill="midnightblue" stroke="midnightblue" points="228.75,-225.45 239.3,-224.44 230.43,-218.65 228.75,-225.45"/>
</g>
<!-- Node4 -->
<g id="node4" class="node">
<title>Node4</title>
<g id="a_node4"><a xlink:href="box__ops_8_h.html" target="_top" xlink:title=" ">
<polygon fill="white" stroke="black" points="337,-168.5 337,-187.5 405,-187.5 405,-168.5 337,-168.5"/>
<text text-anchor="middle" x="371" y="-175.5" font-family="Helvetica,sans-Serif" font-size="10.00">box_ops.H</text>
</a>
</g>
</g>
<!-- Node2&#45;&gt;Node4 -->
<g id="edge3" class="edge">
<title>Node2&#45;&gt;Node4</title>
<path fill="none" stroke="midnightblue" d="M298.34,-219.45C316.24,-209.48 340.05,-196.23 355.45,-187.65"/>
<polygon fill="midnightblue" stroke="midnightblue" points="296.62,-216.4 289.58,-224.32 300.02,-222.52 296.62,-216.4"/>
</g>
<!-- Node6 -->
<g id="node6" class="node">
<title>Node6</title>
<g id="a_node6"><a xlink:href="cylinder__ops_8_h.html" target="_top" xlink:title=" ">
<polygon fill="white" stroke="black" points="229.5,-168.5 229.5,-187.5 318.5,-187.5 318.5,-168.5 229.5,-168.5"/>
<text text-anchor="middle" x="274" y="-175.5" font-family="Helvetica,sans-Serif" font-size="10.00">cylinder_ops.H</text>
</a>
</g>
</g>
<!-- Node2&#45;&gt;Node6 -->
<g id="edge5" class="edge">
<title>Node2&#45;&gt;Node6</title>
<path fill="none" stroke="midnightblue" d="M274,-213.8C274,-204.91 274,-194.78 274,-187.75"/>
<polygon fill="midnightblue" stroke="midnightblue" points="270.5,-214.08 274,-224.08 277.5,-214.08 270.5,-214.08"/>
</g>
<!-- Node8 -->
<g id="node8" class="node">
<title>Node8</title>
<g id="a_node8"><a xlink:href="sphere__ops_8_h.html" target="_top" xlink:title=" ">
<polygon fill="white" stroke="black" points="128.5,-168.5 128.5,-187.5 211.5,-187.5 211.5,-168.5 128.5,-168.5"/>
<text text-anchor="middle" x="170" y="-175.5" font-family="Helvetica,sans-Serif" font-size="10.00">sphere_ops.H</text>
</a>
</g>
</g>
<!-- Node2&#45;&gt;Node8 -->
<g id="edge7" class="edge">
<title>Node2&#45;&gt;Node8</title>
<path fill="none" stroke="midnightblue" d="M248.17,-219.59C228.94,-209.61 203.26,-196.27 186.67,-187.65"/>
<polygon fill="midnightblue" stroke="midnightblue" points="246.8,-222.82 257.29,-224.32 250.03,-216.61 246.8,-222.82"/>
</g>
<!-- Node5 -->
<g id="node5" class="node">
<title>Node5</title>
<g id="a_node5"><a xlink:href="_box_8cpp.html" target="_top" xlink:title=" ">
<polygon fill="white" stroke="black" points="351,-112.5 351,-131.5 407,-131.5 407,-112.5 351,-112.5"/>
<text text-anchor="middle" x="379" y="-119.5" font-family="Helvetica,sans-Serif" font-size="10.00">Box.cpp</text>
</a>
</g>
</g>
<!-- Node4&#45;&gt;Node5 -->
<g id="edge4" class="edge">
<title>Node4&#45;&gt;Node5</title>
<path fill="none" stroke="midnightblue" d="M373.8,-158.1C375.13,-149.14 376.65,-138.86 377.7,-131.75"/>
<polygon fill="midnightblue" stroke="midnightblue" points="370.32,-157.68 372.32,-168.08 377.25,-158.7 370.32,-157.68"/>
</g>
<!-- Node7 -->
<g id="node7" class="node">
<title>Node7</title>
<g id="a_node7"><a xlink:href="_cylinder_8cpp.html" target="_top" xlink:title=" ">
<polygon fill="white" stroke="black" points="245.5,-112.5 245.5,-131.5 322.5,-131.5 322.5,-112.5 245.5,-112.5"/>
<text text-anchor="middle" x="284" y="-119.5" font-family="Helvetica,sans-Serif" font-size="10.00">Cylinder.cpp</text>
</a>
</g>
</g>
<!-- Node6&#45;&gt;Node7 -->
<g id="edge6" class="edge">
<title>Node6&#45;&gt;Node7</title>
<path fill="none" stroke="midnightblue" d="M277.5,-158.1C279.16,-149.14 281.06,-138.86 282.38,-131.75"/>
<polygon fill="midnightblue" stroke="midnightblue" points="274.03,-157.61 275.65,-168.08 280.91,-158.89 274.03,-157.61"/>
</g>
<!-- Node9 -->
<g id="node9" class="node">
<title>Node9</title>
<g id="a_node9"><a xlink:href="_sphere_8cpp.html" target="_top" xlink:title=" ">
<polygon fill="white" stroke="black" points="150.5,-112.5 150.5,-131.5 221.5,-131.5 221.5,-112.5 150.5,-112.5"/>
<text text-anchor="middle" x="186" y="-119.5" font-family="Helvetica,sans-Serif" font-size="10.00">Sphere.cpp</text>
</a>
</g>
</g>
<!-- Node8&#45;&gt;Node9 -->
<g id="edge8" class="edge">
<title>Node8&#45;&gt;Node9</title>
<path fill="none" stroke="midnightblue" d="M175.51,-158.4C178.19,-149.36 181.28,-138.94 183.41,-131.75"/>
<polygon fill="midnightblue" stroke="midnightblue" points="172.13,-157.5 172.64,-168.08 178.84,-159.49 172.13,-157.5"/>
</g>
<!-- Node10&#45;&gt;Node5 -->
<g id="edge11" class="edge">
<title>Node10&#45;&gt;Node5</title>
<path fill="none" stroke="midnightblue" d="M436.23,-162.62C421.98,-152.76 403.54,-139.99 391.5,-131.65"/>
<polygon fill="midnightblue" stroke="midnightblue" points="434.25,-165.51 444.47,-168.32 438.24,-159.75 434.25,-165.51"/>
</g>
<!-- Node10&#45;&gt;Node7 -->
<g id="edge12" class="edge">
<title>Node10&#45;&gt;Node7</title>
<path fill="none" stroke="midnightblue" d="M419.95,-165.44C387.34,-155.26 340.59,-140.66 311.28,-131.52"/>
<polygon fill="midnightblue" stroke="midnightblue" points="419,-168.8 429.59,-168.44 421.08,-162.12 419,-168.8"/>
</g>
<!-- Node10&#45;&gt;Node9 -->
<g id="edge13" class="edge">
<title>Node10&#45;&gt;Node9</title>
<path fill="none" stroke="midnightblue" d="M413.24,-167.86C339.22,-152.85 264.52,-138.24 221.57,-129.89"/>
<polygon fill="midnightblue" stroke="midnightblue" points="412.71,-171.33 423.21,-169.89 414.1,-164.47 412.71,-171.33"/>
</g>
<!-- Node10&#45;&gt;Node11 -->
<g id="edge14" class="edge">
<title>Node10&#45;&gt;Node11</title>
<path fill="none" stroke="midnightblue" d="M465.14,-158.69C469.18,-149.59 473.88,-139.01 477.11,-131.75"/>
<polygon fill="midnightblue" stroke="midnightblue" points="461.83,-157.52 460.96,-168.08 468.22,-160.37 461.83,-157.52"/>
</g>
<!-- Node13 -->
<g id="node13" class="node">
<title>Node13</title>
<g id="a_node13"><a xlink:href="actuator__ops_8_h.html" target="_top" xlink:title=" ">
<polygon fill="white" stroke="black" points="1025,-168.5 1025,-187.5 1115,-187.5 1115,-168.5 1025,-168.5"/>
<text text-anchor="middle" x="1070" y="-175.5" font-family="Helvetica,sans-Serif" font-size="10.00">actuator_ops.H</text>
</a>
</g>
</g>
<!-- Node12&#45;&gt;Node13 -->
<g id="edge17" class="edge">
<title>Node12&#45;&gt;Node13</title>
<path fill="none" stroke="midnightblue" d="M1070,-213.8C1070,-204.91 1070,-194.78 1070,-187.75"/>
<polygon fill="midnightblue" stroke="midnightblue" points="1066.5,-214.08 1070,-224.08 1073.5,-214.08 1066.5,-214.08"/>
</g>
<!-- Node15 -->
<g id="node15" class="node">
<title>Node15</title>
<g id="a_node15"><a xlink:href="_actuator_model_8_h.html" target="_top" xlink:title=" ">
<polygon fill="white" stroke="black" points="840,-56.5 840,-75.5 938,-75.5 938,-56.5 840,-56.5"/>
<text text-anchor="middle" x="889" y="-63.5" font-family="Helvetica,sans-Serif" font-size="10.00">ActuatorModel.H</text>
</a>
</g>
</g>
<!-- Node12&#45;&gt;Node15 -->
<g id="edge43" class="edge">
<title>Node12&#45;&gt;Node15</title>
<path fill="none" stroke="midnightblue" d="M1023.85,-225.94C940.39,-212.13 769.73,-178.75 735,-132 705.4,-92.17 784.06,-76.55 839.55,-70.56"/>
<polygon fill="midnightblue" stroke="midnightblue" points="1023.39,-229.41 1033.83,-227.57 1024.52,-222.5 1023.39,-229.41"/>
</g>
<!-- Node16 -->
<g id="node16" class="node">
<title>Node16</title>
<g id="a_node16"><a xlink:href="_actuator_8cpp.html" target="_top" xlink:title=" ">
<polygon fill="white" stroke="black" points="612.5,-0.5 612.5,-19.5 689.5,-19.5 689.5,-0.5 612.5,-0.5"/>
<text text-anchor="middle" x="651" y="-7.5" font-family="Helvetica,sans-Serif" font-size="10.00">Actuator.cpp</text>
</a>
</g>
</g>
<!-- Node12&#45;&gt;Node16 -->
<g id="edge44" class="edge">
<title>Node12&#45;&gt;Node16</title>
<path fill="none" stroke="midnightblue" d="M1023.69,-230.94C911.51,-224.85 630.45,-202.7 576,-132 545.54,-92.45 609.85,-39.98 638.33,-19.6"/>
<polygon fill="midnightblue" stroke="midnightblue" points="1023.52,-234.43 1033.69,-231.46 1023.88,-227.44 1023.52,-234.43"/>
</g>
<!-- Node27 -->
<g id="node27" class="node">
<title>Node27</title>
<g id="a_node27"><a xlink:href="wing__ops_8_h.html" target="_top" xlink:title=" ">
<polygon fill="white" stroke="black" points="1231.5,-112.5 1231.5,-131.5 1304.5,-131.5 1304.5,-112.5 1231.5,-112.5"/>
<text text-anchor="middle" x="1268" y="-119.5" font-family="Helvetica,sans-Serif" font-size="10.00">wing_ops.H</text>
</a>
</g>
</g>
<!-- Node12&#45;&gt;Node27 -->
<g id="edge48" class="edge">
<title>Node12&#45;&gt;Node27</title>
<path fill="none" stroke="midnightblue" d="M1094.4,-219.45C1135.7,-196.5 1218.26,-150.63 1252.54,-131.59"/>
<polygon fill="midnightblue" stroke="midnightblue" points="1092.58,-216.45 1085.54,-224.37 1095.98,-222.57 1092.58,-216.45"/>
</g>
<!-- Node29 -->
<g id="node29" class="node">
<title>Node29</title>
<g id="a_node29"><a xlink:href="wing__ops_8cpp.html" target="_top" xlink:title=" ">
<polygon fill="white" stroke="black" points="1266.5,-56.5 1266.5,-75.5 1349.5,-75.5 1349.5,-56.5 1266.5,-56.5"/>
<text text-anchor="middle" x="1308" y="-63.5" font-family="Helvetica,sans-Serif" font-size="10.00">wing_ops.cpp</text>
</a>
</g>
</g>
<!-- Node12&#45;&gt;Node29 -->
<g id="edge49" class="edge">
<title>Node12&#45;&gt;Node29</title>
<path fill="none" stroke="midnightblue" d="M1116.61,-231.29C1228.81,-226.01 1508.18,-205.59 1556,-132 1560.84,-124.55 1561.7,-118.82 1556,-112 1530.2,-81.1 1413.37,-71.37 1349.69,-68.34"/>
<polygon fill="midnightblue" stroke="midnightblue" points="1116.12,-227.81 1106.29,-231.75 1116.43,-234.8 1116.12,-227.81"/>
</g>
<!-- Node30 -->
<g id="node30" class="node">
<title>Node30</title>
<g id="a_node30"><a xlink:href="turbine__utils_8_h.html" target="_top" xlink:title=" ">
<polygon fill="white" stroke="black" points="1333,-168.5 1333,-187.5 1421,-187.5 1421,-168.5 1333,-168.5"/>
<text text-anchor="middle" x="1377" y="-175.5" font-family="Helvetica,sans-Serif" font-size="10.00">turbine_utils.H</text>
</a>
</g>
</g>
<!-- Node12&#45;&gt;Node30 -->
<g id="edge45" class="edge">
<title>Node12&#45;&gt;Node30</title>
<path fill="none" stroke="midnightblue" d="M1116.21,-224.87C1174.84,-214.56 1275.23,-196.9 1332.86,-186.76"/>
<polygon fill="midnightblue" stroke="midnightblue" points="1115.36,-221.47 1106.12,-226.65 1116.57,-228.36 1115.36,-221.47"/>
</g>
<!-- Node14 -->
<g id="node14" class="node">
<title>Node14</title>
<g id="a_node14"><a xlink:href="_act_src_line_op_8_h.html" target="_top" xlink:title=" ">
<polygon fill="white" stroke="black" points="893,-112.5 893,-131.5 985,-131.5 985,-112.5 893,-112.5"/>
<text text-anchor="middle" x="939" y="-119.5" font-family="Helvetica,sans-Serif" font-size="10.00">ActSrcLineOp.H</text>
</a>
</g>
</g>
<!-- Node13&#45;&gt;Node14 -->
<g id="edge18" class="edge">
<title>Node13&#45;&gt;Node14</title>
<path fill="none" stroke="midnightblue" d="M1039.68,-164.5C1015.12,-154.38 981.18,-140.39 959.66,-131.52"/>
<polygon fill="midnightblue" stroke="midnightblue" points="1038.66,-167.87 1049.24,-168.44 1041.33,-161.4 1038.66,-167.87"/>
</g>
<!-- Node13&#45;&gt;Node15 -->
<g id="edge25" class="edge">
<title>Node13&#45;&gt;Node15</title>
<path fill="none" stroke="midnightblue" d="M1014.72,-171.13C965.91,-164.68 900.06,-152.41 884,-132 871.12,-115.63 879.34,-89.22 884.98,-75.65"/>
<polygon fill="midnightblue" stroke="midnightblue" points="1014.49,-174.63 1024.85,-172.42 1015.37,-167.69 1014.49,-174.63"/>
</g>
<!-- Node21 -->
<g id="node21" class="node">
<title>Node21</title>
<g id="a_node21"><a xlink:href="_act_src_disk_op___turbine_8_h.html" target="_top" xlink:title=" ">
<polygon fill="white" stroke="black" points="1003,-112.5 1003,-131.5 1137,-131.5 1137,-112.5 1003,-112.5"/>
<text text-anchor="middle" x="1070" y="-119.5" font-family="Helvetica,sans-Serif" font-size="10.00">ActSrcDiskOp_Turbine.H</text>
</a>
</g>
</g>
<!-- Node13&#45;&gt;Node21 -->
<g id="edge26" class="edge">
<title>Node13&#45;&gt;Node21</title>
<path fill="none" stroke="midnightblue" d="M1070,-157.8C1070,-148.91 1070,-138.78 1070,-131.75"/>
<polygon fill="midnightblue" stroke="midnightblue" points="1066.5,-158.08 1070,-168.08 1073.5,-158.08 1066.5,-158.08"/>
</g>
<!-- Node22 -->
<g id="node22" class="node">
<title>Node22</title>
<g id="a_node22"><a xlink:href="_act_src_disk_op_8_h.html" target="_top" xlink:title=" ">
<polygon fill="white" stroke="black" points="743.5,-112.5 743.5,-131.5 836.5,-131.5 836.5,-112.5 743.5,-112.5"/>
<text text-anchor="middle" x="790" y="-119.5" font-family="Helvetica,sans-Serif" font-size="10.00">ActSrcDiskOp.H</text>
</a>
</g>
</g>
<!-- Node13&#45;&gt;Node22 -->
<g id="edge28" class="edge">
<title>Node13&#45;&gt;Node22</title>
<path fill="none" stroke="midnightblue" d="M1015.75,-166.54C962.83,-156.33 883.33,-141 834.16,-131.52"/>
<polygon fill="midnightblue" stroke="midnightblue" points="1015.15,-169.99 1025.63,-168.44 1016.48,-163.11 1015.15,-169.99"/>
</g>
<!-- Node23 -->
<g id="node23" class="node">
<title>Node23</title>
<g id="a_node23"><a xlink:href="uniform__ct__ops_8_h.html" target="_top" xlink:title=" ">
<polygon fill="white" stroke="black" points="585,-112.5 585,-131.5 687,-131.5 687,-112.5 585,-112.5"/>
<text text-anchor="middle" x="636" y="-119.5" font-family="Helvetica,sans-Serif" font-size="10.00">uniform_ct_ops.H</text>
</a>
</g>
</g>
<!-- Node13&#45;&gt;Node23 -->
<g id="edge30" class="edge">
<title>Node13&#45;&gt;Node23</title>
<path fill="none" stroke="midnightblue" d="M1014.84,-170.14C930.16,-159.6 769.31,-139.59 687.12,-129.36"/>
<polygon fill="midnightblue" stroke="midnightblue" points="1014.43,-173.61 1024.78,-171.37 1015.29,-166.67 1014.43,-173.61"/>
</g>
<!-- Node25 -->
<g id="node25" class="node">
<title>Node25</title>
<g id="a_node25"><a xlink:href="turbine__fast__ops_8_h.html" target="_top" xlink:title=" ">
<polygon fill="white" stroke="black" points="1323,-112.5 1323,-131.5 1431,-131.5 1431,-112.5 1323,-112.5"/>
<text text-anchor="middle" x="1377" y="-119.5" font-family="Helvetica,sans-Serif" font-size="10.00">turbine_fast_ops.H</text>
</a>
</g>
</g>
<!-- Node13&#45;&gt;Node25 -->
<g id="edge33" class="edge">
<title>Node13&#45;&gt;Node25</title>
<path fill="none" stroke="midnightblue" d="M1125.37,-167.26C1183.27,-157.08 1273.26,-141.25 1328.47,-131.54"/>
<polygon fill="midnightblue" stroke="midnightblue" points="1124.54,-163.85 1115.3,-169.03 1125.75,-170.75 1124.54,-163.85"/>
</g>
<!-- Node26 -->
<g id="node26" class="node">
<title>Node26</title>
<g id="a_node26"><a xlink:href="fixed__wing__ops_8_h.html" target="_top" xlink:title=" ">
<polygon fill="white" stroke="black" points="1034.5,-56.5 1034.5,-75.5 1135.5,-75.5 1135.5,-56.5 1034.5,-56.5"/>
<text text-anchor="middle" x="1085" y="-63.5" font-family="Helvetica,sans-Serif" font-size="10.00">fixed_wing_ops.H</text>
</a>
</g>
</g>
<!-- Node13&#45;&gt;Node26 -->
<g id="edge35" class="edge">
<title>Node13&#45;&gt;Node26</title>
<path fill="none" stroke="midnightblue" d="M1107.52,-164.23C1122.23,-157.16 1137.59,-146.75 1146,-132 1159.34,-108.61 1126.36,-86.98 1103.87,-75.53"/>
<polygon fill="midnightblue" stroke="midnightblue" points="1105.76,-161.17 1098.02,-168.4 1108.58,-167.58 1105.76,-161.17"/>
</g>
<!-- Node13&#45;&gt;Node27 -->
<g id="edge37" class="edge">
<title>Node13&#45;&gt;Node27</title>
<path fill="none" stroke="midnightblue" d="M1111.44,-165.7C1148.81,-155.51 1202.94,-140.74 1236.77,-131.52"/>
<polygon fill="midnightblue" stroke="midnightblue" points="1110.1,-162.44 1101.37,-168.44 1111.94,-169.19 1110.1,-162.44"/>
</g>
<!-- Node28 -->
<g id="node28" class="node">
<title>Node28</title>
<g id="a_node28"><a xlink:href="flat__plate__ops_8_h.html" target="_top" xlink:title=" ">
<polygon fill="white" stroke="black" points="1153.5,-56.5 1153.5,-75.5 1248.5,-75.5 1248.5,-56.5 1153.5,-56.5"/>
<text text-anchor="middle" x="1201" y="-63.5" font-family="Helvetica,sans-Serif" font-size="10.00">flat_plate_ops.H</text>
</a>
</g>
</g>
<!-- Node13&#45;&gt;Node28 -->
<g id="edge42" class="edge">
<title>Node13&#45;&gt;Node28</title>
<path fill="none" stroke="midnightblue" d="M1106.23,-164.58C1124.17,-157.14 1145.28,-146.33 1161,-132 1179.02,-115.58 1191.8,-89.18 1197.56,-75.63"/>
<polygon fill="midnightblue" stroke="midnightblue" points="1104.67,-161.43 1096.65,-168.36 1107.24,-167.95 1104.67,-161.43"/>
</g>
<!-- Node14&#45;&gt;Node15 -->
<g id="edge19" class="edge">
<title>Node14&#45;&gt;Node15</title>
<path fill="none" stroke="midnightblue" d="M923.92,-104.72C915.11,-95.2 904.33,-83.56 897.1,-75.75"/>
<polygon fill="midnightblue" stroke="midnightblue" points="921.38,-107.12 930.74,-112.08 926.52,-102.37 921.38,-107.12"/>
</g>
<!-- Node15&#45;&gt;Node16 -->
<g id="edge20" class="edge">
<title>Node15&#45;&gt;Node16</title>
<path fill="none" stroke="midnightblue" d="M841.48,-54.22C796.5,-44.01 729.9,-28.9 688.54,-19.52"/>
<polygon fill="midnightblue" stroke="midnightblue" points="840.76,-57.64 851.29,-56.44 842.31,-50.82 840.76,-57.64"/>
</g>
<!-- Node17 -->
<g id="node17" class="node">
<title>Node17</title>
<g id="a_node17"><a xlink:href="_actuator_disk_8cpp.html" target="_top" xlink:title=" ">
<polygon fill="white" stroke="black" points="752,-0.5 752,-19.5 852,-19.5 852,-0.5 752,-0.5"/>
<text text-anchor="middle" x="802" y="-7.5" font-family="Helvetica,sans-Serif" font-size="10.00">ActuatorDisk.cpp</text>
</a>
</g>
</g>
<!-- Node15&#45;&gt;Node17 -->
<g id="edge21" class="edge">
<title>Node15&#45;&gt;Node17</title>
<path fill="none" stroke="midnightblue" d="M866.28,-50.9C850.33,-41 829.5,-28.07 815.94,-19.65"/>
<polygon fill="midnightblue" stroke="midnightblue" points="864.68,-54.02 875.02,-56.32 868.37,-48.08 864.68,-54.02"/>
</g>
<!-- Node18 -->
<g id="node18" class="node">
<title>Node18</title>
<g id="a_node18"><a xlink:href="_turbine_fast_8cpp.html" target="_top" xlink:title=" ">
<polygon fill="white" stroke="black" points="1307,-0.5 1307,-19.5 1399,-19.5 1399,-0.5 1307,-0.5"/>
<text text-anchor="middle" x="1353" y="-7.5" font-family="Helvetica,sans-Serif" font-size="10.00">TurbineFast.cpp</text>
</a>
</g>
</g>
<!-- Node15&#45;&gt;Node18 -->
<g id="edge22" class="edge">
<title>Node15&#45;&gt;Node18</title>
<path fill="none" stroke="midnightblue" d="M948.37,-58.09C1041.99,-47.2 1221.95,-26.25 1306.7,-16.39"/>
<polygon fill="midnightblue" stroke="midnightblue" points="947.75,-54.64 938.22,-59.27 948.55,-61.59 947.75,-54.64"/>
</g>
<!-- Node19 -->
<g id="node19" class="node">
<title>Node19</title>
<g id="a_node19"><a xlink:href="_fixed_wing_8cpp.html" target="_top" xlink:title=" ">
<polygon fill="white" stroke="black" points="892.5,-0.5 892.5,-19.5 979.5,-19.5 979.5,-0.5 892.5,-0.5"/>
<text text-anchor="middle" x="936" y="-7.5" font-family="Helvetica,sans-Serif" font-size="10.00">FixedWing.cpp</text>
</a>
</g>
</g>
<!-- Node15&#45;&gt;Node19 -->
<g id="edge23" class="edge">
<title>Node15&#45;&gt;Node19</title>
<path fill="none" stroke="midnightblue" d="M903.42,-48.43C911.66,-38.97 921.65,-27.48 928.38,-19.75"/>
<polygon fill="midnightblue" stroke="midnightblue" points="900.69,-46.24 896.76,-56.08 905.97,-50.84 900.69,-46.24"/>
</g>
<!-- Node20 -->
<g id="node20" class="node">
<title>Node20</title>
<g id="a_node20"><a xlink:href="_flat_plate_8cpp.html" target="_top" xlink:title=" ">
<polygon fill="white" stroke="black" points="1114,-0.5 1114,-19.5 1194,-19.5 1194,-0.5 1114,-0.5"/>
<text text-anchor="middle" x="1154" y="-7.5" font-family="Helvetica,sans-Serif" font-size="10.00">FlatPlate.cpp</text>
</a>
</g>
</g>
<!-- Node15&#45;&gt;Node20 -->
<g id="edge24" class="edge">
<title>Node15&#45;&gt;Node20</title>
<path fill="none" stroke="midnightblue" d="M941.09,-54.38C991.81,-44.05 1067.79,-28.57 1113.94,-19.16"/>
<polygon fill="midnightblue" stroke="midnightblue" points="940.09,-51.02 930.99,-56.44 941.49,-57.88 940.09,-51.02"/>
</g>
<!-- Node21&#45;&gt;Node15 -->
<g id="edge27" class="edge">
<title>Node21&#45;&gt;Node15</title>
<path fill="none" stroke="midnightblue" d="M1031.68,-109.57C997.54,-99.38 948.34,-84.7 917.55,-75.52"/>
<polygon fill="midnightblue" stroke="midnightblue" points="1030.74,-112.94 1041.32,-112.44 1032.74,-106.23 1030.74,-112.94"/>
</g>
<!-- Node22&#45;&gt;Node15 -->
<g id="edge29" class="edge">
<title>Node22&#45;&gt;Node15</title>
<path fill="none" stroke="midnightblue" d="M814.84,-107.45C833.11,-97.48 857.42,-84.23 873.13,-75.65"/>
<polygon fill="midnightblue" stroke="midnightblue" points="813.01,-104.46 805.91,-112.32 816.36,-110.61 813.01,-104.46"/>
</g>
<!-- Node23&#45;&gt;Node17 -->
<g id="edge31" class="edge">
<title>Node23&#45;&gt;Node17</title>
<path fill="none" stroke="midnightblue" d="M636.86,-101.83C638.51,-87.42 643.01,-68.15 655,-56 680.41,-30.27 720.1,-19.17 751.84,-14.42"/>
<polygon fill="midnightblue" stroke="midnightblue" points="633.34,-101.88 636.06,-112.12 640.32,-102.42 633.34,-101.88"/>
</g>
<!-- Node24 -->
<g id="node24" class="node">
<title>Node24</title>
<g id="a_node24"><a xlink:href="uniform__ct__ops_8cpp.html" target="_top" xlink:title=" ">
<polygon fill="white" stroke="black" points="664,-56.5 664,-75.5 776,-75.5 776,-56.5 664,-56.5"/>
<text text-anchor="middle" x="720" y="-63.5" font-family="Helvetica,sans-Serif" font-size="10.00">uniform_ct_ops.cpp</text>
</a>
</g>
</g>
<!-- Node23&#45;&gt;Node24 -->
<g id="edge32" class="edge">
<title>Node23&#45;&gt;Node24</title>
<path fill="none" stroke="midnightblue" d="M657.93,-106.9C673.34,-97 693.45,-84.07 706.54,-75.65"/>
<polygon fill="midnightblue" stroke="midnightblue" points="656.02,-103.97 649.5,-112.32 659.8,-109.86 656.02,-103.97"/>
</g>
<!-- Node25&#45;&gt;Node18 -->
<g id="edge34" class="edge">
<title>Node25&#45;&gt;Node18</title>
<path fill="none" stroke="midnightblue" d="M1372.93,-102.35C1367.67,-78.25 1358.74,-37.31 1354.87,-19.59"/>
<polygon fill="midnightblue" stroke="midnightblue" points="1369.57,-103.34 1375.12,-112.37 1376.4,-101.85 1369.57,-103.34"/>
</g>
<!-- Node26&#45;&gt;Node19 -->
<g id="edge36" class="edge">
<title>Node26&#45;&gt;Node19</title>
<path fill="none" stroke="midnightblue" d="M1051.63,-52.91C1023.62,-42.75 984.3,-28.51 959.5,-19.52"/>
<polygon fill="midnightblue" stroke="midnightblue" points="1050.8,-56.33 1061.39,-56.44 1053.18,-49.75 1050.8,-56.33"/>
</g>
<!-- Node27&#45;&gt;Node26 -->
<g id="edge38" class="edge">
<title>Node27&#45;&gt;Node26</title>
<path fill="none" stroke="midnightblue" d="M1229.26,-109.57C1194.74,-99.38 1144.99,-84.7 1113.86,-75.52"/>
<polygon fill="midnightblue" stroke="midnightblue" points="1228.42,-112.97 1239,-112.44 1230.4,-106.26 1228.42,-112.97"/>
</g>
<!-- Node27&#45;&gt;Node28 -->
<g id="edge39" class="edge">
<title>Node27&#45;&gt;Node28</title>
<path fill="none" stroke="midnightblue" d="M1249.17,-105.82C1237.16,-96.15 1222.03,-83.95 1211.96,-75.83"/>
<polygon fill="midnightblue" stroke="midnightblue" points="1247.25,-108.77 1257.24,-112.32 1251.65,-103.32 1247.25,-108.77"/>
</g>
<!-- Node27&#45;&gt;Node29 -->
<g id="edge41" class="edge">
<title>Node27&#45;&gt;Node29</title>
<path fill="none" stroke="midnightblue" d="M1280.7,-103.86C1287.63,-94.5 1295.91,-83.33 1301.52,-75.75"/>
<polygon fill="midnightblue" stroke="midnightblue" points="1277.75,-101.96 1274.61,-112.08 1283.37,-106.13 1277.75,-101.96"/>
</g>
<!-- Node28&#45;&gt;Node20 -->
<g id="edge40" class="edge">
<title>Node28&#45;&gt;Node20</title>
<path fill="none" stroke="midnightblue" d="M1186.58,-48.43C1178.34,-38.97 1168.35,-27.48 1161.62,-19.75"/>
<polygon fill="midnightblue" stroke="midnightblue" points="1184.03,-50.84 1193.24,-56.08 1189.31,-46.24 1184.03,-50.84"/>
</g>
<!-- Node30&#45;&gt;Node25 -->
<g id="edge46" class="edge">
<title>Node30&#45;&gt;Node25</title>
<path fill="none" stroke="midnightblue" d="M1377,-157.8C1377,-148.91 1377,-138.78 1377,-131.75"/>
<polygon fill="midnightblue" stroke="midnightblue" points="1373.5,-158.08 1377,-168.08 1380.5,-158.08 1373.5,-158.08"/>
</g>
<!-- Node31 -->
<g id="node31" class="node">
<title>Node31</title>
<g id="a_node31"><a xlink:href="turbine__utils_8cpp.html" target="_top" xlink:title=" ">
<polygon fill="white" stroke="black" points="1449,-112.5 1449,-131.5 1547,-131.5 1547,-112.5 1449,-112.5"/>
<text text-anchor="middle" x="1498" y="-119.5" font-family="Helvetica,sans-Serif" font-size="10.00">turbine_utils.cpp</text>
</a>
</g>
</g>
<!-- Node30&#45;&gt;Node31 -->
<g id="edge47" class="edge">
<title>Node30&#45;&gt;Node31</title>
<path fill="none" stroke="midnightblue" d="M1405.31,-164.37C1427.97,-154.26 1459.13,-140.35 1478.92,-131.52"/>
<polygon fill="midnightblue" stroke="midnightblue" points="1403.88,-161.17 1396.17,-168.44 1406.73,-167.56 1403.88,-161.17"/>
</g>
</g>
</svg>
        <g id="navigator" transform="translate(0 0)" fill="#404254">
                <rect fill="#f2f5e9" fill-opacity="0.5" stroke="#606060" stroke-width=".5" x="0" y="0" width="60" height="60"/>
                <use id="zoomplus" xlink:href="#zoomPlus" x="17" y="9" onmousedown="handleZoom(evt,'in')"/>
                <use id="zoomminus" xlink:href="#zoomMin" x="42" y="9" onmousedown="handleZoom(evt,'out')"/>
                <use id="reset" xlink:href="#resetDef" x="30" y="36" onmousedown="handleReset()"/>
                <g id="arrowUp" xlink:href="#dirArrow" transform="translate(30 24)" onmousedown="handlePan(0,-1)">
                  <use xlink:href="#rim" fill="#404040">
                        <set attributeName="fill" to="#808080" begin="arrowUp.mouseover" end="arrowUp.mouseout"/>
                  </use>
                  <path fill="none" stroke="white" stroke-width="1.5" d="M0,-3.0v7 M-2.5,-0.5L0,-3.0L2.5,-0.5"/>
                </g>
                <g id="arrowRight" xlink:href="#dirArrow" transform="rotate(90) translate(36 -43)" onmousedown="handlePan(1,0)">
                  <use xlink:href="#rim" fill="#404040">
                        <set attributeName="fill" to="#808080" begin="arrowRight.mouseover" end="arrowRight.mouseout"/>
                  </use>
                  <path fill="none" stroke="white" stroke-width="1.5" d="M0,-3.0v7 M-2.5,-0.5L0,-3.0L2.5,-0.5"/>
                </g>
                <g id="arrowDown" xlink:href="#dirArrow" transform="rotate(180) translate(-30 -48)" onmousedown="handlePan(0,1)">
                  <use xlink:href="#rim" fill="#404040">
                        <set attributeName="fill" to="#808080" begin="arrowDown.mouseover" end="arrowDown.mouseout"/>
                  </use>
                  <path fill="none" stroke="white" stroke-width="1.5" d="M0,-3.0v7 M-2.5,-0.5L0,-3.0L2.5,-0.5"/>
                </g>
                <g id="arrowLeft" xlink:href="#dirArrow" transform="rotate(270) translate(-36 17)" onmousedown="handlePan(-1,0)">
                  <use xlink:href="#rim" fill="#404040">
                        <set attributeName="fill" to="#808080" begin="arrowLeft.mouseover" end="arrowLeft.mouseout"/>
                  </use>
                  <path fill="none" stroke="white" stroke-width="1.5" d="M0,-3.0v7 M-2.5,-0.5L0,-3.0L2.5,-0.5"/>
                </g>
        </g>
        <svg viewBox="0 0 15 15" width="100%" height="30px" preserveAspectRatio="xMaxYMin meet">
         <g id="arrow_out" transform="scale(0.3 0.3)">
          <a xlink:href="_multi_parser_8_h__dep__incl_org.svg" target="_base">
           <rect id="button" ry="5" rx="5" y="6" x="6" height="38" width="38"
                fill="#f2f5e9" fill-opacity="0.5" stroke="#606060" stroke-width="1.0"/>
           <path id="arrow"
             d="M 11.500037,31.436501 C 11.940474,20.09759 22.043105,11.32322 32.158766,21.979434 L 37.068811,17.246167 C 37.068811,17.246167 37.088388,32 37.088388,32 L 22.160133,31.978069 C 22.160133,31.978069 26.997745,27.140456 26.997745,27.140456 C 18.528582,18.264221 13.291696,25.230495 11.500037,31.436501 z"
             style="fill:#404040;"/>
          </a>
         </g>
        </svg>
</svg>
