<?xml version="1.0" encoding="UTF-8" standalone="no"?>
<!DOCTYPE svg PUBLIC "-//W3C//DTD SVG 1.1//EN"
 "http://www.w3.org/Graphics/SVG/1.1/DTD/svg11.dtd">
<!-- Generated by graphviz version 2.43.0 (0)
 -->
<!-- Title: NWB.H Pages: 1 -->
<svg width="997pt" height="196pt"
 viewBox="0.00 0.00 997.00 196.00" xmlns="http://www.w3.org/2000/svg" xmlns:xlink="http://www.w3.org/1999/xlink">
<g id="graph0" class="graph" transform="scale(1 1) rotate(0) translate(4 192)">
<title>NWB.H</title>
<polygon fill="white" stroke="transparent" points="-4,4 -4,-192 993,-192 993,4 -4,4"/>
<!-- Node1 -->
<g id="node1" class="node">
<title>Node1</title>
<g id="a_node1"><a xlink:title=" ">
<polygon fill="#bfbfbf" stroke="black" points="492.5,-168.5 492.5,-187.5 543.5,-187.5 543.5,-168.5 492.5,-168.5"/>
<text text-anchor="middle" x="518" y="-175.5" font-family="Helvetica,sans-Serif" font-size="10.00">NWB.H</text>
</a>
</g>
</g>
<!-- Node2 -->
<g id="node2" class="node">
<title>Node2</title>
<g id="a_node2"><a xlink:href="_physics_8_h.html" target="_top" xlink:title=" ">
<polygon fill="white" stroke="black" points="311.5,-112.5 311.5,-131.5 448.5,-131.5 448.5,-112.5 311.5,-112.5"/>
<text text-anchor="middle" x="380" y="-119.5" font-family="Helvetica,sans-Serif" font-size="10.00">amr&#45;wind/core/Physics.H</text>
</a>
</g>
</g>
<!-- Node1&#45;&gt;Node2 -->
<g id="edge1" class="edge">
<title>Node1&#45;&gt;Node2</title>
<path fill="none" stroke="midnightblue" d="M496.13,-168.44C473.22,-159.48 437.02,-145.31 411.13,-135.18"/>
<polygon fill="midnightblue" stroke="midnightblue" points="412.35,-131.9 401.76,-131.52 409.8,-138.42 412.35,-131.9"/>
</g>
<!-- Node14 -->
<g id="node14" class="node">
<title>Node14</title>
<g id="a_node14"><a xlink:href="_sim_time_8_h.html" target="_top" xlink:title=" ">
<polygon fill="white" stroke="black" points="650,-112.5 650,-131.5 794,-131.5 794,-112.5 650,-112.5"/>
<text text-anchor="middle" x="722" y="-119.5" font-family="Helvetica,sans-Serif" font-size="10.00">amr&#45;wind/core/SimTime.H</text>
</a>
</g>
</g>
<!-- Node1&#45;&gt;Node14 -->
<g id="edge15" class="edge">
<title>Node1&#45;&gt;Node14</title>
<path fill="none" stroke="midnightblue" d="M543.84,-170.16C578.11,-161.09 639.03,-144.96 679.97,-134.13"/>
<polygon fill="midnightblue" stroke="midnightblue" points="680.89,-137.5 689.66,-131.56 679.1,-130.74 680.89,-137.5"/>
</g>
<!-- Node3 -->
<g id="node3" class="node">
<title>Node3</title>
<g id="a_node3"><a xlink:href="_factory_8_h.html" target="_top" xlink:title=" ">
<polygon fill="white" stroke="black" points="43,-56.5 43,-75.5 177,-75.5 177,-56.5 43,-56.5"/>
<text text-anchor="middle" x="110" y="-63.5" font-family="Helvetica,sans-Serif" font-size="10.00">amr&#45;wind/core/Factory.H</text>
</a>
</g>
</g>
<!-- Node2&#45;&gt;Node3 -->
<g id="edge2" class="edge">
<title>Node2&#45;&gt;Node3</title>
<path fill="none" stroke="midnightblue" d="M337.22,-112.44C289.82,-102.96 213.37,-87.67 162.42,-77.48"/>
<polygon fill="midnightblue" stroke="midnightblue" points="163.07,-74.05 152.58,-75.52 161.7,-80.91 163.07,-74.05"/>
</g>
<!-- Node9 -->
<g id="node9" class="node">
<title>Node9</title>
<g id="a_node9"><a xlink:href="_coll_mgr_8_h.html" target="_top" xlink:title=" ">
<polygon fill="white" stroke="black" points="455.5,-56.5 455.5,-75.5 592.5,-75.5 592.5,-56.5 455.5,-56.5"/>
<text text-anchor="middle" x="524" y="-63.5" font-family="Helvetica,sans-Serif" font-size="10.00">amr&#45;wind/core/CollMgr.H</text>
</a>
</g>
</g>
<!-- Node2&#45;&gt;Node9 -->
<g id="edge8" class="edge">
<title>Node2&#45;&gt;Node9</title>
<path fill="none" stroke="midnightblue" d="M402.82,-112.44C426.83,-103.44 464.83,-89.19 491.87,-79.05"/>
<polygon fill="midnightblue" stroke="midnightblue" points="493.16,-82.3 501.29,-75.52 490.7,-75.75 493.16,-82.3"/>
</g>
<!-- Node12 -->
<g id="node12" class="node">
<title>Node12</title>
<g id="a_node12"><a xlink:title=" ">
<polygon fill="white" stroke="#bfbfbf" points="195.5,-56.5 195.5,-75.5 304.5,-75.5 304.5,-56.5 195.5,-56.5"/>
<text text-anchor="middle" x="250" y="-63.5" font-family="Helvetica,sans-Serif" font-size="10.00">AMReX_MultiFab.H</text>
</a>
</g>
</g>
<!-- Node2&#45;&gt;Node12 -->
<g id="edge13" class="edge">
<title>Node2&#45;&gt;Node12</title>
<path fill="none" stroke="midnightblue" d="M359.4,-112.44C338.01,-103.56 304.32,-89.56 279.98,-79.45"/>
<polygon fill="midnightblue" stroke="midnightblue" points="281.08,-76.12 270.5,-75.52 278.39,-82.58 281.08,-76.12"/>
</g>
<!-- Node13 -->
<g id="node13" class="node">
<title>Node13</title>
<g id="a_node13"><a xlink:title=" ">
<polygon fill="white" stroke="#bfbfbf" points="322.5,-56.5 322.5,-75.5 437.5,-75.5 437.5,-56.5 322.5,-56.5"/>
<text text-anchor="middle" x="380" y="-63.5" font-family="Helvetica,sans-Serif" font-size="10.00">AMReX_Geometry.H</text>
</a>
</g>
</g>
<!-- Node2&#45;&gt;Node13 -->
<g id="edge14" class="edge">
<title>Node2&#45;&gt;Node13</title>
<path fill="none" stroke="midnightblue" d="M380,-112.08C380,-105.01 380,-94.86 380,-85.99"/>
<polygon fill="midnightblue" stroke="midnightblue" points="383.5,-85.75 380,-75.75 376.5,-85.75 383.5,-85.75"/>
</g>
<!-- Node4 -->
<g id="node4" class="node">
<title>Node4</title>
<g id="a_node4"><a xlink:title=" ">
<polygon fill="white" stroke="#bfbfbf" points="391,-0.5 391,-19.5 449,-19.5 449,-0.5 391,-0.5"/>
<text text-anchor="middle" x="420" y="-7.5" font-family="Helvetica,sans-Serif" font-size="10.00">memory</text>
</a>
</g>
</g>
<!-- Node3&#45;&gt;Node4 -->
<g id="edge3" class="edge">
<title>Node3&#45;&gt;Node4</title>
<path fill="none" stroke="midnightblue" d="M160.55,-56.45C213.15,-47.52 297.89,-33.02 371,-20 374.24,-19.42 377.59,-18.82 380.96,-18.21"/>
<polygon fill="midnightblue" stroke="midnightblue" points="381.78,-21.62 390.99,-16.38 380.52,-14.73 381.78,-21.62"/>
</g>
<!-- Node5 -->
<g id="node5" class="node">
<title>Node5</title>
<g id="a_node5"><a xlink:title=" ">
<polygon fill="white" stroke="#bfbfbf" points="269.5,-0.5 269.5,-19.5 362.5,-19.5 362.5,-0.5 269.5,-0.5"/>
<text text-anchor="middle" x="316" y="-7.5" font-family="Helvetica,sans-Serif" font-size="10.00">unordered_map</text>
</a>
</g>
</g>
<!-- Node3&#45;&gt;Node5 -->
<g id="edge4" class="edge">
<title>Node3&#45;&gt;Node5</title>
<path fill="none" stroke="midnightblue" d="M142.64,-56.44C178.05,-47.16 234.71,-32.31 273.55,-22.13"/>
<polygon fill="midnightblue" stroke="midnightblue" points="274.73,-25.44 283.51,-19.52 272.95,-18.67 274.73,-25.44"/>
</g>
<!-- Node6 -->
<g id="node6" class="node">
<title>Node6</title>
<g id="a_node6"><a xlink:title=" ">
<polygon fill="white" stroke="#bfbfbf" points="80,-0.5 80,-19.5 140,-19.5 140,-0.5 80,-0.5"/>
<text text-anchor="middle" x="110" y="-7.5" font-family="Helvetica,sans-Serif" font-size="10.00">iostream</text>
</a>
</g>
</g>
<!-- Node3&#45;&gt;Node6 -->
<g id="edge5" class="edge">
<title>Node3&#45;&gt;Node6</title>
<path fill="none" stroke="midnightblue" d="M110,-56.08C110,-49.01 110,-38.86 110,-29.99"/>
<polygon fill="midnightblue" stroke="midnightblue" points="113.5,-29.75 110,-19.75 106.5,-29.75 113.5,-29.75"/>
</g>
<!-- Node7 -->
<g id="node7" class="node">
<title>Node7</title>
<g id="a_node7"><a xlink:title=" ">
<polygon fill="white" stroke="#bfbfbf" points="158,-0.5 158,-19.5 248,-19.5 248,-0.5 158,-0.5"/>
<text text-anchor="middle" x="203" y="-7.5" font-family="Helvetica,sans-Serif" font-size="10.00">AMReX_Print.H</text>
</a>
</g>
</g>
<!-- Node3&#45;&gt;Node7 -->
<g id="edge6" class="edge">
<title>Node3&#45;&gt;Node7</title>
<path fill="none" stroke="midnightblue" d="M124.94,-56.32C139.59,-47.82 162.13,-34.73 179.24,-24.8"/>
<polygon fill="midnightblue" stroke="midnightblue" points="181.2,-27.7 188.1,-19.65 177.69,-21.65 181.2,-27.7"/>
</g>
<!-- Node8 -->
<g id="node8" class="node">
<title>Node8</title>
<g id="a_node8"><a xlink:title=" ">
<polygon fill="white" stroke="#bfbfbf" points="0,-0.5 0,-19.5 62,-19.5 62,-0.5 0,-0.5"/>
<text text-anchor="middle" x="31" y="-7.5" font-family="Helvetica,sans-Serif" font-size="10.00">AMReX.H</text>
</a>
</g>
</g>
<!-- Node3&#45;&gt;Node8 -->
<g id="edge7" class="edge">
<title>Node3&#45;&gt;Node8</title>
<path fill="none" stroke="midnightblue" d="M97.31,-56.32C85.1,-47.98 66.42,-35.21 52,-25.35"/>
<polygon fill="midnightblue" stroke="midnightblue" points="53.89,-22.41 43.66,-19.65 49.94,-28.19 53.89,-22.41"/>
</g>
<!-- Node9&#45;&gt;Node4 -->
<g id="edge10" class="edge">
<title>Node9&#45;&gt;Node4</title>
<path fill="none" stroke="midnightblue" d="M507.29,-56.32C490.69,-47.7 465,-34.36 445.78,-24.39"/>
<polygon fill="midnightblue" stroke="midnightblue" points="447.16,-21.16 436.67,-19.65 443.93,-27.37 447.16,-21.16"/>
</g>
<!-- Node9&#45;&gt;Node5 -->
<g id="edge11" class="edge">
<title>Node9&#45;&gt;Node5</title>
<path fill="none" stroke="midnightblue" d="M491.04,-56.44C455.21,-47.14 397.84,-32.25 358.61,-22.06"/>
<polygon fill="midnightblue" stroke="midnightblue" points="359.36,-18.64 348.8,-19.52 357.6,-25.42 359.36,-18.64"/>
</g>
<!-- Node10 -->
<g id="node10" class="node">
<title>Node10</title>
<g id="a_node10"><a xlink:title=" ">
<polygon fill="white" stroke="#bfbfbf" points="588,-0.5 588,-19.5 632,-19.5 632,-0.5 588,-0.5"/>
<text text-anchor="middle" x="610" y="-7.5" font-family="Helvetica,sans-Serif" font-size="10.00">string</text>
</a>
</g>
</g>
<!-- Node9&#45;&gt;Node10 -->
<g id="edge9" class="edge">
<title>Node9&#45;&gt;Node10</title>
<path fill="none" stroke="midnightblue" d="M537.82,-56.32C551.23,-47.9 571.82,-34.97 587.59,-25.07"/>
<polygon fill="midnightblue" stroke="midnightblue" points="589.61,-27.94 596.22,-19.65 585.89,-22.01 589.61,-27.94"/>
</g>
<!-- Node11 -->
<g id="node11" class="node">
<title>Node11</title>
<g id="a_node11"><a xlink:title=" ">
<polygon fill="white" stroke="#bfbfbf" points="472,-0.5 472,-19.5 570,-19.5 570,-0.5 472,-0.5"/>
<text text-anchor="middle" x="521" y="-7.5" font-family="Helvetica,sans-Serif" font-size="10.00">AMReX_Vector.H</text>
</a>
</g>
</g>
<!-- Node9&#45;&gt;Node11 -->
<g id="edge12" class="edge">
<title>Node9&#45;&gt;Node11</title>
<path fill="none" stroke="midnightblue" d="M523.5,-56.08C523.11,-49.01 522.55,-38.86 522.05,-29.99"/>
<polygon fill="midnightblue" stroke="midnightblue" points="525.54,-29.54 521.49,-19.75 518.55,-29.93 525.54,-29.54"/>
</g>
<!-- Node15 -->
<g id="node15" class="node">
<title>Node15</title>
<g id="a_node15"><a xlink:title=" ">
<polygon fill="white" stroke="#bfbfbf" points="611,-56.5 611,-75.5 703,-75.5 703,-56.5 611,-56.5"/>
<text text-anchor="middle" x="657" y="-63.5" font-family="Helvetica,sans-Serif" font-size="10.00">AMReX_REAL.H</text>
</a>
</g>
</g>
<!-- Node14&#45;&gt;Node15 -->
<g id="edge16" class="edge">
<title>Node14&#45;&gt;Node15</title>
<path fill="none" stroke="midnightblue" d="M711.56,-112.32C701.85,-104.26 687.18,-92.08 675.5,-82.37"/>
<polygon fill="midnightblue" stroke="midnightblue" points="677.56,-79.53 667.63,-75.83 673.09,-84.92 677.56,-79.53"/>
</g>
<!-- Node16 -->
<g id="node16" class="node">
<title>Node16</title>
<g id="a_node16"><a xlink:title=" ">
<polygon fill="white" stroke="#bfbfbf" points="721,-56.5 721,-75.5 855,-75.5 855,-56.5 721,-56.5"/>
<text text-anchor="middle" x="788" y="-63.5" font-family="Helvetica,sans-Serif" font-size="10.00">AMReX_GpuQualifiers.H</text>
</a>
</g>
</g>
<!-- Node14&#45;&gt;Node16 -->
<g id="edge17" class="edge">
<title>Node14&#45;&gt;Node16</title>
<path fill="none" stroke="midnightblue" d="M732.6,-112.32C742.46,-104.26 757.35,-92.08 769.22,-82.37"/>
<polygon fill="midnightblue" stroke="midnightblue" points="771.68,-84.88 777.2,-75.83 767.25,-79.46 771.68,-84.88"/>
</g>
<!-- Node17 -->
<g id="node17" class="node">
<title>Node17</title>
<g id="a_node17"><a xlink:title=" ">
<polygon fill="white" stroke="#bfbfbf" points="873,-56.5 873,-75.5 989,-75.5 989,-56.5 873,-56.5"/>
<text text-anchor="middle" x="931" y="-63.5" font-family="Helvetica,sans-Serif" font-size="10.00">AMReX_Extension.H</text>
</a>
</g>
</g>
<!-- Node14&#45;&gt;Node17 -->
<g id="edge18" class="edge">
<title>Node14&#45;&gt;Node17</title>
<path fill="none" stroke="midnightblue" d="M755.12,-112.44C791.12,-103.14 848.77,-88.25 888.19,-78.06"/>
<polygon fill="midnightblue" stroke="midnightblue" points="889.23,-81.41 898.04,-75.52 887.48,-74.63 889.23,-81.41"/>
</g>
</g>
</svg>
