<?xml version="1.0" encoding="UTF-8" standalone="no"?>
<!DOCTYPE svg PUBLIC "-//W3C//DTD SVG 1.1//EN"
 "http://www.w3.org/Graphics/SVG/1.1/DTD/svg11.dtd">
<!-- Generated by graphviz version 2.43.0 (0)
 -->
<!-- Title: NWB.cpp Pages: 1 -->
<!--zoomable 341 -->
<svg id="main" version="1.1" xmlns="http://www.w3.org/2000/svg" xmlns:xlink="http://www.w3.org/1999/xlink" xml:space="preserve" onload="init(evt)">
<style type="text/css"><![CDATA[
.edge:hover path { stroke: red; }
.edge:hover polygon { stroke: red; fill: red; }
]]></style>
<script type="text/javascript"><![CDATA[
var edges = document.getElementsByTagName('g');
if (edges && edges.length) {
  for (var i=0;i<edges.length;i++) {
    if (edges[i].id.substr(0,4)=='edge') {
      edges[i].setAttribute('class','edge');
    }
  }
}
]]></script>
        <defs>
                <circle id="rim" cx="0" cy="0" r="7"/>
                <circle id="rim2" cx="0" cy="0" r="3.5"/>
                <g id="zoomPlus">
                        <use xlink:href="#rim" fill="#404040">
                                <set attributeName="fill" to="#808080" begin="zoomplus.mouseover" end="zoomplus.mouseout"/>
                        </use>
                        <path d="M-4,0h8M0,-4v8" fill="none" stroke="white" stroke-width="1.5" pointer-events="none"/>
                </g>
                <g id="zoomMin">
                        <use xlink:href="#rim" fill="#404040">
                                <set attributeName="fill" to="#808080" begin="zoomminus.mouseover" end="zoomminus.mouseout"/>
                        </use>
                        <path d="M-4,0h8" fill="none" stroke="white" stroke-width="1.5" pointer-events="none"/>
                </g>
                <g id="dirArrow">
                        <path fill="none" stroke="white" stroke-width="1.5" d="M0,-3.0v7 M-2.5,-0.5L0,-3.0L2.5,-0.5"/>
                </g>
               <g id="resetDef">
                       <use xlink:href="#rim2" fill="#404040">
                               <set attributeName="fill" to="#808080" begin="reset.mouseover" end="reset.mouseout"/>
                       </use>
               </g>
        </defs>

<script type="text/javascript">
var viewWidth = 2601;
var viewHeight = 341;
var sectionId = 'dynsection-0';
</script>
<script xlink:href="svgpan.js"/>
<svg id="graph" class="graph">
<g id="viewport">
<title>NWB.cpp</title>
<polygon fill="white" stroke="transparent" points="-4,4 -4,-337 2596.75,-337 2596.75,4 -4,4"/>
<!-- Node1 -->
<g id="node1" class="node">
<title>Node1</title>
<g id="a_node1"><a xlink:title=" ">
<polygon fill="#bfbfbf" stroke="black" points="775.25,-313.5 775.25,-332.5 836.25,-332.5 836.25,-313.5 775.25,-313.5"/>
<text text-anchor="middle" x="805.75" y="-320.5" font-family="Helvetica,sans-Serif" font-size="10.00">NWB.cpp</text>
</a>
</g>
</g>
<!-- Node2 -->
<g id="node2" class="node">
<title>Node2</title>
<g id="a_node2"><a xlink:href="_multi_phase_8_h.html" target="_top" xlink:title=" ">
<polygon fill="white" stroke="black" points="725.25,-246.5 725.25,-276.5 886.25,-276.5 886.25,-246.5 725.25,-246.5"/>
<text text-anchor="start" x="733.25" y="-264.5" font-family="Helvetica,sans-Serif" font-size="10.00">amr&#45;wind/physics/multiphase</text>
<text text-anchor="middle" x="805.75" y="-253.5" font-family="Helvetica,sans-Serif" font-size="10.00">/MultiPhase.H</text>
</a>
</g>
</g>
<!-- Node1&#45;&gt;Node2 -->
<g id="edge1" class="edge">
<title>Node1&#45;&gt;Node2</title>
<path fill="none" stroke="midnightblue" d="M805.75,-313.48C805.75,-306.47 805.75,-296.19 805.75,-286.7"/>
<polygon fill="midnightblue" stroke="midnightblue" points="809.25,-286.52 805.75,-276.52 802.25,-286.52 809.25,-286.52"/>
</g>
<!-- Node22 -->
<g id="node22" class="node">
<title>Node22</title>
<g id="a_node22"><a xlink:href="_n_w_b_8_h.html" target="_top" xlink:title=" ">
<polygon fill="white" stroke="black" points="546.25,-246.5 546.25,-276.5 707.25,-276.5 707.25,-246.5 546.25,-246.5"/>
<text text-anchor="start" x="554.25" y="-264.5" font-family="Helvetica,sans-Serif" font-size="10.00">amr&#45;wind/physics/multiphase</text>
<text text-anchor="middle" x="626.75" y="-253.5" font-family="Helvetica,sans-Serif" font-size="10.00">/wave_basin/NWB.H</text>
</a>
</g>
</g>
<!-- Node1&#45;&gt;Node22 -->
<g id="edge31" class="edge">
<title>Node1&#45;&gt;Node22</title>
<path fill="none" stroke="midnightblue" d="M780.11,-313.48C753.71,-304.7 711.86,-290.79 678.53,-279.71"/>
<polygon fill="midnightblue" stroke="midnightblue" points="679.53,-276.36 668.94,-276.52 677.33,-283 679.53,-276.36"/>
</g>
<!-- Node27 -->
<g id="node27" class="node">
<title>Node27</title>
<g id="a_node27"><a xlink:href="trig__ops_8_h.html" target="_top" xlink:title=" ">
<polygon fill="white" stroke="black" points="32.25,-179.5 32.25,-209.5 135.25,-209.5 135.25,-179.5 32.25,-179.5"/>
<text text-anchor="start" x="40.25" y="-197.5" font-family="Helvetica,sans-Serif" font-size="10.00">amr&#45;wind/utilities</text>
<text text-anchor="middle" x="83.75" y="-186.5" font-family="Helvetica,sans-Serif" font-size="10.00">/trig_ops.H</text>
</a>
</g>
</g>
<!-- Node1&#45;&gt;Node27 -->
<g id="edge37" class="edge">
<title>Node1&#45;&gt;Node27</title>
<path fill="none" stroke="midnightblue" d="M775.07,-316.99C725.11,-308.81 623.06,-291.98 536.75,-277 396.65,-252.68 232.43,-222.79 145.33,-206.82"/>
<polygon fill="midnightblue" stroke="midnightblue" points="145.82,-203.36 135.35,-204.99 144.55,-210.24 145.82,-203.36"/>
</g>
<!-- Node29 -->
<g id="node29" class="node">
<title>Node29</title>
<g id="a_node29"><a xlink:href="_c_f_d_sim_8_h.html" target="_top" xlink:title=" ">
<polygon fill="white" stroke="black" points="904.75,-252 904.75,-271 1020.75,-271 1020.75,-252 904.75,-252"/>
<text text-anchor="middle" x="962.75" y="-259" font-family="Helvetica,sans-Serif" font-size="10.00">amr&#45;wind/CFDSim.H</text>
</a>
</g>
</g>
<!-- Node1&#45;&gt;Node29 -->
<g id="edge41" class="edge">
<title>Node1&#45;&gt;Node29</title>
<path fill="none" stroke="midnightblue" d="M828.25,-313.48C855.06,-303.31 900.07,-286.26 930.56,-274.7"/>
<polygon fill="midnightblue" stroke="midnightblue" points="932.19,-277.83 940.3,-271.01 929.71,-271.28 932.19,-277.83"/>
</g>
<!-- Node41 -->
<g id="node41" class="node">
<title>Node41</title>
<g id="a_node41"><a xlink:title=" ">
<polygon fill="white" stroke="#bfbfbf" points="1039.25,-252 1039.25,-271 1158.25,-271 1158.25,-252 1039.25,-252"/>
<text text-anchor="middle" x="1098.75" y="-259" font-family="Helvetica,sans-Serif" font-size="10.00">AMReX_ParmParse.H</text>
</a>
</g>
</g>
<!-- Node1&#45;&gt;Node41 -->
<g id="edge76" class="edge">
<title>Node1&#45;&gt;Node41</title>
<path fill="none" stroke="midnightblue" d="M836.57,-315.9C879.77,-307.33 960.79,-291.17 1029.75,-277 1035.81,-275.75 1042.17,-274.44 1048.47,-273.12"/>
<polygon fill="midnightblue" stroke="midnightblue" points="1049.2,-276.55 1058.27,-271.07 1047.76,-269.69 1049.2,-276.55"/>
</g>
<!-- Node3 -->
<g id="node3" class="node">
<title>Node3</title>
<g id="a_node3"><a xlink:href="_physics_8_h.html" target="_top" xlink:title=" ">
<polygon fill="white" stroke="black" points="648.25,-185 648.25,-204 785.25,-204 785.25,-185 648.25,-185"/>
<text text-anchor="middle" x="716.75" y="-192" font-family="Helvetica,sans-Serif" font-size="10.00">amr&#45;wind/core/Physics.H</text>
</a>
</g>
</g>
<!-- Node2&#45;&gt;Node3 -->
<g id="edge2" class="edge">
<title>Node2&#45;&gt;Node3</title>
<path fill="none" stroke="midnightblue" d="M786.44,-246.4C771.79,-235.7 751.71,-221.03 736.87,-210.19"/>
<polygon fill="midnightblue" stroke="midnightblue" points="738.54,-207.08 728.4,-204.01 734.41,-212.73 738.54,-207.08"/>
</g>
<!-- Node15 -->
<g id="node15" class="node">
<title>Node15</title>
<g id="a_node15"><a xlink:href="_field_8_h.html" target="_top" xlink:title=" ">
<polygon fill="white" stroke="black" points="1091.75,-118 1091.75,-137 1215.75,-137 1215.75,-118 1091.75,-118"/>
<text text-anchor="middle" x="1153.75" y="-125" font-family="Helvetica,sans-Serif" font-size="10.00">amr&#45;wind/core/Field.H</text>
</a>
</g>
</g>
<!-- Node2&#45;&gt;Node15 -->
<g id="edge16" class="edge">
<title>Node2&#45;&gt;Node15</title>
<path fill="none" stroke="midnightblue" d="M842.67,-246.5C911.08,-220.55 1056.48,-165.4 1121.34,-140.79"/>
<polygon fill="midnightblue" stroke="midnightblue" points="1122.93,-143.94 1131.04,-137.12 1120.44,-137.39 1122.93,-143.94"/>
</g>
<!-- Node4 -->
<g id="node4" class="node">
<title>Node4</title>
<g id="a_node4"><a xlink:href="_factory_8_h.html" target="_top" xlink:title=" ">
<polygon fill="white" stroke="black" points="649.75,-118 649.75,-137 783.75,-137 783.75,-118 649.75,-118"/>
<text text-anchor="middle" x="716.75" y="-125" font-family="Helvetica,sans-Serif" font-size="10.00">amr&#45;wind/core/Factory.H</text>
</a>
</g>
</g>
<!-- Node3&#45;&gt;Node4 -->
<g id="edge3" class="edge">
<title>Node3&#45;&gt;Node4</title>
<path fill="none" stroke="midnightblue" d="M716.75,-184.73C716.75,-175.18 716.75,-159.62 716.75,-147.28"/>
<polygon fill="midnightblue" stroke="midnightblue" points="720.25,-147.13 716.75,-137.13 713.25,-147.13 720.25,-147.13"/>
</g>
<!-- Node10 -->
<g id="node10" class="node">
<title>Node10</title>
<g id="a_node10"><a xlink:href="_coll_mgr_8_h.html" target="_top" xlink:title=" ">
<polygon fill="white" stroke="black" points="802.25,-118 802.25,-137 939.25,-137 939.25,-118 802.25,-118"/>
<text text-anchor="middle" x="870.75" y="-125" font-family="Helvetica,sans-Serif" font-size="10.00">amr&#45;wind/core/CollMgr.H</text>
</a>
</g>
</g>
<!-- Node3&#45;&gt;Node10 -->
<g id="edge9" class="edge">
<title>Node3&#45;&gt;Node10</title>
<path fill="none" stroke="midnightblue" d="M737.2,-184.87C763.78,-173.65 810.39,-153.98 840.92,-141.09"/>
<polygon fill="midnightblue" stroke="midnightblue" points="842.37,-144.28 850.22,-137.17 839.64,-137.83 842.37,-144.28"/>
</g>
<!-- Node13 -->
<g id="node13" class="node">
<title>Node13</title>
<g id="a_node13"><a xlink:title=" ">
<polygon fill="white" stroke="#bfbfbf" points="1514.25,-0.5 1514.25,-19.5 1623.25,-19.5 1623.25,-0.5 1514.25,-0.5"/>
<text text-anchor="middle" x="1568.75" y="-7.5" font-family="Helvetica,sans-Serif" font-size="10.00">AMReX_MultiFab.H</text>
</a>
</g>
</g>
<!-- Node3&#45;&gt;Node13 -->
<g id="edge14" class="edge">
<title>Node3&#45;&gt;Node13</title>
<path fill="none" stroke="midnightblue" d="M703.06,-184.9C687.66,-175.11 662.02,-158.47 640.75,-143 622.85,-129.97 622.12,-120.7 601.75,-112 491.45,-64.9 254.26,-142.11 337.75,-56 381.45,-10.93 1373.04,-24.55 1503.85,-19.66"/>
<polygon fill="midnightblue" stroke="midnightblue" points="1504.19,-23.14 1513.99,-19.1 1503.81,-16.15 1504.19,-23.14"/>
</g>
<!-- Node14 -->
<g id="node14" class="node">
<title>Node14</title>
<g id="a_node14"><a xlink:title=" ">
<polygon fill="white" stroke="#bfbfbf" points="478.25,-118 478.25,-137 593.25,-137 593.25,-118 478.25,-118"/>
<text text-anchor="middle" x="535.75" y="-125" font-family="Helvetica,sans-Serif" font-size="10.00">AMReX_Geometry.H</text>
</a>
</g>
</g>
<!-- Node3&#45;&gt;Node14 -->
<g id="edge15" class="edge">
<title>Node3&#45;&gt;Node14</title>
<path fill="none" stroke="midnightblue" d="M692.72,-184.87C660.99,-173.47 604.96,-153.35 569.13,-140.49"/>
<polygon fill="midnightblue" stroke="midnightblue" points="570.19,-137.15 559.6,-137.06 567.83,-143.74 570.19,-137.15"/>
</g>
<!-- Node5 -->
<g id="node5" class="node">
<title>Node5</title>
<g id="a_node5"><a xlink:title=" ">
<polygon fill="white" stroke="#bfbfbf" points="794.75,-56.5 794.75,-75.5 852.75,-75.5 852.75,-56.5 794.75,-56.5"/>
<text text-anchor="middle" x="823.75" y="-63.5" font-family="Helvetica,sans-Serif" font-size="10.00">memory</text>
</a>
</g>
</g>
<!-- Node4&#45;&gt;Node5 -->
<g id="edge4" class="edge">
<title>Node4&#45;&gt;Node5</title>
<path fill="none" stroke="midnightblue" d="M732.08,-117.98C749.72,-108.17 778.91,-91.93 799.61,-80.42"/>
<polygon fill="midnightblue" stroke="midnightblue" points="801.41,-83.43 808.45,-75.51 798.01,-77.31 801.41,-83.43"/>
</g>
<!-- Node6 -->
<g id="node6" class="node">
<title>Node6</title>
<g id="a_node6"><a xlink:title=" ">
<polygon fill="white" stroke="#bfbfbf" points="871.25,-56.5 871.25,-75.5 964.25,-75.5 964.25,-56.5 871.25,-56.5"/>
<text text-anchor="middle" x="917.75" y="-63.5" font-family="Helvetica,sans-Serif" font-size="10.00">unordered_map</text>
</a>
</g>
</g>
<!-- Node4&#45;&gt;Node6 -->
<g id="edge5" class="edge">
<title>Node4&#45;&gt;Node6</title>
<path fill="none" stroke="midnightblue" d="M745.55,-117.98C780.63,-107.59 840.02,-90.01 879.06,-78.45"/>
<polygon fill="midnightblue" stroke="midnightblue" points="880.41,-81.7 889.01,-75.51 878.43,-74.99 880.41,-81.7"/>
</g>
<!-- Node7 -->
<g id="node7" class="node">
<title>Node7</title>
<g id="a_node7"><a xlink:title=" ">
<polygon fill="white" stroke="#bfbfbf" points="426.75,-56.5 426.75,-75.5 486.75,-75.5 486.75,-56.5 426.75,-56.5"/>
<text text-anchor="middle" x="456.75" y="-63.5" font-family="Helvetica,sans-Serif" font-size="10.00">iostream</text>
</a>
</g>
</g>
<!-- Node4&#45;&gt;Node7 -->
<g id="edge6" class="edge">
<title>Node4&#45;&gt;Node7</title>
<path fill="none" stroke="midnightblue" d="M679.21,-117.95C637.21,-108.37 566.87,-92.32 496.86,-76.25"/>
<polygon fill="midnightblue" stroke="midnightblue" points="497.52,-72.81 486.99,-73.98 495.95,-79.63 497.52,-72.81"/>
</g>
<!-- Node8 -->
<g id="node8" class="node">
<title>Node8</title>
<g id="a_node8"><a xlink:title=" ">
<polygon fill="white" stroke="#bfbfbf" points="504.75,-56.5 504.75,-75.5 594.75,-75.5 594.75,-56.5 504.75,-56.5"/>
<text text-anchor="middle" x="549.75" y="-63.5" font-family="Helvetica,sans-Serif" font-size="10.00">AMReX_Print.H</text>
</a>
</g>
</g>
<!-- Node4&#45;&gt;Node8 -->
<g id="edge7" class="edge">
<title>Node4&#45;&gt;Node8</title>
<path fill="none" stroke="midnightblue" d="M692.83,-117.98C664.06,-107.72 615.6,-90.46 583.15,-78.9"/>
<polygon fill="midnightblue" stroke="midnightblue" points="584.23,-75.57 573.64,-75.51 581.88,-82.16 584.23,-75.57"/>
</g>
<!-- Node9 -->
<g id="node9" class="node">
<title>Node9</title>
<g id="a_node9"><a xlink:title=" ">
<polygon fill="white" stroke="#bfbfbf" points="346.75,-56.5 346.75,-75.5 408.75,-75.5 408.75,-56.5 346.75,-56.5"/>
<text text-anchor="middle" x="377.75" y="-63.5" font-family="Helvetica,sans-Serif" font-size="10.00">AMReX.H</text>
</a>
</g>
</g>
<!-- Node4&#45;&gt;Node9 -->
<g id="edge8" class="edge">
<title>Node4&#45;&gt;Node9</title>
<path fill="none" stroke="midnightblue" d="M669.66,-117.96C658.54,-115.97 646.74,-113.89 635.75,-112 542.09,-95.88 515.82,-94.84 419.07,-76.17"/>
<polygon fill="midnightblue" stroke="midnightblue" points="419.64,-72.72 409.16,-74.25 418.31,-79.59 419.64,-72.72"/>
</g>
<!-- Node10&#45;&gt;Node5 -->
<g id="edge11" class="edge">
<title>Node10&#45;&gt;Node5</title>
<path fill="none" stroke="midnightblue" d="M864.02,-117.98C856.97,-109.05 845.72,-94.81 836.9,-83.64"/>
<polygon fill="midnightblue" stroke="midnightblue" points="839.42,-81.19 830.47,-75.51 833.93,-85.53 839.42,-81.19"/>
</g>
<!-- Node10&#45;&gt;Node6 -->
<g id="edge12" class="edge">
<title>Node10&#45;&gt;Node6</title>
<path fill="none" stroke="midnightblue" d="M877.49,-117.98C884.54,-109.05 895.79,-94.81 904.61,-83.64"/>
<polygon fill="midnightblue" stroke="midnightblue" points="907.58,-85.53 911.03,-75.51 902.09,-81.19 907.58,-85.53"/>
</g>
<!-- Node11 -->
<g id="node11" class="node">
<title>Node11</title>
<g id="a_node11"><a xlink:title=" ">
<polygon fill="white" stroke="#bfbfbf" points="1724.75,-0.5 1724.75,-19.5 1768.75,-19.5 1768.75,-0.5 1724.75,-0.5"/>
<text text-anchor="middle" x="1746.75" y="-7.5" font-family="Helvetica,sans-Serif" font-size="10.00">string</text>
</a>
</g>
</g>
<!-- Node10&#45;&gt;Node11 -->
<g id="edge10" class="edge">
<title>Node10&#45;&gt;Node11</title>
<path fill="none" stroke="midnightblue" d="M845.86,-117.93C813.03,-105.37 762.01,-80.78 785.75,-56 818.34,-22 1585.74,-22.85 1632.75,-20 1660.3,-18.33 1691.54,-15.82 1714.34,-13.87"/>
<polygon fill="midnightblue" stroke="midnightblue" points="1714.83,-17.34 1724.49,-13 1714.23,-10.37 1714.83,-17.34"/>
</g>
<!-- Node12 -->
<g id="node12" class="node">
<title>Node12</title>
<g id="a_node12"><a xlink:title=" ">
<polygon fill="white" stroke="#bfbfbf" points="1397.75,-0.5 1397.75,-19.5 1495.75,-19.5 1495.75,-0.5 1397.75,-0.5"/>
<text text-anchor="middle" x="1446.75" y="-7.5" font-family="Helvetica,sans-Serif" font-size="10.00">AMReX_Vector.H</text>
</a>
</g>
</g>
<!-- Node10&#45;&gt;Node12 -->
<g id="edge13" class="edge">
<title>Node10&#45;&gt;Node12</title>
<path fill="none" stroke="midnightblue" d="M830.36,-118C786.15,-106.98 725.01,-85.6 752.75,-56 795.7,-10.18 1227.24,-9.11 1387.37,-10.32"/>
<polygon fill="midnightblue" stroke="midnightblue" points="1387.49,-13.82 1397.52,-10.4 1387.54,-6.82 1387.49,-13.82"/>
</g>
<!-- Node15&#45;&gt;Node5 -->
<g id="edge18" class="edge">
<title>Node15&#45;&gt;Node5</title>
<path fill="none" stroke="midnightblue" d="M1098.4,-117.96C1041.66,-108.98 950.65,-93.93 862.64,-76.08"/>
<polygon fill="midnightblue" stroke="midnightblue" points="863.26,-72.64 852.76,-74.06 861.86,-79.49 863.26,-72.64"/>
</g>
<!-- Node15&#45;&gt;Node6 -->
<g id="edge19" class="edge">
<title>Node15&#45;&gt;Node6</title>
<path fill="none" stroke="midnightblue" d="M1119.94,-117.98C1078.23,-107.46 1007.24,-89.56 961.44,-78.01"/>
<polygon fill="midnightblue" stroke="midnightblue" points="962.06,-74.56 951.5,-75.51 960.34,-81.35 962.06,-74.56"/>
</g>
<!-- Node15&#45;&gt;Node11 -->
<g id="edge17" class="edge">
<title>Node15&#45;&gt;Node11</title>
<path fill="none" stroke="midnightblue" d="M1163.98,-117.88C1184.6,-100.69 1230.8,-63.17 1249.75,-56 1260.68,-51.86 1606.4,-22.72 1714.66,-13.67"/>
<polygon fill="midnightblue" stroke="midnightblue" points="1715,-17.16 1724.67,-12.84 1714.41,-10.18 1715,-17.16"/>
</g>
<!-- Node15&#45;&gt;Node13 -->
<g id="edge21" class="edge">
<title>Node15&#45;&gt;Node13</title>
<path fill="none" stroke="midnightblue" d="M1158.65,-117.75C1167.81,-102.3 1189.13,-70.48 1216.75,-56 1328.1,2.38 1374.51,-34.97 1503.68,-20.04"/>
<polygon fill="midnightblue" stroke="midnightblue" points="1504.46,-23.47 1513.95,-18.76 1503.59,-16.52 1504.46,-23.47"/>
</g>
<!-- Node16 -->
<g id="node16" class="node">
<title>Node16</title>
<g id="a_node16"><a xlink:title=" ">
<polygon fill="white" stroke="#bfbfbf" points="982.75,-56.5 982.75,-75.5 1046.75,-75.5 1046.75,-56.5 982.75,-56.5"/>
<text text-anchor="middle" x="1014.75" y="-63.5" font-family="Helvetica,sans-Serif" font-size="10.00">algorithm</text>
</a>
</g>
</g>
<!-- Node15&#45;&gt;Node16 -->
<g id="edge20" class="edge">
<title>Node15&#45;&gt;Node16</title>
<path fill="none" stroke="midnightblue" d="M1133.84,-117.98C1110.3,-107.9 1070.94,-91.05 1043.96,-79.5"/>
<polygon fill="midnightblue" stroke="midnightblue" points="1045.2,-76.23 1034.63,-75.51 1042.45,-82.66 1045.2,-76.23"/>
</g>
<!-- Node17 -->
<g id="node17" class="node">
<title>Node17</title>
<g id="a_node17"><a xlink:title=" ">
<polygon fill="white" stroke="#bfbfbf" points="1065.25,-56.5 1065.25,-75.5 1164.25,-75.5 1164.25,-56.5 1065.25,-56.5"/>
<text text-anchor="middle" x="1114.75" y="-63.5" font-family="Helvetica,sans-Serif" font-size="10.00">AMReX_BCRec.H</text>
</a>
</g>
</g>
<!-- Node15&#45;&gt;Node17 -->
<g id="edge22" class="edge">
<title>Node15&#45;&gt;Node17</title>
<path fill="none" stroke="midnightblue" d="M1148.17,-117.98C1142.37,-109.14 1133.16,-95.09 1125.88,-83.98"/>
<polygon fill="midnightblue" stroke="midnightblue" points="1128.74,-81.95 1120.33,-75.51 1122.89,-85.79 1128.74,-81.95"/>
</g>
<!-- Node18 -->
<g id="node18" class="node">
<title>Node18</title>
<g id="a_node18"><a xlink:title=" ">
<polygon fill="white" stroke="#bfbfbf" points="613.25,-56.5 613.25,-75.5 700.25,-75.5 700.25,-56.5 613.25,-56.5"/>
<text text-anchor="middle" x="656.75" y="-63.5" font-family="Helvetica,sans-Serif" font-size="10.00">AMReX_Gpu.H</text>
</a>
</g>
</g>
<!-- Node15&#45;&gt;Node18 -->
<g id="edge23" class="edge">
<title>Node15&#45;&gt;Node18</title>
<path fill="none" stroke="midnightblue" d="M1091.56,-119.05C993.15,-107.27 803.2,-84.53 710.4,-73.42"/>
<polygon fill="midnightblue" stroke="midnightblue" points="710.73,-69.94 700.39,-72.22 709.9,-76.89 710.73,-69.94"/>
</g>
<!-- Node19 -->
<g id="node19" class="node">
<title>Node19</title>
<g id="a_node19"><a xlink:href="incflo__enums_8_h.html" target="_top" xlink:title=" ">
<polygon fill="white" stroke="black" points="1259.25,-56.5 1259.25,-75.5 1400.25,-75.5 1400.25,-56.5 1259.25,-56.5"/>
<text text-anchor="middle" x="1329.75" y="-63.5" font-family="Helvetica,sans-Serif" font-size="10.00">amr&#45;wind/incflo_enums.H</text>
</a>
</g>
</g>
<!-- Node15&#45;&gt;Node19 -->
<g id="edge24" class="edge">
<title>Node15&#45;&gt;Node19</title>
<path fill="none" stroke="midnightblue" d="M1178.97,-117.98C1209.42,-107.68 1260.8,-90.31 1295,-78.75"/>
<polygon fill="midnightblue" stroke="midnightblue" points="1296.23,-82.03 1304.58,-75.51 1293.99,-75.4 1296.23,-82.03"/>
</g>
<!-- Node20 -->
<g id="node20" class="node">
<title>Node20</title>
<g id="a_node20"><a xlink:href="_field_desc_types_8_h.html" target="_top" xlink:title=" ">
<polygon fill="white" stroke="black" points="2128.75,-0.5 2128.75,-19.5 2304.75,-19.5 2304.75,-0.5 2128.75,-0.5"/>
<text text-anchor="middle" x="2216.75" y="-7.5" font-family="Helvetica,sans-Serif" font-size="10.00">amr&#45;wind/core/FieldDescTypes.H</text>
</a>
</g>
</g>
<!-- Node15&#45;&gt;Node20 -->
<g id="edge25" class="edge">
<title>Node15&#45;&gt;Node20</title>
<path fill="none" stroke="midnightblue" d="M1216.03,-121.62C1310.48,-113.89 1495.5,-97.48 1651.75,-76 1703.15,-68.93 1715.35,-63.03 1766.75,-56 1887.47,-39.49 2027.19,-26.46 2118.52,-18.76"/>
<polygon fill="midnightblue" stroke="midnightblue" points="2118.91,-22.24 2128.58,-17.91 2118.32,-15.26 2118.91,-22.24"/>
</g>
<!-- Node21 -->
<g id="node21" class="node">
<title>Node21</title>
<g id="a_node21"><a xlink:href="_view_field_8_h.html" target="_top" xlink:title=" ">
<polygon fill="white" stroke="black" points="1494.75,-56.5 1494.75,-75.5 1642.75,-75.5 1642.75,-56.5 1494.75,-56.5"/>
<text text-anchor="middle" x="1568.75" y="-63.5" font-family="Helvetica,sans-Serif" font-size="10.00">amr&#45;wind/core/ViewField.H</text>
</a>
</g>
</g>
<!-- Node15&#45;&gt;Node21 -->
<g id="edge26" class="edge">
<title>Node15&#45;&gt;Node21</title>
<path fill="none" stroke="midnightblue" d="M1213.21,-117.98C1288.87,-107.13 1419.31,-88.43 1499.41,-76.94"/>
<polygon fill="midnightblue" stroke="midnightblue" points="1500,-80.39 1509.4,-75.51 1499.01,-73.46 1500,-80.39"/>
</g>
<!-- Node21&#45;&gt;Node11 -->
<g id="edge27" class="edge">
<title>Node21&#45;&gt;Node11</title>
<path fill="none" stroke="midnightblue" d="M1596.96,-56.44C1629.03,-46.71 1681.28,-30.86 1714.82,-20.69"/>
<polygon fill="midnightblue" stroke="midnightblue" points="1716.03,-23.98 1724.59,-17.73 1714,-17.28 1716.03,-23.98"/>
</g>
<!-- Node21&#45;&gt;Node12 -->
<g id="edge30" class="edge">
<title>Node21&#45;&gt;Node12</title>
<path fill="none" stroke="midnightblue" d="M1549.42,-56.44C1529.43,-47.6 1498.01,-33.69 1475.19,-23.59"/>
<polygon fill="midnightblue" stroke="midnightblue" points="1476.56,-20.36 1465.99,-19.52 1473.72,-26.76 1476.56,-20.36"/>
</g>
<!-- Node21&#45;&gt;Node13 -->
<g id="edge29" class="edge">
<title>Node21&#45;&gt;Node13</title>
<path fill="none" stroke="midnightblue" d="M1568.75,-56.08C1568.75,-49.01 1568.75,-38.86 1568.75,-29.99"/>
<polygon fill="midnightblue" stroke="midnightblue" points="1572.25,-29.75 1568.75,-19.75 1565.25,-29.75 1572.25,-29.75"/>
</g>
<!-- Node21&#45;&gt;Node20 -->
<g id="edge28" class="edge">
<title>Node21&#45;&gt;Node20</title>
<path fill="none" stroke="midnightblue" d="M1643.16,-57.28C1647.76,-56.83 1652.32,-56.4 1656.75,-56 1818.29,-41.25 2006.28,-26.67 2118.19,-18.27"/>
<polygon fill="midnightblue" stroke="midnightblue" points="2118.73,-21.74 2128.44,-17.5 2118.21,-14.76 2118.73,-21.74"/>
</g>
<!-- Node22&#45;&gt;Node3 -->
<g id="edge32" class="edge">
<title>Node22&#45;&gt;Node3</title>
<path fill="none" stroke="midnightblue" d="M646.28,-246.4C661.24,-235.6 681.78,-220.76 696.83,-209.89"/>
<polygon fill="midnightblue" stroke="midnightblue" points="698.92,-212.7 704.97,-204.01 694.82,-207.02 698.92,-212.7"/>
</g>
<!-- Node23 -->
<g id="node23" class="node">
<title>Node23</title>
<g id="a_node23"><a xlink:href="_sim_time_8_h.html" target="_top" xlink:title=" ">
<polygon fill="white" stroke="black" points="329.75,-185 329.75,-204 473.75,-204 473.75,-185 329.75,-185"/>
<text text-anchor="middle" x="401.75" y="-192" font-family="Helvetica,sans-Serif" font-size="10.00">amr&#45;wind/core/SimTime.H</text>
</a>
</g>
</g>
<!-- Node22&#45;&gt;Node23 -->
<g id="edge33" class="edge">
<title>Node22&#45;&gt;Node23</title>
<path fill="none" stroke="midnightblue" d="M578.21,-246.48C537.18,-234.62 479.15,-217.86 441,-206.84"/>
<polygon fill="midnightblue" stroke="midnightblue" points="441.85,-203.44 431.28,-204.03 439.91,-210.17 441.85,-203.44"/>
</g>
<!-- Node24 -->
<g id="node24" class="node">
<title>Node24</title>
<g id="a_node24"><a xlink:title=" ">
<polygon fill="white" stroke="#bfbfbf" points="81.75,-118 81.75,-137 173.75,-137 173.75,-118 81.75,-118"/>
<text text-anchor="middle" x="127.75" y="-125" font-family="Helvetica,sans-Serif" font-size="10.00">AMReX_REAL.H</text>
</a>
</g>
</g>
<!-- Node23&#45;&gt;Node24 -->
<g id="edge34" class="edge">
<title>Node23&#45;&gt;Node24</title>
<path fill="none" stroke="midnightblue" d="M362.9,-184.92C319.05,-175.16 245.63,-158.53 182.75,-143 178.38,-141.92 173.81,-140.76 169.26,-139.59"/>
<polygon fill="midnightblue" stroke="midnightblue" points="169.97,-136.16 159.41,-137.03 168.21,-142.93 169.97,-136.16"/>
</g>
<!-- Node25 -->
<g id="node25" class="node">
<title>Node25</title>
<g id="a_node25"><a xlink:title=" ">
<polygon fill="white" stroke="#bfbfbf" points="191.75,-118 191.75,-137 325.75,-137 325.75,-118 191.75,-118"/>
<text text-anchor="middle" x="258.75" y="-125" font-family="Helvetica,sans-Serif" font-size="10.00">AMReX_GpuQualifiers.H</text>
</a>
</g>
</g>
<!-- Node23&#45;&gt;Node25 -->
<g id="edge35" class="edge">
<title>Node23&#45;&gt;Node25</title>
<path fill="none" stroke="midnightblue" d="M382.76,-184.87C358.3,-173.75 315.55,-154.32 287.2,-141.43"/>
<polygon fill="midnightblue" stroke="midnightblue" points="288.37,-138.12 277.82,-137.17 285.48,-144.49 288.37,-138.12"/>
</g>
<!-- Node26 -->
<g id="node26" class="node">
<title>Node26</title>
<g id="a_node26"><a xlink:title=" ">
<polygon fill="white" stroke="#bfbfbf" points="343.75,-118 343.75,-137 459.75,-137 459.75,-118 343.75,-118"/>
<text text-anchor="middle" x="401.75" y="-125" font-family="Helvetica,sans-Serif" font-size="10.00">AMReX_Extension.H</text>
</a>
</g>
</g>
<!-- Node23&#45;&gt;Node26 -->
<g id="edge36" class="edge">
<title>Node23&#45;&gt;Node26</title>
<path fill="none" stroke="midnightblue" d="M401.75,-184.73C401.75,-175.18 401.75,-159.62 401.75,-147.28"/>
<polygon fill="midnightblue" stroke="midnightblue" points="405.25,-147.13 401.75,-137.13 398.25,-147.13 405.25,-147.13"/>
</g>
<!-- Node27&#45;&gt;Node18 -->
<g id="edge40" class="edge">
<title>Node27&#45;&gt;Node18</title>
<path fill="none" stroke="midnightblue" d="M54.22,-179.38C24.03,-163.14 -15.53,-135.67 6.75,-112 50.62,-65.41 502.31,-82.19 603.09,-75.65"/>
<polygon fill="midnightblue" stroke="midnightblue" points="603.47,-79.14 613.13,-74.79 602.87,-72.16 603.47,-79.14"/>
</g>
<!-- Node27&#45;&gt;Node24 -->
<g id="edge39" class="edge">
<title>Node27&#45;&gt;Node24</title>
<path fill="none" stroke="midnightblue" d="M93.3,-179.4C100.03,-169.46 109.06,-156.11 116.2,-145.57"/>
<polygon fill="midnightblue" stroke="midnightblue" points="119.16,-147.44 121.87,-137.19 113.36,-143.51 119.16,-147.44"/>
</g>
<!-- Node28 -->
<g id="node28" class="node">
<title>Node28</title>
<g id="a_node28"><a xlink:title=" ">
<polygon fill="white" stroke="#bfbfbf" points="16.25,-118 16.25,-137 63.25,-137 63.25,-118 16.25,-118"/>
<text text-anchor="middle" x="39.75" y="-125" font-family="Helvetica,sans-Serif" font-size="10.00">cmath</text>
</a>
</g>
</g>
<!-- Node27&#45;&gt;Node28 -->
<g id="edge38" class="edge">
<title>Node27&#45;&gt;Node28</title>
<path fill="none" stroke="midnightblue" d="M74.21,-179.4C67.48,-169.46 58.44,-156.11 51.31,-145.57"/>
<polygon fill="midnightblue" stroke="midnightblue" points="54.14,-143.51 45.64,-137.19 48.35,-147.44 54.14,-143.51"/>
</g>
<!-- Node29&#45;&gt;Node3 -->
<g id="edge75" class="edge">
<title>Node29&#45;&gt;Node3</title>
<path fill="none" stroke="midnightblue" d="M930.34,-251.94C886.37,-240.32 807.74,-219.54 759.13,-206.7"/>
<polygon fill="midnightblue" stroke="midnightblue" points="759.8,-203.25 749.24,-204.08 758.01,-210.02 759.8,-203.25"/>
</g>
<!-- Node29&#45;&gt;Node23 -->
<g id="edge43" class="edge">
<title>Node29&#45;&gt;Node23</title>
<path fill="none" stroke="midnightblue" d="M926.19,-251.94C916.05,-249.78 905.01,-247.61 894.75,-246 751.1,-223.39 582.24,-208.63 484.07,-201.2"/>
<polygon fill="midnightblue" stroke="midnightblue" points="484.15,-197.7 473.92,-200.44 483.63,-204.68 484.15,-197.7"/>
</g>
<!-- Node30 -->
<g id="node30" class="node">
<title>Node30</title>
<g id="a_node30"><a xlink:title=" ">
<polygon fill="white" stroke="#bfbfbf" points="2482.75,-118 2482.75,-137 2592.75,-137 2592.75,-118 2482.75,-118"/>
<text text-anchor="middle" x="2537.75" y="-125" font-family="Helvetica,sans-Serif" font-size="10.00">AMReX_AmrCore.H</text>
</a>
</g>
</g>
<!-- Node29&#45;&gt;Node30 -->
<g id="edge42" class="edge">
<title>Node29&#45;&gt;Node30</title>
<path fill="none" stroke="midnightblue" d="M996.64,-251.94C1007.18,-249.61 1018.89,-247.36 1029.75,-246 1482.97,-189.47 1602.3,-255.46 2056.75,-210 2215.85,-194.09 2401.86,-157.33 2488.58,-139.12"/>
<polygon fill="midnightblue" stroke="midnightblue" points="2489.34,-142.53 2498.41,-137.04 2487.9,-135.68 2489.34,-142.53"/>
</g>
<!-- Node31 -->
<g id="node31" class="node">
<title>Node31</title>
<g id="a_node31"><a xlink:href="_field_repo_8_h.html" target="_top" xlink:title=" ">
<polygon fill="white" stroke="black" points="1898.25,-185 1898.25,-204 2047.25,-204 2047.25,-185 1898.25,-185"/>
<text text-anchor="middle" x="1972.75" y="-192" font-family="Helvetica,sans-Serif" font-size="10.00">amr&#45;wind/core/FieldRepo.H</text>
</a>
</g>
</g>
<!-- Node29&#45;&gt;Node31 -->
<g id="edge44" class="edge">
<title>Node29&#45;&gt;Node31</title>
<path fill="none" stroke="midnightblue" d="M997,-251.99C1007.45,-249.69 1019.02,-247.44 1029.75,-246 1344.3,-203.82 1722.32,-196.55 1887.99,-195.52"/>
<polygon fill="midnightblue" stroke="midnightblue" points="1888.13,-199.02 1898.11,-195.46 1888.09,-192.02 1888.13,-199.02"/>
</g>
<!-- Node38 -->
<g id="node38" class="node">
<title>Node38</title>
<g id="a_node38"><a xlink:href="_p_d_e_base_8_h.html" target="_top" xlink:title=" ">
<polygon fill="white" stroke="black" points="1252.25,-179.5 1252.25,-209.5 1407.25,-209.5 1407.25,-179.5 1252.25,-179.5"/>
<text text-anchor="start" x="1260.25" y="-197.5" font-family="Helvetica,sans-Serif" font-size="10.00">amr&#45;wind/equation_systems</text>
<text text-anchor="middle" x="1329.75" y="-186.5" font-family="Helvetica,sans-Serif" font-size="10.00">/PDEBase.H</text>
</a>
</g>
</g>
<!-- Node29&#45;&gt;Node38 -->
<g id="edge67" class="edge">
<title>Node29&#45;&gt;Node38</title>
<path fill="none" stroke="midnightblue" d="M1000.6,-251.99C1010.1,-249.94 1020.29,-247.82 1029.75,-246 1100.97,-232.31 1182.09,-218.78 1242.01,-209.17"/>
<polygon fill="midnightblue" stroke="midnightblue" points="1242.87,-212.58 1252.19,-207.54 1241.76,-205.67 1242.87,-212.58"/>
</g>
<!-- Node31&#45;&gt;Node6 -->
<g id="edge46" class="edge">
<title>Node31&#45;&gt;Node6</title>
<path fill="none" stroke="midnightblue" d="M1898.17,-192.84C1713.05,-190.63 1236.4,-181.28 1082.75,-143 1028.95,-129.6 971.22,-98.76 940.34,-80.75"/>
<polygon fill="midnightblue" stroke="midnightblue" points="942.04,-77.69 931.65,-75.61 938.48,-83.72 942.04,-77.69"/>
</g>
<!-- Node31&#45;&gt;Node11 -->
<g id="edge45" class="edge">
<title>Node31&#45;&gt;Node11</title>
<path fill="none" stroke="midnightblue" d="M1974.21,-184.66C1977.65,-160.44 1983.56,-92.46 1948.75,-56 1925.77,-31.92 1830.2,-19.12 1779.19,-13.89"/>
<polygon fill="midnightblue" stroke="midnightblue" points="1779.32,-10.39 1769.02,-12.89 1778.63,-17.35 1779.32,-10.39"/>
</g>
<!-- Node31&#45;&gt;Node13 -->
<g id="edge65" class="edge">
<title>Node31&#45;&gt;Node13</title>
<path fill="none" stroke="midnightblue" d="M1898.19,-187.37C1773.55,-175.31 1531.96,-143.58 1485.75,-76 1470.07,-53.06 1502.19,-34.47 1530.92,-23.13"/>
<polygon fill="midnightblue" stroke="midnightblue" points="1532.32,-26.35 1540.46,-19.57 1529.87,-19.79 1532.32,-26.35"/>
</g>
<!-- Node31&#45;&gt;Node15 -->
<g id="edge52" class="edge">
<title>Node31&#45;&gt;Node15</title>
<path fill="none" stroke="midnightblue" d="M1897.9,-187.56C1741.28,-175.13 1380.73,-146.51 1226.21,-134.25"/>
<polygon fill="midnightblue" stroke="midnightblue" points="1226.14,-130.73 1215.89,-133.43 1225.58,-137.71 1226.14,-130.73"/>
</g>
<!-- Node31&#45;&gt;Node20 -->
<g id="edge47" class="edge">
<title>Node31&#45;&gt;Node20</title>
<path fill="none" stroke="midnightblue" d="M2016.67,-184.93C2028.37,-182.81 2041.02,-180.67 2052.75,-179 2129.06,-168.12 2346.15,-200.26 2397.75,-143 2446.66,-88.72 2326.33,-43.02 2258.8,-22.54"/>
<polygon fill="midnightblue" stroke="midnightblue" points="2259.43,-19.08 2248.84,-19.59 2257.44,-25.79 2259.43,-19.08"/>
</g>
<!-- Node31&#45;&gt;Node30 -->
<g id="edge64" class="edge">
<title>Node31&#45;&gt;Node30</title>
<path fill="none" stroke="midnightblue" d="M2047.43,-188.37C2144.78,-181.11 2320.15,-166.11 2468.75,-143 2475.9,-141.89 2483.43,-140.52 2490.78,-139.06"/>
<polygon fill="midnightblue" stroke="midnightblue" points="2491.55,-142.48 2500.64,-137.05 2490.15,-135.62 2491.55,-142.48"/>
</g>
<!-- Node32 -->
<g id="node32" class="node">
<title>Node32</title>
<g id="a_node32"><a xlink:href="_field_utils_8_h.html" target="_top" xlink:title=" ">
<polygon fill="white" stroke="black" points="2417.75,-56.5 2417.75,-75.5 2563.75,-75.5 2563.75,-56.5 2417.75,-56.5"/>
<text text-anchor="middle" x="2490.75" y="-63.5" font-family="Helvetica,sans-Serif" font-size="10.00">amr&#45;wind/core/FieldUtils.H</text>
</a>
</g>
</g>
<!-- Node31&#45;&gt;Node32 -->
<g id="edge48" class="edge">
<title>Node31&#45;&gt;Node32</title>
<path fill="none" stroke="midnightblue" d="M2047.62,-192.18C2160.2,-189.04 2366.74,-178.49 2430.75,-143 2454.57,-129.8 2472.27,-102.87 2482.06,-84.87"/>
<polygon fill="midnightblue" stroke="midnightblue" points="2485.19,-86.43 2486.67,-75.94 2478.97,-83.22 2485.19,-86.43"/>
</g>
<!-- Node34 -->
<g id="node34" class="node">
<title>Node34</title>
<g id="a_node34"><a xlink:href="_int_field_8_h.html" target="_top" xlink:title=" ">
<polygon fill="white" stroke="black" points="2039.25,-118 2039.25,-137 2176.25,-137 2176.25,-118 2039.25,-118"/>
<text text-anchor="middle" x="2107.75" y="-125" font-family="Helvetica,sans-Serif" font-size="10.00">amr&#45;wind/core/IntField.H</text>
</a>
</g>
</g>
<!-- Node31&#45;&gt;Node34 -->
<g id="edge53" class="edge">
<title>Node31&#45;&gt;Node34</title>
<path fill="none" stroke="midnightblue" d="M1990.68,-184.87C2013.68,-173.8 2053.78,-154.49 2080.55,-141.6"/>
<polygon fill="midnightblue" stroke="midnightblue" points="2082.26,-144.66 2089.75,-137.17 2079.22,-138.35 2082.26,-144.66"/>
</g>
<!-- Node35 -->
<g id="node35" class="node">
<title>Node35</title>
<g id="a_node35"><a xlink:title=" ">
<polygon fill="white" stroke="#bfbfbf" points="2038.75,-56.5 2038.75,-75.5 2150.75,-75.5 2150.75,-56.5 2038.75,-56.5"/>
<text text-anchor="middle" x="2094.75" y="-63.5" font-family="Helvetica,sans-Serif" font-size="10.00">AMReX_iMultiFab.H</text>
</a>
</g>
</g>
<!-- Node31&#45;&gt;Node35 -->
<g id="edge66" class="edge">
<title>Node31&#45;&gt;Node35</title>
<path fill="none" stroke="midnightblue" d="M1977.52,-184.93C1986.52,-169.24 2007.23,-135.39 2030.75,-112 2042.77,-100.05 2058.27,-89.07 2071,-80.94"/>
<polygon fill="midnightblue" stroke="midnightblue" points="2073.04,-83.79 2079.7,-75.55 2069.36,-77.84 2073.04,-83.79"/>
</g>
<!-- Node36 -->
<g id="node36" class="node">
<title>Node36</title>
<g id="a_node36"><a xlink:href="_scratch_field_8_h.html" target="_top" xlink:title=" ">
<polygon fill="white" stroke="black" points="1666.75,-118 1666.75,-137 1826.75,-137 1826.75,-118 1666.75,-118"/>
<text text-anchor="middle" x="1746.75" y="-125" font-family="Helvetica,sans-Serif" font-size="10.00">amr&#45;wind/core/ScratchField.H</text>
</a>
</g>
</g>
<!-- Node31&#45;&gt;Node36 -->
<g id="edge57" class="edge">
<title>Node31&#45;&gt;Node36</title>
<path fill="none" stroke="midnightblue" d="M1942.74,-184.87C1902.44,-173.28 1830.76,-152.66 1786.16,-139.83"/>
<polygon fill="midnightblue" stroke="midnightblue" points="1787.11,-136.46 1776.53,-137.06 1785.17,-143.19 1787.11,-136.46"/>
</g>
<!-- Node32&#45;&gt;Node13 -->
<g id="edge50" class="edge">
<title>Node32&#45;&gt;Node13</title>
<path fill="none" stroke="midnightblue" d="M2417.48,-60.46C2393.94,-59.01 2367.75,-57.42 2343.75,-56 2064.67,-39.46 1994.83,-36.54 1715.75,-20 1688.95,-18.41 1659.39,-16.61 1633.86,-15.04"/>
<polygon fill="midnightblue" stroke="midnightblue" points="1633.75,-11.53 1623.55,-14.41 1633.32,-18.51 1633.75,-11.53"/>
</g>
<!-- Node32&#45;&gt;Node20 -->
<g id="edge49" class="edge">
<title>Node32&#45;&gt;Node20</title>
<path fill="none" stroke="midnightblue" d="M2447.34,-56.44C2399.24,-46.96 2321.66,-31.67 2269.95,-21.48"/>
<polygon fill="midnightblue" stroke="midnightblue" points="2270.45,-18.02 2259.97,-19.52 2269.1,-24.88 2270.45,-18.02"/>
</g>
<!-- Node33 -->
<g id="node33" class="node">
<title>Node33</title>
<g id="a_node33"><a xlink:title=" ">
<polygon fill="white" stroke="#bfbfbf" points="2428.75,-0.5 2428.75,-19.5 2552.75,-19.5 2552.75,-0.5 2428.75,-0.5"/>
<text text-anchor="middle" x="2490.75" y="-7.5" font-family="Helvetica,sans-Serif" font-size="10.00">AMReX_Interpolater.H</text>
</a>
</g>
</g>
<!-- Node32&#45;&gt;Node33 -->
<g id="edge51" class="edge">
<title>Node32&#45;&gt;Node33</title>
<path fill="none" stroke="midnightblue" d="M2490.75,-56.08C2490.75,-49.01 2490.75,-38.86 2490.75,-29.99"/>
<polygon fill="midnightblue" stroke="midnightblue" points="2494.25,-29.75 2490.75,-19.75 2487.25,-29.75 2494.25,-29.75"/>
</g>
<!-- Node34&#45;&gt;Node11 -->
<g id="edge54" class="edge">
<title>Node34&#45;&gt;Node11</title>
<path fill="none" stroke="midnightblue" d="M2122.21,-117.85C2143.4,-104.14 2178.44,-76.83 2159.75,-56 2134.42,-27.76 1871.71,-15.54 1778.96,-12.09"/>
<polygon fill="midnightblue" stroke="midnightblue" points="1778.89,-8.58 1768.77,-11.72 1778.64,-15.58 1778.89,-8.58"/>
</g>
<!-- Node34&#45;&gt;Node20 -->
<g id="edge55" class="edge">
<title>Node34&#45;&gt;Node20</title>
<path fill="none" stroke="midnightblue" d="M2130.93,-117.87C2149.93,-109.73 2176.28,-95.79 2192.75,-76 2203.81,-62.72 2210.01,-43.89 2213.33,-29.91"/>
<polygon fill="midnightblue" stroke="midnightblue" points="2216.79,-30.44 2215.41,-19.94 2209.94,-29.01 2216.79,-30.44"/>
</g>
<!-- Node34&#45;&gt;Node35 -->
<g id="edge56" class="edge">
<title>Node34&#45;&gt;Node35</title>
<path fill="none" stroke="midnightblue" d="M2105.89,-117.98C2104.04,-109.49 2101.13,-96.2 2098.76,-85.32"/>
<polygon fill="midnightblue" stroke="midnightblue" points="2102.17,-84.53 2096.61,-75.51 2095.33,-86.03 2102.17,-84.53"/>
</g>
<!-- Node36&#45;&gt;Node11 -->
<g id="edge58" class="edge">
<title>Node36&#45;&gt;Node11</title>
<path fill="none" stroke="midnightblue" d="M1746.75,-117.82C1746.75,-99.26 1746.75,-55.34 1746.75,-29.97"/>
<polygon fill="midnightblue" stroke="midnightblue" points="1750.25,-29.78 1746.75,-19.78 1743.25,-29.78 1750.25,-29.78"/>
</g>
<!-- Node36&#45;&gt;Node12 -->
<g id="edge62" class="edge">
<title>Node36&#45;&gt;Node12</title>
<path fill="none" stroke="midnightblue" d="M1666.43,-118.19C1600.83,-110.1 1514.44,-96.08 1485.75,-76 1469.62,-64.7 1459.02,-44.4 1453,-29.48"/>
<polygon fill="midnightblue" stroke="midnightblue" points="1456.16,-27.94 1449.41,-19.77 1449.59,-30.37 1456.16,-27.94"/>
</g>
<!-- Node36&#45;&gt;Node13 -->
<g id="edge61" class="edge">
<title>Node36&#45;&gt;Node13</title>
<path fill="none" stroke="midnightblue" d="M1736.28,-117.95C1719.14,-104.15 1683.79,-76.43 1651.75,-56 1633.5,-44.36 1611.99,-32.75 1595.44,-24.24"/>
<polygon fill="midnightblue" stroke="midnightblue" points="1596.83,-21.02 1586.33,-19.61 1593.66,-27.26 1596.83,-21.02"/>
</g>
<!-- Node36&#45;&gt;Node20 -->
<g id="edge59" class="edge">
<title>Node36&#45;&gt;Node20</title>
<path fill="none" stroke="midnightblue" d="M1780.71,-117.95C1833.81,-104.59 1939.75,-78.04 2029.75,-56 2077.78,-44.24 2132.81,-31.03 2170.68,-21.98"/>
<polygon fill="midnightblue" stroke="midnightblue" points="2171.97,-25.27 2180.88,-19.54 2170.34,-18.46 2171.97,-25.27"/>
</g>
<!-- Node36&#45;&gt;Node21 -->
<g id="edge60" class="edge">
<title>Node36&#45;&gt;Node21</title>
<path fill="none" stroke="midnightblue" d="M1721.25,-117.98C1690.45,-107.68 1638.49,-90.31 1603.91,-78.75"/>
<polygon fill="midnightblue" stroke="midnightblue" points="1604.8,-75.36 1594.21,-75.51 1602.58,-82 1604.8,-75.36"/>
</g>
<!-- Node37 -->
<g id="node37" class="node">
<title>Node37</title>
<g id="a_node37"><a xlink:title=" ">
<polygon fill="white" stroke="#bfbfbf" points="1775.25,-56.5 1775.25,-75.5 1906.25,-75.5 1906.25,-56.5 1775.25,-56.5"/>
<text text-anchor="middle" x="1840.75" y="-63.5" font-family="Helvetica,sans-Serif" font-size="10.00">AMReX_PhysBCFunct.H</text>
</a>
</g>
</g>
<!-- Node36&#45;&gt;Node37 -->
<g id="edge63" class="edge">
<title>Node36&#45;&gt;Node37</title>
<path fill="none" stroke="midnightblue" d="M1760.22,-117.98C1775.44,-108.34 1800.44,-92.52 1818.55,-81.05"/>
<polygon fill="midnightblue" stroke="midnightblue" points="1820.73,-83.81 1827.31,-75.51 1816.99,-77.9 1820.73,-83.81"/>
</g>
<!-- Node38&#45;&gt;Node4 -->
<g id="edge69" class="edge">
<title>Node38&#45;&gt;Node4</title>
<path fill="none" stroke="midnightblue" d="M1252.12,-188.52C1147.46,-181.27 955.46,-166.12 792.75,-143 784.62,-141.84 776.04,-140.41 767.69,-138.91"/>
<polygon fill="midnightblue" stroke="midnightblue" points="768.13,-135.43 757.65,-137.04 766.85,-142.31 768.13,-135.43"/>
</g>
<!-- Node38&#45;&gt;Node10 -->
<g id="edge70" class="edge">
<title>Node38&#45;&gt;Node10</title>
<path fill="none" stroke="midnightblue" d="M1252.15,-182.51C1165.07,-170.18 1025.03,-150.35 941.05,-138.46"/>
<polygon fill="midnightblue" stroke="midnightblue" points="941.49,-134.98 931.1,-137.05 940.51,-141.91 941.49,-134.98"/>
</g>
<!-- Node38&#45;&gt;Node11 -->
<g id="edge68" class="edge">
<title>Node38&#45;&gt;Node11</title>
<path fill="none" stroke="midnightblue" d="M1407.56,-191.31C1529.75,-186.94 1760.48,-174.68 1835.75,-143 1878.5,-125.01 1896.13,-118.02 1915.75,-76 1941.12,-21.68 1834.9,-12.22 1779.07,-10.93"/>
<polygon fill="midnightblue" stroke="midnightblue" points="1779.01,-7.43 1768.96,-10.77 1778.9,-14.42 1779.01,-7.43"/>
</g>
<!-- Node38&#45;&gt;Node19 -->
<g id="edge74" class="edge">
<title>Node38&#45;&gt;Node19</title>
<path fill="none" stroke="midnightblue" d="M1329.75,-179.48C1329.75,-156.72 1329.75,-111.7 1329.75,-86.06"/>
<polygon fill="midnightblue" stroke="midnightblue" points="1333.25,-85.79 1329.75,-75.79 1326.25,-85.79 1333.25,-85.79"/>
</g>
<!-- Node38&#45;&gt;Node20 -->
<g id="edge73" class="edge">
<title>Node38&#45;&gt;Node20</title>
<path fill="none" stroke="midnightblue" d="M1407.29,-191.19C1612.2,-184.77 2154.57,-165.73 2185.75,-143 2221.01,-117.31 2221.47,-59.64 2219.03,-29.75"/>
<polygon fill="midnightblue" stroke="midnightblue" points="2222.51,-29.38 2218.02,-19.78 2215.55,-30.09 2222.51,-29.38"/>
</g>
<!-- Node39 -->
<g id="node39" class="node">
<title>Node39</title>
<g id="a_node39"><a xlink:href="_p_d_e_fields_8_h.html" target="_top" xlink:title=" ">
<polygon fill="white" stroke="black" points="2233.25,-112.5 2233.25,-142.5 2388.25,-142.5 2388.25,-112.5 2233.25,-112.5"/>
<text text-anchor="start" x="2241.25" y="-130.5" font-family="Helvetica,sans-Serif" font-size="10.00">amr&#45;wind/equation_systems</text>
<text text-anchor="middle" x="2310.75" y="-119.5" font-family="Helvetica,sans-Serif" font-size="10.00">/PDEFields.H</text>
</a>
</g>
</g>
<!-- Node38&#45;&gt;Node39 -->
<g id="edge71" class="edge">
<title>Node38&#45;&gt;Node39</title>
<path fill="none" stroke="midnightblue" d="M1407.26,-191.69C1561.94,-187.51 1919.78,-174.97 2218.75,-143 2220.06,-142.86 2221.39,-142.71 2222.72,-142.56"/>
<polygon fill="midnightblue" stroke="midnightblue" points="2223.52,-145.99 2233.03,-141.31 2222.68,-139.04 2223.52,-145.99"/>
</g>
<!-- Node40 -->
<g id="node40" class="node">
<title>Node40</title>
<g id="a_node40"><a xlink:title=" ">
<polygon fill="white" stroke="#bfbfbf" points="2286.75,-56.5 2286.75,-75.5 2334.75,-75.5 2334.75,-56.5 2286.75,-56.5"/>
<text text-anchor="middle" x="2310.75" y="-63.5" font-family="Helvetica,sans-Serif" font-size="10.00">iosfwd</text>
</a>
</g>
</g>
<!-- Node39&#45;&gt;Node40 -->
<g id="edge72" class="edge">
<title>Node39&#45;&gt;Node40</title>
<path fill="none" stroke="midnightblue" d="M2310.75,-112.4C2310.75,-104.47 2310.75,-94.46 2310.75,-85.86"/>
<polygon fill="midnightblue" stroke="midnightblue" points="2314.25,-85.66 2310.75,-75.66 2307.25,-85.66 2314.25,-85.66"/>
</g>
</g>
</svg>
        <g id="navigator" transform="translate(0 0)" fill="#404254">
                <rect fill="#f2f5e9" fill-opacity="0.5" stroke="#606060" stroke-width=".5" x="0" y="0" width="60" height="60"/>
                <use id="zoomplus" xlink:href="#zoomPlus" x="17" y="9" onmousedown="handleZoom(evt,'in')"/>
                <use id="zoomminus" xlink:href="#zoomMin" x="42" y="9" onmousedown="handleZoom(evt,'out')"/>
                <use id="reset" xlink:href="#resetDef" x="30" y="36" onmousedown="handleReset()"/>
                <g id="arrowUp" xlink:href="#dirArrow" transform="translate(30 24)" onmousedown="handlePan(0,-1)">
                  <use xlink:href="#rim" fill="#404040">
                        <set attributeName="fill" to="#808080" begin="arrowUp.mouseover" end="arrowUp.mouseout"/>
                  </use>
                  <path fill="none" stroke="white" stroke-width="1.5" d="M0,-3.0v7 M-2.5,-0.5L0,-3.0L2.5,-0.5"/>
                </g>
                <g id="arrowRight" xlink:href="#dirArrow" transform="rotate(90) translate(36 -43)" onmousedown="handlePan(1,0)">
                  <use xlink:href="#rim" fill="#404040">
                        <set attributeName="fill" to="#808080" begin="arrowRight.mouseover" end="arrowRight.mouseout"/>
                  </use>
                  <path fill="none" stroke="white" stroke-width="1.5" d="M0,-3.0v7 M-2.5,-0.5L0,-3.0L2.5,-0.5"/>
                </g>
                <g id="arrowDown" xlink:href="#dirArrow" transform="rotate(180) translate(-30 -48)" onmousedown="handlePan(0,1)">
                  <use xlink:href="#rim" fill="#404040">
                        <set attributeName="fill" to="#808080" begin="arrowDown.mouseover" end="arrowDown.mouseout"/>
                  </use>
                  <path fill="none" stroke="white" stroke-width="1.5" d="M0,-3.0v7 M-2.5,-0.5L0,-3.0L2.5,-0.5"/>
                </g>
                <g id="arrowLeft" xlink:href="#dirArrow" transform="rotate(270) translate(-36 17)" onmousedown="handlePan(-1,0)">
                  <use xlink:href="#rim" fill="#404040">
                        <set attributeName="fill" to="#808080" begin="arrowLeft.mouseover" end="arrowLeft.mouseout"/>
                  </use>
                  <path fill="none" stroke="white" stroke-width="1.5" d="M0,-3.0v7 M-2.5,-0.5L0,-3.0L2.5,-0.5"/>
                </g>
        </g>
        <svg viewBox="0 0 15 15" width="100%" height="30px" preserveAspectRatio="xMaxYMin meet">
         <g id="arrow_out" transform="scale(0.3 0.3)">
          <a xlink:href="_n_w_b_8cpp__incl_org.svg" target="_base">
           <rect id="button" ry="5" rx="5" y="6" x="6" height="38" width="38"
                fill="#f2f5e9" fill-opacity="0.5" stroke="#606060" stroke-width="1.0"/>
           <path id="arrow"
             d="M 11.500037,31.436501 C 11.940474,20.09759 22.043105,11.32322 32.158766,21.979434 L 37.068811,17.246167 C 37.068811,17.246167 37.088388,32 37.088388,32 L 22.160133,31.978069 C 22.160133,31.978069 26.997745,27.140456 26.997745,27.140456 C 18.528582,18.264221 13.291696,25.230495 11.500037,31.436501 z"
             style="fill:#404040;"/>
          </a>
         </g>
        </svg>
</svg>
