<?xml version="1.0" encoding="UTF-8" standalone="no"?>
<!DOCTYPE svg PUBLIC "-//W3C//DTD SVG 1.1//EN"
 "http://www.w3.org/Graphics/SVG/1.1/DTD/svg11.dtd">
<!-- Generated by graphviz version 2.43.0 (0)
 -->
<!-- Title: PDEBase.H Pages: 1 -->
<!--zoomable 252 -->
<svg id="main" version="1.1" xmlns="http://www.w3.org/2000/svg" xmlns:xlink="http://www.w3.org/1999/xlink" xml:space="preserve" onload="init(evt)">
<style type="text/css"><![CDATA[
.edge:hover path { stroke: red; }
.edge:hover polygon { stroke: red; fill: red; }
]]></style>
<script type="text/javascript"><![CDATA[
var edges = document.getElementsByTagName('g');
if (edges && edges.length) {
  for (var i=0;i<edges.length;i++) {
    if (edges[i].id.substr(0,4)=='edge') {
      edges[i].setAttribute('class','edge');
    }
  }
}
]]></script>
        <defs>
                <circle id="rim" cx="0" cy="0" r="7"/>
                <circle id="rim2" cx="0" cy="0" r="3.5"/>
                <g id="zoomPlus">
                        <use xlink:href="#rim" fill="#404040">
                                <set attributeName="fill" to="#808080" begin="zoomplus.mouseover" end="zoomplus.mouseout"/>
                        </use>
                        <path d="M-4,0h8M0,-4v8" fill="none" stroke="white" stroke-width="1.5" pointer-events="none"/>
                </g>
                <g id="zoomMin">
                        <use xlink:href="#rim" fill="#404040">
                                <set attributeName="fill" to="#808080" begin="zoomminus.mouseover" end="zoomminus.mouseout"/>
                        </use>
                        <path d="M-4,0h8" fill="none" stroke="white" stroke-width="1.5" pointer-events="none"/>
                </g>
                <g id="dirArrow">
                        <path fill="none" stroke="white" stroke-width="1.5" d="M0,-3.0v7 M-2.5,-0.5L0,-3.0L2.5,-0.5"/>
                </g>
               <g id="resetDef">
                       <use xlink:href="#rim2" fill="#404040">
                               <set attributeName="fill" to="#808080" begin="reset.mouseover" end="reset.mouseout"/>
                       </use>
               </g>
        </defs>

<script type="text/javascript">
var viewWidth = 4545;
var viewHeight = 252;
var sectionId = 'dynsection-1';
</script>
<script xlink:href="svgpan.js"/>
<svg id="graph" class="graph">
<g id="viewport">
<title>PDEBase.H</title>
<polygon fill="white" stroke="transparent" points="-4,4 -4,-248 4540.5,-248 4540.5,4 -4,4"/>
<!-- Node1 -->
<g id="node1" class="node">
<title>Node1</title>
<g id="a_node1"><a xlink:title=" ">
<polygon fill="#bfbfbf" stroke="black" points="4129,-224.5 4129,-243.5 4200,-243.5 4200,-224.5 4129,-224.5"/>
<text text-anchor="middle" x="4164.5" y="-231.5" font-family="Helvetica,sans-Serif" font-size="10.00">PDEBase.H</text>
</a>
</g>
</g>
<!-- Node2 -->
<g id="node2" class="node">
<title>Node2</title>
<g id="a_node2"><a xlink:href="_c_f_d_sim_8_h.html" target="_top" xlink:title=" ">
<polygon fill="white" stroke="red" points="2390.5,-168.5 2390.5,-187.5 2456.5,-187.5 2456.5,-168.5 2390.5,-168.5"/>
<text text-anchor="middle" x="2423.5" y="-175.5" font-family="Helvetica,sans-Serif" font-size="10.00">CFDSim.H</text>
</a>
</g>
</g>
<!-- Node1&#45;&gt;Node2 -->
<g id="edge1" class="edge">
<title>Node1&#45;&gt;Node2</title>
<path fill="none" stroke="midnightblue" d="M4118.75,-231.58C3868.76,-223.83 2671.27,-186.68 2456.51,-180.02"/>
<polygon fill="midnightblue" stroke="midnightblue" points="4118.83,-235.09 4128.93,-231.9 4119.05,-228.09 4118.83,-235.09"/>
</g>
<!-- Node6 -->
<g id="node5" class="node">
<title>Node6</title>
<g id="a_node5"><a xlink:href="incflo_8cpp.html" target="_top" xlink:title=" ">
<polygon fill="white" stroke="black" points="0,-56.5 0,-75.5 63,-75.5 63,-56.5 0,-56.5"/>
<text text-anchor="middle" x="31.5" y="-63.5" font-family="Helvetica,sans-Serif" font-size="10.00">incflo.cpp</text>
</a>
</g>
</g>
<!-- Node1&#45;&gt;Node6 -->
<g id="edge57" class="edge">
<title>Node1&#45;&gt;Node6</title>
<path fill="none" stroke="midnightblue" d="M4118.65,-233.04C3677.81,-233.32 204.37,-234.12 109.5,-188 62.75,-165.27 40.47,-99.6 33.77,-75.77"/>
<polygon fill="midnightblue" stroke="midnightblue" points="4118.79,-236.54 4128.79,-233.03 4118.79,-229.54 4118.79,-236.54"/>
</g>
<!-- Node7 -->
<g id="node6" class="node">
<title>Node7</title>
<g id="a_node6"><a xlink:href="incflo__advance_8cpp.html" target="_top" xlink:title=" ">
<polygon fill="white" stroke="black" points="110.5,-56.5 110.5,-75.5 220.5,-75.5 220.5,-56.5 110.5,-56.5"/>
<text text-anchor="middle" x="165.5" y="-63.5" font-family="Helvetica,sans-Serif" font-size="10.00">incflo_advance.cpp</text>
</a>
</g>
</g>
<!-- Node1&#45;&gt;Node7 -->
<g id="edge58" class="edge">
<title>Node1&#45;&gt;Node7</title>
<path fill="none" stroke="midnightblue" d="M4118.64,-233.03C3754.14,-233.18 1320.88,-232.46 587.5,-188 358.12,-174.09 226.94,-303.06 73.5,-132 51.17,-107.11 99.72,-86.47 134.42,-75.51"/>
<polygon fill="midnightblue" stroke="midnightblue" points="4118.82,-236.53 4128.82,-233.03 4118.82,-229.53 4118.82,-236.53"/>
</g>
<!-- Node34 -->
<g id="node8" class="node">
<title>Node34</title>
<g id="a_node8"><a xlink:href="_p_d_e_8_h.html" target="_top" xlink:title=" ">
<polygon fill="white" stroke="red" points="3988,-56.5 3988,-75.5 4035,-75.5 4035,-56.5 3988,-56.5"/>
<text text-anchor="middle" x="4011.5" y="-63.5" font-family="Helvetica,sans-Serif" font-size="10.00">PDE.H</text>
</a>
</g>
</g>
<!-- Node1&#45;&gt;Node34 -->
<g id="edge55" class="edge">
<title>Node1&#45;&gt;Node34</title>
<path fill="none" stroke="midnightblue" d="M4174.58,-215.71C4191.04,-186.38 4220.6,-128.45 4207.5,-112 4186.18,-85.24 4082.62,-73.08 4035.24,-68.85"/>
<polygon fill="midnightblue" stroke="midnightblue" points="4171.5,-214.04 4169.58,-224.46 4177.58,-217.51 4171.5,-214.04"/>
</g>
<!-- Node84 -->
<g id="node24" class="node">
<title>Node84</title>
<g id="a_node24"><a xlink:href="_p_d_e_base_8cpp.html" target="_top" xlink:title=" ">
<polygon fill="white" stroke="black" points="82.5,-112.5 82.5,-131.5 162.5,-131.5 162.5,-112.5 82.5,-112.5"/>
<text text-anchor="middle" x="122.5" y="-119.5" font-family="Helvetica,sans-Serif" font-size="10.00">PDEBase.cpp</text>
</a>
</g>
</g>
<!-- Node1&#45;&gt;Node84 -->
<g id="edge56" class="edge">
<title>Node1&#45;&gt;Node84</title>
<path fill="none" stroke="midnightblue" d="M4118.67,-231.85C3915.18,-226.72 3072.93,-205.49 2381.5,-188 1399.28,-163.16 1148.78,-233.5 171.5,-132 168.57,-131.7 165.56,-131.31 162.54,-130.88"/>
<polygon fill="midnightblue" stroke="midnightblue" points="4118.62,-235.34 4128.7,-232.1 4118.8,-228.35 4118.62,-235.34"/>
</g>
<!-- Node101 -->
<g id="node32" class="node">
<title>Node101</title>
<g id="a_node32"><a xlink:href="_tioga_interface_8cpp.html" target="_top" xlink:title=" ">
<polygon fill="white" stroke="black" points="4092,-112.5 4092,-131.5 4199,-131.5 4199,-112.5 4092,-112.5"/>
<text text-anchor="middle" x="4145.5" y="-119.5" font-family="Helvetica,sans-Serif" font-size="10.00">TiogaInterface.cpp</text>
</a>
</g>
</g>
<!-- Node1&#45;&gt;Node101 -->
<g id="edge59" class="edge">
<title>Node1&#45;&gt;Node101</title>
<path fill="none" stroke="midnightblue" d="M4161.28,-214.35C4157.12,-190.25 4150.04,-149.31 4146.98,-131.59"/>
<polygon fill="midnightblue" stroke="midnightblue" points="4157.86,-215.11 4163.01,-224.37 4164.76,-213.92 4157.86,-215.11"/>
</g>
<!-- Node50 -->
<g id="node47" class="node">
<title>Node50</title>
<g id="a_node47"><a xlink:href="_one_eq_ksgs_8cpp.html" target="_top" xlink:title=" ">
<polygon fill="white" stroke="black" points="4211.5,-168.5 4211.5,-187.5 4303.5,-187.5 4303.5,-168.5 4211.5,-168.5"/>
<text text-anchor="middle" x="4257.5" y="-175.5" font-family="Helvetica,sans-Serif" font-size="10.00">OneEqKsgs.cpp</text>
</a>
</g>
</g>
<!-- Node1&#45;&gt;Node50 -->
<g id="edge60" class="edge">
<title>Node1&#45;&gt;Node50</title>
<path fill="none" stroke="midnightblue" d="M4188.31,-219.18C4205.42,-209.24 4227.97,-196.15 4242.6,-187.65"/>
<polygon fill="midnightblue" stroke="midnightblue" points="4186.33,-216.28 4179.44,-224.32 4189.85,-222.33 4186.33,-216.28"/>
</g>
<!-- Node44 -->
<g id="node48" class="node">
<title>Node44</title>
<g id="a_node48"><a xlink:href="_k_omega_s_s_t_i_8_h.html" target="_top" xlink:title=" ">
<polygon fill="white" stroke="black" points="4360,-168.5 4360,-187.5 4449,-187.5 4449,-168.5 4360,-168.5"/>
<text text-anchor="middle" x="4404.5" y="-175.5" font-family="Helvetica,sans-Serif" font-size="10.00">KOmegaSSTI.H</text>
</a>
</g>
</g>
<!-- Node1&#45;&gt;Node44 -->
<g id="edge61" class="edge">
<title>Node1&#45;&gt;Node44</title>
<path fill="none" stroke="midnightblue" d="M4210.04,-222.75C4255.39,-212.55 4324.21,-197.07 4366.65,-187.52"/>
<polygon fill="midnightblue" stroke="midnightblue" points="4209.16,-219.36 4200.17,-224.97 4210.7,-226.19 4209.16,-219.36"/>
</g>
<!-- Node45 -->
<g id="node49" class="node">
<title>Node45</title>
<g id="a_node49"><a xlink:href="_k_omega_s_s_t_8cpp.html" target="_top" xlink:title=" ">
<polygon fill="white" stroke="black" points="4289,-112.5 4289,-131.5 4384,-131.5 4384,-112.5 4289,-112.5"/>
<text text-anchor="middle" x="4336.5" y="-119.5" font-family="Helvetica,sans-Serif" font-size="10.00">KOmegaSST.cpp</text>
</a>
</g>
</g>
<!-- Node1&#45;&gt;Node45 -->
<g id="edge64" class="edge">
<title>Node1&#45;&gt;Node45</title>
<path fill="none" stroke="midnightblue" d="M4210.13,-229.71C4242.45,-225.1 4284.82,-214.1 4312.5,-188 4328.6,-172.81 4333.96,-145.88 4335.69,-131.93"/>
<polygon fill="midnightblue" stroke="midnightblue" points="4209.5,-226.26 4200.02,-230.99 4210.38,-233.21 4209.5,-226.26"/>
</g>
<!-- Node46 -->
<g id="node50" class="node">
<title>Node46</title>
<g id="a_node50"><a xlink:href="_k_omega_s_s_t_i_d_d_e_s_8cpp.html" target="_top" xlink:title=" ">
<polygon fill="white" stroke="black" points="4410.5,-112.5 4410.5,-131.5 4536.5,-131.5 4536.5,-112.5 4410.5,-112.5"/>
<text text-anchor="middle" x="4473.5" y="-119.5" font-family="Helvetica,sans-Serif" font-size="10.00">KOmegaSSTIDDES.cpp</text>
</a>
</g>
</g>
<!-- Node1&#45;&gt;Node46 -->
<g id="edge65" class="edge">
<title>Node1&#45;&gt;Node46</title>
<path fill="none" stroke="midnightblue" d="M4210.41,-232.08C4283.9,-229.63 4423.28,-220.68 4458.5,-188 4474.29,-173.35 4475.05,-145.67 4474.29,-131.64"/>
<polygon fill="midnightblue" stroke="midnightblue" points="4209.96,-228.59 4200.07,-232.39 4210.17,-235.59 4209.96,-228.59"/>
</g>
<!-- Node3 -->
<g id="node3" class="node">
<title>Node3</title>
<g id="a_node3"><a xlink:href="_c_f_d_sim_8cpp.html" target="_top" xlink:title=" ">
<polygon fill="white" stroke="black" points="3659.5,-112.5 3659.5,-131.5 3735.5,-131.5 3735.5,-112.5 3659.5,-112.5"/>
<text text-anchor="middle" x="3697.5" y="-119.5" font-family="Helvetica,sans-Serif" font-size="10.00">CFDSim.cpp</text>
</a>
</g>
</g>
<!-- Node2&#45;&gt;Node3 -->
<g id="edge2" class="edge">
<title>Node2&#45;&gt;Node3</title>
<path fill="none" stroke="midnightblue" d="M2466.89,-176.27C2656.47,-172.97 3413.18,-158.34 3649.5,-132 3652.7,-131.64 3656.01,-131.19 3659.32,-130.69"/>
<polygon fill="midnightblue" stroke="midnightblue" points="2466.69,-172.78 2456.75,-176.45 2466.81,-179.78 2466.69,-172.78"/>
</g>
<!-- Node4 -->
<g id="node4" class="node">
<title>Node4</title>
<g id="a_node4"><a xlink:href="incflo_8_h.html" target="_top" xlink:title=" ">
<polygon fill="white" stroke="red" points="181,-112.5 181,-131.5 234,-131.5 234,-112.5 181,-112.5"/>
<text text-anchor="middle" x="207.5" y="-119.5" font-family="Helvetica,sans-Serif" font-size="10.00">incflo.H</text>
</a>
</g>
</g>
<!-- Node2&#45;&gt;Node4 -->
<g id="edge3" class="edge">
<title>Node2&#45;&gt;Node4</title>
<path fill="none" stroke="midnightblue" d="M2380.18,-176.61C2092.87,-173.98 467.19,-158.01 248.5,-132 243.87,-131.45 238.99,-130.61 234.28,-129.66"/>
<polygon fill="midnightblue" stroke="midnightblue" points="2380.18,-180.11 2390.21,-176.7 2380.24,-173.11 2380.18,-180.11"/>
</g>
<!-- Node17 -->
<g id="node7" class="node">
<title>Node17</title>
<g id="a_node7"><a xlink:href="_p_d_e_ops_8_h.html" target="_top" xlink:title=" ">
<polygon fill="white" stroke="red" points="3823,-112.5 3823,-131.5 3888,-131.5 3888,-112.5 3823,-112.5"/>
<text text-anchor="middle" x="3855.5" y="-119.5" font-family="Helvetica,sans-Serif" font-size="10.00">PDEOps.H</text>
</a>
</g>
</g>
<!-- Node2&#45;&gt;Node17 -->
<g id="edge6" class="edge">
<title>Node2&#45;&gt;Node17</title>
<path fill="none" stroke="midnightblue" d="M2466.61,-176.64C2670.94,-174.79 3543.34,-165.05 3813.5,-132 3816.46,-131.64 3819.52,-131.17 3822.58,-130.64"/>
<polygon fill="midnightblue" stroke="midnightblue" points="2466.53,-173.14 2456.56,-176.73 2466.59,-180.14 2466.53,-173.14"/>
</g>
<!-- Node2&#45;&gt;Node34 -->
<g id="edge8" class="edge">
<title>Node2&#45;&gt;Node34</title>
<path fill="none" stroke="midnightblue" d="M2466.8,-176.55C2717.87,-173.87 3976.64,-159.08 4005.5,-132 4020.87,-117.58 4017.07,-89.8 4013.85,-75.69"/>
<polygon fill="midnightblue" stroke="midnightblue" points="2466.57,-173.06 2456.61,-176.66 2466.65,-180.06 2466.57,-173.06"/>
</g>
<!-- Node56 -->
<g id="node9" class="node">
<title>Node56</title>
<g id="a_node9"><a xlink:href="_a_b_l_forcing_8cpp.html" target="_top" xlink:title=" ">
<polygon fill="white" stroke="black" points="3906,-112.5 3906,-131.5 3997,-131.5 3997,-112.5 3906,-112.5"/>
<text text-anchor="middle" x="3951.5" y="-119.5" font-family="Helvetica,sans-Serif" font-size="10.00">ABLForcing.cpp</text>
</a>
</g>
</g>
<!-- Node2&#45;&gt;Node56 -->
<g id="edge9" class="edge">
<title>Node2&#45;&gt;Node56</title>
<path fill="none" stroke="midnightblue" d="M2466.73,-176.45C2678.56,-173.63 3608.34,-159.86 3896.5,-132 3899.58,-131.7 3902.75,-131.34 3905.94,-130.93"/>
<polygon fill="midnightblue" stroke="midnightblue" points="2466.57,-172.95 2456.62,-176.58 2466.67,-179.95 2466.57,-172.95"/>
</g>
<!-- Node57 -->
<g id="node10" class="node">
<title>Node57</title>
<g id="a_node10"><a xlink:href="_a_b_l_wall_function_8_h.html" target="_top" xlink:title=" ">
<polygon fill="white" stroke="red" points="2465,-56.5 2465,-75.5 2572,-75.5 2572,-56.5 2465,-56.5"/>
<text text-anchor="middle" x="2518.5" y="-63.5" font-family="Helvetica,sans-Serif" font-size="10.00">ABLWallFunction.H</text>
</a>
</g>
</g>
<!-- Node2&#45;&gt;Node57 -->
<g id="edge10" class="edge">
<title>Node2&#45;&gt;Node57</title>
<path fill="none" stroke="midnightblue" d="M2466.72,-171.03C2509.94,-164.06 2572.01,-151.03 2586.5,-132 2603.81,-109.26 2565.68,-87.24 2539.81,-75.57"/>
<polygon fill="midnightblue" stroke="midnightblue" points="2466.06,-167.59 2456.72,-172.58 2467.14,-174.5 2466.06,-167.59"/>
</g>
<!-- Node61 -->
<g id="node11" class="node">
<title>Node61</title>
<g id="a_node11"><a xlink:href="_a_b_l_stats_base_8_h.html" target="_top" xlink:title=" ">
<polygon fill="white" stroke="red" points="3066,-0.5 3066,-19.5 3161,-19.5 3161,-0.5 3066,-0.5"/>
<text text-anchor="middle" x="3113.5" y="-7.5" font-family="Helvetica,sans-Serif" font-size="10.00">ABLStatsBase.H</text>
</a>
</g>
</g>
<!-- Node2&#45;&gt;Node61 -->
<g id="edge16" class="edge">
<title>Node2&#45;&gt;Node61</title>
<path fill="none" stroke="midnightblue" d="M2466.7,-177.18C2715.96,-178.07 3961.44,-180.09 4025.5,-132 4053.26,-111.16 4067.44,-81.13 4043.5,-56 4012.8,-23.78 3346.54,-13.69 3161.05,-11.5"/>
<polygon fill="midnightblue" stroke="midnightblue" points="2466.6,-173.68 2456.59,-177.15 2466.57,-180.68 2466.6,-173.68"/>
</g>
<!-- Node64 -->
<g id="node12" class="node">
<title>Node64</title>
<g id="a_node12"><a xlink:href="_boussinesq_bubble_8cpp.html" target="_top" xlink:title=" ">
<polygon fill="white" stroke="black" points="1860.5,-0.5 1860.5,-19.5 1986.5,-19.5 1986.5,-0.5 1860.5,-0.5"/>
<text text-anchor="middle" x="1923.5" y="-7.5" font-family="Helvetica,sans-Serif" font-size="10.00">BoussinesqBubble.cpp</text>
</a>
</g>
</g>
<!-- Node2&#45;&gt;Node64 -->
<g id="edge35" class="edge">
<title>Node2&#45;&gt;Node64</title>
<path fill="none" stroke="midnightblue" d="M2380.05,-176.5C2077.81,-172.98 300.55,-151.45 281.5,-132 168.04,-16.13 1546.08,-10.61 1860.43,-10.84"/>
<polygon fill="midnightblue" stroke="midnightblue" points="2380.13,-180 2390.17,-176.62 2380.21,-173 2380.13,-180"/>
</g>
<!-- Node65 -->
<g id="node13" class="node">
<title>Node65</title>
<g id="a_node13"><a xlink:href="_field_plane_averaging_8_h.html" target="_top" xlink:title=" ">
<polygon fill="white" stroke="red" points="2451.5,-112.5 2451.5,-131.5 2577.5,-131.5 2577.5,-112.5 2451.5,-112.5"/>
<text text-anchor="middle" x="2514.5" y="-119.5" font-family="Helvetica,sans-Serif" font-size="10.00">FieldPlaneAveraging.H</text>
</a>
</g>
</g>
<!-- Node2&#45;&gt;Node65 -->
<g id="edge13" class="edge">
<title>Node2&#45;&gt;Node65</title>
<path fill="none" stroke="midnightblue" d="M2446.79,-163.18C2463.54,-153.24 2485.6,-140.15 2499.92,-131.65"/>
<polygon fill="midnightblue" stroke="midnightblue" points="2444.93,-160.21 2438.12,-168.32 2448.51,-166.23 2444.93,-160.21"/>
</g>
<!-- Node72 -->
<g id="node14" class="node">
<title>Node72</title>
<g id="a_node14"><a xlink:href="_a_b_l_boundary_plane_8_h.html" target="_top" xlink:title=" ">
<polygon fill="white" stroke="red" points="452,-112.5 452,-131.5 571,-131.5 571,-112.5 452,-112.5"/>
<text text-anchor="middle" x="511.5" y="-119.5" font-family="Helvetica,sans-Serif" font-size="10.00">ABLBoundaryPlane.H</text>
</a>
</g>
</g>
<!-- Node2&#45;&gt;Node72 -->
<g id="edge15" class="edge">
<title>Node2&#45;&gt;Node72</title>
<path fill="none" stroke="midnightblue" d="M2380,-176.56C2137.12,-174.01 946.62,-160.27 580.5,-132 577.49,-131.77 574.41,-131.49 571.3,-131.19"/>
<polygon fill="midnightblue" stroke="midnightblue" points="2380.16,-180.06 2390.2,-176.67 2380.23,-173.06 2380.16,-180.06"/>
</g>
<!-- Node59 -->
<g id="node15" class="node">
<title>Node59</title>
<g id="a_node15"><a xlink:href="_a_b_l_mean_boussinesq_8cpp.html" target="_top" xlink:title=" ">
<polygon fill="white" stroke="black" points="589.5,-112.5 589.5,-131.5 727.5,-131.5 727.5,-112.5 589.5,-112.5"/>
<text text-anchor="middle" x="658.5" y="-119.5" font-family="Helvetica,sans-Serif" font-size="10.00">ABLMeanBoussinesq.cpp</text>
</a>
</g>
</g>
<!-- Node2&#45;&gt;Node59 -->
<g id="edge17" class="edge">
<title>Node2&#45;&gt;Node59</title>
<path fill="none" stroke="midnightblue" d="M2380.16,-177.25C2187.49,-178.06 1389.4,-178.28 736.5,-132 733.64,-131.8 730.73,-131.57 727.79,-131.32"/>
<polygon fill="midnightblue" stroke="midnightblue" points="2380.45,-180.75 2390.44,-177.2 2380.42,-173.75 2380.45,-180.75"/>
</g>
<!-- Node76 -->
<g id="node16" class="node">
<title>Node76</title>
<g id="a_node16"><a xlink:href="_actuator_forcing_8cpp.html" target="_top" xlink:title=" ">
<polygon fill="white" stroke="black" points="746,-112.5 746,-131.5 859,-131.5 859,-112.5 746,-112.5"/>
<text text-anchor="middle" x="802.5" y="-119.5" font-family="Helvetica,sans-Serif" font-size="10.00">ActuatorForcing.cpp</text>
</a>
</g>
</g>
<!-- Node2&#45;&gt;Node76 -->
<g id="edge18" class="edge">
<title>Node2&#45;&gt;Node76</title>
<path fill="none" stroke="midnightblue" d="M2380.37,-176.37C2161.71,-173.11 1174.21,-157.2 868.5,-132 865.5,-131.75 862.43,-131.46 859.34,-131.14"/>
<polygon fill="midnightblue" stroke="midnightblue" points="2380.43,-179.88 2390.48,-176.52 2380.54,-172.88 2380.43,-179.88"/>
</g>
<!-- Node77 -->
<g id="node17" class="node">
<title>Node77</title>
<g id="a_node17"><a xlink:href="_body_force_8cpp.html" target="_top" xlink:title=" ">
<polygon fill="white" stroke="black" points="877.5,-112.5 877.5,-131.5 965.5,-131.5 965.5,-112.5 877.5,-112.5"/>
<text text-anchor="middle" x="921.5" y="-119.5" font-family="Helvetica,sans-Serif" font-size="10.00">BodyForce.cpp</text>
</a>
</g>
</g>
<!-- Node2&#45;&gt;Node77 -->
<g id="edge19" class="edge">
<title>Node2&#45;&gt;Node77</title>
<path fill="none" stroke="midnightblue" d="M2380.29,-176.46C2170.59,-173.71 1257.57,-160.29 974.5,-132 971.62,-131.71 968.66,-131.36 965.69,-130.97"/>
<polygon fill="midnightblue" stroke="midnightblue" points="2380.26,-179.96 2390.3,-176.59 2380.35,-172.96 2380.26,-179.96"/>
</g>
<!-- Node78 -->
<g id="node18" class="node">
<title>Node78</title>
<g id="a_node18"><a xlink:href="_boussinesq_buoyancy_8cpp.html" target="_top" xlink:title=" ">
<polygon fill="white" stroke="black" points="984,-112.5 984,-131.5 1123,-131.5 1123,-112.5 984,-112.5"/>
<text text-anchor="middle" x="1053.5" y="-119.5" font-family="Helvetica,sans-Serif" font-size="10.00">BoussinesqBuoyancy.cpp</text>
</a>
</g>
</g>
<!-- Node2&#45;&gt;Node78 -->
<g id="edge20" class="edge">
<title>Node2&#45;&gt;Node78</title>
<path fill="none" stroke="midnightblue" d="M2379.83,-176.75C2215.73,-175.52 1620.43,-168.66 1131.5,-132 1128.78,-131.8 1126.01,-131.57 1123.21,-131.32"/>
<polygon fill="midnightblue" stroke="midnightblue" points="2379.98,-180.25 2390.01,-176.82 2380.03,-173.25 2379.98,-180.25"/>
</g>
<!-- Node79 -->
<g id="node19" class="node">
<title>Node79</title>
<g id="a_node19"><a xlink:href="_coriolis_forcing_8cpp.html" target="_top" xlink:title=" ">
<polygon fill="white" stroke="black" points="1141,-112.5 1141,-131.5 1250,-131.5 1250,-112.5 1141,-112.5"/>
<text text-anchor="middle" x="1195.5" y="-119.5" font-family="Helvetica,sans-Serif" font-size="10.00">CoriolisForcing.cpp</text>
</a>
</g>
</g>
<!-- Node2&#45;&gt;Node79 -->
<g id="edge21" class="edge">
<title>Node2&#45;&gt;Node79</title>
<path fill="none" stroke="midnightblue" d="M2379.61,-176.94C2225.46,-176.36 1694.54,-171.46 1258.5,-132 1255.75,-131.75 1252.93,-131.46 1250.1,-131.15"/>
<polygon fill="midnightblue" stroke="midnightblue" points="2380.04,-180.44 2390.06,-176.97 2380.07,-173.44 2380.04,-180.44"/>
</g>
<!-- Node80 -->
<g id="node20" class="node">
<title>Node80</title>
<g id="a_node20"><a xlink:href="_density_buoyancy_8cpp.html" target="_top" xlink:title=" ">
<polygon fill="white" stroke="black" points="1268,-112.5 1268,-131.5 1389,-131.5 1389,-112.5 1268,-112.5"/>
<text text-anchor="middle" x="1328.5" y="-119.5" font-family="Helvetica,sans-Serif" font-size="10.00">DensityBuoyancy.cpp</text>
</a>
</g>
</g>
<!-- Node2&#45;&gt;Node80 -->
<g id="edge22" class="edge">
<title>Node2&#45;&gt;Node80</title>
<path fill="none" stroke="midnightblue" d="M2380.2,-176.43C2238.74,-174.29 1777.44,-165.05 1397.5,-132 1394.73,-131.76 1391.9,-131.49 1389.05,-131.2"/>
<polygon fill="midnightblue" stroke="midnightblue" points="2380.17,-179.93 2390.22,-176.58 2380.27,-172.93 2380.17,-179.93"/>
</g>
<!-- Node81 -->
<g id="node21" class="node">
<title>Node81</title>
<g id="a_node21"><a xlink:href="_geostrophic_forcing_8cpp.html" target="_top" xlink:title=" ">
<polygon fill="white" stroke="black" points="1407,-112.5 1407,-131.5 1538,-131.5 1538,-112.5 1407,-112.5"/>
<text text-anchor="middle" x="1472.5" y="-119.5" font-family="Helvetica,sans-Serif" font-size="10.00">GeostrophicForcing.cpp</text>
</a>
</g>
</g>
<!-- Node2&#45;&gt;Node81 -->
<g id="edge23" class="edge">
<title>Node2&#45;&gt;Node81</title>
<path fill="none" stroke="midnightblue" d="M2380.29,-175.82C2252.72,-172.12 1866.64,-159.31 1547.5,-132 1544.49,-131.74 1541.42,-131.46 1538.32,-131.16"/>
<polygon fill="midnightblue" stroke="midnightblue" points="2380.33,-179.33 2390.43,-176.11 2380.53,-172.33 2380.33,-179.33"/>
</g>
<!-- Node82 -->
<g id="node22" class="node">
<title>Node82</title>
<g id="a_node22"><a xlink:href="_gravity_forcing_8cpp.html" target="_top" xlink:title=" ">
<polygon fill="white" stroke="black" points="1556.5,-112.5 1556.5,-131.5 1664.5,-131.5 1664.5,-112.5 1556.5,-112.5"/>
<text text-anchor="middle" x="1610.5" y="-119.5" font-family="Helvetica,sans-Serif" font-size="10.00">GravityForcing.cpp</text>
</a>
</g>
</g>
<!-- Node2&#45;&gt;Node82 -->
<g id="edge24" class="edge">
<title>Node2&#45;&gt;Node82</title>
<path fill="none" stroke="midnightblue" d="M2379.96,-175.64C2264.54,-171.75 1941.25,-159.11 1673.5,-132 1670.64,-131.71 1667.71,-131.39 1664.76,-131.04"/>
<polygon fill="midnightblue" stroke="midnightblue" points="2380.04,-179.14 2390.15,-175.97 2380.28,-172.14 2380.04,-179.14"/>
</g>
<!-- Node83 -->
<g id="node23" class="node">
<title>Node83</title>
<g id="a_node23"><a xlink:href="_synth_turb_forcing_8cpp.html" target="_top" xlink:title=" ">
<polygon fill="white" stroke="black" points="1682.5,-112.5 1682.5,-131.5 1802.5,-131.5 1802.5,-112.5 1682.5,-112.5"/>
<text text-anchor="middle" x="1742.5" y="-119.5" font-family="Helvetica,sans-Serif" font-size="10.00">SynthTurbForcing.cpp</text>
</a>
</g>
</g>
<!-- Node2&#45;&gt;Node83 -->
<g id="edge25" class="edge">
<title>Node2&#45;&gt;Node83</title>
<path fill="none" stroke="midnightblue" d="M2380.23,-174.66C2280.04,-169.05 2024.42,-153.7 1811.5,-132 1808.62,-131.71 1805.67,-131.39 1802.69,-131.05"/>
<polygon fill="midnightblue" stroke="midnightblue" points="2380.09,-178.16 2390.27,-175.22 2380.48,-171.17 2380.09,-178.16"/>
</g>
<!-- Node2&#45;&gt;Node84 -->
<g id="edge26" class="edge">
<title>Node2&#45;&gt;Node84</title>
<path fill="none" stroke="midnightblue" d="M2380.06,-176.56C2086.59,-173.49 398.73,-154.99 171.5,-132 168.57,-131.7 165.56,-131.33 162.54,-130.9"/>
<polygon fill="midnightblue" stroke="midnightblue" points="2380.26,-180.06 2390.3,-176.66 2380.33,-173.06 2380.26,-180.06"/>
</g>
<!-- Node85 -->
<g id="node25" class="node">
<title>Node85</title>
<g id="a_node25"><a xlink:href="_s_d_r_src_8cpp.html" target="_top" xlink:title=" ">
<polygon fill="white" stroke="black" points="1820.5,-112.5 1820.5,-131.5 1892.5,-131.5 1892.5,-112.5 1820.5,-112.5"/>
<text text-anchor="middle" x="1856.5" y="-119.5" font-family="Helvetica,sans-Serif" font-size="10.00">SDRSrc.cpp</text>
</a>
</g>
</g>
<!-- Node2&#45;&gt;Node85 -->
<g id="edge27" class="edge">
<title>Node2&#45;&gt;Node85</title>
<path fill="none" stroke="midnightblue" d="M2380.32,-174.91C2290.72,-170.21 2078.2,-157.21 1901.5,-132 1898.66,-131.59 1895.73,-131.13 1892.79,-130.62"/>
<polygon fill="midnightblue" stroke="midnightblue" points="2380.21,-178.41 2390.38,-175.43 2380.57,-171.42 2380.21,-178.41"/>
</g>
<!-- Node86 -->
<g id="node26" class="node">
<title>Node86</title>
<g id="a_node26"><a xlink:href="_ksgs_m84_src_8cpp.html" target="_top" xlink:title=" ">
<polygon fill="white" stroke="black" points="1910.5,-112.5 1910.5,-131.5 2006.5,-131.5 2006.5,-112.5 1910.5,-112.5"/>
<text text-anchor="middle" x="1958.5" y="-119.5" font-family="Helvetica,sans-Serif" font-size="10.00">KsgsM84Src.cpp</text>
</a>
</g>
</g>
<!-- Node2&#45;&gt;Node86 -->
<g id="edge28" class="edge">
<title>Node2&#45;&gt;Node86</title>
<path fill="none" stroke="midnightblue" d="M2379.98,-172.87C2305.29,-165.64 2147.95,-149.75 2015.5,-132 2012.62,-131.61 2009.66,-131.2 2006.68,-130.77"/>
<polygon fill="midnightblue" stroke="midnightblue" points="2380.09,-176.4 2390.38,-173.88 2380.76,-169.43 2380.09,-176.4"/>
</g>
<!-- Node87 -->
<g id="node27" class="node">
<title>Node87</title>
<g id="a_node27"><a xlink:href="_kw_s_s_t_src_8cpp.html" target="_top" xlink:title=" ">
<polygon fill="white" stroke="black" points="2025,-112.5 2025,-131.5 2110,-131.5 2110,-112.5 2025,-112.5"/>
<text text-anchor="middle" x="2067.5" y="-119.5" font-family="Helvetica,sans-Serif" font-size="10.00">KwSSTSrc.cpp</text>
</a>
</g>
</g>
<!-- Node2&#45;&gt;Node87 -->
<g id="edge29" class="edge">
<title>Node2&#45;&gt;Node87</title>
<path fill="none" stroke="midnightblue" d="M2380.09,-170.91C2321.06,-162.56 2212.18,-146.88 2119.5,-132 2116.42,-131.51 2113.25,-130.98 2110.05,-130.45"/>
<polygon fill="midnightblue" stroke="midnightblue" points="2379.78,-174.4 2390.17,-172.34 2380.76,-167.47 2379.78,-174.4"/>
</g>
<!-- Node88 -->
<g id="node28" class="node">
<title>Node88</title>
<g id="a_node28"><a xlink:href="_i_b_ops_8_h.html" target="_top" xlink:title=" ">
<polygon fill="white" stroke="red" points="2128.5,-112.5 2128.5,-131.5 2184.5,-131.5 2184.5,-112.5 2128.5,-112.5"/>
<text text-anchor="middle" x="2156.5" y="-119.5" font-family="Helvetica,sans-Serif" font-size="10.00">IBOps.H</text>
</a>
</g>
</g>
<!-- Node2&#45;&gt;Node88 -->
<g id="edge30" class="edge">
<title>Node2&#45;&gt;Node88</title>
<path fill="none" stroke="midnightblue" d="M2380.24,-168.53C2334.91,-159.61 2261.65,-145.08 2198.5,-132 2193.97,-131.06 2189.17,-130.05 2184.5,-129.06"/>
<polygon fill="midnightblue" stroke="midnightblue" points="2379.82,-172.01 2390.3,-170.51 2381.17,-165.15 2379.82,-172.01"/>
</g>
<!-- Node99 -->
<g id="node29" class="node">
<title>Node99</title>
<g id="a_node29"><a xlink:href="_convecting_taylor_vortex_8_h.html" target="_top" xlink:title=" ">
<polygon fill="white" stroke="red" points="291,-112.5 291,-131.5 434,-131.5 434,-112.5 291,-112.5"/>
<text text-anchor="middle" x="362.5" y="-119.5" font-family="Helvetica,sans-Serif" font-size="10.00">ConvectingTaylorVortex.H</text>
</a>
</g>
</g>
<!-- Node2&#45;&gt;Node99 -->
<g id="edge31" class="edge">
<title>Node2&#45;&gt;Node99</title>
<path fill="none" stroke="midnightblue" d="M2380.03,-176.54C2126.64,-173.79 837.97,-158.68 442.5,-132 439.71,-131.81 436.87,-131.6 434,-131.36"/>
<polygon fill="midnightblue" stroke="midnightblue" points="2380.26,-180.04 2390.3,-176.65 2380.34,-173.04 2380.26,-180.04"/>
</g>
<!-- Node100 -->
<g id="node30" class="node">
<title>Node100</title>
<g id="a_node30"><a xlink:href="_convecting_taylor_vortex_8cpp.html" target="_top" xlink:title=" ">
<polygon fill="white" stroke="black" points="1234.5,-56.5 1234.5,-75.5 1386.5,-75.5 1386.5,-56.5 1234.5,-56.5"/>
<text text-anchor="middle" x="1310.5" y="-63.5" font-family="Helvetica,sans-Serif" font-size="10.00">ConvectingTaylorVortex.cpp</text>
</a>
</g>
</g>
<!-- Node2&#45;&gt;Node100 -->
<g id="edge39" class="edge">
<title>Node2&#45;&gt;Node100</title>
<path fill="none" stroke="midnightblue" d="M2380.39,-170.14C2340.86,-163.09 2281.11,-150.52 2231.5,-132 2213.62,-125.32 2211.91,-117.05 2193.5,-112 2042.6,-70.61 1572.02,-66.61 1386.65,-66.69"/>
<polygon fill="midnightblue" stroke="midnightblue" points="2380.03,-173.63 2390.48,-171.89 2381.23,-166.73 2380.03,-173.63"/>
</g>
<!-- Node98 -->
<g id="node31" class="node">
<title>Node98</title>
<g id="a_node31"><a xlink:href="_i_b_8cpp.html" target="_top" xlink:title=" ">
<polygon fill="white" stroke="black" points="2348,-112.5 2348,-131.5 2395,-131.5 2395,-112.5 2348,-112.5"/>
<text text-anchor="middle" x="2371.5" y="-119.5" font-family="Helvetica,sans-Serif" font-size="10.00">IB.cpp</text>
</a>
</g>
</g>
<!-- Node2&#45;&gt;Node98 -->
<g id="edge33" class="edge">
<title>Node2&#45;&gt;Node98</title>
<path fill="none" stroke="midnightblue" d="M2407.82,-160.72C2398.66,-151.2 2387.45,-139.56 2379.93,-131.75"/>
<polygon fill="midnightblue" stroke="midnightblue" points="2405.46,-163.31 2414.91,-168.08 2410.5,-158.45 2405.46,-163.31"/>
</g>
<!-- Node2&#45;&gt;Node101 -->
<g id="edge34" class="edge">
<title>Node2&#45;&gt;Node101</title>
<path fill="none" stroke="midnightblue" d="M2466.8,-176.44C2694.06,-173.38 3751.05,-157.97 4077.5,-132 4082.13,-131.63 4086.93,-131.17 4091.73,-130.64"/>
<polygon fill="midnightblue" stroke="midnightblue" points="2466.56,-172.94 2456.61,-176.57 2466.66,-179.94 2466.56,-172.94"/>
</g>
<!-- Node102 -->
<g id="node33" class="node">
<title>Node102</title>
<g id="a_node33"><a xlink:href="_channel_flow_8_h.html" target="_top" xlink:title=" ">
<polygon fill="white" stroke="black" points="2241,-112.5 2241,-131.5 2330,-131.5 2330,-112.5 2241,-112.5"/>
<text text-anchor="middle" x="2285.5" y="-119.5" font-family="Helvetica,sans-Serif" font-size="10.00">ChannelFlow.H</text>
</a>
</g>
</g>
<!-- Node2&#45;&gt;Node102 -->
<g id="edge36" class="edge">
<title>Node2&#45;&gt;Node102</title>
<path fill="none" stroke="midnightblue" d="M2392.25,-164.77C2366.33,-154.63 2330.14,-140.47 2307.26,-131.52"/>
<polygon fill="midnightblue" stroke="midnightblue" points="2391.05,-168.06 2401.63,-168.44 2393.6,-161.54 2391.05,-168.06"/>
</g>
<!-- Node103 -->
<g id="node34" class="node">
<title>Node103</title>
<g id="a_node34"><a xlink:href="_channel_flow_8cpp.html" target="_top" xlink:title=" ">
<polygon fill="white" stroke="black" points="2292,-56.5 2292,-75.5 2391,-75.5 2391,-56.5 2292,-56.5"/>
<text text-anchor="middle" x="2341.5" y="-63.5" font-family="Helvetica,sans-Serif" font-size="10.00">ChannelFlow.cpp</text>
</a>
</g>
</g>
<!-- Node2&#45;&gt;Node103 -->
<g id="edge38" class="edge">
<title>Node2&#45;&gt;Node103</title>
<path fill="none" stroke="midnightblue" d="M2420.95,-157.98C2418.35,-144.19 2413.26,-125.66 2403.5,-112 2391.97,-95.88 2372.86,-83.28 2358.9,-75.56"/>
<polygon fill="midnightblue" stroke="midnightblue" points="2417.55,-158.91 2422.59,-168.23 2424.46,-157.8 2417.55,-158.91"/>
</g>
<!-- Node104 -->
<g id="node35" class="node">
<title>Node104</title>
<g id="a_node35"><a xlink:href="_ekman_spiral_8_h.html" target="_top" xlink:title=" ">
<polygon fill="white" stroke="black" points="2783,-112.5 2783,-131.5 2872,-131.5 2872,-112.5 2783,-112.5"/>
<text text-anchor="middle" x="2827.5" y="-119.5" font-family="Helvetica,sans-Serif" font-size="10.00">EkmanSpiral.H</text>
</a>
</g>
</g>
<!-- Node2&#45;&gt;Node104 -->
<g id="edge40" class="edge">
<title>Node2&#45;&gt;Node104</title>
<path fill="none" stroke="midnightblue" d="M2466.92,-171.94C2533.15,-164.12 2663.33,-148.26 2773.5,-132 2776.51,-131.56 2779.61,-131.08 2782.73,-130.59"/>
<polygon fill="midnightblue" stroke="midnightblue" points="2466.38,-168.48 2456.86,-173.13 2467.2,-175.44 2466.38,-168.48"/>
</g>
<!-- Node105 -->
<g id="node36" class="node">
<title>Node105</title>
<g id="a_node36"><a xlink:href="_ekman_spiral_8cpp.html" target="_top" xlink:title=" ">
<polygon fill="white" stroke="black" points="2655.5,-56.5 2655.5,-75.5 2753.5,-75.5 2753.5,-56.5 2655.5,-56.5"/>
<text text-anchor="middle" x="2704.5" y="-63.5" font-family="Helvetica,sans-Serif" font-size="10.00">EkmanSpiral.cpp</text>
</a>
</g>
</g>
<!-- Node2&#45;&gt;Node105 -->
<g id="edge42" class="edge">
<title>Node2&#45;&gt;Node105</title>
<path fill="none" stroke="midnightblue" d="M2466.77,-170.29C2504.06,-163.55 2558.78,-151.35 2603.5,-132 2638.9,-116.68 2675.88,-89.56 2693.67,-75.69"/>
<polygon fill="midnightblue" stroke="midnightblue" points="2465.98,-166.87 2456.74,-172.04 2467.19,-173.76 2465.98,-166.87"/>
</g>
<!-- Node106 -->
<g id="node37" class="node">
<title>Node106</title>
<g id="a_node37"><a xlink:href="_free_stream_8cpp.html" target="_top" xlink:title=" ">
<polygon fill="white" stroke="black" points="2672,-112.5 2672,-131.5 2765,-131.5 2765,-112.5 2672,-112.5"/>
<text text-anchor="middle" x="2718.5" y="-119.5" font-family="Helvetica,sans-Serif" font-size="10.00">FreeStream.cpp</text>
</a>
</g>
</g>
<!-- Node2&#45;&gt;Node106 -->
<g id="edge43" class="edge">
<title>Node2&#45;&gt;Node106</title>
<path fill="none" stroke="midnightblue" d="M2466.86,-169.06C2521.71,-159.02 2615.78,-141.8 2672.06,-131.5"/>
<polygon fill="midnightblue" stroke="midnightblue" points="2465.97,-165.67 2456.77,-170.91 2467.23,-172.55 2465.97,-165.67"/>
</g>
<!-- Node107 -->
<g id="node38" class="node">
<title>Node107</title>
<g id="a_node38"><a xlink:href="_hybrid_r_a_n_s_l_e_s_a_b_l_8_h.html" target="_top" xlink:title=" ">
<polygon fill="white" stroke="black" points="2929,-112.5 2929,-131.5 3052,-131.5 3052,-112.5 2929,-112.5"/>
<text text-anchor="middle" x="2990.5" y="-119.5" font-family="Helvetica,sans-Serif" font-size="10.00">HybridRANSLESABL.H</text>
</a>
</g>
</g>
<!-- Node2&#45;&gt;Node107 -->
<g id="edge44" class="edge">
<title>Node2&#45;&gt;Node107</title>
<path fill="none" stroke="midnightblue" d="M2466.69,-173.43C2552.22,-166.27 2749.21,-149.36 2914.5,-132 2919.12,-131.51 2923.91,-130.99 2928.71,-130.46"/>
<polygon fill="midnightblue" stroke="midnightblue" points="2466.25,-169.95 2456.57,-174.27 2466.83,-176.93 2466.25,-169.95"/>
</g>
<!-- Node108 -->
<g id="node39" class="node">
<title>Node108</title>
<g id="a_node39"><a xlink:href="_hybrid_r_a_n_s_l_e_s_a_b_l_8cpp.html" target="_top" xlink:title=" ">
<polygon fill="white" stroke="black" points="2866,-56.5 2866,-75.5 2999,-75.5 2999,-56.5 2866,-56.5"/>
<text text-anchor="middle" x="2932.5" y="-63.5" font-family="Helvetica,sans-Serif" font-size="10.00">HybridRANSLESABL.cpp</text>
</a>
</g>
</g>
<!-- Node2&#45;&gt;Node108 -->
<g id="edge46" class="edge">
<title>Node2&#45;&gt;Node108</title>
<path fill="none" stroke="midnightblue" d="M2466.69,-176.96C2566.45,-176.21 2809.77,-170.37 2880.5,-132 2904.38,-119.04 2921.23,-90.06 2928.5,-75.58"/>
<polygon fill="midnightblue" stroke="midnightblue" points="2466.63,-173.46 2456.65,-177.02 2466.67,-180.46 2466.63,-173.46"/>
</g>
<!-- Node109 -->
<g id="node40" class="node">
<title>Node109</title>
<g id="a_node40"><a xlink:href="_m_m_s_8_h.html" target="_top" xlink:title=" ">
<polygon fill="white" stroke="black" points="3754,-112.5 3754,-131.5 3805,-131.5 3805,-112.5 3754,-112.5"/>
<text text-anchor="middle" x="3779.5" y="-119.5" font-family="Helvetica,sans-Serif" font-size="10.00">MMS.H</text>
</a>
</g>
</g>
<!-- Node2&#45;&gt;Node109 -->
<g id="edge47" class="edge">
<title>Node2&#45;&gt;Node109</title>
<path fill="none" stroke="midnightblue" d="M2466.72,-176.79C2665.07,-175.64 3489.42,-168.69 3744.5,-132 3747.48,-131.57 3750.57,-130.99 3753.63,-130.32"/>
<polygon fill="midnightblue" stroke="midnightblue" points="2466.66,-173.29 2456.68,-176.85 2466.7,-180.29 2466.66,-173.29"/>
</g>
<!-- Node110 -->
<g id="node41" class="node">
<title>Node110</title>
<g id="a_node41"><a xlink:href="_m_m_s_8cpp.html" target="_top" xlink:title=" ">
<polygon fill="white" stroke="black" points="3399,-56.5 3399,-75.5 3460,-75.5 3460,-56.5 3399,-56.5"/>
<text text-anchor="middle" x="3429.5" y="-63.5" font-family="Helvetica,sans-Serif" font-size="10.00">MMS.cpp</text>
</a>
</g>
</g>
<!-- Node2&#45;&gt;Node110 -->
<g id="edge49" class="edge">
<title>Node2&#45;&gt;Node110</title>
<path fill="none" stroke="midnightblue" d="M2467.16,-176.19C2591.96,-173.52 2948.44,-163.28 3060.5,-132 3079.26,-126.76 3080.92,-117.84 3099.5,-112 3205.96,-78.52 3339.46,-69.95 3398.72,-67.75"/>
<polygon fill="midnightblue" stroke="midnightblue" points="2466.77,-172.7 2456.85,-176.41 2466.92,-179.7 2466.77,-172.7"/>
</g>
<!-- Node111 -->
<g id="node42" class="node">
<title>Node111</title>
<g id="a_node42"><a xlink:href="_m_m_s_forcing_8cpp.html" target="_top" xlink:title=" ">
<polygon fill="white" stroke="black" points="3108.5,-112.5 3108.5,-131.5 3204.5,-131.5 3204.5,-112.5 3108.5,-112.5"/>
<text text-anchor="middle" x="3156.5" y="-119.5" font-family="Helvetica,sans-Serif" font-size="10.00">MMSForcing.cpp</text>
</a>
</g>
</g>
<!-- Node2&#45;&gt;Node111 -->
<g id="edge50" class="edge">
<title>Node2&#45;&gt;Node111</title>
<path fill="none" stroke="midnightblue" d="M2466.82,-175.26C2573.66,-170.7 2858.26,-157.03 3094.5,-132 3099.04,-131.52 3103.76,-130.95 3108.48,-130.34"/>
<polygon fill="midnightblue" stroke="midnightblue" points="2466.59,-171.76 2456.74,-175.68 2466.88,-178.76 2466.59,-171.76"/>
</g>
<!-- Node112 -->
<g id="node43" class="node">
<title>Node112</title>
<g id="a_node43"><a xlink:href="_dam_break_8cpp.html" target="_top" xlink:title=" ">
<polygon fill="white" stroke="black" points="3223,-112.5 3223,-131.5 3312,-131.5 3312,-112.5 3223,-112.5"/>
<text text-anchor="middle" x="3267.5" y="-119.5" font-family="Helvetica,sans-Serif" font-size="10.00">DamBreak.cpp</text>
</a>
</g>
</g>
<!-- Node2&#45;&gt;Node112 -->
<g id="edge51" class="edge">
<title>Node2&#45;&gt;Node112</title>
<path fill="none" stroke="midnightblue" d="M2466.92,-176.18C2586.38,-173.55 2929.89,-163.62 3213.5,-132 3216.52,-131.66 3219.63,-131.27 3222.76,-130.84"/>
<polygon fill="midnightblue" stroke="midnightblue" points="2466.64,-172.68 2456.72,-176.39 2466.79,-179.68 2466.64,-172.68"/>
</g>
<!-- Node32 -->
<g id="node44" class="node">
<title>Node32</title>
<g id="a_node44"><a xlink:href="_multi_phase_8cpp.html" target="_top" xlink:title=" ">
<polygon fill="white" stroke="black" points="3330,-112.5 3330,-131.5 3421,-131.5 3421,-112.5 3330,-112.5"/>
<text text-anchor="middle" x="3375.5" y="-119.5" font-family="Helvetica,sans-Serif" font-size="10.00">MultiPhase.cpp</text>
</a>
</g>
</g>
<!-- Node2&#45;&gt;Node32 -->
<g id="edge52" class="edge">
<title>Node2&#45;&gt;Node32</title>
<path fill="none" stroke="midnightblue" d="M2466.91,-176.54C2596.79,-174.81 2993.62,-166.83 3320.5,-132 3323.58,-131.67 3326.75,-131.29 3329.93,-130.86"/>
<polygon fill="midnightblue" stroke="midnightblue" points="2466.55,-173.05 2456.59,-176.68 2466.64,-180.05 2466.55,-173.05"/>
</g>
<!-- Node113 -->
<g id="node45" class="node">
<title>Node113</title>
<g id="a_node45"><a xlink:href="_rain_drop_8cpp.html" target="_top" xlink:title=" ">
<polygon fill="white" stroke="black" points="3439.5,-112.5 3439.5,-131.5 3521.5,-131.5 3521.5,-112.5 3439.5,-112.5"/>
<text text-anchor="middle" x="3480.5" y="-119.5" font-family="Helvetica,sans-Serif" font-size="10.00">RainDrop.cpp</text>
</a>
</g>
</g>
<!-- Node2&#45;&gt;Node113 -->
<g id="edge53" class="edge">
<title>Node2&#45;&gt;Node113</title>
<path fill="none" stroke="midnightblue" d="M2466.92,-177.07C2606.87,-176.86 3058.59,-172.85 3429.5,-132 3432.72,-131.65 3436.04,-131.21 3439.37,-130.73"/>
<polygon fill="midnightblue" stroke="midnightblue" points="2466.62,-173.57 2456.62,-177.08 2466.62,-180.57 2466.62,-173.57"/>
</g>
<!-- Node114 -->
<g id="node46" class="node">
<title>Node114</title>
<g id="a_node46"><a xlink:href="_sloshing_tank_8cpp.html" target="_top" xlink:title=" ">
<polygon fill="white" stroke="black" points="3540,-112.5 3540,-131.5 3641,-131.5 3641,-112.5 3540,-112.5"/>
<text text-anchor="middle" x="3590.5" y="-119.5" font-family="Helvetica,sans-Serif" font-size="10.00">SloshingTank.cpp</text>
</a>
</g>
</g>
<!-- Node2&#45;&gt;Node114 -->
<g id="edge54" class="edge">
<title>Node2&#45;&gt;Node114</title>
<path fill="none" stroke="midnightblue" d="M2466.71,-176.92C2615.14,-176.3 3117.71,-171.23 3530.5,-132 3533.54,-131.71 3536.66,-131.37 3539.81,-131"/>
<polygon fill="midnightblue" stroke="midnightblue" points="2466.63,-173.42 2456.64,-176.96 2466.66,-180.42 2466.63,-173.42"/>
</g>
<!-- Node4&#45;&gt;Node6 -->
<g id="edge4" class="edge">
<title>Node4&#45;&gt;Node6</title>
<path fill="none" stroke="midnightblue" d="M170.99,-109.8C137.8,-99.61 89.53,-84.81 59.36,-75.55"/>
<polygon fill="midnightblue" stroke="midnightblue" points="170.18,-113.21 180.77,-112.8 172.24,-106.52 170.18,-113.21"/>
</g>
<!-- Node4&#45;&gt;Node7 -->
<g id="edge5" class="edge">
<title>Node4&#45;&gt;Node7</title>
<path fill="none" stroke="midnightblue" d="M194.39,-104.14C187.07,-94.74 178.26,-83.4 172.31,-75.75"/>
<polygon fill="midnightblue" stroke="midnightblue" points="191.66,-106.34 200.56,-112.08 197.19,-102.04 191.66,-106.34"/>
</g>
<!-- Node17&#45;&gt;Node34 -->
<g id="edge7" class="edge">
<title>Node17&#45;&gt;Node34</title>
<path fill="none" stroke="midnightblue" d="M3889.79,-109.13C3919.54,-98.83 3961.83,-84.19 3987.92,-75.16"/>
<polygon fill="midnightblue" stroke="midnightblue" points="3888.52,-105.86 3880.22,-112.44 3890.81,-112.48 3888.52,-105.86"/>
</g>
<!-- Node57&#45;&gt;Node61 -->
<g id="edge11" class="edge">
<title>Node57&#45;&gt;Node61</title>
<path fill="none" stroke="midnightblue" d="M2582.23,-59.22C2702.33,-48.32 2959.63,-24.96 3065.99,-15.31"/>
<polygon fill="midnightblue" stroke="midnightblue" points="2581.73,-55.75 2572.09,-60.14 2582.36,-62.72 2581.73,-55.75"/>
</g>
<!-- Node57&#45;&gt;Node64 -->
<g id="edge12" class="edge">
<title>Node57&#45;&gt;Node64</title>
<path fill="none" stroke="midnightblue" d="M2454.89,-59.23C2340.36,-48.83 2100.78,-27.09 1986.61,-16.73"/>
<polygon fill="midnightblue" stroke="midnightblue" points="2454.64,-62.72 2464.91,-60.14 2455.27,-55.75 2454.64,-62.72"/>
</g>
<!-- Node65&#45;&gt;Node57 -->
<g id="edge14" class="edge">
<title>Node65&#45;&gt;Node57</title>
<path fill="none" stroke="midnightblue" d="M2515.9,-102.1C2516.56,-93.14 2517.33,-82.86 2517.85,-75.75"/>
<polygon fill="midnightblue" stroke="midnightblue" points="2512.41,-101.85 2515.16,-112.08 2519.39,-102.37 2512.41,-101.85"/>
</g>
<!-- Node99&#45;&gt;Node100 -->
<g id="edge32" class="edge">
<title>Node99&#45;&gt;Node100</title>
<path fill="none" stroke="midnightblue" d="M444.15,-111.91C742.44,-87.71 1084.89,-74.46 1234.35,-69.41"/>
<polygon fill="midnightblue" stroke="midnightblue" points="443.69,-108.44 434.01,-112.74 444.26,-115.41 443.69,-108.44"/>
</g>
<!-- Node102&#45;&gt;Node103 -->
<g id="edge37" class="edge">
<title>Node102&#45;&gt;Node103</title>
<path fill="none" stroke="midnightblue" d="M2301.83,-105.25C2311.76,-95.67 2324.09,-83.79 2332.34,-75.83"/>
<polygon fill="midnightblue" stroke="midnightblue" points="2299.27,-102.86 2294.5,-112.32 2304.13,-107.9 2299.27,-102.86"/>
</g>
<!-- Node104&#45;&gt;Node105 -->
<g id="edge41" class="edge">
<title>Node104&#45;&gt;Node105</title>
<path fill="none" stroke="midnightblue" d="M2798.73,-108.37C2775.69,-98.26 2744.02,-84.35 2723.9,-75.52"/>
<polygon fill="midnightblue" stroke="midnightblue" points="2797.45,-111.63 2808.01,-112.44 2800.26,-105.22 2797.45,-111.63"/>
</g>
<!-- Node107&#45;&gt;Node108 -->
<g id="edge45" class="edge">
<title>Node107&#45;&gt;Node108</title>
<path fill="none" stroke="midnightblue" d="M2973.59,-105.25C2963.3,-95.67 2950.53,-83.79 2941.99,-75.83"/>
<polygon fill="midnightblue" stroke="midnightblue" points="2971.48,-108.07 2981.18,-112.32 2976.25,-102.95 2971.48,-108.07"/>
</g>
<!-- Node109&#45;&gt;Node110 -->
<g id="edge48" class="edge">
<title>Node109&#45;&gt;Node110</title>
<path fill="none" stroke="midnightblue" d="M3744.01,-112.11C3633.79,-90.5 3514.95,-76.29 3460.1,-70.24"/>
<polygon fill="midnightblue" stroke="midnightblue" points="3743.47,-115.57 3753.96,-114.09 3744.83,-108.71 3743.47,-115.57"/>
</g>
<!-- Node44&#45;&gt;Node45 -->
<g id="edge62" class="edge">
<title>Node44&#45;&gt;Node45</title>
<path fill="none" stroke="midnightblue" d="M4385.74,-162.1C4373.5,-152.38 4357.94,-140.03 4347.62,-131.83"/>
<polygon fill="midnightblue" stroke="midnightblue" points="4383.57,-164.85 4393.57,-168.32 4387.92,-159.36 4383.57,-164.85"/>
</g>
<!-- Node44&#45;&gt;Node46 -->
<g id="edge63" class="edge">
<title>Node44&#45;&gt;Node46</title>
<path fill="none" stroke="midnightblue" d="M4423.54,-162.1C4435.96,-152.38 4451.74,-140.03 4462.21,-131.83"/>
<polygon fill="midnightblue" stroke="midnightblue" points="4421.3,-159.4 4415.59,-168.32 4425.62,-164.92 4421.3,-159.4"/>
</g>
</g>
</svg>
        <g id="navigator" transform="translate(0 0)" fill="#404254">
                <rect fill="#f2f5e9" fill-opacity="0.5" stroke="#606060" stroke-width=".5" x="0" y="0" width="60" height="60"/>
                <use id="zoomplus" xlink:href="#zoomPlus" x="17" y="9" onmousedown="handleZoom(evt,'in')"/>
                <use id="zoomminus" xlink:href="#zoomMin" x="42" y="9" onmousedown="handleZoom(evt,'out')"/>
                <use id="reset" xlink:href="#resetDef" x="30" y="36" onmousedown="handleReset()"/>
                <g id="arrowUp" xlink:href="#dirArrow" transform="translate(30 24)" onmousedown="handlePan(0,-1)">
                  <use xlink:href="#rim" fill="#404040">
                        <set attributeName="fill" to="#808080" begin="arrowUp.mouseover" end="arrowUp.mouseout"/>
                  </use>
                  <path fill="none" stroke="white" stroke-width="1.5" d="M0,-3.0v7 M-2.5,-0.5L0,-3.0L2.5,-0.5"/>
                </g>
                <g id="arrowRight" xlink:href="#dirArrow" transform="rotate(90) translate(36 -43)" onmousedown="handlePan(1,0)">
                  <use xlink:href="#rim" fill="#404040">
                        <set attributeName="fill" to="#808080" begin="arrowRight.mouseover" end="arrowRight.mouseout"/>
                  </use>
                  <path fill="none" stroke="white" stroke-width="1.5" d="M0,-3.0v7 M-2.5,-0.5L0,-3.0L2.5,-0.5"/>
                </g>
                <g id="arrowDown" xlink:href="#dirArrow" transform="rotate(180) translate(-30 -48)" onmousedown="handlePan(0,1)">
                  <use xlink:href="#rim" fill="#404040">
                        <set attributeName="fill" to="#808080" begin="arrowDown.mouseover" end="arrowDown.mouseout"/>
                  </use>
                  <path fill="none" stroke="white" stroke-width="1.5" d="M0,-3.0v7 M-2.5,-0.5L0,-3.0L2.5,-0.5"/>
                </g>
                <g id="arrowLeft" xlink:href="#dirArrow" transform="rotate(270) translate(-36 17)" onmousedown="handlePan(-1,0)">
                  <use xlink:href="#rim" fill="#404040">
                        <set attributeName="fill" to="#808080" begin="arrowLeft.mouseover" end="arrowLeft.mouseout"/>
                  </use>
                  <path fill="none" stroke="white" stroke-width="1.5" d="M0,-3.0v7 M-2.5,-0.5L0,-3.0L2.5,-0.5"/>
                </g>
        </g>
        <svg viewBox="0 0 15 15" width="100%" height="30px" preserveAspectRatio="xMaxYMin meet">
         <g id="arrow_out" transform="scale(0.3 0.3)">
          <a xlink:href="_p_d_e_base_8_h__dep__incl_org.svg" target="_base">
           <rect id="button" ry="5" rx="5" y="6" x="6" height="38" width="38"
                fill="#f2f5e9" fill-opacity="0.5" stroke="#606060" stroke-width="1.0"/>
           <path id="arrow"
             d="M 11.500037,31.436501 C 11.940474,20.09759 22.043105,11.32322 32.158766,21.979434 L 37.068811,17.246167 C 37.068811,17.246167 37.088388,32 37.088388,32 L 22.160133,31.978069 C 22.160133,31.978069 26.997745,27.140456 26.997745,27.140456 C 18.528582,18.264221 13.291696,25.230495 11.500037,31.436501 z"
             style="fill:#404040;"/>
          </a>
         </g>
        </svg>
</svg>
