<?xml version="1.0" encoding="UTF-8" standalone="no"?>
<!DOCTYPE svg PUBLIC "-//W3C//DTD SVG 1.1//EN"
 "http://www.w3.org/Graphics/SVG/1.1/DTD/svg11.dtd">
<!-- Generated by graphviz version 2.43.0 (0)
 -->
<!-- Title: RayleighTaylor.cpp Pages: 1 -->
<svg width="2679pt" height="341pt"
 viewBox="0.00 0.00 2678.98 341.00" xmlns="http://www.w3.org/2000/svg" xmlns:xlink="http://www.w3.org/1999/xlink">
<g id="graph0" class="graph" transform="scale(1 1) rotate(0) translate(4 337)">
<title>RayleighTaylor.cpp</title>
<polygon fill="white" stroke="transparent" points="-4,4 -4,-337 2674.98,-337 2674.98,4 -4,4"/>
<!-- Node1 -->
<g id="node1" class="node">
<title>Node1</title>
<g id="a_node1"><a xlink:title=" ">
<polygon fill="#bfbfbf" stroke="black" points="724.78,-313.5 724.78,-332.5 832.78,-332.5 832.78,-313.5 724.78,-313.5"/>
<text text-anchor="middle" x="778.78" y="-320.5" font-family="Helvetica,sans-Serif" font-size="10.00">RayleighTaylor.cpp</text>
</a>
</g>
</g>
<!-- Node2 -->
<g id="node2" class="node">
<title>Node2</title>
<g id="a_node2"><a xlink:title=" ">
<polygon fill="white" stroke="#bfbfbf" points="800.78,-56.5 800.78,-75.5 858.78,-75.5 858.78,-56.5 800.78,-56.5"/>
<text text-anchor="middle" x="829.78" y="-63.5" font-family="Helvetica,sans-Serif" font-size="10.00">memory</text>
</a>
</g>
</g>
<!-- Node1&#45;&gt;Node2 -->
<g id="edge1" class="edge">
<title>Node1&#45;&gt;Node2</title>
<path fill="none" stroke="midnightblue" d="M787.24,-313.19C794.85,-304.67 805.6,-291.03 810.78,-277 835.52,-210.1 833.61,-123.39 831.29,-85.77"/>
<polygon fill="midnightblue" stroke="midnightblue" points="834.77,-85.48 830.58,-75.75 827.79,-85.97 834.77,-85.48"/>
</g>
<!-- Node3 -->
<g id="node3" class="node">
<title>Node3</title>
<g id="a_node3"><a xlink:href="_rayleigh_taylor_8_h.html" target="_top" xlink:title=" ">
<polygon fill="white" stroke="black" points="653.28,-246.5 653.28,-276.5 802.28,-276.5 802.28,-246.5 653.28,-246.5"/>
<text text-anchor="start" x="661.28" y="-264.5" font-family="Helvetica,sans-Serif" font-size="10.00">amr&#45;wind/physics/Rayleigh</text>
<text text-anchor="middle" x="727.78" y="-253.5" font-family="Helvetica,sans-Serif" font-size="10.00">Taylor.H</text>
</a>
</g>
</g>
<!-- Node1&#45;&gt;Node3 -->
<g id="edge2" class="edge">
<title>Node1&#45;&gt;Node3</title>
<path fill="none" stroke="midnightblue" d="M771.48,-313.48C764.96,-305.87 755.13,-294.4 746.44,-284.26"/>
<polygon fill="midnightblue" stroke="midnightblue" points="748.97,-281.84 739.8,-276.52 743.66,-286.39 748.97,-281.84"/>
</g>
<!-- Node15 -->
<g id="node15" class="node">
<title>Node15</title>
<g id="a_node15"><a xlink:href="_rayleigh_taylor_field_init_8_h.html" target="_top" xlink:title=" ">
<polygon fill="white" stroke="black" points="283.28,-179.5 283.28,-209.5 432.28,-209.5 432.28,-179.5 283.28,-179.5"/>
<text text-anchor="start" x="291.28" y="-197.5" font-family="Helvetica,sans-Serif" font-size="10.00">amr&#45;wind/physics/Rayleigh</text>
<text text-anchor="middle" x="357.78" y="-186.5" font-family="Helvetica,sans-Serif" font-size="10.00">TaylorFieldInit.H</text>
</a>
</g>
</g>
<!-- Node1&#45;&gt;Node15 -->
<g id="edge41" class="edge">
<title>Node1&#45;&gt;Node15</title>
<path fill="none" stroke="midnightblue" d="M750.18,-313.4C681.25,-292.69 504.98,-239.73 414,-212.39"/>
<polygon fill="midnightblue" stroke="midnightblue" points="414.99,-209.03 404.4,-209.51 412.97,-215.74 414.99,-209.03"/>
</g>
<!-- Node27 -->
<g id="node27" class="node">
<title>Node27</title>
<g id="a_node27"><a xlink:href="_c_f_d_sim_8_h.html" target="_top" xlink:title=" ">
<polygon fill="white" stroke="black" points="1223.78,-252 1223.78,-271 1339.78,-271 1339.78,-252 1223.78,-252"/>
<text text-anchor="middle" x="1281.78" y="-259" font-family="Helvetica,sans-Serif" font-size="10.00">amr&#45;wind/CFDSim.H</text>
</a>
</g>
</g>
<!-- Node1&#45;&gt;Node27 -->
<g id="edge42" class="edge">
<title>Node1&#45;&gt;Node27</title>
<path fill="none" stroke="midnightblue" d="M833.09,-315.58C925.31,-304.67 1112.34,-282.54 1213.36,-270.59"/>
<polygon fill="midnightblue" stroke="midnightblue" points="1213.94,-274.05 1223.46,-269.4 1213.11,-267.1 1213.94,-274.05"/>
</g>
<!-- Node3&#45;&gt;Node2 -->
<g id="edge3" class="edge">
<title>Node3&#45;&gt;Node2</title>
<path fill="none" stroke="midnightblue" d="M685.03,-246.41C617.71,-222.06 499.46,-169.17 548.78,-112 582.63,-72.77 722.87,-84.86 790.22,-75.86"/>
<polygon fill="midnightblue" stroke="midnightblue" points="791.06,-79.27 800.38,-74.23 789.95,-72.36 791.06,-79.27"/>
</g>
<!-- Node4 -->
<g id="node4" class="node">
<title>Node4</title>
<g id="a_node4"><a xlink:href="_physics_8_h.html" target="_top" xlink:title=" ">
<polygon fill="white" stroke="black" points="858.28,-185 858.28,-204 995.28,-204 995.28,-185 858.28,-185"/>
<text text-anchor="middle" x="926.78" y="-192" font-family="Helvetica,sans-Serif" font-size="10.00">amr&#45;wind/core/Physics.H</text>
</a>
</g>
</g>
<!-- Node3&#45;&gt;Node4 -->
<g id="edge4" class="edge">
<title>Node3&#45;&gt;Node4</title>
<path fill="none" stroke="midnightblue" d="M770.97,-246.4C806.81,-234.69 857.19,-218.23 890.86,-207.23"/>
<polygon fill="midnightblue" stroke="midnightblue" points="892.32,-210.44 900.74,-204.01 890.15,-203.78 892.32,-210.44"/>
</g>
<!-- Node3&#45;&gt;Node15 -->
<g id="edge18" class="edge">
<title>Node3&#45;&gt;Node15</title>
<path fill="none" stroke="midnightblue" d="M652.91,-247.35C591.98,-236.64 505.98,-221.53 442.53,-210.39"/>
<polygon fill="midnightblue" stroke="midnightblue" points="443,-206.92 432.55,-208.63 441.79,-213.81 443,-206.92"/>
</g>
<!-- Node21 -->
<g id="node21" class="node">
<title>Node21</title>
<g id="a_node21"><a xlink:href="_field_8_h.html" target="_top" xlink:title=" ">
<polygon fill="white" stroke="black" points="1549.78,-118 1549.78,-137 1673.78,-137 1673.78,-118 1549.78,-118"/>
<text text-anchor="middle" x="1611.78" y="-125" font-family="Helvetica,sans-Serif" font-size="10.00">amr&#45;wind/core/Field.H</text>
</a>
</g>
</g>
<!-- Node3&#45;&gt;Node21 -->
<g id="edge26" class="edge">
<title>Node3&#45;&gt;Node21</title>
<path fill="none" stroke="midnightblue" d="M802.32,-257.58C900.79,-252.68 1079.25,-240.18 1228.78,-210 1274.81,-200.71 1284.15,-190.05 1329.78,-179 1401.5,-161.64 1484.79,-147.44 1542.16,-138.57"/>
<polygon fill="midnightblue" stroke="midnightblue" points="1542.85,-142.01 1552.21,-137.03 1541.79,-135.09 1542.85,-142.01"/>
</g>
<!-- Node5 -->
<g id="node5" class="node">
<title>Node5</title>
<g id="a_node5"><a xlink:href="_factory_8_h.html" target="_top" xlink:title=" ">
<polygon fill="white" stroke="black" points="667.78,-118 667.78,-137 801.78,-137 801.78,-118 667.78,-118"/>
<text text-anchor="middle" x="734.78" y="-125" font-family="Helvetica,sans-Serif" font-size="10.00">amr&#45;wind/core/Factory.H</text>
</a>
</g>
</g>
<!-- Node4&#45;&gt;Node5 -->
<g id="edge5" class="edge">
<title>Node4&#45;&gt;Node5</title>
<path fill="none" stroke="midnightblue" d="M901.29,-184.87C867.48,-173.42 807.69,-153.18 769.71,-140.32"/>
<polygon fill="midnightblue" stroke="midnightblue" points="770.68,-136.96 760.08,-137.06 768.43,-143.59 770.68,-136.96"/>
</g>
<!-- Node10 -->
<g id="node10" class="node">
<title>Node10</title>
<g id="a_node10"><a xlink:href="_coll_mgr_8_h.html" target="_top" xlink:title=" ">
<polygon fill="white" stroke="black" points="1048.28,-118 1048.28,-137 1185.28,-137 1185.28,-118 1048.28,-118"/>
<text text-anchor="middle" x="1116.78" y="-125" font-family="Helvetica,sans-Serif" font-size="10.00">amr&#45;wind/core/CollMgr.H</text>
</a>
</g>
</g>
<!-- Node4&#45;&gt;Node10 -->
<g id="edge11" class="edge">
<title>Node4&#45;&gt;Node10</title>
<path fill="none" stroke="midnightblue" d="M952.02,-184.87C985.47,-173.42 1044.64,-153.18 1082.23,-140.32"/>
<polygon fill="midnightblue" stroke="midnightblue" points="1083.42,-143.61 1091.75,-137.06 1081.16,-136.99 1083.42,-143.61"/>
</g>
<!-- Node13 -->
<g id="node13" class="node">
<title>Node13</title>
<g id="a_node13"><a xlink:title=" ">
<polygon fill="white" stroke="#bfbfbf" points="1673.28,-0.5 1673.28,-19.5 1782.28,-19.5 1782.28,-0.5 1673.28,-0.5"/>
<text text-anchor="middle" x="1727.78" y="-7.5" font-family="Helvetica,sans-Serif" font-size="10.00">AMReX_MultiFab.H</text>
</a>
</g>
</g>
<!-- Node4&#45;&gt;Node13 -->
<g id="edge16" class="edge">
<title>Node4&#45;&gt;Node13</title>
<path fill="none" stroke="midnightblue" d="M916.65,-184.8C900.05,-169.47 870.48,-136.93 886.78,-112 920.77,-60.03 954.44,-70.62 1014.78,-56 1136.74,-26.45 1511.37,-15.5 1663.04,-12.21"/>
<polygon fill="midnightblue" stroke="midnightblue" points="1663.21,-15.7 1673.13,-11.99 1663.06,-8.71 1663.21,-15.7"/>
</g>
<!-- Node14 -->
<g id="node14" class="node">
<title>Node14</title>
<g id="a_node14"><a xlink:title=" ">
<polygon fill="white" stroke="#bfbfbf" points="386.28,-118 386.28,-137 501.28,-137 501.28,-118 386.28,-118"/>
<text text-anchor="middle" x="443.78" y="-125" font-family="Helvetica,sans-Serif" font-size="10.00">AMReX_Geometry.H</text>
</a>
</g>
</g>
<!-- Node4&#45;&gt;Node14 -->
<g id="edge17" class="edge">
<title>Node4&#45;&gt;Node14</title>
<path fill="none" stroke="midnightblue" d="M862.23,-184.96C786.97,-174.99 658.84,-157.95 548.78,-143 536.82,-141.37 524.09,-139.63 511.77,-137.93"/>
<polygon fill="midnightblue" stroke="midnightblue" points="511.93,-134.42 501.55,-136.52 510.97,-141.36 511.93,-134.42"/>
</g>
<!-- Node5&#45;&gt;Node2 -->
<g id="edge6" class="edge">
<title>Node5&#45;&gt;Node2</title>
<path fill="none" stroke="midnightblue" d="M748.4,-117.98C763.85,-108.3 789.27,-92.37 807.6,-80.89"/>
<polygon fill="midnightblue" stroke="midnightblue" points="809.58,-83.78 816.2,-75.51 805.87,-77.85 809.58,-83.78"/>
</g>
<!-- Node6 -->
<g id="node6" class="node">
<title>Node6</title>
<g id="a_node6"><a xlink:title=" ">
<polygon fill="white" stroke="#bfbfbf" points="1034.28,-56.5 1034.28,-75.5 1127.28,-75.5 1127.28,-56.5 1034.28,-56.5"/>
<text text-anchor="middle" x="1080.78" y="-63.5" font-family="Helvetica,sans-Serif" font-size="10.00">unordered_map</text>
</a>
</g>
</g>
<!-- Node5&#45;&gt;Node6 -->
<g id="edge7" class="edge">
<title>Node5&#45;&gt;Node6</title>
<path fill="none" stroke="midnightblue" d="M784.36,-117.98C847.81,-107.06 957.48,-88.2 1024.16,-76.74"/>
<polygon fill="midnightblue" stroke="midnightblue" points="1024.81,-80.18 1034.07,-75.03 1023.63,-73.28 1024.81,-80.18"/>
</g>
<!-- Node7 -->
<g id="node7" class="node">
<title>Node7</title>
<g id="a_node7"><a xlink:title=" ">
<polygon fill="white" stroke="#bfbfbf" points="722.78,-56.5 722.78,-75.5 782.78,-75.5 782.78,-56.5 722.78,-56.5"/>
<text text-anchor="middle" x="752.78" y="-63.5" font-family="Helvetica,sans-Serif" font-size="10.00">iostream</text>
</a>
</g>
</g>
<!-- Node5&#45;&gt;Node7 -->
<g id="edge8" class="edge">
<title>Node5&#45;&gt;Node7</title>
<path fill="none" stroke="midnightblue" d="M737.36,-117.98C739.93,-109.49 743.95,-96.2 747.24,-85.32"/>
<polygon fill="midnightblue" stroke="midnightblue" points="750.67,-86.09 750.21,-75.51 743.97,-84.07 750.67,-86.09"/>
</g>
<!-- Node8 -->
<g id="node8" class="node">
<title>Node8</title>
<g id="a_node8"><a xlink:title=" ">
<polygon fill="white" stroke="#bfbfbf" points="428.78,-56.5 428.78,-75.5 518.78,-75.5 518.78,-56.5 428.78,-56.5"/>
<text text-anchor="middle" x="473.78" y="-63.5" font-family="Helvetica,sans-Serif" font-size="10.00">AMReX_Print.H</text>
</a>
</g>
</g>
<!-- Node5&#45;&gt;Node8 -->
<g id="edge9" class="edge">
<title>Node5&#45;&gt;Node8</title>
<path fill="none" stroke="midnightblue" d="M697.39,-117.98C650.97,-107.39 571.76,-89.34 521.14,-77.8"/>
<polygon fill="midnightblue" stroke="midnightblue" points="521.64,-74.32 511.11,-75.51 520.08,-81.14 521.64,-74.32"/>
</g>
<!-- Node9 -->
<g id="node9" class="node">
<title>Node9</title>
<g id="a_node9"><a xlink:title=" ">
<polygon fill="white" stroke="#bfbfbf" points="642.78,-56.5 642.78,-75.5 704.78,-75.5 704.78,-56.5 642.78,-56.5"/>
<text text-anchor="middle" x="673.78" y="-63.5" font-family="Helvetica,sans-Serif" font-size="10.00">AMReX.H</text>
</a>
</g>
</g>
<!-- Node5&#45;&gt;Node9 -->
<g id="edge10" class="edge">
<title>Node5&#45;&gt;Node9</title>
<path fill="none" stroke="midnightblue" d="M726.05,-117.98C716.62,-108.78 701.42,-93.96 689.84,-82.66"/>
<polygon fill="midnightblue" stroke="midnightblue" points="692.11,-79.99 682.51,-75.51 687.22,-85 692.11,-79.99"/>
</g>
<!-- Node10&#45;&gt;Node2 -->
<g id="edge13" class="edge">
<title>Node10&#45;&gt;Node2</title>
<path fill="none" stroke="midnightblue" d="M1075.33,-117.95C1026.78,-107.93 943.94,-90.81 872.78,-76 871.52,-75.74 870.24,-75.47 868.95,-75.2"/>
<polygon fill="midnightblue" stroke="midnightblue" points="869.43,-71.73 858.93,-73.11 868,-78.58 869.43,-71.73"/>
</g>
<!-- Node10&#45;&gt;Node6 -->
<g id="edge14" class="edge">
<title>Node10&#45;&gt;Node6</title>
<path fill="none" stroke="midnightblue" d="M1111.63,-117.98C1106.33,-109.23 1097.95,-95.37 1091.26,-84.31"/>
<polygon fill="midnightblue" stroke="midnightblue" points="1094.1,-82.25 1085.93,-75.51 1088.12,-85.88 1094.1,-82.25"/>
</g>
<!-- Node11 -->
<g id="node11" class="node">
<title>Node11</title>
<g id="a_node11"><a xlink:title=" ">
<polygon fill="white" stroke="#bfbfbf" points="1877.78,-0.5 1877.78,-19.5 1921.78,-19.5 1921.78,-0.5 1877.78,-0.5"/>
<text text-anchor="middle" x="1899.78" y="-7.5" font-family="Helvetica,sans-Serif" font-size="10.00">string</text>
</a>
</g>
</g>
<!-- Node10&#45;&gt;Node11 -->
<g id="edge12" class="edge">
<title>Node10&#45;&gt;Node11</title>
<path fill="none" stroke="midnightblue" d="M1089.46,-117.92C1054.52,-105.63 1001.3,-81.67 1025.78,-56 1055.19,-25.18 1749.27,-22.77 1791.78,-20 1817.16,-18.35 1845.85,-15.93 1867.28,-14.02"/>
<polygon fill="midnightblue" stroke="midnightblue" points="1867.82,-17.48 1877.46,-13.1 1867.19,-10.51 1867.82,-17.48"/>
</g>
<!-- Node12 -->
<g id="node12" class="node">
<title>Node12</title>
<g id="a_node12"><a xlink:title=" ">
<polygon fill="white" stroke="#bfbfbf" points="1162.78,-0.5 1162.78,-19.5 1260.78,-19.5 1260.78,-0.5 1162.78,-0.5"/>
<text text-anchor="middle" x="1211.78" y="-7.5" font-family="Helvetica,sans-Serif" font-size="10.00">AMReX_Vector.H</text>
</a>
</g>
</g>
<!-- Node10&#45;&gt;Node12 -->
<g id="edge15" class="edge">
<title>Node10&#45;&gt;Node12</title>
<path fill="none" stroke="midnightblue" d="M1069.95,-117.99C1024.52,-107.69 965.95,-87.66 991.78,-56 1011.73,-31.57 1094.33,-20.04 1152.43,-14.87"/>
<polygon fill="midnightblue" stroke="midnightblue" points="1152.94,-18.34 1162.61,-14.01 1152.35,-11.37 1152.94,-18.34"/>
</g>
<!-- Node15&#45;&gt;Node12 -->
<g id="edge24" class="edge">
<title>Node15&#45;&gt;Node12</title>
<path fill="none" stroke="midnightblue" d="M283.22,-193.73C190.98,-192.24 41.81,-183.42 6.78,-143 -2.24,-132.59 -2.28,-122.38 6.78,-112 82.83,-24.95 919.9,-12.93 1152.27,-11.27"/>
<polygon fill="midnightblue" stroke="midnightblue" points="1152.57,-14.76 1162.55,-11.2 1152.52,-7.76 1152.57,-14.76"/>
</g>
<!-- Node15&#45;&gt;Node14 -->
<g id="edge22" class="edge">
<title>Node15&#45;&gt;Node14</title>
<path fill="none" stroke="midnightblue" d="M376.45,-179.4C390.52,-168.76 409.78,-154.2 424.1,-143.38"/>
<polygon fill="midnightblue" stroke="midnightblue" points="426.41,-146.02 432.28,-137.19 422.19,-140.43 426.41,-146.02"/>
</g>
<!-- Node16 -->
<g id="node16" class="node">
<title>Node16</title>
<g id="a_node16"><a xlink:title=" ">
<polygon fill="white" stroke="#bfbfbf" points="119.78,-118 119.78,-137 211.78,-137 211.78,-118 119.78,-118"/>
<text text-anchor="middle" x="165.78" y="-125" font-family="Helvetica,sans-Serif" font-size="10.00">AMReX_Array.H</text>
</a>
</g>
</g>
<!-- Node15&#45;&gt;Node16 -->
<g id="edge19" class="edge">
<title>Node15&#45;&gt;Node16</title>
<path fill="none" stroke="midnightblue" d="M316.12,-179.4C281.54,-167.69 232.93,-151.23 200.44,-140.23"/>
<polygon fill="midnightblue" stroke="midnightblue" points="201.51,-136.9 190.91,-137.01 199.26,-143.53 201.51,-136.9"/>
</g>
<!-- Node17 -->
<g id="node17" class="node">
<title>Node17</title>
<g id="a_node17"><a xlink:title=" ">
<polygon fill="white" stroke="#bfbfbf" points="229.78,-118 229.78,-137 329.78,-137 329.78,-118 229.78,-118"/>
<text text-anchor="middle" x="279.78" y="-125" font-family="Helvetica,sans-Serif" font-size="10.00">AMReX_Array4.H</text>
</a>
</g>
</g>
<!-- Node15&#45;&gt;Node17 -->
<g id="edge20" class="edge">
<title>Node15&#45;&gt;Node17</title>
<path fill="none" stroke="midnightblue" d="M340.86,-179.4C328.22,-168.86 310.96,-154.48 298.01,-143.69"/>
<polygon fill="midnightblue" stroke="midnightblue" points="300.14,-140.91 290.22,-137.19 295.66,-146.29 300.14,-140.91"/>
</g>
<!-- Node18 -->
<g id="node18" class="node">
<title>Node18</title>
<g id="a_node18"><a xlink:title=" ">
<polygon fill="white" stroke="#bfbfbf" points="15.78,-118 15.78,-137 101.78,-137 101.78,-118 15.78,-118"/>
<text text-anchor="middle" x="58.78" y="-125" font-family="Helvetica,sans-Serif" font-size="10.00">AMReX_Box.H</text>
</a>
</g>
</g>
<!-- Node15&#45;&gt;Node18 -->
<g id="edge21" class="edge">
<title>Node15&#45;&gt;Node18</title>
<path fill="none" stroke="midnightblue" d="M283.17,-179.66C234.01,-170.2 168.33,-156.89 110.78,-143 106.63,-142 102.31,-140.89 98.02,-139.75"/>
<polygon fill="midnightblue" stroke="midnightblue" points="98.68,-136.31 88.12,-137.07 96.85,-143.07 98.68,-136.31"/>
</g>
<!-- Node19 -->
<g id="node19" class="node">
<title>Node19</title>
<g id="a_node19"><a xlink:title=" ">
<polygon fill="white" stroke="#bfbfbf" points="557.78,-118 557.78,-137 649.78,-137 649.78,-118 557.78,-118"/>
<text text-anchor="middle" x="603.78" y="-125" font-family="Helvetica,sans-Serif" font-size="10.00">AMReX_REAL.H</text>
</a>
</g>
</g>
<!-- Node15&#45;&gt;Node19 -->
<g id="edge23" class="edge">
<title>Node15&#45;&gt;Node19</title>
<path fill="none" stroke="midnightblue" d="M410.86,-179.48C456.01,-167.55 519.98,-150.64 561.67,-139.63"/>
<polygon fill="midnightblue" stroke="midnightblue" points="562.73,-142.97 571.51,-137.03 560.94,-136.2 562.73,-142.97"/>
</g>
<!-- Node20 -->
<g id="node20" class="node">
<title>Node20</title>
<g id="a_node20"><a xlink:title=" ">
<polygon fill="white" stroke="#bfbfbf" points="537.28,-56.5 537.28,-75.5 624.28,-75.5 624.28,-56.5 537.28,-56.5"/>
<text text-anchor="middle" x="580.78" y="-63.5" font-family="Helvetica,sans-Serif" font-size="10.00">AMReX_Gpu.H</text>
</a>
</g>
</g>
<!-- Node15&#45;&gt;Node20 -->
<g id="edge25" class="edge">
<title>Node15&#45;&gt;Node20</title>
<path fill="none" stroke="midnightblue" d="M356.85,-179.24C356.49,-161.03 358.8,-129.77 376.78,-112 382.21,-106.64 468.64,-88.88 527.24,-77.34"/>
<polygon fill="midnightblue" stroke="midnightblue" points="527.97,-80.77 537.11,-75.41 526.62,-73.9 527.97,-80.77"/>
</g>
<!-- Node21&#45;&gt;Node2 -->
<g id="edge28" class="edge">
<title>Node21&#45;&gt;Node2</title>
<path fill="none" stroke="midnightblue" d="M1553.04,-117.97C1536.78,-115.8 1519.12,-113.63 1502.78,-112 1262.55,-88.02 972.76,-73.48 869.05,-68.73"/>
<polygon fill="midnightblue" stroke="midnightblue" points="869.18,-65.23 859.03,-68.27 868.86,-72.22 869.18,-65.23"/>
</g>
<!-- Node21&#45;&gt;Node6 -->
<g id="edge29" class="edge">
<title>Node21&#45;&gt;Node6</title>
<path fill="none" stroke="midnightblue" d="M1570.89,-117.93C1559.56,-115.77 1547.23,-113.6 1535.78,-112 1362.64,-87.73 1315.16,-97.76 1137.44,-75.99"/>
<polygon fill="midnightblue" stroke="midnightblue" points="1137.86,-72.52 1127.5,-74.76 1136.99,-79.46 1137.86,-72.52"/>
</g>
<!-- Node21&#45;&gt;Node11 -->
<g id="edge27" class="edge">
<title>Node21&#45;&gt;Node11</title>
<path fill="none" stroke="midnightblue" d="M1561.42,-117.91C1513.11,-107.59 1451.39,-87.6 1479.78,-56 1486.28,-48.77 1770.19,-22.64 1867.47,-13.88"/>
<polygon fill="midnightblue" stroke="midnightblue" points="1867.96,-17.36 1877.6,-12.97 1867.33,-10.38 1867.96,-17.36"/>
</g>
<!-- Node21&#45;&gt;Node13 -->
<g id="edge31" class="edge">
<title>Node21&#45;&gt;Node13</title>
<path fill="none" stroke="midnightblue" d="M1567.2,-117.97C1495.04,-104.11 1360.45,-78.03 1358.78,-76 1353.15,-69.13 1352.89,-62.65 1358.78,-56 1378.59,-33.64 1562.75,-20.08 1663.18,-14.29"/>
<polygon fill="midnightblue" stroke="midnightblue" points="1663.43,-17.79 1673.22,-13.73 1663.03,-10.8 1663.43,-17.79"/>
</g>
<!-- Node21&#45;&gt;Node20 -->
<g id="edge33" class="edge">
<title>Node21&#45;&gt;Node20</title>
<path fill="none" stroke="midnightblue" d="M1555.32,-118C1538.46,-115.72 1519.9,-113.49 1502.78,-112 1120.98,-78.77 1019.94,-115.8 634.43,-75.91"/>
<polygon fill="midnightblue" stroke="midnightblue" points="634.71,-72.42 624.4,-74.86 633.98,-79.38 634.71,-72.42"/>
</g>
<!-- Node22 -->
<g id="node22" class="node">
<title>Node22</title>
<g id="a_node22"><a xlink:title=" ">
<polygon fill="white" stroke="#bfbfbf" points="1367.78,-56.5 1367.78,-75.5 1431.78,-75.5 1431.78,-56.5 1367.78,-56.5"/>
<text text-anchor="middle" x="1399.78" y="-63.5" font-family="Helvetica,sans-Serif" font-size="10.00">algorithm</text>
</a>
</g>
</g>
<!-- Node21&#45;&gt;Node22 -->
<g id="edge30" class="edge">
<title>Node21&#45;&gt;Node22</title>
<path fill="none" stroke="midnightblue" d="M1581.41,-117.98C1544.18,-107.53 1480.98,-89.79 1439.81,-78.23"/>
<polygon fill="midnightblue" stroke="midnightblue" points="1440.68,-74.84 1430.1,-75.51 1438.79,-81.58 1440.68,-74.84"/>
</g>
<!-- Node23 -->
<g id="node23" class="node">
<title>Node23</title>
<g id="a_node23"><a xlink:title=" ">
<polygon fill="white" stroke="#bfbfbf" points="1212.28,-56.5 1212.28,-75.5 1311.28,-75.5 1311.28,-56.5 1212.28,-56.5"/>
<text text-anchor="middle" x="1261.78" y="-63.5" font-family="Helvetica,sans-Serif" font-size="10.00">AMReX_BCRec.H</text>
</a>
</g>
</g>
<!-- Node21&#45;&gt;Node23 -->
<g id="edge32" class="edge">
<title>Node21&#45;&gt;Node23</title>
<path fill="none" stroke="midnightblue" d="M1568.01,-117.95C1557.47,-115.95 1546.23,-113.85 1535.78,-112 1462.06,-98.91 1376.92,-85.14 1321.37,-76.33"/>
<polygon fill="midnightblue" stroke="midnightblue" points="1321.77,-72.85 1311.35,-74.75 1320.68,-79.77 1321.77,-72.85"/>
</g>
<!-- Node24 -->
<g id="node24" class="node">
<title>Node24</title>
<g id="a_node24"><a xlink:href="incflo__enums_8_h.html" target="_top" xlink:title=" ">
<polygon fill="white" stroke="black" points="1488.28,-56.5 1488.28,-75.5 1629.28,-75.5 1629.28,-56.5 1488.28,-56.5"/>
<text text-anchor="middle" x="1558.78" y="-63.5" font-family="Helvetica,sans-Serif" font-size="10.00">amr&#45;wind/incflo_enums.H</text>
</a>
</g>
</g>
<!-- Node21&#45;&gt;Node24 -->
<g id="edge34" class="edge">
<title>Node21&#45;&gt;Node24</title>
<path fill="none" stroke="midnightblue" d="M1604.19,-117.98C1596.08,-108.87 1583.05,-94.24 1573.02,-82.98"/>
<polygon fill="midnightblue" stroke="midnightblue" points="1575.63,-80.65 1566.36,-75.51 1570.4,-85.3 1575.63,-80.65"/>
</g>
<!-- Node25 -->
<g id="node25" class="node">
<title>Node25</title>
<g id="a_node25"><a xlink:href="_field_desc_types_8_h.html" target="_top" xlink:title=" ">
<polygon fill="white" stroke="black" points="2151.78,-0.5 2151.78,-19.5 2327.78,-19.5 2327.78,-0.5 2151.78,-0.5"/>
<text text-anchor="middle" x="2239.78" y="-7.5" font-family="Helvetica,sans-Serif" font-size="10.00">amr&#45;wind/core/FieldDescTypes.H</text>
</a>
</g>
</g>
<!-- Node21&#45;&gt;Node25 -->
<g id="edge35" class="edge">
<title>Node21&#45;&gt;Node25</title>
<path fill="none" stroke="midnightblue" d="M1658.22,-117.96C1771.24,-97.17 2060.37,-44 2183.21,-21.41"/>
<polygon fill="midnightblue" stroke="midnightblue" points="2183.96,-24.83 2193.16,-19.57 2182.7,-17.94 2183.96,-24.83"/>
</g>
<!-- Node26 -->
<g id="node26" class="node">
<title>Node26</title>
<g id="a_node26"><a xlink:href="_view_field_8_h.html" target="_top" xlink:title=" ">
<polygon fill="white" stroke="black" points="1723.78,-56.5 1723.78,-75.5 1871.78,-75.5 1871.78,-56.5 1723.78,-56.5"/>
<text text-anchor="middle" x="1797.78" y="-63.5" font-family="Helvetica,sans-Serif" font-size="10.00">amr&#45;wind/core/ViewField.H</text>
</a>
</g>
</g>
<!-- Node21&#45;&gt;Node26 -->
<g id="edge36" class="edge">
<title>Node21&#45;&gt;Node26</title>
<path fill="none" stroke="midnightblue" d="M1638.43,-117.98C1670.75,-107.64 1725.38,-90.16 1761.52,-78.6"/>
<polygon fill="midnightblue" stroke="midnightblue" points="1762.73,-81.89 1771.19,-75.51 1760.59,-75.22 1762.73,-81.89"/>
</g>
<!-- Node26&#45;&gt;Node11 -->
<g id="edge37" class="edge">
<title>Node26&#45;&gt;Node11</title>
<path fill="none" stroke="midnightblue" d="M1814.17,-56.32C1830.46,-47.7 1855.65,-34.36 1874.5,-24.39"/>
<polygon fill="midnightblue" stroke="midnightblue" points="1876.24,-27.43 1883.44,-19.65 1872.96,-21.24 1876.24,-27.43"/>
</g>
<!-- Node26&#45;&gt;Node12 -->
<g id="edge40" class="edge">
<title>Node26&#45;&gt;Node12</title>
<path fill="none" stroke="midnightblue" d="M1723.37,-57.33C1718.78,-56.87 1714.22,-56.43 1709.78,-56 1551.33,-40.74 1364.36,-24.25 1271.02,-16.13"/>
<polygon fill="midnightblue" stroke="midnightblue" points="1271.19,-12.63 1260.93,-15.25 1270.59,-19.6 1271.19,-12.63"/>
</g>
<!-- Node26&#45;&gt;Node13 -->
<g id="edge39" class="edge">
<title>Node26&#45;&gt;Node13</title>
<path fill="none" stroke="midnightblue" d="M1786.54,-56.32C1775.99,-48.18 1759.98,-35.84 1747.34,-26.09"/>
<polygon fill="midnightblue" stroke="midnightblue" points="1749.29,-23.17 1739.24,-19.83 1745.02,-28.71 1749.29,-23.17"/>
</g>
<!-- Node26&#45;&gt;Node25 -->
<g id="edge38" class="edge">
<title>Node26&#45;&gt;Node25</title>
<path fill="none" stroke="midnightblue" d="M1867.82,-56.44C1947.27,-46.74 2076.58,-30.94 2159.9,-20.76"/>
<polygon fill="midnightblue" stroke="midnightblue" points="2160.57,-24.2 2170.08,-19.52 2159.73,-17.26 2160.57,-24.2"/>
</g>
<!-- Node27&#45;&gt;Node4 -->
<g id="edge79" class="edge">
<title>Node27&#45;&gt;Node4</title>
<path fill="none" stroke="midnightblue" d="M1235.01,-251.94C1170.14,-240.06 1052.99,-218.61 983.31,-205.85"/>
<polygon fill="midnightblue" stroke="midnightblue" points="983.85,-202.39 973.38,-204.03 982.59,-209.28 983.85,-202.39"/>
</g>
<!-- Node28 -->
<g id="node28" class="node">
<title>Node28</title>
<g id="a_node28"><a xlink:title=" ">
<polygon fill="white" stroke="#bfbfbf" points="1767.78,-118 1767.78,-137 1877.78,-137 1877.78,-118 1767.78,-118"/>
<text text-anchor="middle" x="1822.78" y="-125" font-family="Helvetica,sans-Serif" font-size="10.00">AMReX_AmrCore.H</text>
</a>
</g>
</g>
<!-- Node27&#45;&gt;Node28 -->
<g id="edge43" class="edge">
<title>Node27&#45;&gt;Node28</title>
<path fill="none" stroke="midnightblue" d="M1320.58,-251.94C1364.76,-242.12 1439.09,-225.39 1502.78,-210 1602.55,-185.9 1719.28,-155.65 1780.46,-139.64"/>
<polygon fill="midnightblue" stroke="midnightblue" points="1781.36,-143.02 1790.14,-137.1 1779.58,-136.25 1781.36,-143.02"/>
</g>
<!-- Node29 -->
<g id="node29" class="node">
<title>Node29</title>
<g id="a_node29"><a xlink:href="_sim_time_8_h.html" target="_top" xlink:title=" ">
<polygon fill="white" stroke="black" points="1075.78,-185 1075.78,-204 1219.78,-204 1219.78,-185 1075.78,-185"/>
<text text-anchor="middle" x="1147.78" y="-192" font-family="Helvetica,sans-Serif" font-size="10.00">amr&#45;wind/core/SimTime.H</text>
</a>
</g>
</g>
<!-- Node27&#45;&gt;Node29 -->
<g id="edge44" class="edge">
<title>Node27&#45;&gt;Node29</title>
<path fill="none" stroke="midnightblue" d="M1263.99,-251.87C1241.16,-240.8 1201.36,-221.49 1174.79,-208.6"/>
<polygon fill="midnightblue" stroke="midnightblue" points="1176.18,-205.38 1165.65,-204.17 1173.12,-211.68 1176.18,-205.38"/>
</g>
<!-- Node32 -->
<g id="node32" class="node">
<title>Node32</title>
<g id="a_node32"><a xlink:href="_field_repo_8_h.html" target="_top" xlink:title=" ">
<polygon fill="white" stroke="black" points="1939.28,-185 1939.28,-204 2088.28,-204 2088.28,-185 1939.28,-185"/>
<text text-anchor="middle" x="2013.78" y="-192" font-family="Helvetica,sans-Serif" font-size="10.00">amr&#45;wind/core/FieldRepo.H</text>
</a>
</g>
</g>
<!-- Node27&#45;&gt;Node32 -->
<g id="edge48" class="edge">
<title>Node27&#45;&gt;Node32</title>
<path fill="none" stroke="midnightblue" d="M1339.84,-255.35C1468.59,-243.91 1778.55,-216.39 1929.01,-203.03"/>
<polygon fill="midnightblue" stroke="midnightblue" points="1929.47,-206.5 1939.13,-202.13 1928.86,-199.53 1929.47,-206.5"/>
</g>
<!-- Node39 -->
<g id="node39" class="node">
<title>Node39</title>
<g id="a_node39"><a xlink:href="_p_d_e_base_8_h.html" target="_top" xlink:title=" ">
<polygon fill="white" stroke="black" points="1338.28,-179.5 1338.28,-209.5 1493.28,-209.5 1493.28,-179.5 1338.28,-179.5"/>
<text text-anchor="start" x="1346.28" y="-197.5" font-family="Helvetica,sans-Serif" font-size="10.00">amr&#45;wind/equation_systems</text>
<text text-anchor="middle" x="1415.78" y="-186.5" font-family="Helvetica,sans-Serif" font-size="10.00">/PDEBase.H</text>
</a>
</g>
</g>
<!-- Node27&#45;&gt;Node39 -->
<g id="edge71" class="edge">
<title>Node27&#45;&gt;Node39</title>
<path fill="none" stroke="midnightblue" d="M1299.58,-251.87C1319.43,-242.24 1352.11,-226.39 1377.77,-213.94"/>
<polygon fill="midnightblue" stroke="midnightblue" points="1379.4,-217.04 1386.87,-209.53 1376.34,-210.74 1379.4,-217.04"/>
</g>
<!-- Node29&#45;&gt;Node19 -->
<g id="edge45" class="edge">
<title>Node29&#45;&gt;Node19</title>
<path fill="none" stroke="midnightblue" d="M1075.62,-186.19C942.06,-172.65 668.92,-144.85 658.78,-143 653.58,-142.05 648.14,-140.86 642.79,-139.58"/>
<polygon fill="midnightblue" stroke="midnightblue" points="643.26,-136.09 632.71,-137.02 641.55,-142.87 643.26,-136.09"/>
</g>
<!-- Node30 -->
<g id="node30" class="node">
<title>Node30</title>
<g id="a_node30"><a xlink:title=" ">
<polygon fill="white" stroke="#bfbfbf" points="895.78,-118 895.78,-137 1029.78,-137 1029.78,-118 895.78,-118"/>
<text text-anchor="middle" x="962.78" y="-125" font-family="Helvetica,sans-Serif" font-size="10.00">AMReX_GpuQualifiers.H</text>
</a>
</g>
</g>
<!-- Node29&#45;&gt;Node30 -->
<g id="edge46" class="edge">
<title>Node29&#45;&gt;Node30</title>
<path fill="none" stroke="midnightblue" d="M1123.22,-184.87C1090.79,-173.47 1033.52,-153.35 996.9,-140.49"/>
<polygon fill="midnightblue" stroke="midnightblue" points="997.75,-137.08 987.16,-137.06 995.43,-143.68 997.75,-137.08"/>
</g>
<!-- Node31 -->
<g id="node31" class="node">
<title>Node31</title>
<g id="a_node31"><a xlink:title=" ">
<polygon fill="white" stroke="#bfbfbf" points="1203.78,-118 1203.78,-137 1319.78,-137 1319.78,-118 1203.78,-118"/>
<text text-anchor="middle" x="1261.78" y="-125" font-family="Helvetica,sans-Serif" font-size="10.00">AMReX_Extension.H</text>
</a>
</g>
</g>
<!-- Node29&#45;&gt;Node31 -->
<g id="edge47" class="edge">
<title>Node29&#45;&gt;Node31</title>
<path fill="none" stroke="midnightblue" d="M1163.16,-184.73C1182.3,-173.82 1215.22,-155.05 1237.72,-142.22"/>
<polygon fill="midnightblue" stroke="midnightblue" points="1239.7,-145.12 1246.65,-137.13 1236.23,-139.04 1239.7,-145.12"/>
</g>
<!-- Node32&#45;&gt;Node6 -->
<g id="edge50" class="edge">
<title>Node32&#45;&gt;Node6</title>
<path fill="none" stroke="midnightblue" d="M1939.23,-190.71C1824.58,-185.55 1610.9,-172.26 1540.78,-143 1520.67,-134.61 1522.93,-120.31 1502.78,-112 1354.78,-50.96 1301.09,-95.08 1137.9,-76.01"/>
<polygon fill="midnightblue" stroke="midnightblue" points="1137.86,-72.48 1127.5,-74.73 1137,-79.43 1137.86,-72.48"/>
</g>
<!-- Node32&#45;&gt;Node11 -->
<g id="edge49" class="edge">
<title>Node32&#45;&gt;Node11</title>
<path fill="none" stroke="midnightblue" d="M2041.56,-184.9C2101.12,-165.1 2231.9,-113.54 2182.78,-56 2150.82,-18.56 1999.14,-12.11 1931.95,-11.12"/>
<polygon fill="midnightblue" stroke="midnightblue" points="1931.96,-7.62 1921.92,-11 1931.88,-14.62 1931.96,-7.62"/>
</g>
<!-- Node32&#45;&gt;Node13 -->
<g id="edge69" class="edge">
<title>Node32&#45;&gt;Node13</title>
<path fill="none" stroke="midnightblue" d="M1996.88,-185C1978.59,-175.55 1948.83,-159.46 1924.78,-143 1906.8,-130.69 1906.46,-121.39 1886.78,-112 1816.3,-78.36 1764.03,-136.62 1714.78,-76 1703.94,-62.65 1710.19,-42.72 1717.27,-28.46"/>
<polygon fill="midnightblue" stroke="midnightblue" points="1720.37,-30.08 1722.11,-19.63 1714.23,-26.72 1720.37,-30.08"/>
</g>
<!-- Node32&#45;&gt;Node21 -->
<g id="edge56" class="edge">
<title>Node32&#45;&gt;Node21</title>
<path fill="none" stroke="midnightblue" d="M1960.82,-184.94C1887.06,-173.01 1753.61,-151.43 1674.82,-138.69"/>
<polygon fill="midnightblue" stroke="midnightblue" points="1674.98,-135.17 1664.55,-137.03 1673.86,-142.08 1674.98,-135.17"/>
</g>
<!-- Node32&#45;&gt;Node25 -->
<g id="edge51" class="edge">
<title>Node32&#45;&gt;Node25</title>
<path fill="none" stroke="midnightblue" d="M2088.31,-192.84C2245.98,-189.56 2604,-171.54 2666.78,-76 2671.67,-68.57 2672.73,-62.61 2666.78,-56 2645.19,-32.01 2457.36,-19.88 2338.12,-14.55"/>
<polygon fill="midnightblue" stroke="midnightblue" points="2338.01,-11.04 2327.87,-14.1 2337.71,-18.03 2338.01,-11.04"/>
</g>
<!-- Node32&#45;&gt;Node28 -->
<g id="edge68" class="edge">
<title>Node32&#45;&gt;Node28</title>
<path fill="none" stroke="midnightblue" d="M1988.42,-184.87C1954.79,-173.42 1895.31,-153.18 1857.52,-140.32"/>
<polygon fill="midnightblue" stroke="midnightblue" points="1858.54,-136.97 1847.95,-137.06 1856.29,-143.6 1858.54,-136.97"/>
</g>
<!-- Node33 -->
<g id="node33" class="node">
<title>Node33</title>
<g id="a_node33"><a xlink:href="_field_utils_8_h.html" target="_top" xlink:title=" ">
<polygon fill="white" stroke="black" points="2511.78,-56.5 2511.78,-75.5 2657.78,-75.5 2657.78,-56.5 2511.78,-56.5"/>
<text text-anchor="middle" x="2584.78" y="-63.5" font-family="Helvetica,sans-Serif" font-size="10.00">amr&#45;wind/core/FieldUtils.H</text>
</a>
</g>
</g>
<!-- Node32&#45;&gt;Node33 -->
<g id="edge52" class="edge">
<title>Node32&#45;&gt;Node33</title>
<path fill="none" stroke="midnightblue" d="M2088.52,-189.49C2199.35,-182.82 2401.53,-167.69 2469.78,-143 2507.96,-129.19 2546.03,-100.31 2567.38,-82.4"/>
<polygon fill="midnightblue" stroke="midnightblue" points="2569.9,-84.85 2575.21,-75.69 2565.34,-79.54 2569.9,-84.85"/>
</g>
<!-- Node35 -->
<g id="node35" class="node">
<title>Node35</title>
<g id="a_node35"><a xlink:href="_int_field_8_h.html" target="_top" xlink:title=" ">
<polygon fill="white" stroke="black" points="2306.28,-118 2306.28,-137 2443.28,-137 2443.28,-118 2306.28,-118"/>
<text text-anchor="middle" x="2374.78" y="-125" font-family="Helvetica,sans-Serif" font-size="10.00">amr&#45;wind/core/IntField.H</text>
</a>
</g>
</g>
<!-- Node32&#45;&gt;Node35 -->
<g id="edge57" class="edge">
<title>Node32&#45;&gt;Node35</title>
<path fill="none" stroke="midnightblue" d="M2061.35,-184.94C2127.32,-173.06 2246.45,-151.61 2317.31,-138.85"/>
<polygon fill="midnightblue" stroke="midnightblue" points="2318.18,-142.25 2327.4,-137.03 2316.94,-135.36 2318.18,-142.25"/>
</g>
<!-- Node36 -->
<g id="node36" class="node">
<title>Node36</title>
<g id="a_node36"><a xlink:title=" ">
<polygon fill="white" stroke="#bfbfbf" points="2381.78,-56.5 2381.78,-75.5 2493.78,-75.5 2493.78,-56.5 2381.78,-56.5"/>
<text text-anchor="middle" x="2437.78" y="-63.5" font-family="Helvetica,sans-Serif" font-size="10.00">AMReX_iMultiFab.H</text>
</a>
</g>
</g>
<!-- Node32&#45;&gt;Node36 -->
<g id="edge70" class="edge">
<title>Node32&#45;&gt;Node36</title>
<path fill="none" stroke="midnightblue" d="M2088.5,-190.23C2207.46,-184.26 2429.01,-169.66 2452.78,-143 2467,-127.06 2457.8,-101.64 2448.77,-84.65"/>
<polygon fill="midnightblue" stroke="midnightblue" points="2451.67,-82.67 2443.65,-75.75 2445.61,-86.16 2451.67,-82.67"/>
</g>
<!-- Node37 -->
<g id="node37" class="node">
<title>Node37</title>
<g id="a_node37"><a xlink:href="_scratch_field_8_h.html" target="_top" xlink:title=" ">
<polygon fill="white" stroke="black" points="1933.78,-118 1933.78,-137 2093.78,-137 2093.78,-118 1933.78,-118"/>
<text text-anchor="middle" x="2013.78" y="-125" font-family="Helvetica,sans-Serif" font-size="10.00">amr&#45;wind/core/ScratchField.H</text>
</a>
</g>
</g>
<!-- Node32&#45;&gt;Node37 -->
<g id="edge61" class="edge">
<title>Node32&#45;&gt;Node37</title>
<path fill="none" stroke="midnightblue" d="M2013.78,-184.73C2013.78,-175.18 2013.78,-159.62 2013.78,-147.28"/>
<polygon fill="midnightblue" stroke="midnightblue" points="2017.29,-147.13 2013.78,-137.13 2010.29,-147.13 2017.29,-147.13"/>
</g>
<!-- Node33&#45;&gt;Node13 -->
<g id="edge54" class="edge">
<title>Node33&#45;&gt;Node13</title>
<path fill="none" stroke="midnightblue" d="M2511.49,-56.76C2508.55,-56.49 2505.64,-56.24 2502.78,-56 2221.53,-32.6 2150.5,-36.99 1868.78,-20 1843.83,-18.49 1816.39,-16.76 1792.4,-15.22"/>
<polygon fill="midnightblue" stroke="midnightblue" points="1792.55,-11.72 1782.35,-14.57 1792.1,-18.71 1792.55,-11.72"/>
</g>
<!-- Node33&#45;&gt;Node25 -->
<g id="edge53" class="edge">
<title>Node33&#45;&gt;Node25</title>
<path fill="none" stroke="midnightblue" d="M2530.12,-56.44C2468.8,-46.85 2369.43,-31.29 2304.34,-21.1"/>
<polygon fill="midnightblue" stroke="midnightblue" points="2304.62,-17.61 2294.2,-19.52 2303.53,-24.52 2304.62,-17.61"/>
</g>
<!-- Node34 -->
<g id="node34" class="node">
<title>Node34</title>
<g id="a_node34"><a xlink:title=" ">
<polygon fill="white" stroke="#bfbfbf" points="2522.78,-0.5 2522.78,-19.5 2646.78,-19.5 2646.78,-0.5 2522.78,-0.5"/>
<text text-anchor="middle" x="2584.78" y="-7.5" font-family="Helvetica,sans-Serif" font-size="10.00">AMReX_Interpolater.H</text>
</a>
</g>
</g>
<!-- Node33&#45;&gt;Node34 -->
<g id="edge55" class="edge">
<title>Node33&#45;&gt;Node34</title>
<path fill="none" stroke="midnightblue" d="M2584.78,-56.08C2584.78,-49.01 2584.78,-38.86 2584.78,-29.99"/>
<polygon fill="midnightblue" stroke="midnightblue" points="2588.29,-29.75 2584.78,-19.75 2581.29,-29.75 2588.29,-29.75"/>
</g>
<!-- Node35&#45;&gt;Node11 -->
<g id="edge58" class="edge">
<title>Node35&#45;&gt;Node11</title>
<path fill="none" stroke="midnightblue" d="M2367.65,-117.71C2354.5,-102.2 2324.74,-70.29 2291.78,-56 2227.28,-28.02 2014.16,-15.98 1932.25,-12.3"/>
<polygon fill="midnightblue" stroke="midnightblue" points="1932.18,-8.8 1922.04,-11.86 1931.87,-15.79 1932.18,-8.8"/>
</g>
<!-- Node35&#45;&gt;Node25 -->
<g id="edge59" class="edge">
<title>Node35&#45;&gt;Node25</title>
<path fill="none" stroke="midnightblue" d="M2371.03,-117.62C2364.52,-103.1 2349.85,-74.07 2329.78,-56 2314.01,-41.8 2292.94,-30.94 2275.15,-23.45"/>
<polygon fill="midnightblue" stroke="midnightblue" points="2276.24,-20.12 2265.66,-19.64 2273.63,-26.61 2276.24,-20.12"/>
</g>
<!-- Node35&#45;&gt;Node36 -->
<g id="edge60" class="edge">
<title>Node35&#45;&gt;Node36</title>
<path fill="none" stroke="midnightblue" d="M2383.81,-117.98C2393.54,-108.78 2409.24,-93.96 2421.21,-82.66"/>
<polygon fill="midnightblue" stroke="midnightblue" points="2423.91,-84.92 2428.78,-75.51 2419.1,-79.83 2423.91,-84.92"/>
</g>
<!-- Node37&#45;&gt;Node11 -->
<g id="edge62" class="edge">
<title>Node37&#45;&gt;Node11</title>
<path fill="none" stroke="midnightblue" d="M2006.88,-117.92C1995.79,-104.3 1973.08,-77.12 1951.78,-56 1941.19,-45.49 1928.54,-34.51 1918.38,-26.03"/>
<polygon fill="midnightblue" stroke="midnightblue" points="1920.46,-23.22 1910.52,-19.56 1916.01,-28.62 1920.46,-23.22"/>
</g>
<!-- Node37&#45;&gt;Node12 -->
<g id="edge66" class="edge">
<title>Node37&#45;&gt;Node12</title>
<path fill="none" stroke="midnightblue" d="M1953.63,-117.97C1893.04,-108.99 1797,-93.72 1714.78,-76 1680.64,-68.64 1673.14,-62.29 1638.78,-56 1508.7,-32.17 1353.84,-19.76 1271.02,-14.38"/>
<polygon fill="midnightblue" stroke="midnightblue" points="1271,-10.87 1260.8,-13.73 1270.56,-17.86 1271,-10.87"/>
</g>
<!-- Node37&#45;&gt;Node13 -->
<g id="edge65" class="edge">
<title>Node37&#45;&gt;Node13</title>
<path fill="none" stroke="midnightblue" d="M1999.87,-117.91C1976.15,-103.55 1926.05,-74.43 1880.78,-56 1846,-41.83 1805.11,-30.04 1774.36,-22.09"/>
<polygon fill="midnightblue" stroke="midnightblue" points="1774.9,-18.62 1764.35,-19.54 1773.17,-25.4 1774.9,-18.62"/>
</g>
<!-- Node37&#45;&gt;Node25 -->
<g id="edge63" class="edge">
<title>Node37&#45;&gt;Node25</title>
<path fill="none" stroke="midnightblue" d="M2069.6,-117.96C2104.23,-110.77 2148.51,-98 2182.78,-76 2202.06,-63.63 2218.6,-42.92 2228.83,-28.2"/>
<polygon fill="midnightblue" stroke="midnightblue" points="2231.97,-29.8 2234.6,-19.54 2226.14,-25.92 2231.97,-29.8"/>
</g>
<!-- Node37&#45;&gt;Node26 -->
<g id="edge64" class="edge">
<title>Node37&#45;&gt;Node26</title>
<path fill="none" stroke="midnightblue" d="M1982.84,-117.98C1944.9,-107.53 1880.51,-89.79 1838.56,-78.23"/>
<polygon fill="midnightblue" stroke="midnightblue" points="1839.25,-74.79 1828.68,-75.51 1837.39,-81.54 1839.25,-74.79"/>
</g>
<!-- Node38 -->
<g id="node38" class="node">
<title>Node38</title>
<g id="a_node38"><a xlink:title=" ">
<polygon fill="white" stroke="#bfbfbf" points="2042.28,-56.5 2042.28,-75.5 2173.28,-75.5 2173.28,-56.5 2042.28,-56.5"/>
<text text-anchor="middle" x="2107.78" y="-63.5" font-family="Helvetica,sans-Serif" font-size="10.00">AMReX_PhysBCFunct.H</text>
</a>
</g>
</g>
<!-- Node37&#45;&gt;Node38 -->
<g id="edge67" class="edge">
<title>Node37&#45;&gt;Node38</title>
<path fill="none" stroke="midnightblue" d="M2027.25,-117.98C2042.47,-108.34 2067.47,-92.52 2085.59,-81.05"/>
<polygon fill="midnightblue" stroke="midnightblue" points="2087.76,-83.81 2094.34,-75.51 2084.02,-77.9 2087.76,-83.81"/>
</g>
<!-- Node39&#45;&gt;Node5 -->
<g id="edge73" class="edge">
<title>Node39&#45;&gt;Node5</title>
<path fill="none" stroke="midnightblue" d="M1338,-186.08C1206.84,-173.56 943.22,-148.39 812.27,-135.9"/>
<polygon fill="midnightblue" stroke="midnightblue" points="812.21,-132.37 801.92,-134.91 811.55,-139.34 812.21,-132.37"/>
</g>
<!-- Node39&#45;&gt;Node10 -->
<g id="edge74" class="edge">
<title>Node39&#45;&gt;Node10</title>
<path fill="none" stroke="midnightblue" d="M1351.27,-179.48C1295.7,-167.4 1216.67,-150.21 1166.06,-139.21"/>
<polygon fill="midnightblue" stroke="midnightblue" points="1166.53,-135.73 1156.02,-137.03 1165.05,-142.57 1166.53,-135.73"/>
</g>
<!-- Node39&#45;&gt;Node11 -->
<g id="edge72" class="edge">
<title>Node39&#45;&gt;Node11</title>
<path fill="none" stroke="midnightblue" d="M1493.62,-179.81C1576.85,-165.14 1697.31,-143.85 1699.78,-143 1727.81,-133.4 1731.34,-123.13 1758.78,-112 1811.17,-90.75 1840.86,-116.03 1880.78,-76 1892.84,-63.91 1897.33,-44.63 1898.96,-30.2"/>
<polygon fill="midnightblue" stroke="midnightblue" points="1902.48,-30.13 1899.75,-19.9 1895.5,-29.6 1902.48,-30.13"/>
</g>
<!-- Node39&#45;&gt;Node24 -->
<g id="edge78" class="edge">
<title>Node39&#45;&gt;Node24</title>
<path fill="none" stroke="midnightblue" d="M1493.42,-189.53C1563.48,-184.13 1659.08,-171.61 1682.78,-143 1691.58,-132.39 1690.69,-123.28 1682.78,-112 1671.37,-95.72 1653.44,-85.3 1634.71,-78.65"/>
<polygon fill="midnightblue" stroke="midnightblue" points="1635.78,-75.31 1625.19,-75.59 1633.64,-81.98 1635.78,-75.31"/>
</g>
<!-- Node39&#45;&gt;Node25 -->
<g id="edge77" class="edge">
<title>Node39&#45;&gt;Node25</title>
<path fill="none" stroke="midnightblue" d="M1493.57,-192.56C1648.82,-189.89 1991.7,-179.89 2102.78,-143 2155.32,-125.55 2170.86,-117.25 2207.78,-76 2219.95,-62.41 2228.6,-43.35 2233.82,-29.39"/>
<polygon fill="midnightblue" stroke="midnightblue" points="2237.15,-30.47 2237.14,-19.88 2230.54,-28.17 2237.15,-30.47"/>
</g>
<!-- Node40 -->
<g id="node40" class="node">
<title>Node40</title>
<g id="a_node40"><a xlink:href="_p_d_e_fields_8_h.html" target="_top" xlink:title=" ">
<polygon fill="white" stroke="black" points="1338.28,-112.5 1338.28,-142.5 1493.28,-142.5 1493.28,-112.5 1338.28,-112.5"/>
<text text-anchor="start" x="1346.28" y="-130.5" font-family="Helvetica,sans-Serif" font-size="10.00">amr&#45;wind/equation_systems</text>
<text text-anchor="middle" x="1415.78" y="-119.5" font-family="Helvetica,sans-Serif" font-size="10.00">/PDEFields.H</text>
</a>
</g>
</g>
<!-- Node39&#45;&gt;Node40 -->
<g id="edge75" class="edge">
<title>Node39&#45;&gt;Node40</title>
<path fill="none" stroke="midnightblue" d="M1415.78,-179.4C1415.78,-171.64 1415.78,-161.81 1415.78,-152.86"/>
<polygon fill="midnightblue" stroke="midnightblue" points="1419.29,-152.58 1415.78,-142.58 1412.29,-152.58 1419.29,-152.58"/>
</g>
<!-- Node41 -->
<g id="node41" class="node">
<title>Node41</title>
<g id="a_node41"><a xlink:title=" ">
<polygon fill="white" stroke="#bfbfbf" points="1145.78,-56.5 1145.78,-75.5 1193.78,-75.5 1193.78,-56.5 1145.78,-56.5"/>
<text text-anchor="middle" x="1169.78" y="-63.5" font-family="Helvetica,sans-Serif" font-size="10.00">iosfwd</text>
</a>
</g>
</g>
<!-- Node40&#45;&gt;Node41 -->
<g id="edge76" class="edge">
<title>Node40&#45;&gt;Node41</title>
<path fill="none" stroke="midnightblue" d="M1354.92,-112.43C1312.49,-102.51 1254.61,-88.78 1203.78,-76 1203.69,-75.97 1203.58,-75.95 1203.48,-75.92"/>
<polygon fill="midnightblue" stroke="midnightblue" points="1204.47,-72.56 1193.91,-73.47 1202.73,-79.34 1204.47,-72.56"/>
</g>
</g>
</svg>
