<?xml version="1.0" encoding="UTF-8" standalone="no"?>
<!DOCTYPE svg PUBLIC "-//W3C//DTD SVG 1.1//EN"
 "http://www.w3.org/Graphics/SVG/1.1/DTD/svg11.dtd">
<!-- Generated by graphviz version 2.43.0 (0)
 -->
<!-- Title: SamplerBase.H Pages: 1 -->
<svg width="788pt" height="196pt"
 viewBox="0.00 0.00 787.50 196.00" xmlns="http://www.w3.org/2000/svg" xmlns:xlink="http://www.w3.org/1999/xlink">
<g id="graph0" class="graph" transform="scale(1 1) rotate(0) translate(4 192)">
<title>SamplerBase.H</title>
<polygon fill="white" stroke="transparent" points="-4,4 -4,-192 783.5,-192 783.5,4 -4,4"/>
<!-- Node1 -->
<g id="node1" class="node">
<title>Node1</title>
<g id="a_node1"><a xlink:title=" ">
<polygon fill="#bfbfbf" stroke="black" points="405.5,-168.5 405.5,-187.5 497.5,-187.5 497.5,-168.5 405.5,-168.5"/>
<text text-anchor="middle" x="451.5" y="-175.5" font-family="Helvetica,sans-Serif" font-size="10.00">SamplerBase.H</text>
</a>
</g>
</g>
<!-- Node2 -->
<g id="node2" class="node">
<title>Node2</title>
<g id="a_node2"><a xlink:href="_line_sampler_8_h.html" target="_top" xlink:title=" ">
<polygon fill="white" stroke="black" points="119,-112.5 119,-131.5 206,-131.5 206,-112.5 119,-112.5"/>
<text text-anchor="middle" x="162.5" y="-119.5" font-family="Helvetica,sans-Serif" font-size="10.00">LineSampler.H</text>
</a>
</g>
</g>
<!-- Node1&#45;&gt;Node2 -->
<g id="edge1" class="edge">
<title>Node1&#45;&gt;Node2</title>
<path fill="none" stroke="midnightblue" d="M395.72,-166.58C340.42,-156.25 256.84,-140.63 206.19,-131.16"/>
<polygon fill="midnightblue" stroke="midnightblue" points="395.23,-170.05 405.71,-168.44 396.52,-163.17 395.23,-170.05"/>
</g>
<!-- Node6 -->
<g id="node6" class="node">
<title>Node6</title>
<g id="a_node6"><a xlink:href="_plane_sampler_8_h.html" target="_top" xlink:title=" ">
<polygon fill="white" stroke="black" points="236.5,-112.5 236.5,-131.5 330.5,-131.5 330.5,-112.5 236.5,-112.5"/>
<text text-anchor="middle" x="283.5" y="-119.5" font-family="Helvetica,sans-Serif" font-size="10.00">PlaneSampler.H</text>
</a>
</g>
</g>
<!-- Node1&#45;&gt;Node6 -->
<g id="edge5" class="edge">
<title>Node1&#45;&gt;Node6</title>
<path fill="none" stroke="midnightblue" d="M415.11,-165.3C383.46,-155.13 338.33,-140.62 310,-131.52"/>
<polygon fill="midnightblue" stroke="midnightblue" points="414.29,-168.72 424.88,-168.44 416.43,-162.05 414.29,-168.72"/>
</g>
<!-- Node8 -->
<g id="node8" class="node">
<title>Node8</title>
<g id="a_node8"><a xlink:href="_probe_sampler_8_h.html" target="_top" xlink:title=" ">
<polygon fill="white" stroke="black" points="353,-112.5 353,-131.5 448,-131.5 448,-112.5 353,-112.5"/>
<text text-anchor="middle" x="400.5" y="-119.5" font-family="Helvetica,sans-Serif" font-size="10.00">ProbeSampler.H</text>
</a>
</g>
</g>
<!-- Node1&#45;&gt;Node8 -->
<g id="edge7" class="edge">
<title>Node1&#45;&gt;Node8</title>
<path fill="none" stroke="midnightblue" d="M436.12,-160.72C427.13,-151.2 416.14,-139.56 408.76,-131.75"/>
<polygon fill="midnightblue" stroke="midnightblue" points="433.67,-163.22 443.08,-168.08 438.76,-158.41 433.67,-163.22"/>
</g>
<!-- Node10 -->
<g id="node10" class="node">
<title>Node10</title>
<g id="a_node10"><a xlink:href="_sampling_8_h.html" target="_top" xlink:title=" ">
<polygon fill="white" stroke="black" points="466,-112.5 466,-131.5 539,-131.5 539,-112.5 466,-112.5"/>
<text text-anchor="middle" x="502.5" y="-119.5" font-family="Helvetica,sans-Serif" font-size="10.00">Sampling.H</text>
</a>
</g>
</g>
<!-- Node1&#45;&gt;Node10 -->
<g id="edge9" class="edge">
<title>Node1&#45;&gt;Node10</title>
<path fill="none" stroke="midnightblue" d="M466.88,-160.72C475.87,-151.2 486.86,-139.56 494.24,-131.75"/>
<polygon fill="midnightblue" stroke="midnightblue" points="464.24,-158.41 459.92,-168.08 469.33,-163.22 464.24,-158.41"/>
</g>
<!-- Node12 -->
<g id="node12" class="node">
<title>Node12</title>
<g id="a_node12"><a xlink:href="_sampling_container_8cpp.html" target="_top" xlink:title=" ">
<polygon fill="white" stroke="black" points="557,-112.5 557,-131.5 686,-131.5 686,-112.5 557,-112.5"/>
<text text-anchor="middle" x="621.5" y="-119.5" font-family="Helvetica,sans-Serif" font-size="10.00">SamplingContainer.cpp</text>
</a>
</g>
</g>
<!-- Node1&#45;&gt;Node12 -->
<g id="edge11" class="edge">
<title>Node1&#45;&gt;Node12</title>
<path fill="none" stroke="midnightblue" d="M488.32,-165.3C520.35,-155.13 566.02,-140.62 594.69,-131.52"/>
<polygon fill="midnightblue" stroke="midnightblue" points="486.91,-162.08 478.44,-168.44 489.03,-168.75 486.91,-162.08"/>
</g>
<!-- Node13 -->
<g id="node13" class="node">
<title>Node13</title>
<g id="a_node13"><a xlink:href="_a_b_l_stats_8_h.html" target="_top" xlink:title=" ">
<polygon fill="white" stroke="black" points="704,-112.5 704,-131.5 775,-131.5 775,-112.5 704,-112.5"/>
<text text-anchor="middle" x="739.5" y="-119.5" font-family="Helvetica,sans-Serif" font-size="10.00">ABLStats.H</text>
</a>
</g>
</g>
<!-- Node1&#45;&gt;Node13 -->
<g id="edge12" class="edge">
<title>Node1&#45;&gt;Node13</title>
<path fill="none" stroke="midnightblue" d="M507.74,-166.95C557.23,-158.02 631.22,-144.5 695.5,-132 698.26,-131.46 701.11,-130.9 703.97,-130.33"/>
<polygon fill="midnightblue" stroke="midnightblue" points="507.09,-163.51 497.87,-168.72 508.34,-170.4 507.09,-163.51"/>
</g>
<!-- Node3 -->
<g id="node3" class="node">
<title>Node3</title>
<g id="a_node3"><a xlink:href="_lidar_sampler_8_h.html" target="_top" xlink:title=" ">
<polygon fill="white" stroke="black" points="5,-56.5 5,-75.5 96,-75.5 96,-56.5 5,-56.5"/>
<text text-anchor="middle" x="50.5" y="-63.5" font-family="Helvetica,sans-Serif" font-size="10.00">LidarSampler.H</text>
</a>
</g>
</g>
<!-- Node2&#45;&gt;Node3 -->
<g id="edge2" class="edge">
<title>Node2&#45;&gt;Node3</title>
<path fill="none" stroke="midnightblue" d="M135.25,-107.86C114.48,-97.85 86.48,-84.35 68.45,-75.65"/>
<polygon fill="midnightblue" stroke="midnightblue" points="133.98,-111.13 144.51,-112.32 137.02,-104.83 133.98,-111.13"/>
</g>
<!-- Node5 -->
<g id="node5" class="node">
<title>Node5</title>
<g id="a_node5"><a xlink:href="_line_sampler_8cpp.html" target="_top" xlink:title=" ">
<polygon fill="white" stroke="black" points="114,-56.5 114,-75.5 211,-75.5 211,-56.5 114,-56.5"/>
<text text-anchor="middle" x="162.5" y="-63.5" font-family="Helvetica,sans-Serif" font-size="10.00">LineSampler.cpp</text>
</a>
</g>
</g>
<!-- Node2&#45;&gt;Node5 -->
<g id="edge4" class="edge">
<title>Node2&#45;&gt;Node5</title>
<path fill="none" stroke="midnightblue" d="M162.5,-101.8C162.5,-92.91 162.5,-82.78 162.5,-75.75"/>
<polygon fill="midnightblue" stroke="midnightblue" points="159,-102.08 162.5,-112.08 166,-102.08 159,-102.08"/>
</g>
<!-- Node4 -->
<g id="node4" class="node">
<title>Node4</title>
<g id="a_node4"><a xlink:href="_lidar_sampler_8cpp.html" target="_top" xlink:title=" ">
<polygon fill="white" stroke="black" points="0,-0.5 0,-19.5 101,-19.5 101,-0.5 0,-0.5"/>
<text text-anchor="middle" x="50.5" y="-7.5" font-family="Helvetica,sans-Serif" font-size="10.00">LidarSampler.cpp</text>
</a>
</g>
</g>
<!-- Node3&#45;&gt;Node4 -->
<g id="edge3" class="edge">
<title>Node3&#45;&gt;Node4</title>
<path fill="none" stroke="midnightblue" d="M50.5,-45.8C50.5,-36.91 50.5,-26.78 50.5,-19.75"/>
<polygon fill="midnightblue" stroke="midnightblue" points="47,-46.08 50.5,-56.08 54,-46.08 47,-46.08"/>
</g>
<!-- Node7 -->
<g id="node7" class="node">
<title>Node7</title>
<g id="a_node7"><a xlink:href="_plane_sampler_8cpp.html" target="_top" xlink:title=" ">
<polygon fill="white" stroke="black" points="229.5,-56.5 229.5,-75.5 333.5,-75.5 333.5,-56.5 229.5,-56.5"/>
<text text-anchor="middle" x="281.5" y="-63.5" font-family="Helvetica,sans-Serif" font-size="10.00">PlaneSampler.cpp</text>
</a>
</g>
</g>
<!-- Node6&#45;&gt;Node7 -->
<g id="edge6" class="edge">
<title>Node6&#45;&gt;Node7</title>
<path fill="none" stroke="midnightblue" d="M282.79,-101.8C282.46,-92.91 282.08,-82.78 281.82,-75.75"/>
<polygon fill="midnightblue" stroke="midnightblue" points="279.3,-102.22 283.17,-112.08 286.3,-101.96 279.3,-102.22"/>
</g>
<!-- Node9 -->
<g id="node9" class="node">
<title>Node9</title>
<g id="a_node9"><a xlink:href="_probe_sampler_8cpp.html" target="_top" xlink:title=" ">
<polygon fill="white" stroke="black" points="351.5,-56.5 351.5,-75.5 455.5,-75.5 455.5,-56.5 351.5,-56.5"/>
<text text-anchor="middle" x="403.5" y="-63.5" font-family="Helvetica,sans-Serif" font-size="10.00">ProbeSampler.cpp</text>
</a>
</g>
</g>
<!-- Node8&#45;&gt;Node9 -->
<g id="edge8" class="edge">
<title>Node8&#45;&gt;Node9</title>
<path fill="none" stroke="midnightblue" d="M401.57,-101.8C402.06,-92.91 402.62,-82.78 403.01,-75.75"/>
<polygon fill="midnightblue" stroke="midnightblue" points="398.06,-101.9 401,-112.08 405.04,-102.29 398.06,-101.9"/>
</g>
<!-- Node11 -->
<g id="node11" class="node">
<title>Node11</title>
<g id="a_node11"><a xlink:href="_sampling_8cpp.html" target="_top" xlink:title=" ">
<polygon fill="white" stroke="black" points="474,-56.5 474,-75.5 557,-75.5 557,-56.5 474,-56.5"/>
<text text-anchor="middle" x="515.5" y="-63.5" font-family="Helvetica,sans-Serif" font-size="10.00">Sampling.cpp</text>
</a>
</g>
</g>
<!-- Node10&#45;&gt;Node11 -->
<g id="edge10" class="edge">
<title>Node10&#45;&gt;Node11</title>
<path fill="none" stroke="midnightblue" d="M507.05,-102.1C509.21,-93.14 511.68,-82.86 513.39,-75.75"/>
<polygon fill="midnightblue" stroke="midnightblue" points="503.58,-101.54 504.65,-112.08 510.39,-103.18 503.58,-101.54"/>
</g>
<!-- Node14 -->
<g id="node14" class="node">
<title>Node14</title>
<g id="a_node14"><a xlink:href="_a_b_l_stats_8cpp.html" target="_top" xlink:title=" ">
<polygon fill="white" stroke="black" points="699.5,-56.5 699.5,-75.5 779.5,-75.5 779.5,-56.5 699.5,-56.5"/>
<text text-anchor="middle" x="739.5" y="-63.5" font-family="Helvetica,sans-Serif" font-size="10.00">ABLStats.cpp</text>
</a>
</g>
</g>
<!-- Node13&#45;&gt;Node14 -->
<g id="edge13" class="edge">
<title>Node13&#45;&gt;Node14</title>
<path fill="none" stroke="midnightblue" d="M739.5,-101.8C739.5,-92.91 739.5,-82.78 739.5,-75.75"/>
<polygon fill="midnightblue" stroke="midnightblue" points="736,-102.08 739.5,-112.08 743,-102.08 736,-102.08"/>
</g>
</g>
</svg>
