<?xml version="1.0" encoding="UTF-8" standalone="no"?>
<!DOCTYPE svg PUBLIC "-//W3C//DTD SVG 1.1//EN"
 "http://www.w3.org/Graphics/SVG/1.1/DTD/svg11.dtd">
<!-- Generated by graphviz version 2.43.0 (0)
 -->
<!-- Title: ScratchField.H Pages: 1 -->
<svg width="3801pt" height="196pt"
 viewBox="0.00 0.00 3801.00 196.00" xmlns="http://www.w3.org/2000/svg" xmlns:xlink="http://www.w3.org/1999/xlink">
<g id="graph0" class="graph" transform="scale(1 1) rotate(0) translate(4 192)">
<title>ScratchField.H</title>
<polygon fill="white" stroke="transparent" points="-4,4 -4,-192 3797,-192 3797,4 -4,4"/>
<!-- Node1 -->
<g id="node1" class="node">
<title>Node1</title>
<g id="a_node1"><a xlink:title=" ">
<polygon fill="#bfbfbf" stroke="black" points="113,-168.5 113,-187.5 199,-187.5 199,-168.5 113,-168.5"/>
<text text-anchor="middle" x="156" y="-175.5" font-family="Helvetica,sans-Serif" font-size="10.00">ScratchField.H</text>
</a>
</g>
</g>
<!-- Node2 -->
<g id="node2" class="node">
<title>Node2</title>
<g id="a_node2"><a xlink:href="_field_repo_8_h.html" target="_top" xlink:title=" ">
<polygon fill="white" stroke="black" points="1591.5,-112.5 1591.5,-131.5 1666.5,-131.5 1666.5,-112.5 1591.5,-112.5"/>
<text text-anchor="middle" x="1629" y="-119.5" font-family="Helvetica,sans-Serif" font-size="10.00">FieldRepo.H</text>
</a>
</g>
</g>
<!-- Node1&#45;&gt;Node2 -->
<g id="edge1" class="edge">
<title>Node1&#45;&gt;Node2</title>
<path fill="none" stroke="midnightblue" d="M209.32,-175.05C444.96,-166.41 1390.1,-131.76 1591.24,-124.38"/>
<polygon fill="midnightblue" stroke="midnightblue" points="209.15,-171.55 199.29,-175.41 209.41,-178.54 209.15,-171.55"/>
</g>
<!-- Node198 -->
<g id="node22" class="node">
<title>Node198</title>
<g id="a_node22"><a xlink:href="_scratch_field_8cpp.html" target="_top" xlink:title=" ">
<polygon fill="white" stroke="black" points="0,-56.5 0,-75.5 96,-75.5 96,-56.5 0,-56.5"/>
<text text-anchor="middle" x="48" y="-63.5" font-family="Helvetica,sans-Serif" font-size="10.00">ScratchField.cpp</text>
</a>
</g>
</g>
<!-- Node1&#45;&gt;Node198 -->
<g id="edge68" class="edge">
<title>Node1&#45;&gt;Node198</title>
<path fill="none" stroke="midnightblue" d="M140.49,-161.21C117.34,-137.63 74.54,-94.03 56.44,-75.59"/>
<polygon fill="midnightblue" stroke="midnightblue" points="138.02,-163.68 147.53,-168.37 143.02,-158.78 138.02,-163.68"/>
</g>
<!-- Node199 -->
<g id="node23" class="node">
<title>Node199</title>
<g id="a_node23"><a xlink:href="_view_field_8cpp.html" target="_top" xlink:title=" ">
<polygon fill="white" stroke="black" points="114,-56.5 114,-75.5 198,-75.5 198,-56.5 114,-56.5"/>
<text text-anchor="middle" x="156" y="-63.5" font-family="Helvetica,sans-Serif" font-size="10.00">ViewField.cpp</text>
</a>
</g>
</g>
<!-- Node1&#45;&gt;Node199 -->
<g id="edge69" class="edge">
<title>Node1&#45;&gt;Node199</title>
<path fill="none" stroke="midnightblue" d="M156,-158.35C156,-134.25 156,-93.31 156,-75.59"/>
<polygon fill="midnightblue" stroke="midnightblue" points="152.5,-158.37 156,-168.37 159.5,-158.37 152.5,-158.37"/>
</g>
<!-- Node3 -->
<g id="node3" class="node">
<title>Node3</title>
<g id="a_node3"><a xlink:href="_b_c_interface_8cpp.html" target="_top" xlink:title=" ">
<polygon fill="white" stroke="black" points="3563,-0.5 3563,-19.5 3657,-19.5 3657,-0.5 3563,-0.5"/>
<text text-anchor="middle" x="3610" y="-7.5" font-family="Helvetica,sans-Serif" font-size="10.00">BCInterface.cpp</text>
</a>
</g>
</g>
<!-- Node2&#45;&gt;Node3 -->
<g id="edge2" class="edge">
<title>Node2&#45;&gt;Node3</title>
<path fill="none" stroke="midnightblue" d="M1676.94,-120.68C1973.98,-118.58 3551.83,-106.07 3591,-76 3608.35,-62.68 3610.52,-34.41 3610.41,-19.94"/>
<polygon fill="midnightblue" stroke="midnightblue" points="1676.9,-117.18 1666.92,-120.75 1676.95,-124.18 1676.9,-117.18"/>
</g>
<!-- Node4 -->
<g id="node4" class="node">
<title>Node4</title>
<g id="a_node4"><a xlink:href="_fixed_gradient_b_c_8_h.html" target="_top" xlink:title=" ">
<polygon fill="white" stroke="black" points="3638,-56.5 3638,-75.5 3746,-75.5 3746,-56.5 3638,-56.5"/>
<text text-anchor="middle" x="3692" y="-63.5" font-family="Helvetica,sans-Serif" font-size="10.00">FixedGradientBC.H</text>
</a>
</g>
</g>
<!-- Node2&#45;&gt;Node4 -->
<g id="edge3" class="edge">
<title>Node2&#45;&gt;Node4</title>
<path fill="none" stroke="midnightblue" d="M1676.61,-120.63C1940.71,-118.48 3227.96,-106.58 3624,-76 3628.51,-75.65 3633.18,-75.21 3637.87,-74.71"/>
<polygon fill="midnightblue" stroke="midnightblue" points="1676.55,-117.13 1666.58,-120.71 1676.61,-124.13 1676.55,-117.13"/>
</g>
<!-- Node6 -->
<g id="node6" class="node">
<title>Node6</title>
<g id="a_node6"><a xlink:href="velocity__bcs_8_h.html" target="_top" xlink:title=" ">
<polygon fill="white" stroke="black" points="216,-56.5 216,-75.5 304,-75.5 304,-56.5 216,-56.5"/>
<text text-anchor="middle" x="260" y="-63.5" font-family="Helvetica,sans-Serif" font-size="10.00">velocity_bcs.H</text>
</a>
</g>
</g>
<!-- Node2&#45;&gt;Node6 -->
<g id="edge6" class="edge">
<title>Node2&#45;&gt;Node6</title>
<path fill="none" stroke="midnightblue" d="M1581.15,-121.42C1409.65,-122.49 809.91,-122.44 318,-76 313.54,-75.58 308.89,-75.04 304.27,-74.43"/>
<polygon fill="midnightblue" stroke="midnightblue" points="1581.37,-124.92 1591.35,-121.35 1581.33,-117.92 1581.37,-124.92"/>
</g>
<!-- Node9 -->
<g id="node8" class="node">
<title>Node9</title>
<g id="a_node8"><a xlink:href="_c_f_d_sim_8_h.html" target="_top" xlink:title=" ">
<polygon fill="white" stroke="red" points="632,-56.5 632,-75.5 698,-75.5 698,-56.5 632,-56.5"/>
<text text-anchor="middle" x="665" y="-63.5" font-family="Helvetica,sans-Serif" font-size="10.00">CFDSim.H</text>
</a>
</g>
</g>
<!-- Node2&#45;&gt;Node9 -->
<g id="edge8" class="edge">
<title>Node2&#45;&gt;Node9</title>
<path fill="none" stroke="midnightblue" d="M1581.18,-121.01C1444.86,-120.53 1042.86,-115.6 712,-76 707.46,-75.46 702.71,-74.73 698.03,-73.93"/>
<polygon fill="midnightblue" stroke="midnightblue" points="1581.27,-124.51 1591.28,-121.04 1581.29,-117.51 1581.27,-124.51"/>
</g>
<!-- Node11 -->
<g id="node9" class="node">
<title>Node11</title>
<g id="a_node9"><a xlink:href="incflo_8_h.html" target="_top" xlink:title=" ">
<polygon fill="white" stroke="red" points="414.5,-0.5 414.5,-19.5 467.5,-19.5 467.5,-0.5 414.5,-0.5"/>
<text text-anchor="middle" x="441" y="-7.5" font-family="Helvetica,sans-Serif" font-size="10.00">incflo.H</text>
</a>
</g>
</g>
<!-- Node2&#45;&gt;Node11 -->
<g id="edge26" class="edge">
<title>Node2&#45;&gt;Node11</title>
<path fill="none" stroke="midnightblue" d="M1581.14,-121C1380.34,-120.75 611.72,-117.08 512,-76 482.95,-64.03 458.28,-34.59 447.22,-19.79"/>
<polygon fill="midnightblue" stroke="midnightblue" points="1581.36,-124.5 1591.36,-121.01 1581.37,-117.5 1581.36,-124.5"/>
</g>
<!-- Node89 -->
<g id="node10" class="node">
<title>Node89</title>
<g id="a_node10"><a xlink:href="_p_d_e_base_8cpp.html" target="_top" xlink:title=" ">
<polygon fill="white" stroke="black" points="316,-0.5 316,-19.5 396,-19.5 396,-0.5 316,-0.5"/>
<text text-anchor="middle" x="356" y="-7.5" font-family="Helvetica,sans-Serif" font-size="10.00">PDEBase.cpp</text>
</a>
</g>
</g>
<!-- Node2&#45;&gt;Node89 -->
<g id="edge43" class="edge">
<title>Node2&#45;&gt;Node89</title>
<path fill="none" stroke="midnightblue" d="M1580.89,-121.15C1353.36,-121.64 394.47,-121.03 351,-76 336.38,-60.85 345.64,-33.4 351.8,-19.52"/>
<polygon fill="midnightblue" stroke="midnightblue" points="1581.17,-124.65 1591.16,-121.13 1581.16,-117.65 1581.17,-124.65"/>
</g>
<!-- Node103 -->
<g id="node11" class="node">
<title>Node103</title>
<g id="a_node11"><a xlink:href="_i_b_8cpp.html" target="_top" xlink:title=" ">
<polygon fill="white" stroke="black" points="485.5,-0.5 485.5,-19.5 532.5,-19.5 532.5,-0.5 485.5,-0.5"/>
<text text-anchor="middle" x="509" y="-7.5" font-family="Helvetica,sans-Serif" font-size="10.00">IB.cpp</text>
</a>
</g>
</g>
<!-- Node2&#45;&gt;Node103 -->
<g id="edge51" class="edge">
<title>Node2&#45;&gt;Node103</title>
<path fill="none" stroke="midnightblue" d="M1580.97,-120.57C1374.55,-118.53 571.2,-108.52 529,-76 511.61,-62.59 508.93,-34.36 508.77,-19.92"/>
<polygon fill="midnightblue" stroke="midnightblue" points="1581.16,-124.07 1591.19,-120.67 1581.23,-117.07 1581.16,-124.07"/>
</g>
<!-- Node106 -->
<g id="node12" class="node">
<title>Node106</title>
<g id="a_node12"><a xlink:href="_tioga_interface_8cpp.html" target="_top" xlink:title=" ">
<polygon fill="white" stroke="black" points="550.5,-0.5 550.5,-19.5 657.5,-19.5 657.5,-0.5 550.5,-0.5"/>
<text text-anchor="middle" x="604" y="-7.5" font-family="Helvetica,sans-Serif" font-size="10.00">TiogaInterface.cpp</text>
</a>
</g>
</g>
<!-- Node2&#45;&gt;Node106 -->
<g id="edge52" class="edge">
<title>Node2&#45;&gt;Node106</title>
<path fill="none" stroke="midnightblue" d="M1580.99,-120.39C1385.9,-117.74 661.06,-105.88 623,-76 605.8,-62.5 603.56,-34.3 603.63,-19.89"/>
<polygon fill="midnightblue" stroke="midnightblue" points="1581.17,-123.9 1591.21,-120.53 1581.26,-116.9 1581.17,-123.9"/>
</g>
<!-- Node127 -->
<g id="node13" class="node">
<title>Node127</title>
<g id="a_node13"><a xlink:href="_vortex_ring_8cpp.html" target="_top" xlink:title=" ">
<polygon fill="white" stroke="black" points="676,-0.5 676,-19.5 766,-19.5 766,-0.5 676,-0.5"/>
<text text-anchor="middle" x="721" y="-7.5" font-family="Helvetica,sans-Serif" font-size="10.00">VortexRing.cpp</text>
</a>
</g>
</g>
<!-- Node2&#45;&gt;Node127 -->
<g id="edge57" class="edge">
<title>Node2&#45;&gt;Node127</title>
<path fill="none" stroke="midnightblue" d="M1581,-121.37C1430.41,-122.04 968.84,-120.35 827,-76 788.06,-63.82 748.84,-34.2 730.98,-19.52"/>
<polygon fill="midnightblue" stroke="midnightblue" points="1581.32,-124.87 1591.3,-121.32 1581.28,-117.87 1581.32,-124.87"/>
</g>
<!-- Node138 -->
<g id="node14" class="node">
<title>Node138</title>
<g id="a_node14"><a xlink:href="_re_averaging_8cpp.html" target="_top" xlink:title=" ">
<polygon fill="white" stroke="black" points="784,-0.5 784,-19.5 882,-19.5 882,-0.5 784,-0.5"/>
<text text-anchor="middle" x="833" y="-7.5" font-family="Helvetica,sans-Serif" font-size="10.00">ReAveraging.cpp</text>
</a>
</g>
</g>
<!-- Node2&#45;&gt;Node138 -->
<g id="edge60" class="edge">
<title>Node2&#45;&gt;Node138</title>
<path fill="none" stroke="midnightblue" d="M1581,-119.94C1414.16,-116.04 868.1,-101.38 841,-76 825.57,-61.54 828.34,-33.78 831.01,-19.68"/>
<polygon fill="midnightblue" stroke="midnightblue" points="1581.35,-123.45 1591.43,-120.18 1581.52,-116.45 1581.35,-123.45"/>
</g>
<!-- Node139 -->
<g id="node15" class="node">
<title>Node139</title>
<g id="a_node15"><a xlink:href="_reynolds_stress_8cpp.html" target="_top" xlink:title=" ">
<polygon fill="white" stroke="black" points="900,-0.5 900,-19.5 1012,-19.5 1012,-0.5 900,-0.5"/>
<text text-anchor="middle" x="956" y="-7.5" font-family="Helvetica,sans-Serif" font-size="10.00">ReynoldsStress.cpp</text>
</a>
</g>
</g>
<!-- Node2&#45;&gt;Node139 -->
<g id="edge61" class="edge">
<title>Node2&#45;&gt;Node139</title>
<path fill="none" stroke="midnightblue" d="M1580.94,-120.02C1415.17,-116.4 876.13,-102.63 851,-76 826.35,-49.88 878.91,-30.12 918.19,-19.57"/>
<polygon fill="midnightblue" stroke="midnightblue" points="1581.23,-123.53 1591.31,-120.24 1581.38,-116.53 1581.23,-123.53"/>
</g>
<!-- Node171 -->
<g id="node16" class="node">
<title>Node171</title>
<g id="a_node16"><a xlink:href="_actuator_8cpp.html" target="_top" xlink:title=" ">
<polygon fill="white" stroke="black" points="1030.5,-0.5 1030.5,-19.5 1107.5,-19.5 1107.5,-0.5 1030.5,-0.5"/>
<text text-anchor="middle" x="1069" y="-7.5" font-family="Helvetica,sans-Serif" font-size="10.00">Actuator.cpp</text>
</a>
</g>
</g>
<!-- Node2&#45;&gt;Node171 -->
<g id="edge67" class="edge">
<title>Node2&#45;&gt;Node171</title>
<path fill="none" stroke="midnightblue" d="M1581.15,-119.99C1416.77,-116.3 883.85,-102.35 859,-76 852.9,-69.53 853.41,-62.91 859,-56 861.71,-52.65 970.17,-30.64 1030.13,-18.69"/>
<polygon fill="midnightblue" stroke="midnightblue" points="1581.36,-123.5 1591.44,-120.22 1581.52,-116.5 1581.36,-123.5"/>
</g>
<!-- Node186 -->
<g id="node17" class="node">
<title>Node186</title>
<g id="a_node17"><a xlink:href="_godunov_8_h.html" target="_top" xlink:title=" ">
<polygon fill="white" stroke="red" points="868,-56.5 868,-75.5 938,-75.5 938,-56.5 868,-56.5"/>
<text text-anchor="middle" x="903" y="-63.5" font-family="Helvetica,sans-Serif" font-size="10.00">Godunov.H</text>
</a>
</g>
</g>
<!-- Node2&#45;&gt;Node186 -->
<g id="edge17" class="edge">
<title>Node2&#45;&gt;Node186</title>
<path fill="none" stroke="midnightblue" d="M1581.25,-120.08C1469.73,-117.44 1183.68,-107.86 947,-76 944.22,-75.63 941.35,-75.18 938.47,-74.69"/>
<polygon fill="midnightblue" stroke="midnightblue" points="1581.41,-123.58 1591.49,-120.31 1581.57,-116.58 1581.41,-123.58"/>
</g>
<!-- Node192 -->
<g id="node18" class="node">
<title>Node192</title>
<g id="a_node18"><a xlink:href="_m_o_l_8_h.html" target="_top" xlink:title=" ">
<polygon fill="white" stroke="red" points="956.5,-56.5 956.5,-75.5 1005.5,-75.5 1005.5,-56.5 956.5,-56.5"/>
<text text-anchor="middle" x="981" y="-63.5" font-family="Helvetica,sans-Serif" font-size="10.00">MOL.H</text>
</a>
</g>
</g>
<!-- Node2&#45;&gt;Node192 -->
<g id="edge18" class="edge">
<title>Node2&#45;&gt;Node192</title>
<path fill="none" stroke="midnightblue" d="M1581.18,-120.51C1477.37,-118.78 1223.92,-111 1015,-76 1011.99,-75.5 1008.86,-74.84 1005.77,-74.12"/>
<polygon fill="midnightblue" stroke="midnightblue" points="1581.28,-124.01 1591.33,-120.66 1581.39,-117.01 1581.28,-124.01"/>
</g>
<!-- Node195 -->
<g id="node19" class="node">
<title>Node195</title>
<g id="a_node19"><a xlink:href="_field_8cpp.html" target="_top" xlink:title=" ">
<polygon fill="white" stroke="black" points="1024,-56.5 1024,-75.5 1084,-75.5 1084,-56.5 1024,-56.5"/>
<text text-anchor="middle" x="1054" y="-63.5" font-family="Helvetica,sans-Serif" font-size="10.00">Field.cpp</text>
</a>
</g>
</g>
<!-- Node2&#45;&gt;Node195 -->
<g id="edge19" class="edge">
<title>Node2&#45;&gt;Node195</title>
<path fill="none" stroke="midnightblue" d="M1581.37,-119.29C1487.46,-115.41 1271.96,-104.01 1093,-76 1090.12,-75.55 1087.13,-75 1084.15,-74.41"/>
<polygon fill="midnightblue" stroke="midnightblue" points="1581.28,-122.79 1591.42,-119.69 1581.56,-115.79 1581.28,-122.79"/>
</g>
<!-- Node196 -->
<g id="node20" class="node">
<title>Node196</title>
<g id="a_node20"><a xlink:href="_field_repo_8cpp.html" target="_top" xlink:title=" ">
<polygon fill="white" stroke="black" points="1102.5,-56.5 1102.5,-75.5 1187.5,-75.5 1187.5,-56.5 1102.5,-56.5"/>
<text text-anchor="middle" x="1145" y="-63.5" font-family="Helvetica,sans-Serif" font-size="10.00">FieldRepo.cpp</text>
</a>
</g>
</g>
<!-- Node2&#45;&gt;Node196 -->
<g id="edge20" class="edge">
<title>Node2&#45;&gt;Node196</title>
<path fill="none" stroke="midnightblue" d="M1580.99,-117.13C1500.97,-110.44 1335.32,-95.51 1196,-76 1193.24,-75.61 1190.4,-75.19 1187.54,-74.74"/>
<polygon fill="midnightblue" stroke="midnightblue" points="1580.99,-120.65 1591.24,-117.99 1581.57,-113.67 1580.99,-120.65"/>
</g>
<!-- Node197 -->
<g id="node21" class="node">
<title>Node197</title>
<g id="a_node21"><a xlink:href="_int_field_8cpp.html" target="_top" xlink:title=" ">
<polygon fill="white" stroke="black" points="1205.5,-56.5 1205.5,-75.5 1278.5,-75.5 1278.5,-56.5 1205.5,-56.5"/>
<text text-anchor="middle" x="1242" y="-63.5" font-family="Helvetica,sans-Serif" font-size="10.00">IntField.cpp</text>
</a>
</g>
</g>
<!-- Node2&#45;&gt;Node197 -->
<g id="edge21" class="edge">
<title>Node2&#45;&gt;Node197</title>
<path fill="none" stroke="midnightblue" d="M1581.19,-115.64C1515.1,-108.01 1392.18,-93.05 1288,-76 1284.95,-75.5 1281.79,-74.95 1278.62,-74.38"/>
<polygon fill="midnightblue" stroke="midnightblue" points="1580.96,-119.14 1591.3,-116.8 1581.76,-112.18 1580.96,-119.14"/>
</g>
<!-- Node2&#45;&gt;Node198 -->
<g id="edge22" class="edge">
<title>Node2&#45;&gt;Node198</title>
<path fill="none" stroke="midnightblue" d="M1581.31,-120.41C1356.59,-117.5 401.89,-103.71 105,-76 102.11,-75.73 99.14,-75.41 96.15,-75.04"/>
<polygon fill="midnightblue" stroke="midnightblue" points="1581.41,-123.91 1591.45,-120.54 1581.5,-116.91 1581.41,-123.91"/>
</g>
<!-- Node2&#45;&gt;Node199 -->
<g id="edge23" class="edge">
<title>Node2&#45;&gt;Node199</title>
<path fill="none" stroke="midnightblue" d="M1581.38,-120.41C1366.11,-117.6 482.42,-104.51 207,-76 204.14,-75.7 201.19,-75.34 198.24,-74.93"/>
<polygon fill="midnightblue" stroke="midnightblue" points="1581.37,-123.91 1591.42,-120.54 1581.46,-116.91 1581.37,-123.91"/>
</g>
<!-- Node200 -->
<g id="node24" class="node">
<title>Node200</title>
<g id="a_node24"><a xlink:href="field__algebra_8cpp.html" target="_top" xlink:title=" ">
<polygon fill="white" stroke="black" points="1297,-56.5 1297,-75.5 1397,-75.5 1397,-56.5 1297,-56.5"/>
<text text-anchor="middle" x="1347" y="-63.5" font-family="Helvetica,sans-Serif" font-size="10.00">field_algebra.cpp</text>
</a>
</g>
</g>
<!-- Node2&#45;&gt;Node200 -->
<g id="edge24" class="edge">
<title>Node2&#45;&gt;Node200</title>
<path fill="none" stroke="midnightblue" d="M1581.42,-111.89C1528.37,-101.73 1443.24,-85.43 1391.48,-75.52"/>
<polygon fill="midnightblue" stroke="midnightblue" points="1580.78,-115.33 1591.26,-113.77 1582.1,-108.46 1580.78,-115.33"/>
</g>
<!-- Node201 -->
<g id="node25" class="node">
<title>Node201</title>
<g id="a_node25"><a xlink:href="diffusion_8_h.html" target="_top" xlink:title=" ">
<polygon fill="white" stroke="red" points="1415.5,-56.5 1415.5,-75.5 1484.5,-75.5 1484.5,-56.5 1415.5,-56.5"/>
<text text-anchor="middle" x="1450" y="-63.5" font-family="Helvetica,sans-Serif" font-size="10.00">diffusion.H</text>
</a>
</g>
</g>
<!-- Node2&#45;&gt;Node201 -->
<g id="edge25" class="edge">
<title>Node2&#45;&gt;Node201</title>
<path fill="none" stroke="midnightblue" d="M1590.67,-109.44C1556.92,-99.26 1508.55,-84.66 1478.23,-75.52"/>
<polygon fill="midnightblue" stroke="midnightblue" points="1590.05,-112.91 1600.64,-112.44 1592.07,-106.2 1590.05,-112.91"/>
</g>
<!-- Node202 -->
<g id="node26" class="node">
<title>Node202</title>
<g id="a_node26"><a xlink:href="_p_d_e_helpers_8_h.html" target="_top" xlink:title=" ">
<polygon fill="white" stroke="red" points="360,-56.5 360,-75.5 444,-75.5 444,-56.5 360,-56.5"/>
<text text-anchor="middle" x="402" y="-63.5" font-family="Helvetica,sans-Serif" font-size="10.00">PDEHelpers.H</text>
</a>
</g>
</g>
<!-- Node2&#45;&gt;Node202 -->
<g id="edge27" class="edge">
<title>Node2&#45;&gt;Node202</title>
<path fill="none" stroke="midnightblue" d="M1581.05,-121.23C1421.25,-121.56 892.41,-119.1 458,-76 453.49,-75.55 448.8,-74.98 444.13,-74.33"/>
<polygon fill="midnightblue" stroke="midnightblue" points="1581.48,-124.73 1591.48,-121.21 1581.47,-117.73 1581.48,-124.73"/>
</g>
<!-- Node203 -->
<g id="node27" class="node">
<title>Node203</title>
<g id="a_node27"><a xlink:href="_density_source_8_h.html" target="_top" xlink:title=" ">
<polygon fill="white" stroke="red" points="1503,-56.5 1503,-75.5 1601,-75.5 1601,-56.5 1503,-56.5"/>
<text text-anchor="middle" x="1552" y="-63.5" font-family="Helvetica,sans-Serif" font-size="10.00">DensitySource.H</text>
</a>
</g>
</g>
<!-- Node2&#45;&gt;Node203 -->
<g id="edge29" class="edge">
<title>Node2&#45;&gt;Node203</title>
<path fill="none" stroke="midnightblue" d="M1608.1,-106.34C1594.09,-96.52 1576.12,-83.91 1564.34,-75.65"/>
<polygon fill="midnightblue" stroke="midnightblue" points="1606.43,-109.45 1616.63,-112.32 1610.45,-103.72 1606.43,-109.45"/>
</g>
<!-- Node204 -->
<g id="node28" class="node">
<title>Node204</title>
<g id="a_node28"><a xlink:href="_momentum_source_8_h.html" target="_top" xlink:title=" ">
<polygon fill="white" stroke="red" points="1733,-56.5 1733,-75.5 1849,-75.5 1849,-56.5 1733,-56.5"/>
<text text-anchor="middle" x="1791" y="-63.5" font-family="Helvetica,sans-Serif" font-size="10.00">MomentumSource.H</text>
</a>
</g>
</g>
<!-- Node2&#45;&gt;Node204 -->
<g id="edge30" class="edge">
<title>Node2&#45;&gt;Node204</title>
<path fill="none" stroke="midnightblue" d="M1664.48,-109.17C1694.99,-99 1738.24,-84.59 1765.45,-75.52"/>
<polygon fill="midnightblue" stroke="midnightblue" points="1663.05,-105.96 1654.67,-112.44 1665.26,-112.6 1663.05,-105.96"/>
</g>
<!-- Node71 -->
<g id="node29" class="node">
<title>Node71</title>
<g id="a_node29"><a xlink:href="_a_b_l_mean_boussinesq_8_h.html" target="_top" xlink:title=" ">
<polygon fill="white" stroke="red" points="1386,-0.5 1386,-19.5 1514,-19.5 1514,-0.5 1386,-0.5"/>
<text text-anchor="middle" x="1450" y="-7.5" font-family="Helvetica,sans-Serif" font-size="10.00">ABLMeanBoussinesq.H</text>
</a>
</g>
</g>
<!-- Node2&#45;&gt;Node71 -->
<g id="edge37" class="edge">
<title>Node2&#45;&gt;Node71</title>
<path fill="none" stroke="midnightblue" d="M1628.22,-101.76C1626.61,-87.3 1622.13,-68.01 1610,-56 1594.36,-40.52 1540.58,-27.52 1499.64,-19.53"/>
<polygon fill="midnightblue" stroke="midnightblue" points="1624.76,-102.36 1628.99,-112.08 1631.74,-101.85 1624.76,-102.36"/>
</g>
<!-- Node208 -->
<g id="node30" class="node">
<title>Node208</title>
<g id="a_node30"><a xlink:href="_boussinesq_buoyancy_8_h.html" target="_top" xlink:title=" ">
<polygon fill="white" stroke="red" points="1532.5,-0.5 1532.5,-19.5 1661.5,-19.5 1661.5,-0.5 1532.5,-0.5"/>
<text text-anchor="middle" x="1597" y="-7.5" font-family="Helvetica,sans-Serif" font-size="10.00">BoussinesqBuoyancy.H</text>
</a>
</g>
</g>
<!-- Node2&#45;&gt;Node208 -->
<g id="edge38" class="edge">
<title>Node2&#45;&gt;Node208</title>
<path fill="none" stroke="midnightblue" d="M1638.46,-103.2C1644.25,-89.83 1649.42,-71.26 1643,-56 1636.5,-40.55 1621.83,-27.76 1610.79,-19.81"/>
<polygon fill="midnightblue" stroke="midnightblue" points="1635.28,-101.75 1634.1,-112.28 1641.59,-104.78 1635.28,-101.75"/>
</g>
<!-- Node209 -->
<g id="node31" class="node">
<title>Node209</title>
<g id="a_node31"><a xlink:href="_coriolis_forcing_8_h.html" target="_top" xlink:title=" ">
<polygon fill="white" stroke="red" points="1679.5,-0.5 1679.5,-19.5 1778.5,-19.5 1778.5,-0.5 1679.5,-0.5"/>
<text text-anchor="middle" x="1729" y="-7.5" font-family="Helvetica,sans-Serif" font-size="10.00">CoriolisForcing.H</text>
</a>
</g>
</g>
<!-- Node2&#45;&gt;Node209 -->
<g id="edge39" class="edge">
<title>Node2&#45;&gt;Node209</title>
<path fill="none" stroke="midnightblue" d="M1643.64,-104.9C1665.14,-81.25 1704.5,-37.95 1721.19,-19.59"/>
<polygon fill="midnightblue" stroke="midnightblue" points="1640.98,-102.61 1636.85,-112.37 1646.16,-107.32 1640.98,-102.61"/>
</g>
<!-- Node210 -->
<g id="node32" class="node">
<title>Node210</title>
<g id="a_node32"><a xlink:href="_density_buoyancy_8_h.html" target="_top" xlink:title=" ">
<polygon fill="white" stroke="red" points="1796.5,-0.5 1796.5,-19.5 1907.5,-19.5 1907.5,-0.5 1796.5,-0.5"/>
<text text-anchor="middle" x="1852" y="-7.5" font-family="Helvetica,sans-Serif" font-size="10.00">DensityBuoyancy.H</text>
</a>
</g>
</g>
<!-- Node2&#45;&gt;Node210 -->
<g id="edge40" class="edge">
<title>Node2&#45;&gt;Node210</title>
<path fill="none" stroke="midnightblue" d="M1676.63,-118.55C1736.87,-114.34 1835.49,-103.36 1858,-76 1871.25,-59.9 1862.35,-33.36 1856.3,-19.71"/>
<polygon fill="midnightblue" stroke="midnightblue" points="1676.33,-115.06 1666.58,-119.21 1676.79,-122.05 1676.33,-115.06"/>
</g>
<!-- Node212 -->
<g id="node33" class="node">
<title>Node212</title>
<g id="a_node33"><a xlink:href="_gravity_forcing_8_h.html" target="_top" xlink:title=" ">
<polygon fill="white" stroke="red" points="1926,-0.5 1926,-19.5 2024,-19.5 2024,-0.5 1926,-0.5"/>
<text text-anchor="middle" x="1975" y="-7.5" font-family="Helvetica,sans-Serif" font-size="10.00">GravityForcing.H</text>
</a>
</g>
</g>
<!-- Node2&#45;&gt;Node212 -->
<g id="edge41" class="edge">
<title>Node2&#45;&gt;Node212</title>
<path fill="none" stroke="midnightblue" d="M1676.75,-117.97C1727.68,-113.45 1809.93,-102.43 1876,-76 1911.7,-61.72 1948.07,-33.62 1965.08,-19.51"/>
<polygon fill="midnightblue" stroke="midnightblue" points="1676.36,-114.49 1666.69,-118.81 1676.95,-121.46 1676.36,-114.49"/>
</g>
<!-- Node214 -->
<g id="node34" class="node">
<title>Node214</title>
<g id="a_node34"><a xlink:href="_m_m_s_forcing_8_h.html" target="_top" xlink:title=" ">
<polygon fill="white" stroke="red" points="2042,-0.5 2042,-19.5 2128,-19.5 2128,-0.5 2042,-0.5"/>
<text text-anchor="middle" x="2085" y="-7.5" font-family="Helvetica,sans-Serif" font-size="10.00">MMSForcing.H</text>
</a>
</g>
</g>
<!-- Node2&#45;&gt;Node214 -->
<g id="edge53" class="edge">
<title>Node2&#45;&gt;Node214</title>
<path fill="none" stroke="midnightblue" d="M1676.64,-116.2C1732.83,-109.89 1828.75,-97.05 1909,-76 1939.33,-68.04 2023.56,-35.3 2063.48,-19.55"/>
<polygon fill="midnightblue" stroke="midnightblue" points="1676.18,-112.73 1666.62,-117.31 1676.94,-119.69 1676.18,-112.73"/>
</g>
<!-- Node215 -->
<g id="node35" class="node">
<title>Node215</title>
<g id="a_node35"><a xlink:href="_source_term_8_h.html" target="_top" xlink:title=" ">
<polygon fill="white" stroke="red" points="1981,-56.5 1981,-75.5 2065,-75.5 2065,-56.5 1981,-56.5"/>
<text text-anchor="middle" x="2023" y="-63.5" font-family="Helvetica,sans-Serif" font-size="10.00">SourceTerm.H</text>
</a>
</g>
</g>
<!-- Node2&#45;&gt;Node215 -->
<g id="edge42" class="edge">
<title>Node2&#45;&gt;Node215</title>
<path fill="none" stroke="midnightblue" d="M1676.57,-115.08C1742.05,-106.83 1863.59,-91.19 1967,-76 1971.48,-75.34 1976.16,-74.63 1980.82,-73.9"/>
<polygon fill="midnightblue" stroke="midnightblue" points="1676.04,-111.62 1666.56,-116.34 1676.92,-118.56 1676.04,-111.62"/>
</g>
<!-- Node216 -->
<g id="node36" class="node">
<title>Node216</title>
<g id="a_node36"><a xlink:href="_s_d_r_source_8_h.html" target="_top" xlink:title=" ">
<polygon fill="white" stroke="red" points="2083,-56.5 2083,-75.5 2163,-75.5 2163,-56.5 2083,-56.5"/>
<text text-anchor="middle" x="2123" y="-63.5" font-family="Helvetica,sans-Serif" font-size="10.00">SDRSource.H</text>
</a>
</g>
</g>
<!-- Node2&#45;&gt;Node216 -->
<g id="edge44" class="edge">
<title>Node2&#45;&gt;Node216</title>
<path fill="none" stroke="midnightblue" d="M1677.09,-117.42C1758.88,-111.04 1930.16,-96.45 2074,-76 2076.91,-75.59 2079.91,-75.12 2082.93,-74.63"/>
<polygon fill="midnightblue" stroke="midnightblue" points="1676.33,-113.97 1666.63,-118.23 1676.87,-120.95 1676.33,-113.97"/>
</g>
<!-- Node218 -->
<g id="node37" class="node">
<title>Node218</title>
<g id="a_node37"><a xlink:href="_temperature_source_8_h.html" target="_top" xlink:title=" ">
<polygon fill="white" stroke="red" points="2181,-56.5 2181,-75.5 2303,-75.5 2303,-56.5 2181,-56.5"/>
<text text-anchor="middle" x="2242" y="-63.5" font-family="Helvetica,sans-Serif" font-size="10.00">TemperatureSource.H</text>
</a>
</g>
</g>
<!-- Node2&#45;&gt;Node218 -->
<g id="edge45" class="edge">
<title>Node2&#45;&gt;Node218</title>
<path fill="none" stroke="midnightblue" d="M1676.69,-117.78C1771.28,-111.22 1989.3,-95.31 2172,-76 2174.92,-75.69 2177.92,-75.36 2180.94,-75.02"/>
<polygon fill="midnightblue" stroke="midnightblue" points="1676.31,-114.29 1666.58,-118.47 1676.8,-121.28 1676.31,-114.29"/>
</g>
<!-- Node219 -->
<g id="node38" class="node">
<title>Node219</title>
<g id="a_node38"><a xlink:href="_t_k_e_source_8_h.html" target="_top" xlink:title=" ">
<polygon fill="white" stroke="red" points="2321.5,-56.5 2321.5,-75.5 2400.5,-75.5 2400.5,-56.5 2321.5,-56.5"/>
<text text-anchor="middle" x="2361" y="-63.5" font-family="Helvetica,sans-Serif" font-size="10.00">TKESource.H</text>
</a>
</g>
</g>
<!-- Node2&#45;&gt;Node219 -->
<g id="edge46" class="edge">
<title>Node2&#45;&gt;Node219</title>
<path fill="none" stroke="midnightblue" d="M1676.78,-119.76C1788.37,-116.43 2074.67,-105.51 2312,-76 2315.09,-75.62 2318.28,-75.16 2321.48,-74.66"/>
<polygon fill="midnightblue" stroke="midnightblue" points="1676.43,-116.26 1666.53,-120.05 1676.63,-123.26 1676.43,-116.26"/>
</g>
<!-- Node223 -->
<g id="node39" class="node">
<title>Node223</title>
<g id="a_node39"><a xlink:href="_split_advection_8_h.html" target="_top" xlink:title=" ">
<polygon fill="white" stroke="red" points="2418,-56.5 2418,-75.5 2516,-75.5 2516,-56.5 2418,-56.5"/>
<text text-anchor="middle" x="2467" y="-63.5" font-family="Helvetica,sans-Serif" font-size="10.00">SplitAdvection.H</text>
</a>
</g>
</g>
<!-- Node2&#45;&gt;Node223 -->
<g id="edge47" class="edge">
<title>Node2&#45;&gt;Node223</title>
<path fill="none" stroke="midnightblue" d="M1677,-119.84C1799.36,-116.53 2132.78,-105.33 2409,-76 2411.94,-75.69 2414.96,-75.33 2418,-74.94"/>
<polygon fill="midnightblue" stroke="midnightblue" points="1676.75,-116.34 1666.85,-120.11 1676.94,-123.34 1676.75,-116.34"/>
</g>
<!-- Node225 -->
<g id="node40" class="node">
<title>Node225</title>
<g id="a_node40"><a xlink:href="fvm__utils_8_h.html" target="_top" xlink:title=" ">
<polygon fill="white" stroke="red" points="2534.5,-56.5 2534.5,-75.5 2607.5,-75.5 2607.5,-56.5 2534.5,-56.5"/>
<text text-anchor="middle" x="2571" y="-63.5" font-family="Helvetica,sans-Serif" font-size="10.00">fvm_utils.H</text>
</a>
</g>
</g>
<!-- Node2&#45;&gt;Node225 -->
<g id="edge48" class="edge">
<title>Node2&#45;&gt;Node225</title>
<path fill="none" stroke="midnightblue" d="M1677.08,-121C1811.57,-120.47 2202.88,-115.4 2525,-76 2528.07,-75.62 2531.24,-75.16 2534.42,-74.65"/>
<polygon fill="midnightblue" stroke="midnightblue" points="1676.71,-117.5 1666.72,-121.03 1676.73,-124.5 1676.71,-117.5"/>
</g>
<!-- Node236 -->
<g id="node41" class="node">
<title>Node236</title>
<g id="a_node41"><a xlink:href="_i_b_8_h.html" target="_top" xlink:title=" ">
<polygon fill="white" stroke="red" points="538.5,-56.5 538.5,-75.5 575.5,-75.5 575.5,-56.5 538.5,-56.5"/>
<text text-anchor="middle" x="557" y="-63.5" font-family="Helvetica,sans-Serif" font-size="10.00">IB.H</text>
</a>
</g>
</g>
<!-- Node2&#45;&gt;Node236 -->
<g id="edge49" class="edge">
<title>Node2&#45;&gt;Node236</title>
<path fill="none" stroke="midnightblue" d="M1581.25,-120.34C1404.12,-117.69 784.91,-106.41 590,-76 585.31,-75.27 580.32,-74.11 575.69,-72.87"/>
<polygon fill="midnightblue" stroke="midnightblue" points="1581.25,-123.84 1591.3,-120.49 1581.35,-116.85 1581.25,-123.84"/>
</g>
<!-- Node237 -->
<g id="node42" class="node">
<title>Node237</title>
<g id="a_node42"><a xlink:href="_linear_profile_8cpp.html" target="_top" xlink:title=" ">
<polygon fill="white" stroke="black" points="2626,-56.5 2626,-75.5 2724,-75.5 2724,-56.5 2626,-56.5"/>
<text text-anchor="middle" x="2675" y="-63.5" font-family="Helvetica,sans-Serif" font-size="10.00">LinearProfile.cpp</text>
</a>
</g>
</g>
<!-- Node2&#45;&gt;Node237 -->
<g id="edge54" class="edge">
<title>Node2&#45;&gt;Node237</title>
<path fill="none" stroke="midnightblue" d="M1676.94,-120.61C1820,-119.06 2256.29,-111.54 2616,-76 2619.2,-75.68 2622.48,-75.31 2625.79,-74.9"/>
<polygon fill="midnightblue" stroke="midnightblue" points="1676.72,-117.11 1666.75,-120.72 1676.79,-124.11 1676.72,-117.11"/>
</g>
<!-- Node44 -->
<g id="node43" class="node">
<title>Node44</title>
<g id="a_node43"><a xlink:href="_power_law_profile_8cpp.html" target="_top" xlink:title=" ">
<polygon fill="white" stroke="black" points="2742.5,-56.5 2742.5,-75.5 2859.5,-75.5 2859.5,-56.5 2742.5,-56.5"/>
<text text-anchor="middle" x="2801" y="-63.5" font-family="Helvetica,sans-Serif" font-size="10.00">PowerLawProfile.cpp</text>
</a>
</g>
</g>
<!-- Node2&#45;&gt;Node44 -->
<g id="edge55" class="edge">
<title>Node2&#45;&gt;Node44</title>
<path fill="none" stroke="midnightblue" d="M1676.77,-120.6C1830.36,-118.99 2325.26,-111.22 2733,-76 2736.08,-75.73 2739.24,-75.43 2742.43,-75.1"/>
<polygon fill="midnightblue" stroke="midnightblue" points="1676.69,-117.1 1666.73,-120.7 1676.76,-124.1 1676.69,-117.1"/>
</g>
<!-- Node238 -->
<g id="node44" class="node">
<title>Node238</title>
<g id="a_node44"><a xlink:href="_u_d_f_8cpp.html" target="_top" xlink:title=" ">
<polygon fill="white" stroke="black" points="2878,-56.5 2878,-75.5 2934,-75.5 2934,-56.5 2878,-56.5"/>
<text text-anchor="middle" x="2906" y="-63.5" font-family="Helvetica,sans-Serif" font-size="10.00">UDF.cpp</text>
</a>
</g>
</g>
<!-- Node2&#45;&gt;Node238 -->
<g id="edge56" class="edge">
<title>Node2&#45;&gt;Node238</title>
<path fill="none" stroke="midnightblue" d="M1676.81,-120.52C1874.85,-118.33 2631.47,-107.99 2868,-76 2871.22,-75.56 2874.58,-74.97 2877.89,-74.31"/>
<polygon fill="midnightblue" stroke="midnightblue" points="1676.69,-117.02 1666.73,-120.63 1676.76,-124.02 1676.69,-117.02"/>
</g>
<!-- Node239 -->
<g id="node45" class="node">
<title>Node239</title>
<g id="a_node45"><a xlink:href="_transport_model_8_h.html" target="_top" xlink:title=" ">
<polygon fill="white" stroke="red" points="2952,-56.5 2952,-75.5 3054,-75.5 3054,-56.5 2952,-56.5"/>
<text text-anchor="middle" x="3003" y="-63.5" font-family="Helvetica,sans-Serif" font-size="10.00">TransportModel.H</text>
</a>
</g>
</g>
<!-- Node2&#45;&gt;Node239 -->
<g id="edge58" class="edge">
<title>Node2&#45;&gt;Node239</title>
<path fill="none" stroke="midnightblue" d="M1676.95,-121.34C1848.81,-122.13 2449.85,-121.28 2943,-76 2945.94,-75.73 2948.95,-75.41 2951.99,-75.06"/>
<polygon fill="midnightblue" stroke="midnightblue" points="1676.75,-117.84 1666.73,-121.29 1676.71,-124.84 1676.75,-117.84"/>
</g>
<!-- Node133 -->
<g id="node46" class="node">
<title>Node133</title>
<g id="a_node46"><a xlink:href="_smagorinsky_8_h.html" target="_top" xlink:title=" ">
<polygon fill="white" stroke="red" points="3072.5,-56.5 3072.5,-75.5 3161.5,-75.5 3161.5,-56.5 3072.5,-56.5"/>
<text text-anchor="middle" x="3117" y="-63.5" font-family="Helvetica,sans-Serif" font-size="10.00">Smagorinsky.H</text>
</a>
</g>
</g>
<!-- Node2&#45;&gt;Node133 -->
<g id="edge59" class="edge">
<title>Node2&#45;&gt;Node133</title>
<path fill="none" stroke="midnightblue" d="M1676.66,-120.36C1893.1,-117.34 2784.97,-103.41 3063,-76 3066.03,-75.7 3069.14,-75.34 3072.27,-74.93"/>
<polygon fill="midnightblue" stroke="midnightblue" points="1676.52,-116.86 1666.57,-120.5 1676.62,-123.86 1676.52,-116.86"/>
</g>
<!-- Node169 -->
<g id="node47" class="node">
<title>Node169</title>
<g id="a_node47"><a xlink:href="_act_src_line_op_8_h.html" target="_top" xlink:title=" ">
<polygon fill="white" stroke="red" points="3180,-56.5 3180,-75.5 3272,-75.5 3272,-56.5 3180,-56.5"/>
<text text-anchor="middle" x="3226" y="-63.5" font-family="Helvetica,sans-Serif" font-size="10.00">ActSrcLineOp.H</text>
</a>
</g>
</g>
<!-- Node2&#45;&gt;Node169 -->
<g id="edge62" class="edge">
<title>Node2&#45;&gt;Node169</title>
<path fill="none" stroke="midnightblue" d="M1676.85,-120.44C1903.4,-117.68 2869.67,-104.4 3170,-76 3173.24,-75.69 3176.57,-75.32 3179.92,-74.89"/>
<polygon fill="midnightblue" stroke="midnightblue" points="1676.58,-116.95 1666.63,-120.57 1676.67,-123.95 1676.58,-116.95"/>
</g>
<!-- Node176 -->
<g id="node48" class="node">
<title>Node176</title>
<g id="a_node48"><a xlink:href="_act_src_disk_op___turbine_8_h.html" target="_top" xlink:title=" ">
<polygon fill="white" stroke="red" points="3290,-56.5 3290,-75.5 3424,-75.5 3424,-56.5 3290,-56.5"/>
<text text-anchor="middle" x="3357" y="-63.5" font-family="Helvetica,sans-Serif" font-size="10.00">ActSrcDiskOp_Turbine.H</text>
</a>
</g>
</g>
<!-- Node2&#45;&gt;Node176 -->
<g id="edge63" class="edge">
<title>Node2&#45;&gt;Node176</title>
<path fill="none" stroke="midnightblue" d="M1676.62,-121.28C1874.03,-122.1 2647.41,-122.05 3281,-76 3283.92,-75.79 3286.89,-75.55 3289.89,-75.28"/>
<polygon fill="midnightblue" stroke="midnightblue" points="1676.6,-117.78 1666.58,-121.23 1676.56,-124.78 1676.6,-117.78"/>
</g>
<!-- Node177 -->
<g id="node49" class="node">
<title>Node177</title>
<g id="a_node49"><a xlink:href="_act_src_disk_op_8_h.html" target="_top" xlink:title=" ">
<polygon fill="white" stroke="red" points="3428.5,-0.5 3428.5,-19.5 3521.5,-19.5 3521.5,-0.5 3428.5,-0.5"/>
<text text-anchor="middle" x="3475" y="-7.5" font-family="Helvetica,sans-Serif" font-size="10.00">ActSrcDiskOp.H</text>
</a>
</g>
</g>
<!-- Node2&#45;&gt;Node177 -->
<g id="edge64" class="edge">
<title>Node2&#45;&gt;Node177</title>
<path fill="none" stroke="midnightblue" d="M1676.66,-121.06C1954.37,-121.28 3354.25,-120.15 3433,-76 3455.03,-63.65 3467.36,-34.38 3472.35,-19.71"/>
<polygon fill="midnightblue" stroke="midnightblue" points="1676.51,-117.56 1666.51,-121.05 1676.51,-124.56 1676.51,-117.56"/>
</g>
<!-- Node243 -->
<g id="node50" class="node">
<title>Node243</title>
<g id="a_node50"><a xlink:href="disk__spreading_8_h.html" target="_top" xlink:title=" ">
<polygon fill="white" stroke="red" points="3480.5,-56.5 3480.5,-75.5 3581.5,-75.5 3581.5,-56.5 3480.5,-56.5"/>
<text text-anchor="middle" x="3531" y="-63.5" font-family="Helvetica,sans-Serif" font-size="10.00">disk_spreading.H</text>
</a>
</g>
</g>
<!-- Node2&#45;&gt;Node243 -->
<g id="edge65" class="edge">
<title>Node2&#45;&gt;Node243</title>
<path fill="none" stroke="midnightblue" d="M1676.78,-120.56C1928.56,-118.15 3103.35,-105.45 3466,-76 3470.66,-75.62 3475.49,-75.13 3480.32,-74.58"/>
<polygon fill="midnightblue" stroke="midnightblue" points="1676.48,-117.07 1666.51,-120.66 1676.54,-124.06 1676.48,-117.07"/>
</g>
<!-- Node4&#45;&gt;Node3 -->
<g id="edge4" class="edge">
<title>Node4&#45;&gt;Node3</title>
<path fill="none" stroke="midnightblue" d="M3670.17,-50.62C3655.19,-40.76 3635.8,-27.99 3623.14,-19.65"/>
<polygon fill="midnightblue" stroke="midnightblue" points="3668.55,-53.75 3678.83,-56.32 3672.4,-47.9 3668.55,-53.75"/>
</g>
<!-- Node5 -->
<g id="node5" class="node">
<title>Node5</title>
<g id="a_node5"><a xlink:href="_fixed_gradient_b_c_8cpp.html" target="_top" xlink:title=" ">
<polygon fill="white" stroke="black" points="3675,-0.5 3675,-19.5 3793,-19.5 3793,-0.5 3675,-0.5"/>
<text text-anchor="middle" x="3734" y="-7.5" font-family="Helvetica,sans-Serif" font-size="10.00">FixedGradientBC.cpp</text>
</a>
</g>
</g>
<!-- Node4&#45;&gt;Node5 -->
<g id="edge5" class="edge">
<title>Node4&#45;&gt;Node5</title>
<path fill="none" stroke="midnightblue" d="M3705.11,-48.14C3712.43,-38.74 3721.24,-27.4 3727.19,-19.75"/>
<polygon fill="midnightblue" stroke="midnightblue" points="3702.31,-46.04 3698.94,-56.08 3707.84,-50.34 3702.31,-46.04"/>
</g>
<!-- Node7 -->
<g id="node7" class="node">
<title>Node7</title>
<g id="a_node7"><a xlink:href="icns__bcop_8_h.html" target="_top" xlink:title=" ">
<polygon fill="white" stroke="red" points="222.5,-0.5 222.5,-19.5 297.5,-19.5 297.5,-0.5 222.5,-0.5"/>
<text text-anchor="middle" x="260" y="-7.5" font-family="Helvetica,sans-Serif" font-size="10.00">icns_bcop.H</text>
</a>
</g>
</g>
<!-- Node6&#45;&gt;Node7 -->
<g id="edge7" class="edge">
<title>Node6&#45;&gt;Node7</title>
<path fill="none" stroke="midnightblue" d="M260,-45.8C260,-36.91 260,-26.78 260,-19.75"/>
<polygon fill="midnightblue" stroke="midnightblue" points="256.5,-46.08 260,-56.08 263.5,-46.08 256.5,-46.08"/>
</g>
<!-- Node9&#45;&gt;Node11 -->
<g id="edge9" class="edge">
<title>Node9&#45;&gt;Node11</title>
<path fill="none" stroke="midnightblue" d="M622.04,-55C583.7,-46.03 526.04,-32.39 476,-20 473.32,-19.34 470.53,-18.64 467.74,-17.93"/>
<polygon fill="midnightblue" stroke="midnightblue" points="621.3,-58.43 631.84,-57.29 622.9,-51.61 621.3,-58.43"/>
</g>
<!-- Node9&#45;&gt;Node89 -->
<g id="edge10" class="edge">
<title>Node9&#45;&gt;Node89</title>
<path fill="none" stroke="midnightblue" d="M621.61,-57.63C569.97,-48.83 481.16,-33.58 405,-20 402.1,-19.48 399.11,-18.95 396.11,-18.4"/>
<polygon fill="midnightblue" stroke="midnightblue" points="621.29,-61.13 631.74,-59.36 622.47,-54.23 621.29,-61.13"/>
</g>
<!-- Node9&#45;&gt;Node103 -->
<g id="edge11" class="edge">
<title>Node9&#45;&gt;Node103</title>
<path fill="none" stroke="midnightblue" d="M630.71,-53.13C600.96,-42.83 558.67,-28.19 532.58,-19.16"/>
<polygon fill="midnightblue" stroke="midnightblue" points="629.69,-56.48 640.28,-56.44 631.98,-49.86 629.69,-56.48"/>
</g>
<!-- Node9&#45;&gt;Node106 -->
<g id="edge12" class="edge">
<title>Node9&#45;&gt;Node106</title>
<path fill="none" stroke="midnightblue" d="M647.53,-49.54C636.66,-39.91 623.06,-27.87 613.98,-19.83"/>
<polygon fill="midnightblue" stroke="midnightblue" points="645.39,-52.32 655.2,-56.32 650.03,-47.07 645.39,-52.32"/>
</g>
<!-- Node9&#45;&gt;Node127 -->
<g id="edge13" class="edge">
<title>Node9&#45;&gt;Node127</title>
<path fill="none" stroke="midnightblue" d="M681.33,-49.25C691.26,-39.67 703.59,-27.79 711.84,-19.83"/>
<polygon fill="midnightblue" stroke="midnightblue" points="678.77,-46.86 674,-56.32 683.63,-51.9 678.77,-46.86"/>
</g>
<!-- Node9&#45;&gt;Node138 -->
<g id="edge14" class="edge">
<title>Node9&#45;&gt;Node138</title>
<path fill="none" stroke="midnightblue" d="M701.39,-53.3C733.04,-43.13 778.17,-28.62 806.5,-19.52"/>
<polygon fill="midnightblue" stroke="midnightblue" points="700.07,-50.05 691.62,-56.44 702.21,-56.72 700.07,-50.05"/>
</g>
<!-- Node9&#45;&gt;Node139 -->
<g id="edge15" class="edge">
<title>Node9&#45;&gt;Node139</title>
<path fill="none" stroke="midnightblue" d="M708.06,-57.01C762.16,-46.97 854.6,-29.82 910.03,-19.53"/>
<polygon fill="midnightblue" stroke="midnightblue" points="707.29,-53.59 698.1,-58.86 708.57,-60.47 707.29,-53.59"/>
</g>
<!-- Node9&#45;&gt;Node171 -->
<g id="edge16" class="edge">
<title>Node9&#45;&gt;Node171</title>
<path fill="none" stroke="midnightblue" d="M708.69,-60.33C775.94,-52.94 908.83,-37.59 1021,-20 1024.02,-19.53 1027.13,-19.01 1030.26,-18.47"/>
<polygon fill="midnightblue" stroke="midnightblue" points="708.03,-56.88 698.47,-61.44 708.79,-63.84 708.03,-56.88"/>
</g>
<!-- Node202&#45;&gt;Node89 -->
<g id="edge28" class="edge">
<title>Node202&#45;&gt;Node89</title>
<path fill="none" stroke="midnightblue" d="M387.89,-48.43C379.82,-38.97 370.04,-27.48 363.45,-19.75"/>
<polygon fill="midnightblue" stroke="midnightblue" points="385.25,-50.74 394.4,-56.08 390.58,-46.2 385.25,-50.74"/>
</g>
<!-- Node204&#45;&gt;Node71 -->
<g id="edge31" class="edge">
<title>Node204&#45;&gt;Node71</title>
<path fill="none" stroke="midnightblue" d="M1726.93,-54.85C1662.5,-44.65 1564.28,-29.1 1503.78,-19.52"/>
<polygon fill="midnightblue" stroke="midnightblue" points="1726.54,-58.34 1736.97,-56.44 1727.64,-51.42 1726.54,-58.34"/>
</g>
<!-- Node204&#45;&gt;Node208 -->
<g id="edge32" class="edge">
<title>Node204&#45;&gt;Node208</title>
<path fill="none" stroke="midnightblue" d="M1750.4,-53.7C1713.78,-43.51 1660.74,-28.74 1627.6,-19.52"/>
<polygon fill="midnightblue" stroke="midnightblue" points="1749.69,-57.13 1760.26,-56.44 1751.56,-50.39 1749.69,-57.13"/>
</g>
<!-- Node204&#45;&gt;Node209 -->
<g id="edge33" class="edge">
<title>Node204&#45;&gt;Node209</title>
<path fill="none" stroke="midnightblue" d="M1773.25,-49.54C1762.19,-39.91 1748.37,-27.87 1739.14,-19.83"/>
<polygon fill="midnightblue" stroke="midnightblue" points="1771.2,-52.4 1781.04,-56.32 1775.8,-47.12 1771.2,-52.4"/>
</g>
<!-- Node204&#45;&gt;Node210 -->
<g id="edge34" class="edge">
<title>Node204&#45;&gt;Node210</title>
<path fill="none" stroke="midnightblue" d="M1808.47,-49.54C1819.34,-39.91 1832.94,-27.87 1842.02,-19.83"/>
<polygon fill="midnightblue" stroke="midnightblue" points="1805.97,-47.07 1800.8,-56.32 1810.61,-52.32 1805.97,-47.07"/>
</g>
<!-- Node204&#45;&gt;Node212 -->
<g id="edge35" class="edge">
<title>Node204&#45;&gt;Node212</title>
<path fill="none" stroke="midnightblue" d="M1829.95,-53.57C1864.66,-43.38 1914.68,-28.7 1945.98,-19.52"/>
<polygon fill="midnightblue" stroke="midnightblue" points="1828.77,-50.27 1820.16,-56.44 1830.74,-56.99 1828.77,-50.27"/>
</g>
<!-- Node204&#45;&gt;Node214 -->
<g id="edge36" class="edge">
<title>Node204&#45;&gt;Node214</title>
<path fill="none" stroke="midnightblue" d="M1847.48,-54.63C1904.26,-44.2 1990.53,-28.35 2041.98,-18.9"/>
<polygon fill="midnightblue" stroke="midnightblue" points="1846.79,-51.19 1837.59,-56.44 1848.05,-58.08 1846.79,-51.19"/>
</g>
<!-- Node236&#45;&gt;Node103 -->
<g id="edge50" class="edge">
<title>Node236&#45;&gt;Node103</title>
<path fill="none" stroke="midnightblue" d="M542.27,-48.43C533.86,-38.97 523.65,-27.48 516.78,-19.75"/>
<polygon fill="midnightblue" stroke="midnightblue" points="539.81,-50.93 549.07,-56.08 545.05,-46.28 539.81,-50.93"/>
</g>
<!-- Node243&#45;&gt;Node177 -->
<g id="edge66" class="edge">
<title>Node243&#45;&gt;Node177</title>
<path fill="none" stroke="midnightblue" d="M3514.67,-49.25C3504.74,-39.67 3492.41,-27.79 3484.16,-19.83"/>
<polygon fill="midnightblue" stroke="midnightblue" points="3512.37,-51.9 3522,-56.32 3517.23,-46.86 3512.37,-51.9"/>
</g>
</g>
</svg>
