<?xml version="1.0" encoding="UTF-8" standalone="no"?>
<!DOCTYPE svg PUBLIC "-//W3C//DTD SVG 1.1//EN"
 "http://www.w3.org/Graphics/SVG/1.1/DTD/svg11.dtd">
<!-- Generated by graphviz version 2.43.0 (0)
 -->
<!-- Title: Sphere.H Pages: 1 -->
<!--zoomable 464 -->
<svg id="main" version="1.1" xmlns="http://www.w3.org/2000/svg" xmlns:xlink="http://www.w3.org/1999/xlink" xml:space="preserve" onload="init(evt)">
<style type="text/css"><![CDATA[
.edge:hover path { stroke: red; }
.edge:hover polygon { stroke: red; fill: red; }
]]></style>
<script type="text/javascript"><![CDATA[
var edges = document.getElementsByTagName('g');
if (edges && edges.length) {
  for (var i=0;i<edges.length;i++) {
    if (edges[i].id.substr(0,4)=='edge') {
      edges[i].setAttribute('class','edge');
    }
  }
}
]]></script>
        <defs>
                <circle id="rim" cx="0" cy="0" r="7"/>
                <circle id="rim2" cx="0" cy="0" r="3.5"/>
                <g id="zoomPlus">
                        <use xlink:href="#rim" fill="#404040">
                                <set attributeName="fill" to="#808080" begin="zoomplus.mouseover" end="zoomplus.mouseout"/>
                        </use>
                        <path d="M-4,0h8M0,-4v8" fill="none" stroke="white" stroke-width="1.5" pointer-events="none"/>
                </g>
                <g id="zoomMin">
                        <use xlink:href="#rim" fill="#404040">
                                <set attributeName="fill" to="#808080" begin="zoomminus.mouseover" end="zoomminus.mouseout"/>
                        </use>
                        <path d="M-4,0h8" fill="none" stroke="white" stroke-width="1.5" pointer-events="none"/>
                </g>
                <g id="dirArrow">
                        <path fill="none" stroke="white" stroke-width="1.5" d="M0,-3.0v7 M-2.5,-0.5L0,-3.0L2.5,-0.5"/>
                </g>
               <g id="resetDef">
                       <use xlink:href="#rim2" fill="#404040">
                               <set attributeName="fill" to="#808080" begin="reset.mouseover" end="reset.mouseout"/>
                       </use>
               </g>
        </defs>

<script type="text/javascript">
var viewWidth = 606;
var viewHeight = 464;
var sectionId = 'dynsection-0';
</script>
<script xlink:href="svgpan.js"/>
<svg id="graph" class="graph">
<g id="viewport">
<title>Sphere.H</title>
<polygon fill="white" stroke="transparent" points="-4,4 -4,-460 602.31,-460 602.31,4 -4,4"/>
<!-- Node1 -->
<g id="node1" class="node">
<title>Node1</title>
<g id="a_node1"><a xlink:title=" ">
<polygon fill="#bfbfbf" stroke="black" points="319.92,-436.5 319.92,-455.5 380.92,-455.5 380.92,-436.5 319.92,-436.5"/>
<text text-anchor="middle" x="350.42" y="-443.5" font-family="Helvetica,sans-Serif" font-size="10.00">Sphere.H</text>
</a>
</g>
</g>
<!-- Node2 -->
<g id="node2" class="node">
<title>Node2</title>
<g id="a_node2"><a xlink:href="_bluff_body_8_h.html" target="_top" xlink:title=" ">
<polygon fill="white" stroke="black" points="266.92,-369.5 266.92,-399.5 433.92,-399.5 433.92,-369.5 266.92,-369.5"/>
<text text-anchor="start" x="274.92" y="-387.5" font-family="Helvetica,sans-Serif" font-size="10.00">amr&#45;wind/immersed_boundary</text>
<text text-anchor="middle" x="350.42" y="-376.5" font-family="Helvetica,sans-Serif" font-size="10.00">/bluff_body/BluffBody.H</text>
</a>
</g>
</g>
<!-- Node1&#45;&gt;Node2 -->
<g id="edge1" class="edge">
<title>Node1&#45;&gt;Node2</title>
<path fill="none" stroke="midnightblue" d="M350.42,-436.48C350.42,-429.47 350.42,-419.19 350.42,-409.7"/>
<polygon fill="midnightblue" stroke="midnightblue" points="353.92,-409.52 350.42,-399.52 346.92,-409.52 353.92,-409.52"/>
</g>
<!-- Node3 -->
<g id="node3" class="node">
<title>Node3</title>
<g id="a_node3"><a xlink:href="_i_b_types_8_h.html" target="_top" xlink:title=" ">
<polygon fill="white" stroke="black" points="141.92,-302.5 141.92,-332.5 308.92,-332.5 308.92,-302.5 141.92,-302.5"/>
<text text-anchor="start" x="149.92" y="-320.5" font-family="Helvetica,sans-Serif" font-size="10.00">amr&#45;wind/immersed_boundary</text>
<text text-anchor="middle" x="225.42" y="-309.5" font-family="Helvetica,sans-Serif" font-size="10.00">/IBTypes.H</text>
</a>
</g>
</g>
<!-- Node2&#45;&gt;Node3 -->
<g id="edge2" class="edge">
<title>Node2&#45;&gt;Node3</title>
<path fill="none" stroke="midnightblue" d="M323.29,-369.4C305.19,-359.98 281.19,-347.5 261.48,-337.26"/>
<polygon fill="midnightblue" stroke="midnightblue" points="262.97,-334.08 252.49,-332.58 259.74,-340.3 262.97,-334.08"/>
</g>
<!-- Node8 -->
<g id="node8" class="node">
<title>Node8</title>
<g id="a_node8"><a xlink:href="vector__space_8_h.html" target="_top" xlink:title=" ">
<polygon fill="white" stroke="black" points="297.92,-235.5 297.92,-265.5 432.92,-265.5 432.92,-235.5 297.92,-235.5"/>
<text text-anchor="start" x="305.92" y="-253.5" font-family="Helvetica,sans-Serif" font-size="10.00">amr&#45;wind/core/vs/vector</text>
<text text-anchor="middle" x="365.42" y="-242.5" font-family="Helvetica,sans-Serif" font-size="10.00">_space.H</text>
</a>
</g>
</g>
<!-- Node2&#45;&gt;Node8 -->
<g id="edge30" class="edge">
<title>Node2&#45;&gt;Node8</title>
<path fill="none" stroke="midnightblue" d="M352.02,-369.37C354.57,-346.94 359.57,-302.92 362.69,-275.49"/>
<polygon fill="midnightblue" stroke="midnightblue" points="366.17,-275.86 363.82,-265.52 359.21,-275.07 366.17,-275.86"/>
</g>
<!-- Node20 -->
<g id="node20" class="node">
<title>Node20</title>
<g id="a_node20"><a xlink:title=" ">
<polygon fill="white" stroke="#bfbfbf" points="378.42,-308 378.42,-327 422.42,-327 422.42,-308 378.42,-308"/>
<text text-anchor="middle" x="400.42" y="-315" font-family="Helvetica,sans-Serif" font-size="10.00">string</text>
</a>
</g>
</g>
<!-- Node2&#45;&gt;Node20 -->
<g id="edge31" class="edge">
<title>Node2&#45;&gt;Node20</title>
<path fill="none" stroke="midnightblue" d="M361.26,-369.4C368.98,-359.36 379.39,-345.84 387.53,-335.25"/>
<polygon fill="midnightblue" stroke="midnightblue" points="390.4,-337.25 393.73,-327.19 384.86,-332.99 390.4,-337.25"/>
</g>
<!-- Node4 -->
<g id="node4" class="node">
<title>Node4</title>
<g id="a_node4"><a xlink:href="_slice_8_h.html" target="_top" xlink:title=" ">
<polygon fill="white" stroke="black" points="29.42,-241 29.42,-260 153.42,-260 153.42,-241 29.42,-241"/>
<text text-anchor="middle" x="91.42" y="-248" font-family="Helvetica,sans-Serif" font-size="10.00">amr&#45;wind/core/Slice.H</text>
</a>
</g>
</g>
<!-- Node3&#45;&gt;Node4 -->
<g id="edge3" class="edge">
<title>Node3&#45;&gt;Node4</title>
<path fill="none" stroke="midnightblue" d="M196.34,-302.4C173.04,-291.09 140.61,-275.36 117.99,-264.39"/>
<polygon fill="midnightblue" stroke="midnightblue" points="119.48,-261.22 108.95,-260.01 116.42,-267.52 119.48,-261.22"/>
</g>
<!-- Node7 -->
<g id="node7" class="node">
<title>Node7</title>
<g id="a_node7"><a xlink:title=" ">
<polygon fill="white" stroke="#bfbfbf" points="33.92,-0.5 33.92,-19.5 120.92,-19.5 120.92,-0.5 33.92,-0.5"/>
<text text-anchor="middle" x="77.42" y="-7.5" font-family="Helvetica,sans-Serif" font-size="10.00">AMReX_Gpu.H</text>
</a>
</g>
</g>
<!-- Node3&#45;&gt;Node7 -->
<g id="edge28" class="edge">
<title>Node3&#45;&gt;Node7</title>
<path fill="none" stroke="midnightblue" d="M141.7,-304.79C92.96,-296.31 37.78,-283.3 20.42,-266 -4.25,-241.42 1.42,-224.82 1.42,-190 1.42,-190 1.42,-190 1.42,-132 1.42,-88.48 37.11,-47.77 59.58,-26.47"/>
<polygon fill="midnightblue" stroke="midnightblue" points="62.15,-28.86 67.17,-19.53 57.42,-23.7 62.15,-28.86"/>
</g>
<!-- Node3&#45;&gt;Node8 -->
<g id="edge7" class="edge">
<title>Node3&#45;&gt;Node8</title>
<path fill="none" stroke="midnightblue" d="M255.79,-302.4C276.34,-292.86 303.68,-280.16 325.91,-269.84"/>
<polygon fill="midnightblue" stroke="midnightblue" points="327.5,-272.96 335.1,-265.58 324.55,-266.61 327.5,-272.96"/>
</g>
<!-- Node19 -->
<g id="node19" class="node">
<title>Node19</title>
<g id="a_node19"><a xlink:title=" ">
<polygon fill="white" stroke="#bfbfbf" points="171.42,-241 171.42,-260 279.42,-260 279.42,-241 171.42,-241"/>
<text text-anchor="middle" x="225.42" y="-248" font-family="Helvetica,sans-Serif" font-size="10.00">AMReX_RealBox.H</text>
</a>
</g>
</g>
<!-- Node3&#45;&gt;Node19 -->
<g id="edge29" class="edge">
<title>Node3&#45;&gt;Node19</title>
<path fill="none" stroke="midnightblue" d="M225.42,-302.4C225.42,-293.06 225.42,-280.71 225.42,-270.52"/>
<polygon fill="midnightblue" stroke="midnightblue" points="228.92,-270.19 225.42,-260.19 221.92,-270.19 228.92,-270.19"/>
</g>
<!-- Node5 -->
<g id="node5" class="node">
<title>Node5</title>
<g id="a_node5"><a xlink:title=" ">
<polygon fill="white" stroke="#bfbfbf" points="67.92,-179.5 67.92,-198.5 120.92,-198.5 120.92,-179.5 67.92,-179.5"/>
<text text-anchor="middle" x="94.42" y="-186.5" font-family="Helvetica,sans-Serif" font-size="10.00">iterator</text>
</a>
</g>
</g>
<!-- Node4&#45;&gt;Node5 -->
<g id="edge4" class="edge">
<title>Node4&#45;&gt;Node5</title>
<path fill="none" stroke="midnightblue" d="M91.85,-240.98C92.27,-232.58 92.93,-219.48 93.47,-208.66"/>
<polygon fill="midnightblue" stroke="midnightblue" points="96.98,-208.67 93.99,-198.51 89.99,-208.32 96.98,-208.67"/>
</g>
<!-- Node6 -->
<g id="node6" class="node">
<title>Node6</title>
<g id="a_node6"><a xlink:title=" ">
<polygon fill="white" stroke="#bfbfbf" points="139.42,-179.5 139.42,-198.5 237.42,-198.5 237.42,-179.5 139.42,-179.5"/>
<text text-anchor="middle" x="188.42" y="-186.5" font-family="Helvetica,sans-Serif" font-size="10.00">AMReX_Vector.H</text>
</a>
</g>
</g>
<!-- Node4&#45;&gt;Node6 -->
<g id="edge5" class="edge">
<title>Node4&#45;&gt;Node6</title>
<path fill="none" stroke="midnightblue" d="M105.31,-240.98C121.09,-231.3 147.05,-215.37 165.76,-203.89"/>
<polygon fill="midnightblue" stroke="midnightblue" points="167.85,-206.72 174.54,-198.51 164.19,-200.75 167.85,-206.72"/>
</g>
<!-- Node4&#45;&gt;Node7 -->
<g id="edge6" class="edge">
<title>Node4&#45;&gt;Node7</title>
<path fill="none" stroke="midnightblue" d="M83.59,-241C75.48,-231.56 63.32,-215.46 58.42,-199 40.51,-138.85 59.97,-63.62 70.96,-29.43"/>
<polygon fill="midnightblue" stroke="midnightblue" points="74.31,-30.44 74.17,-19.84 67.67,-28.22 74.31,-30.44"/>
</g>
<!-- Node9 -->
<g id="node9" class="node">
<title>Node9</title>
<g id="a_node9"><a xlink:href="vector_8_h.html" target="_top" xlink:title=" ">
<polygon fill="white" stroke="black" points="173.92,-123.5 173.92,-142.5 318.92,-142.5 318.92,-123.5 173.92,-123.5"/>
<text text-anchor="middle" x="246.42" y="-130.5" font-family="Helvetica,sans-Serif" font-size="10.00">amr&#45;wind/core/vs/vector.H</text>
</a>
</g>
</g>
<!-- Node8&#45;&gt;Node9 -->
<g id="edge8" class="edge">
<title>Node8&#45;&gt;Node9</title>
<path fill="none" stroke="midnightblue" d="M344.49,-235.41C330.99,-225.86 313.4,-212.56 299.42,-199 283.96,-184.01 268.67,-164.65 258.52,-150.97"/>
<polygon fill="midnightblue" stroke="midnightblue" points="261.09,-148.55 252.37,-142.53 255.43,-152.67 261.09,-148.55"/>
</g>
<!-- Node16 -->
<g id="node16" class="node">
<title>Node16</title>
<g id="a_node16"><a xlink:href="tensor_8_h.html" target="_top" xlink:title=" ">
<polygon fill="white" stroke="black" points="308.92,-179.5 308.92,-198.5 453.92,-198.5 453.92,-179.5 308.92,-179.5"/>
<text text-anchor="middle" x="381.42" y="-186.5" font-family="Helvetica,sans-Serif" font-size="10.00">amr&#45;wind/core/vs/tensor.H</text>
</a>
</g>
</g>
<!-- Node8&#45;&gt;Node16 -->
<g id="edge17" class="edge">
<title>Node8&#45;&gt;Node16</title>
<path fill="none" stroke="midnightblue" d="M369.21,-235.4C371.36,-227.38 374.09,-217.23 376.42,-208.57"/>
<polygon fill="midnightblue" stroke="midnightblue" points="379.87,-209.22 379.09,-198.66 373.11,-207.41 379.87,-209.22"/>
</g>
<!-- Node9&#45;&gt;Node7 -->
<g id="edge9" class="edge">
<title>Node9&#45;&gt;Node7</title>
<path fill="none" stroke="midnightblue" d="M211.23,-123.48C187.52,-116.49 156.48,-104.81 133.42,-87 112.81,-71.09 96.22,-45.67 86.59,-28.66"/>
<polygon fill="midnightblue" stroke="midnightblue" points="89.6,-26.87 81.75,-19.76 83.45,-30.21 89.6,-26.87"/>
</g>
<!-- Node10 -->
<g id="node10" class="node">
<title>Node10</title>
<g id="a_node10"><a xlink:href="vstraits_8_h.html" target="_top" xlink:title=" ">
<polygon fill="white" stroke="black" points="310.42,-62 310.42,-81 462.42,-81 462.42,-62 310.42,-62"/>
<text text-anchor="middle" x="386.42" y="-69" font-family="Helvetica,sans-Serif" font-size="10.00">amr&#45;wind/core/vs/vstraits.H</text>
</a>
</g>
</g>
<!-- Node9&#45;&gt;Node10 -->
<g id="edge10" class="edge">
<title>Node9&#45;&gt;Node10</title>
<path fill="none" stroke="midnightblue" d="M266.47,-123.48C290.18,-113.4 329.82,-96.55 357,-85"/>
<polygon fill="midnightblue" stroke="midnightblue" points="358.56,-88.14 366.39,-81.01 355.82,-81.7 358.56,-88.14"/>
</g>
<!-- Node13 -->
<g id="node13" class="node">
<title>Node13</title>
<g id="a_node13"><a xlink:href="vector_i_8_h.html" target="_top" xlink:title=" ">
<polygon fill="white" stroke="black" points="142.92,-62 142.92,-81 291.92,-81 291.92,-62 142.92,-62"/>
<text text-anchor="middle" x="217.42" y="-69" font-family="Helvetica,sans-Serif" font-size="10.00">amr&#45;wind/core/vs/vectorI.H</text>
</a>
</g>
</g>
<!-- Node9&#45;&gt;Node13 -->
<g id="edge13" class="edge">
<title>Node9&#45;&gt;Node13</title>
<path fill="none" stroke="midnightblue" d="M237.36,-123.48C231.31,-114.9 224.29,-101.43 219.92,-90.48"/>
<polygon fill="midnightblue" stroke="midnightblue" points="223.23,-89.33 216.67,-81.01 216.61,-91.6 223.23,-89.33"/>
</g>
<!-- Node11 -->
<g id="node11" class="node">
<title>Node11</title>
<g id="a_node11"><a xlink:title=" ">
<polygon fill="white" stroke="#bfbfbf" points="350.42,-0.5 350.42,-19.5 394.42,-19.5 394.42,-0.5 350.42,-0.5"/>
<text text-anchor="middle" x="372.42" y="-7.5" font-family="Helvetica,sans-Serif" font-size="10.00">limits</text>
</a>
</g>
</g>
<!-- Node10&#45;&gt;Node11 -->
<g id="edge11" class="edge">
<title>Node10&#45;&gt;Node11</title>
<path fill="none" stroke="midnightblue" d="M384.41,-61.98C382.41,-53.49 379.29,-40.2 376.73,-29.32"/>
<polygon fill="midnightblue" stroke="midnightblue" points="380.12,-28.44 374.42,-19.51 373.3,-30.04 380.12,-28.44"/>
</g>
<!-- Node12 -->
<g id="node12" class="node">
<title>Node12</title>
<g id="a_node12"><a xlink:title=" ">
<polygon fill="white" stroke="#bfbfbf" points="412.42,-0.5 412.42,-19.5 504.42,-19.5 504.42,-0.5 412.42,-0.5"/>
<text text-anchor="middle" x="458.42" y="-7.5" font-family="Helvetica,sans-Serif" font-size="10.00">AMReX_REAL.H</text>
</a>
</g>
</g>
<!-- Node10&#45;&gt;Node12 -->
<g id="edge12" class="edge">
<title>Node10&#45;&gt;Node12</title>
<path fill="none" stroke="midnightblue" d="M396.73,-61.98C408.07,-52.61 426.49,-37.38 440.25,-26.01"/>
<polygon fill="midnightblue" stroke="midnightblue" points="442.64,-28.58 448.12,-19.51 438.18,-23.18 442.64,-28.58"/>
</g>
<!-- Node13&#45;&gt;Node9 -->
<g id="edge16" class="edge">
<title>Node13&#45;&gt;Node9</title>
<path fill="none" stroke="midnightblue" d="M226.46,-81.01C232.51,-89.57 239.53,-103.05 243.9,-114"/>
<polygon fill="midnightblue" stroke="midnightblue" points="240.6,-115.16 247.16,-123.48 247.22,-112.88 240.6,-115.16"/>
</g>
<!-- Node14 -->
<g id="node14" class="node">
<title>Node14</title>
<g id="a_node14"><a xlink:title=" ">
<polygon fill="white" stroke="#bfbfbf" points="188.92,-0.5 188.92,-19.5 245.92,-19.5 245.92,-0.5 188.92,-0.5"/>
<text text-anchor="middle" x="217.42" y="-7.5" font-family="Helvetica,sans-Serif" font-size="10.00">ostream</text>
</a>
</g>
</g>
<!-- Node13&#45;&gt;Node14 -->
<g id="edge14" class="edge">
<title>Node13&#45;&gt;Node14</title>
<path fill="none" stroke="midnightblue" d="M217.42,-61.98C217.42,-53.58 217.42,-40.48 217.42,-29.66"/>
<polygon fill="midnightblue" stroke="midnightblue" points="220.92,-29.51 217.42,-19.51 213.92,-29.51 220.92,-29.51"/>
</g>
<!-- Node15 -->
<g id="node15" class="node">
<title>Node15</title>
<g id="a_node15"><a xlink:title=" ">
<polygon fill="white" stroke="#bfbfbf" points="522.92,-0.5 522.92,-19.5 569.92,-19.5 569.92,-0.5 522.92,-0.5"/>
<text text-anchor="middle" x="546.42" y="-7.5" font-family="Helvetica,sans-Serif" font-size="10.00">cmath</text>
</a>
</g>
</g>
<!-- Node13&#45;&gt;Node15 -->
<g id="edge15" class="edge">
<title>Node13&#45;&gt;Node15</title>
<path fill="none" stroke="midnightblue" d="M266.71,-61.97C278.11,-60 290.18,-57.92 301.42,-56 392.49,-40.41 418.39,-40.57 512.72,-19.97"/>
<polygon fill="midnightblue" stroke="midnightblue" points="513.68,-23.34 522.69,-17.77 512.17,-16.5 513.68,-23.34"/>
</g>
<!-- Node16&#45;&gt;Node7 -->
<g id="edge18" class="edge">
<title>Node16&#45;&gt;Node7</title>
<path fill="none" stroke="midnightblue" d="M308.69,-182.44C265.01,-176.84 209.37,-165.58 164.42,-143 130.94,-126.18 121.79,-118.44 101.42,-87 89.92,-69.26 83.6,-45.63 80.37,-29.46"/>
<polygon fill="midnightblue" stroke="midnightblue" points="83.81,-28.84 78.6,-19.62 76.92,-30.08 83.81,-28.84"/>
</g>
<!-- Node16&#45;&gt;Node9 -->
<g id="edge20" class="edge">
<title>Node16&#45;&gt;Node9</title>
<path fill="none" stroke="midnightblue" d="M360.02,-179.44C337.71,-170.52 302.51,-156.44 277.21,-146.32"/>
<polygon fill="midnightblue" stroke="midnightblue" points="278.29,-142.98 267.71,-142.52 275.69,-149.48 278.29,-142.98"/>
</g>
<!-- Node16&#45;&gt;Node10 -->
<g id="edge19" class="edge">
<title>Node16&#45;&gt;Node10</title>
<path fill="none" stroke="midnightblue" d="M381.79,-179.32C382.59,-160.76 384.5,-116.84 385.59,-91.47"/>
<polygon fill="midnightblue" stroke="midnightblue" points="389.1,-91.42 386.04,-81.28 382.11,-91.12 389.1,-91.42"/>
</g>
<!-- Node17 -->
<g id="node17" class="node">
<title>Node17</title>
<g id="a_node17"><a xlink:href="tensor_i_8_h.html" target="_top" xlink:title=" ">
<polygon fill="white" stroke="black" points="434.92,-123.5 434.92,-142.5 583.92,-142.5 583.92,-123.5 434.92,-123.5"/>
<text text-anchor="middle" x="509.42" y="-130.5" font-family="Helvetica,sans-Serif" font-size="10.00">amr&#45;wind/core/vs/tensorI.H</text>
</a>
</g>
</g>
<!-- Node16&#45;&gt;Node17 -->
<g id="edge21" class="edge">
<title>Node16&#45;&gt;Node17</title>
<path fill="none" stroke="midnightblue" d="M396.61,-179.44C415.89,-170.48 449.25,-156.31 474.79,-146.18"/>
<polygon fill="midnightblue" stroke="midnightblue" points="476.11,-149.42 484.15,-142.52 473.56,-142.9 476.11,-149.42"/>
</g>
<!-- Node17&#45;&gt;Node15 -->
<g id="edge22" class="edge">
<title>Node17&#45;&gt;Node15</title>
<path fill="none" stroke="midnightblue" d="M542.4,-123.44C560.88,-116.77 582.37,-105.45 593.42,-87 600.49,-75.18 598.83,-68.67 593.42,-56 588.27,-43.95 578.13,-33.58 568.59,-25.84"/>
<polygon fill="midnightblue" stroke="midnightblue" points="570.59,-22.96 560.49,-19.74 566.38,-28.55 570.59,-22.96"/>
</g>
<!-- Node17&#45;&gt;Node16 -->
<g id="edge23" class="edge">
<title>Node17&#45;&gt;Node16</title>
<path fill="none" stroke="midnightblue" d="M494.31,-142.52C475.06,-151.47 441.72,-165.63 416.16,-175.77"/>
<polygon fill="midnightblue" stroke="midnightblue" points="414.82,-172.54 406.79,-179.44 417.37,-179.05 414.82,-172.54"/>
</g>
<!-- Node18 -->
<g id="node18" class="node">
<title>Node18</title>
<g id="a_node18"><a xlink:href="trig__ops_8_h.html" target="_top" xlink:title=" ">
<polygon fill="white" stroke="black" points="480.92,-56.5 480.92,-86.5 583.92,-86.5 583.92,-56.5 480.92,-56.5"/>
<text text-anchor="start" x="488.92" y="-74.5" font-family="Helvetica,sans-Serif" font-size="10.00">amr&#45;wind/utilities</text>
<text text-anchor="middle" x="532.42" y="-63.5" font-family="Helvetica,sans-Serif" font-size="10.00">/trig_ops.H</text>
</a>
</g>
</g>
<!-- Node17&#45;&gt;Node18 -->
<g id="edge24" class="edge">
<title>Node17&#45;&gt;Node18</title>
<path fill="none" stroke="midnightblue" d="M512.71,-123.48C515.48,-116.32 519.56,-105.75 523.3,-96.08"/>
<polygon fill="midnightblue" stroke="midnightblue" points="526.65,-97.11 526.99,-86.52 520.12,-94.59 526.65,-97.11"/>
</g>
<!-- Node18&#45;&gt;Node7 -->
<g id="edge27" class="edge">
<title>Node18&#45;&gt;Node7</title>
<path fill="none" stroke="midnightblue" d="M480.59,-57.73C477.49,-57.11 474.42,-56.53 471.42,-56 407.36,-44.77 223.28,-25.61 131.2,-16.34"/>
<polygon fill="midnightblue" stroke="midnightblue" points="131.55,-12.85 121.25,-15.34 130.85,-19.82 131.55,-12.85"/>
</g>
<!-- Node18&#45;&gt;Node12 -->
<g id="edge26" class="edge">
<title>Node18&#45;&gt;Node12</title>
<path fill="none" stroke="midnightblue" d="M514.88,-56.4C503.57,-47.31 488.87,-35.49 477.31,-26.19"/>
<polygon fill="midnightblue" stroke="midnightblue" points="479.17,-23.2 469.18,-19.66 474.78,-28.65 479.17,-23.2"/>
</g>
<!-- Node18&#45;&gt;Node15 -->
<g id="edge25" class="edge">
<title>Node18&#45;&gt;Node15</title>
<path fill="none" stroke="midnightblue" d="M535.73,-56.4C537.62,-48.38 540.01,-38.23 542.05,-29.57"/>
<polygon fill="midnightblue" stroke="midnightblue" points="545.49,-30.19 544.38,-19.66 538.68,-28.59 545.49,-30.19"/>
</g>
</g>
</svg>
        <g id="navigator" transform="translate(0 0)" fill="#404254">
                <rect fill="#f2f5e9" fill-opacity="0.5" stroke="#606060" stroke-width=".5" x="0" y="0" width="60" height="60"/>
                <use id="zoomplus" xlink:href="#zoomPlus" x="17" y="9" onmousedown="handleZoom(evt,'in')"/>
                <use id="zoomminus" xlink:href="#zoomMin" x="42" y="9" onmousedown="handleZoom(evt,'out')"/>
                <use id="reset" xlink:href="#resetDef" x="30" y="36" onmousedown="handleReset()"/>
                <g id="arrowUp" xlink:href="#dirArrow" transform="translate(30 24)" onmousedown="handlePan(0,-1)">
                  <use xlink:href="#rim" fill="#404040">
                        <set attributeName="fill" to="#808080" begin="arrowUp.mouseover" end="arrowUp.mouseout"/>
                  </use>
                  <path fill="none" stroke="white" stroke-width="1.5" d="M0,-3.0v7 M-2.5,-0.5L0,-3.0L2.5,-0.5"/>
                </g>
                <g id="arrowRight" xlink:href="#dirArrow" transform="rotate(90) translate(36 -43)" onmousedown="handlePan(1,0)">
                  <use xlink:href="#rim" fill="#404040">
                        <set attributeName="fill" to="#808080" begin="arrowRight.mouseover" end="arrowRight.mouseout"/>
                  </use>
                  <path fill="none" stroke="white" stroke-width="1.5" d="M0,-3.0v7 M-2.5,-0.5L0,-3.0L2.5,-0.5"/>
                </g>
                <g id="arrowDown" xlink:href="#dirArrow" transform="rotate(180) translate(-30 -48)" onmousedown="handlePan(0,1)">
                  <use xlink:href="#rim" fill="#404040">
                        <set attributeName="fill" to="#808080" begin="arrowDown.mouseover" end="arrowDown.mouseout"/>
                  </use>
                  <path fill="none" stroke="white" stroke-width="1.5" d="M0,-3.0v7 M-2.5,-0.5L0,-3.0L2.5,-0.5"/>
                </g>
                <g id="arrowLeft" xlink:href="#dirArrow" transform="rotate(270) translate(-36 17)" onmousedown="handlePan(-1,0)">
                  <use xlink:href="#rim" fill="#404040">
                        <set attributeName="fill" to="#808080" begin="arrowLeft.mouseover" end="arrowLeft.mouseout"/>
                  </use>
                  <path fill="none" stroke="white" stroke-width="1.5" d="M0,-3.0v7 M-2.5,-0.5L0,-3.0L2.5,-0.5"/>
                </g>
        </g>
        <svg viewBox="0 0 15 15" width="100%" height="30px" preserveAspectRatio="xMaxYMin meet">
         <g id="arrow_out" transform="scale(0.3 0.3)">
          <a xlink:href="_sphere_8_h__incl_org.svg" target="_base">
           <rect id="button" ry="5" rx="5" y="6" x="6" height="38" width="38"
                fill="#f2f5e9" fill-opacity="0.5" stroke="#606060" stroke-width="1.0"/>
           <path id="arrow"
             d="M 11.500037,31.436501 C 11.940474,20.09759 22.043105,11.32322 32.158766,21.979434 L 37.068811,17.246167 C 37.068811,17.246167 37.088388,32 37.088388,32 L 22.160133,31.978069 C 22.160133,31.978069 26.997745,27.140456 26.997745,27.140456 C 18.528582,18.264221 13.291696,25.230495 11.500037,31.436501 z"
             style="fill:#404040;"/>
          </a>
         </g>
        </svg>
</svg>
