<?xml version="1.0" encoding="UTF-8" standalone="no"?>
<!DOCTYPE svg PUBLIC "-//W3C//DTD SVG 1.1//EN"
 "http://www.w3.org/Graphics/SVG/1.1/DTD/svg11.dtd">
<!-- Generated by graphviz version 2.43.0 (0)
 -->
<!-- Title: TiogaInterface.cpp Pages: 1 -->
<svg width="2936pt" height="330pt"
 viewBox="0.00 0.00 2935.50 330.00" xmlns="http://www.w3.org/2000/svg" xmlns:xlink="http://www.w3.org/1999/xlink">
<g id="graph0" class="graph" transform="scale(1 1) rotate(0) translate(4 326)">
<title>TiogaInterface.cpp</title>
<polygon fill="white" stroke="transparent" points="-4,4 -4,-326 2931.5,-326 2931.5,4 -4,4"/>
<!-- Node1 -->
<g id="node1" class="node">
<title>Node1</title>
<g id="a_node1"><a xlink:title=" ">
<polygon fill="#bfbfbf" stroke="black" points="1765,-302.5 1765,-321.5 1872,-321.5 1872,-302.5 1765,-302.5"/>
<text text-anchor="middle" x="1818.5" y="-309.5" font-family="Helvetica,sans-Serif" font-size="10.00">TiogaInterface.cpp</text>
</a>
</g>
</g>
<!-- Node2 -->
<g id="node2" class="node">
<title>Node2</title>
<g id="a_node2"><a xlink:href="_tioga_interface_8_h.html" target="_top" xlink:title=" ">
<polygon fill="white" stroke="black" points="1519,-246.5 1519,-265.5 1706,-265.5 1706,-246.5 1519,-246.5"/>
<text text-anchor="middle" x="1612.5" y="-253.5" font-family="Helvetica,sans-Serif" font-size="10.00">amr&#45;wind/overset/TiogaInterface.H</text>
</a>
</g>
</g>
<!-- Node1&#45;&gt;Node2 -->
<g id="edge1" class="edge">
<title>Node1&#45;&gt;Node2</title>
<path fill="none" stroke="midnightblue" d="M1785.86,-302.44C1750.45,-293.16 1693.79,-278.31 1654.95,-268.13"/>
<polygon fill="midnightblue" stroke="midnightblue" points="1655.55,-264.67 1644.99,-265.52 1653.77,-271.44 1655.55,-264.67"/>
</g>
<!-- Node6 -->
<g id="node6" class="node">
<title>Node6</title>
<g id="a_node6"><a xlink:title=" ">
<polygon fill="white" stroke="#bfbfbf" points="1988.5,-56.5 1988.5,-75.5 2046.5,-75.5 2046.5,-56.5 1988.5,-56.5"/>
<text text-anchor="middle" x="2017.5" y="-63.5" font-family="Helvetica,sans-Serif" font-size="10.00">memory</text>
</a>
</g>
</g>
<!-- Node1&#45;&gt;Node6 -->
<g id="edge84" class="edge">
<title>Node1&#45;&gt;Node6</title>
<path fill="none" stroke="midnightblue" d="M1872.04,-311.81C2011.19,-312.44 2394.3,-304.73 2694.5,-210 2756.49,-190.44 2790.67,-198.5 2824.5,-143 2831.67,-131.24 2834.01,-121.97 2824.5,-112 2796.24,-82.39 2156.53,-81.94 2056.9,-75.44"/>
<polygon fill="midnightblue" stroke="midnightblue" points="2057.13,-71.94 2046.86,-74.52 2056.5,-78.91 2057.13,-71.94"/>
</g>
<!-- Node13 -->
<g id="node13" class="node">
<title>Node13</title>
<g id="a_node13"><a xlink:href="_c_f_d_sim_8_h.html" target="_top" xlink:title=" ">
<polygon fill="white" stroke="black" points="1803.5,-246.5 1803.5,-265.5 1919.5,-265.5 1919.5,-246.5 1803.5,-246.5"/>
<text text-anchor="middle" x="1861.5" y="-253.5" font-family="Helvetica,sans-Serif" font-size="10.00">amr&#45;wind/CFDSim.H</text>
</a>
</g>
</g>
<!-- Node1&#45;&gt;Node13 -->
<g id="edge12" class="edge">
<title>Node1&#45;&gt;Node13</title>
<path fill="none" stroke="midnightblue" d="M1825.6,-302.08C1831.74,-294.38 1840.77,-283.03 1848.24,-273.65"/>
<polygon fill="midnightblue" stroke="midnightblue" points="1851.04,-275.75 1854.53,-265.75 1845.56,-271.39 1851.04,-275.75"/>
</g>
<!-- Node19 -->
<g id="node19" class="node">
<title>Node19</title>
<g id="a_node19"><a xlink:href="_field_repo_8_h.html" target="_top" xlink:title=" ">
<polygon fill="white" stroke="black" points="1260,-185 1260,-204 1409,-204 1409,-185 1260,-185"/>
<text text-anchor="middle" x="1334.5" y="-192" font-family="Helvetica,sans-Serif" font-size="10.00">amr&#45;wind/core/FieldRepo.H</text>
</a>
</g>
</g>
<!-- Node1&#45;&gt;Node19 -->
<g id="edge72" class="edge">
<title>Node1&#45;&gt;Node19</title>
<path fill="none" stroke="midnightblue" d="M1764.96,-307.1C1702.71,-301.67 1597.29,-289.71 1509.5,-266 1455.1,-251.31 1394.8,-224.53 1361.08,-208.54"/>
<polygon fill="midnightblue" stroke="midnightblue" points="1362.44,-205.31 1351.91,-204.14 1359.41,-211.62 1362.44,-205.31"/>
</g>
<!-- Node35 -->
<g id="node35" class="node">
<title>Node35</title>
<g id="a_node35"><a xlink:href="_p_d_e_base_8_h.html" target="_top" xlink:title=" ">
<polygon fill="white" stroke="black" points="1719,-179.5 1719,-209.5 1874,-209.5 1874,-179.5 1719,-179.5"/>
<text text-anchor="start" x="1727" y="-197.5" font-family="Helvetica,sans-Serif" font-size="10.00">amr&#45;wind/equation_systems</text>
<text text-anchor="middle" x="1796.5" y="-186.5" font-family="Helvetica,sans-Serif" font-size="10.00">/PDEBase.H</text>
</a>
</g>
</g>
<!-- Node1&#45;&gt;Node35 -->
<g id="edge73" class="edge">
<title>Node1&#45;&gt;Node35</title>
<path fill="none" stroke="midnightblue" d="M1812.13,-302.23C1806.24,-293.53 1797.89,-279.57 1794.5,-266 1790.73,-250.91 1791.19,-233.43 1792.62,-219.66"/>
<polygon fill="midnightblue" stroke="midnightblue" points="1796.12,-219.88 1793.9,-209.52 1789.17,-219 1796.12,-219.88"/>
</g>
<!-- Node41 -->
<g id="node41" class="node">
<title>Node41</title>
<g id="a_node41"><a xlink:href="field__ops_8_h.html" target="_top" xlink:title=" ">
<polygon fill="white" stroke="black" points="2574,-179.5 2574,-209.5 2685,-209.5 2685,-179.5 2574,-179.5"/>
<text text-anchor="start" x="2582" y="-197.5" font-family="Helvetica,sans-Serif" font-size="10.00">amr&#45;wind/core/field</text>
<text text-anchor="middle" x="2629.5" y="-186.5" font-family="Helvetica,sans-Serif" font-size="10.00">_ops.H</text>
</a>
</g>
</g>
<!-- Node1&#45;&gt;Node41 -->
<g id="edge74" class="edge">
<title>Node1&#45;&gt;Node41</title>
<path fill="none" stroke="midnightblue" d="M1872.11,-305.32C1993.49,-292.13 2298.67,-257.05 2563.69,-210.05"/>
<polygon fill="midnightblue" stroke="midnightblue" points="2564.66,-213.43 2573.89,-208.23 2563.43,-206.54 2564.66,-213.43"/>
</g>
<!-- Node42 -->
<g id="node42" class="node">
<title>Node42</title>
<g id="a_node42"><a xlink:href="_i_o_manager_8_h.html" target="_top" xlink:title=" ">
<polygon fill="white" stroke="black" points="319,-112.5 319,-142.5 422,-142.5 422,-112.5 319,-112.5"/>
<text text-anchor="start" x="327" y="-130.5" font-family="Helvetica,sans-Serif" font-size="10.00">amr&#45;wind/utilities</text>
<text text-anchor="middle" x="370.5" y="-119.5" font-family="Helvetica,sans-Serif" font-size="10.00">/IOManager.H</text>
</a>
</g>
</g>
<!-- Node1&#45;&gt;Node42 -->
<g id="edge77" class="edge">
<title>Node1&#45;&gt;Node42</title>
<path fill="none" stroke="midnightblue" d="M1764.89,-304.63C1692.58,-296.01 1559.8,-280.09 1446.5,-266 1060.26,-217.96 596.36,-157.87 431.93,-136.5"/>
<polygon fill="midnightblue" stroke="midnightblue" points="432.37,-133.02 422,-135.21 431.47,-139.97 432.37,-133.02"/>
</g>
<!-- Node46 -->
<g id="node46" class="node">
<title>Node46</title>
<g id="a_node46"><a xlink:title=" ">
<polygon fill="white" stroke="#bfbfbf" points="2871.5,-246.5 2871.5,-265.5 2927.5,-265.5 2927.5,-246.5 2871.5,-246.5"/>
<text text-anchor="middle" x="2899.5" y="-253.5" font-family="Helvetica,sans-Serif" font-size="10.00">numeric</text>
</a>
</g>
</g>
<!-- Node1&#45;&gt;Node46 -->
<g id="edge85" class="edge">
<title>Node1&#45;&gt;Node46</title>
<path fill="none" stroke="midnightblue" d="M1872.18,-309.87C2056.68,-305.78 2663.97,-290.75 2857.5,-266 2858.75,-265.84 2860.01,-265.66 2861.29,-265.47"/>
<polygon fill="midnightblue" stroke="midnightblue" points="2861.9,-268.92 2871.14,-263.75 2860.69,-262.02 2861.9,-268.92"/>
</g>
<!-- Node3 -->
<g id="node3" class="node">
<title>Node3</title>
<g id="a_node3"><a xlink:title=" ">
<polygon fill="white" stroke="#bfbfbf" points="1195,-185 1195,-204 1242,-204 1242,-185 1195,-185"/>
<text text-anchor="middle" x="1218.5" y="-192" font-family="Helvetica,sans-Serif" font-size="10.00">vector</text>
</a>
</g>
</g>
<!-- Node2&#45;&gt;Node3 -->
<g id="edge2" class="edge">
<title>Node2&#45;&gt;Node3</title>
<path fill="none" stroke="midnightblue" d="M1518.72,-251.1C1444.73,-246.18 1339.5,-235.07 1250.5,-210 1248.35,-209.4 1246.17,-208.67 1244,-207.86"/>
<polygon fill="midnightblue" stroke="midnightblue" points="1245.33,-204.63 1234.75,-204.01 1242.63,-211.09 1245.33,-204.63"/>
</g>
<!-- Node4 -->
<g id="node4" class="node">
<title>Node4</title>
<g id="a_node4"><a xlink:href="_overset_manager_8_h.html" target="_top" xlink:title=" ">
<polygon fill="white" stroke="black" points="1518.5,-179.5 1518.5,-209.5 1662.5,-209.5 1662.5,-179.5 1518.5,-179.5"/>
<text text-anchor="start" x="1526.5" y="-197.5" font-family="Helvetica,sans-Serif" font-size="10.00">amr&#45;wind/overset/Overset</text>
<text text-anchor="middle" x="1590.5" y="-186.5" font-family="Helvetica,sans-Serif" font-size="10.00">Manager.H</text>
</a>
</g>
</g>
<!-- Node2&#45;&gt;Node4 -->
<g id="edge3" class="edge">
<title>Node2&#45;&gt;Node4</title>
<path fill="none" stroke="midnightblue" d="M1609.35,-246.48C1606.7,-239.32 1602.79,-228.75 1599.22,-219.08"/>
<polygon fill="midnightblue" stroke="midnightblue" points="1602.44,-217.69 1595.68,-209.52 1595.87,-220.12 1602.44,-217.69"/>
</g>
<!-- Node11 -->
<g id="node11" class="node">
<title>Node11</title>
<g id="a_node11"><a xlink:href="overset__types_8_h.html" target="_top" xlink:title=" ">
<polygon fill="white" stroke="black" points="1892,-179.5 1892,-209.5 2035,-209.5 2035,-179.5 1892,-179.5"/>
<text text-anchor="start" x="1900" y="-197.5" font-family="Helvetica,sans-Serif" font-size="10.00">amr&#45;wind/overset/overset</text>
<text text-anchor="middle" x="1963.5" y="-186.5" font-family="Helvetica,sans-Serif" font-size="10.00">_types.H</text>
</a>
</g>
</g>
<!-- Node2&#45;&gt;Node11 -->
<g id="edge10" class="edge">
<title>Node2&#45;&gt;Node11</title>
<path fill="none" stroke="midnightblue" d="M1664.8,-246.47C1717.09,-237.91 1800.08,-224.19 1881.97,-210.08"/>
<polygon fill="midnightblue" stroke="midnightblue" points="1882.7,-213.51 1891.95,-208.36 1881.5,-206.61 1882.7,-213.51"/>
</g>
<!-- Node5 -->
<g id="node5" class="node">
<title>Node5</title>
<g id="a_node5"><a xlink:href="_factory_8_h.html" target="_top" xlink:title=" ">
<polygon fill="white" stroke="black" points="1566.5,-118 1566.5,-137 1700.5,-137 1700.5,-118 1566.5,-118"/>
<text text-anchor="middle" x="1633.5" y="-125" font-family="Helvetica,sans-Serif" font-size="10.00">amr&#45;wind/core/Factory.H</text>
</a>
</g>
</g>
<!-- Node4&#45;&gt;Node5 -->
<g id="edge4" class="edge">
<title>Node4&#45;&gt;Node5</title>
<path fill="none" stroke="midnightblue" d="M1599.83,-179.4C1606.4,-169.46 1615.24,-156.11 1622.21,-145.57"/>
<polygon fill="midnightblue" stroke="midnightblue" points="1625.15,-147.47 1627.75,-137.19 1619.31,-143.6 1625.15,-147.47"/>
</g>
<!-- Node5&#45;&gt;Node6 -->
<g id="edge5" class="edge">
<title>Node5&#45;&gt;Node6</title>
<path fill="none" stroke="midnightblue" d="M1676.45,-117.97C1687.22,-115.92 1698.77,-113.81 1709.5,-112 1805.77,-95.79 1919.55,-80.05 1978.18,-72.19"/>
<polygon fill="midnightblue" stroke="midnightblue" points="1978.68,-75.65 1988.13,-70.86 1977.76,-68.71 1978.68,-75.65"/>
</g>
<!-- Node7 -->
<g id="node7" class="node">
<title>Node7</title>
<g id="a_node7"><a xlink:title=" ">
<polygon fill="white" stroke="#bfbfbf" points="1577,-56.5 1577,-75.5 1670,-75.5 1670,-56.5 1577,-56.5"/>
<text text-anchor="middle" x="1623.5" y="-63.5" font-family="Helvetica,sans-Serif" font-size="10.00">unordered_map</text>
</a>
</g>
</g>
<!-- Node5&#45;&gt;Node7 -->
<g id="edge6" class="edge">
<title>Node5&#45;&gt;Node7</title>
<path fill="none" stroke="midnightblue" d="M1632.07,-117.98C1630.66,-109.58 1628.45,-96.48 1626.64,-85.66"/>
<polygon fill="midnightblue" stroke="midnightblue" points="1630.04,-84.79 1624.93,-75.51 1623.14,-85.95 1630.04,-84.79"/>
</g>
<!-- Node8 -->
<g id="node8" class="node">
<title>Node8</title>
<g id="a_node8"><a xlink:title=" ">
<polygon fill="white" stroke="#bfbfbf" points="1768.5,-56.5 1768.5,-75.5 1828.5,-75.5 1828.5,-56.5 1768.5,-56.5"/>
<text text-anchor="middle" x="1798.5" y="-63.5" font-family="Helvetica,sans-Serif" font-size="10.00">iostream</text>
</a>
</g>
</g>
<!-- Node5&#45;&gt;Node8 -->
<g id="edge7" class="edge">
<title>Node5&#45;&gt;Node8</title>
<path fill="none" stroke="midnightblue" d="M1657.14,-117.98C1685.44,-107.77 1733.03,-90.61 1765.09,-79.05"/>
<polygon fill="midnightblue" stroke="midnightblue" points="1766.68,-82.19 1774.9,-75.51 1764.31,-75.61 1766.68,-82.19"/>
</g>
<!-- Node9 -->
<g id="node9" class="node">
<title>Node9</title>
<g id="a_node9"><a xlink:title=" ">
<polygon fill="white" stroke="#bfbfbf" points="1468.5,-56.5 1468.5,-75.5 1558.5,-75.5 1558.5,-56.5 1468.5,-56.5"/>
<text text-anchor="middle" x="1513.5" y="-63.5" font-family="Helvetica,sans-Serif" font-size="10.00">AMReX_Print.H</text>
</a>
</g>
</g>
<!-- Node5&#45;&gt;Node9 -->
<g id="edge8" class="edge">
<title>Node5&#45;&gt;Node9</title>
<path fill="none" stroke="midnightblue" d="M1616.31,-117.98C1596.26,-108.03 1562.9,-91.49 1539.64,-79.96"/>
<polygon fill="midnightblue" stroke="midnightblue" points="1541.18,-76.82 1530.66,-75.51 1538.07,-83.09 1541.18,-76.82"/>
</g>
<!-- Node10 -->
<g id="node10" class="node">
<title>Node10</title>
<g id="a_node10"><a xlink:title=" ">
<polygon fill="white" stroke="#bfbfbf" points="1688.5,-56.5 1688.5,-75.5 1750.5,-75.5 1750.5,-56.5 1688.5,-56.5"/>
<text text-anchor="middle" x="1719.5" y="-63.5" font-family="Helvetica,sans-Serif" font-size="10.00">AMReX.H</text>
</a>
</g>
</g>
<!-- Node5&#45;&gt;Node10 -->
<g id="edge9" class="edge">
<title>Node5&#45;&gt;Node10</title>
<path fill="none" stroke="midnightblue" d="M1645.82,-117.98C1659.62,-108.43 1682.2,-92.81 1698.73,-81.37"/>
<polygon fill="midnightblue" stroke="midnightblue" points="1700.97,-84.08 1707.2,-75.51 1696.99,-78.32 1700.97,-84.08"/>
</g>
<!-- Node12 -->
<g id="node12" class="node">
<title>Node12</title>
<g id="a_node12"><a xlink:title=" ">
<polygon fill="white" stroke="#bfbfbf" points="2224,-56.5 2224,-75.5 2311,-75.5 2311,-56.5 2224,-56.5"/>
<text text-anchor="middle" x="2267.5" y="-63.5" font-family="Helvetica,sans-Serif" font-size="10.00">AMReX_Gpu.H</text>
</a>
</g>
</g>
<!-- Node11&#45;&gt;Node12 -->
<g id="edge11" class="edge">
<title>Node11&#45;&gt;Node12</title>
<path fill="none" stroke="midnightblue" d="M1997.9,-179.38C2019.54,-170.03 2047.76,-156.94 2071.5,-143 2091.82,-131.07 2093.34,-122.36 2114.5,-112 2146.22,-96.47 2184.33,-85.24 2214.57,-77.88"/>
<polygon fill="midnightblue" stroke="midnightblue" points="2215.58,-81.24 2224.51,-75.54 2213.97,-74.43 2215.58,-81.24"/>
</g>
<!-- Node14 -->
<g id="node14" class="node">
<title>Node14</title>
<g id="a_node14"><a xlink:title=" ">
<polygon fill="white" stroke="#bfbfbf" points="1400.5,-118 1400.5,-137 1510.5,-137 1510.5,-118 1400.5,-118"/>
<text text-anchor="middle" x="1455.5" y="-125" font-family="Helvetica,sans-Serif" font-size="10.00">AMReX_AmrCore.H</text>
</a>
</g>
</g>
<!-- Node13&#45;&gt;Node14 -->
<g id="edge13" class="edge">
<title>Node13&#45;&gt;Node14</title>
<path fill="none" stroke="midnightblue" d="M1815.79,-246.44C1784.63,-239.43 1743.08,-227.74 1709.5,-210 1690.23,-199.82 1691.06,-188.62 1671.5,-179 1656.76,-171.75 1565.71,-151.73 1506.62,-139.18"/>
<polygon fill="midnightblue" stroke="midnightblue" points="1507.22,-135.73 1496.71,-137.09 1505.77,-142.58 1507.22,-135.73"/>
</g>
<!-- Node15 -->
<g id="node15" class="node">
<title>Node15</title>
<g id="a_node15"><a xlink:href="_sim_time_8_h.html" target="_top" xlink:title=" ">
<polygon fill="white" stroke="black" points="2411.5,-185 2411.5,-204 2555.5,-204 2555.5,-185 2411.5,-185"/>
<text text-anchor="middle" x="2483.5" y="-192" font-family="Helvetica,sans-Serif" font-size="10.00">amr&#45;wind/core/SimTime.H</text>
</a>
</g>
</g>
<!-- Node13&#45;&gt;Node15 -->
<g id="edge14" class="edge">
<title>Node13&#45;&gt;Node15</title>
<path fill="none" stroke="midnightblue" d="M1919.74,-249.43C2030.88,-238.8 2273.54,-215.58 2401.21,-203.37"/>
<polygon fill="midnightblue" stroke="midnightblue" points="2401.7,-206.84 2411.32,-202.4 2401.04,-199.87 2401.7,-206.84"/>
</g>
<!-- Node13&#45;&gt;Node19 -->
<g id="edge18" class="edge">
<title>Node13&#45;&gt;Node19</title>
<path fill="none" stroke="midnightblue" d="M1803.34,-248.43C1710.24,-237.92 1527.3,-217.27 1419.52,-205.1"/>
<polygon fill="midnightblue" stroke="midnightblue" points="1419.66,-201.59 1409.33,-203.95 1418.88,-208.55 1419.66,-201.59"/>
</g>
<!-- Node13&#45;&gt;Node35 -->
<g id="edge55" class="edge">
<title>Node13&#45;&gt;Node35</title>
<path fill="none" stroke="midnightblue" d="M1852.19,-246.48C1843.63,-238.64 1830.6,-226.71 1819.29,-216.37"/>
<polygon fill="midnightblue" stroke="midnightblue" points="1821.56,-213.69 1811.82,-209.52 1816.83,-218.86 1821.56,-213.69"/>
</g>
<!-- Node39 -->
<g id="node39" class="node">
<title>Node39</title>
<g id="a_node39"><a xlink:href="_physics_8_h.html" target="_top" xlink:title=" ">
<polygon fill="white" stroke="black" points="2053,-185 2053,-204 2190,-204 2190,-185 2053,-185"/>
<text text-anchor="middle" x="2121.5" y="-192" font-family="Helvetica,sans-Serif" font-size="10.00">amr&#45;wind/core/Physics.H</text>
</a>
</g>
</g>
<!-- Node13&#45;&gt;Node39 -->
<g id="edge67" class="edge">
<title>Node13&#45;&gt;Node39</title>
<path fill="none" stroke="midnightblue" d="M1898.75,-246.48C1944.99,-235.89 2023.9,-217.84 2074.32,-206.3"/>
<polygon fill="midnightblue" stroke="midnightblue" points="2075.35,-209.65 2084.32,-204.01 2073.79,-202.83 2075.35,-209.65"/>
</g>
<!-- Node16 -->
<g id="node16" class="node">
<title>Node16</title>
<g id="a_node16"><a xlink:title=" ">
<polygon fill="white" stroke="#bfbfbf" points="2437.5,-118 2437.5,-137 2529.5,-137 2529.5,-118 2437.5,-118"/>
<text text-anchor="middle" x="2483.5" y="-125" font-family="Helvetica,sans-Serif" font-size="10.00">AMReX_REAL.H</text>
</a>
</g>
</g>
<!-- Node15&#45;&gt;Node16 -->
<g id="edge15" class="edge">
<title>Node15&#45;&gt;Node16</title>
<path fill="none" stroke="midnightblue" d="M2483.5,-184.73C2483.5,-175.18 2483.5,-159.62 2483.5,-147.28"/>
<polygon fill="midnightblue" stroke="midnightblue" points="2487,-147.13 2483.5,-137.13 2480,-147.13 2487,-147.13"/>
</g>
<!-- Node17 -->
<g id="node17" class="node">
<title>Node17</title>
<g id="a_node17"><a xlink:title=" ">
<polygon fill="white" stroke="#bfbfbf" points="2547.5,-118 2547.5,-137 2681.5,-137 2681.5,-118 2547.5,-118"/>
<text text-anchor="middle" x="2614.5" y="-125" font-family="Helvetica,sans-Serif" font-size="10.00">AMReX_GpuQualifiers.H</text>
</a>
</g>
</g>
<!-- Node15&#45;&gt;Node17 -->
<g id="edge16" class="edge">
<title>Node15&#45;&gt;Node17</title>
<path fill="none" stroke="midnightblue" d="M2500.9,-184.87C2523.11,-173.84 2561.79,-154.66 2587.76,-141.77"/>
<polygon fill="midnightblue" stroke="midnightblue" points="2589.63,-144.75 2597.03,-137.17 2586.52,-138.48 2589.63,-144.75"/>
</g>
<!-- Node18 -->
<g id="node18" class="node">
<title>Node18</title>
<g id="a_node18"><a xlink:title=" ">
<polygon fill="white" stroke="#bfbfbf" points="2699.5,-118 2699.5,-137 2815.5,-137 2815.5,-118 2699.5,-118"/>
<text text-anchor="middle" x="2757.5" y="-125" font-family="Helvetica,sans-Serif" font-size="10.00">AMReX_Extension.H</text>
</a>
</g>
</g>
<!-- Node15&#45;&gt;Node18 -->
<g id="edge17" class="edge">
<title>Node15&#45;&gt;Node18</title>
<path fill="none" stroke="midnightblue" d="M2519.6,-184.94C2568.89,-173.24 2657.26,-152.28 2711.31,-139.46"/>
<polygon fill="midnightblue" stroke="midnightblue" points="2712.4,-142.8 2721.32,-137.08 2710.78,-135.99 2712.4,-142.8"/>
</g>
<!-- Node19&#45;&gt;Node7 -->
<g id="edge20" class="edge">
<title>Node19&#45;&gt;Node7</title>
<path fill="none" stroke="midnightblue" d="M1337.86,-184.95C1344.97,-168.03 1363.26,-130.34 1391.5,-112 1398.88,-107.2 1500.71,-88.6 1566.98,-76.87"/>
<polygon fill="midnightblue" stroke="midnightblue" points="1567.65,-80.3 1576.89,-75.12 1566.43,-73.41 1567.65,-80.3"/>
</g>
<!-- Node19&#45;&gt;Node14 -->
<g id="edge52" class="edge">
<title>Node19&#45;&gt;Node14</title>
<path fill="none" stroke="midnightblue" d="M1350.82,-184.73C1371.32,-173.72 1406.7,-154.71 1430.59,-141.88"/>
<polygon fill="midnightblue" stroke="midnightblue" points="1432.29,-144.94 1439.44,-137.13 1428.97,-138.78 1432.29,-144.94"/>
</g>
<!-- Node20 -->
<g id="node20" class="node">
<title>Node20</title>
<g id="a_node20"><a xlink:title=" ">
<polygon fill="white" stroke="#bfbfbf" points="691.5,-0.5 691.5,-19.5 735.5,-19.5 735.5,-0.5 691.5,-0.5"/>
<text text-anchor="middle" x="713.5" y="-7.5" font-family="Helvetica,sans-Serif" font-size="10.00">string</text>
</a>
</g>
</g>
<!-- Node19&#45;&gt;Node20 -->
<g id="edge19" class="edge">
<title>Node19&#45;&gt;Node20</title>
<path fill="none" stroke="midnightblue" d="M1291.04,-184.98C1278.05,-182.7 1263.74,-180.47 1250.5,-179 1094.37,-161.61 689.79,-202.73 544.5,-143 503.16,-126.01 487.76,-116.8 469.5,-76 465.87,-67.89 463.81,-62.83 469.5,-56 496.08,-24.07 621.17,-14.71 681.2,-12.03"/>
<polygon fill="midnightblue" stroke="midnightblue" points="681.42,-15.53 691.27,-11.62 681.14,-8.53 681.42,-15.53"/>
</g>
<!-- Node21 -->
<g id="node21" class="node">
<title>Node21</title>
<g id="a_node21"><a xlink:href="_field_desc_types_8_h.html" target="_top" xlink:title=" ">
<polygon fill="white" stroke="black" points="1034.5,-0.5 1034.5,-19.5 1210.5,-19.5 1210.5,-0.5 1034.5,-0.5"/>
<text text-anchor="middle" x="1122.5" y="-7.5" font-family="Helvetica,sans-Serif" font-size="10.00">amr&#45;wind/core/FieldDescTypes.H</text>
</a>
</g>
</g>
<!-- Node19&#45;&gt;Node21 -->
<g id="edge21" class="edge">
<title>Node19&#45;&gt;Node21</title>
<path fill="none" stroke="midnightblue" d="M1286.12,-184.95C1274.46,-182.94 1262.04,-180.85 1250.5,-179 1043.21,-145.76 914.25,-244.85 789.5,-76 784.22,-68.85 783.65,-62.69 789.5,-56 804.89,-38.38 931.74,-25.18 1024.32,-17.77"/>
<polygon fill="midnightblue" stroke="midnightblue" points="1024.6,-21.26 1034.29,-16.98 1024.05,-14.28 1024.6,-21.26"/>
</g>
<!-- Node22 -->
<g id="node22" class="node">
<title>Node22</title>
<g id="a_node22"><a xlink:href="_field_utils_8_h.html" target="_top" xlink:title=" ">
<polygon fill="white" stroke="black" points="798.5,-56.5 798.5,-75.5 944.5,-75.5 944.5,-56.5 798.5,-56.5"/>
<text text-anchor="middle" x="871.5" y="-63.5" font-family="Helvetica,sans-Serif" font-size="10.00">amr&#45;wind/core/FieldUtils.H</text>
</a>
</g>
</g>
<!-- Node19&#45;&gt;Node22 -->
<g id="edge22" class="edge">
<title>Node19&#45;&gt;Node22</title>
<path fill="none" stroke="midnightblue" d="M1291.09,-184.94C1245.57,-175.69 1172.09,-159.98 1109.5,-143 1035.99,-123.05 951.33,-94.71 905.42,-78.87"/>
<polygon fill="midnightblue" stroke="midnightblue" points="906.55,-75.56 895.96,-75.6 904.26,-82.18 906.55,-75.56"/>
</g>
<!-- Node23 -->
<g id="node23" class="node">
<title>Node23</title>
<g id="a_node23"><a xlink:title=" ">
<polygon fill="white" stroke="#bfbfbf" points="1386,-0.5 1386,-19.5 1495,-19.5 1495,-0.5 1386,-0.5"/>
<text text-anchor="middle" x="1440.5" y="-7.5" font-family="Helvetica,sans-Serif" font-size="10.00">AMReX_MultiFab.H</text>
</a>
</g>
</g>
<!-- Node19&#45;&gt;Node23 -->
<g id="edge53" class="edge">
<title>Node19&#45;&gt;Node23</title>
<path fill="none" stroke="midnightblue" d="M1335.04,-184.83C1336.41,-168.97 1341.18,-134.85 1357.5,-112 1373.84,-89.13 1391.28,-97.41 1409.5,-76 1421.14,-62.33 1429.47,-43.54 1434.55,-29.68"/>
<polygon fill="midnightblue" stroke="midnightblue" points="1438,-30.4 1437.92,-19.81 1431.38,-28.14 1438,-30.4"/>
</g>
<!-- Node25 -->
<g id="node25" class="node">
<title>Node25</title>
<g id="a_node25"><a xlink:href="_field_8_h.html" target="_top" xlink:title=" ">
<polygon fill="white" stroke="black" points="2123.5,-118 2123.5,-137 2247.5,-137 2247.5,-118 2123.5,-118"/>
<text text-anchor="middle" x="2185.5" y="-125" font-family="Helvetica,sans-Serif" font-size="10.00">amr&#45;wind/core/Field.H</text>
</a>
</g>
</g>
<!-- Node19&#45;&gt;Node25 -->
<g id="edge26" class="edge">
<title>Node19&#45;&gt;Node25</title>
<path fill="none" stroke="midnightblue" d="M1409.42,-187.05C1440.39,-184.45 1476.67,-181.48 1509.5,-179 1744.04,-161.29 1803.1,-162.47 2037.5,-143 2062.15,-140.95 2089.08,-138.41 2113.13,-136.02"/>
<polygon fill="midnightblue" stroke="midnightblue" points="2113.65,-139.49 2123.25,-135.01 2112.95,-132.52 2113.65,-139.49"/>
</g>
<!-- Node31 -->
<g id="node31" class="node">
<title>Node31</title>
<g id="a_node31"><a xlink:href="_int_field_8_h.html" target="_top" xlink:title=" ">
<polygon fill="white" stroke="black" points="581,-118 581,-137 718,-137 718,-118 581,-118"/>
<text text-anchor="middle" x="649.5" y="-125" font-family="Helvetica,sans-Serif" font-size="10.00">amr&#45;wind/core/IntField.H</text>
</a>
</g>
</g>
<!-- Node19&#45;&gt;Node31 -->
<g id="edge41" class="edge">
<title>Node19&#45;&gt;Node31</title>
<path fill="none" stroke="midnightblue" d="M1289.72,-184.93C1277.07,-182.74 1263.28,-180.56 1250.5,-179 1031.99,-152.24 975.45,-165.79 756.5,-143 743.92,-141.69 730.54,-140.06 717.66,-138.38"/>
<polygon fill="midnightblue" stroke="midnightblue" points="717.83,-134.87 707.45,-137.02 716.9,-141.81 717.83,-134.87"/>
</g>
<!-- Node32 -->
<g id="node32" class="node">
<title>Node32</title>
<g id="a_node32"><a xlink:title=" ">
<polygon fill="white" stroke="#bfbfbf" points="478.5,-56.5 478.5,-75.5 590.5,-75.5 590.5,-56.5 478.5,-56.5"/>
<text text-anchor="middle" x="534.5" y="-63.5" font-family="Helvetica,sans-Serif" font-size="10.00">AMReX_iMultiFab.H</text>
</a>
</g>
</g>
<!-- Node19&#45;&gt;Node32 -->
<g id="edge54" class="edge">
<title>Node19&#45;&gt;Node32</title>
<path fill="none" stroke="midnightblue" d="M1291.04,-184.99C1278.05,-182.72 1263.74,-180.49 1250.5,-179 1175.42,-170.56 634.47,-184.74 571.5,-143 552.05,-130.11 542.49,-103.91 538.03,-85.91"/>
<polygon fill="midnightblue" stroke="midnightblue" points="541.42,-84.99 535.88,-75.96 534.57,-86.47 541.42,-84.99"/>
</g>
<!-- Node33 -->
<g id="node33" class="node">
<title>Node33</title>
<g id="a_node33"><a xlink:href="_scratch_field_8_h.html" target="_top" xlink:title=" ">
<polygon fill="white" stroke="black" points="1118.5,-118 1118.5,-137 1278.5,-137 1278.5,-118 1118.5,-118"/>
<text text-anchor="middle" x="1198.5" y="-125" font-family="Helvetica,sans-Serif" font-size="10.00">amr&#45;wind/core/ScratchField.H</text>
</a>
</g>
</g>
<!-- Node19&#45;&gt;Node33 -->
<g id="edge45" class="edge">
<title>Node19&#45;&gt;Node33</title>
<path fill="none" stroke="midnightblue" d="M1316.44,-184.87C1293.27,-173.8 1252.87,-154.49 1225.9,-141.6"/>
<polygon fill="midnightblue" stroke="midnightblue" points="1227.17,-138.32 1216.63,-137.17 1224.15,-144.64 1227.17,-138.32"/>
</g>
<!-- Node22&#45;&gt;Node21 -->
<g id="edge23" class="edge">
<title>Node22&#45;&gt;Node21</title>
<path fill="none" stroke="midnightblue" d="M911.27,-56.44C955.06,-47.02 1025.51,-31.87 1072.88,-21.68"/>
<polygon fill="midnightblue" stroke="midnightblue" points="1073.87,-25.04 1082.91,-19.52 1072.4,-18.2 1073.87,-25.04"/>
</g>
<!-- Node22&#45;&gt;Node23 -->
<g id="edge24" class="edge">
<title>Node22&#45;&gt;Node23</title>
<path fill="none" stroke="midnightblue" d="M944.81,-56.89C947.74,-56.58 950.65,-56.29 953.5,-56 1128.46,-38.41 1172.43,-36.47 1347.5,-20 1356.63,-19.14 1366.27,-18.22 1375.74,-17.31"/>
<polygon fill="midnightblue" stroke="midnightblue" points="1376.3,-20.77 1385.92,-16.33 1375.63,-13.81 1376.3,-20.77"/>
</g>
<!-- Node24 -->
<g id="node24" class="node">
<title>Node24</title>
<g id="a_node24"><a xlink:title=" ">
<polygon fill="white" stroke="#bfbfbf" points="809.5,-0.5 809.5,-19.5 933.5,-19.5 933.5,-0.5 809.5,-0.5"/>
<text text-anchor="middle" x="871.5" y="-7.5" font-family="Helvetica,sans-Serif" font-size="10.00">AMReX_Interpolater.H</text>
</a>
</g>
</g>
<!-- Node22&#45;&gt;Node24 -->
<g id="edge25" class="edge">
<title>Node22&#45;&gt;Node24</title>
<path fill="none" stroke="midnightblue" d="M871.5,-56.08C871.5,-49.01 871.5,-38.86 871.5,-29.99"/>
<polygon fill="midnightblue" stroke="midnightblue" points="875,-29.75 871.5,-19.75 868,-29.75 875,-29.75"/>
</g>
<!-- Node25&#45;&gt;Node6 -->
<g id="edge28" class="edge">
<title>Node25&#45;&gt;Node6</title>
<path fill="none" stroke="midnightblue" d="M2161.43,-117.98C2132.49,-107.72 2083.74,-90.46 2051.1,-78.9"/>
<polygon fill="midnightblue" stroke="midnightblue" points="2052.12,-75.55 2041.53,-75.51 2049.78,-82.15 2052.12,-75.55"/>
</g>
<!-- Node25&#45;&gt;Node7 -->
<g id="edge29" class="edge">
<title>Node25&#45;&gt;Node7</title>
<path fill="none" stroke="midnightblue" d="M2123.18,-120.38C2001.92,-108.46 1741.4,-82.79 1680.47,-75.94"/>
<polygon fill="midnightblue" stroke="midnightblue" points="1680.56,-72.43 1670.22,-74.72 1679.74,-79.38 1680.56,-72.43"/>
</g>
<!-- Node25&#45;&gt;Node12 -->
<g id="edge33" class="edge">
<title>Node25&#45;&gt;Node12</title>
<path fill="none" stroke="midnightblue" d="M2197.25,-117.98C2210.28,-108.52 2231.54,-93.1 2247.26,-81.69"/>
<polygon fill="midnightblue" stroke="midnightblue" points="2249.73,-84.21 2255.77,-75.51 2245.62,-78.55 2249.73,-84.21"/>
</g>
<!-- Node25&#45;&gt;Node20 -->
<g id="edge27" class="edge">
<title>Node25&#45;&gt;Node20</title>
<path fill="none" stroke="midnightblue" d="M2235.3,-117.97C2284.99,-107.47 2349.9,-87.13 2319.5,-56 2290.01,-25.8 842.62,-22.67 800.5,-20 782.35,-18.85 762.14,-16.8 745.77,-14.95"/>
<polygon fill="midnightblue" stroke="midnightblue" points="745.97,-11.45 735.63,-13.78 745.16,-18.41 745.97,-11.45"/>
</g>
<!-- Node25&#45;&gt;Node21 -->
<g id="edge35" class="edge">
<title>Node25&#45;&gt;Node21</title>
<path fill="none" stroke="midnightblue" d="M2222.12,-117.94C2269.1,-106.59 2345.5,-86.75 2353.5,-76 2358.8,-68.87 2359.68,-62.39 2353.5,-56 2310.11,-11.2 1293.76,-23.57 1231.5,-20 1227.98,-19.8 1224.4,-19.58 1220.78,-19.34"/>
<polygon fill="midnightblue" stroke="midnightblue" points="1220.73,-15.83 1210.52,-18.65 1220.26,-22.82 1220.73,-15.83"/>
</g>
<!-- Node25&#45;&gt;Node23 -->
<g id="edge31" class="edge">
<title>Node25&#45;&gt;Node23</title>
<path fill="none" stroke="midnightblue" d="M2228.44,-117.94C2239.22,-115.9 2250.77,-113.79 2261.5,-112 2374.67,-93.13 2592.91,-138.81 2513.5,-56 2478.51,-19.51 1732.44,-12.55 1505.45,-11.27"/>
<polygon fill="midnightblue" stroke="midnightblue" points="1505.37,-7.77 1495.35,-11.22 1505.33,-14.77 1505.37,-7.77"/>
</g>
<!-- Node26 -->
<g id="node26" class="node">
<title>Node26</title>
<g id="a_node26"><a xlink:title=" ">
<polygon fill="white" stroke="#bfbfbf" points="2561.5,-56.5 2561.5,-75.5 2625.5,-75.5 2625.5,-56.5 2561.5,-56.5"/>
<text text-anchor="middle" x="2593.5" y="-63.5" font-family="Helvetica,sans-Serif" font-size="10.00">algorithm</text>
</a>
</g>
</g>
<!-- Node25&#45;&gt;Node26 -->
<g id="edge30" class="edge">
<title>Node25&#45;&gt;Node26</title>
<path fill="none" stroke="midnightblue" d="M2227.63,-117.97C2238.63,-115.88 2250.49,-113.74 2261.5,-112 2388.04,-91.99 2421.01,-96.31 2547.5,-76 2548.77,-75.8 2550.05,-75.58 2551.34,-75.37"/>
<polygon fill="midnightblue" stroke="midnightblue" points="2552.15,-78.78 2561.38,-73.57 2550.92,-71.89 2552.15,-78.78"/>
</g>
<!-- Node27 -->
<g id="node27" class="node">
<title>Node27</title>
<g id="a_node27"><a xlink:title=" ">
<polygon fill="white" stroke="#bfbfbf" points="2406,-56.5 2406,-75.5 2505,-75.5 2505,-56.5 2406,-56.5"/>
<text text-anchor="middle" x="2455.5" y="-63.5" font-family="Helvetica,sans-Serif" font-size="10.00">AMReX_BCRec.H</text>
</a>
</g>
</g>
<!-- Node25&#45;&gt;Node27 -->
<g id="edge32" class="edge">
<title>Node25&#45;&gt;Node27</title>
<path fill="none" stroke="midnightblue" d="M2224.18,-117.98C2272.3,-107.37 2354.49,-89.26 2406.83,-77.72"/>
<polygon fill="midnightblue" stroke="midnightblue" points="2407.87,-81.08 2416.89,-75.51 2406.37,-74.24 2407.87,-81.08"/>
</g>
<!-- Node28 -->
<g id="node28" class="node">
<title>Node28</title>
<g id="a_node28"><a xlink:href="incflo__enums_8_h.html" target="_top" xlink:title=" ">
<polygon fill="white" stroke="black" points="2065,-56.5 2065,-75.5 2206,-75.5 2206,-56.5 2065,-56.5"/>
<text text-anchor="middle" x="2135.5" y="-63.5" font-family="Helvetica,sans-Serif" font-size="10.00">amr&#45;wind/incflo_enums.H</text>
</a>
</g>
</g>
<!-- Node25&#45;&gt;Node28 -->
<g id="edge34" class="edge">
<title>Node25&#45;&gt;Node28</title>
<path fill="none" stroke="midnightblue" d="M2178.34,-117.98C2170.76,-108.96 2158.63,-94.52 2149.21,-83.31"/>
<polygon fill="midnightblue" stroke="midnightblue" points="2151.76,-80.91 2142.65,-75.51 2146.4,-85.42 2151.76,-80.91"/>
</g>
<!-- Node29 -->
<g id="node29" class="node">
<title>Node29</title>
<g id="a_node29"><a xlink:href="_view_field_8_h.html" target="_top" xlink:title=" ">
<polygon fill="white" stroke="black" points="1226.5,-56.5 1226.5,-75.5 1374.5,-75.5 1374.5,-56.5 1226.5,-56.5"/>
<text text-anchor="middle" x="1300.5" y="-63.5" font-family="Helvetica,sans-Serif" font-size="10.00">amr&#45;wind/core/ViewField.H</text>
</a>
</g>
</g>
<!-- Node25&#45;&gt;Node29 -->
<g id="edge36" class="edge">
<title>Node25&#45;&gt;Node29</title>
<path fill="none" stroke="midnightblue" d="M2123.26,-119.89C2096.83,-117.22 2065.68,-114.24 2037.5,-112 1912.88,-102.09 1550.35,-81.16 1384.77,-71.75"/>
<polygon fill="midnightblue" stroke="midnightblue" points="1384.81,-68.25 1374.63,-71.18 1384.41,-75.24 1384.81,-68.25"/>
</g>
<!-- Node29&#45;&gt;Node20 -->
<g id="edge37" class="edge">
<title>Node29&#45;&gt;Node20</title>
<path fill="none" stroke="midnightblue" d="M1226.35,-58.64C1128.7,-50.19 951.66,-34.62 800.5,-20 782.4,-18.25 762.19,-16.17 745.81,-14.45"/>
<polygon fill="midnightblue" stroke="midnightblue" points="745.97,-10.94 735.66,-13.37 745.24,-17.91 745.97,-10.94"/>
</g>
<!-- Node29&#45;&gt;Node21 -->
<g id="edge38" class="edge">
<title>Node29&#45;&gt;Node21</title>
<path fill="none" stroke="midnightblue" d="M1272.3,-56.44C1242.09,-47.28 1193.99,-32.69 1160.47,-22.52"/>
<polygon fill="midnightblue" stroke="midnightblue" points="1161.16,-19.07 1150.57,-19.52 1159.13,-25.77 1161.16,-19.07"/>
</g>
<!-- Node29&#45;&gt;Node23 -->
<g id="edge39" class="edge">
<title>Node29&#45;&gt;Node23</title>
<path fill="none" stroke="midnightblue" d="M1322.68,-56.44C1345.93,-47.48 1382.65,-33.31 1408.92,-23.18"/>
<polygon fill="midnightblue" stroke="midnightblue" points="1410.35,-26.38 1418.42,-19.52 1407.83,-19.85 1410.35,-26.38"/>
</g>
<!-- Node30 -->
<g id="node30" class="node">
<title>Node30</title>
<g id="a_node30"><a xlink:title=" ">
<polygon fill="white" stroke="#bfbfbf" points="1240.5,-0.5 1240.5,-19.5 1338.5,-19.5 1338.5,-0.5 1240.5,-0.5"/>
<text text-anchor="middle" x="1289.5" y="-7.5" font-family="Helvetica,sans-Serif" font-size="10.00">AMReX_Vector.H</text>
</a>
</g>
</g>
<!-- Node29&#45;&gt;Node30 -->
<g id="edge40" class="edge">
<title>Node29&#45;&gt;Node30</title>
<path fill="none" stroke="midnightblue" d="M1298.68,-56.08C1297.23,-48.93 1295.13,-38.64 1293.31,-29.69"/>
<polygon fill="midnightblue" stroke="midnightblue" points="1296.71,-28.85 1291.28,-19.75 1289.85,-30.25 1296.71,-28.85"/>
</g>
<!-- Node31&#45;&gt;Node20 -->
<g id="edge42" class="edge">
<title>Node31&#45;&gt;Node20</title>
<path fill="none" stroke="midnightblue" d="M645.56,-117.61C639.98,-103.57 631.59,-75.83 642.5,-56 650.98,-40.58 667.23,-29.7 682.04,-22.51"/>
<polygon fill="midnightblue" stroke="midnightblue" points="683.76,-25.57 691.47,-18.3 680.91,-19.18 683.76,-25.57"/>
</g>
<!-- Node31&#45;&gt;Node21 -->
<g id="edge43" class="edge">
<title>Node31&#45;&gt;Node21</title>
<path fill="none" stroke="midnightblue" d="M659.26,-117.77C677.11,-102.36 716.83,-70.59 756.5,-56 804.06,-38.51 932.77,-25.44 1024.07,-18.01"/>
<polygon fill="midnightblue" stroke="midnightblue" points="1024.49,-21.49 1034.18,-17.2 1023.93,-14.51 1024.49,-21.49"/>
</g>
<!-- Node31&#45;&gt;Node32 -->
<g id="edge44" class="edge">
<title>Node31&#45;&gt;Node32</title>
<path fill="none" stroke="midnightblue" d="M633.02,-117.98C613.89,-108.08 582.13,-91.64 559.85,-80.12"/>
<polygon fill="midnightblue" stroke="midnightblue" points="561.44,-77 550.95,-75.51 558.22,-83.21 561.44,-77"/>
</g>
<!-- Node33&#45;&gt;Node20 -->
<g id="edge46" class="edge">
<title>Node33&#45;&gt;Node20</title>
<path fill="none" stroke="midnightblue" d="M1118.34,-122.09C1016.39,-115.54 846.7,-101.22 789.5,-76 764.3,-64.89 741.15,-42.59 727.18,-27.24"/>
<polygon fill="midnightblue" stroke="midnightblue" points="729.65,-24.74 720.42,-19.54 724.39,-29.36 729.65,-24.74"/>
</g>
<!-- Node33&#45;&gt;Node21 -->
<g id="edge47" class="edge">
<title>Node33&#45;&gt;Node21</title>
<path fill="none" stroke="midnightblue" d="M1187.11,-117.99C1175.49,-108.77 1157.62,-93.09 1146.5,-76 1137.17,-61.66 1130.8,-43.2 1126.98,-29.62"/>
<polygon fill="midnightblue" stroke="midnightblue" points="1130.27,-28.35 1124.36,-19.55 1123.49,-30.11 1130.27,-28.35"/>
</g>
<!-- Node33&#45;&gt;Node23 -->
<g id="edge49" class="edge">
<title>Node33&#45;&gt;Node23</title>
<path fill="none" stroke="midnightblue" d="M1265.21,-117.94C1302.2,-110.92 1347.79,-98.32 1383.5,-76 1402.92,-63.86 1419.44,-43.1 1429.62,-28.31"/>
<polygon fill="midnightblue" stroke="midnightblue" points="1432.77,-29.88 1435.36,-19.6 1426.93,-26.03 1432.77,-29.88"/>
</g>
<!-- Node33&#45;&gt;Node29 -->
<g id="edge48" class="edge">
<title>Node33&#45;&gt;Node29</title>
<path fill="none" stroke="midnightblue" d="M1213.11,-117.98C1229.85,-108.21 1257.5,-92.08 1277.22,-80.58"/>
<polygon fill="midnightblue" stroke="midnightblue" points="1279.04,-83.57 1285.91,-75.51 1275.51,-77.52 1279.04,-83.57"/>
</g>
<!-- Node33&#45;&gt;Node30 -->
<g id="edge50" class="edge">
<title>Node33&#45;&gt;Node30</title>
<path fill="none" stroke="midnightblue" d="M1198.84,-117.82C1199.79,-103.58 1203.46,-74.94 1217.5,-56 1227.87,-42.01 1244,-31.35 1258.36,-23.92"/>
<polygon fill="midnightblue" stroke="midnightblue" points="1260,-27.02 1267.47,-19.51 1256.95,-20.72 1260,-27.02"/>
</g>
<!-- Node34 -->
<g id="node34" class="node">
<title>Node34</title>
<g id="a_node34"><a xlink:title=" ">
<polygon fill="white" stroke="#bfbfbf" points="963,-56.5 963,-75.5 1094,-75.5 1094,-56.5 963,-56.5"/>
<text text-anchor="middle" x="1028.5" y="-63.5" font-family="Helvetica,sans-Serif" font-size="10.00">AMReX_PhysBCFunct.H</text>
</a>
</g>
</g>
<!-- Node33&#45;&gt;Node34 -->
<g id="edge51" class="edge">
<title>Node33&#45;&gt;Node34</title>
<path fill="none" stroke="midnightblue" d="M1174.14,-117.98C1144.86,-107.72 1095.53,-90.46 1062.5,-78.9"/>
<polygon fill="midnightblue" stroke="midnightblue" points="1063.41,-75.51 1052.81,-75.51 1061.09,-82.12 1063.41,-75.51"/>
</g>
<!-- Node35&#45;&gt;Node5 -->
<g id="edge57" class="edge">
<title>Node35&#45;&gt;Node5</title>
<path fill="none" stroke="midnightblue" d="M1761.13,-179.4C1732.28,-167.89 1691.92,-151.8 1664.36,-140.81"/>
<polygon fill="midnightblue" stroke="midnightblue" points="1665.42,-137.46 1654.83,-137.01 1662.83,-143.96 1665.42,-137.46"/>
</g>
<!-- Node35&#45;&gt;Node20 -->
<g id="edge56" class="edge">
<title>Node35&#45;&gt;Node20</title>
<path fill="none" stroke="midnightblue" d="M1718.88,-183.87C1703.21,-182.1 1686.84,-180.38 1671.5,-179 1422.22,-156.57 1357.82,-174.33 1109.5,-143 950.63,-122.96 888.37,-165.37 755.5,-76 738.65,-64.67 727.06,-44.06 720.39,-29.08"/>
<polygon fill="midnightblue" stroke="midnightblue" points="723.6,-27.7 716.55,-19.79 717.13,-30.37 723.6,-27.7"/>
</g>
<!-- Node35&#45;&gt;Node21 -->
<g id="edge65" class="edge">
<title>Node35&#45;&gt;Node21</title>
<path fill="none" stroke="midnightblue" d="M1718.7,-181.15C1660.25,-171.11 1585.62,-156.45 1557.5,-143 1537.84,-133.59 1539.56,-120.52 1519.5,-112 1395.08,-59.18 1344.04,-123.54 1217.5,-76 1187.28,-64.65 1157.36,-41.73 1139.41,-26.37"/>
<polygon fill="midnightblue" stroke="midnightblue" points="1141.43,-23.49 1131.6,-19.53 1136.81,-28.75 1141.43,-23.49"/>
</g>
<!-- Node35&#45;&gt;Node28 -->
<g id="edge66" class="edge">
<title>Node35&#45;&gt;Node28</title>
<path fill="none" stroke="midnightblue" d="M1873.5,-179.47C1938.34,-167.3 2022.82,-150.51 2037.5,-143 2055.7,-133.69 2055.55,-124.8 2071.5,-112 2085.14,-101.06 2101.25,-89.74 2113.89,-81.19"/>
<polygon fill="midnightblue" stroke="midnightblue" points="2116.03,-83.97 2122.4,-75.5 2112.14,-78.15 2116.03,-83.97"/>
</g>
<!-- Node36 -->
<g id="node36" class="node">
<title>Node36</title>
<g id="a_node36"><a xlink:href="_coll_mgr_8_h.html" target="_top" xlink:title=" ">
<polygon fill="white" stroke="black" points="1892,-118 1892,-137 2029,-137 2029,-118 1892,-118"/>
<text text-anchor="middle" x="1960.5" y="-125" font-family="Helvetica,sans-Serif" font-size="10.00">amr&#45;wind/core/CollMgr.H</text>
</a>
</g>
</g>
<!-- Node35&#45;&gt;Node36 -->
<g id="edge58" class="edge">
<title>Node35&#45;&gt;Node36</title>
<path fill="none" stroke="midnightblue" d="M1832.09,-179.4C1861.12,-167.89 1901.72,-151.8 1929.45,-140.81"/>
<polygon fill="midnightblue" stroke="midnightblue" points="1931.03,-143.95 1939.04,-137.01 1928.45,-137.44 1931.03,-143.95"/>
</g>
<!-- Node37 -->
<g id="node37" class="node">
<title>Node37</title>
<g id="a_node37"><a xlink:href="_p_d_e_fields_8_h.html" target="_top" xlink:title=" ">
<polygon fill="white" stroke="black" points="1719,-112.5 1719,-142.5 1874,-142.5 1874,-112.5 1719,-112.5"/>
<text text-anchor="start" x="1727" y="-130.5" font-family="Helvetica,sans-Serif" font-size="10.00">amr&#45;wind/equation_systems</text>
<text text-anchor="middle" x="1796.5" y="-119.5" font-family="Helvetica,sans-Serif" font-size="10.00">/PDEFields.H</text>
</a>
</g>
</g>
<!-- Node35&#45;&gt;Node37 -->
<g id="edge63" class="edge">
<title>Node35&#45;&gt;Node37</title>
<path fill="none" stroke="midnightblue" d="M1796.5,-179.4C1796.5,-171.64 1796.5,-161.81 1796.5,-152.86"/>
<polygon fill="midnightblue" stroke="midnightblue" points="1800,-152.58 1796.5,-142.58 1793,-152.58 1800,-152.58"/>
</g>
<!-- Node36&#45;&gt;Node6 -->
<g id="edge60" class="edge">
<title>Node36&#45;&gt;Node6</title>
<path fill="none" stroke="midnightblue" d="M1968.67,-117.98C1977.39,-108.87 1991.4,-94.24 2002.19,-82.98"/>
<polygon fill="midnightblue" stroke="midnightblue" points="2004.96,-85.15 2009.35,-75.51 1999.9,-80.31 2004.96,-85.15"/>
</g>
<!-- Node36&#45;&gt;Node7 -->
<g id="edge61" class="edge">
<title>Node36&#45;&gt;Node7</title>
<path fill="none" stroke="midnightblue" d="M1915.15,-117.98C1904.45,-115.99 1893.07,-113.9 1882.5,-112 1813.02,-99.51 1732.94,-85.68 1680.44,-76.69"/>
<polygon fill="midnightblue" stroke="midnightblue" points="1680.77,-73.2 1670.32,-74.96 1679.59,-80.1 1680.77,-73.2"/>
</g>
<!-- Node36&#45;&gt;Node20 -->
<g id="edge59" class="edge">
<title>Node36&#45;&gt;Node20</title>
<path fill="none" stroke="midnightblue" d="M1956.55,-117.76C1948.9,-102.05 1930.41,-69.39 1903.5,-56 1793.72,-1.37 922.84,-28.31 800.5,-20 782.36,-18.77 762.15,-16.72 745.78,-14.89"/>
<polygon fill="midnightblue" stroke="midnightblue" points="745.97,-11.39 735.63,-13.72 745.17,-18.34 745.97,-11.39"/>
</g>
<!-- Node36&#45;&gt;Node30 -->
<g id="edge62" class="edge">
<title>Node36&#45;&gt;Node30</title>
<path fill="none" stroke="midnightblue" d="M1960.43,-117.84C1959.78,-102.53 1956.01,-70.93 1936.5,-56 1886.99,-18.1 1438.63,-25.21 1376.5,-20 1367.5,-19.25 1357.98,-18.36 1348.68,-17.43"/>
<polygon fill="midnightblue" stroke="midnightblue" points="1349,-13.95 1338.7,-16.43 1348.3,-20.91 1349,-13.95"/>
</g>
<!-- Node38 -->
<g id="node38" class="node">
<title>Node38</title>
<g id="a_node38"><a xlink:title=" ">
<polygon fill="white" stroke="#bfbfbf" points="1846.5,-56.5 1846.5,-75.5 1894.5,-75.5 1894.5,-56.5 1846.5,-56.5"/>
<text text-anchor="middle" x="1870.5" y="-63.5" font-family="Helvetica,sans-Serif" font-size="10.00">iosfwd</text>
</a>
</g>
</g>
<!-- Node37&#45;&gt;Node38 -->
<g id="edge64" class="edge">
<title>Node37&#45;&gt;Node38</title>
<path fill="none" stroke="midnightblue" d="M1814.04,-112.4C1825.34,-103.31 1840.04,-91.49 1851.61,-82.19"/>
<polygon fill="midnightblue" stroke="midnightblue" points="1854.13,-84.65 1859.73,-75.66 1849.75,-79.2 1854.13,-84.65"/>
</g>
<!-- Node39&#45;&gt;Node5 -->
<g id="edge68" class="edge">
<title>Node39&#45;&gt;Node5</title>
<path fill="none" stroke="midnightblue" d="M2078.69,-184.93C2067.28,-182.82 2054.95,-180.68 2043.5,-179 1895.78,-157.34 1857.17,-165.01 1709.5,-143 1701.47,-141.8 1693,-140.36 1684.74,-138.86"/>
<polygon fill="midnightblue" stroke="midnightblue" points="1685.28,-135.4 1674.81,-137.01 1684,-142.29 1685.28,-135.4"/>
</g>
<!-- Node39&#45;&gt;Node23 -->
<g id="edge70" class="edge">
<title>Node39&#45;&gt;Node23</title>
<path fill="none" stroke="midnightblue" d="M2152.8,-184.97C2181.01,-176.56 2223.08,-162.19 2256.5,-143 2275.4,-132.15 2274.38,-120.39 2294.5,-112 2435.86,-53.08 2740.73,-166.31 2634.5,-56 2595.09,-15.08 1748.52,-11.24 1505.3,-10.98"/>
<polygon fill="midnightblue" stroke="midnightblue" points="1505.2,-7.48 1495.2,-10.98 1505.2,-14.48 1505.2,-7.48"/>
</g>
<!-- Node39&#45;&gt;Node36 -->
<g id="edge69" class="edge">
<title>Node39&#45;&gt;Node36</title>
<path fill="none" stroke="midnightblue" d="M2100.12,-184.87C2072.14,-173.57 2022.91,-153.7 1991.01,-140.82"/>
<polygon fill="midnightblue" stroke="midnightblue" points="1992.29,-137.56 1981.71,-137.06 1989.67,-144.05 1992.29,-137.56"/>
</g>
<!-- Node40 -->
<g id="node40" class="node">
<title>Node40</title>
<g id="a_node40"><a xlink:title=" ">
<polygon fill="white" stroke="#bfbfbf" points="2304,-118 2304,-137 2419,-137 2419,-118 2304,-118"/>
<text text-anchor="middle" x="2361.5" y="-125" font-family="Helvetica,sans-Serif" font-size="10.00">AMReX_Geometry.H</text>
</a>
</g>
</g>
<!-- Node39&#45;&gt;Node40 -->
<g id="edge71" class="edge">
<title>Node39&#45;&gt;Node40</title>
<path fill="none" stroke="midnightblue" d="M2153.37,-184.87C2196.25,-173.25 2272.61,-152.58 2319.95,-139.75"/>
<polygon fill="midnightblue" stroke="midnightblue" points="2321.14,-143.06 2329.88,-137.06 2319.31,-136.3 2321.14,-143.06"/>
</g>
<!-- Node41&#45;&gt;Node23 -->
<g id="edge76" class="edge">
<title>Node41&#45;&gt;Node23</title>
<path fill="none" stroke="midnightblue" d="M2685.21,-189.99C2755.36,-183.35 2862.41,-164.5 2824.5,-112 2778.18,-47.85 2733.37,-70.05 2655.5,-56 2431.59,-15.6 1723.19,-11.33 1505.06,-10.99"/>
<polygon fill="midnightblue" stroke="midnightblue" points="1505.06,-7.49 1495.05,-10.98 1505.05,-14.49 1505.06,-7.49"/>
</g>
<!-- Node41&#45;&gt;Node25 -->
<g id="edge75" class="edge">
<title>Node41&#45;&gt;Node25</title>
<path fill="none" stroke="midnightblue" d="M2573.89,-180.76C2570.72,-180.14 2567.57,-179.55 2564.5,-179 2563.56,-178.83 2367.65,-152.75 2257.91,-138.14"/>
<polygon fill="midnightblue" stroke="midnightblue" points="2258.27,-134.65 2247.89,-136.8 2257.34,-141.59 2258.27,-134.65"/>
</g>
<!-- Node42&#45;&gt;Node7 -->
<g id="edge79" class="edge">
<title>Node42&#45;&gt;Node7</title>
<path fill="none" stroke="midnightblue" d="M422.11,-122.27C462.69,-119.06 520.67,-114.75 571.5,-112 1010.46,-88.24 1124.93,-118.76 1566.64,-75.94"/>
<polygon fill="midnightblue" stroke="midnightblue" points="1567.19,-79.4 1576.8,-74.95 1566.51,-72.43 1567.19,-79.4"/>
</g>
<!-- Node42&#45;&gt;Node20 -->
<g id="edge78" class="edge">
<title>Node42&#45;&gt;Node20</title>
<path fill="none" stroke="midnightblue" d="M371.95,-112.38C374.41,-96.09 381.02,-69.77 398.5,-56 441.84,-21.85 609.32,-13.6 680.83,-11.62"/>
<polygon fill="midnightblue" stroke="midnightblue" points="681.15,-15.11 691.06,-11.36 680.97,-8.11 681.15,-15.11"/>
</g>
<!-- Node42&#45;&gt;Node30 -->
<g id="edge81" class="edge">
<title>Node42&#45;&gt;Node30</title>
<path fill="none" stroke="midnightblue" d="M384.72,-112.25C402.69,-95.3 435.41,-67.81 469.5,-56 627.17,-1.4 1053.29,-34.65 1219.5,-20 1222.96,-19.69 1226.51,-19.35 1230.1,-18.97"/>
<polygon fill="midnightblue" stroke="midnightblue" points="1230.67,-22.43 1240.22,-17.84 1229.89,-15.47 1230.67,-22.43"/>
</g>
<!-- Node43 -->
<g id="node43" class="node">
<title>Node43</title>
<g id="a_node43"><a xlink:title=" ">
<polygon fill="white" stroke="#bfbfbf" points="184.5,-56.5 184.5,-75.5 216.5,-75.5 216.5,-56.5 184.5,-56.5"/>
<text text-anchor="middle" x="200.5" y="-63.5" font-family="Helvetica,sans-Serif" font-size="10.00">set</text>
</a>
</g>
</g>
<!-- Node42&#45;&gt;Node43 -->
<g id="edge80" class="edge">
<title>Node42&#45;&gt;Node43</title>
<path fill="none" stroke="midnightblue" d="M329.83,-112.46C302.85,-103.12 266.41,-90.45 226.11,-76.19"/>
<polygon fill="midnightblue" stroke="midnightblue" points="227.22,-72.87 216.63,-72.83 224.89,-79.47 227.22,-72.87"/>
</g>
<!-- Node44 -->
<g id="node44" class="node">
<title>Node44</title>
<g id="a_node44"><a xlink:title=" ">
<polygon fill="white" stroke="#bfbfbf" points="235,-56.5 235,-75.5 346,-75.5 346,-56.5 235,-56.5"/>
<text text-anchor="middle" x="290.5" y="-63.5" font-family="Helvetica,sans-Serif" font-size="10.00">AMReX_BoxArray.H</text>
</a>
</g>
</g>
<!-- Node42&#45;&gt;Node44 -->
<g id="edge82" class="edge">
<title>Node42&#45;&gt;Node44</title>
<path fill="none" stroke="midnightblue" d="M351.54,-112.4C339.08,-103.13 322.8,-91.03 310.19,-81.65"/>
<polygon fill="midnightblue" stroke="midnightblue" points="312.25,-78.82 302.14,-75.66 308.08,-84.43 312.25,-78.82"/>
</g>
<!-- Node45 -->
<g id="node45" class="node">
<title>Node45</title>
<g id="a_node45"><a xlink:title=" ">
<polygon fill="white" stroke="#bfbfbf" points="0,-56.5 0,-75.5 167,-75.5 167,-56.5 0,-56.5"/>
<text text-anchor="middle" x="83.5" y="-63.5" font-family="Helvetica,sans-Serif" font-size="10.00">AMReX_DistributionMapping.H</text>
</a>
</g>
</g>
<!-- Node42&#45;&gt;Node45 -->
<g id="edge83" class="edge">
<title>Node42&#45;&gt;Node45</title>
<path fill="none" stroke="midnightblue" d="M318.86,-115.79C266.66,-104.97 186.49,-88.35 134.52,-77.58"/>
<polygon fill="midnightblue" stroke="midnightblue" points="135.02,-74.11 124.51,-75.5 133.59,-80.96 135.02,-74.11"/>
</g>
</g>
</svg>
