<?xml version="1.0" encoding="UTF-8" standalone="no"?>
<!DOCTYPE svg PUBLIC "-//W3C//DTD SVG 1.1//EN"
 "http://www.w3.org/Graphics/SVG/1.1/DTD/svg11.dtd">
<!-- Generated by graphviz version 2.43.0 (0)
 -->
<!-- Title: UniformCt.H Pages: 1 -->
<svg width="665pt" height="464pt"
 viewBox="0.00 0.00 664.89 464.00" xmlns="http://www.w3.org/2000/svg" xmlns:xlink="http://www.w3.org/1999/xlink">
<g id="graph0" class="graph" transform="scale(1 1) rotate(0) translate(4 460)">
<title>UniformCt.H</title>
<polygon fill="white" stroke="transparent" points="-4,4 -4,-460 660.89,-460 660.89,4 -4,4"/>
<!-- Node1 -->
<g id="node1" class="node">
<title>Node1</title>
<g id="a_node1"><a xlink:title=" ">
<polygon fill="#bfbfbf" stroke="black" points="269.5,-436.5 269.5,-455.5 346.5,-455.5 346.5,-436.5 269.5,-436.5"/>
<text text-anchor="middle" x="308" y="-443.5" font-family="Helvetica,sans-Serif" font-size="10.00">UniformCt.H</text>
</a>
</g>
</g>
<!-- Node2 -->
<g id="node2" class="node">
<title>Node2</title>
<g id="a_node2"><a xlink:href="disk__types_8_h.html" target="_top" xlink:title=" ">
<polygon fill="white" stroke="black" points="182.5,-369.5 182.5,-399.5 331.5,-399.5 331.5,-369.5 182.5,-369.5"/>
<text text-anchor="start" x="190.5" y="-387.5" font-family="Helvetica,sans-Serif" font-size="10.00">amr&#45;wind/wind_energy</text>
<text text-anchor="middle" x="257" y="-376.5" font-family="Helvetica,sans-Serif" font-size="10.00">/actuator/disk/disk_types.H</text>
</a>
</g>
</g>
<!-- Node1&#45;&gt;Node2 -->
<g id="edge1" class="edge">
<title>Node1&#45;&gt;Node2</title>
<path fill="none" stroke="midnightblue" d="M300.69,-436.48C294.17,-428.87 284.34,-417.4 275.66,-407.26"/>
<polygon fill="midnightblue" stroke="midnightblue" points="278.19,-404.84 269.02,-399.52 272.87,-409.39 278.19,-404.84"/>
</g>
<!-- Node8 -->
<g id="node8" class="node">
<title>Node8</title>
<g id="a_node8"><a xlink:href="vector__space_8_h.html" target="_top" xlink:title=" ">
<polygon fill="white" stroke="black" points="356.5,-235.5 356.5,-265.5 491.5,-265.5 491.5,-235.5 356.5,-235.5"/>
<text text-anchor="start" x="364.5" y="-253.5" font-family="Helvetica,sans-Serif" font-size="10.00">amr&#45;wind/core/vs/vector</text>
<text text-anchor="middle" x="424" y="-242.5" font-family="Helvetica,sans-Serif" font-size="10.00">_space.H</text>
</a>
</g>
</g>
<!-- Node1&#45;&gt;Node8 -->
<g id="edge31" class="edge">
<title>Node1&#45;&gt;Node8</title>
<path fill="none" stroke="midnightblue" d="M314.65,-436.22C321.33,-427.28 331.77,-412.94 340,-400 367.42,-356.89 396.03,-304.45 411.77,-274.83"/>
<polygon fill="midnightblue" stroke="midnightblue" points="415.02,-276.18 416.6,-265.71 408.83,-272.91 415.02,-276.18"/>
</g>
<!-- Node3 -->
<g id="node3" class="node">
<title>Node3</title>
<g id="a_node3"><a xlink:href="actuator__types_8_h.html" target="_top" xlink:title=" ">
<polygon fill="white" stroke="black" points="98,-302.5 98,-332.5 244,-332.5 244,-302.5 98,-302.5"/>
<text text-anchor="start" x="106" y="-320.5" font-family="Helvetica,sans-Serif" font-size="10.00">amr&#45;wind/wind_energy</text>
<text text-anchor="middle" x="171" y="-309.5" font-family="Helvetica,sans-Serif" font-size="10.00">/actuator/actuator_types.H</text>
</a>
</g>
</g>
<!-- Node2&#45;&gt;Node3 -->
<g id="edge2" class="edge">
<title>Node2&#45;&gt;Node3</title>
<path fill="none" stroke="midnightblue" d="M238.34,-369.4C226.51,-360.45 211.01,-348.74 197.86,-338.8"/>
<polygon fill="midnightblue" stroke="midnightblue" points="199.71,-335.81 189.62,-332.58 195.49,-341.4 199.71,-335.81"/>
</g>
<!-- Node4 -->
<g id="node4" class="node">
<title>Node4</title>
<g id="a_node4"><a xlink:href="_slice_8_h.html" target="_top" xlink:title=" ">
<polygon fill="white" stroke="black" points="88,-241 88,-260 212,-260 212,-241 88,-241"/>
<text text-anchor="middle" x="150" y="-248" font-family="Helvetica,sans-Serif" font-size="10.00">amr&#45;wind/core/Slice.H</text>
</a>
</g>
</g>
<!-- Node3&#45;&gt;Node4 -->
<g id="edge3" class="edge">
<title>Node3&#45;&gt;Node4</title>
<path fill="none" stroke="midnightblue" d="M166.44,-302.4C163.36,-292.86 159.27,-280.18 155.93,-269.86"/>
<polygon fill="midnightblue" stroke="midnightblue" points="159.21,-268.63 152.81,-260.19 152.55,-270.79 159.21,-268.63"/>
</g>
<!-- Node7 -->
<g id="node7" class="node">
<title>Node7</title>
<g id="a_node7"><a xlink:title=" ">
<polygon fill="white" stroke="#bfbfbf" points="92.5,-0.5 92.5,-19.5 179.5,-19.5 179.5,-0.5 92.5,-0.5"/>
<text text-anchor="middle" x="136" y="-7.5" font-family="Helvetica,sans-Serif" font-size="10.00">AMReX_Gpu.H</text>
</a>
</g>
</g>
<!-- Node3&#45;&gt;Node7 -->
<g id="edge28" class="edge">
<title>Node3&#45;&gt;Node7</title>
<path fill="none" stroke="midnightblue" d="M129.19,-302.31C111.32,-294.26 91.68,-282.45 79,-266 57.74,-238.43 60,-224.82 60,-190 60,-190 60,-190 60,-132 60,-88.48 95.7,-47.77 118.16,-26.47"/>
<polygon fill="midnightblue" stroke="midnightblue" points="120.73,-28.86 125.75,-19.53 116.01,-23.7 120.73,-28.86"/>
</g>
<!-- Node3&#45;&gt;Node8 -->
<g id="edge7" class="edge">
<title>Node3&#45;&gt;Node8</title>
<path fill="none" stroke="midnightblue" d="M225.59,-302.48C264.85,-292.39 317.97,-278.74 359.36,-268.11"/>
<polygon fill="midnightblue" stroke="midnightblue" points="360.26,-271.49 369.08,-265.61 358.52,-264.71 360.26,-271.49"/>
</g>
<!-- Node19 -->
<g id="node19" class="node">
<title>Node19</title>
<g id="a_node19"><a xlink:title=" ">
<polygon fill="white" stroke="#bfbfbf" points="230,-241 230,-260 338,-260 338,-241 230,-241"/>
<text text-anchor="middle" x="284" y="-248" font-family="Helvetica,sans-Serif" font-size="10.00">AMReX_RealBox.H</text>
</a>
</g>
</g>
<!-- Node3&#45;&gt;Node19 -->
<g id="edge29" class="edge">
<title>Node3&#45;&gt;Node19</title>
<path fill="none" stroke="midnightblue" d="M195.52,-302.4C214.73,-291.34 241.3,-276.06 260.3,-265.13"/>
<polygon fill="midnightblue" stroke="midnightblue" points="262.29,-268.03 269.21,-260.01 258.8,-261.96 262.29,-268.03"/>
</g>
<!-- Node20 -->
<g id="node20" class="node">
<title>Node20</title>
<g id="a_node20"><a xlink:title=" ">
<polygon fill="white" stroke="#bfbfbf" points="0,-241 0,-260 32,-260 32,-241 0,-241"/>
<text text-anchor="middle" x="16" y="-248" font-family="Helvetica,sans-Serif" font-size="10.00">set</text>
</a>
</g>
</g>
<!-- Node3&#45;&gt;Node20 -->
<g id="edge30" class="edge">
<title>Node3&#45;&gt;Node20</title>
<path fill="none" stroke="midnightblue" d="M134.36,-302.44C109.3,-292.64 75.42,-279.04 46,-266 44.44,-265.31 42.83,-264.58 41.22,-263.84"/>
<polygon fill="midnightblue" stroke="midnightblue" points="42.64,-260.64 32.1,-259.52 39.64,-266.96 42.64,-260.64"/>
</g>
<!-- Node5 -->
<g id="node5" class="node">
<title>Node5</title>
<g id="a_node5"><a xlink:title=" ">
<polygon fill="white" stroke="#bfbfbf" points="126.5,-179.5 126.5,-198.5 179.5,-198.5 179.5,-179.5 126.5,-179.5"/>
<text text-anchor="middle" x="153" y="-186.5" font-family="Helvetica,sans-Serif" font-size="10.00">iterator</text>
</a>
</g>
</g>
<!-- Node4&#45;&gt;Node5 -->
<g id="edge4" class="edge">
<title>Node4&#45;&gt;Node5</title>
<path fill="none" stroke="midnightblue" d="M150.43,-240.98C150.85,-232.58 151.51,-219.48 152.06,-208.66"/>
<polygon fill="midnightblue" stroke="midnightblue" points="155.56,-208.67 152.57,-198.51 148.57,-208.32 155.56,-208.67"/>
</g>
<!-- Node6 -->
<g id="node6" class="node">
<title>Node6</title>
<g id="a_node6"><a xlink:title=" ">
<polygon fill="white" stroke="#bfbfbf" points="198,-179.5 198,-198.5 296,-198.5 296,-179.5 198,-179.5"/>
<text text-anchor="middle" x="247" y="-186.5" font-family="Helvetica,sans-Serif" font-size="10.00">AMReX_Vector.H</text>
</a>
</g>
</g>
<!-- Node4&#45;&gt;Node6 -->
<g id="edge5" class="edge">
<title>Node4&#45;&gt;Node6</title>
<path fill="none" stroke="midnightblue" d="M163.9,-240.98C179.67,-231.3 205.64,-215.37 224.35,-203.89"/>
<polygon fill="midnightblue" stroke="midnightblue" points="226.43,-206.72 233.13,-198.51 222.77,-200.75 226.43,-206.72"/>
</g>
<!-- Node4&#45;&gt;Node7 -->
<g id="edge6" class="edge">
<title>Node4&#45;&gt;Node7</title>
<path fill="none" stroke="midnightblue" d="M142.18,-241C134.07,-231.56 121.9,-215.46 117,-199 99.09,-138.85 118.56,-63.62 129.54,-29.43"/>
<polygon fill="midnightblue" stroke="midnightblue" points="132.89,-30.44 132.75,-19.84 126.26,-28.22 132.89,-30.44"/>
</g>
<!-- Node9 -->
<g id="node9" class="node">
<title>Node9</title>
<g id="a_node9"><a xlink:href="vector_8_h.html" target="_top" xlink:title=" ">
<polygon fill="white" stroke="black" points="232.5,-123.5 232.5,-142.5 377.5,-142.5 377.5,-123.5 232.5,-123.5"/>
<text text-anchor="middle" x="305" y="-130.5" font-family="Helvetica,sans-Serif" font-size="10.00">amr&#45;wind/core/vs/vector.H</text>
</a>
</g>
</g>
<!-- Node8&#45;&gt;Node9 -->
<g id="edge8" class="edge">
<title>Node8&#45;&gt;Node9</title>
<path fill="none" stroke="midnightblue" d="M403.08,-235.41C389.57,-225.86 371.98,-212.56 358,-199 342.54,-184.01 327.26,-164.65 317.1,-150.97"/>
<polygon fill="midnightblue" stroke="midnightblue" points="319.67,-148.55 310.96,-142.53 314.01,-152.67 319.67,-148.55"/>
</g>
<!-- Node16 -->
<g id="node16" class="node">
<title>Node16</title>
<g id="a_node16"><a xlink:href="tensor_8_h.html" target="_top" xlink:title=" ">
<polygon fill="white" stroke="black" points="367.5,-179.5 367.5,-198.5 512.5,-198.5 512.5,-179.5 367.5,-179.5"/>
<text text-anchor="middle" x="440" y="-186.5" font-family="Helvetica,sans-Serif" font-size="10.00">amr&#45;wind/core/vs/tensor.H</text>
</a>
</g>
</g>
<!-- Node8&#45;&gt;Node16 -->
<g id="edge17" class="edge">
<title>Node8&#45;&gt;Node16</title>
<path fill="none" stroke="midnightblue" d="M427.79,-235.4C429.95,-227.38 432.68,-217.23 435.01,-208.57"/>
<polygon fill="midnightblue" stroke="midnightblue" points="438.45,-209.22 437.67,-198.66 431.7,-207.41 438.45,-209.22"/>
</g>
<!-- Node9&#45;&gt;Node7 -->
<g id="edge9" class="edge">
<title>Node9&#45;&gt;Node7</title>
<path fill="none" stroke="midnightblue" d="M269.81,-123.48C246.1,-116.49 215.07,-104.81 192,-87 171.39,-71.09 154.8,-45.67 145.17,-28.66"/>
<polygon fill="midnightblue" stroke="midnightblue" points="148.18,-26.87 140.33,-19.76 142.03,-30.21 148.18,-26.87"/>
</g>
<!-- Node10 -->
<g id="node10" class="node">
<title>Node10</title>
<g id="a_node10"><a xlink:href="vstraits_8_h.html" target="_top" xlink:title=" ">
<polygon fill="white" stroke="black" points="369,-62 369,-81 521,-81 521,-62 369,-62"/>
<text text-anchor="middle" x="445" y="-69" font-family="Helvetica,sans-Serif" font-size="10.00">amr&#45;wind/core/vs/vstraits.H</text>
</a>
</g>
</g>
<!-- Node9&#45;&gt;Node10 -->
<g id="edge10" class="edge">
<title>Node9&#45;&gt;Node10</title>
<path fill="none" stroke="midnightblue" d="M325.06,-123.48C348.76,-113.4 388.41,-96.55 415.58,-85"/>
<polygon fill="midnightblue" stroke="midnightblue" points="417.14,-88.14 424.98,-81.01 414.41,-81.7 417.14,-88.14"/>
</g>
<!-- Node13 -->
<g id="node13" class="node">
<title>Node13</title>
<g id="a_node13"><a xlink:href="vector_i_8_h.html" target="_top" xlink:title=" ">
<polygon fill="white" stroke="black" points="201.5,-62 201.5,-81 350.5,-81 350.5,-62 201.5,-62"/>
<text text-anchor="middle" x="276" y="-69" font-family="Helvetica,sans-Serif" font-size="10.00">amr&#45;wind/core/vs/vectorI.H</text>
</a>
</g>
</g>
<!-- Node9&#45;&gt;Node13 -->
<g id="edge13" class="edge">
<title>Node9&#45;&gt;Node13</title>
<path fill="none" stroke="midnightblue" d="M295.94,-123.48C289.9,-114.9 282.88,-101.43 278.51,-90.48"/>
<polygon fill="midnightblue" stroke="midnightblue" points="281.81,-89.33 275.25,-81.01 275.19,-91.6 281.81,-89.33"/>
</g>
<!-- Node11 -->
<g id="node11" class="node">
<title>Node11</title>
<g id="a_node11"><a xlink:title=" ">
<polygon fill="white" stroke="#bfbfbf" points="409,-0.5 409,-19.5 453,-19.5 453,-0.5 409,-0.5"/>
<text text-anchor="middle" x="431" y="-7.5" font-family="Helvetica,sans-Serif" font-size="10.00">limits</text>
</a>
</g>
</g>
<!-- Node10&#45;&gt;Node11 -->
<g id="edge11" class="edge">
<title>Node10&#45;&gt;Node11</title>
<path fill="none" stroke="midnightblue" d="M442.99,-61.98C441,-53.49 437.87,-40.2 435.31,-29.32"/>
<polygon fill="midnightblue" stroke="midnightblue" points="438.7,-28.44 433,-19.51 431.89,-30.04 438.7,-28.44"/>
</g>
<!-- Node12 -->
<g id="node12" class="node">
<title>Node12</title>
<g id="a_node12"><a xlink:title=" ">
<polygon fill="white" stroke="#bfbfbf" points="471,-0.5 471,-19.5 563,-19.5 563,-0.5 471,-0.5"/>
<text text-anchor="middle" x="517" y="-7.5" font-family="Helvetica,sans-Serif" font-size="10.00">AMReX_REAL.H</text>
</a>
</g>
</g>
<!-- Node10&#45;&gt;Node12 -->
<g id="edge12" class="edge">
<title>Node10&#45;&gt;Node12</title>
<path fill="none" stroke="midnightblue" d="M455.32,-61.98C466.65,-52.61 485.07,-37.38 498.84,-26.01"/>
<polygon fill="midnightblue" stroke="midnightblue" points="501.22,-28.58 506.7,-19.51 496.77,-23.18 501.22,-28.58"/>
</g>
<!-- Node13&#45;&gt;Node9 -->
<g id="edge16" class="edge">
<title>Node13&#45;&gt;Node9</title>
<path fill="none" stroke="midnightblue" d="M285.04,-81.01C291.09,-89.57 298.11,-103.05 302.48,-114"/>
<polygon fill="midnightblue" stroke="midnightblue" points="299.18,-115.16 305.75,-123.48 305.8,-112.88 299.18,-115.16"/>
</g>
<!-- Node14 -->
<g id="node14" class="node">
<title>Node14</title>
<g id="a_node14"><a xlink:title=" ">
<polygon fill="white" stroke="#bfbfbf" points="247.5,-0.5 247.5,-19.5 304.5,-19.5 304.5,-0.5 247.5,-0.5"/>
<text text-anchor="middle" x="276" y="-7.5" font-family="Helvetica,sans-Serif" font-size="10.00">ostream</text>
</a>
</g>
</g>
<!-- Node13&#45;&gt;Node14 -->
<g id="edge14" class="edge">
<title>Node13&#45;&gt;Node14</title>
<path fill="none" stroke="midnightblue" d="M276,-61.98C276,-53.58 276,-40.48 276,-29.66"/>
<polygon fill="midnightblue" stroke="midnightblue" points="279.5,-29.51 276,-19.51 272.5,-29.51 279.5,-29.51"/>
</g>
<!-- Node15 -->
<g id="node15" class="node">
<title>Node15</title>
<g id="a_node15"><a xlink:title=" ">
<polygon fill="white" stroke="#bfbfbf" points="581.5,-0.5 581.5,-19.5 628.5,-19.5 628.5,-0.5 581.5,-0.5"/>
<text text-anchor="middle" x="605" y="-7.5" font-family="Helvetica,sans-Serif" font-size="10.00">cmath</text>
</a>
</g>
</g>
<!-- Node13&#45;&gt;Node15 -->
<g id="edge15" class="edge">
<title>Node13&#45;&gt;Node15</title>
<path fill="none" stroke="midnightblue" d="M325.3,-61.97C336.69,-60 348.77,-57.92 360,-56 451.07,-40.41 476.97,-40.57 571.31,-19.97"/>
<polygon fill="midnightblue" stroke="midnightblue" points="572.26,-23.34 581.28,-17.77 570.76,-16.5 572.26,-23.34"/>
</g>
<!-- Node16&#45;&gt;Node7 -->
<g id="edge18" class="edge">
<title>Node16&#45;&gt;Node7</title>
<path fill="none" stroke="midnightblue" d="M367.28,-182.44C323.59,-176.84 267.95,-165.58 223,-143 189.52,-126.18 180.37,-118.44 160,-87 148.51,-69.26 142.18,-45.63 138.95,-29.46"/>
<polygon fill="midnightblue" stroke="midnightblue" points="142.4,-28.84 137.19,-19.62 135.51,-30.08 142.4,-28.84"/>
</g>
<!-- Node16&#45;&gt;Node9 -->
<g id="edge20" class="edge">
<title>Node16&#45;&gt;Node9</title>
<path fill="none" stroke="midnightblue" d="M418.61,-179.44C396.29,-170.52 361.1,-156.44 335.79,-146.32"/>
<polygon fill="midnightblue" stroke="midnightblue" points="336.88,-142.98 326.29,-142.52 334.28,-149.48 336.88,-142.98"/>
</g>
<!-- Node16&#45;&gt;Node10 -->
<g id="edge19" class="edge">
<title>Node16&#45;&gt;Node10</title>
<path fill="none" stroke="midnightblue" d="M440.38,-179.32C441.18,-160.76 443.08,-116.84 444.18,-91.47"/>
<polygon fill="midnightblue" stroke="midnightblue" points="447.68,-91.42 444.62,-81.28 440.69,-91.12 447.68,-91.42"/>
</g>
<!-- Node17 -->
<g id="node17" class="node">
<title>Node17</title>
<g id="a_node17"><a xlink:href="tensor_i_8_h.html" target="_top" xlink:title=" ">
<polygon fill="white" stroke="black" points="493.5,-123.5 493.5,-142.5 642.5,-142.5 642.5,-123.5 493.5,-123.5"/>
<text text-anchor="middle" x="568" y="-130.5" font-family="Helvetica,sans-Serif" font-size="10.00">amr&#45;wind/core/vs/tensorI.H</text>
</a>
</g>
</g>
<!-- Node16&#45;&gt;Node17 -->
<g id="edge21" class="edge">
<title>Node16&#45;&gt;Node17</title>
<path fill="none" stroke="midnightblue" d="M455.19,-179.44C474.48,-170.48 507.83,-156.31 533.37,-146.18"/>
<polygon fill="midnightblue" stroke="midnightblue" points="534.7,-149.42 542.73,-142.52 532.15,-142.9 534.7,-149.42"/>
</g>
<!-- Node17&#45;&gt;Node15 -->
<g id="edge22" class="edge">
<title>Node17&#45;&gt;Node15</title>
<path fill="none" stroke="midnightblue" d="M600.99,-123.44C619.46,-116.77 640.95,-105.45 652,-87 659.08,-75.18 657.41,-68.67 652,-56 646.85,-43.95 636.72,-33.58 627.17,-25.84"/>
<polygon fill="midnightblue" stroke="midnightblue" points="629.17,-22.96 619.08,-19.74 624.96,-28.55 629.17,-22.96"/>
</g>
<!-- Node17&#45;&gt;Node16 -->
<g id="edge23" class="edge">
<title>Node17&#45;&gt;Node16</title>
<path fill="none" stroke="midnightblue" d="M552.89,-142.52C533.65,-151.47 500.31,-165.63 474.74,-175.77"/>
<polygon fill="midnightblue" stroke="midnightblue" points="473.4,-172.54 465.37,-179.44 475.96,-179.05 473.4,-172.54"/>
</g>
<!-- Node18 -->
<g id="node18" class="node">
<title>Node18</title>
<g id="a_node18"><a xlink:href="trig__ops_8_h.html" target="_top" xlink:title=" ">
<polygon fill="white" stroke="black" points="539.5,-56.5 539.5,-86.5 642.5,-86.5 642.5,-56.5 539.5,-56.5"/>
<text text-anchor="start" x="547.5" y="-74.5" font-family="Helvetica,sans-Serif" font-size="10.00">amr&#45;wind/utilities</text>
<text text-anchor="middle" x="591" y="-63.5" font-family="Helvetica,sans-Serif" font-size="10.00">/trig_ops.H</text>
</a>
</g>
</g>
<!-- Node17&#45;&gt;Node18 -->
<g id="edge24" class="edge">
<title>Node17&#45;&gt;Node18</title>
<path fill="none" stroke="midnightblue" d="M571.3,-123.48C574.06,-116.32 578.15,-105.75 581.88,-96.08"/>
<polygon fill="midnightblue" stroke="midnightblue" points="585.24,-97.11 585.58,-86.52 578.71,-94.59 585.24,-97.11"/>
</g>
<!-- Node18&#45;&gt;Node7 -->
<g id="edge27" class="edge">
<title>Node18&#45;&gt;Node7</title>
<path fill="none" stroke="midnightblue" d="M539.17,-57.73C536.08,-57.11 533,-56.53 530,-56 465.94,-44.77 281.86,-25.61 189.79,-16.34"/>
<polygon fill="midnightblue" stroke="midnightblue" points="190.13,-12.85 179.83,-15.34 189.43,-19.82 190.13,-12.85"/>
</g>
<!-- Node18&#45;&gt;Node12 -->
<g id="edge26" class="edge">
<title>Node18&#45;&gt;Node12</title>
<path fill="none" stroke="midnightblue" d="M573.46,-56.4C562.16,-47.31 547.46,-35.49 535.89,-26.19"/>
<polygon fill="midnightblue" stroke="midnightblue" points="537.75,-23.2 527.77,-19.66 533.37,-28.65 537.75,-23.2"/>
</g>
<!-- Node18&#45;&gt;Node15 -->
<g id="edge25" class="edge">
<title>Node18&#45;&gt;Node15</title>
<path fill="none" stroke="midnightblue" d="M594.32,-56.4C596.21,-48.38 598.59,-38.23 600.63,-29.57"/>
<polygon fill="midnightblue" stroke="midnightblue" points="604.08,-30.19 602.96,-19.66 597.27,-28.59 604.08,-30.19"/>
</g>
</g>
</svg>
