<?xml version="1.0" encoding="UTF-8" standalone="no"?>
<!DOCTYPE svg PUBLIC "-//W3C//DTD SVG 1.1//EN"
 "http://www.w3.org/Graphics/SVG/1.1/DTD/svg11.dtd">
<!-- Generated by graphviz version 2.43.0 (0)
 -->
<!-- Title: VortexRing.cpp Pages: 1 -->
<!--zoomable 341 -->
<svg id="main" version="1.1" xmlns="http://www.w3.org/2000/svg" xmlns:xlink="http://www.w3.org/1999/xlink" xml:space="preserve" onload="init(evt)">
<style type="text/css"><![CDATA[
.edge:hover path { stroke: red; }
.edge:hover polygon { stroke: red; fill: red; }
]]></style>
<script type="text/javascript"><![CDATA[
var edges = document.getElementsByTagName('g');
if (edges && edges.length) {
  for (var i=0;i<edges.length;i++) {
    if (edges[i].id.substr(0,4)=='edge') {
      edges[i].setAttribute('class','edge');
    }
  }
}
]]></script>
        <defs>
                <circle id="rim" cx="0" cy="0" r="7"/>
                <circle id="rim2" cx="0" cy="0" r="3.5"/>
                <g id="zoomPlus">
                        <use xlink:href="#rim" fill="#404040">
                                <set attributeName="fill" to="#808080" begin="zoomplus.mouseover" end="zoomplus.mouseout"/>
                        </use>
                        <path d="M-4,0h8M0,-4v8" fill="none" stroke="white" stroke-width="1.5" pointer-events="none"/>
                </g>
                <g id="zoomMin">
                        <use xlink:href="#rim" fill="#404040">
                                <set attributeName="fill" to="#808080" begin="zoomminus.mouseover" end="zoomminus.mouseout"/>
                        </use>
                        <path d="M-4,0h8" fill="none" stroke="white" stroke-width="1.5" pointer-events="none"/>
                </g>
                <g id="dirArrow">
                        <path fill="none" stroke="white" stroke-width="1.5" d="M0,-3.0v7 M-2.5,-0.5L0,-3.0L2.5,-0.5"/>
                </g>
               <g id="resetDef">
                       <use xlink:href="#rim2" fill="#404040">
                               <set attributeName="fill" to="#808080" begin="reset.mouseover" end="reset.mouseout"/>
                       </use>
               </g>
        </defs>

<script type="text/javascript">
var viewWidth = 2365;
var viewHeight = 341;
var sectionId = 'dynsection-0';
</script>
<script xlink:href="svgpan.js"/>
<svg id="graph" class="graph">
<g id="viewport">
<title>VortexRing.cpp</title>
<polygon fill="white" stroke="transparent" points="-4,4 -4,-337 2360.5,-337 2360.5,4 -4,4"/>
<!-- Node1 -->
<g id="node1" class="node">
<title>Node1</title>
<g id="a_node1"><a xlink:title=" ">
<polygon fill="#bfbfbf" stroke="black" points="1469.5,-313.5 1469.5,-332.5 1559.5,-332.5 1559.5,-313.5 1469.5,-313.5"/>
<text text-anchor="middle" x="1514.5" y="-320.5" font-family="Helvetica,sans-Serif" font-size="10.00">VortexRing.cpp</text>
</a>
</g>
</g>
<!-- Node2 -->
<g id="node2" class="node">
<title>Node2</title>
<g id="a_node2"><a xlink:href="_vortex_ring_8_h.html" target="_top" xlink:title=" ">
<polygon fill="white" stroke="black" points="1075.5,-196 1075.5,-215 1245.5,-215 1245.5,-196 1075.5,-196"/>
<text text-anchor="middle" x="1160.5" y="-203" font-family="Helvetica,sans-Serif" font-size="10.00">amr&#45;wind/physics/VortexRing.H</text>
</a>
</g>
</g>
<!-- Node1&#45;&gt;Node2 -->
<g id="edge1" class="edge">
<title>Node1&#45;&gt;Node2</title>
<path fill="none" stroke="midnightblue" d="M1488.18,-313.41C1425.72,-293.03 1268.41,-241.71 1196.9,-218.38"/>
<polygon fill="midnightblue" stroke="midnightblue" points="1197.58,-214.92 1186.99,-215.14 1195.41,-221.57 1197.58,-214.92"/>
</g>
<!-- Node22 -->
<g id="node22" class="node">
<title>Node22</title>
<g id="a_node22"><a xlink:href="_c_f_d_sim_8_h.html" target="_top" xlink:title=" ">
<polygon fill="white" stroke="black" points="928.5,-257.5 928.5,-276.5 1044.5,-276.5 1044.5,-257.5 928.5,-257.5"/>
<text text-anchor="middle" x="986.5" y="-264.5" font-family="Helvetica,sans-Serif" font-size="10.00">amr&#45;wind/CFDSim.H</text>
</a>
</g>
</g>
<!-- Node1&#45;&gt;Node22 -->
<g id="edge31" class="edge">
<title>Node1&#45;&gt;Node22</title>
<path fill="none" stroke="midnightblue" d="M1469.48,-317.4C1376.86,-307.92 1164.47,-286.2 1054.8,-274.99"/>
<polygon fill="midnightblue" stroke="midnightblue" points="1055.14,-271.5 1044.84,-273.97 1054.43,-278.47 1055.14,-271.5"/>
</g>
<!-- Node28 -->
<g id="node28" class="node">
<title>Node28</title>
<g id="a_node28"><a xlink:href="_field_repo_8_h.html" target="_top" xlink:title=" ">
<polygon fill="white" stroke="black" points="1345,-196 1345,-215 1494,-215 1494,-196 1345,-196"/>
<text text-anchor="middle" x="1419.5" y="-203" font-family="Helvetica,sans-Serif" font-size="10.00">amr&#45;wind/core/FieldRepo.H</text>
</a>
</g>
</g>
<!-- Node1&#45;&gt;Node28 -->
<g id="edge77" class="edge">
<title>Node1&#45;&gt;Node28</title>
<path fill="none" stroke="midnightblue" d="M1469.38,-316.28C1444.92,-310.62 1416.67,-299.37 1401.5,-277 1390.68,-261.05 1399.15,-239.07 1407.76,-223.91"/>
<polygon fill="midnightblue" stroke="midnightblue" points="1410.95,-225.41 1413.24,-215.07 1405,-221.73 1410.95,-225.41"/>
</g>
<!-- Node38 -->
<g id="node38" class="node">
<title>Node38</title>
<g id="a_node38"><a xlink:title=" ">
<polygon fill="white" stroke="#bfbfbf" points="1411,-257.5 1411,-276.5 1530,-276.5 1530,-257.5 1411,-257.5"/>
<text text-anchor="middle" x="1470.5" y="-264.5" font-family="Helvetica,sans-Serif" font-size="10.00">AMReX_ParmParse.H</text>
</a>
</g>
</g>
<!-- Node1&#45;&gt;Node38 -->
<g id="edge69" class="edge">
<title>Node1&#45;&gt;Node38</title>
<path fill="none" stroke="midnightblue" d="M1507.23,-313.08C1500.96,-305.38 1491.71,-294.03 1484.07,-284.65"/>
<polygon fill="midnightblue" stroke="midnightblue" points="1486.66,-282.29 1477.63,-276.75 1481.23,-286.71 1486.66,-282.29"/>
</g>
<!-- Node39 -->
<g id="node39" class="node">
<title>Node39</title>
<g id="a_node39"><a xlink:href="trig__ops_8_h.html" target="_top" xlink:title=" ">
<polygon fill="white" stroke="black" points="1850,-190.5 1850,-220.5 1953,-220.5 1953,-190.5 1850,-190.5"/>
<text text-anchor="start" x="1858" y="-208.5" font-family="Helvetica,sans-Serif" font-size="10.00">amr&#45;wind/utilities</text>
<text text-anchor="middle" x="1901.5" y="-197.5" font-family="Helvetica,sans-Serif" font-size="10.00">/trig_ops.H</text>
</a>
</g>
</g>
<!-- Node1&#45;&gt;Node39 -->
<g id="edge70" class="edge">
<title>Node1&#45;&gt;Node39</title>
<path fill="none" stroke="midnightblue" d="M1520.23,-313.09C1530.05,-298.66 1551.54,-270.44 1577.5,-257 1622.04,-233.93 1758.78,-218.7 1839.68,-211.44"/>
<polygon fill="midnightblue" stroke="midnightblue" points="1840.09,-214.91 1849.74,-210.55 1839.47,-207.94 1840.09,-214.91"/>
</g>
<!-- Node41 -->
<g id="node41" class="node">
<title>Node41</title>
<g id="a_node41"><a xlink:title=" ">
<polygon fill="white" stroke="#bfbfbf" points="1586.5,-257.5 1586.5,-276.5 1740.5,-276.5 1740.5,-257.5 1586.5,-257.5"/>
<text text-anchor="middle" x="1663.5" y="-264.5" font-family="Helvetica,sans-Serif" font-size="10.00">AMReX_MLNodeLaplacian.H</text>
</a>
</g>
</g>
<!-- Node1&#45;&gt;Node41 -->
<g id="edge74" class="edge">
<title>Node1&#45;&gt;Node41</title>
<path fill="none" stroke="midnightblue" d="M1538.11,-313.44C1562.96,-304.44 1602.27,-290.19 1630.25,-280.05"/>
<polygon fill="midnightblue" stroke="midnightblue" points="1631.79,-283.21 1640,-276.52 1629.41,-276.63 1631.79,-283.21"/>
</g>
<!-- Node42 -->
<g id="node42" class="node">
<title>Node42</title>
<g id="a_node42"><a xlink:title=" ">
<polygon fill="white" stroke="#bfbfbf" points="1758.5,-257.5 1758.5,-276.5 1856.5,-276.5 1856.5,-257.5 1758.5,-257.5"/>
<text text-anchor="middle" x="1807.5" y="-264.5" font-family="Helvetica,sans-Serif" font-size="10.00">AMReX_MLMG.H</text>
</a>
</g>
</g>
<!-- Node1&#45;&gt;Node42 -->
<g id="edge75" class="edge">
<title>Node1&#45;&gt;Node42</title>
<path fill="none" stroke="midnightblue" d="M1559.64,-313.68C1611.17,-304.18 1695.52,-288.64 1751.28,-278.36"/>
<polygon fill="midnightblue" stroke="midnightblue" points="1752.14,-281.76 1761.34,-276.51 1750.87,-274.88 1752.14,-281.76"/>
</g>
<!-- Node43 -->
<g id="node43" class="node">
<title>Node43</title>
<g id="a_node43"><a xlink:title=" ">
<polygon fill="white" stroke="#bfbfbf" points="1875,-257.5 1875,-276.5 2000,-276.5 2000,-257.5 1875,-257.5"/>
<text text-anchor="middle" x="1937.5" y="-264.5" font-family="Helvetica,sans-Serif" font-size="10.00">AMReX_FillPatchUtil.H</text>
</a>
</g>
</g>
<!-- Node1&#45;&gt;Node43 -->
<g id="edge76" class="edge">
<title>Node1&#45;&gt;Node43</title>
<path fill="none" stroke="midnightblue" d="M1559.77,-316.22C1632.75,-306.9 1777.08,-288.48 1864.67,-277.3"/>
<polygon fill="midnightblue" stroke="midnightblue" points="1865.32,-280.74 1874.8,-276 1864.44,-273.8 1865.32,-280.74"/>
</g>
<!-- Node3 -->
<g id="node3" class="node">
<title>Node3</title>
<g id="a_node3"><a xlink:href="_physics_8_h.html" target="_top" xlink:title=" ">
<polygon fill="white" stroke="black" points="815,-129 815,-148 952,-148 952,-129 815,-129"/>
<text text-anchor="middle" x="883.5" y="-136" font-family="Helvetica,sans-Serif" font-size="10.00">amr&#45;wind/core/Physics.H</text>
</a>
</g>
</g>
<!-- Node2&#45;&gt;Node3 -->
<g id="edge2" class="edge">
<title>Node2&#45;&gt;Node3</title>
<path fill="none" stroke="midnightblue" d="M1124,-195.94C1074.08,-184.22 984.47,-163.19 929.85,-150.38"/>
<polygon fill="midnightblue" stroke="midnightblue" points="930.61,-146.96 920.08,-148.08 929.01,-153.78 930.61,-146.96"/>
</g>
<!-- Node15 -->
<g id="node15" class="node">
<title>Node15</title>
<g id="a_node15"><a xlink:href="_field_8_h.html" target="_top" xlink:title=" ">
<polygon fill="white" stroke="black" points="1098.5,-129 1098.5,-148 1222.5,-148 1222.5,-129 1098.5,-129"/>
<text text-anchor="middle" x="1160.5" y="-136" font-family="Helvetica,sans-Serif" font-size="10.00">amr&#45;wind/core/Field.H</text>
</a>
</g>
</g>
<!-- Node2&#45;&gt;Node15 -->
<g id="edge16" class="edge">
<title>Node2&#45;&gt;Node15</title>
<path fill="none" stroke="midnightblue" d="M1160.5,-195.73C1160.5,-186.18 1160.5,-170.62 1160.5,-158.28"/>
<polygon fill="midnightblue" stroke="midnightblue" points="1164,-158.13 1160.5,-148.13 1157,-158.13 1164,-158.13"/>
</g>
<!-- Node4 -->
<g id="node4" class="node">
<title>Node4</title>
<g id="a_node4"><a xlink:href="_factory_8_h.html" target="_top" xlink:title=" ">
<polygon fill="white" stroke="black" points="173.5,-62 173.5,-81 307.5,-81 307.5,-62 173.5,-62"/>
<text text-anchor="middle" x="240.5" y="-69" font-family="Helvetica,sans-Serif" font-size="10.00">amr&#45;wind/core/Factory.H</text>
</a>
</g>
</g>
<!-- Node3&#45;&gt;Node4 -->
<g id="edge3" class="edge">
<title>Node3&#45;&gt;Node4</title>
<path fill="none" stroke="midnightblue" d="M842.34,-128.97C830.49,-126.75 817.52,-124.55 805.5,-123 589.38,-95.04 532.55,-115.47 316.5,-87 308.08,-85.89 299.18,-84.44 290.55,-82.89"/>
<polygon fill="midnightblue" stroke="midnightblue" points="291.06,-79.43 280.59,-81.04 289.78,-86.31 291.06,-79.43"/>
</g>
<!-- Node10 -->
<g id="node10" class="node">
<title>Node10</title>
<g id="a_node10"><a xlink:href="_coll_mgr_8_h.html" target="_top" xlink:title=" ">
<polygon fill="white" stroke="black" points="326,-62 326,-81 463,-81 463,-62 326,-62"/>
<text text-anchor="middle" x="394.5" y="-69" font-family="Helvetica,sans-Serif" font-size="10.00">amr&#45;wind/core/CollMgr.H</text>
</a>
</g>
</g>
<!-- Node3&#45;&gt;Node10 -->
<g id="edge9" class="edge">
<title>Node3&#45;&gt;Node10</title>
<path fill="none" stroke="midnightblue" d="M840.26,-128.97C828.97,-126.88 816.8,-124.74 805.5,-123 690.23,-105.22 556,-89.7 473.13,-80.71"/>
<polygon fill="midnightblue" stroke="midnightblue" points="473.35,-77.21 463.04,-79.62 472.6,-84.17 473.35,-77.21"/>
</g>
<!-- Node13 -->
<g id="node13" class="node">
<title>Node13</title>
<g id="a_node13"><a xlink:title=" ">
<polygon fill="white" stroke="#bfbfbf" points="1580,-0.5 1580,-19.5 1689,-19.5 1689,-0.5 1580,-0.5"/>
<text text-anchor="middle" x="1634.5" y="-7.5" font-family="Helvetica,sans-Serif" font-size="10.00">AMReX_MultiFab.H</text>
</a>
</g>
</g>
<!-- Node3&#45;&gt;Node13 -->
<g id="edge14" class="edge">
<title>Node3&#45;&gt;Node13</title>
<path fill="none" stroke="midnightblue" d="M888.04,-128.86C897.73,-111.42 922.29,-72.32 955.5,-56 982.77,-42.6 1404.74,-21.68 1569.4,-13.97"/>
<polygon fill="midnightblue" stroke="midnightblue" points="1570.04,-17.45 1579.86,-13.49 1569.71,-10.46 1570.04,-17.45"/>
</g>
<!-- Node14 -->
<g id="node14" class="node">
<title>Node14</title>
<g id="a_node14"><a xlink:title=" ">
<polygon fill="white" stroke="#bfbfbf" points="558,-62 558,-81 673,-81 673,-62 558,-62"/>
<text text-anchor="middle" x="615.5" y="-69" font-family="Helvetica,sans-Serif" font-size="10.00">AMReX_Geometry.H</text>
</a>
</g>
</g>
<!-- Node3&#45;&gt;Node14 -->
<g id="edge15" class="edge">
<title>Node3&#45;&gt;Node14</title>
<path fill="none" stroke="midnightblue" d="M848.19,-128.94C799.98,-117.24 713.55,-96.28 660.67,-83.46"/>
<polygon fill="midnightblue" stroke="midnightblue" points="661.43,-80.04 650.89,-81.08 659.78,-86.84 661.43,-80.04"/>
</g>
<!-- Node5 -->
<g id="node5" class="node">
<title>Node5</title>
<g id="a_node5"><a xlink:title=" ">
<polygon fill="white" stroke="#bfbfbf" points="390.5,-0.5 390.5,-19.5 448.5,-19.5 448.5,-0.5 390.5,-0.5"/>
<text text-anchor="middle" x="419.5" y="-7.5" font-family="Helvetica,sans-Serif" font-size="10.00">memory</text>
</a>
</g>
</g>
<!-- Node4&#45;&gt;Node5 -->
<g id="edge4" class="edge">
<title>Node4&#45;&gt;Node5</title>
<path fill="none" stroke="midnightblue" d="M266.15,-61.98C297.12,-51.68 349.37,-34.31 384.15,-22.75"/>
<polygon fill="midnightblue" stroke="midnightblue" points="385.52,-25.98 393.9,-19.51 383.31,-19.34 385.52,-25.98"/>
</g>
<!-- Node6 -->
<g id="node6" class="node">
<title>Node6</title>
<g id="a_node6"><a xlink:title=" ">
<polygon fill="white" stroke="#bfbfbf" points="679,-0.5 679,-19.5 772,-19.5 772,-0.5 679,-0.5"/>
<text text-anchor="middle" x="725.5" y="-7.5" font-family="Helvetica,sans-Serif" font-size="10.00">unordered_map</text>
</a>
</g>
</g>
<!-- Node4&#45;&gt;Node6 -->
<g id="edge5" class="edge">
<title>Node4&#45;&gt;Node6</title>
<path fill="none" stroke="midnightblue" d="M282.21,-61.93C293.32,-59.81 305.34,-57.68 316.5,-56 441.57,-37.22 589.28,-22.89 668.48,-15.84"/>
<polygon fill="midnightblue" stroke="midnightblue" points="669.08,-19.3 678.73,-14.94 668.46,-12.33 669.08,-19.3"/>
</g>
<!-- Node7 -->
<g id="node7" class="node">
<title>Node7</title>
<g id="a_node7"><a xlink:title=" ">
<polygon fill="white" stroke="#bfbfbf" points="204.5,-0.5 204.5,-19.5 264.5,-19.5 264.5,-0.5 204.5,-0.5"/>
<text text-anchor="middle" x="234.5" y="-7.5" font-family="Helvetica,sans-Serif" font-size="10.00">iostream</text>
</a>
</g>
</g>
<!-- Node4&#45;&gt;Node7 -->
<g id="edge6" class="edge">
<title>Node4&#45;&gt;Node7</title>
<path fill="none" stroke="midnightblue" d="M239.64,-61.98C238.79,-53.58 237.47,-40.48 236.38,-29.66"/>
<polygon fill="midnightblue" stroke="midnightblue" points="239.84,-29.11 235.36,-19.51 232.88,-29.81 239.84,-29.11"/>
</g>
<!-- Node8 -->
<g id="node8" class="node">
<title>Node8</title>
<g id="a_node8"><a xlink:title=" ">
<polygon fill="white" stroke="#bfbfbf" points="282.5,-0.5 282.5,-19.5 372.5,-19.5 372.5,-0.5 282.5,-0.5"/>
<text text-anchor="middle" x="327.5" y="-7.5" font-family="Helvetica,sans-Serif" font-size="10.00">AMReX_Print.H</text>
</a>
</g>
</g>
<!-- Node4&#45;&gt;Node8 -->
<g id="edge7" class="edge">
<title>Node4&#45;&gt;Node8</title>
<path fill="none" stroke="midnightblue" d="M252.96,-61.98C266.92,-52.43 289.76,-36.81 306.49,-25.37"/>
<polygon fill="midnightblue" stroke="midnightblue" points="308.78,-28.04 315.06,-19.51 304.83,-22.27 308.78,-28.04"/>
</g>
<!-- Node9 -->
<g id="node9" class="node">
<title>Node9</title>
<g id="a_node9"><a xlink:title=" ">
<polygon fill="white" stroke="#bfbfbf" points="124.5,-0.5 124.5,-19.5 186.5,-19.5 186.5,-0.5 124.5,-0.5"/>
<text text-anchor="middle" x="155.5" y="-7.5" font-family="Helvetica,sans-Serif" font-size="10.00">AMReX.H</text>
</a>
</g>
</g>
<!-- Node4&#45;&gt;Node9 -->
<g id="edge8" class="edge">
<title>Node4&#45;&gt;Node9</title>
<path fill="none" stroke="midnightblue" d="M228.32,-61.98C214.69,-52.43 192.37,-36.81 176.03,-25.37"/>
<polygon fill="midnightblue" stroke="midnightblue" points="177.86,-22.38 167.66,-19.51 173.84,-28.11 177.86,-22.38"/>
</g>
<!-- Node10&#45;&gt;Node5 -->
<g id="edge11" class="edge">
<title>Node10&#45;&gt;Node5</title>
<path fill="none" stroke="midnightblue" d="M398.08,-61.98C401.68,-53.4 407.35,-39.93 411.94,-28.98"/>
<polygon fill="midnightblue" stroke="midnightblue" points="415.28,-30.08 415.92,-19.51 408.82,-27.37 415.28,-30.08"/>
</g>
<!-- Node10&#45;&gt;Node6 -->
<g id="edge12" class="edge">
<title>Node10&#45;&gt;Node6</title>
<path fill="none" stroke="midnightblue" d="M441.92,-61.98C501.91,-51.19 605.07,-32.65 669.05,-21.15"/>
<polygon fill="midnightblue" stroke="midnightblue" points="669.74,-24.58 678.96,-19.37 668.5,-17.69 669.74,-24.58"/>
</g>
<!-- Node11 -->
<g id="node11" class="node">
<title>Node11</title>
<g id="a_node11"><a xlink:title=" ">
<polygon fill="white" stroke="#bfbfbf" points="1291.5,-0.5 1291.5,-19.5 1335.5,-19.5 1335.5,-0.5 1291.5,-0.5"/>
<text text-anchor="middle" x="1313.5" y="-7.5" font-family="Helvetica,sans-Serif" font-size="10.00">string</text>
</a>
</g>
</g>
<!-- Node10&#45;&gt;Node11 -->
<g id="edge10" class="edge">
<title>Node10&#45;&gt;Node11</title>
<path fill="none" stroke="midnightblue" d="M437,-62C449.95,-59.7 464.27,-57.45 477.5,-56 830.21,-17.46 927.35,-77.21 1281.28,-19.78"/>
<polygon fill="midnightblue" stroke="midnightblue" points="1281.99,-23.21 1291.29,-18.13 1280.86,-16.3 1281.99,-23.21"/>
</g>
<!-- Node12 -->
<g id="node12" class="node">
<title>Node12</title>
<g id="a_node12"><a xlink:title=" ">
<polygon fill="white" stroke="#bfbfbf" points="1175.5,-0.5 1175.5,-19.5 1273.5,-19.5 1273.5,-0.5 1175.5,-0.5"/>
<text text-anchor="middle" x="1224.5" y="-7.5" font-family="Helvetica,sans-Serif" font-size="10.00">AMReX_Vector.H</text>
</a>
</g>
</g>
<!-- Node10&#45;&gt;Node12 -->
<g id="edge13" class="edge">
<title>Node10&#45;&gt;Node12</title>
<path fill="none" stroke="midnightblue" d="M437.87,-61.97C450.6,-59.73 464.57,-57.51 477.5,-56 732.29,-26.17 1038.43,-15.58 1165.13,-12.3"/>
<polygon fill="midnightblue" stroke="midnightblue" points="1165.48,-15.8 1175.39,-12.04 1165.3,-8.8 1165.48,-15.8"/>
</g>
<!-- Node15&#45;&gt;Node5 -->
<g id="edge18" class="edge">
<title>Node15&#45;&gt;Node5</title>
<path fill="none" stroke="midnightblue" d="M1120,-128.97C1110.04,-126.94 1099.4,-124.84 1089.5,-123 994.24,-105.3 961.63,-129.37 874.5,-87 856.11,-78.06 859.15,-64.39 840.5,-56 772.8,-25.53 549.81,-15.13 458.75,-12.1"/>
<polygon fill="midnightblue" stroke="midnightblue" points="458.68,-8.59 448.58,-11.77 458.46,-15.59 458.68,-8.59"/>
</g>
<!-- Node15&#45;&gt;Node6 -->
<g id="edge19" class="edge">
<title>Node15&#45;&gt;Node6</title>
<path fill="none" stroke="midnightblue" d="M1119.25,-128.92C1077.55,-119.87 1011.47,-104.53 955.5,-87 918.72,-75.48 910.97,-68.47 874.5,-56 838.09,-43.55 796.08,-31.03 765.97,-22.37"/>
<polygon fill="midnightblue" stroke="midnightblue" points="766.82,-18.97 756.24,-19.58 764.89,-25.7 766.82,-18.97"/>
</g>
<!-- Node15&#45;&gt;Node11 -->
<g id="edge17" class="edge">
<title>Node15&#45;&gt;Node11</title>
<path fill="none" stroke="midnightblue" d="M1171.02,-128.81C1196.67,-107.59 1262.74,-52.96 1295.1,-26.22"/>
<polygon fill="midnightblue" stroke="midnightblue" points="1297.43,-28.83 1302.91,-19.76 1292.97,-23.43 1297.43,-28.83"/>
</g>
<!-- Node15&#45;&gt;Node13 -->
<g id="edge21" class="edge">
<title>Node15&#45;&gt;Node13</title>
<path fill="none" stroke="midnightblue" d="M1222.55,-132.66C1286.56,-126.48 1388.72,-113.27 1473.5,-87 1524.65,-71.15 1580.31,-41.94 1610.94,-24.72"/>
<polygon fill="midnightblue" stroke="midnightblue" points="1613.01,-27.57 1619.97,-19.58 1609.55,-21.49 1613.01,-27.57"/>
</g>
<!-- Node16 -->
<g id="node16" class="node">
<title>Node16</title>
<g id="a_node16"><a xlink:title=" ">
<polygon fill="white" stroke="#bfbfbf" points="964.5,-62 964.5,-81 1028.5,-81 1028.5,-62 964.5,-62"/>
<text text-anchor="middle" x="996.5" y="-69" font-family="Helvetica,sans-Serif" font-size="10.00">algorithm</text>
</a>
</g>
</g>
<!-- Node15&#45;&gt;Node16 -->
<g id="edge20" class="edge">
<title>Node15&#45;&gt;Node16</title>
<path fill="none" stroke="midnightblue" d="M1138.72,-128.87C1110.22,-117.57 1060.07,-97.7 1027.58,-84.82"/>
<polygon fill="midnightblue" stroke="midnightblue" points="1028.69,-81.49 1018.11,-81.06 1026.11,-88 1028.69,-81.49"/>
</g>
<!-- Node17 -->
<g id="node17" class="node">
<title>Node17</title>
<g id="a_node17"><a xlink:title=" ">
<polygon fill="white" stroke="#bfbfbf" points="1047,-62 1047,-81 1146,-81 1146,-62 1047,-62"/>
<text text-anchor="middle" x="1096.5" y="-69" font-family="Helvetica,sans-Serif" font-size="10.00">AMReX_BCRec.H</text>
</a>
</g>
</g>
<!-- Node15&#45;&gt;Node17 -->
<g id="edge22" class="edge">
<title>Node15&#45;&gt;Node17</title>
<path fill="none" stroke="midnightblue" d="M1151.87,-128.73C1141.7,-118.4 1124.6,-101.04 1112.09,-88.33"/>
<polygon fill="midnightblue" stroke="midnightblue" points="1114.5,-85.8 1104.99,-81.13 1109.52,-90.71 1114.5,-85.8"/>
</g>
<!-- Node18 -->
<g id="node18" class="node">
<title>Node18</title>
<g id="a_node18"><a xlink:title=" ">
<polygon fill="white" stroke="#bfbfbf" points="1785,-62 1785,-81 1872,-81 1872,-62 1785,-62"/>
<text text-anchor="middle" x="1828.5" y="-69" font-family="Helvetica,sans-Serif" font-size="10.00">AMReX_Gpu.H</text>
</a>
</g>
</g>
<!-- Node15&#45;&gt;Node18 -->
<g id="edge23" class="edge">
<title>Node15&#45;&gt;Node18</title>
<path fill="none" stroke="midnightblue" d="M1222.56,-133.51C1328.42,-126.39 1550.62,-110.04 1737.5,-87 1749.53,-85.52 1762.42,-83.64 1774.59,-81.74"/>
<polygon fill="midnightblue" stroke="midnightblue" points="1775.29,-85.17 1784.62,-80.14 1774.19,-78.25 1775.29,-85.17"/>
</g>
<!-- Node19 -->
<g id="node19" class="node">
<title>Node19</title>
<g id="a_node19"><a xlink:href="incflo__enums_8_h.html" target="_top" xlink:title=" ">
<polygon fill="white" stroke="black" points="691,-62 691,-81 832,-81 832,-62 691,-62"/>
<text text-anchor="middle" x="761.5" y="-69" font-family="Helvetica,sans-Serif" font-size="10.00">amr&#45;wind/incflo_enums.H</text>
</a>
</g>
</g>
<!-- Node15&#45;&gt;Node19 -->
<g id="edge24" class="edge">
<title>Node15&#45;&gt;Node19</title>
<path fill="none" stroke="midnightblue" d="M1120.77,-128.99C1110.6,-126.92 1099.66,-124.79 1089.5,-123 981.97,-104.07 954.32,-104.18 846.5,-87 838.11,-85.66 829.25,-84.2 820.56,-82.75"/>
<polygon fill="midnightblue" stroke="midnightblue" points="820.91,-79.26 810.46,-81.04 819.74,-86.16 820.91,-79.26"/>
</g>
<!-- Node20 -->
<g id="node20" class="node">
<title>Node20</title>
<g id="a_node20"><a xlink:href="_field_desc_types_8_h.html" target="_top" xlink:title=" ">
<polygon fill="white" stroke="black" points="1812.5,-0.5 1812.5,-19.5 1988.5,-19.5 1988.5,-0.5 1812.5,-0.5"/>
<text text-anchor="middle" x="1900.5" y="-7.5" font-family="Helvetica,sans-Serif" font-size="10.00">amr&#45;wind/core/FieldDescTypes.H</text>
</a>
</g>
</g>
<!-- Node15&#45;&gt;Node20 -->
<g id="edge25" class="edge">
<title>Node15&#45;&gt;Node20</title>
<path fill="none" stroke="midnightblue" d="M1222.7,-135.08C1296.61,-130.81 1422.95,-119.07 1526.5,-87 1555.93,-77.88 1559.1,-65.21 1588.5,-56 1658.13,-34.2 1739.86,-22.9 1802.2,-17.08"/>
<polygon fill="midnightblue" stroke="midnightblue" points="1802.78,-20.54 1812.43,-16.15 1802.15,-13.57 1802.78,-20.54"/>
</g>
<!-- Node21 -->
<g id="node21" class="node">
<title>Node21</title>
<g id="a_node21"><a xlink:href="_view_field_8_h.html" target="_top" xlink:title=" ">
<polygon fill="white" stroke="black" points="1316.5,-62 1316.5,-81 1464.5,-81 1464.5,-62 1316.5,-62"/>
<text text-anchor="middle" x="1390.5" y="-69" font-family="Helvetica,sans-Serif" font-size="10.00">amr&#45;wind/core/ViewField.H</text>
</a>
</g>
</g>
<!-- Node15&#45;&gt;Node21 -->
<g id="edge26" class="edge">
<title>Node15&#45;&gt;Node21</title>
<path fill="none" stroke="midnightblue" d="M1191.04,-128.87C1232.05,-117.28 1305,-96.66 1350.4,-83.83"/>
<polygon fill="midnightblue" stroke="midnightblue" points="1351.53,-87.15 1360.2,-81.06 1349.62,-80.42 1351.53,-87.15"/>
</g>
<!-- Node21&#45;&gt;Node11 -->
<g id="edge27" class="edge">
<title>Node21&#45;&gt;Node11</title>
<path fill="none" stroke="midnightblue" d="M1379.47,-61.98C1367.23,-52.52 1347.27,-37.1 1332.51,-25.69"/>
<polygon fill="midnightblue" stroke="midnightblue" points="1334.56,-22.85 1324.51,-19.51 1330.28,-28.39 1334.56,-22.85"/>
</g>
<!-- Node21&#45;&gt;Node12 -->
<g id="edge30" class="edge">
<title>Node21&#45;&gt;Node12</title>
<path fill="none" stroke="midnightblue" d="M1366.72,-61.98C1338.12,-51.72 1289.95,-34.46 1257.7,-22.9"/>
<polygon fill="midnightblue" stroke="midnightblue" points="1258.83,-19.59 1248.24,-19.51 1256.47,-26.18 1258.83,-19.59"/>
</g>
<!-- Node21&#45;&gt;Node13 -->
<g id="edge29" class="edge">
<title>Node21&#45;&gt;Node13</title>
<path fill="none" stroke="midnightblue" d="M1425.46,-61.98C1468.67,-51.44 1542.29,-33.49 1589.63,-21.94"/>
<polygon fill="midnightblue" stroke="midnightblue" points="1590.72,-25.28 1599.61,-19.51 1589.06,-18.48 1590.72,-25.28"/>
</g>
<!-- Node21&#45;&gt;Node20 -->
<g id="edge28" class="edge">
<title>Node21&#45;&gt;Node20</title>
<path fill="none" stroke="midnightblue" d="M1463.57,-61.98C1557.21,-51.05 1719.14,-32.16 1817.38,-20.7"/>
<polygon fill="midnightblue" stroke="midnightblue" points="1818.04,-24.14 1827.56,-19.51 1817.23,-17.19 1818.04,-24.14"/>
</g>
<!-- Node22&#45;&gt;Node3 -->
<g id="edge68" class="edge">
<title>Node22&#45;&gt;Node3</title>
<path fill="none" stroke="midnightblue" d="M979.42,-257.31C962.44,-236.45 919.18,-183.31 897.02,-156.11"/>
<polygon fill="midnightblue" stroke="midnightblue" points="899.66,-153.8 890.63,-148.26 894.23,-158.22 899.66,-153.8"/>
</g>
<!-- Node23 -->
<g id="node23" class="node">
<title>Node23</title>
<g id="a_node23"><a xlink:title=" ">
<polygon fill="white" stroke="#bfbfbf" points="970.5,-129 970.5,-148 1080.5,-148 1080.5,-129 970.5,-129"/>
<text text-anchor="middle" x="1025.5" y="-136" font-family="Helvetica,sans-Serif" font-size="10.00">AMReX_AmrCore.H</text>
</a>
</g>
</g>
<!-- Node22&#45;&gt;Node23 -->
<g id="edge32" class="edge">
<title>Node22&#45;&gt;Node23</title>
<path fill="none" stroke="midnightblue" d="M989.18,-257.31C995.47,-236.9 1011.29,-185.6 1019.82,-157.91"/>
<polygon fill="midnightblue" stroke="midnightblue" points="1023.2,-158.84 1022.8,-148.26 1016.51,-156.78 1023.2,-158.84"/>
</g>
<!-- Node24 -->
<g id="node24" class="node">
<title>Node24</title>
<g id="a_node24"><a xlink:href="_sim_time_8_h.html" target="_top" xlink:title=" ">
<polygon fill="white" stroke="black" points="677.5,-196 677.5,-215 821.5,-215 821.5,-196 677.5,-196"/>
<text text-anchor="middle" x="749.5" y="-203" font-family="Helvetica,sans-Serif" font-size="10.00">amr&#45;wind/core/SimTime.H</text>
</a>
</g>
</g>
<!-- Node22&#45;&gt;Node24 -->
<g id="edge33" class="edge">
<title>Node22&#45;&gt;Node24</title>
<path fill="none" stroke="midnightblue" d="M952.54,-257.48C910.66,-246.96 839.37,-229.06 793.37,-217.51"/>
<polygon fill="midnightblue" stroke="midnightblue" points="793.94,-214.05 783.39,-215.01 792.24,-220.84 793.94,-214.05"/>
</g>
<!-- Node22&#45;&gt;Node28 -->
<g id="edge37" class="edge">
<title>Node22&#45;&gt;Node28</title>
<path fill="none" stroke="midnightblue" d="M1044.9,-257.98C1123.31,-247.2 1262.57,-228.06 1347.42,-216.4"/>
<polygon fill="midnightblue" stroke="midnightblue" points="1348.06,-219.85 1357.49,-215.02 1347.11,-212.92 1348.06,-219.85"/>
</g>
<!-- Node35 -->
<g id="node35" class="node">
<title>Node35</title>
<g id="a_node35"><a xlink:href="_p_d_e_base_8_h.html" target="_top" xlink:title=" ">
<polygon fill="white" stroke="black" points="355,-123.5 355,-153.5 510,-153.5 510,-123.5 355,-123.5"/>
<text text-anchor="start" x="363" y="-141.5" font-family="Helvetica,sans-Serif" font-size="10.00">amr&#45;wind/equation_systems</text>
<text text-anchor="middle" x="432.5" y="-130.5" font-family="Helvetica,sans-Serif" font-size="10.00">/PDEBase.H</text>
</a>
</g>
</g>
<!-- Node22&#45;&gt;Node35 -->
<g id="edge60" class="edge">
<title>Node22&#45;&gt;Node35</title>
<path fill="none" stroke="midnightblue" d="M928.43,-261.16C864.19,-255.02 757.94,-242.56 668.5,-221 599.85,-204.45 523,-175.96 476.19,-157.43"/>
<polygon fill="midnightblue" stroke="midnightblue" points="477.25,-154.08 466.67,-153.63 474.66,-160.59 477.25,-154.08"/>
</g>
<!-- Node25 -->
<g id="node25" class="node">
<title>Node25</title>
<g id="a_node25"><a xlink:title=" ">
<polygon fill="white" stroke="#bfbfbf" points="1818.5,-129 1818.5,-148 1910.5,-148 1910.5,-129 1818.5,-129"/>
<text text-anchor="middle" x="1864.5" y="-136" font-family="Helvetica,sans-Serif" font-size="10.00">AMReX_REAL.H</text>
</a>
</g>
</g>
<!-- Node24&#45;&gt;Node25 -->
<g id="edge34" class="edge">
<title>Node24&#45;&gt;Node25</title>
<path fill="none" stroke="midnightblue" d="M821.8,-200.29C1029.13,-188.2 1622.69,-153.6 1808.32,-142.78"/>
<polygon fill="midnightblue" stroke="midnightblue" points="1808.62,-146.26 1818.4,-142.19 1808.22,-139.28 1808.62,-146.26"/>
</g>
<!-- Node26 -->
<g id="node26" class="node">
<title>Node26</title>
<g id="a_node26"><a xlink:title=" ">
<polygon fill="white" stroke="#bfbfbf" points="662.5,-129 662.5,-148 796.5,-148 796.5,-129 662.5,-129"/>
<text text-anchor="middle" x="729.5" y="-136" font-family="Helvetica,sans-Serif" font-size="10.00">AMReX_GpuQualifiers.H</text>
</a>
</g>
</g>
<!-- Node24&#45;&gt;Node26 -->
<g id="edge35" class="edge">
<title>Node24&#45;&gt;Node26</title>
<path fill="none" stroke="midnightblue" d="M746.8,-195.73C743.83,-186.09 738.98,-170.3 735.16,-157.91"/>
<polygon fill="midnightblue" stroke="midnightblue" points="738.44,-156.66 732.15,-148.13 731.75,-158.71 738.44,-156.66"/>
</g>
<!-- Node27 -->
<g id="node27" class="node">
<title>Node27</title>
<g id="a_node27"><a xlink:title=" ">
<polygon fill="white" stroke="#bfbfbf" points="528.5,-129 528.5,-148 644.5,-148 644.5,-129 528.5,-129"/>
<text text-anchor="middle" x="586.5" y="-136" font-family="Helvetica,sans-Serif" font-size="10.00">AMReX_Extension.H</text>
</a>
</g>
</g>
<!-- Node24&#45;&gt;Node27 -->
<g id="edge36" class="edge">
<title>Node24&#45;&gt;Node27</title>
<path fill="none" stroke="midnightblue" d="M727.85,-195.87C699.52,-184.57 649.68,-164.7 617.39,-151.82"/>
<polygon fill="midnightblue" stroke="midnightblue" points="618.56,-148.52 607.98,-148.06 615.97,-155.02 618.56,-148.52"/>
</g>
<!-- Node28&#45;&gt;Node6 -->
<g id="edge39" class="edge">
<title>Node28&#45;&gt;Node6</title>
<path fill="none" stroke="midnightblue" d="M1403.12,-195.88C1384.31,-185.93 1352.55,-169.01 1325.5,-154 1248.91,-111.49 1237.85,-82.93 1154.5,-56 1086.71,-34.1 882.71,-19.9 782.42,-14.05"/>
<polygon fill="midnightblue" stroke="midnightblue" points="782.36,-10.54 772.17,-13.46 781.95,-17.52 782.36,-10.54"/>
</g>
<!-- Node28&#45;&gt;Node11 -->
<g id="edge38" class="edge">
<title>Node28&#45;&gt;Node11</title>
<path fill="none" stroke="midnightblue" d="M1406.16,-195.83C1381.11,-178.64 1327.71,-137.5 1307.5,-87 1300.07,-68.43 1303.5,-45.3 1307.56,-29.46"/>
<polygon fill="midnightblue" stroke="midnightblue" points="1310.94,-30.39 1310.35,-19.81 1304.21,-28.45 1310.94,-30.39"/>
</g>
<!-- Node28&#45;&gt;Node13 -->
<g id="edge58" class="edge">
<title>Node28&#45;&gt;Node13</title>
<path fill="none" stroke="midnightblue" d="M1466.15,-195.97C1578.28,-175.02 1855.62,-120.28 1881.5,-87 1889.96,-76.12 1890.33,-66.58 1881.5,-56 1858.71,-28.68 1764.52,-17.9 1699.28,-13.68"/>
<polygon fill="midnightblue" stroke="midnightblue" points="1699.27,-10.17 1689.07,-13.06 1698.84,-17.16 1699.27,-10.17"/>
</g>
<!-- Node28&#45;&gt;Node15 -->
<g id="edge45" class="edge">
<title>Node28&#45;&gt;Node15</title>
<path fill="none" stroke="midnightblue" d="M1385.37,-195.94C1338.89,-184.27 1255.6,-163.37 1204.48,-150.54"/>
<polygon fill="midnightblue" stroke="midnightblue" points="1205.25,-147.12 1194.7,-148.08 1203.55,-153.91 1205.25,-147.12"/>
</g>
<!-- Node28&#45;&gt;Node20 -->
<g id="edge40" class="edge">
<title>Node28&#45;&gt;Node20</title>
<path fill="none" stroke="midnightblue" d="M1494.17,-202.37C1626.64,-197.82 1891.54,-184.92 1919.5,-154 1951.04,-119.12 1926.09,-58.47 1910.55,-28.62"/>
<polygon fill="midnightblue" stroke="midnightblue" points="1913.59,-26.88 1905.74,-19.76 1907.43,-30.22 1913.59,-26.88"/>
</g>
<!-- Node28&#45;&gt;Node23 -->
<g id="edge57" class="edge">
<title>Node28&#45;&gt;Node23</title>
<path fill="none" stroke="midnightblue" d="M1354.77,-195.98C1288.07,-186.87 1181.18,-171.38 1089.5,-154 1083.55,-152.87 1077.31,-151.59 1071.16,-150.26"/>
<polygon fill="midnightblue" stroke="midnightblue" points="1071.47,-146.74 1060.95,-148 1069.96,-153.58 1071.47,-146.74"/>
</g>
<!-- Node29 -->
<g id="node29" class="node">
<title>Node29</title>
<g id="a_node29"><a xlink:href="_field_utils_8_h.html" target="_top" xlink:title=" ">
<polygon fill="white" stroke="black" points="2042.5,-62 2042.5,-81 2188.5,-81 2188.5,-62 2042.5,-62"/>
<text text-anchor="middle" x="2115.5" y="-69" font-family="Helvetica,sans-Serif" font-size="10.00">amr&#45;wind/core/FieldUtils.H</text>
</a>
</g>
</g>
<!-- Node28&#45;&gt;Node29 -->
<g id="edge41" class="edge">
<title>Node28&#45;&gt;Node29</title>
<path fill="none" stroke="midnightblue" d="M1494.24,-202.7C1627.69,-198.69 1901.31,-186.66 1990.5,-154 2012.96,-145.78 2014.56,-136.22 2034.5,-123 2053.78,-110.21 2076.12,-96.35 2092.45,-86.4"/>
<polygon fill="midnightblue" stroke="midnightblue" points="2094.57,-89.2 2101.3,-81.02 2090.94,-83.22 2094.57,-89.2"/>
</g>
<!-- Node31 -->
<g id="node31" class="node">
<title>Node31</title>
<g id="a_node31"><a xlink:href="_int_field_8_h.html" target="_top" xlink:title=" ">
<polygon fill="white" stroke="black" points="2043,-129 2043,-148 2180,-148 2180,-129 2043,-129"/>
<text text-anchor="middle" x="2111.5" y="-136" font-family="Helvetica,sans-Serif" font-size="10.00">amr&#45;wind/core/IntField.H</text>
</a>
</g>
</g>
<!-- Node28&#45;&gt;Node31 -->
<g id="edge46" class="edge">
<title>Node28&#45;&gt;Node31</title>
<path fill="none" stroke="midnightblue" d="M1494.26,-200.48C1609.35,-193.8 1836.73,-178.65 2028.5,-154 2037.66,-152.82 2047.36,-151.34 2056.76,-149.78"/>
<polygon fill="midnightblue" stroke="midnightblue" points="2057.54,-153.2 2066.81,-148.07 2056.37,-146.3 2057.54,-153.2"/>
</g>
<!-- Node32 -->
<g id="node32" class="node">
<title>Node32</title>
<g id="a_node32"><a xlink:title=" ">
<polygon fill="white" stroke="#bfbfbf" points="2244.5,-62 2244.5,-81 2356.5,-81 2356.5,-62 2244.5,-62"/>
<text text-anchor="middle" x="2300.5" y="-69" font-family="Helvetica,sans-Serif" font-size="10.00">AMReX_iMultiFab.H</text>
</a>
</g>
</g>
<!-- Node28&#45;&gt;Node32 -->
<g id="edge59" class="edge">
<title>Node28&#45;&gt;Node32</title>
<path fill="none" stroke="midnightblue" d="M1494.01,-202.14C1674.65,-196.07 2125.76,-178.61 2189.5,-154 2210.16,-146.02 2210.76,-136.25 2228.5,-123 2245.42,-110.36 2265.07,-96.64 2279.56,-86.7"/>
<polygon fill="midnightblue" stroke="midnightblue" points="2281.57,-89.56 2287.85,-81.03 2277.62,-83.78 2281.57,-89.56"/>
</g>
<!-- Node33 -->
<g id="node33" class="node">
<title>Node33</title>
<g id="a_node33"><a xlink:href="_scratch_field_8_h.html" target="_top" xlink:title=" ">
<polygon fill="white" stroke="black" points="1412.5,-129 1412.5,-148 1572.5,-148 1572.5,-129 1412.5,-129"/>
<text text-anchor="middle" x="1492.5" y="-136" font-family="Helvetica,sans-Serif" font-size="10.00">amr&#45;wind/core/ScratchField.H</text>
</a>
</g>
</g>
<!-- Node28&#45;&gt;Node33 -->
<g id="edge50" class="edge">
<title>Node28&#45;&gt;Node33</title>
<path fill="none" stroke="midnightblue" d="M1429.35,-195.73C1441.06,-185.31 1460.82,-167.71 1475.12,-154.97"/>
<polygon fill="midnightblue" stroke="midnightblue" points="1477.67,-157.39 1482.81,-148.13 1473.01,-152.16 1477.67,-157.39"/>
</g>
<!-- Node29&#45;&gt;Node13 -->
<g id="edge43" class="edge">
<title>Node29&#45;&gt;Node13</title>
<path fill="none" stroke="midnightblue" d="M2066.79,-61.93C2054.33,-59.86 2040.93,-57.75 2028.5,-56 1912.84,-39.77 1777.47,-25.29 1699.28,-17.37"/>
<polygon fill="midnightblue" stroke="midnightblue" points="1699.41,-13.86 1689.11,-16.34 1698.7,-20.83 1699.41,-13.86"/>
</g>
<!-- Node29&#45;&gt;Node20 -->
<g id="edge42" class="edge">
<title>Node29&#45;&gt;Node20</title>
<path fill="none" stroke="midnightblue" d="M2084.7,-61.98C2046.94,-51.53 1982.84,-33.79 1941.09,-22.23"/>
<polygon fill="midnightblue" stroke="midnightblue" points="1941.82,-18.8 1931.25,-19.51 1939.95,-25.55 1941.82,-18.8"/>
</g>
<!-- Node30 -->
<g id="node30" class="node">
<title>Node30</title>
<g id="a_node30"><a xlink:title=" ">
<polygon fill="white" stroke="#bfbfbf" points="2053.5,-0.5 2053.5,-19.5 2177.5,-19.5 2177.5,-0.5 2053.5,-0.5"/>
<text text-anchor="middle" x="2115.5" y="-7.5" font-family="Helvetica,sans-Serif" font-size="10.00">AMReX_Interpolater.H</text>
</a>
</g>
</g>
<!-- Node29&#45;&gt;Node30 -->
<g id="edge44" class="edge">
<title>Node29&#45;&gt;Node30</title>
<path fill="none" stroke="midnightblue" d="M2115.5,-61.98C2115.5,-53.58 2115.5,-40.48 2115.5,-29.66"/>
<polygon fill="midnightblue" stroke="midnightblue" points="2119,-29.51 2115.5,-19.51 2112,-29.51 2119,-29.51"/>
</g>
<!-- Node31&#45;&gt;Node11 -->
<g id="edge47" class="edge">
<title>Node31&#45;&gt;Node11</title>
<path fill="none" stroke="midnightblue" d="M2092.61,-128.89C2053.92,-111.68 1962.5,-73.25 1881.5,-56 1777.89,-33.94 1450.1,-17.29 1345.74,-12.44"/>
<polygon fill="midnightblue" stroke="midnightblue" points="1345.67,-8.94 1335.52,-11.97 1345.35,-15.93 1345.67,-8.94"/>
</g>
<!-- Node31&#45;&gt;Node20 -->
<g id="edge48" class="edge">
<title>Node31&#45;&gt;Node20</title>
<path fill="none" stroke="midnightblue" d="M2133.13,-128.94C2166.05,-114.73 2222.38,-84.93 2197.5,-56 2184.46,-40.83 2080.36,-27.68 1999.04,-19.58"/>
<polygon fill="midnightblue" stroke="midnightblue" points="1999.03,-16.06 1988.73,-18.57 1998.34,-23.03 1999.03,-16.06"/>
</g>
<!-- Node31&#45;&gt;Node32 -->
<g id="edge49" class="edge">
<title>Node31&#45;&gt;Node32</title>
<path fill="none" stroke="midnightblue" d="M2136.6,-128.87C2169.87,-117.42 2228.74,-97.18 2266.12,-84.32"/>
<polygon fill="midnightblue" stroke="midnightblue" points="2267.28,-87.63 2275.6,-81.06 2265,-81.01 2267.28,-87.63"/>
</g>
<!-- Node33&#45;&gt;Node11 -->
<g id="edge51" class="edge">
<title>Node33&#45;&gt;Node11</title>
<path fill="none" stroke="midnightblue" d="M1493.13,-128.8C1493.84,-112.3 1492.88,-76.27 1473.5,-56 1440.11,-21.07 1381.93,-12.58 1345.69,-10.89"/>
<polygon fill="midnightblue" stroke="midnightblue" points="1345.75,-7.39 1335.64,-10.57 1345.53,-14.39 1345.75,-7.39"/>
</g>
<!-- Node33&#45;&gt;Node12 -->
<g id="edge55" class="edge">
<title>Node33&#45;&gt;Node12</title>
<path fill="none" stroke="midnightblue" d="M1434.38,-128.95C1396.52,-121.66 1347,-108.78 1307.5,-87 1279.42,-71.51 1253.22,-44.64 1238.04,-27.35"/>
<polygon fill="midnightblue" stroke="midnightblue" points="1240.68,-25.05 1231.52,-19.73 1235.36,-29.6 1240.68,-25.05"/>
</g>
<!-- Node33&#45;&gt;Node13 -->
<g id="edge54" class="edge">
<title>Node33&#45;&gt;Node13</title>
<path fill="none" stroke="midnightblue" d="M1572.51,-131.75C1635.81,-125.33 1716.86,-112.33 1737.5,-87 1746.2,-76.32 1745.04,-67.53 1737.5,-56 1727,-39.95 1709.37,-29.59 1691.65,-22.92"/>
<polygon fill="midnightblue" stroke="midnightblue" points="1692.43,-19.49 1681.83,-19.58 1690.17,-26.11 1692.43,-19.49"/>
</g>
<!-- Node33&#45;&gt;Node20 -->
<g id="edge52" class="edge">
<title>Node33&#45;&gt;Node20</title>
<path fill="none" stroke="midnightblue" d="M1572.61,-137.41C1672.97,-135.6 1837.19,-126.46 1881.5,-87 1897.5,-72.76 1901,-47.27 1901.33,-29.77"/>
<polygon fill="midnightblue" stroke="midnightblue" points="1904.83,-29.57 1901.19,-19.62 1897.83,-29.67 1904.83,-29.57"/>
</g>
<!-- Node33&#45;&gt;Node21 -->
<g id="edge53" class="edge">
<title>Node33&#45;&gt;Node21</title>
<path fill="none" stroke="midnightblue" d="M1478.74,-128.73C1461.77,-117.92 1432.69,-99.38 1412.57,-86.57"/>
<polygon fill="midnightblue" stroke="midnightblue" points="1414.35,-83.55 1404.04,-81.13 1410.59,-89.45 1414.35,-83.55"/>
</g>
<!-- Node34 -->
<g id="node34" class="node">
<title>Node34</title>
<g id="a_node34"><a xlink:title=" ">
<polygon fill="white" stroke="#bfbfbf" points="1597,-62 1597,-81 1728,-81 1728,-62 1597,-62"/>
<text text-anchor="middle" x="1662.5" y="-69" font-family="Helvetica,sans-Serif" font-size="10.00">AMReX_PhysBCFunct.H</text>
</a>
</g>
</g>
<!-- Node33&#45;&gt;Node34 -->
<g id="edge56" class="edge">
<title>Node33&#45;&gt;Node34</title>
<path fill="none" stroke="midnightblue" d="M1515.07,-128.87C1544.75,-117.52 1597.05,-97.52 1630.72,-84.65"/>
<polygon fill="midnightblue" stroke="midnightblue" points="1632.01,-87.9 1640.1,-81.06 1629.51,-81.37 1632.01,-87.9"/>
</g>
<!-- Node35&#45;&gt;Node4 -->
<g id="edge62" class="edge">
<title>Node35&#45;&gt;Node4</title>
<path fill="none" stroke="midnightblue" d="M390.84,-123.4C356.26,-111.69 307.64,-95.23 275.16,-84.23"/>
<polygon fill="midnightblue" stroke="midnightblue" points="276.22,-80.9 265.63,-81.01 273.98,-87.53 276.22,-80.9"/>
</g>
<!-- Node35&#45;&gt;Node10 -->
<g id="edge63" class="edge">
<title>Node35&#45;&gt;Node10</title>
<path fill="none" stroke="midnightblue" d="M424.25,-123.4C418.51,-113.56 410.8,-100.38 404.67,-89.89"/>
<polygon fill="midnightblue" stroke="midnightblue" points="407.65,-88.06 399.58,-81.19 401.61,-91.59 407.65,-88.06"/>
</g>
<!-- Node35&#45;&gt;Node11 -->
<g id="edge61" class="edge">
<title>Node35&#45;&gt;Node11</title>
<path fill="none" stroke="midnightblue" d="M441.75,-123.42C455.3,-104.17 482.55,-70.38 515.5,-56 668.98,11 1097.86,-45.79 1281.16,-19.7"/>
<polygon fill="midnightblue" stroke="midnightblue" points="1281.95,-23.12 1291.29,-18.13 1280.88,-16.2 1281.95,-23.12"/>
</g>
<!-- Node35&#45;&gt;Node19 -->
<g id="edge67" class="edge">
<title>Node35&#45;&gt;Node19</title>
<path fill="none" stroke="midnightblue" d="M503.48,-123.48C565.01,-111.32 652.68,-94 708.33,-83.01"/>
<polygon fill="midnightblue" stroke="midnightblue" points="709.2,-86.4 718.33,-81.03 707.84,-79.53 709.2,-86.4"/>
</g>
<!-- Node35&#45;&gt;Node20 -->
<g id="edge66" class="edge">
<title>Node35&#45;&gt;Node20</title>
<path fill="none" stroke="midnightblue" d="M455.1,-123.44C470.64,-113.59 491.62,-99.93 509.5,-87 527.44,-74.03 527.71,-63.62 548.5,-56 668.53,-11.99 1570.75,-24.85 1698.5,-20 1732.2,-18.72 1769.05,-17.14 1801.94,-15.65"/>
<polygon fill="midnightblue" stroke="midnightblue" points="1802.18,-19.15 1812.02,-15.2 1801.87,-12.15 1802.18,-19.15"/>
</g>
<!-- Node36 -->
<g id="node36" class="node">
<title>Node36</title>
<g id="a_node36"><a xlink:href="_p_d_e_fields_8_h.html" target="_top" xlink:title=" ">
<polygon fill="white" stroke="black" points="0,-56.5 0,-86.5 155,-86.5 155,-56.5 0,-56.5"/>
<text text-anchor="start" x="8" y="-74.5" font-family="Helvetica,sans-Serif" font-size="10.00">amr&#45;wind/equation_systems</text>
<text text-anchor="middle" x="77.5" y="-63.5" font-family="Helvetica,sans-Serif" font-size="10.00">/PDEFields.H</text>
</a>
</g>
</g>
<!-- Node35&#45;&gt;Node36 -->
<g id="edge64" class="edge">
<title>Node35&#45;&gt;Node36</title>
<path fill="none" stroke="midnightblue" d="M355.91,-123.48C299.55,-113.16 222.86,-99.12 164.25,-88.38"/>
<polygon fill="midnightblue" stroke="midnightblue" points="164.73,-84.91 154.26,-86.55 163.47,-91.8 164.73,-84.91"/>
</g>
<!-- Node37 -->
<g id="node37" class="node">
<title>Node37</title>
<g id="a_node37"><a xlink:title=" ">
<polygon fill="white" stroke="#bfbfbf" points="53.5,-0.5 53.5,-19.5 101.5,-19.5 101.5,-0.5 53.5,-0.5"/>
<text text-anchor="middle" x="77.5" y="-7.5" font-family="Helvetica,sans-Serif" font-size="10.00">iosfwd</text>
</a>
</g>
</g>
<!-- Node36&#45;&gt;Node37 -->
<g id="edge65" class="edge">
<title>Node36&#45;&gt;Node37</title>
<path fill="none" stroke="midnightblue" d="M77.5,-56.4C77.5,-48.47 77.5,-38.46 77.5,-29.86"/>
<polygon fill="midnightblue" stroke="midnightblue" points="81,-29.66 77.5,-19.66 74,-29.66 81,-29.66"/>
</g>
<!-- Node39&#45;&gt;Node18 -->
<g id="edge73" class="edge">
<title>Node39&#45;&gt;Node18</title>
<path fill="none" stroke="midnightblue" d="M1910.46,-190.27C1919.96,-173.2 1932,-144.23 1919.5,-123 1908.73,-104.7 1888.67,-92.56 1870.12,-84.78"/>
<polygon fill="midnightblue" stroke="midnightblue" points="1871.21,-81.45 1860.62,-81.1 1868.68,-87.98 1871.21,-81.45"/>
</g>
<!-- Node39&#45;&gt;Node25 -->
<g id="edge72" class="edge">
<title>Node39&#45;&gt;Node25</title>
<path fill="none" stroke="midnightblue" d="M1893.47,-190.4C1887.87,-180.56 1880.37,-167.38 1874.4,-156.89"/>
<polygon fill="midnightblue" stroke="midnightblue" points="1877.44,-155.15 1869.45,-148.19 1871.35,-158.62 1877.44,-155.15"/>
</g>
<!-- Node40 -->
<g id="node40" class="node">
<title>Node40</title>
<g id="a_node40"><a xlink:title=" ">
<polygon fill="white" stroke="#bfbfbf" points="2237,-129 2237,-148 2284,-148 2284,-129 2237,-129"/>
<text text-anchor="middle" x="2260.5" y="-136" font-family="Helvetica,sans-Serif" font-size="10.00">cmath</text>
</a>
</g>
</g>
<!-- Node39&#45;&gt;Node40 -->
<g id="edge71" class="edge">
<title>Node39&#45;&gt;Node40</title>
<path fill="none" stroke="midnightblue" d="M1953.05,-199.74C2017.04,-193.06 2129.14,-178.86 2222.5,-154 2225.16,-153.29 2227.89,-152.46 2230.61,-151.57"/>
<polygon fill="midnightblue" stroke="midnightblue" points="2232.01,-154.78 2240.25,-148.12 2229.65,-148.19 2232.01,-154.78"/>
</g>
</g>
</svg>
        <g id="navigator" transform="translate(0 0)" fill="#404254">
                <rect fill="#f2f5e9" fill-opacity="0.5" stroke="#606060" stroke-width=".5" x="0" y="0" width="60" height="60"/>
                <use id="zoomplus" xlink:href="#zoomPlus" x="17" y="9" onmousedown="handleZoom(evt,'in')"/>
                <use id="zoomminus" xlink:href="#zoomMin" x="42" y="9" onmousedown="handleZoom(evt,'out')"/>
                <use id="reset" xlink:href="#resetDef" x="30" y="36" onmousedown="handleReset()"/>
                <g id="arrowUp" xlink:href="#dirArrow" transform="translate(30 24)" onmousedown="handlePan(0,-1)">
                  <use xlink:href="#rim" fill="#404040">
                        <set attributeName="fill" to="#808080" begin="arrowUp.mouseover" end="arrowUp.mouseout"/>
                  </use>
                  <path fill="none" stroke="white" stroke-width="1.5" d="M0,-3.0v7 M-2.5,-0.5L0,-3.0L2.5,-0.5"/>
                </g>
                <g id="arrowRight" xlink:href="#dirArrow" transform="rotate(90) translate(36 -43)" onmousedown="handlePan(1,0)">
                  <use xlink:href="#rim" fill="#404040">
                        <set attributeName="fill" to="#808080" begin="arrowRight.mouseover" end="arrowRight.mouseout"/>
                  </use>
                  <path fill="none" stroke="white" stroke-width="1.5" d="M0,-3.0v7 M-2.5,-0.5L0,-3.0L2.5,-0.5"/>
                </g>
                <g id="arrowDown" xlink:href="#dirArrow" transform="rotate(180) translate(-30 -48)" onmousedown="handlePan(0,1)">
                  <use xlink:href="#rim" fill="#404040">
                        <set attributeName="fill" to="#808080" begin="arrowDown.mouseover" end="arrowDown.mouseout"/>
                  </use>
                  <path fill="none" stroke="white" stroke-width="1.5" d="M0,-3.0v7 M-2.5,-0.5L0,-3.0L2.5,-0.5"/>
                </g>
                <g id="arrowLeft" xlink:href="#dirArrow" transform="rotate(270) translate(-36 17)" onmousedown="handlePan(-1,0)">
                  <use xlink:href="#rim" fill="#404040">
                        <set attributeName="fill" to="#808080" begin="arrowLeft.mouseover" end="arrowLeft.mouseout"/>
                  </use>
                  <path fill="none" stroke="white" stroke-width="1.5" d="M0,-3.0v7 M-2.5,-0.5L0,-3.0L2.5,-0.5"/>
                </g>
        </g>
        <svg viewBox="0 0 15 15" width="100%" height="30px" preserveAspectRatio="xMaxYMin meet">
         <g id="arrow_out" transform="scale(0.3 0.3)">
          <a xlink:href="_vortex_ring_8cpp__incl_org.svg" target="_base">
           <rect id="button" ry="5" rx="5" y="6" x="6" height="38" width="38"
                fill="#f2f5e9" fill-opacity="0.5" stroke="#606060" stroke-width="1.0"/>
           <path id="arrow"
             d="M 11.500037,31.436501 C 11.940474,20.09759 22.043105,11.32322 32.158766,21.979434 L 37.068811,17.246167 C 37.068811,17.246167 37.088388,32 37.088388,32 L 22.160133,31.978069 C 22.160133,31.978069 26.997745,27.140456 26.997745,27.140456 C 18.528582,18.264221 13.291696,25.230495 11.500037,31.436501 z"
             style="fill:#404040;"/>
          </a>
         </g>
        </svg>
</svg>
