<?xml version="1.0" encoding="UTF-8" standalone="no"?>
<!DOCTYPE svg PUBLIC "-//W3C//DTD SVG 1.1//EN"
 "http://www.w3.org/Graphics/SVG/1.1/DTD/svg11.dtd">
<!-- Generated by graphviz version 2.43.0 (0)
 -->
<!-- Title: actuator_utils.H Pages: 1 -->
<!--zoomable 308 -->
<svg id="main" version="1.1" xmlns="http://www.w3.org/2000/svg" xmlns:xlink="http://www.w3.org/1999/xlink" xml:space="preserve" onload="init(evt)">
<style type="text/css"><![CDATA[
.edge:hover path { stroke: red; }
.edge:hover polygon { stroke: red; fill: red; }
]]></style>
<script type="text/javascript"><![CDATA[
var edges = document.getElementsByTagName('g');
if (edges && edges.length) {
  for (var i=0;i<edges.length;i++) {
    if (edges[i].id.substr(0,4)=='edge') {
      edges[i].setAttribute('class','edge');
    }
  }
}
]]></script>
        <defs>
                <circle id="rim" cx="0" cy="0" r="7"/>
                <circle id="rim2" cx="0" cy="0" r="3.5"/>
                <g id="zoomPlus">
                        <use xlink:href="#rim" fill="#404040">
                                <set attributeName="fill" to="#808080" begin="zoomplus.mouseover" end="zoomplus.mouseout"/>
                        </use>
                        <path d="M-4,0h8M0,-4v8" fill="none" stroke="white" stroke-width="1.5" pointer-events="none"/>
                </g>
                <g id="zoomMin">
                        <use xlink:href="#rim" fill="#404040">
                                <set attributeName="fill" to="#808080" begin="zoomminus.mouseover" end="zoomminus.mouseout"/>
                        </use>
                        <path d="M-4,0h8" fill="none" stroke="white" stroke-width="1.5" pointer-events="none"/>
                </g>
                <g id="dirArrow">
                        <path fill="none" stroke="white" stroke-width="1.5" d="M0,-3.0v7 M-2.5,-0.5L0,-3.0L2.5,-0.5"/>
                </g>
               <g id="resetDef">
                       <use xlink:href="#rim2" fill="#404040">
                               <set attributeName="fill" to="#808080" begin="reset.mouseover" end="reset.mouseout"/>
                       </use>
               </g>
        </defs>

<script type="text/javascript">
var viewWidth = 829;
var viewHeight = 308;
var sectionId = 'dynsection-1';
</script>
<script xlink:href="svgpan.js"/>
<svg id="graph" class="graph">
<g id="viewport">
<title>actuator_utils.H</title>
<polygon fill="white" stroke="transparent" points="-4,4 -4,-304 825.26,-304 825.26,4 -4,4"/>
<!-- Node1 -->
<g id="node1" class="node">
<title>Node1</title>
<g id="a_node1"><a xlink:title=" ">
<polygon fill="#bfbfbf" stroke="black" points="275.26,-280.5 275.26,-299.5 369.26,-299.5 369.26,-280.5 275.26,-280.5"/>
<text text-anchor="middle" x="322.26" y="-287.5" font-family="Helvetica,sans-Serif" font-size="10.00">actuator_utils.H</text>
</a>
</g>
</g>
<!-- Node2 -->
<g id="node2" class="node">
<title>Node2</title>
<g id="a_node2"><a xlink:href="actuator__ops_i_8_h.html" target="_top" xlink:title=" ">
<polygon fill="white" stroke="black" points="350.76,-224.5 350.76,-243.5 443.76,-243.5 443.76,-224.5 350.76,-224.5"/>
<text text-anchor="middle" x="397.26" y="-231.5" font-family="Helvetica,sans-Serif" font-size="10.00">actuator_opsI.H</text>
</a>
</g>
</g>
<!-- Node1&#45;&gt;Node2 -->
<g id="edge1" class="edge">
<title>Node1&#45;&gt;Node2</title>
<path fill="none" stroke="midnightblue" d="M342.57,-274.38C356.13,-264.62 373.51,-252.11 385,-243.83"/>
<polygon fill="midnightblue" stroke="midnightblue" points="340.39,-271.64 334.31,-280.32 344.48,-277.32 340.39,-271.64"/>
</g>
<!-- Node4 -->
<g id="node4" class="node">
<title>Node4</title>
<g id="a_node4"><a xlink:href="_act_src_line_op_8_h.html" target="_top" xlink:title=" ">
<polygon fill="white" stroke="black" points="277.26,-112.5 277.26,-131.5 369.26,-131.5 369.26,-112.5 277.26,-112.5"/>
<text text-anchor="middle" x="323.26" y="-119.5" font-family="Helvetica,sans-Serif" font-size="10.00">ActSrcLineOp.H</text>
</a>
</g>
</g>
<!-- Node1&#45;&gt;Node4 -->
<g id="edge28" class="edge">
<title>Node1&#45;&gt;Node4</title>
<path fill="none" stroke="midnightblue" d="M322.38,-269.93C322.6,-233.92 323.06,-157.23 323.21,-131.57"/>
<polygon fill="midnightblue" stroke="midnightblue" points="318.88,-270.05 322.32,-280.08 325.88,-270.1 318.88,-270.05"/>
</g>
<!-- Node11 -->
<g id="node11" class="node">
<title>Node11</title>
<g id="a_node11"><a xlink:href="_act_src_disk_op___turbine_8_h.html" target="_top" xlink:title=" ">
<polygon fill="white" stroke="black" points="125.26,-112.5 125.26,-131.5 259.26,-131.5 259.26,-112.5 125.26,-112.5"/>
<text text-anchor="middle" x="192.26" y="-119.5" font-family="Helvetica,sans-Serif" font-size="10.00">ActSrcDiskOp_Turbine.H</text>
</a>
</g>
</g>
<!-- Node1&#45;&gt;Node11 -->
<g id="edge29" class="edge">
<title>Node1&#45;&gt;Node11</title>
<path fill="none" stroke="midnightblue" d="M308.77,-271.76C281.22,-236.59 219.42,-157.68 198.97,-131.57"/>
<polygon fill="midnightblue" stroke="midnightblue" points="306.35,-274.36 315.28,-280.08 311.87,-270.04 306.35,-274.36"/>
</g>
<!-- Node12 -->
<g id="node12" class="node">
<title>Node12</title>
<g id="a_node12"><a xlink:href="_act_src_disk_op_8_h.html" target="_top" xlink:title=" ">
<polygon fill="white" stroke="black" points="13.76,-112.5 13.76,-131.5 106.76,-131.5 106.76,-112.5 13.76,-112.5"/>
<text text-anchor="middle" x="60.26" y="-119.5" font-family="Helvetica,sans-Serif" font-size="10.00">ActSrcDiskOp.H</text>
</a>
</g>
</g>
<!-- Node1&#45;&gt;Node12 -->
<g id="edge30" class="edge">
<title>Node1&#45;&gt;Node12</title>
<path fill="none" stroke="midnightblue" d="M299.94,-274.85C247.24,-241.46 116.37,-158.55 73.85,-131.61"/>
<polygon fill="midnightblue" stroke="midnightblue" points="298.23,-277.91 308.55,-280.31 301.97,-272 298.23,-277.91"/>
</g>
<!-- Node15 -->
<g id="node15" class="node">
<title>Node15</title>
<g id="a_node15"><a xlink:href="turbine__fast__ops_8_h.html" target="_top" xlink:title=" ">
<polygon fill="white" stroke="black" points="713.26,-112.5 713.26,-131.5 821.26,-131.5 821.26,-112.5 713.26,-112.5"/>
<text text-anchor="middle" x="767.26" y="-119.5" font-family="Helvetica,sans-Serif" font-size="10.00">turbine_fast_ops.H</text>
</a>
</g>
</g>
<!-- Node1&#45;&gt;Node15 -->
<g id="edge35" class="edge">
<title>Node1&#45;&gt;Node15</title>
<path fill="none" stroke="midnightblue" d="M360.75,-277.5C387.17,-269.19 422.82,-257.15 453.26,-244 470.79,-236.43 473.82,-231.74 491.26,-224 580.34,-184.47 690.14,-147.7 740.15,-131.58"/>
<polygon fill="midnightblue" stroke="midnightblue" points="359.62,-274.18 351.11,-280.49 361.7,-280.87 359.62,-274.18"/>
</g>
<!-- Node20 -->
<g id="node20" class="node">
<title>Node20</title>
<g id="a_node20"><a xlink:href="disk__spreading_8_h.html" target="_top" xlink:title=" ">
<polygon fill="white" stroke="black" points="9.76,-168.5 9.76,-187.5 110.76,-187.5 110.76,-168.5 9.76,-168.5"/>
<text text-anchor="middle" x="60.26" y="-175.5" font-family="Helvetica,sans-Serif" font-size="10.00">disk_spreading.H</text>
</a>
</g>
</g>
<!-- Node1&#45;&gt;Node20 -->
<g id="edge31" class="edge">
<title>Node1&#45;&gt;Node20</title>
<path fill="none" stroke="midnightblue" d="M278.58,-277.81C249.6,-269.8 211.02,-257.97 178.26,-244 138.68,-227.12 95.04,-200.92 73.62,-187.53"/>
<polygon fill="midnightblue" stroke="midnightblue" points="277.84,-281.24 288.41,-280.49 279.68,-274.48 277.84,-281.24"/>
</g>
<!-- Node21 -->
<g id="node21" class="node">
<title>Node21</title>
<g id="a_node21"><a xlink:href="actuator__utils_8cpp.html" target="_top" xlink:title=" ">
<polygon fill="white" stroke="black" points="500.26,-224.5 500.26,-243.5 604.26,-243.5 604.26,-224.5 500.26,-224.5"/>
<text text-anchor="middle" x="552.26" y="-231.5" font-family="Helvetica,sans-Serif" font-size="10.00">actuator_utils.cpp</text>
</a>
</g>
</g>
<!-- Node1&#45;&gt;Node21 -->
<g id="edge34" class="edge">
<title>Node1&#45;&gt;Node21</title>
<path fill="none" stroke="midnightblue" d="M368.47,-278.15C411.92,-267.95 476.11,-252.88 515.99,-243.52"/>
<polygon fill="midnightblue" stroke="midnightblue" points="367.64,-274.75 358.71,-280.44 369.24,-281.57 367.64,-274.75"/>
</g>
<!-- Node3 -->
<g id="node3" class="node">
<title>Node3</title>
<g id="a_node3"><a xlink:href="actuator__ops_8_h.html" target="_top" xlink:title=" ">
<polygon fill="white" stroke="black" points="353.26,-168.5 353.26,-187.5 443.26,-187.5 443.26,-168.5 353.26,-168.5"/>
<text text-anchor="middle" x="398.26" y="-175.5" font-family="Helvetica,sans-Serif" font-size="10.00">actuator_ops.H</text>
</a>
</g>
</g>
<!-- Node2&#45;&gt;Node3 -->
<g id="edge2" class="edge">
<title>Node2&#45;&gt;Node3</title>
<path fill="none" stroke="midnightblue" d="M397.62,-213.8C397.78,-204.91 397.97,-194.78 398.1,-187.75"/>
<polygon fill="midnightblue" stroke="midnightblue" points="394.12,-214.02 397.43,-224.08 401.11,-214.15 394.12,-214.02"/>
</g>
<!-- Node3&#45;&gt;Node4 -->
<g id="edge3" class="edge">
<title>Node3&#45;&gt;Node4</title>
<path fill="none" stroke="midnightblue" d="M377.96,-162.38C364.4,-152.62 347.02,-140.11 335.53,-131.83"/>
<polygon fill="midnightblue" stroke="midnightblue" points="376.05,-165.32 386.21,-168.32 380.14,-159.64 376.05,-165.32"/>
</g>
<!-- Node5 -->
<g id="node5" class="node">
<title>Node5</title>
<g id="a_node5"><a xlink:href="_actuator_model_8_h.html" target="_top" xlink:title=" ">
<polygon fill="white" stroke="black" points="181.26,-56.5 181.26,-75.5 279.26,-75.5 279.26,-56.5 181.26,-56.5"/>
<text text-anchor="middle" x="230.26" y="-63.5" font-family="Helvetica,sans-Serif" font-size="10.00">ActuatorModel.H</text>
</a>
</g>
</g>
<!-- Node3&#45;&gt;Node5 -->
<g id="edge10" class="edge">
<title>Node3&#45;&gt;Node5</title>
<path fill="none" stroke="midnightblue" d="M397.09,-157.81C395.21,-143.38 390.41,-124.1 378.26,-112 363.48,-97.26 312.05,-83.82 273.95,-75.55"/>
<polygon fill="midnightblue" stroke="midnightblue" points="393.64,-158.48 398.06,-168.11 400.61,-157.82 393.64,-158.48"/>
</g>
<!-- Node3&#45;&gt;Node11 -->
<g id="edge11" class="edge">
<title>Node3&#45;&gt;Node11</title>
<path fill="none" stroke="midnightblue" d="M355.65,-165.83C316.75,-155.63 260.1,-140.78 224.75,-131.52"/>
<polygon fill="midnightblue" stroke="midnightblue" points="355.06,-169.29 365.62,-168.44 356.84,-162.52 355.06,-169.29"/>
</g>
<!-- Node3&#45;&gt;Node12 -->
<g id="edge13" class="edge">
<title>Node3&#45;&gt;Node12</title>
<path fill="none" stroke="midnightblue" d="M342.63,-168.14C285.74,-159.08 194.84,-144.58 116.26,-132 113.25,-131.52 110.15,-131.02 107.01,-130.52"/>
<polygon fill="midnightblue" stroke="midnightblue" points="342.41,-171.65 352.84,-169.77 343.51,-164.74 342.41,-171.65"/>
</g>
<!-- Node13 -->
<g id="node13" class="node">
<title>Node13</title>
<g id="a_node13"><a xlink:href="uniform__ct__ops_8_h.html" target="_top" xlink:title=" ">
<polygon fill="white" stroke="black" points="425.26,-112.5 425.26,-131.5 527.26,-131.5 527.26,-112.5 425.26,-112.5"/>
<text text-anchor="middle" x="476.26" y="-119.5" font-family="Helvetica,sans-Serif" font-size="10.00">uniform_ct_ops.H</text>
</a>
</g>
</g>
<!-- Node3&#45;&gt;Node13 -->
<g id="edge15" class="edge">
<title>Node3&#45;&gt;Node13</title>
<path fill="none" stroke="midnightblue" d="M419.03,-162.62C433.28,-152.76 451.72,-139.99 463.76,-131.65"/>
<polygon fill="midnightblue" stroke="midnightblue" points="417.03,-159.75 410.8,-168.32 421.01,-165.51 417.03,-159.75"/>
</g>
<!-- Node3&#45;&gt;Node15 -->
<g id="edge18" class="edge">
<title>Node3&#45;&gt;Node15</title>
<path fill="none" stroke="midnightblue" d="M453.72,-168.67C455.25,-168.45 456.77,-168.22 458.26,-168 547.56,-154.8 651.41,-139.74 713.11,-130.82"/>
<polygon fill="midnightblue" stroke="midnightblue" points="452.85,-165.26 443.47,-170.2 453.88,-172.19 452.85,-165.26"/>
</g>
<!-- Node16 -->
<g id="node16" class="node">
<title>Node16</title>
<g id="a_node16"><a xlink:href="fixed__wing__ops_8_h.html" target="_top" xlink:title=" ">
<polygon fill="white" stroke="black" points="679.76,-56.5 679.76,-75.5 780.76,-75.5 780.76,-56.5 679.76,-56.5"/>
<text text-anchor="middle" x="730.26" y="-63.5" font-family="Helvetica,sans-Serif" font-size="10.00">fixed_wing_ops.H</text>
</a>
</g>
</g>
<!-- Node3&#45;&gt;Node16 -->
<g id="edge20" class="edge">
<title>Node3&#45;&gt;Node16</title>
<path fill="none" stroke="midnightblue" d="M453.78,-168.57C529.49,-156.95 656.9,-136.87 666.26,-132 692.4,-118.4 714.34,-90.25 724.39,-75.87"/>
<polygon fill="midnightblue" stroke="midnightblue" points="452.81,-165.18 443.45,-170.15 453.87,-172.1 452.81,-165.18"/>
</g>
<!-- Node17 -->
<g id="node17" class="node">
<title>Node17</title>
<g id="a_node17"><a xlink:href="wing__ops_8_h.html" target="_top" xlink:title=" ">
<polygon fill="white" stroke="black" points="583.76,-112.5 583.76,-131.5 656.76,-131.5 656.76,-112.5 583.76,-112.5"/>
<text text-anchor="middle" x="620.26" y="-119.5" font-family="Helvetica,sans-Serif" font-size="10.00">wing_ops.H</text>
</a>
</g>
</g>
<!-- Node3&#45;&gt;Node17 -->
<g id="edge22" class="edge">
<title>Node3&#45;&gt;Node17</title>
<path fill="none" stroke="midnightblue" d="M443.39,-166.02C485.33,-155.82 546.92,-140.84 585.25,-131.52"/>
<polygon fill="midnightblue" stroke="midnightblue" points="442.33,-162.68 433.44,-168.44 443.99,-169.48 442.33,-162.68"/>
</g>
<!-- Node18 -->
<g id="node18" class="node">
<title>Node18</title>
<g id="a_node18"><a xlink:href="flat__plate__ops_8_h.html" target="_top" xlink:title=" ">
<polygon fill="white" stroke="black" points="465.76,-56.5 465.76,-75.5 560.76,-75.5 560.76,-56.5 465.76,-56.5"/>
<text text-anchor="middle" x="513.26" y="-63.5" font-family="Helvetica,sans-Serif" font-size="10.00">flat_plate_ops.H</text>
</a>
</g>
</g>
<!-- Node3&#45;&gt;Node18 -->
<g id="edge27" class="edge">
<title>Node3&#45;&gt;Node18</title>
<path fill="none" stroke="midnightblue" d="M452.43,-166.16C486.55,-158.11 526.03,-146.11 536.26,-132 549.06,-114.37 532.04,-88.95 521.13,-75.73"/>
<polygon fill="midnightblue" stroke="midnightblue" points="451.48,-162.79 442.52,-168.43 453.04,-169.61 451.48,-162.79"/>
</g>
<!-- Node4&#45;&gt;Node5 -->
<g id="edge4" class="edge">
<title>Node4&#45;&gt;Node5</title>
<path fill="none" stroke="midnightblue" d="M299.46,-107.18C282.35,-97.24 259.8,-84.15 245.17,-75.65"/>
<polygon fill="midnightblue" stroke="midnightblue" points="297.92,-110.33 308.32,-112.32 301.43,-104.28 297.92,-110.33"/>
</g>
<!-- Node6 -->
<g id="node6" class="node">
<title>Node6</title>
<g id="a_node6"><a xlink:href="_actuator_8cpp.html" target="_top" xlink:title=" ">
<polygon fill="white" stroke="black" points="123.76,-0.5 123.76,-19.5 200.76,-19.5 200.76,-0.5 123.76,-0.5"/>
<text text-anchor="middle" x="162.26" y="-7.5" font-family="Helvetica,sans-Serif" font-size="10.00">Actuator.cpp</text>
</a>
</g>
</g>
<!-- Node5&#45;&gt;Node6 -->
<g id="edge5" class="edge">
<title>Node5&#45;&gt;Node6</title>
<path fill="none" stroke="midnightblue" d="M211.5,-50.1C199.26,-40.38 183.71,-28.03 173.39,-19.83"/>
<polygon fill="midnightblue" stroke="midnightblue" points="209.33,-52.85 219.34,-56.32 213.68,-47.36 209.33,-52.85"/>
</g>
<!-- Node7 -->
<g id="node7" class="node">
<title>Node7</title>
<g id="a_node7"><a xlink:href="_actuator_disk_8cpp.html" target="_top" xlink:title=" ">
<polygon fill="white" stroke="black" points="219.26,-0.5 219.26,-19.5 319.26,-19.5 319.26,-0.5 219.26,-0.5"/>
<text text-anchor="middle" x="269.26" y="-7.5" font-family="Helvetica,sans-Serif" font-size="10.00">ActuatorDisk.cpp</text>
</a>
</g>
</g>
<!-- Node5&#45;&gt;Node7 -->
<g id="edge6" class="edge">
<title>Node5&#45;&gt;Node7</title>
<path fill="none" stroke="midnightblue" d="M242.65,-47.86C249.4,-38.5 257.47,-27.33 262.94,-19.75"/>
<polygon fill="midnightblue" stroke="midnightblue" points="239.72,-45.93 236.7,-56.08 245.4,-50.03 239.72,-45.93"/>
</g>
<!-- Node8 -->
<g id="node8" class="node">
<title>Node8</title>
<g id="a_node8"><a xlink:href="_turbine_fast_8cpp.html" target="_top" xlink:title=" ">
<polygon fill="white" stroke="black" points="691.26,-0.5 691.26,-19.5 783.26,-19.5 783.26,-0.5 691.26,-0.5"/>
<text text-anchor="middle" x="737.26" y="-7.5" font-family="Helvetica,sans-Serif" font-size="10.00">TurbineFast.cpp</text>
</a>
</g>
</g>
<!-- Node5&#45;&gt;Node8 -->
<g id="edge7" class="edge">
<title>Node5&#45;&gt;Node8</title>
<path fill="none" stroke="midnightblue" d="M289.48,-58.69C391.62,-47.81 598.81,-25.75 691.11,-15.92"/>
<polygon fill="midnightblue" stroke="midnightblue" points="288.91,-55.23 279.34,-59.77 289.65,-62.19 288.91,-55.23"/>
</g>
<!-- Node9 -->
<g id="node9" class="node">
<title>Node9</title>
<g id="a_node9"><a xlink:href="_fixed_wing_8cpp.html" target="_top" xlink:title=" ">
<polygon fill="white" stroke="black" points="551.76,-0.5 551.76,-19.5 638.76,-19.5 638.76,-0.5 551.76,-0.5"/>
<text text-anchor="middle" x="595.26" y="-7.5" font-family="Helvetica,sans-Serif" font-size="10.00">FixedWing.cpp</text>
</a>
</g>
</g>
<!-- Node5&#45;&gt;Node9 -->
<g id="edge8" class="edge">
<title>Node5&#45;&gt;Node9</title>
<path fill="none" stroke="midnightblue" d="M289.51,-56.24C362.93,-45.37 486.33,-27.12 551.65,-17.45"/>
<polygon fill="midnightblue" stroke="midnightblue" points="288.87,-52.79 279.49,-57.72 289.89,-59.72 288.87,-52.79"/>
</g>
<!-- Node10 -->
<g id="node10" class="node">
<title>Node10</title>
<g id="a_node10"><a xlink:href="_flat_plate_8cpp.html" target="_top" xlink:title=" ">
<polygon fill="white" stroke="black" points="386.26,-0.5 386.26,-19.5 466.26,-19.5 466.26,-0.5 386.26,-0.5"/>
<text text-anchor="middle" x="426.26" y="-7.5" font-family="Helvetica,sans-Serif" font-size="10.00">FlatPlate.cpp</text>
</a>
</g>
</g>
<!-- Node5&#45;&gt;Node10 -->
<g id="edge9" class="edge">
<title>Node5&#45;&gt;Node10</title>
<path fill="none" stroke="midnightblue" d="M271.28,-53.7C308.28,-43.51 361.86,-28.74 395.35,-19.52"/>
<polygon fill="midnightblue" stroke="midnightblue" points="270.03,-50.41 261.32,-56.44 271.89,-57.16 270.03,-50.41"/>
</g>
<!-- Node11&#45;&gt;Node5 -->
<g id="edge12" class="edge">
<title>Node11&#45;&gt;Node5</title>
<path fill="none" stroke="midnightblue" d="M204.33,-103.86C210.91,-94.5 218.78,-83.33 224.11,-75.75"/>
<polygon fill="midnightblue" stroke="midnightblue" points="201.43,-101.89 198.54,-112.08 207.16,-105.92 201.43,-101.89"/>
</g>
<!-- Node12&#45;&gt;Node5 -->
<g id="edge14" class="edge">
<title>Node12&#45;&gt;Node5</title>
<path fill="none" stroke="midnightblue" d="M97.08,-109.3C129.12,-99.13 174.78,-84.62 203.45,-75.52"/>
<polygon fill="midnightblue" stroke="midnightblue" points="95.67,-106.08 87.2,-112.44 97.79,-112.75 95.67,-106.08"/>
</g>
<!-- Node13&#45;&gt;Node7 -->
<g id="edge16" class="edge">
<title>Node13&#45;&gt;Node7</title>
<path fill="none" stroke="midnightblue" d="M415.1,-110.77C386.51,-104.03 352.97,-93.16 326.26,-76 302.78,-60.91 283.33,-33.43 274.45,-19.54"/>
<polygon fill="midnightblue" stroke="midnightblue" points="414.46,-114.22 424.98,-112.99 415.99,-107.38 414.46,-114.22"/>
</g>
<!-- Node14 -->
<g id="node14" class="node">
<title>Node14</title>
<g id="a_node14"><a xlink:href="uniform__ct__ops_8cpp.html" target="_top" xlink:title=" ">
<polygon fill="white" stroke="black" points="335.26,-56.5 335.26,-75.5 447.26,-75.5 447.26,-56.5 335.26,-56.5"/>
<text text-anchor="middle" x="391.26" y="-63.5" font-family="Helvetica,sans-Serif" font-size="10.00">uniform_ct_ops.cpp</text>
</a>
</g>
</g>
<!-- Node13&#45;&gt;Node14 -->
<g id="edge17" class="edge">
<title>Node13&#45;&gt;Node14</title>
<path fill="none" stroke="midnightblue" d="M454.07,-106.9C438.48,-97 418.14,-84.07 404.89,-75.65"/>
<polygon fill="midnightblue" stroke="midnightblue" points="452.29,-109.92 462.61,-112.32 456.04,-104.01 452.29,-109.92"/>
</g>
<!-- Node15&#45;&gt;Node8 -->
<g id="edge19" class="edge">
<title>Node15&#45;&gt;Node8</title>
<path fill="none" stroke="midnightblue" d="M780.38,-104.16C789.06,-90.84 797.62,-71.89 790.26,-56 782.76,-39.79 766.22,-27.28 753.6,-19.61"/>
<polygon fill="midnightblue" stroke="midnightblue" points="777.47,-102.21 774.54,-112.39 783.18,-106.26 777.47,-102.21"/>
</g>
<!-- Node16&#45;&gt;Node9 -->
<g id="edge21" class="edge">
<title>Node16&#45;&gt;Node9</title>
<path fill="none" stroke="midnightblue" d="M699.36,-52.64C674.02,-42.5 638.83,-28.43 616.56,-19.52"/>
<polygon fill="midnightblue" stroke="midnightblue" points="698.29,-55.98 708.87,-56.44 700.89,-49.48 698.29,-55.98"/>
</g>
<!-- Node17&#45;&gt;Node16 -->
<g id="edge23" class="edge">
<title>Node17&#45;&gt;Node16</title>
<path fill="none" stroke="midnightblue" d="M647.03,-107.86C667.42,-97.85 694.93,-84.35 712.64,-75.65"/>
<polygon fill="midnightblue" stroke="midnightblue" points="645.37,-104.78 637.94,-112.32 648.46,-111.06 645.37,-104.78"/>
</g>
<!-- Node17&#45;&gt;Node18 -->
<g id="edge24" class="edge">
<title>Node17&#45;&gt;Node18</title>
<path fill="none" stroke="midnightblue" d="M593.96,-107.73C574.15,-97.73 547.56,-84.31 530.41,-75.65"/>
<polygon fill="midnightblue" stroke="midnightblue" points="592.57,-110.94 603.07,-112.32 595.72,-104.69 592.57,-110.94"/>
</g>
<!-- Node19 -->
<g id="node19" class="node">
<title>Node19</title>
<g id="a_node19"><a xlink:href="wing__ops_8cpp.html" target="_top" xlink:title=" ">
<polygon fill="white" stroke="black" points="578.76,-56.5 578.76,-75.5 661.76,-75.5 661.76,-56.5 578.76,-56.5"/>
<text text-anchor="middle" x="620.26" y="-63.5" font-family="Helvetica,sans-Serif" font-size="10.00">wing_ops.cpp</text>
</a>
</g>
</g>
<!-- Node17&#45;&gt;Node19 -->
<g id="edge26" class="edge">
<title>Node17&#45;&gt;Node19</title>
<path fill="none" stroke="midnightblue" d="M620.26,-101.8C620.26,-92.91 620.26,-82.78 620.26,-75.75"/>
<polygon fill="midnightblue" stroke="midnightblue" points="616.76,-102.08 620.26,-112.08 623.76,-102.08 616.76,-102.08"/>
</g>
<!-- Node18&#45;&gt;Node10 -->
<g id="edge25" class="edge">
<title>Node18&#45;&gt;Node10</title>
<path fill="none" stroke="midnightblue" d="M490.55,-50.9C474.6,-41 453.77,-28.07 440.21,-19.65"/>
<polygon fill="midnightblue" stroke="midnightblue" points="488.94,-54.02 499.29,-56.32 492.64,-48.08 488.94,-54.02"/>
</g>
<!-- Node20&#45;&gt;Node7 -->
<g id="edge33" class="edge">
<title>Node20&#45;&gt;Node7</title>
<path fill="none" stroke="midnightblue" d="M34.55,-163.31C14.21,-150.62 -8.77,-130.91 4.26,-112 31.05,-73.13 166.38,-35.82 232.63,-19.55"/>
<polygon fill="midnightblue" stroke="midnightblue" points="32.89,-166.39 43.28,-168.45 36.45,-160.36 32.89,-166.39"/>
</g>
<!-- Node20&#45;&gt;Node12 -->
<g id="edge32" class="edge">
<title>Node20&#45;&gt;Node12</title>
<path fill="none" stroke="midnightblue" d="M60.26,-157.8C60.26,-148.91 60.26,-138.78 60.26,-131.75"/>
<polygon fill="midnightblue" stroke="midnightblue" points="56.76,-158.08 60.26,-168.08 63.76,-158.08 56.76,-158.08"/>
</g>
</g>
</svg>
        <g id="navigator" transform="translate(0 0)" fill="#404254">
                <rect fill="#f2f5e9" fill-opacity="0.5" stroke="#606060" stroke-width=".5" x="0" y="0" width="60" height="60"/>
                <use id="zoomplus" xlink:href="#zoomPlus" x="17" y="9" onmousedown="handleZoom(evt,'in')"/>
                <use id="zoomminus" xlink:href="#zoomMin" x="42" y="9" onmousedown="handleZoom(evt,'out')"/>
                <use id="reset" xlink:href="#resetDef" x="30" y="36" onmousedown="handleReset()"/>
                <g id="arrowUp" xlink:href="#dirArrow" transform="translate(30 24)" onmousedown="handlePan(0,-1)">
                  <use xlink:href="#rim" fill="#404040">
                        <set attributeName="fill" to="#808080" begin="arrowUp.mouseover" end="arrowUp.mouseout"/>
                  </use>
                  <path fill="none" stroke="white" stroke-width="1.5" d="M0,-3.0v7 M-2.5,-0.5L0,-3.0L2.5,-0.5"/>
                </g>
                <g id="arrowRight" xlink:href="#dirArrow" transform="rotate(90) translate(36 -43)" onmousedown="handlePan(1,0)">
                  <use xlink:href="#rim" fill="#404040">
                        <set attributeName="fill" to="#808080" begin="arrowRight.mouseover" end="arrowRight.mouseout"/>
                  </use>
                  <path fill="none" stroke="white" stroke-width="1.5" d="M0,-3.0v7 M-2.5,-0.5L0,-3.0L2.5,-0.5"/>
                </g>
                <g id="arrowDown" xlink:href="#dirArrow" transform="rotate(180) translate(-30 -48)" onmousedown="handlePan(0,1)">
                  <use xlink:href="#rim" fill="#404040">
                        <set attributeName="fill" to="#808080" begin="arrowDown.mouseover" end="arrowDown.mouseout"/>
                  </use>
                  <path fill="none" stroke="white" stroke-width="1.5" d="M0,-3.0v7 M-2.5,-0.5L0,-3.0L2.5,-0.5"/>
                </g>
                <g id="arrowLeft" xlink:href="#dirArrow" transform="rotate(270) translate(-36 17)" onmousedown="handlePan(-1,0)">
                  <use xlink:href="#rim" fill="#404040">
                        <set attributeName="fill" to="#808080" begin="arrowLeft.mouseover" end="arrowLeft.mouseout"/>
                  </use>
                  <path fill="none" stroke="white" stroke-width="1.5" d="M0,-3.0v7 M-2.5,-0.5L0,-3.0L2.5,-0.5"/>
                </g>
        </g>
        <svg viewBox="0 0 15 15" width="100%" height="30px" preserveAspectRatio="xMaxYMin meet">
         <g id="arrow_out" transform="scale(0.3 0.3)">
          <a xlink:href="actuator__utils_8_h__dep__incl_org.svg" target="_base">
           <rect id="button" ry="5" rx="5" y="6" x="6" height="38" width="38"
                fill="#f2f5e9" fill-opacity="0.5" stroke="#606060" stroke-width="1.0"/>
           <path id="arrow"
             d="M 11.500037,31.436501 C 11.940474,20.09759 22.043105,11.32322 32.158766,21.979434 L 37.068811,17.246167 C 37.068811,17.246167 37.088388,32 37.088388,32 L 22.160133,31.978069 C 22.160133,31.978069 26.997745,27.140456 26.997745,27.140456 C 18.528582,18.264221 13.291696,25.230495 11.500037,31.436501 z"
             style="fill:#404040;"/>
          </a>
         </g>
        </svg>
</svg>
