<?xml version="1.0" encoding="UTF-8" standalone="no"?>
<!DOCTYPE svg PUBLIC "-//W3C//DTD SVG 1.1//EN"
 "http://www.w3.org/Graphics/SVG/1.1/DTD/svg11.dtd">
<!-- Generated by graphviz version 2.43.0 (0)
 -->
<!-- Title: actuator_utils.H Pages: 1 -->
<svg width="775pt" height="207pt"
 viewBox="0.00 0.00 775.00 207.00" xmlns="http://www.w3.org/2000/svg" xmlns:xlink="http://www.w3.org/1999/xlink">
<g id="graph0" class="graph" transform="scale(1 1) rotate(0) translate(4 203)">
<title>actuator_utils.H</title>
<polygon fill="white" stroke="transparent" points="-4,4 -4,-203 771,-203 771,4 -4,4"/>
<!-- Node1 -->
<g id="node1" class="node">
<title>Node1</title>
<g id="a_node1"><a xlink:title=" ">
<polygon fill="#bfbfbf" stroke="black" points="492,-179.5 492,-198.5 586,-198.5 586,-179.5 492,-179.5"/>
<text text-anchor="middle" x="539" y="-186.5" font-family="Helvetica,sans-Serif" font-size="10.00">actuator_utils.H</text>
</a>
</g>
</g>
<!-- Node2 -->
<g id="node2" class="node">
<title>Node2</title>
<g id="a_node2"><a xlink:href="vector_8_h.html" target="_top" xlink:title=" ">
<polygon fill="white" stroke="black" points="163.5,-118 163.5,-137 308.5,-137 308.5,-118 163.5,-118"/>
<text text-anchor="middle" x="236" y="-125" font-family="Helvetica,sans-Serif" font-size="10.00">amr&#45;wind/core/vs/vector.H</text>
</a>
</g>
</g>
<!-- Node1&#45;&gt;Node2 -->
<g id="edge1" class="edge">
<title>Node1&#45;&gt;Node2</title>
<path fill="none" stroke="midnightblue" d="M495.59,-179.48C441.14,-168.78 347.82,-150.46 289.15,-138.94"/>
<polygon fill="midnightblue" stroke="midnightblue" points="289.82,-135.5 279.33,-137.01 288.47,-142.37 289.82,-135.5"/>
</g>
<!-- Node9 -->
<g id="node9" class="node">
<title>Node9</title>
<g id="a_node9"><a xlink:title=" ">
<polygon fill="white" stroke="#bfbfbf" points="475.5,-0.5 475.5,-19.5 522.5,-19.5 522.5,-0.5 475.5,-0.5"/>
<text text-anchor="middle" x="499" y="-7.5" font-family="Helvetica,sans-Serif" font-size="10.00">cmath</text>
</a>
</g>
</g>
<!-- Node1&#45;&gt;Node9 -->
<g id="edge17" class="edge">
<title>Node1&#45;&gt;Node9</title>
<path fill="none" stroke="midnightblue" d="M544.38,-179.44C549.56,-170.68 557.01,-156.47 560,-143 562.98,-129.55 563.7,-125.27 560,-112 550.89,-79.29 528,-46.6 513,-27.61"/>
<polygon fill="midnightblue" stroke="midnightblue" points="515.58,-25.23 506.55,-19.68 510.14,-29.64 515.58,-25.23"/>
</g>
<!-- Node10 -->
<g id="node10" class="node">
<title>Node10</title>
<g id="a_node10"><a xlink:href="trig__ops_8_h.html" target="_top" xlink:title=" ">
<polygon fill="white" stroke="black" points="447.5,-112.5 447.5,-142.5 550.5,-142.5 550.5,-112.5 447.5,-112.5"/>
<text text-anchor="start" x="455.5" y="-130.5" font-family="Helvetica,sans-Serif" font-size="10.00">amr&#45;wind/utilities</text>
<text text-anchor="middle" x="499" y="-119.5" font-family="Helvetica,sans-Serif" font-size="10.00">/trig_ops.H</text>
</a>
</g>
</g>
<!-- Node1&#45;&gt;Node10 -->
<g id="edge10" class="edge">
<title>Node1&#45;&gt;Node10</title>
<path fill="none" stroke="midnightblue" d="M533.27,-179.48C528.26,-172.02 520.75,-160.85 514.04,-150.87"/>
<polygon fill="midnightblue" stroke="midnightblue" points="516.91,-148.87 508.43,-142.52 511.1,-152.77 516.91,-148.87"/>
</g>
<!-- Node11 -->
<g id="node11" class="node">
<title>Node11</title>
<g id="a_node11"><a xlink:title=" ">
<polygon fill="white" stroke="#bfbfbf" points="607,-118 607,-137 717,-137 717,-118 607,-118"/>
<text text-anchor="middle" x="662" y="-125" font-family="Helvetica,sans-Serif" font-size="10.00">AMReX_AmrCore.H</text>
</a>
</g>
</g>
<!-- Node1&#45;&gt;Node11 -->
<g id="edge14" class="edge">
<title>Node1&#45;&gt;Node11</title>
<path fill="none" stroke="midnightblue" d="M556.62,-179.48C577.17,-169.53 611.36,-152.99 635.21,-141.46"/>
<polygon fill="midnightblue" stroke="midnightblue" points="636.93,-144.51 644.41,-137.01 633.88,-138.21 636.93,-144.51"/>
</g>
<!-- Node12 -->
<g id="node12" class="node">
<title>Node12</title>
<g id="a_node12"><a xlink:href="tensor__ops_8_h.html" target="_top" xlink:title=" ">
<polygon fill="white" stroke="black" points="326.5,-112.5 326.5,-142.5 429.5,-142.5 429.5,-112.5 326.5,-112.5"/>
<text text-anchor="start" x="334.5" y="-130.5" font-family="Helvetica,sans-Serif" font-size="10.00">amr&#45;wind/utilities</text>
<text text-anchor="middle" x="378" y="-119.5" font-family="Helvetica,sans-Serif" font-size="10.00">/tensor_ops.H</text>
</a>
</g>
</g>
<!-- Node1&#45;&gt;Node12 -->
<g id="edge15" class="edge">
<title>Node1&#45;&gt;Node12</title>
<path fill="none" stroke="midnightblue" d="M515.93,-179.48C492.4,-170.78 455.19,-157.03 425.35,-146"/>
<polygon fill="midnightblue" stroke="midnightblue" points="426.54,-142.71 415.94,-142.52 424.11,-149.27 426.54,-142.71"/>
</g>
<!-- Node13 -->
<g id="node13" class="node">
<title>Node13</title>
<g id="a_node13"><a xlink:title=" ">
<polygon fill="white" stroke="#bfbfbf" points="735,-118 735,-137 767,-137 767,-118 735,-118"/>
<text text-anchor="middle" x="751" y="-125" font-family="Helvetica,sans-Serif" font-size="10.00">set</text>
</a>
</g>
</g>
<!-- Node1&#45;&gt;Node13 -->
<g id="edge18" class="edge">
<title>Node1&#45;&gt;Node13</title>
<path fill="none" stroke="midnightblue" d="M586.27,-180.54C624.79,-173.54 680.12,-161.37 726,-143 726.88,-142.65 727.76,-142.27 728.64,-141.87"/>
<polygon fill="midnightblue" stroke="midnightblue" points="730.62,-144.79 737.87,-137.07 727.38,-138.58 730.62,-144.79"/>
</g>
<!-- Node3 -->
<g id="node3" class="node">
<title>Node3</title>
<g id="a_node3"><a xlink:title=" ">
<polygon fill="white" stroke="#bfbfbf" points="337.5,-56.5 337.5,-75.5 424.5,-75.5 424.5,-56.5 337.5,-56.5"/>
<text text-anchor="middle" x="381" y="-63.5" font-family="Helvetica,sans-Serif" font-size="10.00">AMReX_Gpu.H</text>
</a>
</g>
</g>
<!-- Node2&#45;&gt;Node3 -->
<g id="edge2" class="edge">
<title>Node2&#45;&gt;Node3</title>
<path fill="none" stroke="midnightblue" d="M256.77,-117.98C281.43,-107.86 322.75,-90.9 350.9,-79.35"/>
<polygon fill="midnightblue" stroke="midnightblue" points="352.34,-82.54 360.26,-75.51 349.68,-76.07 352.34,-82.54"/>
</g>
<!-- Node4 -->
<g id="node4" class="node">
<title>Node4</title>
<g id="a_node4"><a xlink:href="vstraits_8_h.html" target="_top" xlink:title=" ">
<polygon fill="white" stroke="black" points="0,-56.5 0,-75.5 152,-75.5 152,-56.5 0,-56.5"/>
<text text-anchor="middle" x="76" y="-63.5" font-family="Helvetica,sans-Serif" font-size="10.00">amr&#45;wind/core/vs/vstraits.H</text>
</a>
</g>
</g>
<!-- Node2&#45;&gt;Node4 -->
<g id="edge3" class="edge">
<title>Node2&#45;&gt;Node4</title>
<path fill="none" stroke="midnightblue" d="M213.08,-117.98C185.63,-107.77 139.48,-90.61 108.4,-79.05"/>
<polygon fill="midnightblue" stroke="midnightblue" points="109.47,-75.71 98.88,-75.51 107.03,-82.28 109.47,-75.71"/>
</g>
<!-- Node7 -->
<g id="node7" class="node">
<title>Node7</title>
<g id="a_node7"><a xlink:href="vector_i_8_h.html" target="_top" xlink:title=" ">
<polygon fill="white" stroke="black" points="170.5,-56.5 170.5,-75.5 319.5,-75.5 319.5,-56.5 170.5,-56.5"/>
<text text-anchor="middle" x="245" y="-63.5" font-family="Helvetica,sans-Serif" font-size="10.00">amr&#45;wind/core/vs/vectorI.H</text>
</a>
</g>
</g>
<!-- Node2&#45;&gt;Node7 -->
<g id="edge6" class="edge">
<title>Node2&#45;&gt;Node7</title>
<path fill="none" stroke="midnightblue" d="M232.39,-117.98C231.82,-109.49 233.37,-96.2 235.94,-85.32"/>
<polygon fill="midnightblue" stroke="midnightblue" points="239.36,-86.09 238.82,-75.51 232.65,-84.12 239.36,-86.09"/>
</g>
<!-- Node5 -->
<g id="node5" class="node">
<title>Node5</title>
<g id="a_node5"><a xlink:title=" ">
<polygon fill="white" stroke="#bfbfbf" points="49,-0.5 49,-19.5 93,-19.5 93,-0.5 49,-0.5"/>
<text text-anchor="middle" x="71" y="-7.5" font-family="Helvetica,sans-Serif" font-size="10.00">limits</text>
</a>
</g>
</g>
<!-- Node4&#45;&gt;Node5 -->
<g id="edge4" class="edge">
<title>Node4&#45;&gt;Node5</title>
<path fill="none" stroke="midnightblue" d="M75.17,-56.08C74.52,-49.01 73.58,-38.86 72.76,-29.99"/>
<polygon fill="midnightblue" stroke="midnightblue" points="76.22,-29.39 71.81,-19.75 69.25,-30.03 76.22,-29.39"/>
</g>
<!-- Node6 -->
<g id="node6" class="node">
<title>Node6</title>
<g id="a_node6"><a xlink:title=" ">
<polygon fill="white" stroke="#bfbfbf" points="111,-0.5 111,-19.5 203,-19.5 203,-0.5 111,-0.5"/>
<text text-anchor="middle" x="157" y="-7.5" font-family="Helvetica,sans-Serif" font-size="10.00">AMReX_REAL.H</text>
</a>
</g>
</g>
<!-- Node4&#45;&gt;Node6 -->
<g id="edge5" class="edge">
<title>Node4&#45;&gt;Node6</title>
<path fill="none" stroke="midnightblue" d="M89.01,-56.32C101.53,-47.98 120.68,-35.21 135.47,-25.35"/>
<polygon fill="midnightblue" stroke="midnightblue" points="137.64,-28.11 144.02,-19.65 133.76,-22.29 137.64,-28.11"/>
</g>
<!-- Node7&#45;&gt;Node2 -->
<g id="edge9" class="edge">
<title>Node7&#45;&gt;Node2</title>
<path fill="none" stroke="midnightblue" d="M248.61,-75.51C249.18,-83.99 247.63,-97.27 245.06,-108.16"/>
<polygon fill="midnightblue" stroke="midnightblue" points="241.64,-107.39 242.19,-117.98 248.36,-109.36 241.64,-107.39"/>
</g>
<!-- Node8 -->
<g id="node8" class="node">
<title>Node8</title>
<g id="a_node8"><a xlink:title=" ">
<polygon fill="white" stroke="#bfbfbf" points="221.5,-0.5 221.5,-19.5 278.5,-19.5 278.5,-0.5 221.5,-0.5"/>
<text text-anchor="middle" x="250" y="-7.5" font-family="Helvetica,sans-Serif" font-size="10.00">ostream</text>
</a>
</g>
</g>
<!-- Node7&#45;&gt;Node8 -->
<g id="edge7" class="edge">
<title>Node7&#45;&gt;Node8</title>
<path fill="none" stroke="midnightblue" d="M245.83,-56.08C246.48,-49.01 247.42,-38.86 248.24,-29.99"/>
<polygon fill="midnightblue" stroke="midnightblue" points="251.75,-30.03 249.19,-19.75 244.78,-29.39 251.75,-30.03"/>
</g>
<!-- Node7&#45;&gt;Node9 -->
<g id="edge8" class="edge">
<title>Node7&#45;&gt;Node9</title>
<path fill="none" stroke="midnightblue" d="M285.25,-56.44C335.06,-45.85 418.97,-28.01 465.46,-18.13"/>
<polygon fill="midnightblue" stroke="midnightblue" points="466.28,-21.53 475.33,-16.03 464.82,-14.69 466.28,-21.53"/>
</g>
<!-- Node10&#45;&gt;Node3 -->
<g id="edge13" class="edge">
<title>Node10&#45;&gt;Node3</title>
<path fill="none" stroke="midnightblue" d="M471.04,-112.4C451.68,-102.64 426.09,-89.74 407.14,-80.18"/>
<polygon fill="midnightblue" stroke="midnightblue" points="408.67,-77.04 398.17,-75.66 405.52,-83.29 408.67,-77.04"/>
</g>
<!-- Node10&#45;&gt;Node6 -->
<g id="edge12" class="edge">
<title>Node10&#45;&gt;Node6</title>
<path fill="none" stroke="midnightblue" d="M490.17,-112.22C479.17,-95.78 458.78,-69.32 434,-56 348.8,-10.19 312.99,-34.38 213.38,-20.12"/>
<polygon fill="midnightblue" stroke="midnightblue" points="213.63,-16.62 203.21,-18.57 212.57,-23.54 213.63,-16.62"/>
</g>
<!-- Node10&#45;&gt;Node9 -->
<g id="edge11" class="edge">
<title>Node10&#45;&gt;Node9</title>
<path fill="none" stroke="midnightblue" d="M499,-112.34C499,-91.62 499,-53.02 499,-29.9"/>
<polygon fill="midnightblue" stroke="midnightblue" points="502.5,-29.67 499,-19.67 495.5,-29.67 502.5,-29.67"/>
</g>
<!-- Node12&#45;&gt;Node3 -->
<g id="edge16" class="edge">
<title>Node12&#45;&gt;Node3</title>
<path fill="none" stroke="midnightblue" d="M378.71,-112.4C379.11,-104.47 379.62,-94.46 380.05,-85.86"/>
<polygon fill="midnightblue" stroke="midnightblue" points="383.56,-85.82 380.56,-75.66 376.56,-85.47 383.56,-85.82"/>
</g>
</g>
</svg>
