<?xml version="1.0" encoding="UTF-8" standalone="no"?>
<!DOCTYPE svg PUBLIC "-//W3C//DTD SVG 1.1//EN"
 "http://www.w3.org/Graphics/SVG/1.1/DTD/svg11.dtd">
<!-- Generated by graphviz version 2.43.0 (0)
 -->
<!-- Title: actuator_types.H Pages: 1 -->
<!--zoomable 252 -->
<svg id="main" version="1.1" xmlns="http://www.w3.org/2000/svg" xmlns:xlink="http://www.w3.org/1999/xlink" xml:space="preserve" onload="init(evt)">
<style type="text/css"><![CDATA[
.edge:hover path { stroke: red; }
.edge:hover polygon { stroke: red; fill: red; }
]]></style>
<script type="text/javascript"><![CDATA[
var edges = document.getElementsByTagName('g');
if (edges && edges.length) {
  for (var i=0;i<edges.length;i++) {
    if (edges[i].id.substr(0,4)=='edge') {
      edges[i].setAttribute('class','edge');
    }
  }
}
]]></script>
        <defs>
                <circle id="rim" cx="0" cy="0" r="7"/>
                <circle id="rim2" cx="0" cy="0" r="3.5"/>
                <g id="zoomPlus">
                        <use xlink:href="#rim" fill="#404040">
                                <set attributeName="fill" to="#808080" begin="zoomplus.mouseover" end="zoomplus.mouseout"/>
                        </use>
                        <path d="M-4,0h8M0,-4v8" fill="none" stroke="white" stroke-width="1.5" pointer-events="none"/>
                </g>
                <g id="zoomMin">
                        <use xlink:href="#rim" fill="#404040">
                                <set attributeName="fill" to="#808080" begin="zoomminus.mouseover" end="zoomminus.mouseout"/>
                        </use>
                        <path d="M-4,0h8" fill="none" stroke="white" stroke-width="1.5" pointer-events="none"/>
                </g>
                <g id="dirArrow">
                        <path fill="none" stroke="white" stroke-width="1.5" d="M0,-3.0v7 M-2.5,-0.5L0,-3.0L2.5,-0.5"/>
                </g>
               <g id="resetDef">
                       <use xlink:href="#rim2" fill="#404040">
                               <set attributeName="fill" to="#808080" begin="reset.mouseover" end="reset.mouseout"/>
                       </use>
               </g>
        </defs>

<script type="text/javascript">
var viewWidth = 1383;
var viewHeight = 252;
var sectionId = 'dynsection-1';
</script>
<script xlink:href="svgpan.js"/>
<svg id="graph" class="graph">
<g id="viewport">
<title>actuator_types.H</title>
<polygon fill="white" stroke="transparent" points="-4,4 -4,-248 1378.5,-248 1378.5,4 -4,4"/>
<!-- Node1 -->
<g id="node1" class="node">
<title>Node1</title>
<g id="a_node1"><a xlink:title=" ">
<polygon fill="#bfbfbf" stroke="black" points="574.5,-224.5 574.5,-243.5 674.5,-243.5 674.5,-224.5 574.5,-224.5"/>
<text text-anchor="middle" x="624.5" y="-231.5" font-family="Helvetica,sans-Serif" font-size="10.00">actuator_types.H</text>
</a>
</g>
</g>
<!-- Node2 -->
<g id="node2" class="node">
<title>Node2</title>
<g id="a_node2"><a xlink:href="_act_src_line_op_8_h.html" target="_top" xlink:title=" ">
<polygon fill="white" stroke="black" points="283.5,-112.5 283.5,-131.5 375.5,-131.5 375.5,-112.5 283.5,-112.5"/>
<text text-anchor="middle" x="329.5" y="-119.5" font-family="Helvetica,sans-Serif" font-size="10.00">ActSrcLineOp.H</text>
</a>
</g>
</g>
<!-- Node1&#45;&gt;Node2 -->
<g id="edge1" class="edge">
<title>Node1&#45;&gt;Node2</title>
<path fill="none" stroke="midnightblue" d="M571,-222.34C536.53,-214.67 491.12,-203.02 452.5,-188 411.08,-171.89 365.66,-145.36 343.39,-131.71"/>
<polygon fill="midnightblue" stroke="midnightblue" points="570.35,-225.78 580.87,-224.5 571.84,-218.94 570.35,-225.78"/>
</g>
<!-- Node3 -->
<g id="node3" class="node">
<title>Node3</title>
<g id="a_node3"><a xlink:href="_actuator_model_8_h.html" target="_top" xlink:title=" ">
<polygon fill="white" stroke="black" points="354.5,-56.5 354.5,-75.5 452.5,-75.5 452.5,-56.5 354.5,-56.5"/>
<text text-anchor="middle" x="403.5" y="-63.5" font-family="Helvetica,sans-Serif" font-size="10.00">ActuatorModel.H</text>
</a>
</g>
</g>
<!-- Node1&#45;&gt;Node3 -->
<g id="edge28" class="edge">
<title>Node1&#45;&gt;Node3</title>
<path fill="none" stroke="midnightblue" d="M564.24,-228.97C450.88,-219.98 212.85,-194.02 163.5,-132 157.97,-125.04 157.82,-118.84 163.5,-112 187.26,-83.37 291.23,-72.85 354.28,-69.06"/>
<polygon fill="midnightblue" stroke="midnightblue" points="564.24,-232.48 574.48,-229.76 564.78,-225.5 564.24,-232.48"/>
</g>
<!-- Node9 -->
<g id="node9" class="node">
<title>Node9</title>
<g id="a_node9"><a xlink:href="actuator__ops_8_h.html" target="_top" xlink:title=" ">
<polygon fill="white" stroke="black" points="461.5,-168.5 461.5,-187.5 551.5,-187.5 551.5,-168.5 461.5,-168.5"/>
<text text-anchor="middle" x="506.5" y="-175.5" font-family="Helvetica,sans-Serif" font-size="10.00">actuator_ops.H</text>
</a>
</g>
</g>
<!-- Node1&#45;&gt;Node9 -->
<g id="edge8" class="edge">
<title>Node1&#45;&gt;Node9</title>
<path fill="none" stroke="midnightblue" d="M596.6,-220.23C574.53,-210.13 544.32,-196.31 525.11,-187.52"/>
<polygon fill="midnightblue" stroke="midnightblue" points="595.25,-223.46 605.8,-224.44 598.17,-217.1 595.25,-223.46"/>
</g>
<!-- Node16 -->
<g id="node16" class="node">
<title>Node16</title>
<g id="a_node16"><a xlink:href="wing__ops_8_h.html" target="_top" xlink:title=" ">
<polygon fill="white" stroke="black" points="904,-112.5 904,-131.5 977,-131.5 977,-112.5 904,-112.5"/>
<text text-anchor="middle" x="940.5" y="-119.5" font-family="Helvetica,sans-Serif" font-size="10.00">wing_ops.H</text>
</a>
</g>
</g>
<!-- Node1&#45;&gt;Node16 -->
<g id="edge58" class="edge">
<title>Node1&#45;&gt;Node16</title>
<path fill="none" stroke="midnightblue" d="M658.67,-221.1C722.79,-198.79 859.69,-151.13 915.76,-131.61"/>
<polygon fill="midnightblue" stroke="midnightblue" points="657.33,-217.87 649.03,-224.46 659.63,-224.48 657.33,-217.87"/>
</g>
<!-- Node19 -->
<g id="node19" class="node">
<title>Node19</title>
<g id="a_node19"><a xlink:href="turbine__types_8_h.html" target="_top" xlink:title=" ">
<polygon fill="white" stroke="black" points="577.5,-168.5 577.5,-187.5 671.5,-187.5 671.5,-168.5 577.5,-168.5"/>
<text text-anchor="middle" x="624.5" y="-175.5" font-family="Helvetica,sans-Serif" font-size="10.00">turbine_types.H</text>
</a>
</g>
</g>
<!-- Node1&#45;&gt;Node19 -->
<g id="edge29" class="edge">
<title>Node1&#45;&gt;Node19</title>
<path fill="none" stroke="midnightblue" d="M624.5,-213.8C624.5,-204.91 624.5,-194.78 624.5,-187.75"/>
<polygon fill="midnightblue" stroke="midnightblue" points="621,-214.08 624.5,-224.08 628,-214.08 621,-214.08"/>
</g>
<!-- Node23 -->
<g id="node23" class="node">
<title>Node23</title>
<g id="a_node23"><a xlink:href="disk__types_8_h.html" target="_top" xlink:title=" ">
<polygon fill="white" stroke="black" points="35.5,-168.5 35.5,-187.5 115.5,-187.5 115.5,-168.5 35.5,-168.5"/>
<text text-anchor="middle" x="75.5" y="-175.5" font-family="Helvetica,sans-Serif" font-size="10.00">disk_types.H</text>
</a>
</g>
</g>
<!-- Node1&#45;&gt;Node23 -->
<g id="edge37" class="edge">
<title>Node1&#45;&gt;Node23</title>
<path fill="none" stroke="midnightblue" d="M564.38,-228.99C471.07,-222.43 285.83,-208.1 129.5,-188 124.98,-187.42 120.25,-186.74 115.56,-186.02"/>
<polygon fill="midnightblue" stroke="midnightblue" points="564.26,-232.49 574.48,-229.69 564.75,-225.5 564.26,-232.49"/>
</g>
<!-- Node25 -->
<g id="node25" class="node">
<title>Node25</title>
<g id="a_node25"><a xlink:href="actuator__utils_8cpp.html" target="_top" xlink:title=" ">
<polygon fill="white" stroke="black" points="1164.5,-168.5 1164.5,-187.5 1268.5,-187.5 1268.5,-168.5 1164.5,-168.5"/>
<text text-anchor="middle" x="1216.5" y="-175.5" font-family="Helvetica,sans-Serif" font-size="10.00">actuator_utils.cpp</text>
</a>
</g>
</g>
<!-- Node1&#45;&gt;Node25 -->
<g id="edge42" class="edge">
<title>Node1&#45;&gt;Node25</title>
<path fill="none" stroke="midnightblue" d="M684.83,-229.11C783.46,-222.47 985.3,-207.75 1155.5,-188 1158.37,-187.67 1161.32,-187.3 1164.28,-186.92"/>
<polygon fill="midnightblue" stroke="midnightblue" points="684.5,-225.62 674.75,-229.78 684.96,-232.61 684.5,-225.62"/>
</g>
<!-- Node26 -->
<g id="node26" class="node">
<title>Node26</title>
<g id="a_node26"><a xlink:href="_airfoil_table_8_h.html" target="_top" xlink:title=" ">
<polygon fill="white" stroke="black" points="1064.5,-168.5 1064.5,-187.5 1146.5,-187.5 1146.5,-168.5 1064.5,-168.5"/>
<text text-anchor="middle" x="1105.5" y="-175.5" font-family="Helvetica,sans-Serif" font-size="10.00">AirfoilTable.H</text>
</a>
</g>
</g>
<!-- Node1&#45;&gt;Node26 -->
<g id="edge43" class="edge">
<title>Node1&#45;&gt;Node26</title>
<path fill="none" stroke="midnightblue" d="M684.78,-226.23C783.97,-215.1 979.08,-193.19 1064.18,-183.64"/>
<polygon fill="midnightblue" stroke="midnightblue" points="684.16,-222.78 674.61,-227.37 684.94,-229.74 684.16,-222.78"/>
</g>
<!-- Node31 -->
<g id="node31" class="node">
<title>Node31</title>
<g id="a_node31"><a xlink:href="_actuator_wing_8_h.html" target="_top" xlink:title=" ">
<polygon fill="white" stroke="black" points="914,-168.5 914,-187.5 1007,-187.5 1007,-168.5 914,-168.5"/>
<text text-anchor="middle" x="960.5" y="-175.5" font-family="Helvetica,sans-Serif" font-size="10.00">ActuatorWing.H</text>
</a>
</g>
</g>
<!-- Node1&#45;&gt;Node31 -->
<g id="edge54" class="edge">
<title>Node1&#45;&gt;Node31</title>
<path fill="none" stroke="midnightblue" d="M685.01,-223.27C750.72,-212.71 854.25,-196.08 913.92,-186.49"/>
<polygon fill="midnightblue" stroke="midnightblue" points="684.12,-219.87 674.8,-224.92 685.23,-226.78 684.12,-219.87"/>
</g>
<!-- Node2&#45;&gt;Node3 -->
<g id="edge2" class="edge">
<title>Node2&#45;&gt;Node3</title>
<path fill="none" stroke="midnightblue" d="M349.53,-106.38C362.91,-96.62 380.06,-84.11 391.39,-75.83"/>
<polygon fill="midnightblue" stroke="midnightblue" points="347.4,-103.6 341.39,-112.32 351.53,-109.26 347.4,-103.6"/>
</g>
<!-- Node4 -->
<g id="node4" class="node">
<title>Node4</title>
<g id="a_node4"><a xlink:href="_actuator_8cpp.html" target="_top" xlink:title=" ">
<polygon fill="white" stroke="black" points="365,-0.5 365,-19.5 442,-19.5 442,-0.5 365,-0.5"/>
<text text-anchor="middle" x="403.5" y="-7.5" font-family="Helvetica,sans-Serif" font-size="10.00">Actuator.cpp</text>
</a>
</g>
</g>
<!-- Node3&#45;&gt;Node4 -->
<g id="edge3" class="edge">
<title>Node3&#45;&gt;Node4</title>
<path fill="none" stroke="midnightblue" d="M403.5,-45.8C403.5,-36.91 403.5,-26.78 403.5,-19.75"/>
<polygon fill="midnightblue" stroke="midnightblue" points="400,-46.08 403.5,-56.08 407,-46.08 400,-46.08"/>
</g>
<!-- Node5 -->
<g id="node5" class="node">
<title>Node5</title>
<g id="a_node5"><a xlink:href="_actuator_disk_8cpp.html" target="_top" xlink:title=" ">
<polygon fill="white" stroke="black" points="22.5,-0.5 22.5,-19.5 122.5,-19.5 122.5,-0.5 22.5,-0.5"/>
<text text-anchor="middle" x="72.5" y="-7.5" font-family="Helvetica,sans-Serif" font-size="10.00">ActuatorDisk.cpp</text>
</a>
</g>
</g>
<!-- Node3&#45;&gt;Node5 -->
<g id="edge4" class="edge">
<title>Node3&#45;&gt;Node5</title>
<path fill="none" stroke="midnightblue" d="M344.09,-55.31C280.85,-44.99 181.9,-28.85 122.51,-19.16"/>
<polygon fill="midnightblue" stroke="midnightblue" points="343.87,-58.82 354.3,-56.97 345,-51.91 343.87,-58.82"/>
</g>
<!-- Node6 -->
<g id="node6" class="node">
<title>Node6</title>
<g id="a_node6"><a xlink:href="_turbine_fast_8cpp.html" target="_top" xlink:title=" ">
<polygon fill="white" stroke="black" points="486.5,-0.5 486.5,-19.5 578.5,-19.5 578.5,-0.5 486.5,-0.5"/>
<text text-anchor="middle" x="532.5" y="-7.5" font-family="Helvetica,sans-Serif" font-size="10.00">TurbineFast.cpp</text>
</a>
</g>
</g>
<!-- Node3&#45;&gt;Node6 -->
<g id="edge5" class="edge">
<title>Node3&#45;&gt;Node6</title>
<path fill="none" stroke="midnightblue" d="M433.35,-52.5C457.54,-42.38 490.96,-28.39 512.16,-19.52"/>
<polygon fill="midnightblue" stroke="midnightblue" points="431.81,-49.35 423.94,-56.44 434.52,-55.81 431.81,-49.35"/>
</g>
<!-- Node7 -->
<g id="node7" class="node">
<title>Node7</title>
<g id="a_node7"><a xlink:href="_fixed_wing_8cpp.html" target="_top" xlink:title=" ">
<polygon fill="white" stroke="black" points="911,-0.5 911,-19.5 998,-19.5 998,-0.5 911,-0.5"/>
<text text-anchor="middle" x="954.5" y="-7.5" font-family="Helvetica,sans-Serif" font-size="10.00">FixedWing.cpp</text>
</a>
</g>
</g>
<!-- Node3&#45;&gt;Node7 -->
<g id="edge6" class="edge">
<title>Node3&#45;&gt;Node7</title>
<path fill="none" stroke="midnightblue" d="M462.95,-59.17C574.47,-48.24 812.66,-24.9 910.83,-15.28"/>
<polygon fill="midnightblue" stroke="midnightblue" points="462.49,-55.7 452.88,-60.16 463.18,-62.67 462.49,-55.7"/>
</g>
<!-- Node8 -->
<g id="node8" class="node">
<title>Node8</title>
<g id="a_node8"><a xlink:href="_flat_plate_8cpp.html" target="_top" xlink:title=" ">
<polygon fill="white" stroke="black" points="1069.5,-0.5 1069.5,-19.5 1149.5,-19.5 1149.5,-0.5 1069.5,-0.5"/>
<text text-anchor="middle" x="1109.5" y="-7.5" font-family="Helvetica,sans-Serif" font-size="10.00">FlatPlate.cpp</text>
</a>
</g>
</g>
<!-- Node3&#45;&gt;Node8 -->
<g id="edge7" class="edge">
<title>Node3&#45;&gt;Node8</title>
<path fill="none" stroke="midnightblue" d="M462.92,-60.84C571.22,-53.21 807.99,-36.23 1007.5,-20 1027.88,-18.34 1050.53,-16.36 1069.3,-14.67"/>
<polygon fill="midnightblue" stroke="midnightblue" points="462.57,-57.36 452.84,-61.55 463.06,-64.34 462.57,-57.36"/>
</g>
<!-- Node9&#45;&gt;Node2 -->
<g id="edge9" class="edge">
<title>Node9&#45;&gt;Node2</title>
<path fill="none" stroke="midnightblue" d="M468.6,-165.44C435.22,-155.26 387.4,-140.66 357.41,-131.52"/>
<polygon fill="midnightblue" stroke="midnightblue" points="467.87,-168.87 478.45,-168.44 469.91,-162.18 467.87,-168.87"/>
</g>
<!-- Node9&#45;&gt;Node3 -->
<g id="edge10" class="edge">
<title>Node9&#45;&gt;Node3</title>
<path fill="none" stroke="midnightblue" d="M469.19,-164.6C452.77,-157.42 434.53,-146.82 422.5,-132 408.87,-115.2 405.02,-88.97 403.93,-75.55"/>
<polygon fill="midnightblue" stroke="midnightblue" points="468,-167.89 478.58,-168.43 470.65,-161.41 468,-167.89"/>
</g>
<!-- Node10 -->
<g id="node10" class="node">
<title>Node10</title>
<g id="a_node10"><a xlink:href="_act_src_disk_op___turbine_8_h.html" target="_top" xlink:title=" ">
<polygon fill="white" stroke="black" points="431.5,-112.5 431.5,-131.5 565.5,-131.5 565.5,-112.5 431.5,-112.5"/>
<text text-anchor="middle" x="498.5" y="-119.5" font-family="Helvetica,sans-Serif" font-size="10.00">ActSrcDiskOp_Turbine.H</text>
</a>
</g>
</g>
<!-- Node9&#45;&gt;Node10 -->
<g id="edge11" class="edge">
<title>Node9&#45;&gt;Node10</title>
<path fill="none" stroke="midnightblue" d="M503.7,-158.1C502.37,-149.14 500.85,-138.86 499.8,-131.75"/>
<polygon fill="midnightblue" stroke="midnightblue" points="500.25,-158.7 505.18,-168.08 507.18,-157.68 500.25,-158.7"/>
</g>
<!-- Node11 -->
<g id="node11" class="node">
<title>Node11</title>
<g id="a_node11"><a xlink:href="_act_src_disk_op_8_h.html" target="_top" xlink:title=" ">
<polygon fill="white" stroke="black" points="172,-112.5 172,-131.5 265,-131.5 265,-112.5 172,-112.5"/>
<text text-anchor="middle" x="218.5" y="-119.5" font-family="Helvetica,sans-Serif" font-size="10.00">ActSrcDiskOp.H</text>
</a>
</g>
</g>
<!-- Node9&#45;&gt;Node11 -->
<g id="edge13" class="edge">
<title>Node9&#45;&gt;Node11</title>
<path fill="none" stroke="midnightblue" d="M451.03,-166.6C396.64,-156.4 314.71,-141.04 264.03,-131.54"/>
<polygon fill="midnightblue" stroke="midnightblue" points="450.71,-170.1 461.18,-168.5 452,-163.22 450.71,-170.1"/>
</g>
<!-- Node12 -->
<g id="node12" class="node">
<title>Node12</title>
<g id="a_node12"><a xlink:href="uniform__ct__ops_8_h.html" target="_top" xlink:title=" ">
<polygon fill="white" stroke="black" points="60.5,-56.5 60.5,-75.5 162.5,-75.5 162.5,-56.5 60.5,-56.5"/>
<text text-anchor="middle" x="111.5" y="-63.5" font-family="Helvetica,sans-Serif" font-size="10.00">uniform_ct_ops.H</text>
</a>
</g>
</g>
<!-- Node9&#45;&gt;Node12 -->
<g id="edge15" class="edge">
<title>Node9&#45;&gt;Node12</title>
<path fill="none" stroke="midnightblue" d="M451.23,-174.73C367.08,-170.46 211.53,-159.07 163.5,-132 140.08,-118.8 123.24,-90.47 115.79,-75.96"/>
<polygon fill="midnightblue" stroke="midnightblue" points="451.21,-178.24 461.37,-175.23 451.56,-171.25 451.21,-178.24"/>
</g>
<!-- Node14 -->
<g id="node14" class="node">
<title>Node14</title>
<g id="a_node14"><a xlink:href="turbine__fast__ops_8_h.html" target="_top" xlink:title=" ">
<polygon fill="white" stroke="black" points="560.5,-56.5 560.5,-75.5 668.5,-75.5 668.5,-56.5 560.5,-56.5"/>
<text text-anchor="middle" x="614.5" y="-63.5" font-family="Helvetica,sans-Serif" font-size="10.00">turbine_fast_ops.H</text>
</a>
</g>
</g>
<!-- Node9&#45;&gt;Node14 -->
<g id="edge18" class="edge">
<title>Node9&#45;&gt;Node14</title>
<path fill="none" stroke="midnightblue" d="M558.81,-166.32C605.38,-156.28 667.26,-141.43 674.5,-132 691.05,-110.44 656.03,-87.62 632.84,-75.59"/>
<polygon fill="midnightblue" stroke="midnightblue" points="557.88,-162.94 548.83,-168.45 559.34,-169.78 557.88,-162.94"/>
</g>
<!-- Node15 -->
<g id="node15" class="node">
<title>Node15</title>
<g id="a_node15"><a xlink:href="fixed__wing__ops_8_h.html" target="_top" xlink:title=" ">
<polygon fill="white" stroke="black" points="904,-56.5 904,-75.5 1005,-75.5 1005,-56.5 904,-56.5"/>
<text text-anchor="middle" x="954.5" y="-63.5" font-family="Helvetica,sans-Serif" font-size="10.00">fixed_wing_ops.H</text>
</a>
</g>
</g>
<!-- Node9&#45;&gt;Node15 -->
<g id="edge20" class="edge">
<title>Node9&#45;&gt;Node15</title>
<path fill="none" stroke="midnightblue" d="M561.7,-168.98C563.99,-168.65 566.27,-168.32 568.5,-168 679.6,-151.94 711.07,-164.58 818.5,-132 821.58,-131.06 900.46,-93.08 936.65,-75.62"/>
<polygon fill="midnightblue" stroke="midnightblue" points="560.93,-165.56 551.54,-170.46 561.94,-172.49 560.93,-165.56"/>
</g>
<!-- Node9&#45;&gt;Node16 -->
<g id="edge22" class="edge">
<title>Node9&#45;&gt;Node16</title>
<path fill="none" stroke="midnightblue" d="M561.68,-168.9C563.99,-168.59 566.26,-168.29 568.5,-168 710.89,-149.69 747.41,-152.48 889.5,-132 894.13,-131.33 898.98,-130.57 903.77,-129.77"/>
<polygon fill="midnightblue" stroke="midnightblue" points="560.95,-165.46 551.51,-170.29 561.9,-172.4 560.95,-165.46"/>
</g>
<!-- Node17 -->
<g id="node17" class="node">
<title>Node17</title>
<g id="a_node17"><a xlink:href="flat__plate__ops_8_h.html" target="_top" xlink:title=" ">
<polygon fill="white" stroke="black" points="1062,-56.5 1062,-75.5 1157,-75.5 1157,-56.5 1062,-56.5"/>
<text text-anchor="middle" x="1109.5" y="-63.5" font-family="Helvetica,sans-Serif" font-size="10.00">flat_plate_ops.H</text>
</a>
</g>
</g>
<!-- Node9&#45;&gt;Node17 -->
<g id="edge27" class="edge">
<title>Node9&#45;&gt;Node17</title>
<path fill="none" stroke="midnightblue" d="M561.69,-168.94C563.99,-168.62 566.27,-168.3 568.5,-168 694.57,-150.86 730.25,-167.25 852.5,-132 872.75,-126.16 875.5,-118.66 895.5,-112 951.33,-93.42 1018.01,-80.84 1061.93,-73.81"/>
<polygon fill="midnightblue" stroke="midnightblue" points="560.94,-165.51 551.52,-170.37 561.91,-172.44 560.94,-165.51"/>
</g>
<!-- Node10&#45;&gt;Node3 -->
<g id="edge12" class="edge">
<title>Node10&#45;&gt;Node3</title>
<path fill="none" stroke="midnightblue" d="M474.18,-107.18C456.7,-97.24 433.67,-84.15 418.73,-75.65"/>
<polygon fill="midnightblue" stroke="midnightblue" points="472.81,-110.43 483.24,-112.32 476.27,-104.34 472.81,-110.43"/>
</g>
<!-- Node11&#45;&gt;Node3 -->
<g id="edge14" class="edge">
<title>Node11&#45;&gt;Node3</title>
<path fill="none" stroke="midnightblue" d="M257.67,-109.57C292.57,-99.38 342.85,-84.7 374.32,-75.52"/>
<polygon fill="midnightblue" stroke="midnightblue" points="256.43,-106.28 247.81,-112.44 258.39,-113 256.43,-106.28"/>
</g>
<!-- Node12&#45;&gt;Node5 -->
<g id="edge16" class="edge">
<title>Node12&#45;&gt;Node5</title>
<path fill="none" stroke="midnightblue" d="M99.12,-47.86C92.36,-38.5 84.29,-27.33 78.82,-19.75"/>
<polygon fill="midnightblue" stroke="midnightblue" points="96.37,-50.03 105.06,-56.08 102.04,-45.93 96.37,-50.03"/>
</g>
<!-- Node13 -->
<g id="node13" class="node">
<title>Node13</title>
<g id="a_node13"><a xlink:href="uniform__ct__ops_8cpp.html" target="_top" xlink:title=" ">
<polygon fill="white" stroke="black" points="140.5,-0.5 140.5,-19.5 252.5,-19.5 252.5,-0.5 140.5,-0.5"/>
<text text-anchor="middle" x="196.5" y="-7.5" font-family="Helvetica,sans-Serif" font-size="10.00">uniform_ct_ops.cpp</text>
</a>
</g>
</g>
<!-- Node12&#45;&gt;Node13 -->
<g id="edge17" class="edge">
<title>Node12&#45;&gt;Node13</title>
<path fill="none" stroke="midnightblue" d="M133.69,-50.9C149.28,-41 169.63,-28.07 182.88,-19.65"/>
<polygon fill="midnightblue" stroke="midnightblue" points="131.72,-48.01 125.16,-56.32 135.47,-53.92 131.72,-48.01"/>
</g>
<!-- Node14&#45;&gt;Node6 -->
<g id="edge19" class="edge">
<title>Node14&#45;&gt;Node6</title>
<path fill="none" stroke="midnightblue" d="M592.67,-50.62C577.69,-40.76 558.3,-27.99 545.64,-19.65"/>
<polygon fill="midnightblue" stroke="midnightblue" points="591.05,-53.75 601.33,-56.32 594.9,-47.9 591.05,-53.75"/>
</g>
<!-- Node15&#45;&gt;Node7 -->
<g id="edge21" class="edge">
<title>Node15&#45;&gt;Node7</title>
<path fill="none" stroke="midnightblue" d="M954.5,-45.8C954.5,-36.91 954.5,-26.78 954.5,-19.75"/>
<polygon fill="midnightblue" stroke="midnightblue" points="951,-46.08 954.5,-56.08 958,-46.08 951,-46.08"/>
</g>
<!-- Node16&#45;&gt;Node15 -->
<g id="edge23" class="edge">
<title>Node16&#45;&gt;Node15</title>
<path fill="none" stroke="midnightblue" d="M945.32,-102.4C947.67,-93.36 950.37,-82.94 952.23,-75.75"/>
<polygon fill="midnightblue" stroke="midnightblue" points="941.93,-101.52 942.81,-112.08 948.71,-103.28 941.93,-101.52"/>
</g>
<!-- Node16&#45;&gt;Node17 -->
<g id="edge24" class="edge">
<title>Node16&#45;&gt;Node17</title>
<path fill="none" stroke="midnightblue" d="M977.1,-109.3C1008.95,-99.13 1054.34,-84.62 1082.85,-75.52"/>
<polygon fill="midnightblue" stroke="midnightblue" points="975.74,-106.07 967.28,-112.44 977.87,-112.73 975.74,-106.07"/>
</g>
<!-- Node18 -->
<g id="node18" class="node">
<title>Node18</title>
<g id="a_node18"><a xlink:href="wing__ops_8cpp.html" target="_top" xlink:title=" ">
<polygon fill="white" stroke="black" points="803,-56.5 803,-75.5 886,-75.5 886,-56.5 803,-56.5"/>
<text text-anchor="middle" x="844.5" y="-63.5" font-family="Helvetica,sans-Serif" font-size="10.00">wing_ops.cpp</text>
</a>
</g>
</g>
<!-- Node16&#45;&gt;Node18 -->
<g id="edge26" class="edge">
<title>Node16&#45;&gt;Node18</title>
<path fill="none" stroke="midnightblue" d="M915.93,-107.18C898.26,-97.24 874.99,-84.15 859.89,-75.65"/>
<polygon fill="midnightblue" stroke="midnightblue" points="914.64,-110.47 925.08,-112.32 918.08,-104.37 914.64,-110.47"/>
</g>
<!-- Node17&#45;&gt;Node8 -->
<g id="edge25" class="edge">
<title>Node17&#45;&gt;Node8</title>
<path fill="none" stroke="midnightblue" d="M1109.5,-45.8C1109.5,-36.91 1109.5,-26.78 1109.5,-19.75"/>
<polygon fill="midnightblue" stroke="midnightblue" points="1106,-46.08 1109.5,-56.08 1113,-46.08 1106,-46.08"/>
</g>
<!-- Node19&#45;&gt;Node10 -->
<g id="edge30" class="edge">
<title>Node19&#45;&gt;Node10</title>
<path fill="none" stroke="midnightblue" d="M595.34,-164.5C571.72,-154.38 539.07,-140.39 518.37,-131.52"/>
<polygon fill="midnightblue" stroke="midnightblue" points="593.96,-167.72 604.53,-168.44 596.72,-161.29 593.96,-167.72"/>
</g>
<!-- Node20 -->
<g id="node20" class="node">
<title>Node20</title>
<g id="a_node20"><a xlink:href="_turbine_fast_8_h.html" target="_top" xlink:title=" ">
<polygon fill="white" stroke="black" points="583.5,-112.5 583.5,-131.5 665.5,-131.5 665.5,-112.5 583.5,-112.5"/>
<text text-anchor="middle" x="624.5" y="-119.5" font-family="Helvetica,sans-Serif" font-size="10.00">TurbineFast.H</text>
</a>
</g>
</g>
<!-- Node19&#45;&gt;Node20 -->
<g id="edge31" class="edge">
<title>Node19&#45;&gt;Node20</title>
<path fill="none" stroke="midnightblue" d="M624.5,-157.8C624.5,-148.91 624.5,-138.78 624.5,-131.75"/>
<polygon fill="midnightblue" stroke="midnightblue" points="621,-158.08 624.5,-168.08 628,-158.08 621,-158.08"/>
</g>
<!-- Node21 -->
<g id="node21" class="node">
<title>Node21</title>
<g id="a_node21"><a xlink:href="turbine__utils_8_h.html" target="_top" xlink:title=" ">
<polygon fill="white" stroke="black" points="721.5,-112.5 721.5,-131.5 809.5,-131.5 809.5,-112.5 721.5,-112.5"/>
<text text-anchor="middle" x="765.5" y="-119.5" font-family="Helvetica,sans-Serif" font-size="10.00">turbine_utils.H</text>
</a>
</g>
</g>
<!-- Node19&#45;&gt;Node21 -->
<g id="edge34" class="edge">
<title>Node19&#45;&gt;Node21</title>
<path fill="none" stroke="midnightblue" d="M656.43,-164.77C682.91,-154.63 719.89,-140.47 743.26,-131.52"/>
<polygon fill="midnightblue" stroke="midnightblue" points="654.93,-161.6 646.84,-168.44 657.43,-168.14 654.93,-161.6"/>
</g>
<!-- Node20&#45;&gt;Node6 -->
<g id="edge33" class="edge">
<title>Node20&#45;&gt;Node6</title>
<path fill="none" stroke="midnightblue" d="M593.06,-108.07C578.53,-100.65 562.16,-89.99 551.5,-76 538.53,-58.98 534.4,-33.31 533.09,-19.89"/>
<polygon fill="midnightblue" stroke="midnightblue" points="591.74,-111.32 602.27,-112.49 594.77,-105.01 591.74,-111.32"/>
</g>
<!-- Node20&#45;&gt;Node14 -->
<g id="edge32" class="edge">
<title>Node20&#45;&gt;Node14</title>
<path fill="none" stroke="midnightblue" d="M621,-102.1C619.34,-93.14 617.44,-82.86 616.12,-75.75"/>
<polygon fill="midnightblue" stroke="midnightblue" points="617.59,-102.89 622.85,-112.08 624.47,-101.61 617.59,-102.89"/>
</g>
<!-- Node21&#45;&gt;Node14 -->
<g id="edge35" class="edge">
<title>Node21&#45;&gt;Node14</title>
<path fill="none" stroke="midnightblue" d="M732.05,-109.04C703.64,-98.88 663.56,-84.55 638.31,-75.52"/>
<polygon fill="midnightblue" stroke="midnightblue" points="730.98,-112.37 741.57,-112.44 733.34,-105.78 730.98,-112.37"/>
</g>
<!-- Node22 -->
<g id="node22" class="node">
<title>Node22</title>
<g id="a_node22"><a xlink:href="turbine__utils_8cpp.html" target="_top" xlink:title=" ">
<polygon fill="white" stroke="black" points="686.5,-56.5 686.5,-75.5 784.5,-75.5 784.5,-56.5 686.5,-56.5"/>
<text text-anchor="middle" x="735.5" y="-63.5" font-family="Helvetica,sans-Serif" font-size="10.00">turbine_utils.cpp</text>
</a>
</g>
</g>
<!-- Node21&#45;&gt;Node22 -->
<g id="edge36" class="edge">
<title>Node21&#45;&gt;Node22</title>
<path fill="none" stroke="midnightblue" d="M755.65,-103.27C750.53,-94.05 744.48,-83.17 740.36,-75.75"/>
<polygon fill="midnightblue" stroke="midnightblue" points="752.63,-105.04 760.55,-112.08 758.75,-101.64 752.63,-105.04"/>
</g>
<!-- Node23&#45;&gt;Node11 -->
<g id="edge38" class="edge">
<title>Node23&#45;&gt;Node11</title>
<path fill="none" stroke="midnightblue" d="M107.53,-164.91C134.41,-154.75 172.14,-140.51 195.95,-131.52"/>
<polygon fill="midnightblue" stroke="midnightblue" points="106.28,-161.64 98.16,-168.44 108.75,-168.19 106.28,-161.64"/>
</g>
<!-- Node24 -->
<g id="node24" class="node">
<title>Node24</title>
<g id="a_node24"><a xlink:href="_uniform_ct_8_h.html" target="_top" xlink:title=" ">
<polygon fill="white" stroke="black" points="0,-112.5 0,-131.5 77,-131.5 77,-112.5 0,-112.5"/>
<text text-anchor="middle" x="38.5" y="-119.5" font-family="Helvetica,sans-Serif" font-size="10.00">UniformCt.H</text>
</a>
</g>
</g>
<!-- Node23&#45;&gt;Node24 -->
<g id="edge39" class="edge">
<title>Node23&#45;&gt;Node24</title>
<path fill="none" stroke="midnightblue" d="M63.55,-159.57C57.19,-150.27 49.63,-139.25 44.5,-131.75"/>
<polygon fill="midnightblue" stroke="midnightblue" points="60.85,-161.81 69.39,-168.08 66.63,-157.86 60.85,-161.81"/>
</g>
<!-- Node24&#45;&gt;Node5 -->
<g id="edge40" class="edge">
<title>Node24&#45;&gt;Node5</title>
<path fill="none" stroke="midnightblue" d="M41.03,-102.27C43.1,-89.11 46.51,-71.22 51.5,-56 55.8,-42.89 62.93,-28.59 67.67,-19.71"/>
<polygon fill="midnightblue" stroke="midnightblue" points="37.53,-102.02 39.55,-112.42 44.46,-103.03 37.53,-102.02"/>
</g>
<!-- Node24&#45;&gt;Node12 -->
<g id="edge41" class="edge">
<title>Node24&#45;&gt;Node12</title>
<path fill="none" stroke="midnightblue" d="M58.64,-106.1C71.78,-96.38 88.48,-84.03 99.56,-75.83"/>
<polygon fill="midnightblue" stroke="midnightblue" points="56.19,-103.56 50.23,-112.32 60.35,-109.19 56.19,-103.56"/>
</g>
<!-- Node26&#45;&gt;Node16 -->
<g id="edge50" class="edge">
<title>Node26&#45;&gt;Node16</title>
<path fill="none" stroke="midnightblue" d="M1069.76,-165.3C1038.67,-155.13 994.35,-140.62 966.52,-131.52"/>
<polygon fill="midnightblue" stroke="midnightblue" points="1068.76,-168.66 1079.36,-168.44 1070.94,-162.01 1068.76,-168.66"/>
</g>
<!-- Node27 -->
<g id="node27" class="node">
<title>Node27</title>
<g id="a_node27"><a xlink:href="_airfoil_table_8cpp.html" target="_top" xlink:title=" ">
<polygon fill="white" stroke="black" points="1282.5,-112.5 1282.5,-131.5 1374.5,-131.5 1374.5,-112.5 1282.5,-112.5"/>
<text text-anchor="middle" x="1328.5" y="-119.5" font-family="Helvetica,sans-Serif" font-size="10.00">AirfoilTable.cpp</text>
</a>
</g>
</g>
<!-- Node26&#45;&gt;Node27 -->
<g id="edge44" class="edge">
<title>Node26&#45;&gt;Node27</title>
<path fill="none" stroke="midnightblue" d="M1150.56,-166.09C1192.69,-155.89 1254.74,-140.86 1293.33,-131.52"/>
<polygon fill="midnightblue" stroke="midnightblue" points="1149.73,-162.69 1140.84,-168.44 1151.38,-169.49 1149.73,-162.69"/>
</g>
<!-- Node28 -->
<g id="node28" class="node">
<title>Node28</title>
<g id="a_node28"><a xlink:href="_airfoil_table_i_8_h.html" target="_top" xlink:title=" ">
<polygon fill="white" stroke="black" points="1179,-112.5 1179,-131.5 1264,-131.5 1264,-112.5 1179,-112.5"/>
<text text-anchor="middle" x="1221.5" y="-119.5" font-family="Helvetica,sans-Serif" font-size="10.00">AirfoilTableI.H</text>
</a>
</g>
</g>
<!-- Node26&#45;&gt;Node28 -->
<g id="edge45" class="edge">
<title>Node26&#45;&gt;Node28</title>
<path fill="none" stroke="midnightblue" d="M1128.11,-163.73C1148.24,-153.73 1177.34,-140.31 1197.8,-131.65"/>
<polygon fill="midnightblue" stroke="midnightblue" points="1126.36,-160.69 1119.02,-168.32 1129.53,-166.93 1126.36,-160.69"/>
</g>
<!-- Node29 -->
<g id="node29" class="node">
<title>Node29</title>
<g id="a_node29"><a xlink:href="_fixed_wing_8_h.html" target="_top" xlink:title=" ">
<polygon fill="white" stroke="black" points="995,-112.5 995,-131.5 1072,-131.5 1072,-112.5 995,-112.5"/>
<text text-anchor="middle" x="1033.5" y="-119.5" font-family="Helvetica,sans-Serif" font-size="10.00">FixedWing.H</text>
</a>
</g>
</g>
<!-- Node26&#45;&gt;Node29 -->
<g id="edge47" class="edge">
<title>Node26&#45;&gt;Node29</title>
<path fill="none" stroke="midnightblue" d="M1085.63,-162.1C1072.68,-152.38 1056.2,-140.03 1045.28,-131.83"/>
<polygon fill="midnightblue" stroke="midnightblue" points="1083.83,-165.12 1093.93,-168.32 1088.03,-159.52 1083.83,-165.12"/>
</g>
<!-- Node30 -->
<g id="node30" class="node">
<title>Node30</title>
<g id="a_node30"><a xlink:href="_flat_plate_8_h.html" target="_top" xlink:title=" ">
<polygon fill="white" stroke="black" points="1090,-112.5 1090,-131.5 1161,-131.5 1161,-112.5 1090,-112.5"/>
<text text-anchor="middle" x="1125.5" y="-119.5" font-family="Helvetica,sans-Serif" font-size="10.00">FlatPlate.H</text>
</a>
</g>
</g>
<!-- Node26&#45;&gt;Node30 -->
<g id="edge51" class="edge">
<title>Node26&#45;&gt;Node30</title>
<path fill="none" stroke="midnightblue" d="M1112.28,-158.69C1115.65,-149.59 1119.57,-139.01 1122.26,-131.75"/>
<polygon fill="midnightblue" stroke="midnightblue" points="1108.99,-157.49 1108.8,-168.08 1115.56,-159.92 1108.99,-157.49"/>
</g>
<!-- Node28&#45;&gt;Node26 -->
<g id="edge46" class="edge">
<title>Node28&#45;&gt;Node26</title>
<path fill="none" stroke="midnightblue" d="M1199.18,-136.13C1178.96,-146.18 1149.54,-159.75 1128.97,-168.44"/>
<polygon fill="midnightblue" stroke="midnightblue" points="1200.95,-139.16 1208.29,-131.52 1197.78,-132.91 1200.95,-139.16"/>
</g>
<!-- Node29&#45;&gt;Node7 -->
<g id="edge49" class="edge">
<title>Node29&#45;&gt;Node7</title>
<path fill="none" stroke="midnightblue" d="M1031.22,-102.03C1028.83,-88.27 1024.02,-69.74 1014.5,-56 1003.45,-40.05 984.94,-27.42 971.39,-19.65"/>
<polygon fill="midnightblue" stroke="midnightblue" points="1027.8,-102.87 1032.71,-112.26 1034.73,-101.85 1027.8,-102.87"/>
</g>
<!-- Node29&#45;&gt;Node15 -->
<g id="edge48" class="edge">
<title>Node29&#45;&gt;Node15</title>
<path fill="none" stroke="midnightblue" d="M1012.47,-106.62C998.03,-96.76 979.36,-83.99 967.16,-75.65"/>
<polygon fill="midnightblue" stroke="midnightblue" points="1010.58,-109.57 1020.81,-112.32 1014.53,-103.79 1010.58,-109.57"/>
</g>
<!-- Node30&#45;&gt;Node8 -->
<g id="edge53" class="edge">
<title>Node30&#45;&gt;Node8</title>
<path fill="none" stroke="midnightblue" d="M1145.44,-105.89C1159.79,-93.06 1175.19,-73.93 1166.5,-56 1158.47,-39.43 1141.06,-27.13 1127.58,-19.61"/>
<polygon fill="midnightblue" stroke="midnightblue" points="1143.18,-103.22 1137.75,-112.32 1147.66,-108.6 1143.18,-103.22"/>
</g>
<!-- Node30&#45;&gt;Node17 -->
<g id="edge52" class="edge">
<title>Node30&#45;&gt;Node17</title>
<path fill="none" stroke="midnightblue" d="M1119.99,-102.4C1117.31,-93.36 1114.22,-82.94 1112.09,-75.75"/>
<polygon fill="midnightblue" stroke="midnightblue" points="1116.66,-103.49 1122.86,-112.08 1123.37,-101.5 1116.66,-103.49"/>
</g>
<!-- Node31&#45;&gt;Node16 -->
<g id="edge56" class="edge">
<title>Node31&#45;&gt;Node16</title>
<path fill="none" stroke="midnightblue" d="M953.72,-158.69C950.35,-149.59 946.43,-139.01 943.74,-131.75"/>
<polygon fill="midnightblue" stroke="midnightblue" points="950.44,-159.92 957.2,-168.08 957.01,-157.49 950.44,-159.92"/>
</g>
<!-- Node31&#45;&gt;Node29 -->
<g id="edge55" class="edge">
<title>Node31&#45;&gt;Node29</title>
<path fill="none" stroke="midnightblue" d="M980.64,-162.1C993.78,-152.38 1010.48,-140.03 1021.56,-131.83"/>
<polygon fill="midnightblue" stroke="midnightblue" points="978.19,-159.56 972.23,-168.32 982.35,-165.19 978.19,-159.56"/>
</g>
<!-- Node31&#45;&gt;Node30 -->
<g id="edge57" class="edge">
<title>Node31&#45;&gt;Node30</title>
<path fill="none" stroke="midnightblue" d="M996.24,-165.3C1027.33,-155.13 1071.65,-140.62 1099.48,-131.52"/>
<polygon fill="midnightblue" stroke="midnightblue" points="995.06,-162.01 986.64,-168.44 997.24,-168.66 995.06,-162.01"/>
</g>
</g>
</svg>
        <g id="navigator" transform="translate(0 0)" fill="#404254">
                <rect fill="#f2f5e9" fill-opacity="0.5" stroke="#606060" stroke-width=".5" x="0" y="0" width="60" height="60"/>
                <use id="zoomplus" xlink:href="#zoomPlus" x="17" y="9" onmousedown="handleZoom(evt,'in')"/>
                <use id="zoomminus" xlink:href="#zoomMin" x="42" y="9" onmousedown="handleZoom(evt,'out')"/>
                <use id="reset" xlink:href="#resetDef" x="30" y="36" onmousedown="handleReset()"/>
                <g id="arrowUp" xlink:href="#dirArrow" transform="translate(30 24)" onmousedown="handlePan(0,-1)">
                  <use xlink:href="#rim" fill="#404040">
                        <set attributeName="fill" to="#808080" begin="arrowUp.mouseover" end="arrowUp.mouseout"/>
                  </use>
                  <path fill="none" stroke="white" stroke-width="1.5" d="M0,-3.0v7 M-2.5,-0.5L0,-3.0L2.5,-0.5"/>
                </g>
                <g id="arrowRight" xlink:href="#dirArrow" transform="rotate(90) translate(36 -43)" onmousedown="handlePan(1,0)">
                  <use xlink:href="#rim" fill="#404040">
                        <set attributeName="fill" to="#808080" begin="arrowRight.mouseover" end="arrowRight.mouseout"/>
                  </use>
                  <path fill="none" stroke="white" stroke-width="1.5" d="M0,-3.0v7 M-2.5,-0.5L0,-3.0L2.5,-0.5"/>
                </g>
                <g id="arrowDown" xlink:href="#dirArrow" transform="rotate(180) translate(-30 -48)" onmousedown="handlePan(0,1)">
                  <use xlink:href="#rim" fill="#404040">
                        <set attributeName="fill" to="#808080" begin="arrowDown.mouseover" end="arrowDown.mouseout"/>
                  </use>
                  <path fill="none" stroke="white" stroke-width="1.5" d="M0,-3.0v7 M-2.5,-0.5L0,-3.0L2.5,-0.5"/>
                </g>
                <g id="arrowLeft" xlink:href="#dirArrow" transform="rotate(270) translate(-36 17)" onmousedown="handlePan(-1,0)">
                  <use xlink:href="#rim" fill="#404040">
                        <set attributeName="fill" to="#808080" begin="arrowLeft.mouseover" end="arrowLeft.mouseout"/>
                  </use>
                  <path fill="none" stroke="white" stroke-width="1.5" d="M0,-3.0v7 M-2.5,-0.5L0,-3.0L2.5,-0.5"/>
                </g>
        </g>
        <svg viewBox="0 0 15 15" width="100%" height="30px" preserveAspectRatio="xMaxYMin meet">
         <g id="arrow_out" transform="scale(0.3 0.3)">
          <a xlink:href="actuator__types_8_h__dep__incl_org.svg" target="_base">
           <rect id="button" ry="5" rx="5" y="6" x="6" height="38" width="38"
                fill="#f2f5e9" fill-opacity="0.5" stroke="#606060" stroke-width="1.0"/>
           <path id="arrow"
             d="M 11.500037,31.436501 C 11.940474,20.09759 22.043105,11.32322 32.158766,21.979434 L 37.068811,17.246167 C 37.068811,17.246167 37.088388,32 37.088388,32 L 22.160133,31.978069 C 22.160133,31.978069 26.997745,27.140456 26.997745,27.140456 C 18.528582,18.264221 13.291696,25.230495 11.500037,31.436501 z"
             style="fill:#404040;"/>
          </a>
         </g>
        </svg>
</svg>
