<?xml version="1.0" encoding="UTF-8" standalone="no"?>
<!DOCTYPE svg PUBLIC "-//W3C//DTD SVG 1.1//EN"
 "http://www.w3.org/Graphics/SVG/1.1/DTD/svg11.dtd">
<!-- Generated by graphviz version 2.43.0 (0)
 -->
<!-- Title: actuator_utils.cpp Pages: 1 -->
<!--zoomable 408 -->
<svg id="main" version="1.1" xmlns="http://www.w3.org/2000/svg" xmlns:xlink="http://www.w3.org/1999/xlink" xml:space="preserve" onload="init(evt)">
<style type="text/css"><![CDATA[
.edge:hover path { stroke: red; }
.edge:hover polygon { stroke: red; fill: red; }
]]></style>
<script type="text/javascript"><![CDATA[
var edges = document.getElementsByTagName('g');
if (edges && edges.length) {
  for (var i=0;i<edges.length;i++) {
    if (edges[i].id.substr(0,4)=='edge') {
      edges[i].setAttribute('class','edge');
    }
  }
}
]]></script>
        <defs>
                <circle id="rim" cx="0" cy="0" r="7"/>
                <circle id="rim2" cx="0" cy="0" r="3.5"/>
                <g id="zoomPlus">
                        <use xlink:href="#rim" fill="#404040">
                                <set attributeName="fill" to="#808080" begin="zoomplus.mouseover" end="zoomplus.mouseout"/>
                        </use>
                        <path d="M-4,0h8M0,-4v8" fill="none" stroke="white" stroke-width="1.5" pointer-events="none"/>
                </g>
                <g id="zoomMin">
                        <use xlink:href="#rim" fill="#404040">
                                <set attributeName="fill" to="#808080" begin="zoomminus.mouseover" end="zoomminus.mouseout"/>
                        </use>
                        <path d="M-4,0h8" fill="none" stroke="white" stroke-width="1.5" pointer-events="none"/>
                </g>
                <g id="dirArrow">
                        <path fill="none" stroke="white" stroke-width="1.5" d="M0,-3.0v7 M-2.5,-0.5L0,-3.0L2.5,-0.5"/>
                </g>
               <g id="resetDef">
                       <use xlink:href="#rim2" fill="#404040">
                               <set attributeName="fill" to="#808080" begin="reset.mouseover" end="reset.mouseout"/>
                       </use>
               </g>
        </defs>

<script type="text/javascript">
var viewWidth = 820;
var viewHeight = 408;
var sectionId = 'dynsection-0';
</script>
<script xlink:href="svgpan.js"/>
<svg id="graph" class="graph">
<g id="viewport">
<title>actuator_utils.cpp</title>
<polygon fill="white" stroke="transparent" points="-4,4 -4,-404 816,-404 816,4 -4,4"/>
<!-- Node1 -->
<g id="node1" class="node">
<title>Node1</title>
<g id="a_node1"><a xlink:title=" ">
<polygon fill="#bfbfbf" stroke="black" points="179,-380.5 179,-399.5 283,-399.5 283,-380.5 179,-380.5"/>
<text text-anchor="middle" x="231" y="-387.5" font-family="Helvetica,sans-Serif" font-size="10.00">actuator_utils.cpp</text>
</a>
</g>
</g>
<!-- Node2 -->
<g id="node2" class="node">
<title>Node2</title>
<g id="a_node2"><a xlink:href="actuator__utils_8_h.html" target="_top" xlink:title=" ">
<polygon fill="white" stroke="black" points="89,-179.5 89,-209.5 229,-209.5 229,-179.5 89,-179.5"/>
<text text-anchor="start" x="97" y="-197.5" font-family="Helvetica,sans-Serif" font-size="10.00">amr&#45;wind/wind_energy</text>
<text text-anchor="middle" x="159" y="-186.5" font-family="Helvetica,sans-Serif" font-size="10.00">/actuator/actuator_utils.H</text>
</a>
</g>
</g>
<!-- Node1&#45;&gt;Node2 -->
<g id="edge1" class="edge">
<title>Node1&#45;&gt;Node2</title>
<path fill="none" stroke="midnightblue" d="M227.81,-380.44C217.36,-352.34 183.85,-262.27 167.77,-219.06"/>
<polygon fill="midnightblue" stroke="midnightblue" points="171.03,-217.78 164.26,-209.63 164.46,-220.22 171.03,-217.78"/>
</g>
<!-- Node15 -->
<g id="node15" class="node">
<title>Node15</title>
<g id="a_node15"><a xlink:href="actuator__types_8_h.html" target="_top" xlink:title=" ">
<polygon fill="white" stroke="black" points="252,-313.5 252,-343.5 398,-343.5 398,-313.5 252,-313.5"/>
<text text-anchor="start" x="260" y="-331.5" font-family="Helvetica,sans-Serif" font-size="10.00">amr&#45;wind/wind_energy</text>
<text text-anchor="middle" x="325" y="-320.5" font-family="Helvetica,sans-Serif" font-size="10.00">/actuator/actuator_types.H</text>
</a>
</g>
</g>
<!-- Node1&#45;&gt;Node15 -->
<g id="edge20" class="edge">
<title>Node1&#45;&gt;Node15</title>
<path fill="none" stroke="midnightblue" d="M244.47,-380.48C257.44,-372.27 277.51,-359.56 294.38,-348.88"/>
<polygon fill="midnightblue" stroke="midnightblue" points="296.27,-351.83 302.85,-343.52 292.52,-345.91 296.27,-351.83"/>
</g>
<!-- Node3 -->
<g id="node3" class="node">
<title>Node3</title>
<g id="a_node3"><a xlink:href="vector_8_h.html" target="_top" xlink:title=" ">
<polygon fill="white" stroke="black" points="562.5,-123.5 562.5,-142.5 707.5,-142.5 707.5,-123.5 562.5,-123.5"/>
<text text-anchor="middle" x="635" y="-130.5" font-family="Helvetica,sans-Serif" font-size="10.00">amr&#45;wind/core/vs/vector.H</text>
</a>
</g>
</g>
<!-- Node2&#45;&gt;Node3 -->
<g id="edge2" class="edge">
<title>Node2&#45;&gt;Node3</title>
<path fill="none" stroke="midnightblue" d="M229.24,-184.72C316.73,-173.78 465.76,-155.15 556.8,-143.77"/>
<polygon fill="midnightblue" stroke="midnightblue" points="557.3,-147.24 566.79,-142.53 556.44,-140.29 557.3,-147.24"/>
</g>
<!-- Node10 -->
<g id="node10" class="node">
<title>Node10</title>
<g id="a_node10"><a xlink:title=" ">
<polygon fill="white" stroke="#bfbfbf" points="361.5,-0.5 361.5,-19.5 408.5,-19.5 408.5,-0.5 361.5,-0.5"/>
<text text-anchor="middle" x="385" y="-7.5" font-family="Helvetica,sans-Serif" font-size="10.00">cmath</text>
</a>
</g>
</g>
<!-- Node2&#45;&gt;Node10 -->
<g id="edge18" class="edge">
<title>Node2&#45;&gt;Node10</title>
<path fill="none" stroke="midnightblue" d="M177.35,-179.32C190.23,-169.29 207.79,-155.48 223,-143 269.06,-105.21 278.48,-93.23 325,-56 337.96,-45.63 352.9,-34.42 364.62,-25.79"/>
<polygon fill="midnightblue" stroke="midnightblue" points="366.88,-28.48 372.88,-19.75 362.74,-22.83 366.88,-28.48"/>
</g>
<!-- Node11 -->
<g id="node11" class="node">
<title>Node11</title>
<g id="a_node11"><a xlink:href="trig__ops_8_h.html" target="_top" xlink:title=" ">
<polygon fill="white" stroke="black" points="333.5,-56.5 333.5,-86.5 436.5,-86.5 436.5,-56.5 333.5,-56.5"/>
<text text-anchor="start" x="341.5" y="-74.5" font-family="Helvetica,sans-Serif" font-size="10.00">amr&#45;wind/utilities</text>
<text text-anchor="middle" x="385" y="-63.5" font-family="Helvetica,sans-Serif" font-size="10.00">/trig_ops.H</text>
</a>
</g>
</g>
<!-- Node2&#45;&gt;Node11 -->
<g id="edge11" class="edge">
<title>Node2&#45;&gt;Node11</title>
<path fill="none" stroke="midnightblue" d="M186.25,-179.5C205.74,-169.44 232.55,-155.51 256,-143 288.09,-125.88 324.42,-105.98 350.34,-91.69"/>
<polygon fill="midnightblue" stroke="midnightblue" points="352.32,-94.59 359.38,-86.7 348.94,-88.47 352.32,-94.59"/>
</g>
<!-- Node12 -->
<g id="node12" class="node">
<title>Node12</title>
<g id="a_node12"><a xlink:title=" ">
<polygon fill="white" stroke="#bfbfbf" points="104,-123.5 104,-142.5 214,-142.5 214,-123.5 104,-123.5"/>
<text text-anchor="middle" x="159" y="-130.5" font-family="Helvetica,sans-Serif" font-size="10.00">AMReX_AmrCore.H</text>
</a>
</g>
</g>
<!-- Node2&#45;&gt;Node12 -->
<g id="edge15" class="edge">
<title>Node2&#45;&gt;Node12</title>
<path fill="none" stroke="midnightblue" d="M159,-179.4C159,-171.47 159,-161.46 159,-152.86"/>
<polygon fill="midnightblue" stroke="midnightblue" points="162.5,-152.66 159,-142.66 155.5,-152.66 162.5,-152.66"/>
</g>
<!-- Node13 -->
<g id="node13" class="node">
<title>Node13</title>
<g id="a_node13"><a xlink:href="tensor__ops_8_h.html" target="_top" xlink:title=" ">
<polygon fill="white" stroke="black" points="75.5,-56.5 75.5,-86.5 178.5,-86.5 178.5,-56.5 75.5,-56.5"/>
<text text-anchor="start" x="83.5" y="-74.5" font-family="Helvetica,sans-Serif" font-size="10.00">amr&#45;wind/utilities</text>
<text text-anchor="middle" x="127" y="-63.5" font-family="Helvetica,sans-Serif" font-size="10.00">/tensor_ops.H</text>
</a>
</g>
</g>
<!-- Node2&#45;&gt;Node13 -->
<g id="edge16" class="edge">
<title>Node2&#45;&gt;Node13</title>
<path fill="none" stroke="midnightblue" d="M131.28,-179.46C117.66,-170.94 102.59,-158.67 95,-143 87.23,-126.97 96.08,-108.65 106.42,-94.7"/>
<polygon fill="midnightblue" stroke="midnightblue" points="109.37,-96.62 112.92,-86.64 103.92,-92.23 109.37,-96.62"/>
</g>
<!-- Node14 -->
<g id="node14" class="node">
<title>Node14</title>
<g id="a_node14"><a xlink:title=" ">
<polygon fill="white" stroke="#bfbfbf" points="308,-123.5 308,-142.5 340,-142.5 340,-123.5 308,-123.5"/>
<text text-anchor="middle" x="324" y="-130.5" font-family="Helvetica,sans-Serif" font-size="10.00">set</text>
</a>
</g>
</g>
<!-- Node2&#45;&gt;Node14 -->
<g id="edge19" class="edge">
<title>Node2&#45;&gt;Node14</title>
<path fill="none" stroke="midnightblue" d="M198.1,-179.4C229.03,-168.25 271.33,-152.99 298.17,-143.32"/>
<polygon fill="midnightblue" stroke="midnightblue" points="299.42,-146.59 307.64,-139.9 297.04,-140 299.42,-146.59"/>
</g>
<!-- Node4 -->
<g id="node4" class="node">
<title>Node4</title>
<g id="a_node4"><a xlink:title=" ">
<polygon fill="white" stroke="#bfbfbf" points="125.5,-0.5 125.5,-19.5 212.5,-19.5 212.5,-0.5 125.5,-0.5"/>
<text text-anchor="middle" x="169" y="-7.5" font-family="Helvetica,sans-Serif" font-size="10.00">AMReX_Gpu.H</text>
</a>
</g>
</g>
<!-- Node3&#45;&gt;Node4 -->
<g id="edge3" class="edge">
<title>Node3&#45;&gt;Node4</title>
<path fill="none" stroke="midnightblue" d="M568.72,-123.49C484.64,-112.51 347.77,-94.01 325,-87 275.12,-71.64 221.3,-42.26 191.73,-24.87"/>
<polygon fill="midnightblue" stroke="midnightblue" points="193.39,-21.79 183.01,-19.68 189.81,-27.81 193.39,-21.79"/>
</g>
<!-- Node5 -->
<g id="node5" class="node">
<title>Node5</title>
<g id="a_node5"><a xlink:href="vstraits_8_h.html" target="_top" xlink:title=" ">
<polygon fill="white" stroke="black" points="660,-62 660,-81 812,-81 812,-62 660,-62"/>
<text text-anchor="middle" x="736" y="-69" font-family="Helvetica,sans-Serif" font-size="10.00">amr&#45;wind/core/vs/vstraits.H</text>
</a>
</g>
</g>
<!-- Node3&#45;&gt;Node5 -->
<g id="edge4" class="edge">
<title>Node3&#45;&gt;Node5</title>
<path fill="none" stroke="midnightblue" d="M649.47,-123.48C665.97,-113.75 693.18,-97.73 712.68,-86.24"/>
<polygon fill="midnightblue" stroke="midnightblue" points="714.72,-89.1 721.56,-81.01 711.16,-83.07 714.72,-89.1"/>
</g>
<!-- Node8 -->
<g id="node8" class="node">
<title>Node8</title>
<g id="a_node8"><a xlink:href="vector_i_8_h.html" target="_top" xlink:title=" ">
<polygon fill="white" stroke="black" points="492.5,-62 492.5,-81 641.5,-81 641.5,-62 492.5,-62"/>
<text text-anchor="middle" x="567" y="-69" font-family="Helvetica,sans-Serif" font-size="10.00">amr&#45;wind/core/vs/vectorI.H</text>
</a>
</g>
</g>
<!-- Node3&#45;&gt;Node8 -->
<g id="edge7" class="edge">
<title>Node3&#45;&gt;Node8</title>
<path fill="none" stroke="midnightblue" d="M620.36,-123.48C607.85,-114.28 590.53,-99.46 578.87,-88.16"/>
<polygon fill="midnightblue" stroke="midnightblue" points="581.34,-85.68 571.83,-81.01 576.35,-90.59 581.34,-85.68"/>
</g>
<!-- Node6 -->
<g id="node6" class="node">
<title>Node6</title>
<g id="a_node6"><a xlink:title=" ">
<polygon fill="white" stroke="#bfbfbf" points="714,-0.5 714,-19.5 758,-19.5 758,-0.5 714,-0.5"/>
<text text-anchor="middle" x="736" y="-7.5" font-family="Helvetica,sans-Serif" font-size="10.00">limits</text>
</a>
</g>
</g>
<!-- Node5&#45;&gt;Node6 -->
<g id="edge5" class="edge">
<title>Node5&#45;&gt;Node6</title>
<path fill="none" stroke="midnightblue" d="M736,-61.98C736,-53.58 736,-40.48 736,-29.66"/>
<polygon fill="midnightblue" stroke="midnightblue" points="739.5,-29.51 736,-19.51 732.5,-29.51 739.5,-29.51"/>
</g>
<!-- Node7 -->
<g id="node7" class="node">
<title>Node7</title>
<g id="a_node7"><a xlink:title=" ">
<polygon fill="white" stroke="#bfbfbf" points="428,-0.5 428,-19.5 520,-19.5 520,-0.5 428,-0.5"/>
<text text-anchor="middle" x="474" y="-7.5" font-family="Helvetica,sans-Serif" font-size="10.00">AMReX_REAL.H</text>
</a>
</g>
</g>
<!-- Node5&#45;&gt;Node7 -->
<g id="edge6" class="edge">
<title>Node5&#45;&gt;Node7</title>
<path fill="none" stroke="midnightblue" d="M698.46,-61.98C651.77,-51.37 572.02,-33.26 521.22,-21.72"/>
<polygon fill="midnightblue" stroke="midnightblue" points="522,-18.31 511.47,-19.51 520.45,-25.14 522,-18.31"/>
</g>
<!-- Node8&#45;&gt;Node3 -->
<g id="edge10" class="edge">
<title>Node8&#45;&gt;Node3</title>
<path fill="none" stroke="midnightblue" d="M581.62,-81.01C594.12,-90.19 611.45,-105.02 623.11,-116.32"/>
<polygon fill="midnightblue" stroke="midnightblue" points="620.65,-118.81 630.16,-123.48 625.63,-113.9 620.65,-118.81"/>
</g>
<!-- Node9 -->
<g id="node9" class="node">
<title>Node9</title>
<g id="a_node9"><a xlink:title=" ">
<polygon fill="white" stroke="#bfbfbf" points="538.5,-0.5 538.5,-19.5 595.5,-19.5 595.5,-0.5 538.5,-0.5"/>
<text text-anchor="middle" x="567" y="-7.5" font-family="Helvetica,sans-Serif" font-size="10.00">ostream</text>
</a>
</g>
</g>
<!-- Node8&#45;&gt;Node9 -->
<g id="edge8" class="edge">
<title>Node8&#45;&gt;Node9</title>
<path fill="none" stroke="midnightblue" d="M567,-61.98C567,-53.58 567,-40.48 567,-29.66"/>
<polygon fill="midnightblue" stroke="midnightblue" points="570.5,-29.51 567,-19.51 563.5,-29.51 570.5,-29.51"/>
</g>
<!-- Node8&#45;&gt;Node10 -->
<g id="edge9" class="edge">
<title>Node8&#45;&gt;Node10</title>
<path fill="none" stroke="midnightblue" d="M540.92,-61.98C508.72,-51.45 453.88,-33.52 418.56,-21.97"/>
<polygon fill="midnightblue" stroke="midnightblue" points="419.3,-18.53 408.71,-18.75 417.13,-25.19 419.3,-18.53"/>
</g>
<!-- Node11&#45;&gt;Node4 -->
<g id="edge14" class="edge">
<title>Node11&#45;&gt;Node4</title>
<path fill="none" stroke="midnightblue" d="M334.08,-56.47C296.17,-46.03 245.08,-31.96 209.83,-22.25"/>
<polygon fill="midnightblue" stroke="midnightblue" points="210.45,-18.79 199.88,-19.51 208.59,-25.54 210.45,-18.79"/>
</g>
<!-- Node11&#45;&gt;Node7 -->
<g id="edge13" class="edge">
<title>Node11&#45;&gt;Node7</title>
<path fill="none" stroke="midnightblue" d="M406.09,-56.4C420.09,-47.04 438.41,-34.79 452.49,-25.38"/>
<polygon fill="midnightblue" stroke="midnightblue" points="454.68,-28.13 461.05,-19.66 450.79,-22.31 454.68,-28.13"/>
</g>
<!-- Node11&#45;&gt;Node10 -->
<g id="edge12" class="edge">
<title>Node11&#45;&gt;Node10</title>
<path fill="none" stroke="midnightblue" d="M385,-56.4C385,-48.47 385,-38.46 385,-29.86"/>
<polygon fill="midnightblue" stroke="midnightblue" points="388.5,-29.66 385,-19.66 381.5,-29.66 388.5,-29.66"/>
</g>
<!-- Node13&#45;&gt;Node4 -->
<g id="edge17" class="edge">
<title>Node13&#45;&gt;Node4</title>
<path fill="none" stroke="midnightblue" d="M136.95,-56.4C142.99,-47.84 150.74,-36.87 157.1,-27.86"/>
<polygon fill="midnightblue" stroke="midnightblue" points="159.98,-29.85 162.89,-19.66 154.26,-25.81 159.98,-29.85"/>
</g>
<!-- Node15&#45;&gt;Node4 -->
<g id="edge35" class="edge">
<title>Node15&#45;&gt;Node4</title>
<path fill="none" stroke="midnightblue" d="M253.68,-313.48C158.01,-292.58 0,-249.85 0,-195.5 0,-195.5 0,-195.5 0,-132 0,-92.52 15.51,-81.09 46,-56 65.89,-39.63 92.27,-28.93 115.5,-22.1"/>
<polygon fill="midnightblue" stroke="midnightblue" points="116.53,-25.44 125.24,-19.4 114.66,-18.7 116.53,-25.44"/>
</g>
<!-- Node15&#45;&gt;Node14 -->
<g id="edge37" class="edge">
<title>Node15&#45;&gt;Node14</title>
<path fill="none" stroke="midnightblue" d="M305.16,-313.33C294.32,-304.31 281.92,-291.6 276,-277 270.74,-264.02 267.17,-201.56 277,-179 282.24,-166.99 292.38,-156.62 301.91,-148.87"/>
<polygon fill="midnightblue" stroke="midnightblue" points="304.12,-151.59 309.98,-142.77 299.89,-146.01 304.12,-151.59"/>
</g>
<!-- Node16 -->
<g id="node16" class="node">
<title>Node16</title>
<g id="a_node16"><a xlink:href="_slice_8_h.html" target="_top" xlink:title=" ">
<polygon fill="white" stroke="black" points="285,-252 285,-271 409,-271 409,-252 285,-252"/>
<text text-anchor="middle" x="347" y="-259" font-family="Helvetica,sans-Serif" font-size="10.00">amr&#45;wind/core/Slice.H</text>
</a>
</g>
</g>
<!-- Node15&#45;&gt;Node16 -->
<g id="edge21" class="edge">
<title>Node15&#45;&gt;Node16</title>
<path fill="none" stroke="midnightblue" d="M329.77,-313.4C333,-303.86 337.29,-291.18 340.79,-280.86"/>
<polygon fill="midnightblue" stroke="midnightblue" points="344.17,-281.79 344.06,-271.19 337.54,-279.54 344.17,-281.79"/>
</g>
<!-- Node19 -->
<g id="node19" class="node">
<title>Node19</title>
<g id="a_node19"><a xlink:href="vector__space_8_h.html" target="_top" xlink:title=" ">
<polygon fill="white" stroke="black" points="553.5,-246.5 553.5,-276.5 688.5,-276.5 688.5,-246.5 553.5,-246.5"/>
<text text-anchor="start" x="561.5" y="-264.5" font-family="Helvetica,sans-Serif" font-size="10.00">amr&#45;wind/core/vs/vector</text>
<text text-anchor="middle" x="621" y="-253.5" font-family="Helvetica,sans-Serif" font-size="10.00">_space.H</text>
</a>
</g>
</g>
<!-- Node15&#45;&gt;Node19 -->
<g id="edge25" class="edge">
<title>Node15&#45;&gt;Node19</title>
<path fill="none" stroke="midnightblue" d="M388.86,-313.48C435.37,-303.26 498.48,-289.41 547.15,-278.72"/>
<polygon fill="midnightblue" stroke="midnightblue" points="547.98,-282.12 557,-276.55 546.48,-275.28 547.98,-282.12"/>
</g>
<!-- Node22 -->
<g id="node22" class="node">
<title>Node22</title>
<g id="a_node22"><a xlink:title=" ">
<polygon fill="white" stroke="#bfbfbf" points="427,-252 427,-271 535,-271 535,-252 427,-252"/>
<text text-anchor="middle" x="481" y="-259" font-family="Helvetica,sans-Serif" font-size="10.00">AMReX_RealBox.H</text>
</a>
</g>
</g>
<!-- Node15&#45;&gt;Node22 -->
<g id="edge36" class="edge">
<title>Node15&#45;&gt;Node22</title>
<path fill="none" stroke="midnightblue" d="M358.85,-313.4C386.34,-301.94 424.75,-285.94 451.11,-274.95"/>
<polygon fill="midnightblue" stroke="midnightblue" points="452.7,-278.08 460.58,-271.01 450.01,-271.62 452.7,-278.08"/>
</g>
<!-- Node16&#45;&gt;Node4 -->
<g id="edge24" class="edge">
<title>Node16&#45;&gt;Node4</title>
<path fill="none" stroke="midnightblue" d="M284.81,-257.12C214.72,-251.93 107.01,-239.31 80,-210 33.45,-159.49 29.49,-113.54 67,-56 78.03,-39.09 97,-28.48 115.62,-21.86"/>
<polygon fill="midnightblue" stroke="midnightblue" points="116.83,-25.14 125.28,-18.74 114.69,-18.48 116.83,-25.14"/>
</g>
<!-- Node17 -->
<g id="node17" class="node">
<title>Node17</title>
<g id="a_node17"><a xlink:title=" ">
<polygon fill="white" stroke="#bfbfbf" points="285.5,-185 285.5,-204 338.5,-204 338.5,-185 285.5,-185"/>
<text text-anchor="middle" x="312" y="-192" font-family="Helvetica,sans-Serif" font-size="10.00">iterator</text>
</a>
</g>
</g>
<!-- Node16&#45;&gt;Node17 -->
<g id="edge22" class="edge">
<title>Node16&#45;&gt;Node17</title>
<path fill="none" stroke="midnightblue" d="M342.28,-251.73C336.98,-241.89 328.24,-225.66 321.51,-213.16"/>
<polygon fill="midnightblue" stroke="midnightblue" points="324.47,-211.27 316.65,-204.13 318.3,-214.59 324.47,-211.27"/>
</g>
<!-- Node18 -->
<g id="node18" class="node">
<title>Node18</title>
<g id="a_node18"><a xlink:title=" ">
<polygon fill="white" stroke="#bfbfbf" points="357,-185 357,-204 455,-204 455,-185 357,-185"/>
<text text-anchor="middle" x="406" y="-192" font-family="Helvetica,sans-Serif" font-size="10.00">AMReX_Vector.H</text>
</a>
</g>
</g>
<!-- Node16&#45;&gt;Node18 -->
<g id="edge23" class="edge">
<title>Node16&#45;&gt;Node18</title>
<path fill="none" stroke="midnightblue" d="M354.96,-251.73C364.25,-241.5 379.8,-224.36 391.3,-211.69"/>
<polygon fill="midnightblue" stroke="midnightblue" points="394.04,-213.88 398.17,-204.13 388.86,-209.18 394.04,-213.88"/>
</g>
<!-- Node19&#45;&gt;Node3 -->
<g id="edge26" class="edge">
<title>Node19&#45;&gt;Node3</title>
<path fill="none" stroke="midnightblue" d="M623.13,-246.37C624.62,-236.26 626.58,-222.31 628,-210 630.23,-190.7 632.2,-168.58 633.48,-153.2"/>
<polygon fill="midnightblue" stroke="midnightblue" points="636.99,-153.16 634.31,-142.91 630.01,-152.59 636.99,-153.16"/>
</g>
<!-- Node20 -->
<g id="node20" class="node">
<title>Node20</title>
<g id="a_node20"><a xlink:href="tensor_8_h.html" target="_top" xlink:title=" ">
<polygon fill="white" stroke="black" points="473.5,-185 473.5,-204 618.5,-204 618.5,-185 473.5,-185"/>
<text text-anchor="middle" x="546" y="-192" font-family="Helvetica,sans-Serif" font-size="10.00">amr&#45;wind/core/vs/tensor.H</text>
</a>
</g>
</g>
<!-- Node19&#45;&gt;Node20 -->
<g id="edge27" class="edge">
<title>Node19&#45;&gt;Node20</title>
<path fill="none" stroke="midnightblue" d="M604.73,-246.4C592.68,-235.96 576.29,-221.75 563.88,-211"/>
<polygon fill="midnightblue" stroke="midnightblue" points="565.88,-208.1 556.03,-204.19 561.3,-213.39 565.88,-208.1"/>
</g>
<!-- Node20&#45;&gt;Node3 -->
<g id="edge30" class="edge">
<title>Node20&#45;&gt;Node3</title>
<path fill="none" stroke="midnightblue" d="M558.75,-184.98C573.03,-175.43 596.4,-159.81 613.51,-148.37"/>
<polygon fill="midnightblue" stroke="midnightblue" points="615.9,-150.98 622.27,-142.51 612.01,-145.16 615.9,-150.98"/>
</g>
<!-- Node20&#45;&gt;Node4 -->
<g id="edge28" class="edge">
<title>Node20&#45;&gt;Node4</title>
<path fill="none" stroke="midnightblue" d="M513.42,-184.98C480.85,-176.04 429.62,-160.82 387,-143 369.39,-135.64 366.5,-130.61 349,-123 304.53,-103.65 287.15,-112.66 246,-87 220.21,-70.92 196.26,-44.81 182.13,-27.77"/>
<polygon fill="midnightblue" stroke="midnightblue" points="184.69,-25.36 175.68,-19.78 179.24,-29.76 184.69,-25.36"/>
</g>
<!-- Node20&#45;&gt;Node5 -->
<g id="edge29" class="edge">
<title>Node20&#45;&gt;Node5</title>
<path fill="none" stroke="midnightblue" d="M618.82,-188.16C652.83,-182.01 691.37,-169.25 717,-143 730.4,-129.28 734.6,-107.15 735.79,-91.35"/>
<polygon fill="midnightblue" stroke="midnightblue" points="739.29,-91.31 736.21,-81.17 732.3,-91.02 739.29,-91.31"/>
</g>
<!-- Node21 -->
<g id="node21" class="node">
<title>Node21</title>
<g id="a_node21"><a xlink:href="tensor_i_8_h.html" target="_top" xlink:title=" ">
<polygon fill="white" stroke="black" points="395.5,-123.5 395.5,-142.5 544.5,-142.5 544.5,-123.5 395.5,-123.5"/>
<text text-anchor="middle" x="470" y="-130.5" font-family="Helvetica,sans-Serif" font-size="10.00">amr&#45;wind/core/vs/tensorI.H</text>
</a>
</g>
</g>
<!-- Node20&#45;&gt;Node21 -->
<g id="edge31" class="edge">
<title>Node20&#45;&gt;Node21</title>
<path fill="none" stroke="midnightblue" d="M530.21,-184.98C516.34,-175.7 496.78,-160.67 483.59,-149.33"/>
<polygon fill="midnightblue" stroke="midnightblue" points="485.76,-146.57 475.97,-142.51 481.09,-151.79 485.76,-146.57"/>
</g>
<!-- Node21&#45;&gt;Node10 -->
<g id="edge32" class="edge">
<title>Node21&#45;&gt;Node10</title>
<path fill="none" stroke="midnightblue" d="M469.02,-123.24C466.98,-108.23 461.13,-77.16 446,-56 436.91,-43.29 423.13,-32.69 410.97,-24.97"/>
<polygon fill="midnightblue" stroke="midnightblue" points="412.46,-21.79 402.09,-19.65 408.87,-27.79 412.46,-21.79"/>
</g>
<!-- Node21&#45;&gt;Node11 -->
<g id="edge34" class="edge">
<title>Node21&#45;&gt;Node11</title>
<path fill="none" stroke="midnightblue" d="M457.82,-123.48C446.31,-115.42 428.6,-103.02 413.53,-92.47"/>
<polygon fill="midnightblue" stroke="midnightblue" points="415.23,-89.39 405.03,-86.52 411.22,-95.12 415.23,-89.39"/>
</g>
<!-- Node21&#45;&gt;Node20 -->
<g id="edge33" class="edge">
<title>Node21&#45;&gt;Node20</title>
<path fill="none" stroke="midnightblue" d="M485.77,-142.51C499.63,-151.78 519.19,-166.81 532.38,-178.15"/>
<polygon fill="midnightblue" stroke="midnightblue" points="530.23,-180.91 540.01,-184.98 534.89,-175.7 530.23,-180.91"/>
</g>
</g>
</svg>
        <g id="navigator" transform="translate(0 0)" fill="#404254">
                <rect fill="#f2f5e9" fill-opacity="0.5" stroke="#606060" stroke-width=".5" x="0" y="0" width="60" height="60"/>
                <use id="zoomplus" xlink:href="#zoomPlus" x="17" y="9" onmousedown="handleZoom(evt,'in')"/>
                <use id="zoomminus" xlink:href="#zoomMin" x="42" y="9" onmousedown="handleZoom(evt,'out')"/>
                <use id="reset" xlink:href="#resetDef" x="30" y="36" onmousedown="handleReset()"/>
                <g id="arrowUp" xlink:href="#dirArrow" transform="translate(30 24)" onmousedown="handlePan(0,-1)">
                  <use xlink:href="#rim" fill="#404040">
                        <set attributeName="fill" to="#808080" begin="arrowUp.mouseover" end="arrowUp.mouseout"/>
                  </use>
                  <path fill="none" stroke="white" stroke-width="1.5" d="M0,-3.0v7 M-2.5,-0.5L0,-3.0L2.5,-0.5"/>
                </g>
                <g id="arrowRight" xlink:href="#dirArrow" transform="rotate(90) translate(36 -43)" onmousedown="handlePan(1,0)">
                  <use xlink:href="#rim" fill="#404040">
                        <set attributeName="fill" to="#808080" begin="arrowRight.mouseover" end="arrowRight.mouseout"/>
                  </use>
                  <path fill="none" stroke="white" stroke-width="1.5" d="M0,-3.0v7 M-2.5,-0.5L0,-3.0L2.5,-0.5"/>
                </g>
                <g id="arrowDown" xlink:href="#dirArrow" transform="rotate(180) translate(-30 -48)" onmousedown="handlePan(0,1)">
                  <use xlink:href="#rim" fill="#404040">
                        <set attributeName="fill" to="#808080" begin="arrowDown.mouseover" end="arrowDown.mouseout"/>
                  </use>
                  <path fill="none" stroke="white" stroke-width="1.5" d="M0,-3.0v7 M-2.5,-0.5L0,-3.0L2.5,-0.5"/>
                </g>
                <g id="arrowLeft" xlink:href="#dirArrow" transform="rotate(270) translate(-36 17)" onmousedown="handlePan(-1,0)">
                  <use xlink:href="#rim" fill="#404040">
                        <set attributeName="fill" to="#808080" begin="arrowLeft.mouseover" end="arrowLeft.mouseout"/>
                  </use>
                  <path fill="none" stroke="white" stroke-width="1.5" d="M0,-3.0v7 M-2.5,-0.5L0,-3.0L2.5,-0.5"/>
                </g>
        </g>
        <svg viewBox="0 0 15 15" width="100%" height="30px" preserveAspectRatio="xMaxYMin meet">
         <g id="arrow_out" transform="scale(0.3 0.3)">
          <a xlink:href="actuator__utils_8cpp__incl_org.svg" target="_base">
           <rect id="button" ry="5" rx="5" y="6" x="6" height="38" width="38"
                fill="#f2f5e9" fill-opacity="0.5" stroke="#606060" stroke-width="1.0"/>
           <path id="arrow"
             d="M 11.500037,31.436501 C 11.940474,20.09759 22.043105,11.32322 32.158766,21.979434 L 37.068811,17.246167 C 37.068811,17.246167 37.088388,32 37.088388,32 L 22.160133,31.978069 C 22.160133,31.978069 26.997745,27.140456 26.997745,27.140456 C 18.528582,18.264221 13.291696,25.230495 11.500037,31.436501 z"
             style="fill:#404040;"/>
          </a>
         </g>
        </svg>
</svg>
