<?xml version="1.0" encoding="UTF-8" standalone="no"?>
<!DOCTYPE svg PUBLIC "-//W3C//DTD SVG 1.1//EN"
 "http://www.w3.org/Graphics/SVG/1.1/DTD/svg11.dtd">
<!-- Generated by graphviz version 2.43.0 (0)
 -->
<!-- Title: actuator_opsI.H Pages: 1 -->
<svg width="766pt" height="252pt"
 viewBox="0.00 0.00 765.50 252.00" xmlns="http://www.w3.org/2000/svg" xmlns:xlink="http://www.w3.org/1999/xlink">
<g id="graph0" class="graph" transform="scale(1 1) rotate(0) translate(4 248)">
<title>actuator_opsI.H</title>
<polygon fill="white" stroke="transparent" points="-4,4 -4,-248 761.5,-248 761.5,4 -4,4"/>
<!-- Node1 -->
<g id="node1" class="node">
<title>Node1</title>
<g id="a_node1"><a xlink:title=" ">
<polygon fill="#bfbfbf" stroke="black" points="307.5,-224.5 307.5,-243.5 400.5,-243.5 400.5,-224.5 307.5,-224.5"/>
<text text-anchor="middle" x="354" y="-231.5" font-family="Helvetica,sans-Serif" font-size="10.00">actuator_opsI.H</text>
</a>
</g>
</g>
<!-- Node2 -->
<g id="node2" class="node">
<title>Node2</title>
<g id="a_node2"><a xlink:href="actuator__ops_8_h.html" target="_top" xlink:title=" ">
<polygon fill="white" stroke="black" points="309,-168.5 309,-187.5 399,-187.5 399,-168.5 309,-168.5"/>
<text text-anchor="middle" x="354" y="-175.5" font-family="Helvetica,sans-Serif" font-size="10.00">actuator_ops.H</text>
</a>
</g>
</g>
<!-- Node1&#45;&gt;Node2 -->
<g id="edge1" class="edge">
<title>Node1&#45;&gt;Node2</title>
<path fill="none" stroke="midnightblue" d="M354,-213.8C354,-204.91 354,-194.78 354,-187.75"/>
<polygon fill="midnightblue" stroke="midnightblue" points="350.5,-214.08 354,-224.08 357.5,-214.08 350.5,-214.08"/>
</g>
<!-- Node3 -->
<g id="node3" class="node">
<title>Node3</title>
<g id="a_node3"><a xlink:href="_act_src_line_op_8_h.html" target="_top" xlink:title=" ">
<polygon fill="white" stroke="black" points="308,-112.5 308,-131.5 400,-131.5 400,-112.5 308,-112.5"/>
<text text-anchor="middle" x="354" y="-119.5" font-family="Helvetica,sans-Serif" font-size="10.00">ActSrcLineOp.H</text>
</a>
</g>
</g>
<!-- Node2&#45;&gt;Node3 -->
<g id="edge2" class="edge">
<title>Node2&#45;&gt;Node3</title>
<path fill="none" stroke="midnightblue" d="M354,-157.8C354,-148.91 354,-138.78 354,-131.75"/>
<polygon fill="midnightblue" stroke="midnightblue" points="350.5,-158.08 354,-168.08 357.5,-158.08 350.5,-158.08"/>
</g>
<!-- Node4 -->
<g id="node4" class="node">
<title>Node4</title>
<g id="a_node4"><a xlink:href="_actuator_model_8_h.html" target="_top" xlink:title=" ">
<polygon fill="white" stroke="black" points="305,-56.5 305,-75.5 403,-75.5 403,-56.5 305,-56.5"/>
<text text-anchor="middle" x="354" y="-63.5" font-family="Helvetica,sans-Serif" font-size="10.00">ActuatorModel.H</text>
</a>
</g>
</g>
<!-- Node2&#45;&gt;Node4 -->
<g id="edge9" class="edge">
<title>Node2&#45;&gt;Node4</title>
<path fill="none" stroke="midnightblue" d="M328.71,-163.15C310.08,-150.96 289.49,-132.07 299,-112 306.77,-95.61 323.75,-83.21 336.8,-75.61"/>
<polygon fill="midnightblue" stroke="midnightblue" points="326.94,-166.17 337.3,-168.42 330.6,-160.21 326.94,-166.17"/>
</g>
<!-- Node10 -->
<g id="node10" class="node">
<title>Node10</title>
<g id="a_node10"><a xlink:href="_act_src_disk_op___turbine_8_h.html" target="_top" xlink:title=" ">
<polygon fill="white" stroke="black" points="418,-112.5 418,-131.5 552,-131.5 552,-112.5 418,-112.5"/>
<text text-anchor="middle" x="485" y="-119.5" font-family="Helvetica,sans-Serif" font-size="10.00">ActSrcDiskOp_Turbine.H</text>
</a>
</g>
</g>
<!-- Node2&#45;&gt;Node10 -->
<g id="edge10" class="edge">
<title>Node2&#45;&gt;Node10</title>
<path fill="none" stroke="midnightblue" d="M384.32,-164.5C408.88,-154.38 442.82,-140.39 464.34,-131.52"/>
<polygon fill="midnightblue" stroke="midnightblue" points="382.67,-161.4 374.76,-168.44 385.34,-167.87 382.67,-161.4"/>
</g>
<!-- Node11 -->
<g id="node11" class="node">
<title>Node11</title>
<g id="a_node11"><a xlink:href="_act_src_disk_op_8_h.html" target="_top" xlink:title=" ">
<polygon fill="white" stroke="black" points="158.5,-112.5 158.5,-131.5 251.5,-131.5 251.5,-112.5 158.5,-112.5"/>
<text text-anchor="middle" x="205" y="-119.5" font-family="Helvetica,sans-Serif" font-size="10.00">ActSrcDiskOp.H</text>
</a>
</g>
</g>
<!-- Node2&#45;&gt;Node11 -->
<g id="edge12" class="edge">
<title>Node2&#45;&gt;Node11</title>
<path fill="none" stroke="midnightblue" d="M320.63,-164.91C292.62,-154.75 253.3,-140.51 228.5,-131.52"/>
<polygon fill="midnightblue" stroke="midnightblue" points="319.8,-168.33 330.39,-168.44 322.18,-161.75 319.8,-168.33"/>
</g>
<!-- Node12 -->
<g id="node12" class="node">
<title>Node12</title>
<g id="a_node12"><a xlink:href="uniform__ct__ops_8_h.html" target="_top" xlink:title=" ">
<polygon fill="white" stroke="black" points="0,-112.5 0,-131.5 102,-131.5 102,-112.5 0,-112.5"/>
<text text-anchor="middle" x="51" y="-119.5" font-family="Helvetica,sans-Serif" font-size="10.00">uniform_ct_ops.H</text>
</a>
</g>
</g>
<!-- Node2&#45;&gt;Node12 -->
<g id="edge14" class="edge">
<title>Node2&#45;&gt;Node12</title>
<path fill="none" stroke="midnightblue" d="M299.02,-167.2C241.81,-157.01 153.16,-141.21 98.79,-131.52"/>
<polygon fill="midnightblue" stroke="midnightblue" points="298.51,-170.67 308.97,-168.97 299.73,-163.77 298.51,-170.67"/>
</g>
<!-- Node14 -->
<g id="node14" class="node">
<title>Node14</title>
<g id="a_node14"><a xlink:href="turbine__fast__ops_8_h.html" target="_top" xlink:title=" ">
<polygon fill="white" stroke="black" points="179,-56.5 179,-75.5 287,-75.5 287,-56.5 179,-56.5"/>
<text text-anchor="middle" x="233" y="-63.5" font-family="Helvetica,sans-Serif" font-size="10.00">turbine_fast_ops.H</text>
</a>
</g>
</g>
<!-- Node2&#45;&gt;Node14 -->
<g id="edge17" class="edge">
<title>Node2&#45;&gt;Node14</title>
<path fill="none" stroke="midnightblue" d="M298.45,-172.51C244.28,-166.85 167.45,-154.94 149,-132 129.18,-107.36 173.61,-86.56 205.11,-75.52"/>
<polygon fill="midnightblue" stroke="midnightblue" points="298.31,-176.02 308.61,-173.53 299.01,-169.05 298.31,-176.02"/>
</g>
<!-- Node15 -->
<g id="node15" class="node">
<title>Node15</title>
<g id="a_node15"><a xlink:href="fixed__wing__ops_8_h.html" target="_top" xlink:title=" ">
<polygon fill="white" stroke="black" points="442.5,-56.5 442.5,-75.5 543.5,-75.5 543.5,-56.5 442.5,-56.5"/>
<text text-anchor="middle" x="493" y="-63.5" font-family="Helvetica,sans-Serif" font-size="10.00">fixed_wing_ops.H</text>
</a>
</g>
</g>
<!-- Node2&#45;&gt;Node15 -->
<g id="edge19" class="edge">
<title>Node2&#45;&gt;Node15</title>
<path fill="none" stroke="midnightblue" d="M409.61,-172.64C464.32,-167.06 542.3,-155.2 561,-132 579.04,-109.62 540.13,-87.29 514.06,-75.52"/>
<polygon fill="midnightblue" stroke="midnightblue" points="408.96,-169.19 399.35,-173.64 409.64,-176.16 408.96,-169.19"/>
</g>
<!-- Node16 -->
<g id="node16" class="node">
<title>Node16</title>
<g id="a_node16"><a xlink:href="wing__ops_8_h.html" target="_top" xlink:title=" ">
<polygon fill="white" stroke="black" points="608.5,-112.5 608.5,-131.5 681.5,-131.5 681.5,-112.5 608.5,-112.5"/>
<text text-anchor="middle" x="645" y="-119.5" font-family="Helvetica,sans-Serif" font-size="10.00">wing_ops.H</text>
</a>
</g>
</g>
<!-- Node2&#45;&gt;Node16 -->
<g id="edge21" class="edge">
<title>Node2&#45;&gt;Node16</title>
<path fill="none" stroke="midnightblue" d="M409.32,-166.73C467.8,-155.88 558.37,-139.08 608.5,-129.77"/>
<polygon fill="midnightblue" stroke="midnightblue" points="408.34,-163.36 399.15,-168.62 409.62,-170.24 408.34,-163.36"/>
</g>
<!-- Node17 -->
<g id="node17" class="node">
<title>Node17</title>
<g id="a_node17"><a xlink:href="flat__plate__ops_8_h.html" target="_top" xlink:title=" ">
<polygon fill="white" stroke="black" points="662.5,-56.5 662.5,-75.5 757.5,-75.5 757.5,-56.5 662.5,-56.5"/>
<text text-anchor="middle" x="710" y="-63.5" font-family="Helvetica,sans-Serif" font-size="10.00">flat_plate_ops.H</text>
</a>
</g>
</g>
<!-- Node2&#45;&gt;Node17 -->
<g id="edge26" class="edge">
<title>Node2&#45;&gt;Node17</title>
<path fill="none" stroke="midnightblue" d="M409.43,-176.72C494.02,-175.13 649.84,-167.35 691,-132 707.59,-117.75 710.1,-89.9 710.24,-75.73"/>
<polygon fill="midnightblue" stroke="midnightblue" points="409.17,-173.22 399.23,-176.88 409.29,-180.22 409.17,-173.22"/>
</g>
<!-- Node3&#45;&gt;Node4 -->
<g id="edge3" class="edge">
<title>Node3&#45;&gt;Node4</title>
<path fill="none" stroke="midnightblue" d="M354,-101.8C354,-92.91 354,-82.78 354,-75.75"/>
<polygon fill="midnightblue" stroke="midnightblue" points="350.5,-102.08 354,-112.08 357.5,-102.08 350.5,-102.08"/>
</g>
<!-- Node5 -->
<g id="node5" class="node">
<title>Node5</title>
<g id="a_node5"><a xlink:href="_actuator_8cpp.html" target="_top" xlink:title=" ">
<polygon fill="white" stroke="black" points="315.5,-0.5 315.5,-19.5 392.5,-19.5 392.5,-0.5 315.5,-0.5"/>
<text text-anchor="middle" x="354" y="-7.5" font-family="Helvetica,sans-Serif" font-size="10.00">Actuator.cpp</text>
</a>
</g>
</g>
<!-- Node4&#45;&gt;Node5 -->
<g id="edge4" class="edge">
<title>Node4&#45;&gt;Node5</title>
<path fill="none" stroke="midnightblue" d="M354,-45.8C354,-36.91 354,-26.78 354,-19.75"/>
<polygon fill="midnightblue" stroke="midnightblue" points="350.5,-46.08 354,-56.08 357.5,-46.08 350.5,-46.08"/>
</g>
<!-- Node6 -->
<g id="node6" class="node">
<title>Node6</title>
<g id="a_node6"><a xlink:href="_actuator_disk_8cpp.html" target="_top" xlink:title=" ">
<polygon fill="white" stroke="black" points="29,-0.5 29,-19.5 129,-19.5 129,-0.5 29,-0.5"/>
<text text-anchor="middle" x="79" y="-7.5" font-family="Helvetica,sans-Serif" font-size="10.00">ActuatorDisk.cpp</text>
</a>
</g>
</g>
<!-- Node4&#45;&gt;Node6 -->
<g id="edge5" class="edge">
<title>Node4&#45;&gt;Node6</title>
<path fill="none" stroke="midnightblue" d="M300.39,-54.47C248.42,-44.27 170.56,-28.98 122.37,-19.52"/>
<polygon fill="midnightblue" stroke="midnightblue" points="299.94,-57.95 310.43,-56.44 301.29,-51.08 299.94,-57.95"/>
</g>
<!-- Node7 -->
<g id="node7" class="node">
<title>Node7</title>
<g id="a_node7"><a xlink:href="_turbine_fast_8cpp.html" target="_top" xlink:title=" ">
<polygon fill="white" stroke="black" points="196,-0.5 196,-19.5 288,-19.5 288,-0.5 196,-0.5"/>
<text text-anchor="middle" x="242" y="-7.5" font-family="Helvetica,sans-Serif" font-size="10.00">TurbineFast.cpp</text>
</a>
</g>
</g>
<!-- Node4&#45;&gt;Node7 -->
<g id="edge6" class="edge">
<title>Node4&#45;&gt;Node7</title>
<path fill="none" stroke="midnightblue" d="M326.75,-51.86C305.98,-41.85 277.98,-28.35 259.95,-19.65"/>
<polygon fill="midnightblue" stroke="midnightblue" points="325.48,-55.13 336.01,-56.32 328.52,-48.83 325.48,-55.13"/>
</g>
<!-- Node8 -->
<g id="node8" class="node">
<title>Node8</title>
<g id="a_node8"><a xlink:href="_fixed_wing_8cpp.html" target="_top" xlink:title=" ">
<polygon fill="white" stroke="black" points="429.5,-0.5 429.5,-19.5 516.5,-19.5 516.5,-0.5 429.5,-0.5"/>
<text text-anchor="middle" x="473" y="-7.5" font-family="Helvetica,sans-Serif" font-size="10.00">FixedWing.cpp</text>
</a>
</g>
</g>
<!-- Node4&#45;&gt;Node8 -->
<g id="edge7" class="edge">
<title>Node4&#45;&gt;Node8</title>
<path fill="none" stroke="midnightblue" d="M382.14,-52.23C404.4,-42.13 434.86,-28.31 454.23,-19.52"/>
<polygon fill="midnightblue" stroke="midnightblue" points="380.52,-49.12 372.86,-56.44 383.41,-55.5 380.52,-49.12"/>
</g>
<!-- Node9 -->
<g id="node9" class="node">
<title>Node9</title>
<g id="a_node9"><a xlink:href="_flat_plate_8cpp.html" target="_top" xlink:title=" ">
<polygon fill="white" stroke="black" points="602,-0.5 602,-19.5 682,-19.5 682,-0.5 602,-0.5"/>
<text text-anchor="middle" x="642" y="-7.5" font-family="Helvetica,sans-Serif" font-size="10.00">FlatPlate.cpp</text>
</a>
</g>
</g>
<!-- Node4&#45;&gt;Node9 -->
<g id="edge8" class="edge">
<title>Node4&#45;&gt;Node9</title>
<path fill="none" stroke="midnightblue" d="M409.79,-54.54C466.1,-43.98 551.67,-27.94 601.69,-18.56"/>
<polygon fill="midnightblue" stroke="midnightblue" points="408.82,-51.16 399.63,-56.44 410.11,-58.04 408.82,-51.16"/>
</g>
<!-- Node10&#45;&gt;Node4 -->
<g id="edge11" class="edge">
<title>Node10&#45;&gt;Node4</title>
<path fill="none" stroke="midnightblue" d="M454.68,-108.5C430.12,-98.38 396.18,-84.39 374.66,-75.52"/>
<polygon fill="midnightblue" stroke="midnightblue" points="453.66,-111.87 464.24,-112.44 456.33,-105.4 453.66,-111.87"/>
</g>
<!-- Node11&#45;&gt;Node4 -->
<g id="edge13" class="edge">
<title>Node11&#45;&gt;Node4</title>
<path fill="none" stroke="midnightblue" d="M238.37,-108.91C266.38,-98.75 305.7,-84.51 330.5,-75.52"/>
<polygon fill="midnightblue" stroke="midnightblue" points="236.82,-105.75 228.61,-112.44 239.2,-112.33 236.82,-105.75"/>
</g>
<!-- Node12&#45;&gt;Node6 -->
<g id="edge15" class="edge">
<title>Node12&#45;&gt;Node6</title>
<path fill="none" stroke="midnightblue" d="M43.02,-102.88C38.33,-89.57 34.32,-71.23 40,-56 45.56,-41.08 58.55,-27.83 68.01,-19.63"/>
<polygon fill="midnightblue" stroke="midnightblue" points="39.83,-104.31 46.76,-112.32 46.33,-101.73 39.83,-104.31"/>
</g>
<!-- Node13 -->
<g id="node13" class="node">
<title>Node13</title>
<g id="a_node13"><a xlink:href="uniform__ct__ops_8cpp.html" target="_top" xlink:title=" ">
<polygon fill="white" stroke="black" points="49,-56.5 49,-75.5 161,-75.5 161,-56.5 49,-56.5"/>
<text text-anchor="middle" x="105" y="-63.5" font-family="Helvetica,sans-Serif" font-size="10.00">uniform_ct_ops.cpp</text>
</a>
</g>
</g>
<!-- Node12&#45;&gt;Node13 -->
<g id="edge16" class="edge">
<title>Node12&#45;&gt;Node13</title>
<path fill="none" stroke="midnightblue" d="M67,-105C76.57,-95.43 88.36,-83.64 96.25,-75.75"/>
<polygon fill="midnightblue" stroke="midnightblue" points="64.51,-102.54 59.92,-112.08 69.46,-107.49 64.51,-102.54"/>
</g>
<!-- Node14&#45;&gt;Node7 -->
<g id="edge18" class="edge">
<title>Node14&#45;&gt;Node7</title>
<path fill="none" stroke="midnightblue" d="M236.15,-46.1C237.64,-37.14 239.36,-26.86 240.54,-19.75"/>
<polygon fill="midnightblue" stroke="midnightblue" points="232.68,-45.64 234.49,-56.08 239.58,-46.79 232.68,-45.64"/>
</g>
<!-- Node15&#45;&gt;Node8 -->
<g id="edge20" class="edge">
<title>Node15&#45;&gt;Node8</title>
<path fill="none" stroke="midnightblue" d="M486.22,-46.69C482.85,-37.59 478.93,-27.01 476.24,-19.75"/>
<polygon fill="midnightblue" stroke="midnightblue" points="482.94,-47.92 489.7,-56.08 489.51,-45.49 482.94,-47.92"/>
</g>
<!-- Node16&#45;&gt;Node15 -->
<g id="edge22" class="edge">
<title>Node16&#45;&gt;Node15</title>
<path fill="none" stroke="midnightblue" d="M611.33,-109.04C582.73,-98.88 542.39,-84.55 516.97,-75.52"/>
<polygon fill="midnightblue" stroke="midnightblue" points="610.32,-112.39 620.92,-112.44 612.66,-105.8 610.32,-112.39"/>
</g>
<!-- Node16&#45;&gt;Node17 -->
<g id="edge23" class="edge">
<title>Node16&#45;&gt;Node17</title>
<path fill="none" stroke="midnightblue" d="M663.27,-105.82C674.92,-96.15 689.6,-83.95 699.37,-75.83"/>
<polygon fill="midnightblue" stroke="midnightblue" points="660.9,-103.24 655.44,-112.32 665.37,-108.63 660.9,-103.24"/>
</g>
<!-- Node18 -->
<g id="node18" class="node">
<title>Node18</title>
<g id="a_node18"><a xlink:href="wing__ops_8cpp.html" target="_top" xlink:title=" ">
<polygon fill="white" stroke="black" points="561.5,-56.5 561.5,-75.5 644.5,-75.5 644.5,-56.5 561.5,-56.5"/>
<text text-anchor="middle" x="603" y="-63.5" font-family="Helvetica,sans-Serif" font-size="10.00">wing_ops.cpp</text>
</a>
</g>
</g>
<!-- Node16&#45;&gt;Node18 -->
<g id="edge25" class="edge">
<title>Node16&#45;&gt;Node18</title>
<path fill="none" stroke="midnightblue" d="M631.89,-104.14C624.57,-94.74 615.76,-83.4 609.81,-75.75"/>
<polygon fill="midnightblue" stroke="midnightblue" points="629.16,-106.34 638.06,-112.08 634.69,-102.04 629.16,-106.34"/>
</g>
<!-- Node17&#45;&gt;Node9 -->
<g id="edge24" class="edge">
<title>Node17&#45;&gt;Node9</title>
<path fill="none" stroke="midnightblue" d="M691.24,-50.1C679,-40.38 663.44,-28.03 653.12,-19.83"/>
<polygon fill="midnightblue" stroke="midnightblue" points="689.07,-52.85 699.07,-56.32 693.42,-47.36 689.07,-52.85"/>
</g>
</g>
</svg>
