<?xml version="1.0" encoding="UTF-8" standalone="no"?>
<!DOCTYPE svg PUBLIC "-//W3C//DTD SVG 1.1//EN"
 "http://www.w3.org/Graphics/SVG/1.1/DTD/svg11.dtd">
<!-- Generated by graphviz version 2.43.0 (0)
 -->
<!-- Title: amr_wind::actuator::ops::ActSrcOp&lt; ActTrait, ActSrcDisk, std::enable_if_t&lt; std::is_base_of&lt; DiskType, ActTrait &gt;::value &gt; &gt; Pages: 1 -->
<!--zoomable 251 -->
<svg id="main" version="1.1" xmlns="http://www.w3.org/2000/svg" xmlns:xlink="http://www.w3.org/1999/xlink" xml:space="preserve" onload="init(evt)">
<style type="text/css"><![CDATA[
.edge:hover path { stroke: red; }
.edge:hover polygon { stroke: red; fill: red; }
]]></style>
<script type="text/javascript"><![CDATA[
var edges = document.getElementsByTagName('g');
if (edges && edges.length) {
  for (var i=0;i<edges.length;i++) {
    if (edges[i].id.substr(0,4)=='edge') {
      edges[i].setAttribute('class','edge');
    }
  }
}
]]></script>
        <defs>
                <circle id="rim" cx="0" cy="0" r="7"/>
                <circle id="rim2" cx="0" cy="0" r="3.5"/>
                <g id="zoomPlus">
                        <use xlink:href="#rim" fill="#404040">
                                <set attributeName="fill" to="#808080" begin="zoomplus.mouseover" end="zoomplus.mouseout"/>
                        </use>
                        <path d="M-4,0h8M0,-4v8" fill="none" stroke="white" stroke-width="1.5" pointer-events="none"/>
                </g>
                <g id="zoomMin">
                        <use xlink:href="#rim" fill="#404040">
                                <set attributeName="fill" to="#808080" begin="zoomminus.mouseover" end="zoomminus.mouseout"/>
                        </use>
                        <path d="M-4,0h8" fill="none" stroke="white" stroke-width="1.5" pointer-events="none"/>
                </g>
                <g id="dirArrow">
                        <path fill="none" stroke="white" stroke-width="1.5" d="M0,-3.0v7 M-2.5,-0.5L0,-3.0L2.5,-0.5"/>
                </g>
               <g id="resetDef">
                       <use xlink:href="#rim2" fill="#404040">
                               <set attributeName="fill" to="#808080" begin="reset.mouseover" end="reset.mouseout"/>
                       </use>
               </g>
        </defs>

<script type="text/javascript">
var viewWidth = 1693;
var viewHeight = 251;
var sectionId = 'dynsection-0';
</script>
<script xlink:href="svgpan.js"/>
<svg id="graph" class="graph">
<g id="viewport">
<title>amr_wind::actuator::ops::ActSrcOp&lt; ActTrait, ActSrcDisk, std::enable_if_t&lt; std::is_base_of&lt; DiskType, ActTrait &gt;::value &gt; &gt;</title>
<polygon fill="white" stroke="transparent" points="-4,4 -4,-247 1689,-247 1689,4 -4,4"/>
<!-- Node1 -->
<g id="node1" class="node">
<title>Node1</title>
<g id="a_node1"><a xlink:title=" ">
<polygon fill="#bfbfbf" stroke="black" points="1505,-47.5 1505,-110.5 1685,-110.5 1685,-47.5 1505,-47.5"/>
<text text-anchor="start" x="1513" y="-98.5" font-family="Helvetica,sans-Serif" font-size="10.00">amr_wind::actuator</text>
<text text-anchor="start" x="1513" y="-87.5" font-family="Helvetica,sans-Serif" font-size="10.00">::ops::ActSrcOp&lt; ActTrait,</text>
<text text-anchor="start" x="1513" y="-76.5" font-family="Helvetica,sans-Serif" font-size="10.00"> ActSrcDisk, std::enable</text>
<text text-anchor="start" x="1513" y="-65.5" font-family="Helvetica,sans-Serif" font-size="10.00">_if_t&lt; std::is_base_of&lt; DiskType,</text>
<text text-anchor="middle" x="1595" y="-54.5" font-family="Helvetica,sans-Serif" font-size="10.00"> ActTrait &gt;::value &gt; &gt;</text>
</a>
</g>
</g>
<!-- Node2 -->
<g id="node2" class="node">
<title>Node2</title>
<g id="a_node2"><a xlink:href="classamr__wind_1_1_field.html" target="_top" xlink:title="Computational field.">
<polygon fill="white" stroke="black" points="1287,-94.5 1287,-113.5 1381,-113.5 1381,-94.5 1287,-94.5"/>
<text text-anchor="middle" x="1334" y="-101.5" font-family="Helvetica,sans-Serif" font-size="10.00">amr_wind::Field</text>
</a>
</g>
</g>
<!-- Node2&#45;&gt;Node1 -->
<g id="edge1" class="edge">
<title>Node2&#45;&gt;Node1</title>
<path fill="none" stroke="#9a32cd" stroke-dasharray="5,2" d="M1391,-98.59C1424.24,-95.39 1467.16,-91.24 1504.95,-87.6"/>
<polygon fill="#9a32cd" stroke="#9a32cd" points="1390.62,-95.11 1381.01,-99.56 1391.3,-102.08 1390.62,-95.11"/>
<text text-anchor="middle" x="1453.5" y="-99" font-family="Helvetica,sans-Serif" font-size="10.00"> m_act_src</text>
</g>
<!-- Node3 -->
<g id="node3" class="node">
<title>Node3</title>
<g id="a_node3"><a xlink:title=" ">
<polygon fill="white" stroke="#bfbfbf" points="965,-58 965,-88 1085,-88 1085,-58 965,-58"/>
<text text-anchor="start" x="973" y="-76" font-family="Helvetica,sans-Serif" font-size="10.00">std::shared_ptr&lt; amr</text>
<text text-anchor="middle" x="1025" y="-65" font-family="Helvetica,sans-Serif" font-size="10.00">_wind::FieldInfo &gt;</text>
</a>
</g>
</g>
<!-- Node3&#45;&gt;Node2 -->
<g id="edge2" class="edge">
<title>Node3&#45;&gt;Node2</title>
<path fill="none" stroke="#9a32cd" stroke-dasharray="5,2" d="M1095.43,-77.96C1139.25,-81.33 1197.01,-86.22 1248,-92 1260.59,-93.43 1274.19,-95.23 1286.74,-97"/>
<polygon fill="#9a32cd" stroke="#9a32cd" points="1095.69,-74.47 1085.45,-77.2 1095.16,-81.45 1095.69,-74.47"/>
<text text-anchor="middle" x="1186.5" y="-95" font-family="Helvetica,sans-Serif" font-size="10.00"> m_info</text>
</g>
<!-- Node4 -->
<g id="node4" class="node">
<title>Node4</title>
<g id="a_node4"><a xlink:href="structamr__wind_1_1_field_info.html" target="_top" xlink:title="Information common to a field that has multiple states.">
<polygon fill="white" stroke="black" points="716.5,-63.5 716.5,-82.5 829.5,-82.5 829.5,-63.5 716.5,-63.5"/>
<text text-anchor="middle" x="773" y="-70.5" font-family="Helvetica,sans-Serif" font-size="10.00">amr_wind::FieldInfo</text>
</a>
</g>
</g>
<!-- Node4&#45;&gt;Node3 -->
<g id="edge3" class="edge">
<title>Node4&#45;&gt;Node3</title>
<path fill="none" stroke="#9a32cd" stroke-dasharray="5,2" d="M839.94,-73C878.72,-73 927.36,-73 964.89,-73"/>
<polygon fill="#9a32cd" stroke="#9a32cd" points="839.79,-69.5 829.79,-73 839.79,-76.5 839.79,-69.5"/>
<text text-anchor="middle" x="888.5" y="-76" font-family="Helvetica,sans-Serif" font-size="10.00"> ptr</text>
</g>
<!-- Node5 -->
<g id="node5" class="node">
<title>Node5</title>
<g id="a_node5"><a xlink:title=" ">
<polygon fill="white" stroke="#bfbfbf" points="385,-42 385,-72 554,-72 554,-42 385,-42"/>
<text text-anchor="start" x="393" y="-60" font-family="Helvetica,sans-Serif" font-size="10.00">std::unique_ptr&lt; amr</text>
<text text-anchor="middle" x="469.5" y="-49" font-family="Helvetica,sans-Serif" font-size="10.00">_wind::FieldFillPatchOpsBase &gt;</text>
</a>
</g>
</g>
<!-- Node5&#45;&gt;Node4 -->
<g id="edge4" class="edge">
<title>Node5&#45;&gt;Node4</title>
<path fill="none" stroke="#9a32cd" stroke-dasharray="5,2" d="M564.04,-53.56C604.14,-53.09 651.46,-53.85 694,-58 705.8,-59.15 718.48,-61.22 730.11,-63.46"/>
<polygon fill="#9a32cd" stroke="#9a32cd" points="563.95,-50.06 554,-53.71 564.05,-57.06 563.95,-50.06"/>
<text text-anchor="middle" x="633" y="-61" font-family="Helvetica,sans-Serif" font-size="10.00"> m_fillpatch_op</text>
</g>
<!-- Node6 -->
<g id="node6" class="node">
<title>Node6</title>
<g id="a_node6"><a xlink:href="classamr__wind_1_1_field_fill_patch_ops_base.html" target="_top" xlink:title="Abstract interface for classes that handle fill patch and physical boundary condition operations for ...">
<polygon fill="white" stroke="black" points="82,-33 82,-63 216,-63 216,-33 82,-33"/>
<text text-anchor="start" x="90" y="-51" font-family="Helvetica,sans-Serif" font-size="10.00">amr_wind::FieldFillPatch</text>
<text text-anchor="middle" x="149" y="-40" font-family="Helvetica,sans-Serif" font-size="10.00">OpsBase</text>
</a>
</g>
</g>
<!-- Node6&#45;&gt;Node5 -->
<g id="edge5" class="edge">
<title>Node6&#45;&gt;Node5</title>
<path fill="none" stroke="#9a32cd" stroke-dasharray="5,2" d="M226.07,-50.07C267.7,-51.21 320.19,-52.66 367,-54 372.82,-54.17 378.82,-54.34 384.86,-54.52"/>
<polygon fill="#9a32cd" stroke="#9a32cd" points="226.09,-46.57 216,-49.79 225.9,-53.56 226.09,-46.57"/>
<text text-anchor="middle" x="300.5" y="-57" font-family="Helvetica,sans-Serif" font-size="10.00"> ptr</text>
</g>
<!-- Node7 -->
<g id="node7" class="node">
<title>Node7</title>
<g id="a_node7"><a xlink:title="STL class.">
<polygon fill="white" stroke="#bfbfbf" points="90,-82.5 90,-101.5 208,-101.5 208,-82.5 90,-82.5"/>
<text text-anchor="middle" x="149" y="-89.5" font-family="Helvetica,sans-Serif" font-size="10.00">std::unique_ptr&lt; T &gt;</text>
</a>
</g>
</g>
<!-- Node7&#45;&gt;Node5 -->
<g id="edge6" class="edge">
<title>Node7&#45;&gt;Node5</title>
<path fill="none" stroke="orange" stroke-dasharray="5,2" d="M218.18,-84.51C266.92,-79.15 332.82,-71.91 384.77,-66.2"/>
<polygon fill="orange" stroke="orange" points="217.61,-81.05 208.05,-85.62 218.37,-88.01 217.61,-81.05"/>
<text text-anchor="start" x="234" y="-97" font-family="Helvetica,sans-Serif" font-size="10.00"> &lt; amr_wind::FieldFillPatch</text>
<text text-anchor="middle" x="300.5" y="-86" font-family="Helvetica,sans-Serif" font-size="10.00">OpsBase &gt;</text>
</g>
<!-- Node8 -->
<g id="node8" class="node">
<title>Node8</title>
<g id="a_node8"><a xlink:title=" ">
<polygon fill="white" stroke="#bfbfbf" points="0,-82.5 0,-101.5 29,-101.5 29,-82.5 0,-82.5"/>
<text text-anchor="middle" x="14.5" y="-89.5" font-family="Helvetica,sans-Serif" font-size="10.00">T</text>
</a>
</g>
</g>
<!-- Node8&#45;&gt;Node7 -->
<g id="edge7" class="edge">
<title>Node8&#45;&gt;Node7</title>
<path fill="none" stroke="#9a32cd" stroke-dasharray="5,2" d="M39.44,-92C53.53,-92 72.01,-92 89.72,-92"/>
<polygon fill="#9a32cd" stroke="#9a32cd" points="39.18,-88.5 29.18,-92 39.18,-95.5 39.18,-88.5"/>
<text text-anchor="middle" x="55.5" y="-95" font-family="Helvetica,sans-Serif" font-size="10.00"> ptr</text>
</g>
<!-- Node11 -->
<g id="node11" class="node">
<title>Node11</title>
<g id="a_node11"><a xlink:title="STL class.">
<polygon fill="white" stroke="#bfbfbf" points="241.5,-0.5 241.5,-19.5 359.5,-19.5 359.5,-0.5 241.5,-0.5"/>
<text text-anchor="middle" x="300.5" y="-7.5" font-family="Helvetica,sans-Serif" font-size="10.00">std::shared_ptr&lt; T &gt;</text>
</a>
</g>
</g>
<!-- Node8&#45;&gt;Node11 -->
<g id="edge11" class="edge">
<title>Node8&#45;&gt;Node11</title>
<path fill="none" stroke="#9a32cd" stroke-dasharray="5,2" d="M27.01,-73.91C38.66,-57.39 58.29,-33.93 82,-23 132.16,0.11 195.85,1.09 241.32,-2.34"/>
<polygon fill="#9a32cd" stroke="#9a32cd" points="24.08,-72 21.39,-82.25 29.88,-75.91 24.08,-72"/>
<text text-anchor="middle" x="55.5" y="-52" font-family="Helvetica,sans-Serif" font-size="10.00"> ptr</text>
</g>
<!-- Node14 -->
<g id="node14" class="node">
<title>Node14</title>
<g id="a_node14"><a xlink:title="STL class.">
<polygon fill="white" stroke="#bfbfbf" points="412.5,-169 412.5,-199 526.5,-199 526.5,-169 412.5,-169"/>
<text text-anchor="start" x="420.5" y="-187" font-family="Helvetica,sans-Serif" font-size="10.00">std::unordered_map</text>
<text text-anchor="middle" x="469.5" y="-176" font-family="Helvetica,sans-Serif" font-size="10.00">&lt; K, T &gt;</text>
</a>
</g>
</g>
<!-- Node8&#45;&gt;Node14 -->
<g id="edge18" class="edge">
<title>Node8&#45;&gt;Node14</title>
<path fill="none" stroke="#9a32cd" stroke-dasharray="5,2" d="M21.08,-111.39C29.57,-136.8 48.38,-180.31 82,-199 193.22,-260.83 351.56,-222.9 426.32,-199.03"/>
<polygon fill="#9a32cd" stroke="#9a32cd" points="24.39,-110.24 18.07,-101.74 17.71,-112.33 24.39,-110.24"/>
<text text-anchor="middle" x="149" y="-235" font-family="Helvetica,sans-Serif" font-size="10.00"> elements</text>
</g>
<!-- Node9 -->
<g id="node9" class="node">
<title>Node9</title>
<g id="a_node9"><a xlink:title="STL class.">
<polygon fill="white" stroke="#bfbfbf" points="437,-118.5 437,-137.5 502,-137.5 502,-118.5 437,-118.5"/>
<text text-anchor="middle" x="469.5" y="-125.5" font-family="Helvetica,sans-Serif" font-size="10.00">std::string</text>
</a>
</g>
</g>
<!-- Node9&#45;&gt;Node2 -->
<g id="edge12" class="edge">
<title>Node9&#45;&gt;Node2</title>
<path fill="none" stroke="#9a32cd" stroke-dasharray="5,2" d="M512.46,-126.83C657.28,-122.8 1135.58,-109.49 1286.77,-105.29"/>
<polygon fill="#9a32cd" stroke="#9a32cd" points="512.12,-123.34 502.22,-127.12 512.31,-130.34 512.12,-123.34"/>
<text text-anchor="middle" x="888.5" y="-121" font-family="Helvetica,sans-Serif" font-size="10.00"> m_name</text>
</g>
<!-- Node9&#45;&gt;Node4 -->
<g id="edge8" class="edge">
<title>Node9&#45;&gt;Node4</title>
<path fill="none" stroke="#9a32cd" stroke-dasharray="5,2" d="M502.03,-114.55C521.77,-106.7 547.95,-97.32 572,-92 620.02,-81.37 675.81,-76.69 716.25,-74.63"/>
<polygon fill="#9a32cd" stroke="#9a32cd" points="500.56,-111.37 492.61,-118.37 503.19,-117.85 500.56,-111.37"/>
<text text-anchor="middle" x="633" y="-95" font-family="Helvetica,sans-Serif" font-size="10.00"> m_basename</text>
</g>
<!-- Node13 -->
<g id="node13" class="node">
<title>Node13</title>
<g id="a_node13"><a xlink:title=" ">
<polygon fill="white" stroke="#bfbfbf" points="712,-146 712,-176 834,-176 834,-146 712,-146"/>
<text text-anchor="start" x="720" y="-164" font-family="Helvetica,sans-Serif" font-size="10.00">std::unordered_map</text>
<text text-anchor="middle" x="773" y="-153" font-family="Helvetica,sans-Serif" font-size="10.00">&lt; std::string, size_t &gt;</text>
</a>
</g>
</g>
<!-- Node9&#45;&gt;Node13 -->
<g id="edge15" class="edge">
<title>Node9&#45;&gt;Node13</title>
<path fill="none" stroke="#9a32cd" stroke-dasharray="5,2" d="M512.35,-132.58C564.12,-138.25 652.64,-147.94 711.72,-154.4"/>
<polygon fill="#9a32cd" stroke="#9a32cd" points="512.52,-129.08 502.2,-131.47 511.76,-136.04 512.52,-129.08"/>
<text text-anchor="middle" x="633" y="-156" font-family="Helvetica,sans-Serif" font-size="10.00"> keys</text>
</g>
<!-- Node10 -->
<g id="node10" class="node">
<title>Node10</title>
<g id="a_node10"><a xlink:title="STL class.">
<polygon fill="white" stroke="#bfbfbf" points="97,-121 97,-151 201,-151 201,-121 97,-121"/>
<text text-anchor="start" x="105" y="-139" font-family="Helvetica,sans-Serif" font-size="10.00">std::basic_string&lt;</text>
<text text-anchor="middle" x="149" y="-128" font-family="Helvetica,sans-Serif" font-size="10.00"> char &gt;</text>
</a>
</g>
</g>
<!-- Node10&#45;&gt;Node9 -->
<g id="edge9" class="edge">
<title>Node10&#45;&gt;Node9</title>
<path fill="none" stroke="midnightblue" d="M211.24,-134.46C278.64,-132.77 384.37,-130.11 436.81,-128.8"/>
<polygon fill="midnightblue" stroke="midnightblue" points="211.08,-130.96 201.17,-134.71 211.26,-137.96 211.08,-130.96"/>
</g>
<!-- Node11&#45;&gt;Node3 -->
<g id="edge10" class="edge">
<title>Node11&#45;&gt;Node3</title>
<path fill="none" stroke="orange" stroke-dasharray="5,2" d="M369.95,-14.46C448.31,-19.7 580.5,-28.96 694,-39 788.81,-47.38 898.72,-59.11 964.73,-66.37"/>
<polygon fill="orange" stroke="orange" points="369.94,-10.95 359.73,-13.77 369.48,-17.93 369.94,-10.95"/>
<text text-anchor="middle" x="633" y="-42" font-family="Helvetica,sans-Serif" font-size="10.00"> &lt; amr_wind::FieldInfo &gt;</text>
</g>
<!-- Node12 -->
<g id="node12" class="node">
<title>Node12</title>
<g id="a_node12"><a xlink:href="classamr__wind_1_1_field_repo.html" target="_top" xlink:title="Field Repository.">
<polygon fill="white" stroke="black" points="965.5,-148.5 965.5,-167.5 1084.5,-167.5 1084.5,-148.5 965.5,-148.5"/>
<text text-anchor="middle" x="1025" y="-155.5" font-family="Helvetica,sans-Serif" font-size="10.00">amr_wind::FieldRepo</text>
</a>
</g>
</g>
<!-- Node12&#45;&gt;Node2 -->
<g id="edge13" class="edge">
<title>Node12&#45;&gt;Node2</title>
<path fill="none" stroke="#9a32cd" stroke-dasharray="5,2" d="M1094.97,-152.95C1139.08,-148.9 1197.32,-142.03 1248,-131 1268.27,-126.59 1290.61,-119.4 1307.3,-113.55"/>
<polygon fill="#9a32cd" stroke="#9a32cd" points="1094.58,-149.47 1084.93,-153.85 1095.2,-156.44 1094.58,-149.47"/>
<text text-anchor="middle" x="1186.5" y="-153" font-family="Helvetica,sans-Serif" font-size="10.00"> m_repo</text>
</g>
<!-- Node13&#45;&gt;Node12 -->
<g id="edge14" class="edge">
<title>Node13&#45;&gt;Node12</title>
<path fill="none" stroke="#9a32cd" stroke-dasharray="5,2" d="M844.21,-160.16C882.35,-159.7 928.97,-159.14 965.19,-158.71"/>
<polygon fill="#9a32cd" stroke="#9a32cd" points="844.16,-156.66 834.2,-160.28 844.24,-163.66 844.16,-156.66"/>
<text text-anchor="middle" x="888.5" y="-175" font-family="Helvetica,sans-Serif" font-size="10.00"> m_fid_map</text>
<text text-anchor="middle" x="888.5" y="-164" font-family="Helvetica,sans-Serif" font-size="10.00">m_int_fid_map</text>
</g>
<!-- Node14&#45;&gt;Node13 -->
<g id="edge16" class="edge">
<title>Node14&#45;&gt;Node13</title>
<path fill="none" stroke="orange" stroke-dasharray="5,2" d="M536.68,-178.95C588.95,-174.96 661.28,-169.45 711.9,-165.58"/>
<polygon fill="orange" stroke="orange" points="536.21,-175.48 526.5,-179.73 536.74,-182.46 536.21,-175.48"/>
<text text-anchor="middle" x="633" y="-179" font-family="Helvetica,sans-Serif" font-size="10.00"> &lt; std::string, size_t &gt;</text>
</g>
<!-- Node15 -->
<g id="node15" class="node">
<title>Node15</title>
<g id="a_node15"><a xlink:title=" ">
<polygon fill="white" stroke="#bfbfbf" points="134.5,-170.5 134.5,-189.5 163.5,-189.5 163.5,-170.5 134.5,-170.5"/>
<text text-anchor="middle" x="149" y="-177.5" font-family="Helvetica,sans-Serif" font-size="10.00">K</text>
</a>
</g>
</g>
<!-- Node15&#45;&gt;Node14 -->
<g id="edge17" class="edge">
<title>Node15&#45;&gt;Node14</title>
<path fill="none" stroke="#9a32cd" stroke-dasharray="5,2" d="M173.87,-180.3C224.1,-180.93 341.85,-182.41 412.34,-183.29"/>
<polygon fill="#9a32cd" stroke="#9a32cd" points="173.73,-176.8 163.69,-180.17 173.64,-183.8 173.73,-176.8"/>
<text text-anchor="middle" x="300.5" y="-186" font-family="Helvetica,sans-Serif" font-size="10.00"> keys</text>
</g>
<!-- Node16 -->
<g id="node16" class="node">
<title>Node16</title>
<g id="a_node16"><a xlink:href="classamr__wind_1_1actuator_1_1ops_1_1_spreading_function.html" target="_top" xlink:title=" ">
<polygon fill="white" stroke="black" points="1266,-34.5 1266,-75.5 1402,-75.5 1402,-34.5 1266,-34.5"/>
<text text-anchor="start" x="1274" y="-63.5" font-family="Helvetica,sans-Serif" font-size="10.00">amr_wind::actuator</text>
<text text-anchor="start" x="1274" y="-52.5" font-family="Helvetica,sans-Serif" font-size="10.00">::ops::SpreadingFunction</text>
<text text-anchor="middle" x="1334" y="-41.5" font-family="Helvetica,sans-Serif" font-size="10.00">&lt; MyType&lt; ActTrait &gt; &gt;</text>
</a>
</g>
</g>
<!-- Node16&#45;&gt;Node1 -->
<g id="edge19" class="edge">
<title>Node16&#45;&gt;Node1</title>
<path fill="none" stroke="#9a32cd" stroke-dasharray="5,2" d="M1412.13,-60.59C1436.13,-62.47 1462.67,-64.68 1487,-67 1492.86,-67.56 1498.9,-68.16 1504.98,-68.79"/>
<polygon fill="#9a32cd" stroke="#9a32cd" points="1412.25,-57.09 1402.01,-59.81 1411.71,-64.07 1412.25,-57.09"/>
<text text-anchor="middle" x="1453.5" y="-70" font-family="Helvetica,sans-Serif" font-size="10.00"> m_spreading</text>
</g>
<!-- Node17 -->
<g id="node17" class="node">
<title>Node17</title>
<g id="a_node17"><a xlink:href="classamr__wind_1_1actuator_1_1ops_1_1_spreading_function.html" target="_top" xlink:title="A collection of spreading functions This class allows for polymorphic spreading functions.">
<polygon fill="white" stroke="black" points="943,-9 943,-39 1107,-39 1107,-9 943,-9"/>
<text text-anchor="start" x="951" y="-27" font-family="Helvetica,sans-Serif" font-size="10.00">amr_wind::actuator</text>
<text text-anchor="middle" x="1025" y="-16" font-family="Helvetica,sans-Serif" font-size="10.00">::ops::SpreadingFunction&lt; T &gt;</text>
</a>
</g>
</g>
<!-- Node17&#45;&gt;Node16 -->
<g id="edge20" class="edge">
<title>Node17&#45;&gt;Node16</title>
<path fill="none" stroke="orange" stroke-dasharray="5,2" d="M1117.08,-33.2C1164.77,-38.01 1222.14,-43.81 1265.76,-48.21"/>
<polygon fill="orange" stroke="orange" points="1117.36,-29.71 1107.06,-32.19 1116.66,-36.67 1117.36,-29.71"/>
<text text-anchor="middle" x="1186.5" y="-49" font-family="Helvetica,sans-Serif" font-size="10.00"> &lt; MyType&lt; ActTrait &gt; &gt;</text>
</g>
</g>
</svg>
        <g id="navigator" transform="translate(0 0)" fill="#404254">
                <rect fill="#f2f5e9" fill-opacity="0.5" stroke="#606060" stroke-width=".5" x="0" y="0" width="60" height="60"/>
                <use id="zoomplus" xlink:href="#zoomPlus" x="17" y="9" onmousedown="handleZoom(evt,'in')"/>
                <use id="zoomminus" xlink:href="#zoomMin" x="42" y="9" onmousedown="handleZoom(evt,'out')"/>
                <use id="reset" xlink:href="#resetDef" x="30" y="36" onmousedown="handleReset()"/>
                <g id="arrowUp" xlink:href="#dirArrow" transform="translate(30 24)" onmousedown="handlePan(0,-1)">
                  <use xlink:href="#rim" fill="#404040">
                        <set attributeName="fill" to="#808080" begin="arrowUp.mouseover" end="arrowUp.mouseout"/>
                  </use>
                  <path fill="none" stroke="white" stroke-width="1.5" d="M0,-3.0v7 M-2.5,-0.5L0,-3.0L2.5,-0.5"/>
                </g>
                <g id="arrowRight" xlink:href="#dirArrow" transform="rotate(90) translate(36 -43)" onmousedown="handlePan(1,0)">
                  <use xlink:href="#rim" fill="#404040">
                        <set attributeName="fill" to="#808080" begin="arrowRight.mouseover" end="arrowRight.mouseout"/>
                  </use>
                  <path fill="none" stroke="white" stroke-width="1.5" d="M0,-3.0v7 M-2.5,-0.5L0,-3.0L2.5,-0.5"/>
                </g>
                <g id="arrowDown" xlink:href="#dirArrow" transform="rotate(180) translate(-30 -48)" onmousedown="handlePan(0,1)">
                  <use xlink:href="#rim" fill="#404040">
                        <set attributeName="fill" to="#808080" begin="arrowDown.mouseover" end="arrowDown.mouseout"/>
                  </use>
                  <path fill="none" stroke="white" stroke-width="1.5" d="M0,-3.0v7 M-2.5,-0.5L0,-3.0L2.5,-0.5"/>
                </g>
                <g id="arrowLeft" xlink:href="#dirArrow" transform="rotate(270) translate(-36 17)" onmousedown="handlePan(-1,0)">
                  <use xlink:href="#rim" fill="#404040">
                        <set attributeName="fill" to="#808080" begin="arrowLeft.mouseover" end="arrowLeft.mouseout"/>
                  </use>
                  <path fill="none" stroke="white" stroke-width="1.5" d="M0,-3.0v7 M-2.5,-0.5L0,-3.0L2.5,-0.5"/>
                </g>
        </g>
        <svg viewBox="0 0 15 15" width="100%" height="30px" preserveAspectRatio="xMaxYMin meet">
         <g id="arrow_out" transform="scale(0.3 0.3)">
          <a xlink:href="classamr__wind_1_1actuator_1_1ops_1_1_act_src_op_3_01_act_trait_00_01_act_src_disk_00_01std_1_1e57148614a008fe5b184ef05446a27515_org.svg" target="_base">
           <rect id="button" ry="5" rx="5" y="6" x="6" height="38" width="38"
                fill="#f2f5e9" fill-opacity="0.5" stroke="#606060" stroke-width="1.0"/>
           <path id="arrow"
             d="M 11.500037,31.436501 C 11.940474,20.09759 22.043105,11.32322 32.158766,21.979434 L 37.068811,17.246167 C 37.068811,17.246167 37.088388,32 37.088388,32 L 22.160133,31.978069 C 22.160133,31.978069 26.997745,27.140456 26.997745,27.140456 C 18.528582,18.264221 13.291696,25.230495 11.500037,31.436501 z"
             style="fill:#404040;"/>
          </a>
         </g>
        </svg>
</svg>
