<?xml version="1.0" encoding="UTF-8" standalone="no"?>
<!DOCTYPE svg PUBLIC "-//W3C//DTD SVG 1.1//EN"
 "http://www.w3.org/Graphics/SVG/1.1/DTD/svg11.dtd">
<!-- Generated by graphviz version 2.43.0 (0)
 -->
<!-- Title: amr_wind::pde::ICNSDiffTensorOp Pages: 1 -->
<svg width="2325pt" height="352pt"
 viewBox="0.00 0.00 2325.00 351.50" xmlns="http://www.w3.org/2000/svg" xmlns:xlink="http://www.w3.org/1999/xlink">
<g id="graph0" class="graph" transform="scale(1 1) rotate(0) translate(4 347.5)">
<title>amr_wind::pde::ICNSDiffTensorOp</title>
<polygon fill="white" stroke="transparent" points="-4,4 -4,-347.5 2321,-347.5 2321,4 -4,4"/>
<!-- Node1 -->
<g id="node1" class="node">
<title>Node1</title>
<g id="a_node1"><a xlink:title=" ">
<polygon fill="#bfbfbf" stroke="black" points="2137,-155 2137,-174 2317,-174 2317,-155 2137,-155"/>
<text text-anchor="middle" x="2227" y="-162" font-family="Helvetica,sans-Serif" font-size="10.00">amr_wind::pde::ICNSDiffTensorOp</text>
</a>
</g>
</g>
<!-- Node2 -->
<g id="node2" class="node">
<title>Node2</title>
<g id="a_node2"><a xlink:href="classamr__wind_1_1pde_1_1_diff_solver_iface.html" target="_top" xlink:title=" ">
<polygon fill="white" stroke="black" points="1941,-149.5 1941,-179.5 2100,-179.5 2100,-149.5 1941,-149.5"/>
<text text-anchor="start" x="1949" y="-167.5" font-family="Helvetica,sans-Serif" font-size="10.00">amr_wind::pde::DiffSolver</text>
<text text-anchor="middle" x="2020.5" y="-156.5" font-family="Helvetica,sans-Serif" font-size="10.00">Iface&lt; amrex::MLTensorOp &gt;</text>
</a>
</g>
</g>
<!-- Node2&#45;&gt;Node1 -->
<g id="edge1" class="edge">
<title>Node2&#45;&gt;Node1</title>
<path fill="none" stroke="midnightblue" d="M2110.43,-164.5C2119.14,-164.5 2127.99,-164.5 2136.71,-164.5"/>
<polygon fill="midnightblue" stroke="midnightblue" points="2110.27,-161 2100.27,-164.5 2110.27,-168 2110.27,-161"/>
</g>
<!-- Node3 -->
<g id="node3" class="node">
<title>Node3</title>
<g id="a_node3"><a xlink:title=" ">
<polygon fill="white" stroke="#bfbfbf" points="572,-0.5 572,-30.5 704,-30.5 704,-0.5 572,-0.5"/>
<text text-anchor="start" x="580" y="-18.5" font-family="Helvetica,sans-Serif" font-size="10.00">std::unique_ptr&lt; amrex</text>
<text text-anchor="middle" x="638" y="-7.5" font-family="Helvetica,sans-Serif" font-size="10.00">::MLTensorOp &gt;</text>
</a>
</g>
</g>
<!-- Node3&#45;&gt;Node2 -->
<g id="edge2" class="edge">
<title>Node3&#45;&gt;Node2</title>
<path fill="none" stroke="#9a32cd" stroke-dasharray="5,2" d="M714.58,-15.5C773.53,-15.5 857.47,-15.5 931,-15.5 931,-15.5 931,-15.5 1712.5,-15.5 1834.25,-15.5 1958.36,-111.51 2002.59,-149.39"/>
<polygon fill="#9a32cd" stroke="#9a32cd" points="714.23,-12 704.23,-15.5 714.23,-19 714.23,-12"/>
<text text-anchor="middle" x="1263" y="-29.5" font-family="Helvetica,sans-Serif" font-size="10.00"> m_applier</text>
<text text-anchor="middle" x="1263" y="-18.5" font-family="Helvetica,sans-Serif" font-size="10.00">m_solver</text>
</g>
<!-- Node4 -->
<g id="node4" class="node">
<title>Node4</title>
<g id="a_node4"><a xlink:title="STL class.">
<polygon fill="white" stroke="#bfbfbf" points="90,-69 90,-88 208,-88 208,-69 90,-69"/>
<text text-anchor="middle" x="149" y="-76" font-family="Helvetica,sans-Serif" font-size="10.00">std::unique_ptr&lt; T &gt;</text>
</a>
</g>
</g>
<!-- Node4&#45;&gt;Node3 -->
<g id="edge3" class="edge">
<title>Node4&#45;&gt;Node3</title>
<path fill="none" stroke="orange" stroke-dasharray="5,2" d="M173.25,-63.6C189.56,-53.98 212.25,-42.23 234,-36.5 350.01,-5.9 491.15,-6.85 571.88,-10.82"/>
<polygon fill="orange" stroke="orange" points="171.16,-60.77 164.44,-68.95 174.8,-66.75 171.16,-60.77"/>
<text text-anchor="middle" x="300.5" y="-39.5" font-family="Helvetica,sans-Serif" font-size="10.00"> &lt; amrex::MLTensorOp &gt;</text>
</g>
<!-- Node9 -->
<g id="node9" class="node">
<title>Node9</title>
<g id="a_node9"><a xlink:title=" ">
<polygon fill="white" stroke="#bfbfbf" points="385,-91.5 385,-121.5 554,-121.5 554,-91.5 385,-91.5"/>
<text text-anchor="start" x="393" y="-109.5" font-family="Helvetica,sans-Serif" font-size="10.00">std::unique_ptr&lt; amr</text>
<text text-anchor="middle" x="469.5" y="-98.5" font-family="Helvetica,sans-Serif" font-size="10.00">_wind::FieldFillPatchOpsBase &gt;</text>
</a>
</g>
</g>
<!-- Node4&#45;&gt;Node9 -->
<g id="edge10" class="edge">
<title>Node4&#45;&gt;Node9</title>
<path fill="none" stroke="orange" stroke-dasharray="5,2" d="M218.08,-83.31C260.86,-86.46 317.19,-90.85 367,-95.5 372.82,-96.04 378.83,-96.63 384.88,-97.24"/>
<polygon fill="orange" stroke="orange" points="218.29,-79.82 208.07,-82.58 217.78,-86.8 218.29,-79.82"/>
<text text-anchor="start" x="234" y="-109.5" font-family="Helvetica,sans-Serif" font-size="10.00"> &lt; amr_wind::FieldFillPatch</text>
<text text-anchor="middle" x="300.5" y="-98.5" font-family="Helvetica,sans-Serif" font-size="10.00">OpsBase &gt;</text>
</g>
<!-- Node21 -->
<g id="node21" class="node">
<title>Node21</title>
<g id="a_node21"><a xlink:title=" ">
<polygon fill="white" stroke="#bfbfbf" points="862,-58 862,-77 1002,-77 1002,-58 862,-58"/>
<text text-anchor="middle" x="932" y="-65" font-family="Helvetica,sans-Serif" font-size="10.00">std::unique_ptr&lt; LinOp &gt;</text>
</a>
</g>
</g>
<!-- Node4&#45;&gt;Node21 -->
<g id="edge30" class="edge">
<title>Node4&#45;&gt;Node21</title>
<path fill="none" stroke="orange" stroke-dasharray="5,2" d="M218.45,-75.65C265.33,-73.83 328.91,-71.61 385,-70.5 556.31,-67.11 757.9,-67.01 861.61,-67.25"/>
<polygon fill="orange" stroke="orange" points="218.27,-72.16 208.42,-76.05 218.54,-79.15 218.27,-72.16"/>
<text text-anchor="middle" x="469.5" y="-73.5" font-family="Helvetica,sans-Serif" font-size="10.00"> &lt; LinOp &gt;</text>
</g>
<!-- Node5 -->
<g id="node5" class="node">
<title>Node5</title>
<g id="a_node5"><a xlink:title=" ">
<polygon fill="white" stroke="#bfbfbf" points="0,-174 0,-193 29,-193 29,-174 0,-174"/>
<text text-anchor="middle" x="14.5" y="-181" font-family="Helvetica,sans-Serif" font-size="10.00">T</text>
</a>
</g>
</g>
<!-- Node5&#45;&gt;Node4 -->
<g id="edge4" class="edge">
<title>Node5&#45;&gt;Node4</title>
<path fill="none" stroke="#9a32cd" stroke-dasharray="5,2" d="M31.73,-166.44C36.63,-161.31 42.02,-155.67 47,-150.5 62.48,-134.43 64.23,-127.99 82,-114.5 95.93,-103.92 113.36,-94.56 126.81,-88.03"/>
<polygon fill="#9a32cd" stroke="#9a32cd" points="28.94,-164.29 24.57,-173.95 34.01,-169.12 28.94,-164.29"/>
<text text-anchor="middle" x="55.5" y="-153.5" font-family="Helvetica,sans-Serif" font-size="10.00"> ptr</text>
</g>
<!-- Node13 -->
<g id="node13" class="node">
<title>Node13</title>
<g id="a_node13"><a xlink:title="STL class.">
<polygon fill="white" stroke="#bfbfbf" points="241.5,-174 241.5,-193 359.5,-193 359.5,-174 241.5,-174"/>
<text text-anchor="middle" x="300.5" y="-181" font-family="Helvetica,sans-Serif" font-size="10.00">std::shared_ptr&lt; T &gt;</text>
</a>
</g>
</g>
<!-- Node5&#45;&gt;Node13 -->
<g id="edge14" class="edge">
<title>Node5&#45;&gt;Node13</title>
<path fill="none" stroke="#9a32cd" stroke-dasharray="5,2" d="M39.24,-183.5C83.32,-183.5 178.98,-183.5 241.24,-183.5"/>
<polygon fill="#9a32cd" stroke="#9a32cd" points="39.2,-180 29.2,-183.5 39.2,-187 39.2,-180"/>
<text text-anchor="middle" x="55.5" y="-186.5" font-family="Helvetica,sans-Serif" font-size="10.00"> ptr</text>
</g>
<!-- Node16 -->
<g id="node16" class="node">
<title>Node16</title>
<g id="a_node16"><a xlink:title="STL class.">
<polygon fill="white" stroke="#bfbfbf" points="412.5,-295.5 412.5,-325.5 526.5,-325.5 526.5,-295.5 412.5,-295.5"/>
<text text-anchor="start" x="420.5" y="-313.5" font-family="Helvetica,sans-Serif" font-size="10.00">std::unordered_map</text>
<text text-anchor="middle" x="469.5" y="-302.5" font-family="Helvetica,sans-Serif" font-size="10.00">&lt; K, T &gt;</text>
</a>
</g>
</g>
<!-- Node5&#45;&gt;Node16 -->
<g id="edge21" class="edge">
<title>Node5&#45;&gt;Node16</title>
<path fill="none" stroke="#9a32cd" stroke-dasharray="5,2" d="M21.45,-202.81C30.26,-227.79 49.35,-270.48 82,-290.5 184.53,-353.37 332.64,-338.1 412.46,-323.22"/>
<polygon fill="#9a32cd" stroke="#9a32cd" points="24.67,-201.4 18.2,-193.01 18.02,-203.61 24.67,-201.4"/>
<text text-anchor="middle" x="149" y="-335.5" font-family="Helvetica,sans-Serif" font-size="10.00"> elements</text>
</g>
<!-- Node6 -->
<g id="node6" class="node">
<title>Node6</title>
<g id="a_node6"><a xlink:href="classamr__wind_1_1_field.html" target="_top" xlink:title="Computational field.">
<polygon fill="white" stroke="black" points="1216,-217 1216,-236 1310,-236 1310,-217 1216,-217"/>
<text text-anchor="middle" x="1263" y="-224" font-family="Helvetica,sans-Serif" font-size="10.00">amr_wind::Field</text>
</a>
</g>
</g>
<!-- Node6&#45;&gt;Node2 -->
<g id="edge5" class="edge">
<title>Node6&#45;&gt;Node2</title>
<path fill="none" stroke="#9a32cd" stroke-dasharray="5,2" d="M1284.76,-241.79C1296.74,-249.66 1312.47,-258.43 1328,-262.5 1350.36,-268.36 1356.91,-263.53 1380,-262.5 1622.66,-251.68 1688.92,-265.37 1923,-200.5 1943.51,-194.82 1965.8,-186.64 1983.79,-179.51"/>
<polygon fill="#9a32cd" stroke="#9a32cd" points="1286.61,-238.82 1276.39,-236.04 1282.65,-244.59 1286.61,-238.82"/>
<text text-anchor="middle" x="1590.5" y="-259.5" font-family="Helvetica,sans-Serif" font-size="10.00"> m_density</text>
</g>
<!-- Node19 -->
<g id="node19" class="node">
<title>Node19</title>
<g id="a_node19"><a xlink:href="structamr__wind_1_1pde_1_1_p_d_e_fields.html" target="_top" xlink:title="Collection of fields related to a PDE.">
<polygon fill="white" stroke="black" points="1398,-211 1398,-230 1541,-230 1541,-211 1398,-211"/>
<text text-anchor="middle" x="1469.5" y="-218" font-family="Helvetica,sans-Serif" font-size="10.00">amr_wind::pde::PDEFields</text>
</a>
</g>
</g>
<!-- Node6&#45;&gt;Node19 -->
<g id="edge25" class="edge">
<title>Node6&#45;&gt;Node19</title>
<path fill="none" stroke="#9a32cd" stroke-dasharray="5,2" d="M1299.39,-214.02C1308.59,-211.32 1318.57,-208.87 1328,-207.5 1359.88,-202.87 1396.08,-206.42 1423.75,-210.98"/>
<polygon fill="#9a32cd" stroke="#9a32cd" points="1298.29,-210.69 1289.77,-217 1300.36,-217.38 1298.29,-210.69"/>
<text text-anchor="middle" x="1354" y="-254.5" font-family="Helvetica,sans-Serif" font-size="10.00"> src_term</text>
<text text-anchor="middle" x="1354" y="-243.5" font-family="Helvetica,sans-Serif" font-size="10.00">field</text>
<text text-anchor="middle" x="1354" y="-232.5" font-family="Helvetica,sans-Serif" font-size="10.00">diff_term</text>
<text text-anchor="middle" x="1354" y="-221.5" font-family="Helvetica,sans-Serif" font-size="10.00">mueff</text>
<text text-anchor="middle" x="1354" y="-210.5" font-family="Helvetica,sans-Serif" font-size="10.00">conv_term</text>
</g>
<!-- Node20 -->
<g id="node20" class="node">
<title>Node20</title>
<g id="a_node20"><a xlink:href="classamr__wind_1_1pde_1_1_diff_solver_iface.html" target="_top" xlink:title="Base class for all diffusion operators.">
<polygon fill="white" stroke="black" points="1640,-149.5 1640,-179.5 1783,-179.5 1783,-149.5 1640,-149.5"/>
<text text-anchor="start" x="1648" y="-167.5" font-family="Helvetica,sans-Serif" font-size="10.00">amr_wind::pde::DiffSolver</text>
<text text-anchor="middle" x="1711.5" y="-156.5" font-family="Helvetica,sans-Serif" font-size="10.00">Iface&lt; LinOp &gt;</text>
</a>
</g>
</g>
<!-- Node6&#45;&gt;Node20 -->
<g id="edge28" class="edge">
<title>Node6&#45;&gt;Node20</title>
<path fill="none" stroke="#9a32cd" stroke-dasharray="5,2" d="M1293.34,-212.83C1304.05,-208.31 1316.39,-203.64 1328,-200.5 1434.08,-171.84 1562.04,-165.16 1639.79,-164.04"/>
<polygon fill="#9a32cd" stroke="#9a32cd" points="1291.79,-209.68 1284.03,-216.89 1294.59,-216.1 1291.79,-209.68"/>
<text text-anchor="middle" x="1469.5" y="-187.5" font-family="Helvetica,sans-Serif" font-size="10.00"> m_density</text>
</g>
<!-- Node7 -->
<g id="node7" class="node">
<title>Node7</title>
<g id="a_node7"><a xlink:title=" ">
<polygon fill="white" stroke="#bfbfbf" points="1020,-184.5 1020,-214.5 1140,-214.5 1140,-184.5 1020,-184.5"/>
<text text-anchor="start" x="1028" y="-202.5" font-family="Helvetica,sans-Serif" font-size="10.00">std::shared_ptr&lt; amr</text>
<text text-anchor="middle" x="1080" y="-191.5" font-family="Helvetica,sans-Serif" font-size="10.00">_wind::FieldInfo &gt;</text>
</a>
</g>
</g>
<!-- Node7&#45;&gt;Node6 -->
<g id="edge6" class="edge">
<title>Node7&#45;&gt;Node6</title>
<path fill="none" stroke="#9a32cd" stroke-dasharray="5,2" d="M1150.21,-209.82C1172.16,-213.1 1195.88,-216.64 1215.81,-219.61"/>
<polygon fill="#9a32cd" stroke="#9a32cd" points="1150.67,-206.35 1140.27,-208.34 1149.64,-213.28 1150.67,-206.35"/>
<text text-anchor="middle" x="1178" y="-218.5" font-family="Helvetica,sans-Serif" font-size="10.00"> m_info</text>
</g>
<!-- Node8 -->
<g id="node8" class="node">
<title>Node8</title>
<g id="a_node8"><a xlink:href="structamr__wind_1_1_field_info.html" target="_top" xlink:title="Information common to a field that has multiple states.">
<polygon fill="white" stroke="black" points="726.5,-152 726.5,-171 839.5,-171 839.5,-152 726.5,-152"/>
<text text-anchor="middle" x="783" y="-159" font-family="Helvetica,sans-Serif" font-size="10.00">amr_wind::FieldInfo</text>
</a>
</g>
</g>
<!-- Node8&#45;&gt;Node7 -->
<g id="edge7" class="edge">
<title>Node8&#45;&gt;Node7</title>
<path fill="none" stroke="#9a32cd" stroke-dasharray="5,2" d="M849.75,-161.09C893.29,-161.87 951.47,-164.95 1002,-174.5 1014.29,-176.82 1027.34,-180.55 1039.14,-184.43"/>
<polygon fill="#9a32cd" stroke="#9a32cd" points="849.63,-157.58 839.58,-160.94 849.53,-164.58 849.63,-157.58"/>
<text text-anchor="middle" x="932" y="-177.5" font-family="Helvetica,sans-Serif" font-size="10.00"> ptr</text>
</g>
<!-- Node9&#45;&gt;Node8 -->
<g id="edge8" class="edge">
<title>Node9&#45;&gt;Node8</title>
<path fill="none" stroke="#9a32cd" stroke-dasharray="5,2" d="M564.56,-123.11C617.98,-132.54 682.96,-144.01 727.89,-151.95"/>
<polygon fill="#9a32cd" stroke="#9a32cd" points="564.84,-119.6 554.39,-121.31 563.63,-126.5 564.84,-119.6"/>
<text text-anchor="middle" x="638" y="-150.5" font-family="Helvetica,sans-Serif" font-size="10.00"> m_fillpatch_op</text>
</g>
<!-- Node10 -->
<g id="node10" class="node">
<title>Node10</title>
<g id="a_node10"><a xlink:href="classamr__wind_1_1_field_fill_patch_ops_base.html" target="_top" xlink:title="Abstract interface for classes that handle fill patch and physical boundary condition operations for ...">
<polygon fill="white" stroke="black" points="82,-124.5 82,-154.5 216,-154.5 216,-124.5 82,-124.5"/>
<text text-anchor="start" x="90" y="-142.5" font-family="Helvetica,sans-Serif" font-size="10.00">amr_wind::FieldFillPatch</text>
<text text-anchor="middle" x="149" y="-131.5" font-family="Helvetica,sans-Serif" font-size="10.00">OpsBase</text>
</a>
</g>
</g>
<!-- Node10&#45;&gt;Node9 -->
<g id="edge9" class="edge">
<title>Node10&#45;&gt;Node9</title>
<path fill="none" stroke="#9a32cd" stroke-dasharray="5,2" d="M226.08,-131.92C267.71,-127.73 320.21,-122.41 367,-117.5 372.82,-116.89 378.82,-116.25 384.87,-115.61"/>
<polygon fill="#9a32cd" stroke="#9a32cd" points="225.61,-128.45 216.01,-132.93 226.31,-135.41 225.61,-128.45"/>
<text text-anchor="middle" x="300.5" y="-134.5" font-family="Helvetica,sans-Serif" font-size="10.00"> ptr</text>
</g>
<!-- Node11 -->
<g id="node11" class="node">
<title>Node11</title>
<g id="a_node11"><a xlink:title="STL class.">
<polygon fill="white" stroke="#bfbfbf" points="437,-218 437,-237 502,-237 502,-218 437,-218"/>
<text text-anchor="middle" x="469.5" y="-225" font-family="Helvetica,sans-Serif" font-size="10.00">std::string</text>
</a>
</g>
</g>
<!-- Node11&#45;&gt;Node6 -->
<g id="edge15" class="edge">
<title>Node11&#45;&gt;Node6</title>
<path fill="none" stroke="#9a32cd" stroke-dasharray="5,2" d="M512.13,-228.51C530.48,-228.9 552.31,-229.31 572,-229.5 850.21,-232.24 919.85,-236.02 1198,-229.5 1203.78,-229.36 1209.86,-229.16 1215.87,-228.92"/>
<polygon fill="#9a32cd" stroke="#9a32cd" points="512.12,-225 502.04,-228.28 511.96,-232 512.12,-225"/>
<text text-anchor="middle" x="932" y="-235.5" font-family="Helvetica,sans-Serif" font-size="10.00"> m_name</text>
</g>
<!-- Node11&#45;&gt;Node8 -->
<g id="edge11" class="edge">
<title>Node11&#45;&gt;Node8</title>
<path fill="none" stroke="#9a32cd" stroke-dasharray="5,2" d="M512.17,-223.18C569.3,-217.02 668.86,-205.36 704,-195.5 725.33,-189.51 748.45,-178.87 763.93,-171.08"/>
<polygon fill="#9a32cd" stroke="#9a32cd" points="511.6,-219.72 502.03,-224.26 512.34,-226.68 511.6,-219.72"/>
<text text-anchor="middle" x="638" y="-218.5" font-family="Helvetica,sans-Serif" font-size="10.00"> m_basename</text>
</g>
<!-- Node15 -->
<g id="node15" class="node">
<title>Node15</title>
<g id="a_node15"><a xlink:title=" ">
<polygon fill="white" stroke="#bfbfbf" points="722,-279.5 722,-309.5 844,-309.5 844,-279.5 722,-279.5"/>
<text text-anchor="start" x="730" y="-297.5" font-family="Helvetica,sans-Serif" font-size="10.00">std::unordered_map</text>
<text text-anchor="middle" x="783" y="-286.5" font-family="Helvetica,sans-Serif" font-size="10.00">&lt; std::string, size_t &gt;</text>
</a>
</g>
</g>
<!-- Node11&#45;&gt;Node15 -->
<g id="edge18" class="edge">
<title>Node11&#45;&gt;Node15</title>
<path fill="none" stroke="#9a32cd" stroke-dasharray="5,2" d="M512.12,-239.29C530.42,-244.29 552.2,-249.99 572,-254.5 622.12,-265.92 679.47,-276.69 721.57,-284.18"/>
<polygon fill="#9a32cd" stroke="#9a32cd" points="512.92,-235.88 502.35,-236.6 511.07,-242.63 512.92,-235.88"/>
<text text-anchor="middle" x="638" y="-283.5" font-family="Helvetica,sans-Serif" font-size="10.00"> keys</text>
</g>
<!-- Node18 -->
<g id="node18" class="node">
<title>Node18</title>
<g id="a_node18"><a xlink:href="structamr__wind_1_1_m_l_m_g_options.html" target="_top" xlink:title="Interface to control the behavior of AMReX LinearSolvers.">
<polygon fill="white" stroke="black" points="1400,-114 1400,-133 1539,-133 1539,-114 1400,-114"/>
<text text-anchor="middle" x="1469.5" y="-121" font-family="Helvetica,sans-Serif" font-size="10.00">amr_wind::MLMGOptions</text>
</a>
</g>
</g>
<!-- Node11&#45;&gt;Node18 -->
<g id="edge23" class="edge">
<title>Node11&#45;&gt;Node18</title>
<path fill="none" stroke="#9a32cd" stroke-dasharray="5,2" d="M495.55,-212.96C547.26,-184.35 670.36,-123.5 782,-123.5 782,-123.5 782,-123.5 1264,-123.5 1309.27,-123.5 1360.17,-123.5 1399.87,-123.5"/>
<polygon fill="#9a32cd" stroke="#9a32cd" points="493.74,-209.95 486.74,-217.9 497.17,-216.06 493.74,-209.95"/>
<text text-anchor="middle" x="1080" y="-148.5" font-family="Helvetica,sans-Serif" font-size="10.00"> hypre_namespace</text>
<text text-anchor="middle" x="1080" y="-137.5" font-family="Helvetica,sans-Serif" font-size="10.00">bottom_solver_type</text>
<text text-anchor="middle" x="1080" y="-126.5" font-family="Helvetica,sans-Serif" font-size="10.00">hypre_interface</text>
</g>
<!-- Node12 -->
<g id="node12" class="node">
<title>Node12</title>
<g id="a_node12"><a xlink:title="STL class.">
<polygon fill="white" stroke="#bfbfbf" points="97,-212.5 97,-242.5 201,-242.5 201,-212.5 97,-212.5"/>
<text text-anchor="start" x="105" y="-230.5" font-family="Helvetica,sans-Serif" font-size="10.00">std::basic_string&lt;</text>
<text text-anchor="middle" x="149" y="-219.5" font-family="Helvetica,sans-Serif" font-size="10.00"> char &gt;</text>
</a>
</g>
</g>
<!-- Node12&#45;&gt;Node11 -->
<g id="edge12" class="edge">
<title>Node12&#45;&gt;Node11</title>
<path fill="none" stroke="midnightblue" d="M211.24,-227.5C278.64,-227.5 384.37,-227.5 436.81,-227.5"/>
<polygon fill="midnightblue" stroke="midnightblue" points="211.17,-224 201.17,-227.5 211.17,-231 211.17,-224"/>
</g>
<!-- Node13&#45;&gt;Node7 -->
<g id="edge13" class="edge">
<title>Node13&#45;&gt;Node7</title>
<path fill="none" stroke="orange" stroke-dasharray="5,2" d="M369.81,-183.18C424.5,-182.94 503.17,-182.63 572,-182.5 630.67,-182.39 645.35,-181.17 704,-182.5 815.74,-185.03 946.06,-191.8 1019.92,-195.99"/>
<polygon fill="orange" stroke="orange" points="369.53,-179.68 359.54,-183.22 369.56,-186.68 369.53,-179.68"/>
<text text-anchor="middle" x="638" y="-185.5" font-family="Helvetica,sans-Serif" font-size="10.00"> &lt; amr_wind::FieldInfo &gt;</text>
</g>
<!-- Node14 -->
<g id="node14" class="node">
<title>Node14</title>
<g id="a_node14"><a xlink:href="classamr__wind_1_1_field_repo.html" target="_top" xlink:title="Field Repository.">
<polygon fill="white" stroke="black" points="1020.5,-285 1020.5,-304 1139.5,-304 1139.5,-285 1020.5,-285"/>
<text text-anchor="middle" x="1080" y="-292" font-family="Helvetica,sans-Serif" font-size="10.00">amr_wind::FieldRepo</text>
</a>
</g>
</g>
<!-- Node14&#45;&gt;Node6 -->
<g id="edge16" class="edge">
<title>Node14&#45;&gt;Node6</title>
<path fill="none" stroke="#9a32cd" stroke-dasharray="5,2" d="M1120.73,-281.83C1143.52,-274.33 1172.56,-264.4 1198,-254.5 1212.69,-248.79 1228.97,-241.65 1241.43,-236.02"/>
<polygon fill="#9a32cd" stroke="#9a32cd" points="1119.48,-278.55 1111.06,-284.98 1121.65,-285.21 1119.48,-278.55"/>
<text text-anchor="middle" x="1178" y="-271.5" font-family="Helvetica,sans-Serif" font-size="10.00"> m_repo</text>
</g>
<!-- Node14&#45;&gt;Node19 -->
<g id="edge26" class="edge">
<title>Node14&#45;&gt;Node19</title>
<path fill="none" stroke="#9a32cd" stroke-dasharray="5,2" d="M1149.93,-295.49C1211.45,-294.64 1303.41,-289.05 1380,-266.5 1407.91,-258.28 1437.3,-241.04 1454.21,-230.16"/>
<polygon fill="#9a32cd" stroke="#9a32cd" points="1149.53,-292 1139.56,-295.6 1149.6,-299 1149.53,-292"/>
<text text-anchor="middle" x="1263" y="-295.5" font-family="Helvetica,sans-Serif" font-size="10.00"> repo</text>
</g>
<!-- Node15&#45;&gt;Node14 -->
<g id="edge17" class="edge">
<title>Node15&#45;&gt;Node14</title>
<path fill="none" stroke="#9a32cd" stroke-dasharray="5,2" d="M854.27,-294.5C904.92,-294.5 972.51,-294.5 1020.29,-294.5"/>
<polygon fill="#9a32cd" stroke="#9a32cd" points="854.05,-291 844.05,-294.5 854.05,-298 854.05,-291"/>
<text text-anchor="middle" x="932" y="-308.5" font-family="Helvetica,sans-Serif" font-size="10.00"> m_fid_map</text>
<text text-anchor="middle" x="932" y="-297.5" font-family="Helvetica,sans-Serif" font-size="10.00">m_int_fid_map</text>
</g>
<!-- Node16&#45;&gt;Node15 -->
<g id="edge19" class="edge">
<title>Node16&#45;&gt;Node15</title>
<path fill="none" stroke="orange" stroke-dasharray="5,2" d="M536.86,-307.09C591.69,-304.28 668.85,-300.31 721.88,-297.59"/>
<polygon fill="orange" stroke="orange" points="536.36,-303.61 526.55,-307.62 536.72,-310.6 536.36,-303.61"/>
<text text-anchor="middle" x="638" y="-307.5" font-family="Helvetica,sans-Serif" font-size="10.00"> &lt; std::string, size_t &gt;</text>
</g>
<!-- Node17 -->
<g id="node17" class="node">
<title>Node17</title>
<g id="a_node17"><a xlink:title=" ">
<polygon fill="white" stroke="#bfbfbf" points="134.5,-262 134.5,-281 163.5,-281 163.5,-262 134.5,-262"/>
<text text-anchor="middle" x="149" y="-269" font-family="Helvetica,sans-Serif" font-size="10.00">K</text>
</a>
</g>
</g>
<!-- Node17&#45;&gt;Node16 -->
<g id="edge20" class="edge">
<title>Node17&#45;&gt;Node16</title>
<path fill="none" stroke="#9a32cd" stroke-dasharray="5,2" d="M173.85,-273.19C213.88,-276.16 297.07,-282.93 367,-292.5 381.72,-294.51 397.56,-297.11 412.25,-299.71"/>
<polygon fill="#9a32cd" stroke="#9a32cd" points="173.98,-269.69 163.75,-272.45 173.47,-276.67 173.98,-269.69"/>
<text text-anchor="middle" x="300.5" y="-295.5" font-family="Helvetica,sans-Serif" font-size="10.00"> keys</text>
</g>
<!-- Node18&#45;&gt;Node2 -->
<g id="edge22" class="edge">
<title>Node18&#45;&gt;Node2</title>
<path fill="none" stroke="#9a32cd" stroke-dasharray="5,2" d="M1549.52,-121.82C1612.78,-121.19 1703.74,-121.86 1783,-128.5 1835.98,-132.94 1895.1,-141.94 1940.98,-149.83"/>
<polygon fill="#9a32cd" stroke="#9a32cd" points="1549.17,-118.33 1539.22,-121.94 1549.25,-125.33 1549.17,-118.33"/>
<text text-anchor="middle" x="1711.5" y="-131.5" font-family="Helvetica,sans-Serif" font-size="10.00"> m_options</text>
</g>
<!-- Node18&#45;&gt;Node20 -->
<g id="edge31" class="edge">
<title>Node18&#45;&gt;Node20</title>
<path fill="none" stroke="#9a32cd" stroke-dasharray="5,2" d="M1548.13,-134.52C1571.88,-138.1 1598.05,-142.25 1622,-146.5 1627.71,-147.51 1633.62,-148.61 1639.55,-149.75"/>
<polygon fill="#9a32cd" stroke="#9a32cd" points="1548.52,-131.04 1538.12,-133.03 1547.49,-137.97 1548.52,-131.04"/>
<text text-anchor="middle" x="1590.5" y="-149.5" font-family="Helvetica,sans-Serif" font-size="10.00"> m_options</text>
</g>
<!-- Node19&#45;&gt;Node2 -->
<g id="edge24" class="edge">
<title>Node19&#45;&gt;Node2</title>
<path fill="none" stroke="#9a32cd" stroke-dasharray="5,2" d="M1551.12,-217.77C1574.04,-216.72 1599.02,-215.33 1622,-213.5 1756.21,-202.83 1789.57,-197.4 1923,-179.5 1928.8,-178.72 1934.78,-177.88 1940.81,-177.01"/>
<polygon fill="#9a32cd" stroke="#9a32cd" points="1550.92,-214.27 1541.09,-218.21 1551.23,-221.27 1550.92,-214.27"/>
<text text-anchor="middle" x="1711.5" y="-214.5" font-family="Helvetica,sans-Serif" font-size="10.00"> m_pdefields</text>
</g>
<!-- Node19&#45;&gt;Node20 -->
<g id="edge32" class="edge">
<title>Node19&#45;&gt;Node20</title>
<path fill="none" stroke="#9a32cd" stroke-dasharray="5,2" d="M1521.39,-208.63C1557.79,-200.13 1607.06,-188.64 1646.18,-179.51"/>
<polygon fill="#9a32cd" stroke="#9a32cd" points="1520.43,-205.26 1511.48,-210.94 1522.02,-212.07 1520.43,-205.26"/>
<text text-anchor="middle" x="1590.5" y="-201.5" font-family="Helvetica,sans-Serif" font-size="10.00"> m_pdefields</text>
</g>
<!-- Node20&#45;&gt;Node2 -->
<g id="edge27" class="edge">
<title>Node20&#45;&gt;Node2</title>
<path fill="none" stroke="orange" stroke-dasharray="5,2" d="M1793.46,-164.5C1839.06,-164.5 1895.75,-164.5 1940.95,-164.5"/>
<polygon fill="orange" stroke="orange" points="1793.32,-161 1783.32,-164.5 1793.32,-168 1793.32,-161"/>
<text text-anchor="middle" x="1862" y="-167.5" font-family="Helvetica,sans-Serif" font-size="10.00"> &lt; amrex::MLTensorOp &gt;</text>
</g>
<!-- Node21&#45;&gt;Node20 -->
<g id="edge29" class="edge">
<title>Node21&#45;&gt;Node20</title>
<path fill="none" stroke="#9a32cd" stroke-dasharray="5,2" d="M1012.4,-70.44C1060.11,-71.96 1122.03,-73.5 1177,-73.5 1177,-73.5 1177,-73.5 1470.5,-73.5 1542.76,-73.5 1557.25,-100.42 1622,-132.5 1630.4,-136.66 1631.44,-139.69 1640,-143.5 1644.78,-145.63 1649.84,-147.62 1654.97,-149.45"/>
<polygon fill="#9a32cd" stroke="#9a32cd" points="1012.25,-66.93 1002.14,-70.11 1012.02,-73.93 1012.25,-66.93"/>
<text text-anchor="middle" x="1263" y="-87.5" font-family="Helvetica,sans-Serif" font-size="10.00"> m_applier</text>
<text text-anchor="middle" x="1263" y="-76.5" font-family="Helvetica,sans-Serif" font-size="10.00">m_solver</text>
</g>
</g>
</svg>
