<?xml version="1.0" encoding="UTF-8" standalone="no"?>
<!DOCTYPE svg PUBLIC "-//W3C//DTD SVG 1.1//EN"
 "http://www.w3.org/Graphics/SVG/1.1/DTD/svg11.dtd">
<!-- Generated by graphviz version 2.43.0 (0)
 -->
<!-- Title: amr_wind::pde::ICNSDiffScalarOp Pages: 1 -->
<svg width="1890pt" height="324pt"
 viewBox="0.00 0.00 1890.00 324.20" xmlns="http://www.w3.org/2000/svg" xmlns:xlink="http://www.w3.org/1999/xlink">
<g id="graph0" class="graph" transform="scale(1 1) rotate(0) translate(4 320.2)">
<title>amr_wind::pde::ICNSDiffScalarOp</title>
<polygon fill="white" stroke="transparent" points="-4,4 -4,-320.2 1886,-320.2 1886,4 -4,4"/>
<!-- Node1 -->
<g id="node1" class="node">
<title>Node1</title>
<g id="a_node1"><a xlink:title=" ">
<polygon fill="#bfbfbf" stroke="black" points="1703,-173.7 1703,-192.7 1882,-192.7 1882,-173.7 1703,-173.7"/>
<text text-anchor="middle" x="1792.5" y="-180.7" font-family="Helvetica,sans-Serif" font-size="10.00">amr_wind::pde::ICNSDiffScalarOp</text>
</a>
</g>
</g>
<!-- Node2 -->
<g id="node2" class="node">
<title>Node2</title>
<g id="a_node2"><a xlink:href="classamr__wind_1_1_field.html" target="_top" xlink:title="Computational field.">
<polygon fill="white" stroke="black" points="1279,-147.7 1279,-166.7 1373,-166.7 1373,-147.7 1279,-147.7"/>
<text text-anchor="middle" x="1326" y="-154.7" font-family="Helvetica,sans-Serif" font-size="10.00">amr_wind::Field</text>
</a>
</g>
</g>
<!-- Node2&#45;&gt;Node1 -->
<g id="edge1" class="edge">
<title>Node2&#45;&gt;Node1</title>
<path fill="none" stroke="#9a32cd" stroke-dasharray="5,2" d="M1351.37,-171.71C1362.95,-177.78 1377.24,-184.14 1391,-187.2 1413.56,-192.22 1419.89,-187.33 1443,-187.2 1531.34,-186.69 1632.27,-185.46 1702.69,-184.5"/>
<polygon fill="#9a32cd" stroke="#9a32cd" points="1352.8,-168.5 1342.35,-166.75 1349.43,-174.64 1352.8,-168.5"/>
<text text-anchor="middle" x="1532.5" y="-189.2" font-family="Helvetica,sans-Serif" font-size="10.00"> m_density</text>
</g>
<!-- Node17 -->
<g id="node17" class="node">
<title>Node17</title>
<g id="a_node17"><a xlink:href="structamr__wind_1_1pde_1_1_p_d_e_fields.html" target="_top" xlink:title="Collection of fields related to a PDE.">
<polygon fill="white" stroke="black" points="1461,-121.7 1461,-140.7 1604,-140.7 1604,-121.7 1461,-121.7"/>
<text text-anchor="middle" x="1532.5" y="-128.7" font-family="Helvetica,sans-Serif" font-size="10.00">amr_wind::pde::PDEFields</text>
</a>
</g>
</g>
<!-- Node2&#45;&gt;Node17 -->
<g id="edge22" class="edge">
<title>Node2&#45;&gt;Node17</title>
<path fill="none" stroke="#9a32cd" stroke-dasharray="5,2" d="M1355.46,-143.51C1366.32,-138.98 1378.98,-134.51 1391,-132.2 1413.52,-127.88 1438.44,-126.59 1460.97,-126.7"/>
<polygon fill="#9a32cd" stroke="#9a32cd" points="1353.81,-140.41 1346.06,-147.63 1356.62,-146.82 1353.81,-140.41"/>
<text text-anchor="middle" x="1417" y="-179.2" font-family="Helvetica,sans-Serif" font-size="10.00"> src_term</text>
<text text-anchor="middle" x="1417" y="-168.2" font-family="Helvetica,sans-Serif" font-size="10.00">field</text>
<text text-anchor="middle" x="1417" y="-157.2" font-family="Helvetica,sans-Serif" font-size="10.00">diff_term</text>
<text text-anchor="middle" x="1417" y="-146.2" font-family="Helvetica,sans-Serif" font-size="10.00">mueff</text>
<text text-anchor="middle" x="1417" y="-135.2" font-family="Helvetica,sans-Serif" font-size="10.00">conv_term</text>
</g>
<!-- Node3 -->
<g id="node3" class="node">
<title>Node3</title>
<g id="a_node3"><a xlink:title=" ">
<polygon fill="white" stroke="#bfbfbf" points="1036,-194.2 1036,-224.2 1156,-224.2 1156,-194.2 1036,-194.2"/>
<text text-anchor="start" x="1044" y="-212.2" font-family="Helvetica,sans-Serif" font-size="10.00">std::shared_ptr&lt; amr</text>
<text text-anchor="middle" x="1096" y="-201.2" font-family="Helvetica,sans-Serif" font-size="10.00">_wind::FieldInfo &gt;</text>
</a>
</g>
</g>
<!-- Node3&#45;&gt;Node2 -->
<g id="edge2" class="edge">
<title>Node3&#45;&gt;Node2</title>
<path fill="none" stroke="#9a32cd" stroke-dasharray="5,2" d="M1166.04,-193.45C1204.22,-184.75 1250.42,-174.21 1283.14,-166.75"/>
<polygon fill="#9a32cd" stroke="#9a32cd" points="1164.98,-190.11 1156.01,-195.74 1166.54,-196.93 1164.98,-190.11"/>
<text text-anchor="middle" x="1217.5" y="-193.2" font-family="Helvetica,sans-Serif" font-size="10.00"> m_info</text>
</g>
<!-- Node4 -->
<g id="node4" class="node">
<title>Node4</title>
<g id="a_node4"><a xlink:href="structamr__wind_1_1_field_info.html" target="_top" xlink:title="Information common to a field that has multiple states.">
<polygon fill="white" stroke="black" points="743.5,-199.7 743.5,-218.7 856.5,-218.7 856.5,-199.7 743.5,-199.7"/>
<text text-anchor="middle" x="800" y="-206.7" font-family="Helvetica,sans-Serif" font-size="10.00">amr_wind::FieldInfo</text>
</a>
</g>
</g>
<!-- Node4&#45;&gt;Node3 -->
<g id="edge3" class="edge">
<title>Node4&#45;&gt;Node3</title>
<path fill="none" stroke="#9a32cd" stroke-dasharray="5,2" d="M866.84,-209.2C917.49,-209.2 986.88,-209.2 1035.8,-209.2"/>
<polygon fill="#9a32cd" stroke="#9a32cd" points="866.64,-205.7 856.64,-209.2 866.64,-212.7 866.64,-205.7"/>
<text text-anchor="middle" x="948.5" y="-212.2" font-family="Helvetica,sans-Serif" font-size="10.00"> ptr</text>
</g>
<!-- Node5 -->
<g id="node5" class="node">
<title>Node5</title>
<g id="a_node5"><a xlink:title=" ">
<polygon fill="white" stroke="#bfbfbf" points="402,-194.2 402,-224.2 571,-224.2 571,-194.2 402,-194.2"/>
<text text-anchor="start" x="410" y="-212.2" font-family="Helvetica,sans-Serif" font-size="10.00">std::unique_ptr&lt; amr</text>
<text text-anchor="middle" x="486.5" y="-201.2" font-family="Helvetica,sans-Serif" font-size="10.00">_wind::FieldFillPatchOpsBase &gt;</text>
</a>
</g>
</g>
<!-- Node5&#45;&gt;Node4 -->
<g id="edge4" class="edge">
<title>Node5&#45;&gt;Node4</title>
<path fill="none" stroke="#9a32cd" stroke-dasharray="5,2" d="M581.46,-209.2C634.35,-209.2 698.57,-209.2 743.48,-209.2"/>
<polygon fill="#9a32cd" stroke="#9a32cd" points="581.39,-205.7 571.39,-209.2 581.39,-212.7 581.39,-205.7"/>
<text text-anchor="middle" x="655" y="-212.2" font-family="Helvetica,sans-Serif" font-size="10.00"> m_fillpatch_op</text>
</g>
<!-- Node6 -->
<g id="node6" class="node">
<title>Node6</title>
<g id="a_node6"><a xlink:href="classamr__wind_1_1_field_fill_patch_ops_base.html" target="_top" xlink:title="Abstract interface for classes that handle fill patch and physical boundary condition operations for ...">
<polygon fill="white" stroke="black" points="82,-158.2 82,-188.2 216,-188.2 216,-158.2 82,-158.2"/>
<text text-anchor="start" x="90" y="-176.2" font-family="Helvetica,sans-Serif" font-size="10.00">amr_wind::FieldFillPatch</text>
<text text-anchor="middle" x="149" y="-165.2" font-family="Helvetica,sans-Serif" font-size="10.00">OpsBase</text>
</a>
</g>
</g>
<!-- Node6&#45;&gt;Node5 -->
<g id="edge5" class="edge">
<title>Node6&#45;&gt;Node5</title>
<path fill="none" stroke="#9a32cd" stroke-dasharray="5,2" d="M226.25,-174.8C272.13,-176.5 331.62,-180 384,-187.2 396.86,-188.97 410.52,-191.48 423.5,-194.18"/>
<polygon fill="#9a32cd" stroke="#9a32cd" points="226.19,-171.3 216.08,-174.45 225.95,-178.29 226.19,-171.3"/>
<text text-anchor="middle" x="309" y="-190.2" font-family="Helvetica,sans-Serif" font-size="10.00"> ptr</text>
</g>
<!-- Node7 -->
<g id="node7" class="node">
<title>Node7</title>
<g id="a_node7"><a xlink:title="STL class.">
<polygon fill="white" stroke="#bfbfbf" points="90,-245.7 90,-264.7 208,-264.7 208,-245.7 90,-245.7"/>
<text text-anchor="middle" x="149" y="-252.7" font-family="Helvetica,sans-Serif" font-size="10.00">std::unique_ptr&lt; T &gt;</text>
</a>
</g>
</g>
<!-- Node7&#45;&gt;Node5 -->
<g id="edge6" class="edge">
<title>Node7&#45;&gt;Node5</title>
<path fill="none" stroke="orange" stroke-dasharray="5,2" d="M218.34,-248.59C265.1,-243.76 328.43,-236.6 384,-228.2 391.89,-227.01 400.1,-225.66 408.29,-224.24"/>
<polygon fill="orange" stroke="orange" points="217.92,-245.12 208.33,-249.62 218.63,-252.08 217.92,-245.12"/>
<text text-anchor="start" x="242.5" y="-260.2" font-family="Helvetica,sans-Serif" font-size="10.00"> &lt; amr_wind::FieldFillPatch</text>
<text text-anchor="middle" x="309" y="-249.2" font-family="Helvetica,sans-Serif" font-size="10.00">OpsBase &gt;</text>
</g>
<!-- Node18 -->
<g id="node18" class="node">
<title>Node18</title>
<g id="a_node18"><a xlink:title=" ">
<polygon fill="white" stroke="#bfbfbf" points="589,-280.2 589,-310.2 721,-310.2 721,-280.2 589,-280.2"/>
<text text-anchor="start" x="597" y="-298.2" font-family="Helvetica,sans-Serif" font-size="10.00">std::unique_ptr&lt; amrex</text>
<text text-anchor="middle" x="655" y="-287.2" font-family="Helvetica,sans-Serif" font-size="10.00">::MLABecLaplacian &gt;</text>
</a>
</g>
</g>
<!-- Node7&#45;&gt;Node18 -->
<g id="edge25" class="edge">
<title>Node7&#45;&gt;Node18</title>
<path fill="none" stroke="orange" stroke-dasharray="5,2" d="M201.34,-266.82C212.08,-268.9 223.37,-270.84 234,-272.2 358.95,-288.18 506.21,-293.07 588.98,-294.56"/>
<polygon fill="orange" stroke="orange" points="201.74,-263.33 191.25,-264.79 200.36,-270.19 201.74,-263.33"/>
<text text-anchor="middle" x="309" y="-288.2" font-family="Helvetica,sans-Serif" font-size="10.00"> &lt; amrex::MLABecLaplacian &gt;</text>
</g>
<!-- Node8 -->
<g id="node8" class="node">
<title>Node8</title>
<g id="a_node8"><a xlink:title=" ">
<polygon fill="white" stroke="#bfbfbf" points="0,-207.7 0,-226.7 29,-226.7 29,-207.7 0,-207.7"/>
<text text-anchor="middle" x="14.5" y="-214.7" font-family="Helvetica,sans-Serif" font-size="10.00">T</text>
</a>
</g>
</g>
<!-- Node8&#45;&gt;Node7 -->
<g id="edge7" class="edge">
<title>Node8&#45;&gt;Node7</title>
<path fill="none" stroke="#9a32cd" stroke-dasharray="5,2" d="M38.41,-227.97C41.27,-229.14 44.18,-230.25 47,-231.2 63.99,-236.94 83.03,-241.84 99.96,-245.69"/>
<polygon fill="#9a32cd" stroke="#9a32cd" points="39.65,-224.69 29.08,-223.9 36.85,-231.1 39.65,-224.69"/>
<text text-anchor="middle" x="55.5" y="-239.2" font-family="Helvetica,sans-Serif" font-size="10.00"> ptr</text>
</g>
<!-- Node11 -->
<g id="node11" class="node">
<title>Node11</title>
<g id="a_node11"><a xlink:title="STL class.">
<polygon fill="white" stroke="#bfbfbf" points="250,-207.7 250,-226.7 368,-226.7 368,-207.7 250,-207.7"/>
<text text-anchor="middle" x="309" y="-214.7" font-family="Helvetica,sans-Serif" font-size="10.00">std::shared_ptr&lt; T &gt;</text>
</a>
</g>
</g>
<!-- Node8&#45;&gt;Node11 -->
<g id="edge11" class="edge">
<title>Node8&#45;&gt;Node11</title>
<path fill="none" stroke="#9a32cd" stroke-dasharray="5,2" d="M39.45,-216.36C42,-216.29 44.55,-216.24 47,-216.2 54.55,-216.08 56.44,-216.18 64,-216.2 127.54,-216.33 200.39,-216.65 249.83,-216.89"/>
<polygon fill="#9a32cd" stroke="#9a32cd" points="39.19,-212.87 29.3,-216.67 39.4,-219.86 39.19,-212.87"/>
<text text-anchor="middle" x="55.5" y="-219.2" font-family="Helvetica,sans-Serif" font-size="10.00"> ptr</text>
</g>
<!-- Node14 -->
<g id="node14" class="node">
<title>Node14</title>
<g id="a_node14"><a xlink:title="STL class.">
<polygon fill="white" stroke="#bfbfbf" points="429.5,-24.2 429.5,-54.2 543.5,-54.2 543.5,-24.2 429.5,-24.2"/>
<text text-anchor="start" x="437.5" y="-42.2" font-family="Helvetica,sans-Serif" font-size="10.00">std::unordered_map</text>
<text text-anchor="middle" x="486.5" y="-31.2" font-family="Helvetica,sans-Serif" font-size="10.00">&lt; K, T &gt;</text>
</a>
</g>
</g>
<!-- Node8&#45;&gt;Node14 -->
<g id="edge18" class="edge">
<title>Node8&#45;&gt;Node14</title>
<path fill="none" stroke="#9a32cd" stroke-dasharray="5,2" d="M16.62,-196.88C19.86,-160.01 32.53,-82.71 82,-48.2 188.89,26.37 353.46,-2.67 435.47,-24.13"/>
<polygon fill="#9a32cd" stroke="#9a32cd" points="13.09,-197.1 15.86,-207.33 20.07,-197.61 13.09,-197.1"/>
<text text-anchor="middle" x="149" y="-51.2" font-family="Helvetica,sans-Serif" font-size="10.00"> elements</text>
</g>
<!-- Node9 -->
<g id="node9" class="node">
<title>Node9</title>
<g id="a_node9"><a xlink:title="STL class.">
<polygon fill="white" stroke="#bfbfbf" points="454,-115.7 454,-134.7 519,-134.7 519,-115.7 454,-115.7"/>
<text text-anchor="middle" x="486.5" y="-122.7" font-family="Helvetica,sans-Serif" font-size="10.00">std::string</text>
</a>
</g>
</g>
<!-- Node9&#45;&gt;Node2 -->
<g id="edge12" class="edge">
<title>Node9&#45;&gt;Node2</title>
<path fill="none" stroke="#9a32cd" stroke-dasharray="5,2" d="M529.08,-129.94C547.43,-131.87 569.26,-133.93 589,-135.2 849.57,-151.91 1162.86,-155.96 1278.88,-156.92"/>
<polygon fill="#9a32cd" stroke="#9a32cd" points="529.32,-126.45 519,-128.86 528.57,-133.41 529.32,-126.45"/>
<text text-anchor="middle" x="948.5" y="-155.2" font-family="Helvetica,sans-Serif" font-size="10.00"> m_name</text>
</g>
<!-- Node9&#45;&gt;Node4 -->
<g id="edge8" class="edge">
<title>Node9&#45;&gt;Node4</title>
<path fill="none" stroke="#9a32cd" stroke-dasharray="5,2" d="M519.61,-138.56C539.38,-146.45 565.38,-156.23 589,-163.2 618.98,-172.05 699.63,-189.01 751.81,-199.68"/>
<polygon fill="#9a32cd" stroke="#9a32cd" points="520.74,-135.25 510.16,-134.75 518.12,-141.74 520.74,-135.25"/>
<text text-anchor="middle" x="655" y="-195.2" font-family="Helvetica,sans-Serif" font-size="10.00"> m_basename</text>
</g>
<!-- Node13 -->
<g id="node13" class="node">
<title>Node13</title>
<g id="a_node13"><a xlink:title=" ">
<polygon fill="white" stroke="#bfbfbf" points="739,-98.2 739,-128.2 861,-128.2 861,-98.2 739,-98.2"/>
<text text-anchor="start" x="747" y="-116.2" font-family="Helvetica,sans-Serif" font-size="10.00">std::unordered_map</text>
<text text-anchor="middle" x="800" y="-105.2" font-family="Helvetica,sans-Serif" font-size="10.00">&lt; std::string, size_t &gt;</text>
</a>
</g>
</g>
<!-- Node9&#45;&gt;Node13 -->
<g id="edge15" class="edge">
<title>Node9&#45;&gt;Node13</title>
<path fill="none" stroke="#9a32cd" stroke-dasharray="5,2" d="M529.3,-123.59C583.2,-121.51 677.3,-117.89 738.87,-115.52"/>
<polygon fill="#9a32cd" stroke="#9a32cd" points="528.94,-120.1 519.08,-123.98 529.21,-127.1 528.94,-120.1"/>
<text text-anchor="middle" x="655" y="-123.2" font-family="Helvetica,sans-Serif" font-size="10.00"> keys</text>
</g>
<!-- Node16 -->
<g id="node16" class="node">
<title>Node16</title>
<g id="a_node16"><a xlink:href="structamr__wind_1_1_m_l_m_g_options.html" target="_top" xlink:title="Interface to control the behavior of AMReX LinearSolvers.">
<polygon fill="white" stroke="black" points="879,-50.7 879,-69.7 1018,-69.7 1018,-50.7 879,-50.7"/>
<text text-anchor="middle" x="948.5" y="-57.7" font-family="Helvetica,sans-Serif" font-size="10.00">amr_wind::MLMGOptions</text>
</a>
</g>
</g>
<!-- Node9&#45;&gt;Node16 -->
<g id="edge20" class="edge">
<title>Node9&#45;&gt;Node16</title>
<path fill="none" stroke="#9a32cd" stroke-dasharray="5,2" d="M512.46,-110.7C532.45,-99.89 561.58,-85.89 589,-79.2 687.55,-55.16 805.69,-54.01 878.68,-56.36"/>
<polygon fill="#9a32cd" stroke="#9a32cd" points="510.75,-107.65 503.69,-115.56 514.14,-113.77 510.75,-107.65"/>
<text text-anchor="middle" x="655" y="-104.2" font-family="Helvetica,sans-Serif" font-size="10.00"> hypre_namespace</text>
<text text-anchor="middle" x="655" y="-93.2" font-family="Helvetica,sans-Serif" font-size="10.00">bottom_solver_type</text>
<text text-anchor="middle" x="655" y="-82.2" font-family="Helvetica,sans-Serif" font-size="10.00">hypre_interface</text>
</g>
<!-- Node10 -->
<g id="node10" class="node">
<title>Node10</title>
<g id="a_node10"><a xlink:title="STL class.">
<polygon fill="white" stroke="#bfbfbf" points="97,-109.2 97,-139.2 201,-139.2 201,-109.2 97,-109.2"/>
<text text-anchor="start" x="105" y="-127.2" font-family="Helvetica,sans-Serif" font-size="10.00">std::basic_string&lt;</text>
<text text-anchor="middle" x="149" y="-116.2" font-family="Helvetica,sans-Serif" font-size="10.00"> char &gt;</text>
</a>
</g>
</g>
<!-- Node10&#45;&gt;Node9 -->
<g id="edge9" class="edge">
<title>Node10&#45;&gt;Node9</title>
<path fill="none" stroke="midnightblue" d="M211.55,-124.38C283.12,-124.6 398.49,-124.94 453.86,-125.11"/>
<polygon fill="midnightblue" stroke="midnightblue" points="211.33,-120.88 201.32,-124.35 211.31,-127.88 211.33,-120.88"/>
</g>
<!-- Node11&#45;&gt;Node3 -->
<g id="edge10" class="edge">
<title>Node11&#45;&gt;Node3</title>
<path fill="none" stroke="orange" stroke-dasharray="5,2" d="M370.79,-228.65C386.73,-231.61 400.07,-234.02 402,-234.2 467.68,-240.22 827.47,-228.97 861,-228.2 930.78,-226.59 948.61,-231.79 1018,-224.2 1023.82,-223.56 1029.86,-222.72 1035.88,-221.75"/>
<polygon fill="orange" stroke="orange" points="371.08,-225.14 360.61,-226.75 369.8,-232.02 371.08,-225.14"/>
<text text-anchor="middle" x="655" y="-237.2" font-family="Helvetica,sans-Serif" font-size="10.00"> &lt; amr_wind::FieldInfo &gt;</text>
</g>
<!-- Node12 -->
<g id="node12" class="node">
<title>Node12</title>
<g id="a_node12"><a xlink:href="classamr__wind_1_1_field_repo.html" target="_top" xlink:title="Field Repository.">
<polygon fill="white" stroke="black" points="1036.5,-102.7 1036.5,-121.7 1155.5,-121.7 1155.5,-102.7 1036.5,-102.7"/>
<text text-anchor="middle" x="1096" y="-109.7" font-family="Helvetica,sans-Serif" font-size="10.00">amr_wind::FieldRepo</text>
</a>
</g>
</g>
<!-- Node12&#45;&gt;Node2 -->
<g id="edge13" class="edge">
<title>Node12&#45;&gt;Node2</title>
<path fill="none" stroke="#9a32cd" stroke-dasharray="5,2" d="M1165.95,-116.73C1195.52,-119.67 1230.27,-124.46 1261,-132.2 1275.92,-135.96 1292.06,-142.28 1304.39,-147.62"/>
<polygon fill="#9a32cd" stroke="#9a32cd" points="1166,-113.22 1155.72,-115.77 1165.34,-120.19 1166,-113.22"/>
<text text-anchor="middle" x="1217.5" y="-135.2" font-family="Helvetica,sans-Serif" font-size="10.00"> m_repo</text>
</g>
<!-- Node12&#45;&gt;Node17 -->
<g id="edge23" class="edge">
<title>Node12&#45;&gt;Node17</title>
<path fill="none" stroke="#9a32cd" stroke-dasharray="5,2" d="M1165.97,-111.96C1195.27,-112.03 1229.81,-112.33 1261,-113.2 1341.96,-115.45 1362.24,-116.1 1443,-122.2 1448.7,-122.63 1454.6,-123.12 1460.52,-123.65"/>
<polygon fill="#9a32cd" stroke="#9a32cd" points="1165.84,-108.46 1155.84,-111.94 1165.83,-115.46 1165.84,-108.46"/>
<text text-anchor="middle" x="1326" y="-120.2" font-family="Helvetica,sans-Serif" font-size="10.00"> repo</text>
</g>
<!-- Node13&#45;&gt;Node12 -->
<g id="edge14" class="edge">
<title>Node13&#45;&gt;Node12</title>
<path fill="none" stroke="#9a32cd" stroke-dasharray="5,2" d="M871.37,-112.96C921.78,-112.79 988.87,-112.56 1036.38,-112.4"/>
<polygon fill="#9a32cd" stroke="#9a32cd" points="871.19,-109.46 861.2,-113 871.22,-116.46 871.19,-109.46"/>
<text text-anchor="middle" x="948.5" y="-126.2" font-family="Helvetica,sans-Serif" font-size="10.00"> m_fid_map</text>
<text text-anchor="middle" x="948.5" y="-115.2" font-family="Helvetica,sans-Serif" font-size="10.00">m_int_fid_map</text>
</g>
<!-- Node14&#45;&gt;Node13 -->
<g id="edge16" class="edge">
<title>Node14&#45;&gt;Node13</title>
<path fill="none" stroke="orange" stroke-dasharray="5,2" d="M553.58,-24.93C601.81,-17.65 667.78,-14.36 721,-36.2 751.45,-48.7 776.37,-79.47 789.32,-98.11"/>
<polygon fill="orange" stroke="orange" points="552.89,-21.49 543.57,-26.53 554,-28.4 552.89,-21.49"/>
<text text-anchor="middle" x="655" y="-39.2" font-family="Helvetica,sans-Serif" font-size="10.00"> &lt; std::string, size_t &gt;</text>
</g>
<!-- Node15 -->
<g id="node15" class="node">
<title>Node15</title>
<g id="a_node15"><a xlink:title=" ">
<polygon fill="white" stroke="#bfbfbf" points="134.5,-68.7 134.5,-87.7 163.5,-87.7 163.5,-68.7 134.5,-68.7"/>
<text text-anchor="middle" x="149" y="-75.7" font-family="Helvetica,sans-Serif" font-size="10.00">K</text>
</a>
</g>
</g>
<!-- Node15&#45;&gt;Node14 -->
<g id="edge17" class="edge">
<title>Node15&#45;&gt;Node14</title>
<path fill="none" stroke="#9a32cd" stroke-dasharray="5,2" d="M173.88,-75.89C216.24,-71.75 307.31,-62.58 384,-53.2 398.74,-51.4 414.67,-49.28 429.43,-47.25"/>
<polygon fill="#9a32cd" stroke="#9a32cd" points="173.35,-72.43 163.73,-76.88 174.02,-79.4 173.35,-72.43"/>
<text text-anchor="middle" x="309" y="-73.2" font-family="Helvetica,sans-Serif" font-size="10.00"> keys</text>
</g>
<!-- Node16&#45;&gt;Node1 -->
<g id="edge19" class="edge">
<title>Node16&#45;&gt;Node1</title>
<path fill="none" stroke="#9a32cd" stroke-dasharray="5,2" d="M1028.11,-56.16C1081.29,-53.77 1153.1,-51.2 1216.5,-51.2 1216.5,-51.2 1216.5,-51.2 1533.5,-51.2 1640.67,-51.2 1748.11,-142.58 1781.18,-173.28"/>
<polygon fill="#9a32cd" stroke="#9a32cd" points="1027.9,-52.66 1018.07,-56.62 1028.22,-59.66 1027.9,-52.66"/>
<text text-anchor="middle" x="1326" y="-54.2" font-family="Helvetica,sans-Serif" font-size="10.00"> m_options</text>
</g>
<!-- Node17&#45;&gt;Node1 -->
<g id="edge21" class="edge">
<title>Node17&#45;&gt;Node1</title>
<path fill="none" stroke="#9a32cd" stroke-dasharray="5,2" d="M1590.66,-142.72C1636.74,-152.01 1700.77,-164.91 1744.04,-173.64"/>
<polygon fill="#9a32cd" stroke="#9a32cd" points="1591.32,-139.28 1580.82,-140.74 1589.93,-146.14 1591.32,-139.28"/>
<text text-anchor="middle" x="1653.5" y="-163.2" font-family="Helvetica,sans-Serif" font-size="10.00"> m_pdefields</text>
</g>
<!-- Node18&#45;&gt;Node1 -->
<g id="edge24" class="edge">
<title>Node18&#45;&gt;Node1</title>
<path fill="none" stroke="#9a32cd" stroke-dasharray="5,2" d="M731.45,-294.8C790.3,-294.52 874.1,-294.2 947.5,-294.2 947.5,-294.2 947.5,-294.2 1533.5,-294.2 1635.65,-294.2 1743.4,-219.86 1779.17,-192.86"/>
<polygon fill="#9a32cd" stroke="#9a32cd" points="731.11,-291.3 721.12,-294.85 731.14,-298.3 731.11,-291.3"/>
<text text-anchor="middle" x="1217.5" y="-308.2" font-family="Helvetica,sans-Serif" font-size="10.00"> m_applier_scalar</text>
<text text-anchor="middle" x="1217.5" y="-297.2" font-family="Helvetica,sans-Serif" font-size="10.00">m_solver_scalar</text>
</g>
</g>
</svg>
