<?xml version="1.0" encoding="UTF-8" standalone="no"?>
<!DOCTYPE svg PUBLIC "-//W3C//DTD SVG 1.1//EN"
 "http://www.w3.org/Graphics/SVG/1.1/DTD/svg11.dtd">
<!-- Generated by graphviz version 2.43.0 (0)
 -->
<!-- Title: amr_wind::ib::IBModel&lt; GeomTrait &gt; Pages: 1 -->
<svg width="682pt" height="105pt"
 viewBox="0.00 0.00 682.00 105.00" xmlns="http://www.w3.org/2000/svg" xmlns:xlink="http://www.w3.org/1999/xlink">
<g id="graph0" class="graph" transform="scale(1 1) rotate(0) translate(4 101)">
<title>amr_wind::ib::IBModel&lt; GeomTrait &gt;</title>
<polygon fill="white" stroke="transparent" points="-4,4 -4,-101 678,-101 678,4 -4,4"/>
<!-- Node1 -->
<g id="node1" class="node">
<title>Node1</title>
<g id="a_node1"><a xlink:title="Concrete implementation of the IBModel for different geometry types.">
<polygon fill="#bfbfbf" stroke="black" points="549,-34 549,-64 674,-64 674,-34 549,-34"/>
<text text-anchor="start" x="557" y="-52" font-family="Helvetica,sans-Serif" font-size="10.00">amr_wind::ib::IBModel</text>
<text text-anchor="middle" x="611.5" y="-41" font-family="Helvetica,sans-Serif" font-size="10.00">&lt; GeomTrait &gt;</text>
</a>
</g>
</g>
<!-- Node2 -->
<g id="node2" class="node">
<title>Node2</title>
<g id="a_node2"><a xlink:title=" ">
<polygon fill="white" stroke="#bfbfbf" points="300,-55.5 300,-96.5 443,-96.5 443,-55.5 300,-55.5"/>
<text text-anchor="start" x="308" y="-84.5" font-family="Helvetica,sans-Serif" font-size="10.00">ImmersedBoundaryModel</text>
<text text-anchor="start" x="308" y="-73.5" font-family="Helvetica,sans-Serif" font-size="10.00">::Register&lt; IBModel&lt;</text>
<text text-anchor="middle" x="371.5" y="-62.5" font-family="Helvetica,sans-Serif" font-size="10.00"> GeomTrait &gt; &gt;</text>
</a>
</g>
</g>
<!-- Node2&#45;&gt;Node1 -->
<g id="edge1" class="edge">
<title>Node2&#45;&gt;Node1</title>
<path fill="none" stroke="midnightblue" d="M453.26,-66.84C484.52,-63.29 519.73,-59.3 548.88,-55.99"/>
<polygon fill="midnightblue" stroke="midnightblue" points="452.81,-63.37 443.26,-67.97 453.59,-70.32 452.81,-63.37"/>
</g>
<!-- Node3 -->
<g id="node3" class="node">
<title>Node3</title>
<g id="a_node3"><a xlink:href="structamr__wind_1_1ib_1_1ops_1_1_process_outputs_op.html" target="_top" xlink:title=" ">
<polygon fill="white" stroke="black" points="282,-6 282,-36 461,-36 461,-6 282,-6"/>
<text text-anchor="start" x="290" y="-24" font-family="Helvetica,sans-Serif" font-size="10.00">amr_wind::ib::ops::</text>
<text text-anchor="middle" x="371.5" y="-13" font-family="Helvetica,sans-Serif" font-size="10.00">ProcessOutputsOp&lt; GeomTrait &gt;</text>
</a>
</g>
</g>
<!-- Node3&#45;&gt;Node1 -->
<g id="edge2" class="edge">
<title>Node3&#45;&gt;Node1</title>
<path fill="none" stroke="#9a32cd" stroke-dasharray="5,2" d="M471.14,-32.6C497.48,-35.7 525.18,-38.96 548.89,-41.75"/>
<polygon fill="#9a32cd" stroke="#9a32cd" points="471.46,-29.12 461.12,-31.43 470.64,-36.07 471.46,-29.12"/>
<text text-anchor="middle" x="505" y="-43" font-family="Helvetica,sans-Serif" font-size="10.00"> m_out_op</text>
</g>
<!-- Node4 -->
<g id="node4" class="node">
<title>Node4</title>
<g id="a_node4"><a xlink:href="structamr__wind_1_1ib_1_1ops_1_1_process_outputs_op.html" target="_top" xlink:title=" ">
<polygon fill="white" stroke="black" points="0,-0.5 0,-41.5 170,-41.5 170,-0.5 0,-0.5"/>
<text text-anchor="start" x="8" y="-29.5" font-family="Helvetica,sans-Serif" font-size="10.00">amr_wind::ib::ops::</text>
<text text-anchor="start" x="8" y="-18.5" font-family="Helvetica,sans-Serif" font-size="10.00">ProcessOutputsOp&lt; GeomTrait,</text>
<text text-anchor="middle" x="85" y="-7.5" font-family="Helvetica,sans-Serif" font-size="10.00"> typename &gt;</text>
</a>
</g>
</g>
<!-- Node4&#45;&gt;Node3 -->
<g id="edge3" class="edge">
<title>Node4&#45;&gt;Node3</title>
<path fill="none" stroke="orange" stroke-dasharray="5,2" d="M180.21,-21C212.86,-21 249.35,-21 281.56,-21"/>
<polygon fill="orange" stroke="orange" points="180.2,-17.5 170.2,-21 180.2,-24.5 180.2,-17.5"/>
<text text-anchor="middle" x="226" y="-24" font-family="Helvetica,sans-Serif" font-size="10.00"> &lt; GeomTrait &gt;</text>
</g>
</g>
</svg>
