<?xml version="1.0" encoding="UTF-8" standalone="no"?>
<!DOCTYPE svg PUBLIC "-//W3C//DTD SVG 1.1//EN"
 "http://www.w3.org/Graphics/SVG/1.1/DTD/svg11.dtd">
<!-- Generated by graphviz version 2.43.0 (0)
 -->
<!-- Title: actuator Pages: 1 -->
<svg width="318pt" height="303pt"
 viewBox="0.00 0.00 317.58 303.00" xmlns="http://www.w3.org/2000/svg" xmlns:xlink="http://www.w3.org/1999/xlink">
<g id="graph0" class="graph" transform="scale(1 1) rotate(0) translate(4 299)">
<title>actuator</title>
<polygon fill="white" stroke="transparent" points="-4,4 -4,-299 313.58,-299 313.58,4 -4,4"/>
<g id="clust1" class="cluster">
<title>clusterdir_0c368f76a33d967d5b838b5681461de6</title>
<g id="a_clust1"><a xlink:href="dir_0c368f76a33d967d5b838b5681461de6.html" target="_top" xlink:title="wind_energy">
<polygon fill="#ddddee" stroke="black" points="35.2,-128 35.2,-287 265.2,-287 265.2,-128 35.2,-128"/>
<text text-anchor="middle" x="150.2" y="-275" font-family="Helvetica,sans-Serif" font-size="10.00">wind_energy</text>
</a>
</g>
</g>
<g id="clust2" class="cluster">
<title>clusterdir_7ecfdf414f04b0541a95d392dbc1e5c0</title>
<g id="a_clust2"><a xlink:href="dir_7ecfdf414f04b0541a95d392dbc1e5c0.html" target="_top">
<polygon fill="#eeeeff" stroke="black" points="43.2,-136 43.2,-260 257.2,-260 257.2,-136 43.2,-136"/>
</a>
</g>
</g>
<!-- dir_7ecfdf414f04b0541a95d392dbc1e5c0 -->
<g id="node1" class="node">
<title>dir_7ecfdf414f04b0541a95d392dbc1e5c0</title>
<text text-anchor="middle" x="186.2" y="-231.5" font-family="Helvetica,sans-Serif" font-size="10.00">actuator</text>
</g>
<!-- dir_2b9dc5e8bb121bbf6312166c568f90af -->
<g id="node3" class="node">
<title>dir_2b9dc5e8bb121bbf6312166c568f90af</title>
<g id="a_node3"><a xlink:href="dir_2b9dc5e8bb121bbf6312166c568f90af.html" target="_top" xlink:title="disk">
<polygon fill="white" stroke="black" points="249.2,-180 195.2,-180 195.2,-144 249.2,-144 249.2,-180"/>
<text text-anchor="middle" x="222.2" y="-159.5" font-family="Helvetica,sans-Serif" font-size="10.00">disk</text>
</a>
</g>
</g>
<!-- dir_7ecfdf414f04b0541a95d392dbc1e5c0&#45;&gt;dir_2b9dc5e8bb121bbf6312166c568f90af -->
<g id="edge10" class="edge">
<title>dir_7ecfdf414f04b0541a95d392dbc1e5c0&#45;&gt;dir_2b9dc5e8bb121bbf6312166c568f90af</title>
<path fill="none" stroke="black" d="M195.1,-215.7C199.19,-207.73 204.15,-198.1 208.69,-189.26"/>
<polygon fill="black" stroke="black" points="211.94,-190.6 213.4,-180.1 205.71,-187.4 211.94,-190.6"/>
<g id="a_edge10&#45;headlabel"><a xlink:href="dir_000005_000006.html" target="_top" xlink:title="1">
<text text-anchor="middle" x="212.82" y="-192.59" font-family="Helvetica,sans-Serif" font-size="10.00">1</text>
</a>
</g>
</g>
<!-- dir_26e13646035c47d7e3eb3b975c94bc4e -->
<g id="node4" class="node">
<title>dir_26e13646035c47d7e3eb3b975c94bc4e</title>
<g id="a_node4"><a xlink:href="dir_26e13646035c47d7e3eb3b975c94bc4e.html" target="_top" xlink:title="turbine">
<polygon fill="white" stroke="red" points="177.2,-180 123.2,-180 123.2,-144 177.2,-144 177.2,-180"/>
<text text-anchor="middle" x="150.2" y="-159.5" font-family="Helvetica,sans-Serif" font-size="10.00">turbine</text>
</a>
</g>
</g>
<!-- dir_7ecfdf414f04b0541a95d392dbc1e5c0&#45;&gt;dir_26e13646035c47d7e3eb3b975c94bc4e -->
<g id="edge11" class="edge">
<title>dir_7ecfdf414f04b0541a95d392dbc1e5c0&#45;&gt;dir_26e13646035c47d7e3eb3b975c94bc4e</title>
<path fill="none" stroke="black" d="M177.3,-215.7C173.2,-207.73 168.25,-198.1 163.7,-189.26"/>
<polygon fill="black" stroke="black" points="166.68,-187.4 158.99,-180.1 160.45,-190.6 166.68,-187.4"/>
<g id="a_edge11&#45;headlabel"><a xlink:href="dir_000005_000007.html" target="_top" xlink:title="1">
<text text-anchor="middle" x="170.85" y="-186.79" font-family="Helvetica,sans-Serif" font-size="10.00">1</text>
</a>
</g>
</g>
<!-- dir_e4cd57caa88bf1f4e1bf9521bc47c3c0 -->
<g id="node6" class="node">
<title>dir_e4cd57caa88bf1f4e1bf9521bc47c3c0</title>
<g id="a_node6"><a xlink:href="dir_e4cd57caa88bf1f4e1bf9521bc47c3c0.html" target="_top" xlink:title="utilities">
<polygon fill="white" stroke="red" points="156.2,-108 102.2,-108 102.2,-72 156.2,-72 156.2,-108"/>
<text text-anchor="middle" x="129.2" y="-87.5" font-family="Helvetica,sans-Serif" font-size="10.00">utilities</text>
</a>
</g>
</g>
<!-- dir_7ecfdf414f04b0541a95d392dbc1e5c0&#45;&gt;dir_e4cd57caa88bf1f4e1bf9521bc47c3c0 -->
<g id="edge12" class="edge">
<title>dir_7ecfdf414f04b0541a95d392dbc1e5c0&#45;&gt;dir_e4cd57caa88bf1f4e1bf9521bc47c3c0</title>
<path fill="none" stroke="black" d="M157.7,-226.58C119.72,-217.37 55.72,-199.39 42.2,-180 28.98,-161.04 29.45,-147.28 42.2,-128 53.35,-111.14 73.92,-101.93 92.25,-96.93"/>
<polygon fill="black" stroke="black" points="93.23,-100.29 102.13,-94.55 91.59,-93.48 93.23,-100.29"/>
<g id="a_edge12&#45;headlabel"><a xlink:href="dir_000005_000010.html" target="_top" xlink:title="14">
<text text-anchor="middle" x="90.4" y="-101.39" font-family="Helvetica,sans-Serif" font-size="10.00">14</text>
</a>
</g>
</g>
<!-- dir_3d3615e9a999cab4f3407307569d6ced -->
<g id="node7" class="node">
<title>dir_3d3615e9a999cab4f3407307569d6ced</title>
<g id="a_node7"><a xlink:href="dir_3d3615e9a999cab4f3407307569d6ced.html" target="_top" xlink:title="core">
<polygon fill="white" stroke="red" points="230.2,-36 176.2,-36 176.2,0 230.2,0 230.2,-36"/>
<text text-anchor="middle" x="203.2" y="-15.5" font-family="Helvetica,sans-Serif" font-size="10.00">core</text>
</a>
</g>
</g>
<!-- dir_7ecfdf414f04b0541a95d392dbc1e5c0&#45;&gt;dir_3d3615e9a999cab4f3407307569d6ced -->
<g id="edge13" class="edge">
<title>dir_7ecfdf414f04b0541a95d392dbc1e5c0&#45;&gt;dir_3d3615e9a999cab4f3407307569d6ced</title>
<path fill="none" stroke="black" d="M215.07,-227.22C240.07,-220.52 274.72,-206.78 291.2,-180 316.35,-139.12 314.81,-113.79 291.2,-72 280.16,-52.47 258.74,-39.34 239.79,-31.03"/>
<polygon fill="black" stroke="black" points="241.04,-27.77 230.46,-27.23 238.4,-34.25 241.04,-27.77"/>
<g id="a_edge13&#45;headlabel"><a xlink:href="dir_000005_000017.html" target="_top" xlink:title="19">
<text text-anchor="middle" x="245.44" y="-23.99" font-family="Helvetica,sans-Serif" font-size="10.00">19</text>
</a>
</g>
</g>
<!-- dir_e4e9964e9eecc53686804f6e188c33cc -->
<g id="node2" class="node">
<title>dir_e4e9964e9eecc53686804f6e188c33cc</title>
<g id="a_node2"><a xlink:href="dir_e4e9964e9eecc53686804f6e188c33cc.html" target="_top" xlink:title="aero">
<polygon fill="white" stroke="black" points="105.2,-180 51.2,-180 51.2,-144 105.2,-144 105.2,-180"/>
<text text-anchor="middle" x="78.2" y="-159.5" font-family="Helvetica,sans-Serif" font-size="10.00">aero</text>
</a>
</g>
</g>
<!-- dir_e4e9964e9eecc53686804f6e188c33cc&#45;&gt;dir_e4cd57caa88bf1f4e1bf9521bc47c3c0 -->
<g id="edge1" class="edge">
<title>dir_e4e9964e9eecc53686804f6e188c33cc&#45;&gt;dir_e4cd57caa88bf1f4e1bf9521bc47c3c0</title>
<path fill="none" stroke="black" d="M90.8,-143.7C96.79,-135.47 104.07,-125.48 110.68,-116.42"/>
<polygon fill="black" stroke="black" points="113.68,-118.25 116.74,-108.1 108.02,-114.13 113.68,-118.25"/>
<g id="a_edge1&#45;headlabel"><a xlink:href="dir_000009_000010.html" target="_top" xlink:title="1">
<text text-anchor="middle" x="113.85" y="-120.32" font-family="Helvetica,sans-Serif" font-size="10.00">1</text>
</a>
</g>
</g>
<!-- dir_2b9dc5e8bb121bbf6312166c568f90af&#45;&gt;dir_e4cd57caa88bf1f4e1bf9521bc47c3c0 -->
<g id="edge5" class="edge">
<title>dir_2b9dc5e8bb121bbf6312166c568f90af&#45;&gt;dir_e4cd57caa88bf1f4e1bf9521bc47c3c0</title>
<path fill="none" stroke="black" d="M204.76,-143.94C199.03,-138.62 192.5,-132.88 186.2,-128 179.43,-122.76 171.91,-117.51 164.62,-112.69"/>
<polygon fill="black" stroke="black" points="166.51,-109.75 156.22,-107.24 162.71,-115.62 166.51,-109.75"/>
<g id="a_edge5&#45;headlabel"><a xlink:href="dir_000006_000010.html" target="_top" xlink:title="4">
<text text-anchor="middle" x="171.08" y="-106.82" font-family="Helvetica,sans-Serif" font-size="10.00">4</text>
</a>
</g>
</g>
<!-- dir_2b9dc5e8bb121bbf6312166c568f90af&#45;&gt;dir_3d3615e9a999cab4f3407307569d6ced -->
<g id="edge6" class="edge">
<title>dir_2b9dc5e8bb121bbf6312166c568f90af&#45;&gt;dir_3d3615e9a999cab4f3407307569d6ced</title>
<path fill="none" stroke="black" d="M219.91,-143.87C216.67,-119.67 210.72,-75.21 206.86,-46.39"/>
<polygon fill="black" stroke="black" points="210.29,-45.64 205.5,-36.19 203.35,-46.57 210.29,-45.64"/>
<g id="a_edge6&#45;headlabel"><a xlink:href="dir_000006_000017.html" target="_top" xlink:title="3">
<text text-anchor="middle" x="213.58" y="-46.32" font-family="Helvetica,sans-Serif" font-size="10.00">3</text>
</a>
</g>
</g>
<!-- dir_26e13646035c47d7e3eb3b975c94bc4e&#45;&gt;dir_e4cd57caa88bf1f4e1bf9521bc47c3c0 -->
<g id="edge7" class="edge">
<title>dir_26e13646035c47d7e3eb3b975c94bc4e&#45;&gt;dir_e4cd57caa88bf1f4e1bf9521bc47c3c0</title>
<path fill="none" stroke="black" d="M145.01,-143.7C142.67,-135.9 139.85,-126.51 137.25,-117.83"/>
<polygon fill="black" stroke="black" points="140.55,-116.68 134.33,-108.1 133.85,-118.69 140.55,-116.68"/>
<g id="a_edge7&#45;headlabel"><a xlink:href="dir_000007_000010.html" target="_top" xlink:title="4">
<text text-anchor="middle" x="144.31" y="-116.8" font-family="Helvetica,sans-Serif" font-size="10.00">4</text>
</a>
</g>
</g>
<!-- dir_26e13646035c47d7e3eb3b975c94bc4e&#45;&gt;dir_3d3615e9a999cab4f3407307569d6ced -->
<g id="edge8" class="edge">
<title>dir_26e13646035c47d7e3eb3b975c94bc4e&#45;&gt;dir_3d3615e9a999cab4f3407307569d6ced</title>
<path fill="none" stroke="black" d="M156.59,-143.87C165.7,-119.46 182.51,-74.43 193.26,-45.64"/>
<polygon fill="black" stroke="black" points="196.56,-46.78 196.78,-36.19 190.01,-44.33 196.56,-46.78"/>
<g id="a_edge8&#45;headlabel"><a xlink:href="dir_000007_000017.html" target="_top" xlink:title="4">
<text text-anchor="middle" x="197.97" y="-48.64" font-family="Helvetica,sans-Serif" font-size="10.00">4</text>
</a>
</g>
</g>
<!-- dir_e3d85df9da26726704711d7e5a0bc894 -->
<g id="node5" class="node">
<title>dir_e3d85df9da26726704711d7e5a0bc894</title>
<g id="a_node5"><a xlink:href="dir_e3d85df9da26726704711d7e5a0bc894.html" target="_top" xlink:title="wing">
<polygon fill="white" stroke="black" points="105.2,-252 51.2,-252 51.2,-216 105.2,-216 105.2,-252"/>
<text text-anchor="middle" x="78.2" y="-231.5" font-family="Helvetica,sans-Serif" font-size="10.00">wing</text>
</a>
</g>
</g>
<!-- dir_e3d85df9da26726704711d7e5a0bc894&#45;&gt;dir_e4e9964e9eecc53686804f6e188c33cc -->
<g id="edge2" class="edge">
<title>dir_e3d85df9da26726704711d7e5a0bc894&#45;&gt;dir_e4e9964e9eecc53686804f6e188c33cc</title>
<path fill="none" stroke="black" d="M78.2,-215.7C78.2,-207.98 78.2,-198.71 78.2,-190.11"/>
<polygon fill="black" stroke="black" points="81.7,-190.1 78.2,-180.1 74.7,-190.1 81.7,-190.1"/>
<g id="a_edge2&#45;headlabel"><a xlink:href="dir_000008_000009.html" target="_top" xlink:title="3">
<text text-anchor="middle" x="84.54" y="-191.2" font-family="Helvetica,sans-Serif" font-size="10.00">3</text>
</a>
</g>
</g>
<!-- dir_e3d85df9da26726704711d7e5a0bc894&#45;&gt;dir_e4cd57caa88bf1f4e1bf9521bc47c3c0 -->
<g id="edge3" class="edge">
<title>dir_e3d85df9da26726704711d7e5a0bc894&#45;&gt;dir_e4cd57caa88bf1f4e1bf9521bc47c3c0</title>
<path fill="none" stroke="black" d="M51.17,-220.13C35.81,-211.21 17.94,-197.75 9.2,-180 -1.02,-159.27 -4.53,-146.59 9.2,-128 28.03,-102.49 64.18,-94.02 91.91,-91.47"/>
<polygon fill="black" stroke="black" points="92.34,-94.95 102.07,-90.76 91.85,-87.96 92.34,-94.95"/>
<g id="a_edge3&#45;headlabel"><a xlink:href="dir_000008_000010.html" target="_top" xlink:title="3">
<text text-anchor="middle" x="88.95" y="-95.53" font-family="Helvetica,sans-Serif" font-size="10.00">3</text>
</a>
</g>
</g>
<!-- dir_e3d85df9da26726704711d7e5a0bc894&#45;&gt;dir_3d3615e9a999cab4f3407307569d6ced -->
<g id="edge4" class="edge">
<title>dir_e3d85df9da26726704711d7e5a0bc894&#45;&gt;dir_3d3615e9a999cab4f3407307569d6ced</title>
<path fill="none" stroke="black" d="M105.44,-225.89C154.61,-212.94 253.51,-186.26 258.2,-180 289.35,-138.35 251.63,-77.83 225.04,-44.1"/>
<polygon fill="black" stroke="black" points="227.59,-41.69 218.57,-36.13 222.16,-46.1 227.59,-41.69"/>
<g id="a_edge4&#45;headlabel"><a xlink:href="dir_000008_000017.html" target="_top" xlink:title="1">
<text text-anchor="middle" x="232.06" y="-40.19" font-family="Helvetica,sans-Serif" font-size="10.00">1</text>
</a>
</g>
</g>
<!-- dir_e4cd57caa88bf1f4e1bf9521bc47c3c0&#45;&gt;dir_3d3615e9a999cab4f3407307569d6ced -->
<g id="edge9" class="edge">
<title>dir_e4cd57caa88bf1f4e1bf9521bc47c3c0&#45;&gt;dir_3d3615e9a999cab4f3407307569d6ced</title>
<path fill="none" stroke="black" d="M141.57,-71.7C149.9,-62.97 161.07,-52.24 171.66,-42.75"/>
<polygon fill="black" stroke="black" points="174.02,-45.34 179.22,-36.1 169.4,-40.08 174.02,-45.34"/>
<g id="a_edge9&#45;headlabel"><a xlink:href="dir_000010_000017.html" target="_top" xlink:title="20">
<text text-anchor="middle" x="173.2" y="-47.34" font-family="Helvetica,sans-Serif" font-size="10.00">20</text>
</a>
</g>
</g>
<!-- dir_3d3615e9a999cab4f3407307569d6ced&#45;&gt;dir_e4cd57caa88bf1f4e1bf9521bc47c3c0 -->
<g id="edge14" class="edge">
<title>dir_3d3615e9a999cab4f3407307569d6ced&#45;&gt;dir_e4cd57caa88bf1f4e1bf9521bc47c3c0</title>
<path fill="none" stroke="black" d="M191.01,-36.1C182.72,-44.8 171.58,-55.52 160.98,-65.03"/>
<polygon fill="black" stroke="black" points="158.6,-62.46 153.41,-71.7 163.22,-67.72 158.6,-62.46"/>
<g id="a_edge14&#45;headlabel"><a xlink:href="dir_000017_000010.html" target="_top" xlink:title="1">
<text text-anchor="middle" x="159.42" y="-55.46" font-family="Helvetica,sans-Serif" font-size="10.00">1</text>
</a>
</g>
</g>
</g>
</svg>
