<?xml version="1.0" encoding="UTF-8" standalone="no"?>
<!DOCTYPE svg PUBLIC "-//W3C//DTD SVG 1.1//EN"
 "http://www.w3.org/Graphics/SVG/1.1/DTD/svg11.dtd">
<!-- Generated by graphviz version 2.43.0 (0)
 -->
<!-- Title: utilities Pages: 1 -->
<svg width="439pt" height="231pt"
 viewBox="0.00 0.00 438.79 231.00" xmlns="http://www.w3.org/2000/svg" xmlns:xlink="http://www.w3.org/1999/xlink">
<g id="graph0" class="graph" transform="scale(1 1) rotate(0) translate(4 227)">
<title>utilities</title>
<polygon fill="white" stroke="transparent" points="-4,4 -4,-227 434.79,-227 434.79,4 -4,4"/>
<g id="clust1" class="cluster">
<title>clusterdir_d85575251dd712327fe3cf057fa568b4</title>
<g id="a_clust1"><a xlink:href="dir_d85575251dd712327fe3cf057fa568b4.html" target="_top" xlink:title="amr&#45;wind">
<polygon fill="#ddddee" stroke="black" points="8,-56 8,-215 318,-215 318,-56 8,-56"/>
<text text-anchor="middle" x="163" y="-203" font-family="Helvetica,sans-Serif" font-size="10.00">amr&#45;wind</text>
</a>
</g>
</g>
<g id="clust2" class="cluster">
<title>clusterdir_e4cd57caa88bf1f4e1bf9521bc47c3c0</title>
<g id="a_clust2"><a xlink:href="dir_e4cd57caa88bf1f4e1bf9521bc47c3c0.html" target="_top">
<polygon fill="#eeeeff" stroke="black" points="16,-64 16,-188 310,-188 310,-64 16,-64"/>
</a>
</g>
</g>
<!-- dir_e4cd57caa88bf1f4e1bf9521bc47c3c0 -->
<g id="node1" class="node">
<title>dir_e4cd57caa88bf1f4e1bf9521bc47c3c0</title>
<text text-anchor="middle" x="51" y="-159.5" font-family="Helvetica,sans-Serif" font-size="10.00">utilities</text>
</g>
<!-- dir_a925f5bb87732fc4d72dcc12cc6db92b -->
<g id="node3" class="node">
<title>dir_a925f5bb87732fc4d72dcc12cc6db92b</title>
<g id="a_node3"><a xlink:href="dir_a925f5bb87732fc4d72dcc12cc6db92b.html" target="_top" xlink:title="averaging">
<polygon fill="white" stroke="black" points="89.5,-108 24.5,-108 24.5,-72 89.5,-72 89.5,-108"/>
<text text-anchor="middle" x="57" y="-87.5" font-family="Helvetica,sans-Serif" font-size="10.00">averaging</text>
</a>
</g>
</g>
<!-- dir_e4cd57caa88bf1f4e1bf9521bc47c3c0&#45;&gt;dir_a925f5bb87732fc4d72dcc12cc6db92b -->
<g id="edge6" class="edge">
<title>dir_e4cd57caa88bf1f4e1bf9521bc47c3c0&#45;&gt;dir_a925f5bb87732fc4d72dcc12cc6db92b</title>
<path fill="none" stroke="black" d="M52.48,-143.7C53.14,-135.98 53.94,-126.71 54.68,-118.11"/>
<polygon fill="black" stroke="black" points="58.17,-118.37 55.53,-108.1 51.19,-117.77 58.17,-118.37"/>
<g id="a_edge6&#45;headlabel"><a xlink:href="dir_000010_000043.html" target="_top" xlink:title="1">
<text text-anchor="middle" x="60.69" y="-119.69" font-family="Helvetica,sans-Serif" font-size="10.00">1</text>
</a>
</g>
</g>
<!-- dir_cabce38f77158481c263d4f5d6890a8c -->
<g id="node2" class="node">
<title>dir_cabce38f77158481c263d4f5d6890a8c</title>
<g id="a_node2"><a xlink:href="dir_cabce38f77158481c263d4f5d6890a8c.html" target="_top" xlink:title="ascent">
<polygon fill="white" stroke="black" points="230,-180 176,-180 176,-144 230,-144 230,-180"/>
<text text-anchor="middle" x="203" y="-159.5" font-family="Helvetica,sans-Serif" font-size="10.00">ascent</text>
</a>
</g>
</g>
<!-- dir_3d3615e9a999cab4f3407307569d6ced -->
<g id="node8" class="node">
<title>dir_3d3615e9a999cab4f3407307569d6ced</title>
<g id="a_node8"><a xlink:href="dir_3d3615e9a999cab4f3407307569d6ced.html" target="_top" xlink:title="core">
<polygon fill="white" stroke="red" points="407,-36 353,-36 353,0 407,0 407,-36"/>
<text text-anchor="middle" x="380" y="-15.5" font-family="Helvetica,sans-Serif" font-size="10.00">core</text>
</a>
</g>
</g>
<!-- dir_a925f5bb87732fc4d72dcc12cc6db92b&#45;&gt;dir_3d3615e9a999cab4f3407307569d6ced -->
<g id="edge5" class="edge">
<title>dir_a925f5bb87732fc4d72dcc12cc6db92b&#45;&gt;dir_3d3615e9a999cab4f3407307569d6ced</title>
<path fill="none" stroke="black" d="M74.44,-71.87C81.51,-65.89 90.11,-59.74 99,-56 142.17,-37.83 276.57,-26.22 342.61,-21.46"/>
<polygon fill="black" stroke="black" points="343.24,-24.93 352.97,-20.73 342.75,-17.94 343.24,-24.93"/>
<g id="a_edge5&#45;headlabel"><a xlink:href="dir_000043_000017.html" target="_top" xlink:title="5">
<text text-anchor="middle" x="339.86" y="-25.51" font-family="Helvetica,sans-Serif" font-size="10.00">5</text>
</a>
</g>
</g>
<!-- dir_e4878a39f7a1ff4e13f4c83bf1db7931 -->
<g id="node4" class="node">
<title>dir_e4878a39f7a1ff4e13f4c83bf1db7931</title>
<g id="a_node4"><a xlink:href="dir_e4878a39f7a1ff4e13f4c83bf1db7931.html" target="_top" xlink:title="ncutils">
<polygon fill="white" stroke="black" points="162,-108 108,-108 108,-72 162,-72 162,-108"/>
<text text-anchor="middle" x="135" y="-87.5" font-family="Helvetica,sans-Serif" font-size="10.00">ncutils</text>
</a>
</g>
</g>
<!-- dir_0ad5cc9f0732862bd2f85bb38c1084f0 -->
<g id="node5" class="node">
<title>dir_0ad5cc9f0732862bd2f85bb38c1084f0</title>
<g id="a_node5"><a xlink:href="dir_0ad5cc9f0732862bd2f85bb38c1084f0.html" target="_top" xlink:title="sampling">
<polygon fill="white" stroke="black" points="158,-180 96,-180 96,-144 158,-144 158,-180"/>
<text text-anchor="middle" x="127" y="-159.5" font-family="Helvetica,sans-Serif" font-size="10.00">sampling</text>
</a>
</g>
</g>
<!-- dir_0ad5cc9f0732862bd2f85bb38c1084f0&#45;&gt;dir_e4878a39f7a1ff4e13f4c83bf1db7931 -->
<g id="edge2" class="edge">
<title>dir_0ad5cc9f0732862bd2f85bb38c1084f0&#45;&gt;dir_e4878a39f7a1ff4e13f4c83bf1db7931</title>
<path fill="none" stroke="black" d="M128.98,-143.7C129.86,-135.98 130.92,-126.71 131.9,-118.11"/>
<polygon fill="black" stroke="black" points="135.39,-118.44 133.05,-108.1 128.43,-117.64 135.39,-118.44"/>
<g id="a_edge2&#45;headlabel"><a xlink:href="dir_000023_000039.html" target="_top" xlink:title="6">
<text text-anchor="middle" x="137.8" y="-119.83" font-family="Helvetica,sans-Serif" font-size="10.00">6</text>
</a>
</g>
</g>
<!-- dir_7f7a014517bfe31ea45620a6a947e37b -->
<g id="node7" class="node">
<title>dir_7f7a014517bfe31ea45620a6a947e37b</title>
<g id="a_node7"><a xlink:href="dir_7f7a014517bfe31ea45620a6a947e37b.html" target="_top" xlink:title="fvm">
<polygon fill="none" stroke="black" points="380,-108 326,-108 326,-72 380,-72 380,-108"/>
<text text-anchor="middle" x="353" y="-87.5" font-family="Helvetica,sans-Serif" font-size="10.00">fvm</text>
</a>
</g>
</g>
<!-- dir_0ad5cc9f0732862bd2f85bb38c1084f0&#45;&gt;dir_7f7a014517bfe31ea45620a6a947e37b -->
<g id="edge3" class="edge">
<title>dir_0ad5cc9f0732862bd2f85bb38c1084f0&#45;&gt;dir_7f7a014517bfe31ea45620a6a947e37b</title>
<path fill="none" stroke="black" d="M158.26,-147.15C161.19,-146.02 164.14,-144.95 167,-144 230.83,-122.78 250.27,-129.52 314,-108 314.86,-107.71 315.72,-107.41 316.59,-107.1"/>
<polygon fill="black" stroke="black" points="317.88,-110.35 325.96,-103.49 315.37,-103.82 317.88,-110.35"/>
<g id="a_edge3&#45;headlabel"><a xlink:href="dir_000023_000019.html" target="_top" xlink:title="1">
<text text-anchor="middle" x="315.55" y="-111.79" font-family="Helvetica,sans-Serif" font-size="10.00">1</text>
</a>
</g>
</g>
<!-- dir_0ad5cc9f0732862bd2f85bb38c1084f0&#45;&gt;dir_3d3615e9a999cab4f3407307569d6ced -->
<g id="edge4" class="edge">
<title>dir_0ad5cc9f0732862bd2f85bb38c1084f0&#45;&gt;dir_3d3615e9a999cab4f3407307569d6ced</title>
<path fill="none" stroke="black" d="M158.18,-146.91C161.13,-145.83 164.1,-144.84 167,-144 215.01,-130.13 356.61,-146.06 389,-108 403.4,-91.08 398.89,-65.28 392.12,-45.8"/>
<polygon fill="black" stroke="black" points="395.31,-44.35 388.45,-36.28 388.78,-46.87 395.31,-44.35"/>
<g id="a_edge4&#45;headlabel"><a xlink:href="dir_000023_000017.html" target="_top" xlink:title="3">
<text text-anchor="middle" x="399.25" y="-44.19" font-family="Helvetica,sans-Serif" font-size="10.00">3</text>
</a>
</g>
</g>
<!-- dir_840c4e0daa8df97bd9a0df29e85df46b -->
<g id="node6" class="node">
<title>dir_840c4e0daa8df97bd9a0df29e85df46b</title>
<g id="a_node6"><a xlink:href="dir_840c4e0daa8df97bd9a0df29e85df46b.html" target="_top" xlink:title="tagging">
<polygon fill="white" stroke="black" points="302,-180 248,-180 248,-144 302,-144 302,-180"/>
<text text-anchor="middle" x="275" y="-159.5" font-family="Helvetica,sans-Serif" font-size="10.00">tagging</text>
</a>
</g>
</g>
<!-- dir_840c4e0daa8df97bd9a0df29e85df46b&#45;&gt;dir_3d3615e9a999cab4f3407307569d6ced -->
<g id="edge1" class="edge">
<title>dir_840c4e0daa8df97bd9a0df29e85df46b&#45;&gt;dir_3d3615e9a999cab4f3407307569d6ced</title>
<path fill="none" stroke="black" d="M302.23,-160.06C336.71,-157.23 394.87,-146.63 422,-108 435.28,-89.09 431.51,-77.06 422,-56 419.96,-51.48 417.06,-47.29 413.73,-43.48"/>
<polygon fill="black" stroke="black" points="415.97,-40.77 406.41,-36.2 411.04,-45.74 415.97,-40.77"/>
<g id="a_edge1&#45;headlabel"><a xlink:href="dir_000016_000017.html" target="_top" xlink:title="3">
<text text-anchor="middle" x="420.52" y="-38.8" font-family="Helvetica,sans-Serif" font-size="10.00">3</text>
</a>
</g>
</g>
<!-- dir_7f7a014517bfe31ea45620a6a947e37b&#45;&gt;dir_3d3615e9a999cab4f3407307569d6ced -->
<g id="edge7" class="edge">
<title>dir_7f7a014517bfe31ea45620a6a947e37b&#45;&gt;dir_3d3615e9a999cab4f3407307569d6ced</title>
<path fill="none" stroke="black" d="M359.67,-71.7C362.71,-63.81 366.38,-54.3 369.76,-45.55"/>
<polygon fill="black" stroke="black" points="373.07,-46.69 373.4,-36.1 366.54,-44.17 373.07,-46.69"/>
<g id="a_edge7&#45;headlabel"><a xlink:href="dir_000019_000017.html" target="_top" xlink:title="1">
<text text-anchor="middle" x="374.42" y="-48.57" font-family="Helvetica,sans-Serif" font-size="10.00">1</text>
</a>
</g>
</g>
</g>
</svg>
