<?xml version="1.0" encoding="UTF-8" standalone="no"?>
<!DOCTYPE svg PUBLIC "-//W3C//DTD SVG 1.1//EN"
 "http://www.w3.org/Graphics/SVG/1.1/DTD/svg11.dtd">
<!-- Generated by graphviz version 2.43.0 (0)
 -->
<!-- Title: bluff_body Pages: 1 -->
<svg width="157pt" height="367pt"
 viewBox="0.00 0.00 157.31 367.00" xmlns="http://www.w3.org/2000/svg" xmlns:xlink="http://www.w3.org/1999/xlink">
<g id="graph0" class="graph" transform="scale(1 1) rotate(0) translate(4 363)">
<title>bluff_body</title>
<polygon fill="white" stroke="transparent" points="-4,4 -4,-363 153.31,-363 153.31,4 -4,4"/>
<g id="clust1" class="cluster">
<title>clusterdir_fd923bd2d0167375463be7322a394e28</title>
<g id="a_clust1"><a xlink:href="dir_fd923bd2d0167375463be7322a394e28.html" target="_top" xlink:title="immersed_boundary">
<polygon fill="#ddddee" stroke="black" points="16.31,-280 16.31,-351 133.31,-351 133.31,-280 16.31,-280"/>
<text text-anchor="middle" x="74.81" y="-339" font-family="Helvetica,sans-Serif" font-size="10.00">immersed_boundary</text>
</a>
</g>
</g>
<!-- dir_cbbe9331ac969bdd6ef14e7a7b37084e -->
<g id="node1" class="node">
<title>dir_cbbe9331ac969bdd6ef14e7a7b37084e</title>
<g id="a_node1"><a xlink:href="dir_cbbe9331ac969bdd6ef14e7a7b37084e.html" target="_top" xlink:title="bluff_body">
<polygon fill="#eeeeff" stroke="black" points="108.31,-324 40.31,-324 40.31,-288 108.31,-288 108.31,-324"/>
<text text-anchor="middle" x="74.31" y="-303.5" font-family="Helvetica,sans-Serif" font-size="10.00">bluff_body</text>
</a>
</g>
</g>
<!-- dir_f2c65bfcbdc19ebacbfc0bbbfb0d01b6 -->
<g id="node2" class="node">
<title>dir_f2c65bfcbdc19ebacbfc0bbbfb0d01b6</title>
<g id="a_node2"><a xlink:href="dir_f2c65bfcbdc19ebacbfc0bbbfb0d01b6.html" target="_top" xlink:title="physics">
<polygon fill="white" stroke="red" points="74.31,-252 20.31,-252 20.31,-216 74.31,-216 74.31,-252"/>
<text text-anchor="middle" x="47.31" y="-231.5" font-family="Helvetica,sans-Serif" font-size="10.00">physics</text>
</a>
</g>
</g>
<!-- dir_cbbe9331ac969bdd6ef14e7a7b37084e&#45;&gt;dir_f2c65bfcbdc19ebacbfc0bbbfb0d01b6 -->
<g id="edge4" class="edge">
<title>dir_cbbe9331ac969bdd6ef14e7a7b37084e&#45;&gt;dir_f2c65bfcbdc19ebacbfc0bbbfb0d01b6</title>
<path fill="none" stroke="black" d="M67.64,-287.7C64.6,-279.81 60.93,-270.3 57.55,-261.55"/>
<polygon fill="black" stroke="black" points="60.77,-260.17 53.91,-252.1 54.24,-262.69 60.77,-260.17"/>
<g id="a_edge4&#45;headlabel"><a xlink:href="dir_000014_000015.html" target="_top" xlink:title="1">
<text text-anchor="middle" x="64.72" y="-260.01" font-family="Helvetica,sans-Serif" font-size="10.00">1</text>
</a>
</g>
</g>
<!-- dir_e4cd57caa88bf1f4e1bf9521bc47c3c0 -->
<g id="node3" class="node">
<title>dir_e4cd57caa88bf1f4e1bf9521bc47c3c0</title>
<g id="a_node3"><a xlink:href="dir_e4cd57caa88bf1f4e1bf9521bc47c3c0.html" target="_top" xlink:title="utilities">
<polygon fill="white" stroke="red" points="93.31,-180 39.31,-180 39.31,-144 93.31,-144 93.31,-180"/>
<text text-anchor="middle" x="66.31" y="-159.5" font-family="Helvetica,sans-Serif" font-size="10.00">utilities</text>
</a>
</g>
</g>
<!-- dir_cbbe9331ac969bdd6ef14e7a7b37084e&#45;&gt;dir_e4cd57caa88bf1f4e1bf9521bc47c3c0 -->
<g id="edge5" class="edge">
<title>dir_cbbe9331ac969bdd6ef14e7a7b37084e&#45;&gt;dir_e4cd57caa88bf1f4e1bf9521bc47c3c0</title>
<path fill="none" stroke="black" d="M78.63,-287.87C82.56,-269.89 87.2,-240.86 83.31,-216 81.95,-207.31 79.41,-198.1 76.7,-189.84"/>
<polygon fill="black" stroke="black" points="79.98,-188.62 73.38,-180.33 73.37,-190.93 79.98,-188.62"/>
<g id="a_edge5&#45;headlabel"><a xlink:href="dir_000014_000010.html" target="_top" xlink:title="2">
<text text-anchor="middle" x="83.85" y="-188.58" font-family="Helvetica,sans-Serif" font-size="10.00">2</text>
</a>
</g>
</g>
<!-- dir_7f7a014517bfe31ea45620a6a947e37b -->
<g id="node4" class="node">
<title>dir_7f7a014517bfe31ea45620a6a947e37b</title>
<g id="a_node4"><a xlink:href="dir_7f7a014517bfe31ea45620a6a947e37b.html" target="_top" xlink:title="fvm">
<polygon fill="none" stroke="black" points="149.31,-108 95.31,-108 95.31,-72 149.31,-72 149.31,-108"/>
<text text-anchor="middle" x="122.31" y="-87.5" font-family="Helvetica,sans-Serif" font-size="10.00">fvm</text>
</a>
</g>
</g>
<!-- dir_cbbe9331ac969bdd6ef14e7a7b37084e&#45;&gt;dir_7f7a014517bfe31ea45620a6a947e37b -->
<g id="edge6" class="edge">
<title>dir_cbbe9331ac969bdd6ef14e7a7b37084e&#45;&gt;dir_7f7a014517bfe31ea45620a6a947e37b</title>
<path fill="none" stroke="black" d="M82.49,-287.98C87.33,-277.67 93.44,-264.2 98.31,-252 110.87,-220.54 117.68,-213.4 123.31,-180 125.97,-164.22 123.46,-160 123.31,-144 123.23,-135.68 123.09,-126.63 122.93,-118.4"/>
<polygon fill="black" stroke="black" points="126.42,-118.11 122.72,-108.18 119.42,-118.25 126.42,-118.11"/>
<g id="a_edge6&#45;headlabel"><a xlink:href="dir_000014_000019.html" target="_top" xlink:title="2">
<text text-anchor="middle" x="129.33" y="-119.15" font-family="Helvetica,sans-Serif" font-size="10.00">2</text>
</a>
</g>
</g>
<!-- dir_3d3615e9a999cab4f3407307569d6ced -->
<g id="node5" class="node">
<title>dir_3d3615e9a999cab4f3407307569d6ced</title>
<g id="a_node5"><a xlink:href="dir_3d3615e9a999cab4f3407307569d6ced.html" target="_top" xlink:title="core">
<polygon fill="white" stroke="red" points="85.31,-36 31.31,-36 31.31,0 85.31,0 85.31,-36"/>
<text text-anchor="middle" x="58.31" y="-15.5" font-family="Helvetica,sans-Serif" font-size="10.00">core</text>
</a>
</g>
</g>
<!-- dir_cbbe9331ac969bdd6ef14e7a7b37084e&#45;&gt;dir_3d3615e9a999cab4f3407307569d6ced -->
<g id="edge7" class="edge">
<title>dir_cbbe9331ac969bdd6ef14e7a7b37084e&#45;&gt;dir_3d3615e9a999cab4f3407307569d6ced</title>
<path fill="none" stroke="black" d="M44.01,-287.8C31.43,-278.9 18.19,-266.77 11.31,-252 -4.11,-218.86 -6.89,-184.04 29.31,-72 32.26,-62.86 36.81,-53.48 41.44,-45.2"/>
<polygon fill="black" stroke="black" points="44.57,-46.79 46.62,-36.39 38.53,-43.24 44.57,-46.79"/>
<g id="a_edge7&#45;headlabel"><a xlink:href="dir_000014_000017.html" target="_top" xlink:title="4">
<text text-anchor="middle" x="45.2" y="-48.82" font-family="Helvetica,sans-Serif" font-size="10.00">4</text>
</a>
</g>
</g>
<!-- dir_f2c65bfcbdc19ebacbfc0bbbfb0d01b6&#45;&gt;dir_e4cd57caa88bf1f4e1bf9521bc47c3c0 -->
<g id="edge1" class="edge">
<title>dir_f2c65bfcbdc19ebacbfc0bbbfb0d01b6&#45;&gt;dir_e4cd57caa88bf1f4e1bf9521bc47c3c0</title>
<path fill="none" stroke="black" d="M52.01,-215.7C54.12,-207.9 56.67,-198.51 59.03,-189.83"/>
<polygon fill="black" stroke="black" points="62.43,-190.67 61.67,-180.1 55.67,-188.84 62.43,-190.67"/>
<g id="a_edge1&#45;headlabel"><a xlink:href="dir_000015_000010.html" target="_top" xlink:title="11">
<text text-anchor="middle" x="64.23" y="-192.38" font-family="Helvetica,sans-Serif" font-size="10.00">11</text>
</a>
</g>
</g>
<!-- dir_f2c65bfcbdc19ebacbfc0bbbfb0d01b6&#45;&gt;dir_7f7a014517bfe31ea45620a6a947e37b -->
<g id="edge2" class="edge">
<title>dir_f2c65bfcbdc19ebacbfc0bbbfb0d01b6&#45;&gt;dir_7f7a014517bfe31ea45620a6a947e37b</title>
<path fill="none" stroke="black" d="M70.5,-215.99C81.73,-206.59 94.44,-193.98 102.31,-180 113.02,-160.96 118,-136.6 120.31,-118.18"/>
<polygon fill="black" stroke="black" points="123.8,-118.42 121.38,-108.11 116.84,-117.68 123.8,-118.42"/>
<g id="a_edge2&#45;headlabel"><a xlink:href="dir_000015_000019.html" target="_top" xlink:title="4">
<text text-anchor="middle" x="126.24" y="-119.8" font-family="Helvetica,sans-Serif" font-size="10.00">4</text>
</a>
</g>
</g>
<!-- dir_f2c65bfcbdc19ebacbfc0bbbfb0d01b6&#45;&gt;dir_3d3615e9a999cab4f3407307569d6ced -->
<g id="edge3" class="edge">
<title>dir_f2c65bfcbdc19ebacbfc0bbbfb0d01b6&#45;&gt;dir_3d3615e9a999cab4f3407307569d6ced</title>
<path fill="none" stroke="black" d="M40.25,-215.67C36.47,-205.47 32.22,-192.22 30.31,-180 22.91,-132.7 37.43,-77.81 48.19,-45.88"/>
<polygon fill="black" stroke="black" points="51.52,-46.95 51.52,-36.36 44.91,-44.64 51.52,-46.95"/>
<g id="a_edge3&#45;headlabel"><a xlink:href="dir_000015_000017.html" target="_top" xlink:title="52">
<text text-anchor="middle" x="53.02" y="-48.78" font-family="Helvetica,sans-Serif" font-size="10.00">52</text>
</a>
</g>
</g>
<!-- dir_e4cd57caa88bf1f4e1bf9521bc47c3c0&#45;&gt;dir_7f7a014517bfe31ea45620a6a947e37b -->
<g id="edge8" class="edge">
<title>dir_e4cd57caa88bf1f4e1bf9521bc47c3c0&#45;&gt;dir_7f7a014517bfe31ea45620a6a947e37b</title>
<path fill="none" stroke="black" d="M80.15,-143.7C86.8,-135.39 94.89,-125.28 102.2,-116.14"/>
<polygon fill="black" stroke="black" points="105.11,-118.1 108.63,-108.1 99.65,-113.73 105.11,-118.1"/>
<g id="a_edge8&#45;headlabel"><a xlink:href="dir_000010_000019.html" target="_top" xlink:title="2">
<text text-anchor="middle" x="105.09" y="-120.18" font-family="Helvetica,sans-Serif" font-size="10.00">2</text>
</a>
</g>
</g>
<!-- dir_e4cd57caa88bf1f4e1bf9521bc47c3c0&#45;&gt;dir_3d3615e9a999cab4f3407307569d6ced -->
<g id="edge9" class="edge">
<title>dir_e4cd57caa88bf1f4e1bf9521bc47c3c0&#45;&gt;dir_3d3615e9a999cab4f3407307569d6ced</title>
<path fill="none" stroke="black" d="M60.76,-143.87C56.84,-119.67 54.04,-75.21 54.4,-46.39"/>
<polygon fill="black" stroke="black" points="57.9,-46.29 54.69,-36.19 50.9,-46.08 57.9,-46.29"/>
<g id="a_edge9&#45;headlabel"><a xlink:href="dir_000010_000017.html" target="_top" xlink:title="20">
<text text-anchor="middle" x="60.64" y="-47.46" font-family="Helvetica,sans-Serif" font-size="10.00">20</text>
</a>
</g>
</g>
<!-- dir_7f7a014517bfe31ea45620a6a947e37b&#45;&gt;dir_3d3615e9a999cab4f3407307569d6ced -->
<g id="edge10" class="edge">
<title>dir_7f7a014517bfe31ea45620a6a947e37b&#45;&gt;dir_3d3615e9a999cab4f3407307569d6ced</title>
<path fill="none" stroke="black" d="M106.49,-71.7C98.74,-63.22 89.27,-52.86 80.79,-43.58"/>
<polygon fill="black" stroke="black" points="83.28,-41.12 73.95,-36.1 78.11,-45.85 83.28,-41.12"/>
<g id="a_edge10&#45;headlabel"><a xlink:href="dir_000019_000017.html" target="_top" xlink:title="1">
<text text-anchor="middle" x="87.8" y="-39.36" font-family="Helvetica,sans-Serif" font-size="10.00">1</text>
</a>
</g>
</g>
<!-- dir_3d3615e9a999cab4f3407307569d6ced&#45;&gt;dir_e4cd57caa88bf1f4e1bf9521bc47c3c0 -->
<g id="edge11" class="edge">
<title>dir_3d3615e9a999cab4f3407307569d6ced&#45;&gt;dir_e4cd57caa88bf1f4e1bf9521bc47c3c0</title>
<path fill="none" stroke="black" d="M63.87,-36.19C67.79,-60.42 70.58,-104.89 70.23,-133.68"/>
<polygon fill="black" stroke="black" points="66.72,-133.77 69.93,-143.87 73.72,-133.98 66.72,-133.77"/>
<g id="a_edge11&#45;headlabel"><a xlink:href="dir_000017_000010.html" target="_top" xlink:title="1">
<text text-anchor="middle" x="63.99" y="-127.6" font-family="Helvetica,sans-Serif" font-size="10.00">1</text>
</a>
</g>
</g>
</g>
</svg>
