<?xml version="1.0" encoding="UTF-8" standalone="no"?>
<!DOCTYPE svg PUBLIC "-//W3C//DTD SVG 1.1//EN"
 "http://www.w3.org/Graphics/SVG/1.1/DTD/svg11.dtd">
<!-- Generated by graphviz version 2.43.0 (0)
 -->
<!-- Title: core Pages: 1 -->
<svg width="228pt" height="231pt"
 viewBox="0.00 0.00 228.00 231.00" xmlns="http://www.w3.org/2000/svg" xmlns:xlink="http://www.w3.org/1999/xlink">
<g id="graph0" class="graph" transform="scale(1 1) rotate(0) translate(4 227)">
<title>core</title>
<polygon fill="white" stroke="transparent" points="-4,4 -4,-227 224,-227 224,4 -4,4"/>
<g id="clust1" class="cluster">
<title>clusterdir_d85575251dd712327fe3cf057fa568b4</title>
<g id="a_clust1"><a xlink:href="dir_d85575251dd712327fe3cf057fa568b4.html" target="_top" xlink:title="amr&#45;wind">
<polygon fill="#ddddee" stroke="black" points="8,-56 8,-215 94,-215 94,-56 8,-56"/>
<text text-anchor="middle" x="51" y="-203" font-family="Helvetica,sans-Serif" font-size="10.00">amr&#45;wind</text>
</a>
</g>
</g>
<g id="clust2" class="cluster">
<title>clusterdir_3d3615e9a999cab4f3407307569d6ced</title>
<g id="a_clust2"><a xlink:href="dir_3d3615e9a999cab4f3407307569d6ced.html" target="_top">
<polygon fill="#eeeeff" stroke="black" points="16,-64 16,-188 86,-188 86,-64 16,-64"/>
</a>
</g>
</g>
<!-- dir_3d3615e9a999cab4f3407307569d6ced -->
<g id="node1" class="node">
<title>dir_3d3615e9a999cab4f3407307569d6ced</title>
<text text-anchor="middle" x="51" y="-159.5" font-family="Helvetica,sans-Serif" font-size="10.00">core</text>
</g>
<!-- dir_746f6964e321f098213c94f0f6cc69fe -->
<g id="node2" class="node">
<title>dir_746f6964e321f098213c94f0f6cc69fe</title>
<g id="a_node2"><a xlink:href="dir_746f6964e321f098213c94f0f6cc69fe.html" target="_top" xlink:title="vs">
<polygon fill="white" stroke="black" points="78,-108 24,-108 24,-72 78,-72 78,-108"/>
<text text-anchor="middle" x="51" y="-87.5" font-family="Helvetica,sans-Serif" font-size="10.00">vs</text>
</a>
</g>
</g>
<!-- dir_3d3615e9a999cab4f3407307569d6ced&#45;&gt;dir_746f6964e321f098213c94f0f6cc69fe -->
<g id="edge5" class="edge">
<title>dir_3d3615e9a999cab4f3407307569d6ced&#45;&gt;dir_746f6964e321f098213c94f0f6cc69fe</title>
<path fill="none" stroke="black" d="M51,-143.7C51,-135.98 51,-126.71 51,-118.11"/>
<polygon fill="black" stroke="black" points="54.5,-118.1 51,-108.1 47.5,-118.1 54.5,-118.1"/>
<g id="a_edge5&#45;headlabel"><a xlink:href="dir_000017_000047.html" target="_top" xlink:title="1">
<text text-anchor="middle" x="57.34" y="-119.2" font-family="Helvetica,sans-Serif" font-size="10.00">1</text>
</a>
</g>
</g>
<!-- dir_ebb19deee3cd40f4ac122fef25c04ca8 -->
<g id="node3" class="node">
<title>dir_ebb19deee3cd40f4ac122fef25c04ca8</title>
<g id="a_node3"><a xlink:href="dir_ebb19deee3cd40f4ac122fef25c04ca8.html" target="_top" xlink:title="boundary_conditions">
<polygon fill="none" stroke="black" points="220,-108 102,-108 102,-72 220,-72 220,-108"/>
<text text-anchor="middle" x="161" y="-87.5" font-family="Helvetica,sans-Serif" font-size="10.00">boundary_conditions</text>
</a>
</g>
</g>
<!-- dir_3d3615e9a999cab4f3407307569d6ced&#45;&gt;dir_ebb19deee3cd40f4ac122fef25c04ca8 -->
<g id="edge4" class="edge">
<title>dir_3d3615e9a999cab4f3407307569d6ced&#45;&gt;dir_ebb19deee3cd40f4ac122fef25c04ca8</title>
<path fill="none" stroke="black" d="M72.01,-143.88C85.44,-134.72 103.17,-123.34 119.32,-113.48"/>
<polygon fill="black" stroke="black" points="121.33,-116.36 128.08,-108.19 117.71,-110.36 121.33,-116.36"/>
<g id="a_edge4&#45;headlabel"><a xlink:href="dir_000017_000012.html" target="_top" xlink:title="1">
<text text-anchor="middle" x="119.72" y="-118.14" font-family="Helvetica,sans-Serif" font-size="10.00">1</text>
</a>
</g>
</g>
<!-- dir_e4cd57caa88bf1f4e1bf9521bc47c3c0 -->
<g id="node4" class="node">
<title>dir_e4cd57caa88bf1f4e1bf9521bc47c3c0</title>
<g id="a_node4"><a xlink:href="dir_e4cd57caa88bf1f4e1bf9521bc47c3c0.html" target="_top" xlink:title="utilities">
<polygon fill="white" stroke="red" points="78,-36 24,-36 24,0 78,0 78,-36"/>
<text text-anchor="middle" x="51" y="-15.5" font-family="Helvetica,sans-Serif" font-size="10.00">utilities</text>
</a>
</g>
</g>
<!-- dir_746f6964e321f098213c94f0f6cc69fe&#45;&gt;dir_e4cd57caa88bf1f4e1bf9521bc47c3c0 -->
<g id="edge2" class="edge">
<title>dir_746f6964e321f098213c94f0f6cc69fe&#45;&gt;dir_e4cd57caa88bf1f4e1bf9521bc47c3c0</title>
<path fill="none" stroke="black" d="M45.08,-71.7C44.29,-63.98 44.06,-54.71 44.4,-46.11"/>
<polygon fill="black" stroke="black" points="47.9,-46.32 45.1,-36.1 40.92,-45.84 47.9,-46.32"/>
<g id="a_edge2&#45;headlabel"><a xlink:href="dir_000047_000010.html" target="_top" xlink:title="1">
<text text-anchor="middle" x="50.48" y="-47.61" font-family="Helvetica,sans-Serif" font-size="10.00">1</text>
</a>
</g>
</g>
<!-- dir_ebb19deee3cd40f4ac122fef25c04ca8&#45;&gt;dir_3d3615e9a999cab4f3407307569d6ced -->
<g id="edge1" class="edge">
<title>dir_ebb19deee3cd40f4ac122fef25c04ca8&#45;&gt;dir_3d3615e9a999cab4f3407307569d6ced</title>
<path fill="none" stroke="black" d="M140.14,-108.02C125.14,-118.25 104.71,-131.3 87.13,-141.89"/>
<polygon fill="black" stroke="black" points="85.04,-139.05 78.24,-147.17 88.62,-145.07 85.04,-139.05"/>
<g id="a_edge1&#45;headlabel"><a xlink:href="dir_000012_000017.html" target="_top" xlink:title="8">
<text text-anchor="middle" x="86.68" y="-132.27" font-family="Helvetica,sans-Serif" font-size="10.00">8</text>
</a>
</g>
</g>
<!-- dir_e4cd57caa88bf1f4e1bf9521bc47c3c0&#45;&gt;dir_746f6964e321f098213c94f0f6cc69fe -->
<g id="edge3" class="edge">
<title>dir_e4cd57caa88bf1f4e1bf9521bc47c3c0&#45;&gt;dir_746f6964e321f098213c94f0f6cc69fe</title>
<path fill="none" stroke="black" d="M56.9,-36.1C57.7,-43.79 57.94,-53.05 57.6,-61.67"/>
<polygon fill="black" stroke="black" points="54.11,-61.48 56.92,-71.7 61.09,-61.96 54.11,-61.48"/>
<g id="a_edge3&#45;headlabel"><a xlink:href="dir_000010_000047.html" target="_top" xlink:title="3">
<text text-anchor="middle" x="51.52" y="-55.2" font-family="Helvetica,sans-Serif" font-size="10.00">3</text>
</a>
</g>
</g>
</g>
</svg>
