<?xml version="1.0" encoding="UTF-8" standalone="no"?>
<!DOCTYPE svg PUBLIC "-//W3C//DTD SVG 1.1//EN"
 "http://www.w3.org/Graphics/SVG/1.1/DTD/svg11.dtd">
<!-- Generated by graphviz version 2.43.0 (0)
 -->
<!-- Title: multiphase Pages: 1 -->
<svg width="313pt" height="303pt"
 viewBox="0.00 0.00 313.00 303.00" xmlns="http://www.w3.org/2000/svg" xmlns:xlink="http://www.w3.org/1999/xlink">
<g id="graph0" class="graph" transform="scale(1 1) rotate(0) translate(4 299)">
<title>multiphase</title>
<polygon fill="white" stroke="transparent" points="-4,4 -4,-299 309,-299 309,4 -4,4"/>
<g id="clust1" class="cluster">
<title>clusterdir_f2c65bfcbdc19ebacbfc0bbbfb0d01b6</title>
<g id="a_clust1"><a xlink:href="dir_f2c65bfcbdc19ebacbfc0bbbfb0d01b6.html" target="_top" xlink:title="physics">
<polygon fill="#ddddee" stroke="black" points="101,-200 101,-287 297,-287 297,-200 101,-200"/>
<text text-anchor="middle" x="199" y="-275" font-family="Helvetica,sans-Serif" font-size="10.00">physics</text>
</a>
</g>
</g>
<g id="clust2" class="cluster">
<title>clusterdir_e037da66ad872c58acfc861df6f5c212</title>
<g id="a_clust2"><a xlink:href="dir_e037da66ad872c58acfc861df6f5c212.html" target="_top">
<polygon fill="#eeeeff" stroke="black" points="109,-208 109,-260 289,-260 289,-208 109,-208"/>
</a>
</g>
</g>
<!-- dir_e037da66ad872c58acfc861df6f5c212 -->
<g id="node1" class="node">
<title>dir_e037da66ad872c58acfc861df6f5c212</title>
<text text-anchor="middle" x="153" y="-231.5" font-family="Helvetica,sans-Serif" font-size="10.00">multiphase</text>
</g>
<!-- dir_7f7a014517bfe31ea45620a6a947e37b -->
<g id="node4" class="node">
<title>dir_7f7a014517bfe31ea45620a6a947e37b</title>
<g id="a_node4"><a xlink:href="dir_7f7a014517bfe31ea45620a6a947e37b.html" target="_top" xlink:title="fvm">
<polygon fill="none" stroke="black" points="54,-180 0,-180 0,-144 54,-144 54,-180"/>
<text text-anchor="middle" x="27" y="-159.5" font-family="Helvetica,sans-Serif" font-size="10.00">fvm</text>
</a>
</g>
</g>
<!-- dir_e037da66ad872c58acfc861df6f5c212&#45;&gt;dir_7f7a014517bfe31ea45620a6a947e37b -->
<g id="edge1" class="edge">
<title>dir_e037da66ad872c58acfc861df6f5c212&#45;&gt;dir_7f7a014517bfe31ea45620a6a947e37b</title>
<path fill="none" stroke="black" d="M122.18,-215.88C104.27,-205.93 81.62,-193.35 62.91,-182.95"/>
<polygon fill="black" stroke="black" points="64.52,-179.84 54.08,-178.05 61.12,-185.96 64.52,-179.84"/>
<g id="a_edge1&#45;headlabel"><a xlink:href="dir_000020_000019.html" target="_top" xlink:title="4">
<text text-anchor="middle" x="69.04" y="-176.61" font-family="Helvetica,sans-Serif" font-size="10.00">4</text>
</a>
</g>
</g>
<!-- dir_4bb30ed846ea1df1fc4d16874a455d91 -->
<g id="node5" class="node">
<title>dir_4bb30ed846ea1df1fc4d16874a455d91</title>
<g id="a_node5"><a xlink:href="dir_4bb30ed846ea1df1fc4d16874a455d91.html" target="_top" xlink:title="equation_systems">
<polygon fill="white" stroke="red" points="216,-180 110,-180 110,-144 216,-144 216,-180"/>
<text text-anchor="middle" x="163" y="-159.5" font-family="Helvetica,sans-Serif" font-size="10.00">equation_systems</text>
</a>
</g>
</g>
<!-- dir_e037da66ad872c58acfc861df6f5c212&#45;&gt;dir_4bb30ed846ea1df1fc4d16874a455d91 -->
<g id="edge2" class="edge">
<title>dir_e037da66ad872c58acfc861df6f5c212&#45;&gt;dir_4bb30ed846ea1df1fc4d16874a455d91</title>
<path fill="none" stroke="black" d="M155.47,-215.7C156.57,-207.98 157.9,-198.71 159.13,-190.11"/>
<polygon fill="black" stroke="black" points="162.61,-190.5 160.56,-180.1 155.68,-189.51 162.61,-190.5"/>
<g id="a_edge2&#45;headlabel"><a xlink:href="dir_000020_000002.html" target="_top" xlink:title="2">
<text text-anchor="middle" x="164.91" y="-191.96" font-family="Helvetica,sans-Serif" font-size="10.00">2</text>
</a>
</g>
</g>
<!-- dir_3d3615e9a999cab4f3407307569d6ced -->
<g id="node6" class="node">
<title>dir_3d3615e9a999cab4f3407307569d6ced</title>
<g id="a_node6"><a xlink:href="dir_3d3615e9a999cab4f3407307569d6ced.html" target="_top" xlink:title="core">
<polygon fill="white" stroke="red" points="135,-108 81,-108 81,-72 135,-72 135,-108"/>
<text text-anchor="middle" x="108" y="-87.5" font-family="Helvetica,sans-Serif" font-size="10.00">core</text>
</a>
</g>
</g>
<!-- dir_e037da66ad872c58acfc861df6f5c212&#45;&gt;dir_3d3615e9a999cab4f3407307569d6ced -->
<g id="edge3" class="edge">
<title>dir_e037da66ad872c58acfc861df6f5c212&#45;&gt;dir_3d3615e9a999cab4f3407307569d6ced</title>
<path fill="none" stroke="black" d="M129.25,-215.91C118.45,-206.65 106.8,-194.2 101,-180 92.96,-160.33 95.54,-136.2 99.67,-118.04"/>
<polygon fill="black" stroke="black" points="103.12,-118.66 102.21,-108.1 96.34,-116.92 103.12,-118.66"/>
<g id="a_edge3&#45;headlabel"><a xlink:href="dir_000020_000017.html" target="_top" xlink:title="19">
<text text-anchor="middle" x="104.98" y="-120.35" font-family="Helvetica,sans-Serif" font-size="10.00">19</text>
</a>
</g>
</g>
<!-- dir_395d4653ff6806a93ed466b9a19f08b6 -->
<g id="node2" class="node">
<title>dir_395d4653ff6806a93ed466b9a19f08b6</title>
<g id="a_node2"><a xlink:href="dir_395d4653ff6806a93ed466b9a19f08b6.html" target="_top" xlink:title="wave_basin">
<polygon fill="white" stroke="black" points="281,-252 207,-252 207,-216 281,-216 281,-252"/>
<text text-anchor="middle" x="244" y="-231.5" font-family="Helvetica,sans-Serif" font-size="10.00">wave_basin</text>
</a>
</g>
</g>
<!-- dir_e4cd57caa88bf1f4e1bf9521bc47c3c0 -->
<g id="node3" class="node">
<title>dir_e4cd57caa88bf1f4e1bf9521bc47c3c0</title>
<g id="a_node3"><a xlink:href="dir_e4cd57caa88bf1f4e1bf9521bc47c3c0.html" target="_top" xlink:title="utilities">
<polygon fill="white" stroke="red" points="135,-36 81,-36 81,0 135,0 135,-36"/>
<text text-anchor="middle" x="108" y="-15.5" font-family="Helvetica,sans-Serif" font-size="10.00">utilities</text>
</a>
</g>
</g>
<!-- dir_395d4653ff6806a93ed466b9a19f08b6&#45;&gt;dir_e4cd57caa88bf1f4e1bf9521bc47c3c0 -->
<g id="edge7" class="edge">
<title>dir_395d4653ff6806a93ed466b9a19f08b6&#45;&gt;dir_e4cd57caa88bf1f4e1bf9521bc47c3c0</title>
<path fill="none" stroke="black" d="M248.57,-215.76C252.56,-197.18 256.28,-167.17 246,-144 225.25,-97.21 177.37,-60.48 143.86,-39.26"/>
<polygon fill="black" stroke="black" points="145.6,-36.22 135.25,-33.95 141.93,-42.18 145.6,-36.22"/>
<g id="a_edge7&#45;headlabel"><a xlink:href="dir_000040_000010.html" target="_top" xlink:title="1">
<text text-anchor="middle" x="150.15" y="-33.19" font-family="Helvetica,sans-Serif" font-size="10.00">1</text>
</a>
</g>
</g>
<!-- dir_395d4653ff6806a93ed466b9a19f08b6&#45;&gt;dir_3d3615e9a999cab4f3407307569d6ced -->
<g id="edge8" class="edge">
<title>dir_395d4653ff6806a93ed466b9a19f08b6&#45;&gt;dir_3d3615e9a999cab4f3407307569d6ced</title>
<path fill="none" stroke="black" d="M244.71,-215.66C244.59,-196.16 241.55,-164.55 225,-144 205.12,-119.31 171.25,-105.7 145.05,-98.48"/>
<polygon fill="black" stroke="black" points="145.63,-95.01 135.08,-95.93 143.9,-101.79 145.63,-95.01"/>
<g id="a_edge8&#45;headlabel"><a xlink:href="dir_000040_000017.html" target="_top" xlink:title="2">
<text text-anchor="middle" x="149.82" y="-90.65" font-family="Helvetica,sans-Serif" font-size="10.00">2</text>
</a>
</g>
</g>
<!-- dir_e4cd57caa88bf1f4e1bf9521bc47c3c0&#45;&gt;dir_7f7a014517bfe31ea45620a6a947e37b -->
<g id="edge4" class="edge">
<title>dir_e4cd57caa88bf1f4e1bf9521bc47c3c0&#45;&gt;dir_7f7a014517bfe31ea45620a6a947e37b</title>
<path fill="none" stroke="black" d="M95.42,-36.3C88.23,-46.48 79.23,-59.73 72,-72 59.91,-92.52 47.83,-116.68 39.23,-134.64"/>
<polygon fill="black" stroke="black" points="35.95,-133.39 34.83,-143.92 42.27,-136.38 35.95,-133.39"/>
<g id="a_edge4&#45;headlabel"><a xlink:href="dir_000010_000019.html" target="_top" xlink:title="2">
<text text-anchor="middle" x="34.92" y="-126.42" font-family="Helvetica,sans-Serif" font-size="10.00">2</text>
</a>
</g>
</g>
<!-- dir_e4cd57caa88bf1f4e1bf9521bc47c3c0&#45;&gt;dir_3d3615e9a999cab4f3407307569d6ced -->
<g id="edge5" class="edge">
<title>dir_e4cd57caa88bf1f4e1bf9521bc47c3c0&#45;&gt;dir_3d3615e9a999cab4f3407307569d6ced</title>
<path fill="none" stroke="black" d="M113.9,-36.1C114.7,-43.79 114.94,-53.05 114.6,-61.67"/>
<polygon fill="black" stroke="black" points="111.11,-61.48 113.92,-71.7 118.09,-61.96 111.11,-61.48"/>
<g id="a_edge5&#45;headlabel"><a xlink:href="dir_000010_000017.html" target="_top" xlink:title="20">
<text text-anchor="middle" x="108.52" y="-55.2" font-family="Helvetica,sans-Serif" font-size="10.00">20</text>
</a>
</g>
</g>
<!-- dir_7f7a014517bfe31ea45620a6a947e37b&#45;&gt;dir_3d3615e9a999cab4f3407307569d6ced -->
<g id="edge6" class="edge">
<title>dir_7f7a014517bfe31ea45620a6a947e37b&#45;&gt;dir_3d3615e9a999cab4f3407307569d6ced</title>
<path fill="none" stroke="black" d="M47.02,-143.7C57.13,-134.97 69.54,-124.24 80.52,-114.75"/>
<polygon fill="black" stroke="black" points="82.93,-117.29 88.21,-108.1 78.35,-111.99 82.93,-117.29"/>
<g id="a_edge6&#45;headlabel"><a xlink:href="dir_000019_000017.html" target="_top" xlink:title="1">
<text text-anchor="middle" x="82.07" y="-119.29" font-family="Helvetica,sans-Serif" font-size="10.00">1</text>
</a>
</g>
</g>
<!-- dir_4bb30ed846ea1df1fc4d16874a455d91&#45;&gt;dir_e4cd57caa88bf1f4e1bf9521bc47c3c0 -->
<g id="edge10" class="edge">
<title>dir_4bb30ed846ea1df1fc4d16874a455d91&#45;&gt;dir_e4cd57caa88bf1f4e1bf9521bc47c3c0</title>
<path fill="none" stroke="black" d="M161.3,-143.67C159.05,-125.29 154.11,-95.69 144,-72 139.92,-62.43 134.01,-52.78 128.16,-44.39"/>
<polygon fill="black" stroke="black" points="130.88,-42.17 122.16,-36.15 125.22,-46.29 130.88,-42.17"/>
<g id="a_edge10&#45;headlabel"><a xlink:href="dir_000002_000010.html" target="_top" xlink:title="9">
<text text-anchor="middle" x="135.29" y="-40.91" font-family="Helvetica,sans-Serif" font-size="10.00">9</text>
</a>
</g>
</g>
<!-- dir_4bb30ed846ea1df1fc4d16874a455d91&#45;&gt;dir_3d3615e9a999cab4f3407307569d6ced -->
<g id="edge11" class="edge">
<title>dir_4bb30ed846ea1df1fc4d16874a455d91&#45;&gt;dir_3d3615e9a999cab4f3407307569d6ced</title>
<path fill="none" stroke="black" d="M149.4,-143.7C142.88,-135.39 134.93,-125.28 127.75,-116.14"/>
<polygon fill="black" stroke="black" points="130.37,-113.81 121.44,-108.1 124.87,-118.13 130.37,-113.81"/>
<g id="a_edge11&#45;headlabel"><a xlink:href="dir_000002_000017.html" target="_top" xlink:title="54">
<text text-anchor="middle" x="134.82" y="-112.38" font-family="Helvetica,sans-Serif" font-size="10.00">54</text>
</a>
</g>
</g>
<!-- dir_3d3615e9a999cab4f3407307569d6ced&#45;&gt;dir_e4cd57caa88bf1f4e1bf9521bc47c3c0 -->
<g id="edge9" class="edge">
<title>dir_3d3615e9a999cab4f3407307569d6ced&#45;&gt;dir_e4cd57caa88bf1f4e1bf9521bc47c3c0</title>
<path fill="none" stroke="black" d="M102.08,-71.7C101.29,-63.98 101.06,-54.71 101.4,-46.11"/>
<polygon fill="black" stroke="black" points="104.9,-46.32 102.1,-36.1 97.92,-45.84 104.9,-46.32"/>
<g id="a_edge9&#45;headlabel"><a xlink:href="dir_000017_000010.html" target="_top" xlink:title="1">
<text text-anchor="middle" x="107.48" y="-47.61" font-family="Helvetica,sans-Serif" font-size="10.00">1</text>
</a>
</g>
</g>
</g>
</svg>
