<?xml version="1.0" encoding="UTF-8" standalone="no"?>
<!DOCTYPE svg PUBLIC "-//W3C//DTD SVG 1.1//EN"
 "http://www.w3.org/Graphics/SVG/1.1/DTD/svg11.dtd">
<!-- Generated by graphviz version 2.43.0 (0)
 -->
<!-- Title: physics Pages: 1 -->
<svg width="460pt" height="519pt"
 viewBox="0.00 0.00 459.74 519.00" xmlns="http://www.w3.org/2000/svg" xmlns:xlink="http://www.w3.org/1999/xlink">
<g id="graph0" class="graph" transform="scale(1 1) rotate(0) translate(4 515)">
<title>physics</title>
<polygon fill="white" stroke="transparent" points="-4,4 -4,-515 455.74,-515 455.74,4 -4,4"/>
<g id="clust1" class="cluster">
<title>clusterdir_d85575251dd712327fe3cf057fa568b4</title>
<g id="a_clust1"><a xlink:href="dir_d85575251dd712327fe3cf057fa568b4.html" target="_top" xlink:title="amr&#45;wind">
<polygon fill="#ddddee" stroke="black" points="110,-344 110,-503 358,-503 358,-344 110,-344"/>
<text text-anchor="middle" x="234" y="-491" font-family="Helvetica,sans-Serif" font-size="10.00">amr&#45;wind</text>
</a>
</g>
</g>
<g id="clust2" class="cluster">
<title>clusterdir_f2c65bfcbdc19ebacbfc0bbbfb0d01b6</title>
<g id="a_clust2"><a xlink:href="dir_f2c65bfcbdc19ebacbfc0bbbfb0d01b6.html" target="_top">
<polygon fill="#eeeeff" stroke="black" points="118,-352 118,-476 350,-476 350,-352 118,-352"/>
</a>
</g>
</g>
<!-- dir_f2c65bfcbdc19ebacbfc0bbbfb0d01b6 -->
<g id="node1" class="node">
<title>dir_f2c65bfcbdc19ebacbfc0bbbfb0d01b6</title>
<text text-anchor="middle" x="315" y="-447.5" font-family="Helvetica,sans-Serif" font-size="10.00">physics</text>
</g>
<!-- dir_112afea7a726e6a1d518c2be02377acb -->
<g id="node4" class="node">
<title>dir_112afea7a726e6a1d518c2be02377acb</title>
<g id="a_node4"><a xlink:href="dir_112afea7a726e6a1d518c2be02377acb.html" target="_top" xlink:title="udfs">
<polygon fill="white" stroke="black" points="196,-396 142,-396 142,-360 196,-360 196,-396"/>
<text text-anchor="middle" x="169" y="-375.5" font-family="Helvetica,sans-Serif" font-size="10.00">udfs</text>
</a>
</g>
</g>
<!-- dir_f2c65bfcbdc19ebacbfc0bbbfb0d01b6&#45;&gt;dir_112afea7a726e6a1d518c2be02377acb -->
<g id="edge8" class="edge">
<title>dir_f2c65bfcbdc19ebacbfc0bbbfb0d01b6&#45;&gt;dir_112afea7a726e6a1d518c2be02377acb</title>
<path fill="none" stroke="black" d="M287.88,-436C264.67,-424.87 231.06,-408.75 205.49,-396.5"/>
<polygon fill="black" stroke="black" points="207,-393.34 196.47,-392.17 203.97,-399.65 207,-393.34"/>
<g id="a_edge8&#45;headlabel"><a xlink:href="dir_000015_000035.html" target="_top" xlink:title="2">
<text text-anchor="middle" x="211.47" y="-389.83" font-family="Helvetica,sans-Serif" font-size="10.00">2</text>
</a>
</g>
</g>
<!-- dir_9ff815a534beac751fa88e427dbab695 -->
<g id="node5" class="node">
<title>dir_9ff815a534beac751fa88e427dbab695</title>
<g id="a_node5"><a xlink:href="dir_9ff815a534beac751fa88e427dbab695.html" target="_top" xlink:title="turbulence">
<polygon fill="white" stroke="red" points="434,-396 366,-396 366,-360 434,-360 434,-396"/>
<text text-anchor="middle" x="400" y="-375.5" font-family="Helvetica,sans-Serif" font-size="10.00">turbulence</text>
</a>
</g>
</g>
<!-- dir_f2c65bfcbdc19ebacbfc0bbbfb0d01b6&#45;&gt;dir_9ff815a534beac751fa88e427dbab695 -->
<g id="edge7" class="edge">
<title>dir_f2c65bfcbdc19ebacbfc0bbbfb0d01b6&#45;&gt;dir_9ff815a534beac751fa88e427dbab695</title>
<path fill="none" stroke="black" d="M336.01,-431.7C346.72,-422.88 359.89,-412.03 371.5,-402.47"/>
<polygon fill="black" stroke="black" points="373.74,-405.16 379.23,-396.1 369.29,-399.76 373.74,-405.16"/>
<g id="a_edge7&#45;headlabel"><a xlink:href="dir_000015_000030.html" target="_top" xlink:title="1">
<text text-anchor="middle" x="372.77" y="-407.14" font-family="Helvetica,sans-Serif" font-size="10.00">1</text>
</a>
</g>
</g>
<!-- dir_0c368f76a33d967d5b838b5681461de6 -->
<g id="node6" class="node">
<title>dir_0c368f76a33d967d5b838b5681461de6</title>
<g id="a_node6"><a xlink:href="dir_0c368f76a33d967d5b838b5681461de6.html" target="_top" xlink:title="wind_energy">
<polygon fill="white" stroke="red" points="231.5,-252 152.5,-252 152.5,-216 231.5,-216 231.5,-252"/>
<text text-anchor="middle" x="192" y="-231.5" font-family="Helvetica,sans-Serif" font-size="10.00">wind_energy</text>
</a>
</g>
</g>
<!-- dir_f2c65bfcbdc19ebacbfc0bbbfb0d01b6&#45;&gt;dir_0c368f76a33d967d5b838b5681461de6 -->
<g id="edge9" class="edge">
<title>dir_f2c65bfcbdc19ebacbfc0bbbfb0d01b6&#45;&gt;dir_0c368f76a33d967d5b838b5681461de6</title>
<path fill="none" stroke="black" d="M287.76,-435.79C284.5,-434.42 281.2,-433.12 278,-432 215.33,-410.04 173.91,-448.3 133,-396 100.71,-354.71 140.75,-294.05 168.9,-260.21"/>
<polygon fill="black" stroke="black" points="171.9,-262.08 175.75,-252.21 166.58,-257.53 171.9,-262.08"/>
<g id="a_edge9&#45;headlabel"><a xlink:href="dir_000015_000001.html" target="_top" xlink:title="1">
<text text-anchor="middle" x="171.72" y="-264.15" font-family="Helvetica,sans-Serif" font-size="10.00">1</text>
</a>
</g>
</g>
<!-- dir_e4cd57caa88bf1f4e1bf9521bc47c3c0 -->
<g id="node7" class="node">
<title>dir_e4cd57caa88bf1f4e1bf9521bc47c3c0</title>
<g id="a_node7"><a xlink:href="dir_e4cd57caa88bf1f4e1bf9521bc47c3c0.html" target="_top" xlink:title="utilities">
<polygon fill="white" stroke="red" points="386,-180 332,-180 332,-144 386,-144 386,-180"/>
<text text-anchor="middle" x="359" y="-159.5" font-family="Helvetica,sans-Serif" font-size="10.00">utilities</text>
</a>
</g>
</g>
<!-- dir_f2c65bfcbdc19ebacbfc0bbbfb0d01b6&#45;&gt;dir_e4cd57caa88bf1f4e1bf9521bc47c3c0 -->
<g id="edge10" class="edge">
<title>dir_f2c65bfcbdc19ebacbfc0bbbfb0d01b6&#45;&gt;dir_e4cd57caa88bf1f4e1bf9521bc47c3c0</title>
<path fill="none" stroke="black" d="M342.02,-446.43C372.44,-441.92 420.55,-429.6 443,-396 471.39,-353.52 420.64,-244.52 405,-216 399.44,-205.86 391.67,-195.95 384.11,-187.5"/>
<polygon fill="black" stroke="black" points="386.66,-185.1 377.28,-180.18 381.54,-189.88 386.66,-185.1"/>
<g id="a_edge10&#45;headlabel"><a xlink:href="dir_000015_000010.html" target="_top" xlink:title="11">
<text text-anchor="middle" x="391.19" y="-183.3" font-family="Helvetica,sans-Serif" font-size="10.00">11</text>
</a>
</g>
</g>
<!-- dir_cc5375afd167f33c2803dc418e7dff36 -->
<g id="node2" class="node">
<title>dir_cc5375afd167f33c2803dc418e7dff36</title>
<g id="a_node2"><a xlink:href="dir_cc5375afd167f33c2803dc418e7dff36.html" target="_top" xlink:title="mms">
<polygon fill="white" stroke="black" points="180,-468 126,-468 126,-432 180,-432 180,-468"/>
<text text-anchor="middle" x="153" y="-447.5" font-family="Helvetica,sans-Serif" font-size="10.00">mms</text>
</a>
</g>
</g>
<!-- dir_4bb30ed846ea1df1fc4d16874a455d91 -->
<g id="node9" class="node">
<title>dir_4bb30ed846ea1df1fc4d16874a455d91</title>
<g id="a_node9"><a xlink:href="dir_4bb30ed846ea1df1fc4d16874a455d91.html" target="_top" xlink:title="equation_systems">
<polygon fill="white" stroke="red" points="310,-324 204,-324 204,-288 310,-288 310,-324"/>
<text text-anchor="middle" x="257" y="-303.5" font-family="Helvetica,sans-Serif" font-size="10.00">equation_systems</text>
</a>
</g>
</g>
<!-- dir_cc5375afd167f33c2803dc418e7dff36&#45;&gt;dir_4bb30ed846ea1df1fc4d16874a455d91 -->
<g id="edge5" class="edge">
<title>dir_cc5375afd167f33c2803dc418e7dff36&#45;&gt;dir_4bb30ed846ea1df1fc4d16874a455d91</title>
<path fill="none" stroke="black" d="M171.98,-431.86C182.39,-421.95 195.14,-408.91 205,-396 220.17,-376.14 234.26,-351.46 243.94,-333.13"/>
<polygon fill="black" stroke="black" points="247.09,-334.67 248.58,-324.19 240.87,-331.45 247.09,-334.67"/>
<g id="a_edge5&#45;headlabel"><a xlink:href="dir_000038_000002.html" target="_top" xlink:title="1">
<text text-anchor="middle" x="247.95" y="-336.67" font-family="Helvetica,sans-Serif" font-size="10.00">1</text>
</a>
</g>
</g>
<!-- dir_3d3615e9a999cab4f3407307569d6ced -->
<g id="node10" class="node">
<title>dir_3d3615e9a999cab4f3407307569d6ced</title>
<g id="a_node10"><a xlink:href="dir_3d3615e9a999cab4f3407307569d6ced.html" target="_top" xlink:title="core">
<polygon fill="white" stroke="red" points="274,-36 220,-36 220,0 274,0 274,-36"/>
<text text-anchor="middle" x="247" y="-15.5" font-family="Helvetica,sans-Serif" font-size="10.00">core</text>
</a>
</g>
</g>
<!-- dir_cc5375afd167f33c2803dc418e7dff36&#45;&gt;dir_3d3615e9a999cab4f3407307569d6ced -->
<g id="edge6" class="edge">
<title>dir_cc5375afd167f33c2803dc418e7dff36&#45;&gt;dir_3d3615e9a999cab4f3407307569d6ced</title>
<path fill="none" stroke="black" d="M126,-441.6C101.67,-433.75 66.25,-419.22 43,-396 11.92,-364.95 0,-350.93 0,-307 0,-307 0,-307 0,-161 0,-114.27 18.51,-99.91 56,-72 101.83,-37.88 168.57,-25.72 209.8,-21.39"/>
<polygon fill="black" stroke="black" points="210.34,-24.86 219.96,-20.43 209.68,-17.89 210.34,-24.86"/>
<g id="a_edge6&#45;headlabel"><a xlink:href="dir_000038_000017.html" target="_top" xlink:title="3">
<text text-anchor="middle" x="207.02" y="-25.52" font-family="Helvetica,sans-Serif" font-size="10.00">3</text>
</a>
</g>
</g>
<!-- dir_e037da66ad872c58acfc861df6f5c212 -->
<g id="node3" class="node">
<title>dir_e037da66ad872c58acfc861df6f5c212</title>
<g id="a_node3"><a xlink:href="dir_e037da66ad872c58acfc861df6f5c212.html" target="_top" xlink:title="multiphase">
<polygon fill="white" stroke="red" points="269.5,-468 198.5,-468 198.5,-432 269.5,-432 269.5,-468"/>
<text text-anchor="middle" x="234" y="-447.5" font-family="Helvetica,sans-Serif" font-size="10.00">multiphase</text>
</a>
</g>
</g>
<!-- dir_e037da66ad872c58acfc861df6f5c212&#45;&gt;dir_e4cd57caa88bf1f4e1bf9521bc47c3c0 -->
<g id="edge13" class="edge">
<title>dir_e037da66ad872c58acfc861df6f5c212&#45;&gt;dir_e4cd57caa88bf1f4e1bf9521bc47c3c0</title>
<path fill="none" stroke="black" d="M258.15,-431.86C270,-422.41 283.69,-409.82 293,-396 337.03,-330.63 351.97,-236.05 356.81,-190.1"/>
<polygon fill="black" stroke="black" points="360.3,-190.31 357.79,-180.02 353.34,-189.64 360.3,-190.31"/>
<g id="a_edge13&#45;headlabel"><a xlink:href="dir_000020_000010.html" target="_top" xlink:title="1">
<text text-anchor="middle" x="362.78" y="-191.67" font-family="Helvetica,sans-Serif" font-size="10.00">1</text>
</a>
</g>
</g>
<!-- dir_7f7a014517bfe31ea45620a6a947e37b -->
<g id="node8" class="node">
<title>dir_7f7a014517bfe31ea45620a6a947e37b</title>
<g id="a_node8"><a xlink:href="dir_7f7a014517bfe31ea45620a6a947e37b.html" target="_top" xlink:title="fvm">
<polygon fill="none" stroke="black" points="274,-108 220,-108 220,-72 274,-72 274,-108"/>
<text text-anchor="middle" x="247" y="-87.5" font-family="Helvetica,sans-Serif" font-size="10.00">fvm</text>
</a>
</g>
</g>
<!-- dir_e037da66ad872c58acfc861df6f5c212&#45;&gt;dir_7f7a014517bfe31ea45620a6a947e37b -->
<g id="edge14" class="edge">
<title>dir_e037da66ad872c58acfc861df6f5c212&#45;&gt;dir_7f7a014517bfe31ea45620a6a947e37b</title>
<path fill="none" stroke="black" d="M198.4,-435C166.08,-421.94 122.74,-403.38 118,-396 105.51,-376.56 116.36,-367.05 118,-344 122.11,-286.18 117.12,-267.86 143,-216 162.68,-176.57 197.03,-138.75 220.84,-115.23"/>
<polygon fill="black" stroke="black" points="223.43,-117.6 228.17,-108.12 218.56,-112.57 223.43,-117.6"/>
<g id="a_edge14&#45;headlabel"><a xlink:href="dir_000020_000019.html" target="_top" xlink:title="4">
<text text-anchor="middle" x="222.83" y="-119.64" font-family="Helvetica,sans-Serif" font-size="10.00">4</text>
</a>
</g>
</g>
<!-- dir_e037da66ad872c58acfc861df6f5c212&#45;&gt;dir_4bb30ed846ea1df1fc4d16874a455d91 -->
<g id="edge15" class="edge">
<title>dir_e037da66ad872c58acfc861df6f5c212&#45;&gt;dir_4bb30ed846ea1df1fc4d16874a455d91</title>
<path fill="none" stroke="black" d="M252.6,-431.76C261.53,-422.2 271.29,-409.53 276,-396 283.6,-374.17 281.43,-366.46 276,-344 275.12,-340.35 273.81,-336.65 272.28,-333.07"/>
<polygon fill="black" stroke="black" points="275.4,-331.49 267.88,-324.02 269.1,-334.55 275.4,-331.49"/>
<g id="a_edge15&#45;headlabel"><a xlink:href="dir_000020_000002.html" target="_top" xlink:title="2">
<text text-anchor="middle" x="279.53" y="-330.98" font-family="Helvetica,sans-Serif" font-size="10.00">2</text>
</a>
</g>
</g>
<!-- dir_e037da66ad872c58acfc861df6f5c212&#45;&gt;dir_3d3615e9a999cab4f3407307569d6ced -->
<g id="edge16" class="edge">
<title>dir_e037da66ad872c58acfc861df6f5c212&#45;&gt;dir_3d3615e9a999cab4f3407307569d6ced</title>
<path fill="none" stroke="black" d="M198.26,-434.89C164.05,-421.22 116.56,-401.74 109,-396 68.69,-365.41 38,-357.6 38,-307 38,-307 38,-307 38,-161 38,-78.89 149.72,-40.94 209.8,-26.47"/>
<polygon fill="black" stroke="black" points="210.72,-29.85 219.68,-24.19 209.15,-23.03 210.72,-29.85"/>
<g id="a_edge16&#45;headlabel"><a xlink:href="dir_000020_000017.html" target="_top" xlink:title="19">
<text text-anchor="middle" x="207.86" y="-30.92" font-family="Helvetica,sans-Serif" font-size="10.00">19</text>
</a>
</g>
</g>
<!-- dir_112afea7a726e6a1d518c2be02377acb&#45;&gt;dir_4bb30ed846ea1df1fc4d16874a455d91 -->
<g id="edge11" class="edge">
<title>dir_112afea7a726e6a1d518c2be02377acb&#45;&gt;dir_4bb30ed846ea1df1fc4d16874a455d91</title>
<path fill="none" stroke="black" d="M190.24,-359.83C196.59,-354.72 203.57,-349.12 210,-344 215.46,-339.65 221.29,-335.04 226.92,-330.6"/>
<polygon fill="black" stroke="black" points="229.27,-333.2 234.96,-324.27 224.94,-327.71 229.27,-333.2"/>
<g id="a_edge11&#45;headlabel"><a xlink:href="dir_000035_000002.html" target="_top" xlink:title="1">
<text text-anchor="middle" x="228.2" y="-335.16" font-family="Helvetica,sans-Serif" font-size="10.00">1</text>
</a>
</g>
</g>
<!-- dir_112afea7a726e6a1d518c2be02377acb&#45;&gt;dir_3d3615e9a999cab4f3407307569d6ced -->
<g id="edge12" class="edge">
<title>dir_112afea7a726e6a1d518c2be02377acb&#45;&gt;dir_3d3615e9a999cab4f3407307569d6ced</title>
<path fill="none" stroke="black" d="M157.6,-359.9C141.49,-334.02 114,-282.85 114,-235 114,-235 114,-235 114,-161 114,-104.24 171.3,-60.82 210.68,-37.67"/>
<polygon fill="black" stroke="black" points="212.8,-40.49 219.76,-32.5 209.34,-34.41 212.8,-40.49"/>
<g id="a_edge12&#45;headlabel"><a xlink:href="dir_000035_000017.html" target="_top" xlink:title="8">
<text text-anchor="middle" x="211.09" y="-42.24" font-family="Helvetica,sans-Serif" font-size="10.00">8</text>
</a>
</g>
</g>
<!-- dir_9ff815a534beac751fa88e427dbab695&#45;&gt;dir_e4cd57caa88bf1f4e1bf9521bc47c3c0 -->
<g id="edge1" class="edge">
<title>dir_9ff815a534beac751fa88e427dbab695&#45;&gt;dir_e4cd57caa88bf1f4e1bf9521bc47c3c0</title>
<path fill="none" stroke="black" d="M401.07,-359.65C402.41,-329.67 402.94,-266.53 388,-216 385.28,-206.79 380.79,-197.39 376.16,-189.11"/>
<polygon fill="black" stroke="black" points="379.05,-187.13 370.94,-180.32 373.03,-190.7 379.05,-187.13"/>
<g id="a_edge1&#45;headlabel"><a xlink:href="dir_000030_000010.html" target="_top" xlink:title="1">
<text text-anchor="middle" x="383.33" y="-186.28" font-family="Helvetica,sans-Serif" font-size="10.00">1</text>
</a>
</g>
</g>
<!-- dir_9ff815a534beac751fa88e427dbab695&#45;&gt;dir_7f7a014517bfe31ea45620a6a947e37b -->
<g id="edge2" class="edge">
<title>dir_9ff815a534beac751fa88e427dbab695&#45;&gt;dir_7f7a014517bfe31ea45620a6a947e37b</title>
<path fill="none" stroke="black" d="M390.89,-359.97C365.17,-311.89 291.9,-174.93 261.01,-117.19"/>
<polygon fill="black" stroke="black" points="264.06,-115.47 256.26,-108.31 257.89,-118.78 264.06,-115.47"/>
<g id="a_edge2&#45;headlabel"><a xlink:href="dir_000030_000019.html" target="_top" xlink:title="8">
<text text-anchor="middle" x="268.26" y="-114.8" font-family="Helvetica,sans-Serif" font-size="10.00">8</text>
</a>
</g>
</g>
<!-- dir_9ff815a534beac751fa88e427dbab695&#45;&gt;dir_4bb30ed846ea1df1fc4d16874a455d91 -->
<g id="edge4" class="edge">
<title>dir_9ff815a534beac751fa88e427dbab695&#45;&gt;dir_4bb30ed846ea1df1fc4d16874a455d91</title>
<path fill="none" stroke="black" d="M369.77,-359.68C361.86,-354.23 353.31,-348.47 345,-344 334.09,-338.13 322.04,-332.75 310.43,-328.01"/>
<polygon fill="black" stroke="black" points="311.4,-324.63 300.81,-324.18 308.81,-331.13 311.4,-324.63"/>
<g id="a_edge4&#45;headlabel"><a xlink:href="dir_000030_000002.html" target="_top" xlink:title="11">
<text text-anchor="middle" x="315.79" y="-320.82" font-family="Helvetica,sans-Serif" font-size="10.00">11</text>
</a>
</g>
</g>
<!-- dir_9ff815a534beac751fa88e427dbab695&#45;&gt;dir_3d3615e9a999cab4f3407307569d6ced -->
<g id="edge3" class="edge">
<title>dir_9ff815a534beac751fa88e427dbab695&#45;&gt;dir_3d3615e9a999cab4f3407307569d6ced</title>
<path fill="none" stroke="black" d="M405.82,-359.56C408.93,-349.33 412.43,-336.08 414,-324 424.36,-244.23 421.69,-219.89 395,-144 382.63,-108.84 379.27,-97.4 352,-72 332.43,-53.78 305.41,-40.33 283.68,-31.54"/>
<polygon fill="black" stroke="black" points="284.7,-28.18 274.12,-27.83 282.17,-34.71 284.7,-28.18"/>
<g id="a_edge3&#45;headlabel"><a xlink:href="dir_000030_000017.html" target="_top" xlink:title="5">
<text text-anchor="middle" x="289.08" y="-24.33" font-family="Helvetica,sans-Serif" font-size="10.00">5</text>
</a>
</g>
</g>
<!-- dir_0c368f76a33d967d5b838b5681461de6&#45;&gt;dir_e4cd57caa88bf1f4e1bf9521bc47c3c0 -->
<g id="edge17" class="edge">
<title>dir_0c368f76a33d967d5b838b5681461de6&#45;&gt;dir_e4cd57caa88bf1f4e1bf9521bc47c3c0</title>
<path fill="none" stroke="black" d="M231.58,-216.41C259.15,-204.85 295.66,-189.55 322.53,-178.29"/>
<polygon fill="black" stroke="black" points="324.09,-181.43 331.96,-174.33 321.38,-174.97 324.09,-181.43"/>
<g id="a_edge17&#45;headlabel"><a xlink:href="dir_000001_000010.html" target="_top" xlink:title="31">
<text text-anchor="middle" x="321.87" y="-182.94" font-family="Helvetica,sans-Serif" font-size="10.00">31</text>
</a>
</g>
</g>
<!-- dir_0c368f76a33d967d5b838b5681461de6&#45;&gt;dir_7f7a014517bfe31ea45620a6a947e37b -->
<g id="edge18" class="edge">
<title>dir_0c368f76a33d967d5b838b5681461de6&#45;&gt;dir_7f7a014517bfe31ea45620a6a947e37b</title>
<path fill="none" stroke="black" d="M198.63,-215.87C208.09,-191.46 225.53,-146.43 236.68,-117.64"/>
<polygon fill="black" stroke="black" points="239.99,-118.78 240.34,-108.19 233.47,-116.25 239.99,-118.78"/>
<g id="a_edge18&#45;headlabel"><a xlink:href="dir_000001_000019.html" target="_top" xlink:title="1">
<text text-anchor="middle" x="241.34" y="-120.66" font-family="Helvetica,sans-Serif" font-size="10.00">1</text>
</a>
</g>
</g>
<!-- dir_0c368f76a33d967d5b838b5681461de6&#45;&gt;dir_4bb30ed846ea1df1fc4d16874a455d91 -->
<g id="edge19" class="edge">
<title>dir_0c368f76a33d967d5b838b5681461de6&#45;&gt;dir_4bb30ed846ea1df1fc4d16874a455d91</title>
<path fill="none" stroke="black" d="M213.78,-252.1C222.42,-260.47 232.12,-270.69 240.21,-279.92"/>
<polygon fill="black" stroke="black" points="237.7,-282.36 246.85,-287.7 243.02,-277.82 237.7,-282.36"/>
<g id="a_edge19&#45;headlabel"><a xlink:href="dir_000001_000002.html" target="_top" xlink:title="4">
<text text-anchor="middle" x="233.2" y="-278.97" font-family="Helvetica,sans-Serif" font-size="10.00">4</text>
</a>
</g>
</g>
<!-- dir_0c368f76a33d967d5b838b5681461de6&#45;&gt;dir_3d3615e9a999cab4f3407307569d6ced -->
<g id="edge20" class="edge">
<title>dir_0c368f76a33d967d5b838b5681461de6&#45;&gt;dir_3d3615e9a999cab4f3407307569d6ced</title>
<path fill="none" stroke="black" d="M191.4,-215.93C190.91,-185.84 192.41,-121.84 211,-72 214.58,-62.41 220.24,-52.86 226.02,-44.57"/>
<polygon fill="black" stroke="black" points="228.9,-46.56 232,-36.43 223.26,-42.42 228.9,-46.56"/>
<g id="a_edge20&#45;headlabel"><a xlink:href="dir_000001_000017.html" target="_top" xlink:title="27">
<text text-anchor="middle" x="229.05" y="-48.64" font-family="Helvetica,sans-Serif" font-size="10.00">27</text>
</a>
</g>
</g>
<!-- dir_e4cd57caa88bf1f4e1bf9521bc47c3c0&#45;&gt;dir_7f7a014517bfe31ea45620a6a947e37b -->
<g id="edge21" class="edge">
<title>dir_e4cd57caa88bf1f4e1bf9521bc47c3c0&#45;&gt;dir_7f7a014517bfe31ea45620a6a947e37b</title>
<path fill="none" stroke="black" d="M331.89,-144.05C317.14,-134.84 298.71,-123.32 282.79,-113.37"/>
<polygon fill="black" stroke="black" points="284.59,-110.36 274.25,-108.03 280.88,-116.3 284.59,-110.36"/>
<g id="a_edge21&#45;headlabel"><a xlink:href="dir_000010_000019.html" target="_top" xlink:title="2">
<text text-anchor="middle" x="289.14" y="-107.36" font-family="Helvetica,sans-Serif" font-size="10.00">2</text>
</a>
</g>
</g>
<!-- dir_e4cd57caa88bf1f4e1bf9521bc47c3c0&#45;&gt;dir_3d3615e9a999cab4f3407307569d6ced -->
<g id="edge22" class="edge">
<title>dir_e4cd57caa88bf1f4e1bf9521bc47c3c0&#45;&gt;dir_3d3615e9a999cab4f3407307569d6ced</title>
<path fill="none" stroke="black" d="M347.4,-143.87C338.73,-124.85 326.77,-93.95 309,-72 299.82,-60.66 287.7,-50.45 276.53,-42.09"/>
<polygon fill="black" stroke="black" points="278.39,-39.11 268.25,-36.07 274.28,-44.78 278.39,-39.11"/>
<g id="a_edge22&#45;headlabel"><a xlink:href="dir_000010_000017.html" target="_top" xlink:title="20">
<text text-anchor="middle" x="282.97" y="-36.43" font-family="Helvetica,sans-Serif" font-size="10.00">20</text>
</a>
</g>
</g>
<!-- dir_7f7a014517bfe31ea45620a6a947e37b&#45;&gt;dir_3d3615e9a999cab4f3407307569d6ced -->
<g id="edge23" class="edge">
<title>dir_7f7a014517bfe31ea45620a6a947e37b&#45;&gt;dir_3d3615e9a999cab4f3407307569d6ced</title>
<path fill="none" stroke="black" d="M247,-71.7C247,-63.98 247,-54.71 247,-46.11"/>
<polygon fill="black" stroke="black" points="250.5,-46.1 247,-36.1 243.5,-46.1 250.5,-46.1"/>
<g id="a_edge23&#45;headlabel"><a xlink:href="dir_000019_000017.html" target="_top" xlink:title="1">
<text text-anchor="middle" x="253.34" y="-47.2" font-family="Helvetica,sans-Serif" font-size="10.00">1</text>
</a>
</g>
</g>
<!-- dir_4bb30ed846ea1df1fc4d16874a455d91&#45;&gt;dir_e037da66ad872c58acfc861df6f5c212 -->
<g id="edge26" class="edge">
<title>dir_4bb30ed846ea1df1fc4d16874a455d91&#45;&gt;dir_e037da66ad872c58acfc861df6f5c212</title>
<path fill="none" stroke="black" d="M254.22,-324.19C250.29,-348.42 243.09,-392.89 238.43,-421.68"/>
<polygon fill="black" stroke="black" points="234.92,-421.44 236.77,-431.87 241.83,-422.56 234.92,-421.44"/>
<g id="a_edge26&#45;headlabel"><a xlink:href="dir_000002_000020.html" target="_top" xlink:title="2">
<text text-anchor="middle" x="232.69" y="-414.94" font-family="Helvetica,sans-Serif" font-size="10.00">2</text>
</a>
</g>
</g>
<!-- dir_4bb30ed846ea1df1fc4d16874a455d91&#45;&gt;dir_9ff815a534beac751fa88e427dbab695 -->
<g id="edge25" class="edge">
<title>dir_4bb30ed846ea1df1fc4d16874a455d91&#45;&gt;dir_9ff815a534beac751fa88e427dbab695</title>
<path fill="none" stroke="black" d="M310.17,-321.34C327.57,-327.43 346.57,-335.17 363,-344 368.19,-346.79 373.48,-350.09 378.41,-353.5"/>
<polygon fill="black" stroke="black" points="376.69,-356.58 386.82,-359.68 380.83,-350.94 376.69,-356.58"/>
<g id="a_edge25&#45;headlabel"><a xlink:href="dir_000002_000030.html" target="_top" xlink:title="4">
<text text-anchor="middle" x="372.11" y="-354.23" font-family="Helvetica,sans-Serif" font-size="10.00">4</text>
</a>
</g>
</g>
<!-- dir_4bb30ed846ea1df1fc4d16874a455d91&#45;&gt;dir_0c368f76a33d967d5b838b5681461de6 -->
<g id="edge27" class="edge">
<title>dir_4bb30ed846ea1df1fc4d16874a455d91&#45;&gt;dir_0c368f76a33d967d5b838b5681461de6</title>
<path fill="none" stroke="black" d="M235.02,-287.7C226.36,-279.3 216.66,-269.07 208.59,-259.86"/>
<polygon fill="black" stroke="black" points="211.14,-257.45 201.99,-252.1 205.81,-261.99 211.14,-257.45"/>
<g id="a_edge27&#45;headlabel"><a xlink:href="dir_000002_000001.html" target="_top" xlink:title="3">
<text text-anchor="middle" x="215.63" y="-255.84" font-family="Helvetica,sans-Serif" font-size="10.00">3</text>
</a>
</g>
</g>
<!-- dir_4bb30ed846ea1df1fc4d16874a455d91&#45;&gt;dir_e4cd57caa88bf1f4e1bf9521bc47c3c0 -->
<g id="edge28" class="edge">
<title>dir_4bb30ed846ea1df1fc4d16874a455d91&#45;&gt;dir_e4cd57caa88bf1f4e1bf9521bc47c3c0</title>
<path fill="none" stroke="black" d="M269.3,-287.87C287.07,-263.14 320.04,-217.24 340.67,-188.51"/>
<polygon fill="black" stroke="black" points="343.66,-190.35 346.65,-180.19 337.98,-186.27 343.66,-190.35"/>
<g id="a_edge28&#45;headlabel"><a xlink:href="dir_000002_000010.html" target="_top" xlink:title="9">
<text text-anchor="middle" x="343.87" y="-192.43" font-family="Helvetica,sans-Serif" font-size="10.00">9</text>
</a>
</g>
</g>
<!-- dir_4bb30ed846ea1df1fc4d16874a455d91&#45;&gt;dir_3d3615e9a999cab4f3407307569d6ced -->
<g id="edge29" class="edge">
<title>dir_4bb30ed846ea1df1fc4d16874a455d91&#45;&gt;dir_3d3615e9a999cab4f3407307569d6ced</title>
<path fill="none" stroke="black" d="M263.52,-287.89C277.45,-248.75 306.99,-150 283,-72 279.99,-62.22 274.49,-52.62 268.68,-44.33"/>
<polygon fill="black" stroke="black" points="271.41,-42.13 262.61,-36.23 265.81,-46.33 271.41,-42.13"/>
<g id="a_edge29&#45;headlabel"><a xlink:href="dir_000002_000017.html" target="_top" xlink:title="54">
<text text-anchor="middle" x="275.83" y="-40.8" font-family="Helvetica,sans-Serif" font-size="10.00">54</text>
</a>
</g>
</g>
<!-- dir_3d3615e9a999cab4f3407307569d6ced&#45;&gt;dir_e4cd57caa88bf1f4e1bf9521bc47c3c0 -->
<g id="edge24" class="edge">
<title>dir_3d3615e9a999cab4f3407307569d6ced&#45;&gt;dir_e4cd57caa88bf1f4e1bf9521bc47c3c0</title>
<path fill="none" stroke="black" d="M274.21,-30.09C291.47,-39.56 312.77,-54.43 327,-72 341.92,-90.43 352.75,-115.18 358.07,-133.91"/>
<polygon fill="black" stroke="black" points="354.73,-134.99 360.5,-143.87 361.53,-133.33 354.73,-134.99"/>
<g id="a_edge24&#45;headlabel"><a xlink:href="dir_000017_000010.html" target="_top" xlink:title="1">
<text text-anchor="middle" x="351.12" y="-129.66" font-family="Helvetica,sans-Serif" font-size="10.00">1</text>
</a>
</g>
</g>
</g>
</svg>
