<?xml version="1.0" encoding="UTF-8" standalone="no"?>
<!DOCTYPE svg PUBLIC "-//W3C//DTD SVG 1.1//EN"
 "http://www.w3.org/Graphics/SVG/1.1/DTD/svg11.dtd">
<!-- Generated by graphviz version 2.43.0 (0)
 -->
<!-- Title: amr&#45;wind Pages: 1 -->
<svg width="800pt" height="724pt"
 viewBox="0.00 0.00 800.00 724.00" xmlns="http://www.w3.org/2000/svg" xmlns:xlink="http://www.w3.org/1999/xlink">
<g id="graph0" class="graph" transform="scale(1 1) rotate(0) translate(4 720)">
<title>amr&#45;wind</title>
<polygon fill="white" stroke="transparent" points="-4,4 -4,-720 796,-720 796,4 -4,4"/>
<g id="clust1" class="cluster">
<title>clusterdir_d85575251dd712327fe3cf057fa568b4</title>
<g id="a_clust1"><a xlink:href="dir_d85575251dd712327fe3cf057fa568b4.html" target="_top">
<polygon fill="#eeeeff" stroke="black" points="8,-8 8,-708 784,-708 784,-8 8,-8"/>
</a>
</g>
</g>
<!-- dir_d85575251dd712327fe3cf057fa568b4 -->
<g id="node1" class="node">
<title>dir_d85575251dd712327fe3cf057fa568b4</title>
<text text-anchor="middle" x="517" y="-679.5" font-family="Helvetica,sans-Serif" font-size="10.00">amr&#45;wind</text>
</g>
<!-- dir_4bb30ed846ea1df1fc4d16874a455d91 -->
<g id="node7" class="node">
<title>dir_4bb30ed846ea1df1fc4d16874a455d91</title>
<g id="a_node7"><a xlink:href="dir_4bb30ed846ea1df1fc4d16874a455d91.html" target="_top" xlink:title="equation_systems">
<polygon fill="white" stroke="red" points="570,-556 464,-556 464,-520 570,-520 570,-556"/>
<text text-anchor="middle" x="517" y="-535.5" font-family="Helvetica,sans-Serif" font-size="10.00">equation_systems</text>
</a>
</g>
</g>
<!-- dir_d85575251dd712327fe3cf057fa568b4&#45;&gt;dir_4bb30ed846ea1df1fc4d16874a455d91 -->
<g id="edge11" class="edge">
<title>dir_d85575251dd712327fe3cf057fa568b4&#45;&gt;dir_4bb30ed846ea1df1fc4d16874a455d91</title>
<path fill="none" stroke="black" d="M517,-663.87C517,-639.67 517,-595.21 517,-566.39"/>
<polygon fill="black" stroke="black" points="520.5,-566.19 517,-556.19 513.5,-566.19 520.5,-566.19"/>
<g id="a_edge11&#45;headlabel"><a xlink:href="dir_000000_000002.html" target="_top" xlink:title="23">
<text text-anchor="middle" x="523.34" y="-567.28" font-family="Helvetica,sans-Serif" font-size="10.00">23</text>
</a>
</g>
</g>
<!-- dir_629222d9fcf2f4ceefae477297f2ec84 -->
<g id="node10" class="node">
<title>dir_629222d9fcf2f4ceefae477297f2ec84</title>
<g id="a_node10"><a xlink:href="dir_629222d9fcf2f4ceefae477297f2ec84.html" target="_top" xlink:title="overset">
<polygon fill="white" stroke="black" points="669,-628 615,-628 615,-592 669,-592 669,-628"/>
<text text-anchor="middle" x="642" y="-607.5" font-family="Helvetica,sans-Serif" font-size="10.00">overset</text>
</a>
</g>
</g>
<!-- dir_d85575251dd712327fe3cf057fa568b4&#45;&gt;dir_629222d9fcf2f4ceefae477297f2ec84 -->
<g id="edge10" class="edge">
<title>dir_d85575251dd712327fe3cf057fa568b4&#45;&gt;dir_629222d9fcf2f4ceefae477297f2ec84</title>
<path fill="none" stroke="black" d="M547.58,-663.88C565.22,-654 587.5,-641.52 605.98,-631.17"/>
<polygon fill="black" stroke="black" points="607.7,-634.22 614.72,-626.28 604.28,-628.11 607.7,-634.22"/>
<g id="a_edge10&#45;headlabel"><a xlink:href="dir_000000_000042.html" target="_top" xlink:title="2">
<text text-anchor="middle" x="605.95" y="-635.95" font-family="Helvetica,sans-Serif" font-size="10.00">2</text>
</a>
</g>
</g>
<!-- dir_9ff815a534beac751fa88e427dbab695 -->
<g id="node15" class="node">
<title>dir_9ff815a534beac751fa88e427dbab695</title>
<g id="a_node15"><a xlink:href="dir_9ff815a534beac751fa88e427dbab695.html" target="_top" xlink:title="turbulence">
<polygon fill="white" stroke="red" points="84,-340 16,-340 16,-304 84,-304 84,-340"/>
<text text-anchor="middle" x="50" y="-319.5" font-family="Helvetica,sans-Serif" font-size="10.00">turbulence</text>
</a>
</g>
</g>
<!-- dir_d85575251dd712327fe3cf057fa568b4&#45;&gt;dir_9ff815a534beac751fa88e427dbab695 -->
<g id="edge9" class="edge">
<title>dir_d85575251dd712327fe3cf057fa568b4&#45;&gt;dir_9ff815a534beac751fa88e427dbab695</title>
<path fill="none" stroke="black" d="M485.47,-678.24C381.04,-668.26 53,-629.67 53,-539 53,-539 53,-539 53,-465 53,-424.99 51.79,-378.65 50.91,-350.08"/>
<polygon fill="black" stroke="black" points="54.41,-349.93 50.59,-340.05 47.41,-350.15 54.41,-349.93"/>
<g id="a_edge9&#45;headlabel"><a xlink:href="dir_000000_000030.html" target="_top" xlink:title="8">
<text text-anchor="middle" x="57.36" y="-350.93" font-family="Helvetica,sans-Serif" font-size="10.00">8</text>
</a>
</g>
</g>
<!-- dir_ebb19deee3cd40f4ac122fef25c04ca8 -->
<g id="node2" class="node">
<title>dir_ebb19deee3cd40f4ac122fef25c04ca8</title>
<g id="a_node2"><a xlink:href="dir_ebb19deee3cd40f4ac122fef25c04ca8.html" target="_top" xlink:title="boundary_conditions">
<polygon fill="white" stroke="black" points="488,-484 370,-484 370,-448 488,-448 488,-484"/>
<text text-anchor="middle" x="429" y="-463.5" font-family="Helvetica,sans-Serif" font-size="10.00">boundary_conditions</text>
</a>
</g>
</g>
<!-- dir_3d3615e9a999cab4f3407307569d6ced -->
<g id="node4" class="node">
<title>dir_3d3615e9a999cab4f3407307569d6ced</title>
<g id="a_node4"><a xlink:href="dir_3d3615e9a999cab4f3407307569d6ced.html" target="_top" xlink:title="core">
<polygon fill="white" stroke="red" points="456,-196 402,-196 402,-160 456,-160 456,-196"/>
<text text-anchor="middle" x="429" y="-175.5" font-family="Helvetica,sans-Serif" font-size="10.00">core</text>
</a>
</g>
</g>
<!-- dir_ebb19deee3cd40f4ac122fef25c04ca8&#45;&gt;dir_3d3615e9a999cab4f3407307569d6ced -->
<g id="edge29" class="edge">
<title>dir_ebb19deee3cd40f4ac122fef25c04ca8&#45;&gt;dir_3d3615e9a999cab4f3407307569d6ced</title>
<path fill="none" stroke="black" d="M425.59,-447.97C421.41,-400.29 421.15,-265.18 424.81,-206.63"/>
<polygon fill="black" stroke="black" points="428.32,-206.54 425.56,-196.31 421.34,-206.02 428.32,-206.54"/>
<g id="a_edge29&#45;headlabel"><a xlink:href="dir_000012_000017.html" target="_top" xlink:title="8">
<text text-anchor="middle" x="430.89" y="-207.83" font-family="Helvetica,sans-Serif" font-size="10.00">8</text>
</a>
</g>
</g>
<!-- dir_f2c65bfcbdc19ebacbfc0bbbfb0d01b6 -->
<g id="node11" class="node">
<title>dir_f2c65bfcbdc19ebacbfc0bbbfb0d01b6</title>
<g id="a_node11"><a xlink:href="dir_f2c65bfcbdc19ebacbfc0bbbfb0d01b6.html" target="_top" xlink:title="physics">
<polygon fill="white" stroke="red" points="351,-412 297,-412 297,-376 351,-376 351,-412"/>
<text text-anchor="middle" x="324" y="-391.5" font-family="Helvetica,sans-Serif" font-size="10.00">physics</text>
</a>
</g>
</g>
<!-- dir_ebb19deee3cd40f4ac122fef25c04ca8&#45;&gt;dir_f2c65bfcbdc19ebacbfc0bbbfb0d01b6 -->
<g id="edge28" class="edge">
<title>dir_ebb19deee3cd40f4ac122fef25c04ca8&#45;&gt;dir_f2c65bfcbdc19ebacbfc0bbbfb0d01b6</title>
<path fill="none" stroke="black" d="M403.31,-447.88C389.71,-438.81 372.83,-427.55 358.14,-417.76"/>
<polygon fill="black" stroke="black" points="360.05,-414.82 349.78,-412.19 356.16,-420.65 360.05,-414.82"/>
<g id="a_edge28&#45;headlabel"><a xlink:href="dir_000012_000015.html" target="_top" xlink:title="2">
<text text-anchor="middle" x="364.61" y="-411.96" font-family="Helvetica,sans-Serif" font-size="10.00">2</text>
</a>
</g>
</g>
<!-- dir_35ffb1505af3943bdf99903da87524fe -->
<g id="node3" class="node">
<title>dir_35ffb1505af3943bdf99903da87524fe</title>
<g id="a_node3"><a xlink:href="dir_35ffb1505af3943bdf99903da87524fe.html" target="_top" xlink:title="convection">
<polygon fill="white" stroke="black" points="716,-268 646,-268 646,-232 716,-232 716,-268"/>
<text text-anchor="middle" x="681" y="-247.5" font-family="Helvetica,sans-Serif" font-size="10.00">convection</text>
</a>
</g>
</g>
<!-- dir_35ffb1505af3943bdf99903da87524fe&#45;&gt;dir_3d3615e9a999cab4f3407307569d6ced -->
<g id="edge22" class="edge">
<title>dir_35ffb1505af3943bdf99903da87524fe&#45;&gt;dir_3d3615e9a999cab4f3407307569d6ced</title>
<path fill="none" stroke="black" d="M645.96,-239.27C598.49,-226.08 514.13,-202.65 465.77,-189.21"/>
<polygon fill="black" stroke="black" points="466.6,-185.81 456.03,-186.51 464.73,-192.56 466.6,-185.81"/>
<g id="a_edge22&#45;headlabel"><a xlink:href="dir_000026_000017.html" target="_top" xlink:title="2">
<text text-anchor="middle" x="470.82" y="-181.54" font-family="Helvetica,sans-Serif" font-size="10.00">2</text>
</a>
</g>
</g>
<!-- dir_e4cd57caa88bf1f4e1bf9521bc47c3c0 -->
<g id="node16" class="node">
<title>dir_e4cd57caa88bf1f4e1bf9521bc47c3c0</title>
<g id="a_node16"><a xlink:href="dir_e4cd57caa88bf1f4e1bf9521bc47c3c0.html" target="_top" xlink:title="utilities">
<polygon fill="white" stroke="red" points="456,-124 402,-124 402,-88 456,-88 456,-124"/>
<text text-anchor="middle" x="429" y="-103.5" font-family="Helvetica,sans-Serif" font-size="10.00">utilities</text>
</a>
</g>
</g>
<!-- dir_35ffb1505af3943bdf99903da87524fe&#45;&gt;dir_e4cd57caa88bf1f4e1bf9521bc47c3c0 -->
<g id="edge21" class="edge">
<title>dir_35ffb1505af3943bdf99903da87524fe&#45;&gt;dir_e4cd57caa88bf1f4e1bf9521bc47c3c0</title>
<path fill="none" stroke="black" d="M676.14,-231.85C669.51,-211.62 655.66,-178.42 632,-160 583.41,-122.17 510.46,-111.19 466.52,-108.1"/>
<polygon fill="black" stroke="black" points="466.47,-104.59 456.28,-107.48 466.05,-111.58 466.47,-104.59"/>
<g id="a_edge21&#45;headlabel"><a xlink:href="dir_000026_000010.html" target="_top" xlink:title="3">
<text text-anchor="middle" x="470.23" y="-99.47" font-family="Helvetica,sans-Serif" font-size="10.00">3</text>
</a>
</g>
</g>
<!-- dir_3d3615e9a999cab4f3407307569d6ced&#45;&gt;dir_ebb19deee3cd40f4ac122fef25c04ca8 -->
<g id="edge51" class="edge">
<title>dir_3d3615e9a999cab4f3407307569d6ced&#45;&gt;dir_ebb19deee3cd40f4ac122fef25c04ca8</title>
<path fill="none" stroke="black" d="M432.44,-196.31C436.59,-244.31 436.84,-379.44 433.17,-437.7"/>
<polygon fill="black" stroke="black" points="429.66,-437.74 432.41,-447.97 436.64,-438.25 429.66,-437.74"/>
<g id="a_edge51&#45;headlabel"><a xlink:href="dir_000017_000012.html" target="_top" xlink:title="1">
<text text-anchor="middle" x="427.09" y="-431.44" font-family="Helvetica,sans-Serif" font-size="10.00">1</text>
</a>
</g>
</g>
<!-- dir_3d3615e9a999cab4f3407307569d6ced&#45;&gt;dir_e4cd57caa88bf1f4e1bf9521bc47c3c0 -->
<g id="edge52" class="edge">
<title>dir_3d3615e9a999cab4f3407307569d6ced&#45;&gt;dir_e4cd57caa88bf1f4e1bf9521bc47c3c0</title>
<path fill="none" stroke="black" d="M423.08,-159.7C422.29,-151.98 422.06,-142.71 422.4,-134.11"/>
<polygon fill="black" stroke="black" points="425.9,-134.32 423.1,-124.1 418.92,-133.84 425.9,-134.32"/>
<g id="a_edge52&#45;headlabel"><a xlink:href="dir_000017_000010.html" target="_top" xlink:title="1">
<text text-anchor="middle" x="428.48" y="-135.61" font-family="Helvetica,sans-Serif" font-size="10.00">1</text>
</a>
</g>
</g>
<!-- dir_63a0b6c750cdf58b4c6ba486311e48e1 -->
<g id="node5" class="node">
<title>dir_63a0b6c750cdf58b4c6ba486311e48e1</title>
<g id="a_node5"><a xlink:href="dir_63a0b6c750cdf58b4c6ba486311e48e1.html" target="_top" xlink:title="derive">
<polygon fill="white" stroke="black" points="170,-268 116,-268 116,-232 170,-232 170,-268"/>
<text text-anchor="middle" x="143" y="-247.5" font-family="Helvetica,sans-Serif" font-size="10.00">derive</text>
</a>
</g>
</g>
<!-- dir_63a0b6c750cdf58b4c6ba486311e48e1&#45;&gt;dir_3d3615e9a999cab4f3407307569d6ced -->
<g id="edge34" class="edge">
<title>dir_63a0b6c750cdf58b4c6ba486311e48e1&#45;&gt;dir_3d3615e9a999cab4f3407307569d6ced</title>
<path fill="none" stroke="black" d="M170.25,-235.33C173.16,-234.11 176.12,-232.97 179,-232 252.6,-207.2 342.44,-191.53 391.89,-184.11"/>
<polygon fill="black" stroke="black" points="392.43,-187.57 401.81,-182.65 391.41,-180.64 392.43,-187.57"/>
<g id="a_edge34&#45;headlabel"><a xlink:href="dir_000025_000017.html" target="_top" xlink:title="1">
<text text-anchor="middle" x="389.29" y="-188.4" font-family="Helvetica,sans-Serif" font-size="10.00">1</text>
</a>
</g>
</g>
<!-- dir_a816a247b59c90f95e41afe29b966a18 -->
<g id="node6" class="node">
<title>dir_a816a247b59c90f95e41afe29b966a18</title>
<g id="a_node6"><a xlink:href="dir_a816a247b59c90f95e41afe29b966a18.html" target="_top" xlink:title="diffusion">
<polygon fill="white" stroke="black" points="507.5,-268 448.5,-268 448.5,-232 507.5,-232 507.5,-268"/>
<text text-anchor="middle" x="478" y="-247.5" font-family="Helvetica,sans-Serif" font-size="10.00">diffusion</text>
</a>
</g>
</g>
<!-- dir_a816a247b59c90f95e41afe29b966a18&#45;&gt;dir_3d3615e9a999cab4f3407307569d6ced -->
<g id="edge42" class="edge">
<title>dir_a816a247b59c90f95e41afe29b966a18&#45;&gt;dir_3d3615e9a999cab4f3407307569d6ced</title>
<path fill="none" stroke="black" d="M465.89,-231.7C460.13,-223.47 453.14,-213.48 446.79,-204.42"/>
<polygon fill="black" stroke="black" points="449.58,-202.29 440.97,-196.1 443.84,-206.3 449.58,-202.29"/>
<g id="a_edge42&#45;headlabel"><a xlink:href="dir_000022_000017.html" target="_top" xlink:title="1">
<text text-anchor="middle" x="453.96" y="-201.11" font-family="Helvetica,sans-Serif" font-size="10.00">1</text>
</a>
</g>
</g>
<!-- dir_4bb30ed846ea1df1fc4d16874a455d91&#45;&gt;dir_ebb19deee3cd40f4ac122fef25c04ca8 -->
<g id="edge47" class="edge">
<title>dir_4bb30ed846ea1df1fc4d16874a455d91&#45;&gt;dir_ebb19deee3cd40f4ac122fef25c04ca8</title>
<path fill="none" stroke="black" d="M495.25,-519.7C484.16,-510.88 470.53,-500.03 458.51,-490.47"/>
<polygon fill="black" stroke="black" points="460.51,-487.59 450.5,-484.1 456.15,-493.07 460.51,-487.59"/>
<g id="a_edge47&#45;headlabel"><a xlink:href="dir_000002_000012.html" target="_top" xlink:title="2">
<text text-anchor="middle" x="465.09" y="-485.11" font-family="Helvetica,sans-Serif" font-size="10.00">2</text>
</a>
</g>
</g>
<!-- dir_4bb30ed846ea1df1fc4d16874a455d91&#45;&gt;dir_35ffb1505af3943bdf99903da87524fe -->
<g id="edge45" class="edge">
<title>dir_4bb30ed846ea1df1fc4d16874a455d91&#45;&gt;dir_35ffb1505af3943bdf99903da87524fe</title>
<path fill="none" stroke="black" d="M542.17,-519.84C571.8,-498.25 620.23,-458.33 646,-412 669.73,-369.33 677.38,-311.98 679.84,-278.5"/>
<polygon fill="black" stroke="black" points="683.36,-278.31 680.49,-268.12 676.37,-277.88 683.36,-278.31"/>
<g id="a_edge45&#45;headlabel"><a xlink:href="dir_000002_000026.html" target="_top" xlink:title="2">
<text text-anchor="middle" x="685.96" y="-279.58" font-family="Helvetica,sans-Serif" font-size="10.00">2</text>
</a>
</g>
</g>
<!-- dir_4bb30ed846ea1df1fc4d16874a455d91&#45;&gt;dir_3d3615e9a999cab4f3407307569d6ced -->
<g id="edge50" class="edge">
<title>dir_4bb30ed846ea1df1fc4d16874a455d91&#45;&gt;dir_3d3615e9a999cab4f3407307569d6ced</title>
<path fill="none" stroke="black" d="M524.16,-519.96C539.44,-481.36 572.56,-384.34 556,-304 548.97,-269.88 548.4,-257.81 525,-232 508.85,-214.18 485.26,-201.04 465.51,-192.3"/>
<polygon fill="black" stroke="black" points="466.74,-189.03 456.17,-188.37 464.02,-195.48 466.74,-189.03"/>
<g id="a_edge50&#45;headlabel"><a xlink:href="dir_000002_000017.html" target="_top" xlink:title="54">
<text text-anchor="middle" x="471.16" y="-185.31" font-family="Helvetica,sans-Serif" font-size="10.00">54</text>
</a>
</g>
</g>
<!-- dir_4bb30ed846ea1df1fc4d16874a455d91&#45;&gt;dir_a816a247b59c90f95e41afe29b966a18 -->
<g id="edge49" class="edge">
<title>dir_4bb30ed846ea1df1fc4d16874a455d91&#45;&gt;dir_a816a247b59c90f95e41afe29b966a18</title>
<path fill="none" stroke="black" d="M513.76,-519.79C510.21,-501.75 504.08,-472.66 497,-448 482.95,-399.09 467.57,-390.16 459,-340 456.31,-324.23 456.26,-319.76 459,-304 460.52,-295.24 463.36,-286.01 466.39,-277.75"/>
<polygon fill="black" stroke="black" points="469.72,-278.84 470.11,-268.25 463.21,-276.29 469.72,-278.84"/>
<g id="a_edge49&#45;headlabel"><a xlink:href="dir_000002_000022.html" target="_top" xlink:title="1">
<text text-anchor="middle" x="471.06" y="-280.72" font-family="Helvetica,sans-Serif" font-size="10.00">1</text>
</a>
</g>
</g>
<!-- dir_4bb30ed846ea1df1fc4d16874a455d91&#45;&gt;dir_f2c65bfcbdc19ebacbfc0bbbfb0d01b6 -->
<g id="edge44" class="edge">
<title>dir_4bb30ed846ea1df1fc4d16874a455d91&#45;&gt;dir_f2c65bfcbdc19ebacbfc0bbbfb0d01b6</title>
<path fill="none" stroke="black" d="M463.75,-532.83C400.82,-526.43 302.15,-511.89 280,-484 264.93,-465.03 278.41,-438.78 294.45,-419.7"/>
<polygon fill="black" stroke="black" points="297.06,-422.03 301.16,-412.26 291.86,-417.34 297.06,-422.03"/>
<g id="a_edge44&#45;headlabel"><a xlink:href="dir_000002_000015.html" target="_top" xlink:title="2">
<text text-anchor="middle" x="296.76" y="-424.1" font-family="Helvetica,sans-Serif" font-size="10.00">2</text>
</a>
</g>
</g>
<!-- dir_4bb30ed846ea1df1fc4d16874a455d91&#45;&gt;dir_9ff815a534beac751fa88e427dbab695 -->
<g id="edge43" class="edge">
<title>dir_4bb30ed846ea1df1fc4d16874a455d91&#45;&gt;dir_9ff815a534beac751fa88e427dbab695</title>
<path fill="none" stroke="black" d="M463.73,-536.65C364.82,-535.03 158.38,-526.57 104,-484 82.26,-466.98 59.23,-391.27 51.33,-350.01"/>
<polygon fill="black" stroke="black" points="54.77,-349.35 49.62,-340.09 47.87,-350.53 54.77,-349.35"/>
<g id="a_edge43&#45;headlabel"><a xlink:href="dir_000002_000030.html" target="_top" xlink:title="4">
<text text-anchor="middle" x="58.17" y="-349.91" font-family="Helvetica,sans-Serif" font-size="10.00">4</text>
</a>
</g>
</g>
<!-- dir_4bb30ed846ea1df1fc4d16874a455d91&#45;&gt;dir_e4cd57caa88bf1f4e1bf9521bc47c3c0 -->
<g id="edge48" class="edge">
<title>dir_4bb30ed846ea1df1fc4d16874a455d91&#45;&gt;dir_e4cd57caa88bf1f4e1bf9521bc47c3c0</title>
<path fill="none" stroke="black" d="M554.45,-519.93C571.93,-510.83 592.28,-498.51 608,-484 698.72,-400.23 773.42,-345.6 725,-232 682.77,-132.91 535.85,-112.19 466.19,-107.98"/>
<polygon fill="black" stroke="black" points="466.27,-104.48 456.1,-107.46 465.9,-111.47 466.27,-104.48"/>
<g id="a_edge48&#45;headlabel"><a xlink:href="dir_000002_000010.html" target="_top" xlink:title="9">
<text text-anchor="middle" x="470" y="-99.34" font-family="Helvetica,sans-Serif" font-size="10.00">9</text>
</a>
</g>
</g>
<!-- dir_0c368f76a33d967d5b838b5681461de6 -->
<g id="node17" class="node">
<title>dir_0c368f76a33d967d5b838b5681461de6</title>
<g id="a_node17"><a xlink:href="dir_0c368f76a33d967d5b838b5681461de6.html" target="_top" xlink:title="wind_energy">
<polygon fill="white" stroke="red" points="546.5,-340 467.5,-340 467.5,-304 546.5,-304 546.5,-340"/>
<text text-anchor="middle" x="507" y="-319.5" font-family="Helvetica,sans-Serif" font-size="10.00">wind_energy</text>
</a>
</g>
</g>
<!-- dir_4bb30ed846ea1df1fc4d16874a455d91&#45;&gt;dir_0c368f76a33d967d5b838b5681461de6 -->
<g id="edge46" class="edge">
<title>dir_4bb30ed846ea1df1fc4d16874a455d91&#45;&gt;dir_0c368f76a33d967d5b838b5681461de6</title>
<path fill="none" stroke="black" d="M512.32,-519.85C507.06,-482.83 502.69,-395.18 503.59,-350.39"/>
<polygon fill="black" stroke="black" points="507.09,-350.34 503.92,-340.23 500.09,-350.11 507.09,-350.34"/>
<g id="a_edge46&#45;headlabel"><a xlink:href="dir_000002_000001.html" target="_top" xlink:title="3">
<text text-anchor="middle" x="509.81" y="-351.53" font-family="Helvetica,sans-Serif" font-size="10.00">3</text>
</a>
</g>
</g>
<!-- dir_7f7a014517bfe31ea45620a6a947e37b -->
<g id="node8" class="node">
<title>dir_7f7a014517bfe31ea45620a6a947e37b</title>
<g id="a_node8"><a xlink:href="dir_7f7a014517bfe31ea45620a6a947e37b.html" target="_top" xlink:title="fvm">
<polygon fill="white" stroke="black" points="344,-52 290,-52 290,-16 344,-16 344,-52"/>
<text text-anchor="middle" x="317" y="-31.5" font-family="Helvetica,sans-Serif" font-size="10.00">fvm</text>
</a>
</g>
</g>
<!-- dir_7f7a014517bfe31ea45620a6a947e37b&#45;&gt;dir_3d3615e9a999cab4f3407307569d6ced -->
<g id="edge41" class="edge">
<title>dir_7f7a014517bfe31ea45620a6a947e37b&#45;&gt;dir_3d3615e9a999cab4f3407307569d6ced</title>
<path fill="none" stroke="black" d="M330.56,-52.19C350.18,-77.06 386.61,-123.25 409.23,-151.93"/>
<polygon fill="black" stroke="black" points="406.55,-154.19 415.49,-159.87 412.05,-149.85 406.55,-154.19"/>
<g id="a_edge41&#45;headlabel"><a xlink:href="dir_000019_000017.html" target="_top" xlink:title="1">
<text text-anchor="middle" x="402.09" y="-150.62" font-family="Helvetica,sans-Serif" font-size="10.00">1</text>
</a>
</g>
</g>
<!-- dir_fd923bd2d0167375463be7322a394e28 -->
<g id="node9" class="node">
<title>dir_fd923bd2d0167375463be7322a394e28</title>
<g id="a_node9"><a xlink:href="dir_fd923bd2d0167375463be7322a394e28.html" target="_top" xlink:title="immersed_boundary">
<polygon fill="white" stroke="red" points="238.5,-484 121.5,-484 121.5,-448 238.5,-448 238.5,-484"/>
<text text-anchor="middle" x="180" y="-463.5" font-family="Helvetica,sans-Serif" font-size="10.00">immersed_boundary</text>
</a>
</g>
</g>
<!-- dir_fd923bd2d0167375463be7322a394e28&#45;&gt;dir_3d3615e9a999cab4f3407307569d6ced -->
<g id="edge33" class="edge">
<title>dir_fd923bd2d0167375463be7322a394e28&#45;&gt;dir_3d3615e9a999cab4f3407307569d6ced</title>
<path fill="none" stroke="black" d="M194.49,-447.92C227.36,-409.24 310.24,-312.05 381,-232 389.27,-222.65 398.44,-212.47 406.54,-203.55"/>
<polygon fill="black" stroke="black" points="409.19,-205.84 413.33,-196.09 404.01,-201.13 409.19,-205.84"/>
<g id="a_edge33&#45;headlabel"><a xlink:href="dir_000013_000017.html" target="_top" xlink:title="12">
<text text-anchor="middle" x="408.87" y="-207.91" font-family="Helvetica,sans-Serif" font-size="10.00">12</text>
</a>
</g>
</g>
<!-- dir_fd923bd2d0167375463be7322a394e28&#45;&gt;dir_7f7a014517bfe31ea45620a6a947e37b -->
<g id="edge32" class="edge">
<title>dir_fd923bd2d0167375463be7322a394e28&#45;&gt;dir_7f7a014517bfe31ea45620a6a947e37b</title>
<path fill="none" stroke="black" d="M161.07,-447.86C151.27,-438.14 139.77,-425.29 132,-412 111.44,-376.82 80.37,-269.2 97,-232 134.79,-147.44 228.8,-84.12 280.87,-54.18"/>
<polygon fill="black" stroke="black" points="282.78,-57.11 289.77,-49.14 279.34,-51.02 282.78,-57.11"/>
<g id="a_edge32&#45;headlabel"><a xlink:href="dir_000013_000019.html" target="_top" xlink:title="2">
<text text-anchor="middle" x="281.05" y="-58.85" font-family="Helvetica,sans-Serif" font-size="10.00">2</text>
</a>
</g>
</g>
<!-- dir_fd923bd2d0167375463be7322a394e28&#45;&gt;dir_f2c65bfcbdc19ebacbfc0bbbfb0d01b6 -->
<g id="edge30" class="edge">
<title>dir_fd923bd2d0167375463be7322a394e28&#45;&gt;dir_f2c65bfcbdc19ebacbfc0bbbfb0d01b6</title>
<path fill="none" stroke="black" d="M215.23,-447.88C237.23,-437.18 265.49,-423.44 287.7,-412.65"/>
<polygon fill="black" stroke="black" points="289.34,-415.74 296.8,-408.22 286.28,-409.44 289.34,-415.74"/>
<g id="a_edge30&#45;headlabel"><a xlink:href="dir_000013_000015.html" target="_top" xlink:title="1">
<text text-anchor="middle" x="287.35" y="-417.36" font-family="Helvetica,sans-Serif" font-size="10.00">1</text>
</a>
</g>
</g>
<!-- dir_fd923bd2d0167375463be7322a394e28&#45;&gt;dir_e4cd57caa88bf1f4e1bf9521bc47c3c0 -->
<g id="edge31" class="edge">
<title>dir_fd923bd2d0167375463be7322a394e28&#45;&gt;dir_e4cd57caa88bf1f4e1bf9521bc47c3c0</title>
<path fill="none" stroke="black" d="M170.81,-447.68C146.16,-400.09 82.04,-268.47 107,-232 140.55,-182.98 315,-134.97 392.19,-115.77"/>
<polygon fill="black" stroke="black" points="393.11,-119.15 401.98,-113.36 391.43,-112.35 393.11,-119.15"/>
<g id="a_edge31&#45;headlabel"><a xlink:href="dir_000013_000010.html" target="_top" xlink:title="2">
<text text-anchor="middle" x="390.29" y="-120.26" font-family="Helvetica,sans-Serif" font-size="10.00">2</text>
</a>
</g>
</g>
<!-- dir_629222d9fcf2f4ceefae477297f2ec84&#45;&gt;dir_3d3615e9a999cab4f3407307569d6ced -->
<g id="edge20" class="edge">
<title>dir_629222d9fcf2f4ceefae477297f2ec84&#45;&gt;dir_3d3615e9a999cab4f3407307569d6ced</title>
<path fill="none" stroke="black" d="M645.29,-591.98C652.19,-553.02 665.93,-454.63 646,-376 628.12,-305.44 622.75,-279.96 568,-232 552.37,-218.31 501.49,-200.9 465.84,-189.85"/>
<polygon fill="black" stroke="black" points="466.82,-186.48 456.23,-186.91 464.77,-193.18 466.82,-186.48"/>
<g id="a_edge20&#45;headlabel"><a xlink:href="dir_000042_000017.html" target="_top" xlink:title="3">
<text text-anchor="middle" x="471.08" y="-182.32" font-family="Helvetica,sans-Serif" font-size="10.00">3</text>
</a>
</g>
</g>
<!-- dir_629222d9fcf2f4ceefae477297f2ec84&#45;&gt;dir_4bb30ed846ea1df1fc4d16874a455d91 -->
<g id="edge19" class="edge">
<title>dir_629222d9fcf2f4ceefae477297f2ec84&#45;&gt;dir_4bb30ed846ea1df1fc4d16874a455d91</title>
<path fill="none" stroke="black" d="M614.88,-593.81C597.77,-584.23 575.39,-571.7 556.34,-561.03"/>
<polygon fill="black" stroke="black" points="558.02,-557.96 547.58,-556.13 554.6,-564.07 558.02,-557.96"/>
<g id="a_edge19&#45;headlabel"><a xlink:href="dir_000042_000002.html" target="_top" xlink:title="1">
<text text-anchor="middle" x="562.54" y="-554.74" font-family="Helvetica,sans-Serif" font-size="10.00">1</text>
</a>
</g>
</g>
<!-- dir_629222d9fcf2f4ceefae477297f2ec84&#45;&gt;dir_e4cd57caa88bf1f4e1bf9521bc47c3c0 -->
<g id="edge18" class="edge">
<title>dir_629222d9fcf2f4ceefae477297f2ec84&#45;&gt;dir_e4cd57caa88bf1f4e1bf9521bc47c3c0</title>
<path fill="none" stroke="black" d="M669.24,-595.5C708.15,-574.06 775,-528.31 775,-467 775,-467 775,-467 775,-321 775,-239.24 754.02,-205.37 686,-160 618.14,-114.73 519.47,-106.86 466.3,-106.22"/>
<polygon fill="black" stroke="black" points="466.31,-102.72 456.29,-106.18 466.28,-109.72 466.31,-102.72"/>
<g id="a_edge18&#45;headlabel"><a xlink:href="dir_000042_000010.html" target="_top" xlink:title="1">
<text text-anchor="middle" x="469.91" y="-97.39" font-family="Helvetica,sans-Serif" font-size="10.00">1</text>
</a>
</g>
</g>
<!-- dir_f2c65bfcbdc19ebacbfc0bbbfb0d01b6&#45;&gt;dir_3d3615e9a999cab4f3407307569d6ced -->
<g id="edge17" class="edge">
<title>dir_f2c65bfcbdc19ebacbfc0bbbfb0d01b6&#45;&gt;dir_3d3615e9a999cab4f3407307569d6ced</title>
<path fill="none" stroke="black" d="M332.42,-375.85C350.73,-338.52 394.31,-249.69 416.12,-205.26"/>
<polygon fill="black" stroke="black" points="419.28,-206.75 420.54,-196.23 413,-203.67 419.28,-206.75"/>
<g id="a_edge17&#45;headlabel"><a xlink:href="dir_000015_000017.html" target="_top" xlink:title="52">
<text text-anchor="middle" x="420.25" y="-208.73" font-family="Helvetica,sans-Serif" font-size="10.00">52</text>
</a>
</g>
</g>
<!-- dir_f2c65bfcbdc19ebacbfc0bbbfb0d01b6&#45;&gt;dir_4bb30ed846ea1df1fc4d16874a455d91 -->
<g id="edge16" class="edge">
<title>dir_f2c65bfcbdc19ebacbfc0bbbfb0d01b6&#45;&gt;dir_4bb30ed846ea1df1fc4d16874a455d91</title>
<path fill="none" stroke="black" d="M314.25,-412.26C300.66,-431.4 280.86,-462.42 298,-484 317.49,-508.54 396.26,-522.75 453.83,-530.17"/>
<polygon fill="black" stroke="black" points="453.6,-533.67 463.96,-531.43 454.47,-526.72 453.6,-533.67"/>
<g id="a_edge16&#45;headlabel"><a xlink:href="dir_000015_000002.html" target="_top" xlink:title="4">
<text text-anchor="middle" x="449.68" y="-533.54" font-family="Helvetica,sans-Serif" font-size="10.00">4</text>
</a>
</g>
</g>
<!-- dir_f2c65bfcbdc19ebacbfc0bbbfb0d01b6&#45;&gt;dir_7f7a014517bfe31ea45620a6a947e37b -->
<g id="edge15" class="edge">
<title>dir_f2c65bfcbdc19ebacbfc0bbbfb0d01b6&#45;&gt;dir_7f7a014517bfe31ea45620a6a947e37b</title>
<path fill="none" stroke="black" d="M321.58,-375.86C320.23,-365.5 318.7,-352.02 318,-340 312.06,-237.63 314.53,-115.6 316.09,-62.24"/>
<polygon fill="black" stroke="black" points="319.59,-62.32 316.4,-52.22 312.59,-62.11 319.59,-62.32"/>
<g id="a_edge15&#45;headlabel"><a xlink:href="dir_000015_000019.html" target="_top" xlink:title="4">
<text text-anchor="middle" x="322.32" y="-63.5" font-family="Helvetica,sans-Serif" font-size="10.00">4</text>
</a>
</g>
</g>
<!-- dir_f2c65bfcbdc19ebacbfc0bbbfb0d01b6&#45;&gt;dir_9ff815a534beac751fa88e427dbab695 -->
<g id="edge12" class="edge">
<title>dir_f2c65bfcbdc19ebacbfc0bbbfb0d01b6&#45;&gt;dir_9ff815a534beac751fa88e427dbab695</title>
<path fill="none" stroke="black" d="M296.73,-386.03C249.35,-373.93 151.46,-348.92 94.25,-334.3"/>
<polygon fill="black" stroke="black" points="94.96,-330.87 84.4,-331.79 93.23,-337.66 94.96,-330.87"/>
<g id="a_edge12&#45;headlabel"><a xlink:href="dir_000015_000030.html" target="_top" xlink:title="1">
<text text-anchor="middle" x="99.14" y="-326.51" font-family="Helvetica,sans-Serif" font-size="10.00">1</text>
</a>
</g>
</g>
<!-- dir_f2c65bfcbdc19ebacbfc0bbbfb0d01b6&#45;&gt;dir_e4cd57caa88bf1f4e1bf9521bc47c3c0 -->
<g id="edge14" class="edge">
<title>dir_f2c65bfcbdc19ebacbfc0bbbfb0d01b6&#45;&gt;dir_e4cd57caa88bf1f4e1bf9521bc47c3c0</title>
<path fill="none" stroke="black" d="M323.01,-375.83C321.46,-335.28 322.2,-231.6 364,-160 371.19,-147.67 382.41,-137.02 393.51,-128.56"/>
<polygon fill="black" stroke="black" points="395.83,-131.2 401.91,-122.53 391.74,-125.52 395.83,-131.2"/>
<g id="a_edge14&#45;headlabel"><a xlink:href="dir_000015_000010.html" target="_top" xlink:title="11">
<text text-anchor="middle" x="394.56" y="-133.11" font-family="Helvetica,sans-Serif" font-size="10.00">11</text>
</a>
</g>
</g>
<!-- dir_f2c65bfcbdc19ebacbfc0bbbfb0d01b6&#45;&gt;dir_0c368f76a33d967d5b838b5681461de6 -->
<g id="edge13" class="edge">
<title>dir_f2c65bfcbdc19ebacbfc0bbbfb0d01b6&#45;&gt;dir_0c368f76a33d967d5b838b5681461de6</title>
<path fill="none" stroke="black" d="M351,-382.67C379.08,-371.93 423.66,-354.88 457.98,-341.75"/>
<polygon fill="black" stroke="black" points="459.28,-345 467.37,-338.16 456.78,-338.46 459.28,-345"/>
<g id="a_edge13&#45;headlabel"><a xlink:href="dir_000015_000001.html" target="_top" xlink:title="1">
<text text-anchor="middle" x="456.93" y="-346.44" font-family="Helvetica,sans-Serif" font-size="10.00">1</text>
</a>
</g>
</g>
<!-- dir_d599e6111b2fbf4fd47cd3a4f2a09da4 -->
<g id="node12" class="node">
<title>dir_d599e6111b2fbf4fd47cd3a4f2a09da4</title>
<g id="a_node12"><a xlink:href="dir_d599e6111b2fbf4fd47cd3a4f2a09da4.html" target="_top" xlink:title="projection">
<polygon fill="white" stroke="black" points="636.5,-412 571.5,-412 571.5,-376 636.5,-376 636.5,-412"/>
<text text-anchor="middle" x="604" y="-391.5" font-family="Helvetica,sans-Serif" font-size="10.00">projection</text>
</a>
</g>
</g>
<!-- dir_d599e6111b2fbf4fd47cd3a4f2a09da4&#45;&gt;dir_3d3615e9a999cab4f3407307569d6ced -->
<g id="edge8" class="edge">
<title>dir_d599e6111b2fbf4fd47cd3a4f2a09da4&#45;&gt;dir_3d3615e9a999cab4f3407307569d6ced</title>
<path fill="none" stroke="black" d="M602.99,-375.67C600.23,-343.42 589.95,-273.72 552,-232 529.45,-207.22 493.32,-193.54 466.04,-186.32"/>
<polygon fill="black" stroke="black" points="466.61,-182.86 456.06,-183.86 464.93,-189.65 466.61,-182.86"/>
<g id="a_edge8&#45;headlabel"><a xlink:href="dir_000028_000017.html" target="_top" xlink:title="2">
<text text-anchor="middle" x="470.78" y="-178.46" font-family="Helvetica,sans-Serif" font-size="10.00">2</text>
</a>
</g>
</g>
<!-- dir_d599e6111b2fbf4fd47cd3a4f2a09da4&#45;&gt;dir_e4cd57caa88bf1f4e1bf9521bc47c3c0 -->
<g id="edge7" class="edge">
<title>dir_d599e6111b2fbf4fd47cd3a4f2a09da4&#45;&gt;dir_e4cd57caa88bf1f4e1bf9521bc47c3c0</title>
<path fill="none" stroke="black" d="M605.75,-375.74C606.99,-357.41 607.21,-327.85 599,-304 573.64,-230.33 552.95,-216.22 499,-160 488.55,-149.11 475.72,-138.72 463.91,-130.07"/>
<polygon fill="black" stroke="black" points="465.71,-127.06 455.54,-124.1 461.64,-132.76 465.71,-127.06"/>
<g id="a_edge7&#45;headlabel"><a xlink:href="dir_000028_000010.html" target="_top" xlink:title="1">
<text text-anchor="middle" x="470.29" y="-124.34" font-family="Helvetica,sans-Serif" font-size="10.00">1</text>
</a>
</g>
</g>
<!-- dir_d599e6111b2fbf4fd47cd3a4f2a09da4&#45;&gt;dir_0c368f76a33d967d5b838b5681461de6 -->
<g id="edge6" class="edge">
<title>dir_d599e6111b2fbf4fd47cd3a4f2a09da4&#45;&gt;dir_0c368f76a33d967d5b838b5681461de6</title>
<path fill="none" stroke="black" d="M580.02,-375.7C567.69,-366.8 552.48,-355.82 539.15,-346.2"/>
<polygon fill="black" stroke="black" points="540.86,-343.12 530.7,-340.1 536.76,-348.79 540.86,-343.12"/>
<g id="a_edge6&#45;headlabel"><a xlink:href="dir_000028_000001.html" target="_top" xlink:title="1">
<text text-anchor="middle" x="545.44" y="-340.42" font-family="Helvetica,sans-Serif" font-size="10.00">1</text>
</a>
</g>
</g>
<!-- dir_073a3c37bc9e3eb3e412aa8cf4eda4c3 -->
<g id="node13" class="node">
<title>dir_073a3c37bc9e3eb3e412aa8cf4eda4c3</title>
<g id="a_node13"><a xlink:href="dir_073a3c37bc9e3eb3e412aa8cf4eda4c3.html" target="_top" xlink:title="setup">
<polygon fill="white" stroke="black" points="352,-484 298,-484 298,-448 352,-448 352,-484"/>
<text text-anchor="middle" x="325" y="-463.5" font-family="Helvetica,sans-Serif" font-size="10.00">setup</text>
</a>
</g>
</g>
<!-- dir_073a3c37bc9e3eb3e412aa8cf4eda4c3&#45;&gt;dir_3d3615e9a999cab4f3407307569d6ced -->
<g id="edge40" class="edge">
<title>dir_073a3c37bc9e3eb3e412aa8cf4eda4c3&#45;&gt;dir_3d3615e9a999cab4f3407307569d6ced</title>
<path fill="none" stroke="black" d="M345.76,-447.82C356.01,-438.28 367.71,-425.6 375,-412 411.51,-343.87 423.48,-251.62 427.29,-206.36"/>
<polygon fill="black" stroke="black" points="430.8,-206.4 428.07,-196.16 423.82,-205.86 430.8,-206.4"/>
<g id="a_edge40&#45;headlabel"><a xlink:href="dir_000029_000017.html" target="_top" xlink:title="1">
<text text-anchor="middle" x="433.35" y="-207.7" font-family="Helvetica,sans-Serif" font-size="10.00">1</text>
</a>
</g>
</g>
<!-- dir_073a3c37bc9e3eb3e412aa8cf4eda4c3&#45;&gt;dir_f2c65bfcbdc19ebacbfc0bbbfb0d01b6 -->
<g id="edge37" class="edge">
<title>dir_073a3c37bc9e3eb3e412aa8cf4eda4c3&#45;&gt;dir_f2c65bfcbdc19ebacbfc0bbbfb0d01b6</title>
<path fill="none" stroke="black" d="M324.75,-447.7C324.64,-439.98 324.51,-430.71 324.39,-422.11"/>
<polygon fill="black" stroke="black" points="327.89,-422.05 324.24,-412.1 320.89,-422.15 327.89,-422.05"/>
<g id="a_edge37&#45;headlabel"><a xlink:href="dir_000029_000015.html" target="_top" xlink:title="1">
<text text-anchor="middle" x="330.78" y="-423.11" font-family="Helvetica,sans-Serif" font-size="10.00">1</text>
</a>
</g>
</g>
<!-- dir_073a3c37bc9e3eb3e412aa8cf4eda4c3&#45;&gt;dir_e4cd57caa88bf1f4e1bf9521bc47c3c0 -->
<g id="edge39" class="edge">
<title>dir_073a3c37bc9e3eb3e412aa8cf4eda4c3&#45;&gt;dir_e4cd57caa88bf1f4e1bf9521bc47c3c0</title>
<path fill="none" stroke="black" d="M339.15,-447.95C346.59,-438.06 355.15,-425.02 360,-412 399.47,-306.16 352.85,-265.58 393,-160 396.64,-150.43 402.31,-140.89 408.09,-132.6"/>
<polygon fill="black" stroke="black" points="410.97,-134.59 414.07,-124.46 405.33,-130.45 410.97,-134.59"/>
<g id="a_edge39&#45;headlabel"><a xlink:href="dir_000029_000010.html" target="_top" xlink:title="2">
<text text-anchor="middle" x="411.13" y="-136.67" font-family="Helvetica,sans-Serif" font-size="10.00">2</text>
</a>
</g>
</g>
<!-- dir_073a3c37bc9e3eb3e412aa8cf4eda4c3&#45;&gt;dir_0c368f76a33d967d5b838b5681461de6 -->
<g id="edge38" class="edge">
<title>dir_073a3c37bc9e3eb3e412aa8cf4eda4c3&#45;&gt;dir_0c368f76a33d967d5b838b5681461de6</title>
<path fill="none" stroke="black" d="M352.1,-450.96C370.28,-441.05 394.39,-426.92 414,-412 439.68,-392.47 465.97,-366.66 484.02,-347.87"/>
<polygon fill="black" stroke="black" points="486.88,-349.94 491.23,-340.28 481.8,-345.12 486.88,-349.94"/>
<g id="a_edge38&#45;headlabel"><a xlink:href="dir_000029_000001.html" target="_top" xlink:title="1">
<text text-anchor="middle" x="486.46" y="-352" font-family="Helvetica,sans-Serif" font-size="10.00">1</text>
</a>
</g>
</g>
<!-- dir_7b7e55eaa727ae9c717abfc097345a8f -->
<g id="node14" class="node">
<title>dir_7b7e55eaa727ae9c717abfc097345a8f</title>
<g id="a_node14"><a xlink:href="dir_7b7e55eaa727ae9c717abfc097345a8f.html" target="_top" xlink:title="transport_models">
<polygon fill="white" stroke="black" points="290,-268 188,-268 188,-232 290,-232 290,-268"/>
<text text-anchor="middle" x="239" y="-247.5" font-family="Helvetica,sans-Serif" font-size="10.00">transport_models</text>
</a>
</g>
</g>
<!-- dir_7b7e55eaa727ae9c717abfc097345a8f&#45;&gt;dir_3d3615e9a999cab4f3407307569d6ced -->
<g id="edge54" class="edge">
<title>dir_7b7e55eaa727ae9c717abfc097345a8f&#45;&gt;dir_3d3615e9a999cab4f3407307569d6ced</title>
<path fill="none" stroke="black" d="M285.48,-231.88C318.39,-219.75 361.92,-203.71 392.38,-192.49"/>
<polygon fill="black" stroke="black" points="393.61,-195.77 401.78,-189.03 391.19,-189.2 393.61,-195.77"/>
<g id="a_edge54&#45;headlabel"><a xlink:href="dir_000018_000017.html" target="_top" xlink:title="2">
<text text-anchor="middle" x="391.22" y="-197.18" font-family="Helvetica,sans-Serif" font-size="10.00">2</text>
</a>
</g>
</g>
<!-- dir_7b7e55eaa727ae9c717abfc097345a8f&#45;&gt;dir_f2c65bfcbdc19ebacbfc0bbbfb0d01b6 -->
<g id="edge53" class="edge">
<title>dir_7b7e55eaa727ae9c717abfc097345a8f&#45;&gt;dir_f2c65bfcbdc19ebacbfc0bbbfb0d01b6</title>
<path fill="none" stroke="black" d="M249.29,-268.19C264.05,-292.85 291.35,-338.46 308.55,-367.19"/>
<polygon fill="black" stroke="black" points="305.61,-369.09 313.75,-375.87 311.61,-365.49 305.61,-369.09"/>
<g id="a_edge53&#45;headlabel"><a xlink:href="dir_000018_000015.html" target="_top" xlink:title="1">
<text text-anchor="middle" x="301.33" y="-364.96" font-family="Helvetica,sans-Serif" font-size="10.00">1</text>
</a>
</g>
</g>
<!-- dir_9ff815a534beac751fa88e427dbab695&#45;&gt;dir_3d3615e9a999cab4f3407307569d6ced -->
<g id="edge3" class="edge">
<title>dir_9ff815a534beac751fa88e427dbab695&#45;&gt;dir_3d3615e9a999cab4f3407307569d6ced</title>
<path fill="none" stroke="black" d="M56.01,-303.79C64.16,-283.17 80.79,-249.25 107,-232 153.29,-201.53 316.87,-186.68 391.45,-181.37"/>
<polygon fill="black" stroke="black" points="392.04,-184.84 401.78,-180.65 391.56,-177.85 392.04,-184.84"/>
<g id="a_edge3&#45;headlabel"><a xlink:href="dir_000030_000017.html" target="_top" xlink:title="5">
<text text-anchor="middle" x="388.65" y="-185.42" font-family="Helvetica,sans-Serif" font-size="10.00">5</text>
</a>
</g>
</g>
<!-- dir_9ff815a534beac751fa88e427dbab695&#45;&gt;dir_4bb30ed846ea1df1fc4d16874a455d91 -->
<g id="edge4" class="edge">
<title>dir_9ff815a534beac751fa88e427dbab695&#45;&gt;dir_4bb30ed846ea1df1fc4d16874a455d91</title>
<path fill="none" stroke="black" d="M59.04,-340.09C73.21,-377.64 98.36,-465.5 122,-484 172.71,-523.69 355.62,-533.73 453.81,-536.22"/>
<polygon fill="black" stroke="black" points="453.83,-539.72 463.91,-536.46 453.99,-532.73 453.83,-539.72"/>
<g id="a_edge4&#45;headlabel"><a xlink:href="dir_000030_000002.html" target="_top" xlink:title="11">
<text text-anchor="middle" x="450.17" y="-539.98" font-family="Helvetica,sans-Serif" font-size="10.00">11</text>
</a>
</g>
</g>
<!-- dir_9ff815a534beac751fa88e427dbab695&#45;&gt;dir_7f7a014517bfe31ea45620a6a947e37b -->
<g id="edge2" class="edge">
<title>dir_9ff815a534beac751fa88e427dbab695&#45;&gt;dir_7f7a014517bfe31ea45620a6a947e37b</title>
<path fill="none" stroke="black" d="M43.63,-303.87C29.12,-261.59 -1.2,-151.09 52,-88 80.79,-53.85 213.35,-41.18 279.39,-36.93"/>
<polygon fill="black" stroke="black" points="280,-40.4 289.77,-36.3 279.57,-33.41 280,-40.4"/>
<g id="a_edge2&#45;headlabel"><a xlink:href="dir_000030_000019.html" target="_top" xlink:title="8">
<text text-anchor="middle" x="276.59" y="-40.95" font-family="Helvetica,sans-Serif" font-size="10.00">8</text>
</a>
</g>
</g>
<!-- dir_9ff815a534beac751fa88e427dbab695&#45;&gt;dir_7b7e55eaa727ae9c717abfc097345a8f -->
<g id="edge5" class="edge">
<title>dir_9ff815a534beac751fa88e427dbab695&#45;&gt;dir_7b7e55eaa727ae9c717abfc097345a8f</title>
<path fill="none" stroke="black" d="M84.23,-308.32C111.8,-298.11 151.12,-283.55 183.23,-271.66"/>
<polygon fill="black" stroke="black" points="184.78,-274.82 192.94,-268.06 182.34,-268.25 184.78,-274.82"/>
<g id="a_edge5&#45;headlabel"><a xlink:href="dir_000030_000018.html" target="_top" xlink:title="2">
<text text-anchor="middle" x="182.39" y="-276.23" font-family="Helvetica,sans-Serif" font-size="10.00">2</text>
</a>
</g>
</g>
<!-- dir_9ff815a534beac751fa88e427dbab695&#45;&gt;dir_e4cd57caa88bf1f4e1bf9521bc47c3c0 -->
<g id="edge1" class="edge">
<title>dir_9ff815a534beac751fa88e427dbab695&#45;&gt;dir_e4cd57caa88bf1f4e1bf9521bc47c3c0</title>
<path fill="none" stroke="black" d="M49.19,-303.72C49.21,-283.98 52.29,-251.85 70,-232 155.42,-136.24 318.18,-113.83 391.52,-108.6"/>
<polygon fill="black" stroke="black" points="391.92,-112.08 401.67,-107.94 391.47,-105.09 391.92,-112.08"/>
<g id="a_edge1&#45;headlabel"><a xlink:href="dir_000030_000010.html" target="_top" xlink:title="1">
<text text-anchor="middle" x="388.52" y="-112.64" font-family="Helvetica,sans-Serif" font-size="10.00">1</text>
</a>
</g>
</g>
<!-- dir_e4cd57caa88bf1f4e1bf9521bc47c3c0&#45;&gt;dir_3d3615e9a999cab4f3407307569d6ced -->
<g id="edge36" class="edge">
<title>dir_e4cd57caa88bf1f4e1bf9521bc47c3c0&#45;&gt;dir_3d3615e9a999cab4f3407307569d6ced</title>
<path fill="none" stroke="black" d="M434.9,-124.1C435.7,-131.79 435.94,-141.05 435.6,-149.67"/>
<polygon fill="black" stroke="black" points="432.11,-149.48 434.92,-159.7 439.09,-149.96 432.11,-149.48"/>
<g id="a_edge36&#45;headlabel"><a xlink:href="dir_000010_000017.html" target="_top" xlink:title="20">
<text text-anchor="middle" x="429.52" y="-143.2" font-family="Helvetica,sans-Serif" font-size="10.00">20</text>
</a>
</g>
</g>
<!-- dir_e4cd57caa88bf1f4e1bf9521bc47c3c0&#45;&gt;dir_7f7a014517bfe31ea45620a6a947e37b -->
<g id="edge35" class="edge">
<title>dir_e4cd57caa88bf1f4e1bf9521bc47c3c0&#45;&gt;dir_7f7a014517bfe31ea45620a6a947e37b</title>
<path fill="none" stroke="black" d="M401.89,-88.05C387.14,-78.84 368.71,-67.32 352.79,-57.37"/>
<polygon fill="black" stroke="black" points="354.59,-54.36 344.25,-52.03 350.88,-60.3 354.59,-54.36"/>
<g id="a_edge35&#45;headlabel"><a xlink:href="dir_000010_000019.html" target="_top" xlink:title="2">
<text text-anchor="middle" x="359.14" y="-51.36" font-family="Helvetica,sans-Serif" font-size="10.00">2</text>
</a>
</g>
</g>
<!-- dir_0c368f76a33d967d5b838b5681461de6&#45;&gt;dir_3d3615e9a999cab4f3407307569d6ced -->
<g id="edge27" class="edge">
<title>dir_0c368f76a33d967d5b838b5681461de6&#45;&gt;dir_3d3615e9a999cab4f3407307569d6ced</title>
<path fill="none" stroke="black" d="M514.68,-303.72C521.82,-284.85 529.62,-254.34 517,-232 505.97,-212.47 484.54,-199.34 465.59,-191.03"/>
<polygon fill="black" stroke="black" points="466.84,-187.77 456.26,-187.23 464.2,-194.25 466.84,-187.77"/>
<g id="a_edge27&#45;headlabel"><a xlink:href="dir_000001_000017.html" target="_top" xlink:title="27">
<text text-anchor="middle" x="471.24" y="-183.99" font-family="Helvetica,sans-Serif" font-size="10.00">27</text>
</a>
</g>
</g>
<!-- dir_0c368f76a33d967d5b838b5681461de6&#45;&gt;dir_a816a247b59c90f95e41afe29b966a18 -->
<g id="edge25" class="edge">
<title>dir_0c368f76a33d967d5b838b5681461de6&#45;&gt;dir_a816a247b59c90f95e41afe29b966a18</title>
<path fill="none" stroke="black" d="M499.83,-303.7C496.57,-295.81 492.63,-286.3 489,-277.55"/>
<polygon fill="black" stroke="black" points="492.15,-276 485.09,-268.1 485.68,-278.68 492.15,-276"/>
<g id="a_edge25&#45;headlabel"><a xlink:href="dir_000001_000022.html" target="_top" xlink:title="1">
<text text-anchor="middle" x="496.15" y="-275.74" font-family="Helvetica,sans-Serif" font-size="10.00">1</text>
</a>
</g>
</g>
<!-- dir_0c368f76a33d967d5b838b5681461de6&#45;&gt;dir_4bb30ed846ea1df1fc4d16874a455d91 -->
<g id="edge26" class="edge">
<title>dir_0c368f76a33d967d5b838b5681461de6&#45;&gt;dir_4bb30ed846ea1df1fc4d16874a455d91</title>
<path fill="none" stroke="black" d="M511.69,-340.23C516.95,-377.32 521.32,-464.98 520.41,-509.71"/>
<polygon fill="black" stroke="black" points="516.91,-509.74 520.08,-519.85 523.9,-509.97 516.91,-509.74"/>
<g id="a_edge26&#45;headlabel"><a xlink:href="dir_000001_000002.html" target="_top" xlink:title="4">
<text text-anchor="middle" x="514.19" y="-503.55" font-family="Helvetica,sans-Serif" font-size="10.00">4</text>
</a>
</g>
</g>
<!-- dir_0c368f76a33d967d5b838b5681461de6&#45;&gt;dir_7f7a014517bfe31ea45620a6a947e37b -->
<g id="edge24" class="edge">
<title>dir_0c368f76a33d967d5b838b5681461de6&#45;&gt;dir_7f7a014517bfe31ea45620a6a947e37b</title>
<path fill="none" stroke="black" d="M546.56,-320.64C617.4,-318.2 755.81,-304.3 725,-232 662.39,-85.11 442.53,-47.31 354.17,-37.95"/>
<polygon fill="black" stroke="black" points="354.37,-34.45 344.07,-36.94 353.67,-41.42 354.37,-34.45"/>
<g id="a_edge24&#45;headlabel"><a xlink:href="dir_000001_000019.html" target="_top" xlink:title="1">
<text text-anchor="middle" x="358.23" y="-29.48" font-family="Helvetica,sans-Serif" font-size="10.00">1</text>
</a>
</g>
</g>
<!-- dir_0c368f76a33d967d5b838b5681461de6&#45;&gt;dir_e4cd57caa88bf1f4e1bf9521bc47c3c0 -->
<g id="edge23" class="edge">
<title>dir_0c368f76a33d967d5b838b5681461de6&#45;&gt;dir_e4cd57caa88bf1f4e1bf9521bc47c3c0</title>
<path fill="none" stroke="black" d="M515.67,-303.93C523.71,-285.76 533.26,-256.33 525,-232 511.34,-191.79 478.96,-154.39 455.58,-131.17"/>
<polygon fill="black" stroke="black" points="457.95,-128.6 448.34,-124.15 453.08,-133.62 457.95,-128.6"/>
<g id="a_edge23&#45;headlabel"><a xlink:href="dir_000001_000010.html" target="_top" xlink:title="31">
<text text-anchor="middle" x="462.51" y="-126.57" font-family="Helvetica,sans-Serif" font-size="10.00">31</text>
</a>
</g>
</g>
</g>
</svg>
