<?xml version="1.0" encoding="UTF-8" standalone="no"?>
<!DOCTYPE svg PUBLIC "-//W3C//DTD SVG 1.1//EN"
 "http://www.w3.org/Graphics/SVG/1.1/DTD/svg11.dtd">
<!-- Generated by graphviz version 2.43.0 (0)
 -->
<!-- Title: disk_types.H Pages: 1 -->
<svg width="648pt" height="196pt"
 viewBox="0.00 0.00 648.00 196.00" xmlns="http://www.w3.org/2000/svg" xmlns:xlink="http://www.w3.org/1999/xlink">
<g id="graph0" class="graph" transform="scale(1 1) rotate(0) translate(4 192)">
<title>disk_types.H</title>
<polygon fill="white" stroke="transparent" points="-4,4 -4,-192 644,-192 644,4 -4,4"/>
<!-- Node1 -->
<g id="node1" class="node">
<title>Node1</title>
<g id="a_node1"><a xlink:title=" ">
<polygon fill="#bfbfbf" stroke="black" points="323,-168.5 323,-187.5 403,-187.5 403,-168.5 323,-168.5"/>
<text text-anchor="middle" x="363" y="-175.5" font-family="Helvetica,sans-Serif" font-size="10.00">disk_types.H</text>
</a>
</g>
</g>
<!-- Node2 -->
<g id="node2" class="node">
<title>Node2</title>
<g id="a_node2"><a xlink:href="_act_src_disk_op_8_h.html" target="_top" xlink:title=" ">
<polygon fill="white" stroke="black" points="265.5,-112.5 265.5,-131.5 358.5,-131.5 358.5,-112.5 265.5,-112.5"/>
<text text-anchor="middle" x="312" y="-119.5" font-family="Helvetica,sans-Serif" font-size="10.00">ActSrcDiskOp.H</text>
</a>
</g>
</g>
<!-- Node1&#45;&gt;Node2 -->
<g id="edge1" class="edge">
<title>Node1&#45;&gt;Node2</title>
<path fill="none" stroke="midnightblue" d="M347.62,-160.72C338.63,-151.2 327.64,-139.56 320.26,-131.75"/>
<polygon fill="midnightblue" stroke="midnightblue" points="345.17,-163.22 354.58,-168.08 350.26,-158.41 345.17,-163.22"/>
</g>
<!-- Node9 -->
<g id="node9" class="node">
<title>Node9</title>
<g id="a_node9"><a xlink:href="_uniform_ct_8_h.html" target="_top" xlink:title=" ">
<polygon fill="white" stroke="black" points="381.5,-112.5 381.5,-131.5 458.5,-131.5 458.5,-112.5 381.5,-112.5"/>
<text text-anchor="middle" x="420" y="-119.5" font-family="Helvetica,sans-Serif" font-size="10.00">UniformCt.H</text>
</a>
</g>
</g>
<!-- Node1&#45;&gt;Node9 -->
<g id="edge8" class="edge">
<title>Node1&#45;&gt;Node9</title>
<path fill="none" stroke="midnightblue" d="M379.62,-161.25C389.73,-151.67 402.28,-139.79 410.68,-131.83"/>
<polygon fill="midnightblue" stroke="midnightblue" points="377.01,-158.91 372.16,-168.32 381.82,-163.99 377.01,-158.91"/>
</g>
<!-- Node3 -->
<g id="node3" class="node">
<title>Node3</title>
<g id="a_node3"><a xlink:href="_actuator_model_8_h.html" target="_top" xlink:title=" ">
<polygon fill="white" stroke="black" points="252,-56.5 252,-75.5 350,-75.5 350,-56.5 252,-56.5"/>
<text text-anchor="middle" x="301" y="-63.5" font-family="Helvetica,sans-Serif" font-size="10.00">ActuatorModel.H</text>
</a>
</g>
</g>
<!-- Node2&#45;&gt;Node3 -->
<g id="edge2" class="edge">
<title>Node2&#45;&gt;Node3</title>
<path fill="none" stroke="midnightblue" d="M308.15,-102.1C306.32,-93.14 304.23,-82.86 302.78,-75.75"/>
<polygon fill="midnightblue" stroke="midnightblue" points="304.76,-102.98 310.18,-112.08 311.62,-101.59 304.76,-102.98"/>
</g>
<!-- Node4 -->
<g id="node4" class="node">
<title>Node4</title>
<g id="a_node4"><a xlink:href="_actuator_8cpp.html" target="_top" xlink:title=" ">
<polygon fill="white" stroke="black" points="314.5,-0.5 314.5,-19.5 391.5,-19.5 391.5,-0.5 314.5,-0.5"/>
<text text-anchor="middle" x="353" y="-7.5" font-family="Helvetica,sans-Serif" font-size="10.00">Actuator.cpp</text>
</a>
</g>
</g>
<!-- Node3&#45;&gt;Node4 -->
<g id="edge3" class="edge">
<title>Node3&#45;&gt;Node4</title>
<path fill="none" stroke="midnightblue" d="M316.68,-48.72C325.84,-39.2 337.05,-27.56 344.57,-19.75"/>
<polygon fill="midnightblue" stroke="midnightblue" points="314,-46.45 309.59,-56.08 319.04,-51.31 314,-46.45"/>
</g>
<!-- Node5 -->
<g id="node5" class="node">
<title>Node5</title>
<g id="a_node5"><a xlink:href="_actuator_disk_8cpp.html" target="_top" xlink:title=" ">
<polygon fill="white" stroke="black" points="410,-0.5 410,-19.5 510,-19.5 510,-0.5 410,-0.5"/>
<text text-anchor="middle" x="460" y="-7.5" font-family="Helvetica,sans-Serif" font-size="10.00">ActuatorDisk.cpp</text>
</a>
</g>
</g>
<!-- Node3&#45;&gt;Node5 -->
<g id="edge4" class="edge">
<title>Node3&#45;&gt;Node5</title>
<path fill="none" stroke="midnightblue" d="M335.83,-53.17C365.77,-43 408.22,-28.59 434.92,-19.52"/>
<polygon fill="midnightblue" stroke="midnightblue" points="334.54,-49.91 326.19,-56.44 336.79,-56.54 334.54,-49.91"/>
</g>
<!-- Node6 -->
<g id="node6" class="node">
<title>Node6</title>
<g id="a_node6"><a xlink:href="_turbine_fast_8cpp.html" target="_top" xlink:title=" ">
<polygon fill="white" stroke="black" points="0,-0.5 0,-19.5 92,-19.5 92,-0.5 0,-0.5"/>
<text text-anchor="middle" x="46" y="-7.5" font-family="Helvetica,sans-Serif" font-size="10.00">TurbineFast.cpp</text>
</a>
</g>
</g>
<!-- Node3&#45;&gt;Node6 -->
<g id="edge5" class="edge">
<title>Node3&#45;&gt;Node6</title>
<path fill="none" stroke="midnightblue" d="M250.69,-54.35C202.5,-44.14 130.72,-28.94 86.22,-19.52"/>
<polygon fill="midnightblue" stroke="midnightblue" points="250.09,-57.8 260.59,-56.44 251.54,-50.95 250.09,-57.8"/>
</g>
<!-- Node7 -->
<g id="node7" class="node">
<title>Node7</title>
<g id="a_node7"><a xlink:href="_fixed_wing_8cpp.html" target="_top" xlink:title=" ">
<polygon fill="white" stroke="black" points="110.5,-0.5 110.5,-19.5 197.5,-19.5 197.5,-0.5 110.5,-0.5"/>
<text text-anchor="middle" x="154" y="-7.5" font-family="Helvetica,sans-Serif" font-size="10.00">FixedWing.cpp</text>
</a>
</g>
</g>
<!-- Node3&#45;&gt;Node7 -->
<g id="edge6" class="edge">
<title>Node3&#45;&gt;Node7</title>
<path fill="none" stroke="midnightblue" d="M268.08,-52.91C240.44,-42.75 201.66,-28.51 177.18,-19.52"/>
<polygon fill="midnightblue" stroke="midnightblue" points="267.11,-56.28 277.71,-56.44 269.53,-49.71 267.11,-56.28"/>
</g>
<!-- Node8 -->
<g id="node8" class="node">
<title>Node8</title>
<g id="a_node8"><a xlink:href="_flat_plate_8cpp.html" target="_top" xlink:title=" ">
<polygon fill="white" stroke="black" points="216,-0.5 216,-19.5 296,-19.5 296,-0.5 216,-0.5"/>
<text text-anchor="middle" x="256" y="-7.5" font-family="Helvetica,sans-Serif" font-size="10.00">FlatPlate.cpp</text>
</a>
</g>
</g>
<!-- Node3&#45;&gt;Node8 -->
<g id="edge7" class="edge">
<title>Node3&#45;&gt;Node8</title>
<path fill="none" stroke="midnightblue" d="M286.95,-48.14C279.11,-38.74 269.67,-27.4 263.29,-19.75"/>
<polygon fill="midnightblue" stroke="midnightblue" points="284.48,-50.64 293.57,-56.08 289.86,-46.16 284.48,-50.64"/>
</g>
<!-- Node9&#45;&gt;Node5 -->
<g id="edge9" class="edge">
<title>Node9&#45;&gt;Node5</title>
<path fill="none" stroke="midnightblue" d="M424.55,-102.72C428.01,-89.56 433.17,-71.47 439,-56 443.87,-43.09 450.85,-28.74 455.41,-19.79"/>
<polygon fill="midnightblue" stroke="midnightblue" points="421.14,-101.9 422.06,-112.45 427.93,-103.63 421.14,-101.9"/>
</g>
<!-- Node10 -->
<g id="node10" class="node">
<title>Node10</title>
<g id="a_node10"><a xlink:href="uniform__ct__ops_8_h.html" target="_top" xlink:title=" ">
<polygon fill="white" stroke="black" points="448,-56.5 448,-75.5 550,-75.5 550,-56.5 448,-56.5"/>
<text text-anchor="middle" x="499" y="-63.5" font-family="Helvetica,sans-Serif" font-size="10.00">uniform_ct_ops.H</text>
</a>
</g>
</g>
<!-- Node9&#45;&gt;Node10 -->
<g id="edge10" class="edge">
<title>Node9&#45;&gt;Node10</title>
<path fill="none" stroke="midnightblue" d="M441.03,-106.62C455.47,-96.76 474.14,-83.99 486.34,-75.65"/>
<polygon fill="midnightblue" stroke="midnightblue" points="438.97,-103.79 432.69,-112.32 442.92,-109.57 438.97,-103.79"/>
</g>
<!-- Node10&#45;&gt;Node5 -->
<g id="edge11" class="edge">
<title>Node10&#45;&gt;Node5</title>
<path fill="none" stroke="midnightblue" d="M486.62,-47.86C479.86,-38.5 471.79,-27.33 466.32,-19.75"/>
<polygon fill="midnightblue" stroke="midnightblue" points="483.87,-50.03 492.56,-56.08 489.54,-45.93 483.87,-50.03"/>
</g>
<!-- Node11 -->
<g id="node11" class="node">
<title>Node11</title>
<g id="a_node11"><a xlink:href="uniform__ct__ops_8cpp.html" target="_top" xlink:title=" ">
<polygon fill="white" stroke="black" points="528,-0.5 528,-19.5 640,-19.5 640,-0.5 528,-0.5"/>
<text text-anchor="middle" x="584" y="-7.5" font-family="Helvetica,sans-Serif" font-size="10.00">uniform_ct_ops.cpp</text>
</a>
</g>
</g>
<!-- Node10&#45;&gt;Node11 -->
<g id="edge12" class="edge">
<title>Node10&#45;&gt;Node11</title>
<path fill="none" stroke="midnightblue" d="M521.19,-50.9C536.78,-41 557.13,-28.07 570.38,-19.65"/>
<polygon fill="midnightblue" stroke="midnightblue" points="519.22,-48.01 512.66,-56.32 522.97,-53.92 519.22,-48.01"/>
</g>
</g>
</svg>
