<?xml version="1.0" encoding="UTF-8" standalone="no"?>
<!DOCTYPE svg PUBLIC "-//W3C//DTD SVG 1.1//EN"
 "http://www.w3.org/Graphics/SVG/1.1/DTD/svg11.dtd">
<!-- Generated by graphviz version 2.43.0 (0)
 -->
<!-- Title: disk_spreading.H Pages: 1 -->
<svg width="2248pt" height="274pt"
 viewBox="0.00 0.00 2247.66 274.00" xmlns="http://www.w3.org/2000/svg" xmlns:xlink="http://www.w3.org/1999/xlink">
<g id="graph0" class="graph" transform="scale(1 1) rotate(0) translate(4 270)">
<title>disk_spreading.H</title>
<polygon fill="white" stroke="transparent" points="-4,4 -4,-270 2243.66,-270 2243.66,4 -4,4"/>
<!-- Node1 -->
<g id="node1" class="node">
<title>Node1</title>
<g id="a_node1"><a xlink:title=" ">
<polygon fill="#bfbfbf" stroke="black" points="923.5,-246.5 923.5,-265.5 1024.5,-265.5 1024.5,-246.5 923.5,-246.5"/>
<text text-anchor="middle" x="974" y="-253.5" font-family="Helvetica,sans-Serif" font-size="10.00">disk_spreading.H</text>
</a>
</g>
</g>
<!-- Node2 -->
<g id="node2" class="node">
<title>Node2</title>
<g id="a_node2"><a xlink:href="actuator__utils_8_h.html" target="_top" xlink:title=" ">
<polygon fill="white" stroke="black" points="482,-179.5 482,-209.5 622,-209.5 622,-179.5 482,-179.5"/>
<text text-anchor="start" x="490" y="-197.5" font-family="Helvetica,sans-Serif" font-size="10.00">amr&#45;wind/wind_energy</text>
<text text-anchor="middle" x="552" y="-186.5" font-family="Helvetica,sans-Serif" font-size="10.00">/actuator/actuator_utils.H</text>
</a>
</g>
</g>
<!-- Node1&#45;&gt;Node2 -->
<g id="edge1" class="edge">
<title>Node1&#45;&gt;Node2</title>
<path fill="none" stroke="midnightblue" d="M923.1,-247.82C850.77,-237.63 717.56,-218.84 631.96,-206.77"/>
<polygon fill="midnightblue" stroke="midnightblue" points="632.42,-203.3 622.03,-205.37 631.44,-210.24 632.42,-203.3"/>
</g>
<!-- Node15 -->
<g id="node15" class="node">
<title>Node15</title>
<g id="a_node15"><a xlink:href="_field_repo_8_h.html" target="_top" xlink:title=" ">
<polygon fill="white" stroke="black" points="1470.5,-185 1470.5,-204 1619.5,-204 1619.5,-185 1470.5,-185"/>
<text text-anchor="middle" x="1545" y="-192" font-family="Helvetica,sans-Serif" font-size="10.00">amr&#45;wind/core/FieldRepo.H</text>
</a>
</g>
</g>
<!-- Node1&#45;&gt;Node15 -->
<g id="edge20" class="edge">
<title>Node1&#45;&gt;Node15</title>
<path fill="none" stroke="midnightblue" d="M1024.67,-249.72C1122.8,-239.49 1339.68,-216.9 1460.15,-204.34"/>
<polygon fill="midnightblue" stroke="midnightblue" points="1460.85,-207.79 1470.43,-203.27 1460.13,-200.83 1460.85,-207.79"/>
</g>
<!-- Node3 -->
<g id="node3" class="node">
<title>Node3</title>
<g id="a_node3"><a xlink:href="vector_8_h.html" target="_top" xlink:title=" ">
<polygon fill="white" stroke="black" points="136.5,-118 136.5,-137 281.5,-137 281.5,-118 136.5,-118"/>
<text text-anchor="middle" x="209" y="-125" font-family="Helvetica,sans-Serif" font-size="10.00">amr&#45;wind/core/vs/vector.H</text>
</a>
</g>
</g>
<!-- Node2&#45;&gt;Node3 -->
<g id="edge2" class="edge">
<title>Node2&#45;&gt;Node3</title>
<path fill="none" stroke="midnightblue" d="M481.76,-180.19C417.29,-167.97 323.06,-150.11 263.93,-138.91"/>
<polygon fill="midnightblue" stroke="midnightblue" points="264.51,-135.46 254.03,-137.03 263.21,-142.33 264.51,-135.46"/>
</g>
<!-- Node10 -->
<g id="node10" class="node">
<title>Node10</title>
<g id="a_node10"><a xlink:title=" ">
<polygon fill="white" stroke="#bfbfbf" points="467.5,-0.5 467.5,-19.5 514.5,-19.5 514.5,-0.5 467.5,-0.5"/>
<text text-anchor="middle" x="491" y="-7.5" font-family="Helvetica,sans-Serif" font-size="10.00">cmath</text>
</a>
</g>
</g>
<!-- Node2&#45;&gt;Node10 -->
<g id="edge18" class="edge">
<title>Node2&#45;&gt;Node10</title>
<path fill="none" stroke="midnightblue" d="M549.21,-179.48C545.8,-163.11 539.54,-135.29 532,-112 522.37,-82.26 508.09,-48.84 499.18,-28.88"/>
<polygon fill="midnightblue" stroke="midnightblue" points="502.37,-27.43 495.06,-19.76 495.99,-30.31 502.37,-27.43"/>
</g>
<!-- Node11 -->
<g id="node11" class="node">
<title>Node11</title>
<g id="a_node11"><a xlink:href="trig__ops_8_h.html" target="_top" xlink:title=" ">
<polygon fill="white" stroke="black" points="420.5,-112.5 420.5,-142.5 523.5,-142.5 523.5,-112.5 420.5,-112.5"/>
<text text-anchor="start" x="428.5" y="-130.5" font-family="Helvetica,sans-Serif" font-size="10.00">amr&#45;wind/utilities</text>
<text text-anchor="middle" x="472" y="-119.5" font-family="Helvetica,sans-Serif" font-size="10.00">/trig_ops.H</text>
</a>
</g>
</g>
<!-- Node2&#45;&gt;Node11 -->
<g id="edge11" class="edge">
<title>Node2&#45;&gt;Node11</title>
<path fill="none" stroke="midnightblue" d="M534.64,-179.4C523.74,-170.54 509.49,-158.96 497.34,-149.09"/>
<polygon fill="midnightblue" stroke="midnightblue" points="499.29,-146.17 489.32,-142.58 494.88,-151.6 499.29,-146.17"/>
</g>
<!-- Node12 -->
<g id="node12" class="node">
<title>Node12</title>
<g id="a_node12"><a xlink:title=" ">
<polygon fill="white" stroke="#bfbfbf" points="630,-118 630,-137 740,-137 740,-118 630,-118"/>
<text text-anchor="middle" x="685" y="-125" font-family="Helvetica,sans-Serif" font-size="10.00">AMReX_AmrCore.H</text>
</a>
</g>
</g>
<!-- Node2&#45;&gt;Node12 -->
<g id="edge15" class="edge">
<title>Node2&#45;&gt;Node12</title>
<path fill="none" stroke="midnightblue" d="M580.86,-179.4C603.89,-168.14 635.89,-152.5 658.32,-141.54"/>
<polygon fill="midnightblue" stroke="midnightblue" points="660.15,-144.54 667.59,-137.01 657.07,-138.25 660.15,-144.54"/>
</g>
<!-- Node13 -->
<g id="node13" class="node">
<title>Node13</title>
<g id="a_node13"><a xlink:href="tensor__ops_8_h.html" target="_top" xlink:title=" ">
<polygon fill="white" stroke="black" points="299.5,-112.5 299.5,-142.5 402.5,-142.5 402.5,-112.5 299.5,-112.5"/>
<text text-anchor="start" x="307.5" y="-130.5" font-family="Helvetica,sans-Serif" font-size="10.00">amr&#45;wind/utilities</text>
<text text-anchor="middle" x="351" y="-119.5" font-family="Helvetica,sans-Serif" font-size="10.00">/tensor_ops.H</text>
</a>
</g>
</g>
<!-- Node2&#45;&gt;Node13 -->
<g id="edge16" class="edge">
<title>Node2&#45;&gt;Node13</title>
<path fill="none" stroke="midnightblue" d="M508.39,-179.4C477.83,-169.52 436.82,-156.25 404.32,-145.74"/>
<polygon fill="midnightblue" stroke="midnightblue" points="405.12,-142.32 394.53,-142.58 402.97,-148.98 405.12,-142.32"/>
</g>
<!-- Node14 -->
<g id="node14" class="node">
<title>Node14</title>
<g id="a_node14"><a xlink:title=" ">
<polygon fill="white" stroke="#bfbfbf" points="580,-118 580,-137 612,-137 612,-118 580,-118"/>
<text text-anchor="middle" x="596" y="-125" font-family="Helvetica,sans-Serif" font-size="10.00">set</text>
</a>
</g>
</g>
<!-- Node2&#45;&gt;Node14 -->
<g id="edge19" class="edge">
<title>Node2&#45;&gt;Node14</title>
<path fill="none" stroke="midnightblue" d="M561.55,-179.4C568.27,-169.46 577.31,-156.11 584.44,-145.57"/>
<polygon fill="midnightblue" stroke="midnightblue" points="587.41,-147.44 590.11,-137.19 581.61,-143.51 587.41,-147.44"/>
</g>
<!-- Node4 -->
<g id="node4" class="node">
<title>Node4</title>
<g id="a_node4"><a xlink:title=" ">
<polygon fill="white" stroke="#bfbfbf" points="337.5,-56.5 337.5,-75.5 424.5,-75.5 424.5,-56.5 337.5,-56.5"/>
<text text-anchor="middle" x="381" y="-63.5" font-family="Helvetica,sans-Serif" font-size="10.00">AMReX_Gpu.H</text>
</a>
</g>
</g>
<!-- Node3&#45;&gt;Node4 -->
<g id="edge3" class="edge">
<title>Node3&#45;&gt;Node4</title>
<path fill="none" stroke="midnightblue" d="M233.64,-117.98C263.28,-107.72 313.18,-90.46 346.6,-78.9"/>
<polygon fill="midnightblue" stroke="midnightblue" points="348.1,-82.09 356.4,-75.51 345.81,-75.47 348.1,-82.09"/>
</g>
<!-- Node5 -->
<g id="node5" class="node">
<title>Node5</title>
<g id="a_node5"><a xlink:href="vstraits_8_h.html" target="_top" xlink:title=" ">
<polygon fill="white" stroke="black" points="0,-56.5 0,-75.5 152,-75.5 152,-56.5 0,-56.5"/>
<text text-anchor="middle" x="76" y="-63.5" font-family="Helvetica,sans-Serif" font-size="10.00">amr&#45;wind/core/vs/vstraits.H</text>
</a>
</g>
</g>
<!-- Node3&#45;&gt;Node5 -->
<g id="edge4" class="edge">
<title>Node3&#45;&gt;Node5</title>
<path fill="none" stroke="midnightblue" d="M189.94,-117.98C167.53,-107.95 130.09,-91.2 104.29,-79.65"/>
<polygon fill="midnightblue" stroke="midnightblue" points="105.58,-76.4 95.02,-75.51 102.72,-82.79 105.58,-76.4"/>
</g>
<!-- Node8 -->
<g id="node8" class="node">
<title>Node8</title>
<g id="a_node8"><a xlink:href="vector_i_8_h.html" target="_top" xlink:title=" ">
<polygon fill="white" stroke="black" points="170.5,-56.5 170.5,-75.5 319.5,-75.5 319.5,-56.5 170.5,-56.5"/>
<text text-anchor="middle" x="245" y="-63.5" font-family="Helvetica,sans-Serif" font-size="10.00">amr&#45;wind/core/vs/vectorI.H</text>
</a>
</g>
</g>
<!-- Node3&#45;&gt;Node8 -->
<g id="edge7" class="edge">
<title>Node3&#45;&gt;Node8</title>
<path fill="none" stroke="midnightblue" d="M209.26,-117.98C212.71,-109.05 220.92,-94.81 228.8,-83.64"/>
<polygon fill="midnightblue" stroke="midnightblue" points="231.71,-85.6 234.95,-75.51 226.13,-81.37 231.71,-85.6"/>
</g>
<!-- Node6 -->
<g id="node6" class="node">
<title>Node6</title>
<g id="a_node6"><a xlink:title=" ">
<polygon fill="white" stroke="#bfbfbf" points="54,-0.5 54,-19.5 98,-19.5 98,-0.5 54,-0.5"/>
<text text-anchor="middle" x="76" y="-7.5" font-family="Helvetica,sans-Serif" font-size="10.00">limits</text>
</a>
</g>
</g>
<!-- Node5&#45;&gt;Node6 -->
<g id="edge5" class="edge">
<title>Node5&#45;&gt;Node6</title>
<path fill="none" stroke="midnightblue" d="M76,-56.08C76,-49.01 76,-38.86 76,-29.99"/>
<polygon fill="midnightblue" stroke="midnightblue" points="79.5,-29.75 76,-19.75 72.5,-29.75 79.5,-29.75"/>
</g>
<!-- Node7 -->
<g id="node7" class="node">
<title>Node7</title>
<g id="a_node7"><a xlink:title=" ">
<polygon fill="white" stroke="#bfbfbf" points="325,-0.5 325,-19.5 417,-19.5 417,-0.5 325,-0.5"/>
<text text-anchor="middle" x="371" y="-7.5" font-family="Helvetica,sans-Serif" font-size="10.00">AMReX_REAL.H</text>
</a>
</g>
</g>
<!-- Node5&#45;&gt;Node7 -->
<g id="edge6" class="edge">
<title>Node5&#45;&gt;Node7</title>
<path fill="none" stroke="midnightblue" d="M122.74,-56.44C174.9,-46.9 259.25,-31.46 314.91,-21.27"/>
<polygon fill="midnightblue" stroke="midnightblue" points="315.75,-24.67 324.96,-19.43 314.49,-17.79 315.75,-24.67"/>
</g>
<!-- Node8&#45;&gt;Node3 -->
<g id="edge10" class="edge">
<title>Node8&#45;&gt;Node3</title>
<path fill="none" stroke="midnightblue" d="M244.75,-75.51C241.3,-84.43 233.1,-98.67 225.21,-109.84"/>
<polygon fill="midnightblue" stroke="midnightblue" points="222.3,-107.89 219.06,-117.98 227.88,-112.11 222.3,-107.89"/>
</g>
<!-- Node9 -->
<g id="node9" class="node">
<title>Node9</title>
<g id="a_node9"><a xlink:title=" ">
<polygon fill="white" stroke="#bfbfbf" points="216.5,-0.5 216.5,-19.5 273.5,-19.5 273.5,-0.5 216.5,-0.5"/>
<text text-anchor="middle" x="245" y="-7.5" font-family="Helvetica,sans-Serif" font-size="10.00">ostream</text>
</a>
</g>
</g>
<!-- Node8&#45;&gt;Node9 -->
<g id="edge8" class="edge">
<title>Node8&#45;&gt;Node9</title>
<path fill="none" stroke="midnightblue" d="M245,-56.08C245,-49.01 245,-38.86 245,-29.99"/>
<polygon fill="midnightblue" stroke="midnightblue" points="248.5,-29.75 245,-19.75 241.5,-29.75 248.5,-29.75"/>
</g>
<!-- Node8&#45;&gt;Node10 -->
<g id="edge9" class="edge">
<title>Node8&#45;&gt;Node10</title>
<path fill="none" stroke="midnightblue" d="M283.98,-56.44C331.87,-45.93 412.3,-28.28 457.52,-18.35"/>
<polygon fill="midnightblue" stroke="midnightblue" points="458.4,-21.74 467.42,-16.18 456.9,-14.9 458.4,-21.74"/>
</g>
<!-- Node11&#45;&gt;Node4 -->
<g id="edge14" class="edge">
<title>Node11&#45;&gt;Node4</title>
<path fill="none" stroke="midnightblue" d="M450.43,-112.4C436.12,-103.04 417.39,-90.79 402.99,-81.38"/>
<polygon fill="midnightblue" stroke="midnightblue" points="404.53,-78.2 394.24,-75.66 400.7,-84.06 404.53,-78.2"/>
</g>
<!-- Node11&#45;&gt;Node7 -->
<g id="edge13" class="edge">
<title>Node11&#45;&gt;Node7</title>
<path fill="none" stroke="midnightblue" d="M466.4,-112.39C459.93,-97.28 448.2,-73.18 433,-56 422.15,-43.73 407.4,-32.86 395,-24.87"/>
<polygon fill="midnightblue" stroke="midnightblue" points="396.83,-21.89 386.49,-19.59 393.14,-27.83 396.83,-21.89"/>
</g>
<!-- Node11&#45;&gt;Node10 -->
<g id="edge12" class="edge">
<title>Node11&#45;&gt;Node10</title>
<path fill="none" stroke="midnightblue" d="M474.33,-112.34C477.75,-91.53 484.15,-52.66 487.94,-29.58"/>
<polygon fill="midnightblue" stroke="midnightblue" points="491.4,-30.1 489.57,-19.67 484.5,-28.97 491.4,-30.1"/>
</g>
<!-- Node13&#45;&gt;Node4 -->
<g id="edge17" class="edge">
<title>Node13&#45;&gt;Node4</title>
<path fill="none" stroke="midnightblue" d="M358.11,-112.4C362.29,-104.11 367.61,-93.55 372.07,-84.71"/>
<polygon fill="midnightblue" stroke="midnightblue" points="375.26,-86.16 376.63,-75.66 369.01,-83.01 375.26,-86.16"/>
</g>
<!-- Node15&#45;&gt;Node12 -->
<g id="edge54" class="edge">
<title>Node15&#45;&gt;Node12</title>
<path fill="none" stroke="midnightblue" d="M1470.49,-192.3C1329.83,-189.24 1015.78,-178.68 754,-143 746.41,-141.97 738.41,-140.57 730.65,-139.05"/>
<polygon fill="midnightblue" stroke="midnightblue" points="731.14,-135.58 720.64,-137.01 729.74,-142.44 731.14,-135.58"/>
</g>
<!-- Node16 -->
<g id="node16" class="node">
<title>Node16</title>
<g id="a_node16"><a xlink:title=" ">
<polygon fill="white" stroke="#bfbfbf" points="1839,-0.5 1839,-19.5 1883,-19.5 1883,-0.5 1839,-0.5"/>
<text text-anchor="middle" x="1861" y="-7.5" font-family="Helvetica,sans-Serif" font-size="10.00">string</text>
</a>
</g>
</g>
<!-- Node15&#45;&gt;Node16 -->
<g id="edge21" class="edge">
<title>Node15&#45;&gt;Node16</title>
<path fill="none" stroke="midnightblue" d="M1619.71,-191.02C1777.95,-185.28 2136.42,-169.51 2185,-143 2217.85,-125.08 2224.04,-111.46 2236,-76 2238.84,-67.58 2241.9,-62.65 2236,-56 2213.36,-30.49 1979.8,-16.72 1893.13,-12.46"/>
<polygon fill="midnightblue" stroke="midnightblue" points="1893.24,-8.96 1883.08,-11.97 1892.9,-15.95 1893.24,-8.96"/>
</g>
<!-- Node17 -->
<g id="node17" class="node">
<title>Node17</title>
<g id="a_node17"><a xlink:title=" ">
<polygon fill="white" stroke="#bfbfbf" points="1889.5,-56.5 1889.5,-75.5 1982.5,-75.5 1982.5,-56.5 1889.5,-56.5"/>
<text text-anchor="middle" x="1936" y="-63.5" font-family="Helvetica,sans-Serif" font-size="10.00">unordered_map</text>
</a>
</g>
</g>
<!-- Node15&#45;&gt;Node17 -->
<g id="edge22" class="edge">
<title>Node15&#45;&gt;Node17</title>
<path fill="none" stroke="midnightblue" d="M1571.57,-184.9C1639.92,-162.79 1821.92,-103.91 1899.81,-78.71"/>
<polygon fill="midnightblue" stroke="midnightblue" points="1901.22,-81.93 1909.65,-75.52 1899.06,-75.27 1901.22,-81.93"/>
</g>
<!-- Node18 -->
<g id="node18" class="node">
<title>Node18</title>
<g id="a_node18"><a xlink:href="_field_desc_types_8_h.html" target="_top" xlink:title=" ">
<polygon fill="white" stroke="black" points="1279,-0.5 1279,-19.5 1455,-19.5 1455,-0.5 1279,-0.5"/>
<text text-anchor="middle" x="1367" y="-7.5" font-family="Helvetica,sans-Serif" font-size="10.00">amr&#45;wind/core/FieldDescTypes.H</text>
</a>
</g>
</g>
<!-- Node15&#45;&gt;Node18 -->
<g id="edge23" class="edge">
<title>Node15&#45;&gt;Node18</title>
<path fill="none" stroke="midnightblue" d="M1609.03,-184.99C1745.27,-165.61 2047.14,-115.25 1992,-56 1956.93,-18.32 1632.12,-11.76 1465.14,-10.9"/>
<polygon fill="midnightblue" stroke="midnightblue" points="1465.13,-7.4 1455.11,-10.85 1465.09,-14.4 1465.13,-7.4"/>
</g>
<!-- Node19 -->
<g id="node19" class="node">
<title>Node19</title>
<g id="a_node19"><a xlink:href="_field_utils_8_h.html" target="_top" xlink:title=" ">
<polygon fill="white" stroke="black" points="707,-56.5 707,-75.5 853,-75.5 853,-56.5 707,-56.5"/>
<text text-anchor="middle" x="780" y="-63.5" font-family="Helvetica,sans-Serif" font-size="10.00">amr&#45;wind/core/FieldUtils.H</text>
</a>
</g>
</g>
<!-- Node15&#45;&gt;Node19 -->
<g id="edge24" class="edge">
<title>Node15&#45;&gt;Node19</title>
<path fill="none" stroke="midnightblue" d="M1470.07,-191.35C1367.21,-187.25 1176.92,-175.6 1018,-143 941.96,-127.4 855.92,-96.47 811.03,-79.27"/>
<polygon fill="midnightblue" stroke="midnightblue" points="812.16,-75.95 801.57,-75.61 809.63,-82.48 812.16,-75.95"/>
</g>
<!-- Node20 -->
<g id="node20" class="node">
<title>Node20</title>
<g id="a_node20"><a xlink:title=" ">
<polygon fill="white" stroke="#bfbfbf" points="1014.5,-0.5 1014.5,-19.5 1123.5,-19.5 1123.5,-0.5 1014.5,-0.5"/>
<text text-anchor="middle" x="1069" y="-7.5" font-family="Helvetica,sans-Serif" font-size="10.00">AMReX_MultiFab.H</text>
</a>
</g>
</g>
<!-- Node15&#45;&gt;Node20 -->
<g id="edge55" class="edge">
<title>Node15&#45;&gt;Node20</title>
<path fill="none" stroke="midnightblue" d="M1470.44,-193.39C1349.8,-191.94 1104.84,-183.66 902,-143 855.22,-133.62 725.99,-114.65 698,-76 692.79,-68.8 692.11,-62.65 698,-56 717.92,-33.52 903.07,-20.02 1004.04,-14.27"/>
<polygon fill="midnightblue" stroke="midnightblue" points="1004.35,-17.76 1014.14,-13.7 1003.96,-10.77 1004.35,-17.76"/>
</g>
<!-- Node22 -->
<g id="node22" class="node">
<title>Node22</title>
<g id="a_node22"><a xlink:href="_field_8_h.html" target="_top" xlink:title=" ">
<polygon fill="white" stroke="black" points="1483,-118 1483,-137 1607,-137 1607,-118 1483,-118"/>
<text text-anchor="middle" x="1545" y="-125" font-family="Helvetica,sans-Serif" font-size="10.00">amr&#45;wind/core/Field.H</text>
</a>
</g>
</g>
<!-- Node15&#45;&gt;Node22 -->
<g id="edge28" class="edge">
<title>Node15&#45;&gt;Node22</title>
<path fill="none" stroke="midnightblue" d="M1545,-184.73C1545,-175.18 1545,-159.62 1545,-147.28"/>
<polygon fill="midnightblue" stroke="midnightblue" points="1548.5,-147.13 1545,-137.13 1541.5,-147.13 1548.5,-147.13"/>
</g>
<!-- Node29 -->
<g id="node29" class="node">
<title>Node29</title>
<g id="a_node29"><a xlink:href="_int_field_8_h.html" target="_top" xlink:title=" ">
<polygon fill="white" stroke="black" points="2018.5,-118 2018.5,-137 2155.5,-137 2155.5,-118 2018.5,-118"/>
<text text-anchor="middle" x="2087" y="-125" font-family="Helvetica,sans-Serif" font-size="10.00">amr&#45;wind/core/IntField.H</text>
</a>
</g>
</g>
<!-- Node15&#45;&gt;Node29 -->
<g id="edge43" class="edge">
<title>Node15&#45;&gt;Node29</title>
<path fill="none" stroke="midnightblue" d="M1619.51,-186.77C1710.47,-178.21 1868.87,-162.22 2004,-143 2012.73,-141.76 2021.96,-140.3 2030.96,-138.79"/>
<polygon fill="midnightblue" stroke="midnightblue" points="2031.72,-142.21 2040.99,-137.07 2030.54,-135.31 2031.72,-142.21"/>
</g>
<!-- Node30 -->
<g id="node30" class="node">
<title>Node30</title>
<g id="a_node30"><a xlink:title=" ">
<polygon fill="white" stroke="#bfbfbf" points="2115,-56.5 2115,-75.5 2227,-75.5 2227,-56.5 2115,-56.5"/>
<text text-anchor="middle" x="2171" y="-63.5" font-family="Helvetica,sans-Serif" font-size="10.00">AMReX_iMultiFab.H</text>
</a>
</g>
</g>
<!-- Node15&#45;&gt;Node30 -->
<g id="edge56" class="edge">
<title>Node15&#45;&gt;Node30</title>
<path fill="none" stroke="midnightblue" d="M1619.65,-192.74C1776.12,-190.38 2127.2,-180.9 2165,-143 2179.72,-128.24 2178.6,-102.88 2175.56,-85.54"/>
<polygon fill="midnightblue" stroke="midnightblue" points="2178.93,-84.56 2173.43,-75.5 2172.08,-86.01 2178.93,-84.56"/>
</g>
<!-- Node31 -->
<g id="node31" class="node">
<title>Node31</title>
<g id="a_node31"><a xlink:href="_scratch_field_8_h.html" target="_top" xlink:title=" ">
<polygon fill="white" stroke="black" points="1027,-118 1027,-137 1187,-137 1187,-118 1027,-118"/>
<text text-anchor="middle" x="1107" y="-125" font-family="Helvetica,sans-Serif" font-size="10.00">amr&#45;wind/core/ScratchField.H</text>
</a>
</g>
</g>
<!-- Node15&#45;&gt;Node31 -->
<g id="edge47" class="edge">
<title>Node15&#45;&gt;Node31</title>
<path fill="none" stroke="midnightblue" d="M1487.29,-184.94C1406.59,-172.96 1260.34,-151.26 1174.63,-138.54"/>
<polygon fill="midnightblue" stroke="midnightblue" points="1174.9,-135.04 1164.49,-137.03 1173.87,-141.96 1174.9,-135.04"/>
</g>
<!-- Node19&#45;&gt;Node18 -->
<g id="edge25" class="edge">
<title>Node19&#45;&gt;Node18</title>
<path fill="none" stroke="midnightblue" d="M853.16,-58.27C957.98,-48.63 1151.16,-30.86 1268.47,-20.06"/>
<polygon fill="midnightblue" stroke="midnightblue" points="1268.89,-23.54 1278.53,-19.14 1268.25,-16.57 1268.89,-23.54"/>
</g>
<!-- Node19&#45;&gt;Node20 -->
<g id="edge26" class="edge">
<title>Node19&#45;&gt;Node20</title>
<path fill="none" stroke="midnightblue" d="M825.79,-56.44C876.74,-46.92 959.03,-31.55 1013.57,-21.36"/>
<polygon fill="midnightblue" stroke="midnightblue" points="1014.23,-24.79 1023.42,-19.52 1012.95,-17.91 1014.23,-24.79"/>
</g>
<!-- Node21 -->
<g id="node21" class="node">
<title>Node21</title>
<g id="a_node21"><a xlink:title=" ">
<polygon fill="white" stroke="#bfbfbf" points="718,-0.5 718,-19.5 842,-19.5 842,-0.5 718,-0.5"/>
<text text-anchor="middle" x="780" y="-7.5" font-family="Helvetica,sans-Serif" font-size="10.00">AMReX_Interpolater.H</text>
</a>
</g>
</g>
<!-- Node19&#45;&gt;Node21 -->
<g id="edge27" class="edge">
<title>Node19&#45;&gt;Node21</title>
<path fill="none" stroke="midnightblue" d="M780,-56.08C780,-49.01 780,-38.86 780,-29.99"/>
<polygon fill="midnightblue" stroke="midnightblue" points="783.5,-29.75 780,-19.75 776.5,-29.75 783.5,-29.75"/>
</g>
<!-- Node22&#45;&gt;Node4 -->
<g id="edge35" class="edge">
<title>Node22&#45;&gt;Node4</title>
<path fill="none" stroke="midnightblue" d="M1482.83,-123.32C1278.01,-112.85 626.6,-79.55 434.69,-69.74"/>
<polygon fill="midnightblue" stroke="midnightblue" points="434.74,-66.24 424.57,-69.23 434.38,-73.23 434.74,-66.24"/>
</g>
<!-- Node22&#45;&gt;Node16 -->
<g id="edge29" class="edge">
<title>Node22&#45;&gt;Node16</title>
<path fill="none" stroke="midnightblue" d="M1607.15,-123.42C1683.5,-118.39 1807.07,-105.8 1841,-76 1854.15,-64.45 1858.78,-44.49 1860.34,-29.72"/>
<polygon fill="midnightblue" stroke="midnightblue" points="1863.84,-29.89 1861.03,-19.67 1856.86,-29.41 1863.84,-29.89"/>
</g>
<!-- Node22&#45;&gt;Node17 -->
<g id="edge31" class="edge">
<title>Node22&#45;&gt;Node17</title>
<path fill="none" stroke="midnightblue" d="M1601.02,-117.98C1675.04,-106.71 1804.71,-86.98 1879.14,-75.65"/>
<polygon fill="midnightblue" stroke="midnightblue" points="1879.9,-79.08 1889.26,-74.11 1878.85,-72.16 1879.9,-79.08"/>
</g>
<!-- Node22&#45;&gt;Node18 -->
<g id="edge37" class="edge">
<title>Node22&#45;&gt;Node18</title>
<path fill="none" stroke="midnightblue" d="M1498.47,-117.93C1469.39,-110.7 1432.55,-97.88 1406,-76 1390.97,-63.61 1380.28,-43.8 1373.93,-29.31"/>
<polygon fill="midnightblue" stroke="midnightblue" points="1377.1,-27.81 1370.09,-19.88 1370.62,-30.46 1377.1,-27.81"/>
</g>
<!-- Node22&#45;&gt;Node20 -->
<g id="edge33" class="edge">
<title>Node22&#45;&gt;Node20</title>
<path fill="none" stroke="midnightblue" d="M1482.8,-127.01C1405.53,-125.69 1270.86,-116.94 1164,-76 1134.01,-64.51 1104.24,-41.83 1086.23,-26.54"/>
<polygon fill="midnightblue" stroke="midnightblue" points="1088.22,-23.63 1078.38,-19.71 1083.62,-28.91 1088.22,-23.63"/>
</g>
<!-- Node23 -->
<g id="node23" class="node">
<title>Node23</title>
<g id="a_node23"><a xlink:title=" ">
<polygon fill="white" stroke="#bfbfbf" points="1575,-56.5 1575,-75.5 1633,-75.5 1633,-56.5 1575,-56.5"/>
<text text-anchor="middle" x="1604" y="-63.5" font-family="Helvetica,sans-Serif" font-size="10.00">memory</text>
</a>
</g>
</g>
<!-- Node22&#45;&gt;Node23 -->
<g id="edge30" class="edge">
<title>Node22&#45;&gt;Node23</title>
<path fill="none" stroke="midnightblue" d="M1553.45,-117.98C1562.57,-108.78 1577.27,-93.96 1588.48,-82.66"/>
<polygon fill="midnightblue" stroke="midnightblue" points="1591.01,-85.07 1595.56,-75.51 1586.04,-80.15 1591.01,-85.07"/>
</g>
<!-- Node24 -->
<g id="node24" class="node">
<title>Node24</title>
<g id="a_node24"><a xlink:title=" ">
<polygon fill="white" stroke="#bfbfbf" points="1651,-56.5 1651,-75.5 1715,-75.5 1715,-56.5 1651,-56.5"/>
<text text-anchor="middle" x="1683" y="-63.5" font-family="Helvetica,sans-Serif" font-size="10.00">algorithm</text>
</a>
</g>
</g>
<!-- Node22&#45;&gt;Node24 -->
<g id="edge32" class="edge">
<title>Node22&#45;&gt;Node24</title>
<path fill="none" stroke="midnightblue" d="M1564.77,-117.98C1588.14,-107.9 1627.21,-91.05 1654,-79.5"/>
<polygon fill="midnightblue" stroke="midnightblue" points="1655.47,-82.68 1663.26,-75.51 1652.7,-76.25 1655.47,-82.68"/>
</g>
<!-- Node25 -->
<g id="node25" class="node">
<title>Node25</title>
<g id="a_node25"><a xlink:title=" ">
<polygon fill="white" stroke="#bfbfbf" points="1733.5,-56.5 1733.5,-75.5 1832.5,-75.5 1832.5,-56.5 1733.5,-56.5"/>
<text text-anchor="middle" x="1783" y="-63.5" font-family="Helvetica,sans-Serif" font-size="10.00">AMReX_BCRec.H</text>
</a>
</g>
</g>
<!-- Node22&#45;&gt;Node25 -->
<g id="edge34" class="edge">
<title>Node22&#45;&gt;Node25</title>
<path fill="none" stroke="midnightblue" d="M1579.1,-117.98C1621.25,-107.44 1693.05,-89.49 1739.23,-77.94"/>
<polygon fill="midnightblue" stroke="midnightblue" points="1740.11,-81.33 1748.96,-75.51 1738.41,-74.54 1740.11,-81.33"/>
</g>
<!-- Node26 -->
<g id="node26" class="node">
<title>Node26</title>
<g id="a_node26"><a xlink:href="incflo__enums_8_h.html" target="_top" xlink:title=" ">
<polygon fill="white" stroke="black" points="1415.5,-56.5 1415.5,-75.5 1556.5,-75.5 1556.5,-56.5 1415.5,-56.5"/>
<text text-anchor="middle" x="1486" y="-63.5" font-family="Helvetica,sans-Serif" font-size="10.00">amr&#45;wind/incflo_enums.H</text>
</a>
</g>
</g>
<!-- Node22&#45;&gt;Node26 -->
<g id="edge36" class="edge">
<title>Node22&#45;&gt;Node26</title>
<path fill="none" stroke="midnightblue" d="M1536.55,-117.98C1527.43,-108.78 1512.73,-93.96 1501.52,-82.66"/>
<polygon fill="midnightblue" stroke="midnightblue" points="1503.96,-80.15 1494.44,-75.51 1498.99,-85.07 1503.96,-80.15"/>
</g>
<!-- Node27 -->
<g id="node27" class="node">
<title>Node27</title>
<g id="a_node27"><a xlink:href="_view_field_8_h.html" target="_top" xlink:title=" ">
<polygon fill="white" stroke="black" points="1173,-56.5 1173,-75.5 1321,-75.5 1321,-56.5 1173,-56.5"/>
<text text-anchor="middle" x="1247" y="-63.5" font-family="Helvetica,sans-Serif" font-size="10.00">amr&#45;wind/core/ViewField.H</text>
</a>
</g>
</g>
<!-- Node22&#45;&gt;Node27 -->
<g id="edge38" class="edge">
<title>Node22&#45;&gt;Node27</title>
<path fill="none" stroke="midnightblue" d="M1502.3,-117.98C1448.86,-107.3 1357.35,-89.03 1299.63,-77.51"/>
<polygon fill="midnightblue" stroke="midnightblue" points="1300.11,-74.03 1289.62,-75.51 1298.74,-80.9 1300.11,-74.03"/>
</g>
<!-- Node27&#45;&gt;Node16 -->
<g id="edge39" class="edge">
<title>Node27&#45;&gt;Node16</title>
<path fill="none" stroke="midnightblue" d="M1321.41,-57.3C1326.01,-56.85 1330.57,-56.42 1335,-56 1521.89,-38.45 1746.4,-20.18 1828.73,-13.57"/>
<polygon fill="midnightblue" stroke="midnightblue" points="1829.25,-17.04 1838.94,-12.76 1828.69,-10.07 1829.25,-17.04"/>
</g>
<!-- Node27&#45;&gt;Node18 -->
<g id="edge40" class="edge">
<title>Node27&#45;&gt;Node18</title>
<path fill="none" stroke="midnightblue" d="M1266.01,-56.44C1285.59,-47.64 1316.31,-33.81 1338.73,-23.72"/>
<polygon fill="midnightblue" stroke="midnightblue" points="1340.39,-26.81 1348.07,-19.52 1337.52,-20.43 1340.39,-26.81"/>
</g>
<!-- Node27&#45;&gt;Node20 -->
<g id="edge41" class="edge">
<title>Node27&#45;&gt;Node20</title>
<path fill="none" stroke="midnightblue" d="M1218.8,-56.44C1188.59,-47.28 1140.49,-32.69 1106.97,-22.52"/>
<polygon fill="midnightblue" stroke="midnightblue" points="1107.66,-19.07 1097.07,-19.52 1105.63,-25.77 1107.66,-19.07"/>
</g>
<!-- Node28 -->
<g id="node28" class="node">
<title>Node28</title>
<g id="a_node28"><a xlink:title=" ">
<polygon fill="white" stroke="#bfbfbf" points="1153,-0.5 1153,-19.5 1251,-19.5 1251,-0.5 1153,-0.5"/>
<text text-anchor="middle" x="1202" y="-7.5" font-family="Helvetica,sans-Serif" font-size="10.00">AMReX_Vector.H</text>
</a>
</g>
</g>
<!-- Node27&#45;&gt;Node28 -->
<g id="edge42" class="edge">
<title>Node27&#45;&gt;Node28</title>
<path fill="none" stroke="midnightblue" d="M1239.57,-56.08C1233.15,-48.38 1223.69,-37.03 1215.88,-27.65"/>
<polygon fill="midnightblue" stroke="midnightblue" points="1218.38,-25.19 1209.29,-19.75 1213.01,-29.67 1218.38,-25.19"/>
</g>
<!-- Node29&#45;&gt;Node16 -->
<g id="edge44" class="edge">
<title>Node29&#45;&gt;Node16</title>
<path fill="none" stroke="midnightblue" d="M2086.65,-117.65C2085.56,-102.64 2081.1,-72.23 2063,-56 2038.28,-33.83 1943.94,-20.22 1893.41,-14.36"/>
<polygon fill="midnightblue" stroke="midnightblue" points="1893.66,-10.86 1883.33,-13.23 1892.88,-17.82 1893.66,-10.86"/>
</g>
<!-- Node29&#45;&gt;Node18 -->
<g id="edge45" class="edge">
<title>Node29&#45;&gt;Node18</title>
<path fill="none" stroke="midnightblue" d="M2082.44,-117.84C2073.69,-102.25 2052.91,-69.79 2025,-56 1976.15,-31.87 1636.21,-18.74 1465.03,-13.6"/>
<polygon fill="midnightblue" stroke="midnightblue" points="1465.1,-10.1 1455.01,-13.3 1464.9,-17.1 1465.1,-10.1"/>
</g>
<!-- Node29&#45;&gt;Node30 -->
<g id="edge46" class="edge">
<title>Node29&#45;&gt;Node30</title>
<path fill="none" stroke="midnightblue" d="M2099.04,-117.98C2112.51,-108.43 2134.57,-92.81 2150.72,-81.37"/>
<polygon fill="midnightblue" stroke="midnightblue" points="2152.85,-84.15 2158.99,-75.51 2148.8,-78.43 2152.85,-84.15"/>
</g>
<!-- Node31&#45;&gt;Node16 -->
<g id="edge48" class="edge">
<title>Node31&#45;&gt;Node16</title>
<path fill="none" stroke="midnightblue" d="M1146.57,-117.97C1191.23,-108.25 1265.99,-91.66 1330,-76 1363.93,-67.7 1371.62,-62.18 1406,-56 1562.74,-27.81 1753.27,-16.17 1828.35,-12.45"/>
<polygon fill="midnightblue" stroke="midnightblue" points="1828.75,-15.93 1838.57,-11.96 1828.42,-8.94 1828.75,-15.93"/>
</g>
<!-- Node31&#45;&gt;Node18 -->
<g id="edge49" class="edge">
<title>Node31&#45;&gt;Node18</title>
<path fill="none" stroke="midnightblue" d="M1111.34,-118C1119.49,-102.95 1138.58,-71.75 1164,-56 1195.21,-36.67 1233.67,-25.59 1268.68,-19.27"/>
<polygon fill="midnightblue" stroke="midnightblue" points="1269.67,-22.65 1278.94,-17.53 1268.5,-15.75 1269.67,-22.65"/>
</g>
<!-- Node31&#45;&gt;Node20 -->
<g id="edge51" class="edge">
<title>Node31&#45;&gt;Node20</title>
<path fill="none" stroke="midnightblue" d="M1104.14,-117.82C1097.98,-99.09 1083.33,-54.55 1075.02,-29.29"/>
<polygon fill="midnightblue" stroke="midnightblue" points="1078.34,-28.19 1071.89,-19.78 1071.69,-30.37 1078.34,-28.19"/>
</g>
<!-- Node31&#45;&gt;Node27 -->
<g id="edge50" class="edge">
<title>Node31&#45;&gt;Node27</title>
<path fill="none" stroke="midnightblue" d="M1127.06,-117.98C1150.76,-107.9 1190.41,-91.05 1217.58,-79.5"/>
<polygon fill="midnightblue" stroke="midnightblue" points="1219.14,-82.64 1226.98,-75.51 1216.41,-76.2 1219.14,-82.64"/>
</g>
<!-- Node31&#45;&gt;Node28 -->
<g id="edge52" class="edge">
<title>Node31&#45;&gt;Node28</title>
<path fill="none" stroke="midnightblue" d="M1032.25,-117.99C979.89,-110.31 916.45,-96.95 900,-76 894.51,-69.01 894.2,-62.73 900,-56 903.95,-51.41 1056.19,-30.44 1142.96,-18.82"/>
<polygon fill="midnightblue" stroke="midnightblue" points="1143.5,-22.27 1152.95,-17.48 1142.57,-15.34 1143.5,-22.27"/>
</g>
<!-- Node32 -->
<g id="node32" class="node">
<title>Node32</title>
<g id="a_node32"><a xlink:title=" ">
<polygon fill="white" stroke="#bfbfbf" points="909.5,-56.5 909.5,-75.5 1040.5,-75.5 1040.5,-56.5 909.5,-56.5"/>
<text text-anchor="middle" x="975" y="-63.5" font-family="Helvetica,sans-Serif" font-size="10.00">AMReX_PhysBCFunct.H</text>
</a>
</g>
</g>
<!-- Node31&#45;&gt;Node32 -->
<g id="edge53" class="edge">
<title>Node31&#45;&gt;Node32</title>
<path fill="none" stroke="midnightblue" d="M1088.09,-117.98C1065.84,-107.95 1028.69,-91.2 1003.07,-79.65"/>
<polygon fill="midnightblue" stroke="midnightblue" points="1004.43,-76.43 993.88,-75.51 1001.56,-82.81 1004.43,-76.43"/>
</g>
</g>
</svg>
