<?xml version="1.0" encoding="UTF-8" standalone="no"?>
<!DOCTYPE svg PUBLIC "-//W3C//DTD SVG 1.1//EN"
 "http://www.w3.org/Graphics/SVG/1.1/DTD/svg11.dtd">
<!-- Generated by graphviz version 2.43.0 (0)
 -->
<!-- Title: disk_spreading.H Pages: 1 -->
<svg width="518pt" height="196pt"
 viewBox="0.00 0.00 518.00 196.00" xmlns="http://www.w3.org/2000/svg" xmlns:xlink="http://www.w3.org/1999/xlink">
<g id="graph0" class="graph" transform="scale(1 1) rotate(0) translate(4 192)">
<title>disk_spreading.H</title>
<polygon fill="white" stroke="transparent" points="-4,4 -4,-192 514,-192 514,4 -4,4"/>
<!-- Node1 -->
<g id="node1" class="node">
<title>Node1</title>
<g id="a_node1"><a xlink:title=" ">
<polygon fill="#bfbfbf" stroke="black" points="102.5,-168.5 102.5,-187.5 203.5,-187.5 203.5,-168.5 102.5,-168.5"/>
<text text-anchor="middle" x="153" y="-175.5" font-family="Helvetica,sans-Serif" font-size="10.00">disk_spreading.H</text>
</a>
</g>
</g>
<!-- Node2 -->
<g id="node2" class="node">
<title>Node2</title>
<g id="a_node2"><a xlink:href="_act_src_disk_op_8_h.html" target="_top" xlink:title=" ">
<polygon fill="white" stroke="black" points="145.5,-112.5 145.5,-131.5 238.5,-131.5 238.5,-112.5 145.5,-112.5"/>
<text text-anchor="middle" x="192" y="-119.5" font-family="Helvetica,sans-Serif" font-size="10.00">ActSrcDiskOp.H</text>
</a>
</g>
</g>
<!-- Node1&#45;&gt;Node2 -->
<g id="edge1" class="edge">
<title>Node1&#45;&gt;Node2</title>
<path fill="none" stroke="midnightblue" d="M165.38,-159.86C172.14,-150.5 180.21,-139.33 185.68,-131.75"/>
<polygon fill="midnightblue" stroke="midnightblue" points="162.46,-157.93 159.44,-168.08 168.13,-162.03 162.46,-157.93"/>
</g>
<!-- Node5 -->
<g id="node5" class="node">
<title>Node5</title>
<g id="a_node5"><a xlink:href="_actuator_disk_8cpp.html" target="_top" xlink:title=" ">
<polygon fill="white" stroke="black" points="0,-0.5 0,-19.5 100,-19.5 100,-0.5 0,-0.5"/>
<text text-anchor="middle" x="50" y="-7.5" font-family="Helvetica,sans-Serif" font-size="10.00">ActuatorDisk.cpp</text>
</a>
</g>
</g>
<!-- Node1&#45;&gt;Node5 -->
<g id="edge8" class="edge">
<title>Node1&#45;&gt;Node5</title>
<path fill="none" stroke="midnightblue" d="M142.02,-159.31C120.07,-123.92 71.45,-45.56 55.32,-19.57"/>
<polygon fill="midnightblue" stroke="midnightblue" points="139.22,-161.42 147.46,-168.08 145.16,-157.73 139.22,-161.42"/>
</g>
<!-- Node3 -->
<g id="node3" class="node">
<title>Node3</title>
<g id="a_node3"><a xlink:href="_actuator_model_8_h.html" target="_top" xlink:title=" ">
<polygon fill="white" stroke="black" points="159,-56.5 159,-75.5 257,-75.5 257,-56.5 159,-56.5"/>
<text text-anchor="middle" x="208" y="-63.5" font-family="Helvetica,sans-Serif" font-size="10.00">ActuatorModel.H</text>
</a>
</g>
</g>
<!-- Node2&#45;&gt;Node3 -->
<g id="edge2" class="edge">
<title>Node2&#45;&gt;Node3</title>
<path fill="none" stroke="midnightblue" d="M197.51,-102.4C200.19,-93.36 203.28,-82.94 205.41,-75.75"/>
<polygon fill="midnightblue" stroke="midnightblue" points="194.13,-101.5 194.64,-112.08 200.84,-103.49 194.13,-101.5"/>
</g>
<!-- Node4 -->
<g id="node4" class="node">
<title>Node4</title>
<g id="a_node4"><a xlink:href="_actuator_8cpp.html" target="_top" xlink:title=" ">
<polygon fill="white" stroke="black" points="118.5,-0.5 118.5,-19.5 195.5,-19.5 195.5,-0.5 118.5,-0.5"/>
<text text-anchor="middle" x="157" y="-7.5" font-family="Helvetica,sans-Serif" font-size="10.00">Actuator.cpp</text>
</a>
</g>
</g>
<!-- Node3&#45;&gt;Node4 -->
<g id="edge3" class="edge">
<title>Node3&#45;&gt;Node4</title>
<path fill="none" stroke="midnightblue" d="M192.62,-48.72C183.63,-39.2 172.64,-27.56 165.26,-19.75"/>
<polygon fill="midnightblue" stroke="midnightblue" points="190.17,-51.22 199.58,-56.08 195.26,-46.41 190.17,-51.22"/>
</g>
<!-- Node3&#45;&gt;Node5 -->
<g id="edge4" class="edge">
<title>Node3&#45;&gt;Node5</title>
<path fill="none" stroke="midnightblue" d="M173.39,-53.17C143.64,-43 101.45,-28.59 74.92,-19.52"/>
<polygon fill="midnightblue" stroke="midnightblue" points="172.37,-56.52 182.96,-56.44 174.63,-49.9 172.37,-56.52"/>
</g>
<!-- Node6 -->
<g id="node6" class="node">
<title>Node6</title>
<g id="a_node6"><a xlink:href="_turbine_fast_8cpp.html" target="_top" xlink:title=" ">
<polygon fill="white" stroke="black" points="214,-0.5 214,-19.5 306,-19.5 306,-0.5 214,-0.5"/>
<text text-anchor="middle" x="260" y="-7.5" font-family="Helvetica,sans-Serif" font-size="10.00">TurbineFast.cpp</text>
</a>
</g>
</g>
<!-- Node3&#45;&gt;Node6 -->
<g id="edge5" class="edge">
<title>Node3&#45;&gt;Node6</title>
<path fill="none" stroke="midnightblue" d="M223.68,-48.72C232.84,-39.2 244.05,-27.56 251.57,-19.75"/>
<polygon fill="midnightblue" stroke="midnightblue" points="221,-46.45 216.59,-56.08 226.04,-51.31 221,-46.45"/>
</g>
<!-- Node7 -->
<g id="node7" class="node">
<title>Node7</title>
<g id="a_node7"><a xlink:href="_fixed_wing_8cpp.html" target="_top" xlink:title=" ">
<polygon fill="white" stroke="black" points="324.5,-0.5 324.5,-19.5 411.5,-19.5 411.5,-0.5 324.5,-0.5"/>
<text text-anchor="middle" x="368" y="-7.5" font-family="Helvetica,sans-Serif" font-size="10.00">FixedWing.cpp</text>
</a>
</g>
</g>
<!-- Node3&#45;&gt;Node7 -->
<g id="edge6" class="edge">
<title>Node3&#45;&gt;Node7</title>
<path fill="none" stroke="midnightblue" d="M243.05,-53.17C273.17,-43 315.9,-28.59 342.77,-19.52"/>
<polygon fill="midnightblue" stroke="midnightblue" points="241.71,-49.93 233.35,-56.44 243.95,-56.56 241.71,-49.93"/>
</g>
<!-- Node8 -->
<g id="node8" class="node">
<title>Node8</title>
<g id="a_node8"><a xlink:href="_flat_plate_8cpp.html" target="_top" xlink:title=" ">
<polygon fill="white" stroke="black" points="430,-0.5 430,-19.5 510,-19.5 510,-0.5 430,-0.5"/>
<text text-anchor="middle" x="470" y="-7.5" font-family="Helvetica,sans-Serif" font-size="10.00">FlatPlate.cpp</text>
</a>
</g>
</g>
<!-- Node3&#45;&gt;Node8 -->
<g id="edge7" class="edge">
<title>Node3&#45;&gt;Node8</title>
<path fill="none" stroke="midnightblue" d="M259.47,-54.39C309.46,-44.09 384.29,-28.67 429.97,-19.25"/>
<polygon fill="midnightblue" stroke="midnightblue" points="258.6,-51 249.51,-56.44 260.02,-57.85 258.6,-51"/>
</g>
</g>
</svg>
