<?xml version="1.0" encoding="UTF-8" standalone="no"?>
<!DOCTYPE svg PUBLIC "-//W3C//DTD SVG 1.1//EN"
 "http://www.w3.org/Graphics/SVG/1.1/DTD/svg11.dtd">
<!-- Generated by graphviz version 2.43.0 (0)
 -->
<!-- Title: field_ops.H Pages: 1 -->
<svg width="1994pt" height="263pt"
 viewBox="0.00 0.00 1994.00 263.00" xmlns="http://www.w3.org/2000/svg" xmlns:xlink="http://www.w3.org/1999/xlink">
<g id="graph0" class="graph" transform="scale(1 1) rotate(0) translate(4 259)">
<title>field_ops.H</title>
<polygon fill="white" stroke="transparent" points="-4,4 -4,-259 1990,-259 1990,4 -4,4"/>
<!-- Node1 -->
<g id="node1" class="node">
<title>Node1</title>
<g id="a_node1"><a xlink:title=" ">
<polygon fill="#bfbfbf" stroke="black" points="1062,-235.5 1062,-254.5 1133,-254.5 1133,-235.5 1062,-235.5"/>
<text text-anchor="middle" x="1097.5" y="-242.5" font-family="Helvetica,sans-Serif" font-size="10.00">field_ops.H</text>
</a>
</g>
</g>
<!-- Node2 -->
<g id="node2" class="node">
<title>Node2</title>
<g id="a_node2"><a xlink:href="_s_d_r_8_h.html" target="_top" xlink:title=" ">
<polygon fill="white" stroke="black" points="238,-112.5 238,-131.5 285,-131.5 285,-112.5 238,-112.5"/>
<text text-anchor="middle" x="261.5" y="-119.5" font-family="Helvetica,sans-Serif" font-size="10.00">SDR.H</text>
</a>
</g>
</g>
<!-- Node1&#45;&gt;Node2 -->
<g id="edge1" class="edge">
<title>Node1&#45;&gt;Node2</title>
<path fill="none" stroke="midnightblue" d="M1051.73,-243.69C953.32,-242.33 714.61,-235.2 518.5,-199 430.19,-182.7 328.96,-147.78 284.49,-131.58"/>
<polygon fill="midnightblue" stroke="midnightblue" points="1051.87,-247.2 1061.92,-243.82 1051.96,-240.2 1051.87,-247.2"/>
</g>
<!-- Node4 -->
<g id="node4" class="node">
<title>Node4</title>
<g id="a_node4"><a xlink:href="sdr__ops_8_h.html" target="_top" xlink:title=" ">
<polygon fill="white" stroke="black" points="0,-56.5 0,-75.5 65,-75.5 65,-56.5 0,-56.5"/>
<text text-anchor="middle" x="32.5" y="-63.5" font-family="Helvetica,sans-Serif" font-size="10.00">sdr_ops.H</text>
</a>
</g>
</g>
<!-- Node1&#45;&gt;Node4 -->
<g id="edge10" class="edge">
<title>Node1&#45;&gt;Node4</title>
<path fill="none" stroke="midnightblue" d="M1051.68,-242.77C916.48,-238.88 520.78,-225.49 394.5,-199 257.34,-170.23 102.24,-100.14 50.42,-75.64"/>
<polygon fill="midnightblue" stroke="midnightblue" points="1051.61,-246.27 1061.71,-243.06 1051.81,-239.28 1051.61,-246.27"/>
</g>
<!-- Node8 -->
<g id="node8" class="node">
<title>Node8</title>
<g id="a_node8"><a xlink:href="_t_k_e_8_h.html" target="_top" xlink:title=" ">
<polygon fill="white" stroke="black" points="689.5,-112.5 689.5,-131.5 735.5,-131.5 735.5,-112.5 689.5,-112.5"/>
<text text-anchor="middle" x="712.5" y="-119.5" font-family="Helvetica,sans-Serif" font-size="10.00">TKE.H</text>
</a>
</g>
</g>
<!-- Node1&#45;&gt;Node8 -->
<g id="edge11" class="edge">
<title>Node1&#45;&gt;Node8</title>
<path fill="none" stroke="midnightblue" d="M1051.67,-243.63C967.57,-242.09 792.85,-234.56 745.5,-199 723.42,-182.41 715.9,-147.96 713.52,-131.77"/>
<polygon fill="midnightblue" stroke="midnightblue" points="1051.65,-247.13 1061.71,-243.8 1051.77,-240.13 1051.65,-247.13"/>
</g>
<!-- Node10 -->
<g id="node10" class="node">
<title>Node10</title>
<g id="a_node10"><a xlink:href="tke__ops_8_h.html" target="_top" xlink:title=" ">
<polygon fill="white" stroke="black" points="818,-56.5 818,-75.5 883,-75.5 883,-56.5 818,-56.5"/>
<text text-anchor="middle" x="850.5" y="-63.5" font-family="Helvetica,sans-Serif" font-size="10.00">tke_ops.H</text>
</a>
</g>
</g>
<!-- Node1&#45;&gt;Node10 -->
<g id="edge19" class="edge">
<title>Node1&#45;&gt;Node10</title>
<path fill="none" stroke="midnightblue" d="M1051.74,-244.57C972.14,-244.47 813.34,-239.1 778.5,-199 743.4,-158.6 810.69,-98.26 838.89,-75.82"/>
<polygon fill="midnightblue" stroke="midnightblue" points="1051.97,-248.07 1061.96,-244.55 1051.95,-241.07 1051.97,-248.07"/>
</g>
<!-- Node12 -->
<g id="node12" class="node">
<title>Node12</title>
<g id="a_node12"><a xlink:href="bluff__body__ops_8cpp.html" target="_top" xlink:title=" ">
<polygon fill="white" stroke="black" points="787.5,-174 787.5,-193 897.5,-193 897.5,-174 787.5,-174"/>
<text text-anchor="middle" x="842.5" y="-181" font-family="Helvetica,sans-Serif" font-size="10.00">bluff_body_ops.cpp</text>
</a>
</g>
</g>
<!-- Node1&#45;&gt;Node12 -->
<g id="edge20" class="edge">
<title>Node1&#45;&gt;Node12</title>
<path fill="none" stroke="midnightblue" d="M1052,-233.38C1002.65,-221.87 924.84,-203.71 879.22,-193.07"/>
<polygon fill="midnightblue" stroke="midnightblue" points="1051.24,-236.8 1061.77,-235.66 1052.83,-229.98 1051.24,-236.8"/>
</g>
<!-- Node13 -->
<g id="node13" class="node">
<title>Node13</title>
<g id="a_node13"><a xlink:href="incflo__advance_8cpp.html" target="_top" xlink:title=" ">
<polygon fill="white" stroke="black" points="915.5,-174 915.5,-193 1025.5,-193 1025.5,-174 915.5,-174"/>
<text text-anchor="middle" x="970.5" y="-181" font-family="Helvetica,sans-Serif" font-size="10.00">incflo_advance.cpp</text>
</a>
</g>
</g>
<!-- Node1&#45;&gt;Node13 -->
<g id="edge21" class="edge">
<title>Node1&#45;&gt;Node13</title>
<path fill="none" stroke="midnightblue" d="M1070.12,-231.17C1045.48,-219.63 1009.96,-202.99 988.66,-193.01"/>
<polygon fill="midnightblue" stroke="midnightblue" points="1068.76,-234.4 1079.3,-235.48 1071.73,-228.06 1068.76,-234.4"/>
</g>
<!-- Node14 -->
<g id="node14" class="node">
<title>Node14</title>
<g id="a_node14"><a xlink:href="_tioga_interface_8cpp.html" target="_top" xlink:title=" ">
<polygon fill="white" stroke="black" points="1044,-174 1044,-193 1151,-193 1151,-174 1044,-174"/>
<text text-anchor="middle" x="1097.5" y="-181" font-family="Helvetica,sans-Serif" font-size="10.00">TiogaInterface.cpp</text>
</a>
</g>
</g>
<!-- Node1&#45;&gt;Node14 -->
<g id="edge22" class="edge">
<title>Node1&#45;&gt;Node14</title>
<path fill="none" stroke="midnightblue" d="M1097.5,-225.32C1097.5,-214.5 1097.5,-201.4 1097.5,-193.01"/>
<polygon fill="midnightblue" stroke="midnightblue" points="1094,-225.48 1097.5,-235.48 1101,-225.48 1094,-225.48"/>
</g>
<!-- Node15 -->
<g id="node15" class="node">
<title>Node15</title>
<g id="a_node15"><a xlink:href="_dam_break_8cpp.html" target="_top" xlink:title=" ">
<polygon fill="white" stroke="black" points="1169,-174 1169,-193 1258,-193 1258,-174 1169,-174"/>
<text text-anchor="middle" x="1213.5" y="-181" font-family="Helvetica,sans-Serif" font-size="10.00">DamBreak.cpp</text>
</a>
</g>
</g>
<!-- Node1&#45;&gt;Node15 -->
<g id="edge23" class="edge">
<title>Node1&#45;&gt;Node15</title>
<path fill="none" stroke="midnightblue" d="M1123.1,-230.87C1145.59,-219.33 1177.63,-202.9 1196.91,-193.01"/>
<polygon fill="midnightblue" stroke="midnightblue" points="1121.42,-227.8 1114.12,-235.48 1124.62,-234.03 1121.42,-227.8"/>
</g>
<!-- Node16 -->
<g id="node16" class="node">
<title>Node16</title>
<g id="a_node16"><a xlink:href="_multi_phase_8cpp.html" target="_top" xlink:title=" ">
<polygon fill="white" stroke="black" points="1276,-174 1276,-193 1367,-193 1367,-174 1276,-174"/>
<text text-anchor="middle" x="1321.5" y="-181" font-family="Helvetica,sans-Serif" font-size="10.00">MultiPhase.cpp</text>
</a>
</g>
</g>
<!-- Node1&#45;&gt;Node16 -->
<g id="edge24" class="edge">
<title>Node1&#45;&gt;Node16</title>
<path fill="none" stroke="midnightblue" d="M1139.5,-232.93C1173.91,-223.84 1223.87,-210.63 1267.5,-199 1274.72,-197.07 1282.49,-195 1289.81,-193.03"/>
<polygon fill="midnightblue" stroke="midnightblue" points="1138.56,-229.56 1129.78,-235.49 1140.35,-236.32 1138.56,-229.56"/>
</g>
<!-- Node17 -->
<g id="node17" class="node">
<title>Node17</title>
<g id="a_node17"><a xlink:href="_sloshing_tank_8cpp.html" target="_top" xlink:title=" ">
<polygon fill="white" stroke="black" points="1385,-174 1385,-193 1486,-193 1486,-174 1385,-174"/>
<text text-anchor="middle" x="1435.5" y="-181" font-family="Helvetica,sans-Serif" font-size="10.00">SloshingTank.cpp</text>
</a>
</g>
</g>
<!-- Node1&#45;&gt;Node17 -->
<g id="edge25" class="edge">
<title>Node1&#45;&gt;Node17</title>
<path fill="none" stroke="midnightblue" d="M1143.55,-237.74C1199.03,-229.93 1294.97,-215.57 1376.5,-199 1385.08,-197.26 1394.3,-195.12 1402.84,-193.03"/>
<polygon fill="midnightblue" stroke="midnightblue" points="1142.76,-234.32 1133.34,-239.17 1143.73,-241.25 1142.76,-234.32"/>
</g>
<!-- Node18 -->
<g id="node18" class="node">
<title>Node18</title>
<g id="a_node18"><a xlink:href="_zalesak_disk_8cpp.html" target="_top" xlink:title=" ">
<polygon fill="white" stroke="black" points="1504.5,-174 1504.5,-193 1602.5,-193 1602.5,-174 1504.5,-174"/>
<text text-anchor="middle" x="1553.5" y="-181" font-family="Helvetica,sans-Serif" font-size="10.00">ZalesakDisk.cpp</text>
</a>
</g>
</g>
<!-- Node1&#45;&gt;Node18 -->
<g id="edge26" class="edge">
<title>Node1&#45;&gt;Node18</title>
<path fill="none" stroke="midnightblue" d="M1143.55,-240.78C1217.98,-235.14 1369.13,-221.84 1495.5,-199 1504.39,-197.39 1513.93,-195.21 1522.66,-193.01"/>
<polygon fill="midnightblue" stroke="midnightblue" points="1142.85,-237.33 1133.14,-241.56 1143.37,-244.31 1142.85,-237.33"/>
</g>
<!-- Node19 -->
<g id="node19" class="node">
<title>Node19</title>
<g id="a_node19"><a xlink:href="incflo__apply__nodal__projection_8cpp.html" target="_top" xlink:title=" ">
<polygon fill="white" stroke="black" points="1621,-168.5 1621,-198.5 1728,-198.5 1728,-168.5 1621,-168.5"/>
<text text-anchor="start" x="1629" y="-186.5" font-family="Helvetica,sans-Serif" font-size="10.00">incflo_apply_nodal</text>
<text text-anchor="middle" x="1674.5" y="-175.5" font-family="Helvetica,sans-Serif" font-size="10.00">_projection.cpp</text>
</a>
</g>
</g>
<!-- Node1&#45;&gt;Node19 -->
<g id="edge27" class="edge">
<title>Node1&#45;&gt;Node19</title>
<path fill="none" stroke="midnightblue" d="M1143.38,-242.12C1233.55,-237.96 1440.01,-226.11 1611.5,-199 1614.6,-198.51 1617.78,-197.95 1620.98,-197.35"/>
<polygon fill="midnightblue" stroke="midnightblue" points="1143.06,-238.63 1133.23,-242.58 1143.38,-245.63 1143.06,-238.63"/>
</g>
<!-- Node20 -->
<g id="node20" class="node">
<title>Node20</title>
<g id="a_node20"><a xlink:href="_laminar_model_8cpp.html" target="_top" xlink:title=" ">
<polygon fill="white" stroke="black" points="1746,-174 1746,-193 1853,-193 1853,-174 1746,-174"/>
<text text-anchor="middle" x="1799.5" y="-181" font-family="Helvetica,sans-Serif" font-size="10.00">LaminarModel.cpp</text>
</a>
</g>
</g>
<!-- Node1&#45;&gt;Node20 -->
<g id="edge28" class="edge">
<title>Node1&#45;&gt;Node20</title>
<path fill="none" stroke="midnightblue" d="M1143.39,-243.28C1248.88,-241.08 1516.56,-232.39 1737.5,-199 1747.34,-197.51 1757.92,-195.28 1767.51,-193.01"/>
<polygon fill="midnightblue" stroke="midnightblue" points="1143.03,-239.79 1133.1,-243.48 1143.17,-246.79 1143.03,-239.79"/>
</g>
<!-- Node21 -->
<g id="node21" class="node">
<title>Node21</title>
<g id="a_node21"><a xlink:href="_turb_model_base_8_h.html" target="_top" xlink:title=" ">
<polygon fill="white" stroke="black" points="528,-174 528,-193 629,-193 629,-174 528,-174"/>
<text text-anchor="middle" x="578.5" y="-181" font-family="Helvetica,sans-Serif" font-size="10.00">TurbModelBase.H</text>
</a>
</g>
</g>
<!-- Node1&#45;&gt;Node21 -->
<g id="edge29" class="edge">
<title>Node1&#45;&gt;Node21</title>
<path fill="none" stroke="midnightblue" d="M1051.68,-238.86C977.91,-230.56 828.26,-213.67 701.5,-199 677.68,-196.24 651.28,-193.14 629.06,-190.51"/>
<polygon fill="midnightblue" stroke="midnightblue" points="1051.67,-242.38 1062,-240.02 1052.45,-235.42 1051.67,-242.38"/>
</g>
<!-- Node27 -->
<g id="node27" class="node">
<title>Node27</title>
<g id="a_node27"><a xlink:href="_derived_qty_defs_8cpp.html" target="_top" xlink:title=" ">
<polygon fill="white" stroke="black" points="1871,-174 1871,-193 1986,-193 1986,-174 1871,-174"/>
<text text-anchor="middle" x="1928.5" y="-181" font-family="Helvetica,sans-Serif" font-size="10.00">DerivedQtyDefs.cpp</text>
</a>
</g>
</g>
<!-- Node1&#45;&gt;Node27 -->
<g id="edge39" class="edge">
<title>Node1&#45;&gt;Node27</title>
<path fill="none" stroke="midnightblue" d="M1143.37,-243.81C1262.55,-242.79 1591.62,-236.49 1862.5,-199 1872.96,-197.55 1884.22,-195.33 1894.43,-193.06"/>
<polygon fill="midnightblue" stroke="midnightblue" points="1143.13,-240.31 1133.15,-243.89 1143.18,-247.31 1143.13,-240.31"/>
</g>
<!-- Node3 -->
<g id="node3" class="node">
<title>Node3</title>
<g id="a_node3"><a xlink:href="_s_d_r_8cpp.html" target="_top" xlink:title=" ">
<polygon fill="white" stroke="black" points="35,-0.5 35,-19.5 92,-19.5 92,-0.5 35,-0.5"/>
<text text-anchor="middle" x="63.5" y="-7.5" font-family="Helvetica,sans-Serif" font-size="10.00">SDR.cpp</text>
</a>
</g>
</g>
<!-- Node2&#45;&gt;Node3 -->
<g id="edge2" class="edge">
<title>Node2&#45;&gt;Node3</title>
<path fill="none" stroke="midnightblue" d="M228.07,-111.59C203.47,-103.91 169.71,-91.76 142.5,-76 114.22,-59.62 85.78,-33.21 72.02,-19.65"/>
<polygon fill="midnightblue" stroke="midnightblue" points="227.09,-114.95 237.67,-114.51 229.12,-108.25 227.09,-114.95"/>
</g>
<!-- Node2&#45;&gt;Node4 -->
<g id="edge3" class="edge">
<title>Node2&#45;&gt;Node4</title>
<path fill="none" stroke="midnightblue" d="M228.01,-113.1C184.34,-102.8 108.44,-84.91 65.17,-74.7"/>
<polygon fill="midnightblue" stroke="midnightblue" points="227.32,-116.54 237.86,-115.42 228.93,-109.72 227.32,-116.54"/>
</g>
<!-- Node5 -->
<g id="node5" class="node">
<title>Node5</title>
<g id="a_node5"><a xlink:href="_k_omega_s_s_t_i_8_h.html" target="_top" xlink:title=" ">
<polygon fill="white" stroke="black" points="332,-56.5 332,-75.5 421,-75.5 421,-56.5 332,-56.5"/>
<text text-anchor="middle" x="376.5" y="-63.5" font-family="Helvetica,sans-Serif" font-size="10.00">KOmegaSSTI.H</text>
</a>
</g>
</g>
<!-- Node2&#45;&gt;Node5 -->
<g id="edge5" class="edge">
<title>Node2&#45;&gt;Node5</title>
<path fill="none" stroke="midnightblue" d="M288.98,-108.1C310.47,-98.01 339.72,-84.27 358.36,-75.52"/>
<polygon fill="midnightblue" stroke="midnightblue" points="287.29,-105.02 279.72,-112.44 290.26,-111.36 287.29,-105.02"/>
</g>
<!-- Node6 -->
<g id="node6" class="node">
<title>Node6</title>
<g id="a_node6"><a xlink:href="_k_omega_s_s_t_8cpp.html" target="_top" xlink:title=" ">
<polygon fill="white" stroke="black" points="365,-0.5 365,-19.5 460,-19.5 460,-0.5 365,-0.5"/>
<text text-anchor="middle" x="412.5" y="-7.5" font-family="Helvetica,sans-Serif" font-size="10.00">KOmegaSST.cpp</text>
</a>
</g>
</g>
<!-- Node2&#45;&gt;Node6 -->
<g id="edge8" class="edge">
<title>Node2&#45;&gt;Node6</title>
<path fill="none" stroke="midnightblue" d="M274.48,-104.13C285.97,-89.99 303.8,-69.94 322.5,-56 343.65,-40.24 371.16,-27.41 390.17,-19.55"/>
<polygon fill="midnightblue" stroke="midnightblue" points="271.66,-102.06 268.18,-112.06 277.14,-106.41 271.66,-102.06"/>
</g>
<!-- Node7 -->
<g id="node7" class="node">
<title>Node7</title>
<g id="a_node7"><a xlink:href="_k_omega_s_s_t_i_d_d_e_s_8cpp.html" target="_top" xlink:title=" ">
<polygon fill="white" stroke="black" points="187.5,-0.5 187.5,-19.5 313.5,-19.5 313.5,-0.5 187.5,-0.5"/>
<text text-anchor="middle" x="250.5" y="-7.5" font-family="Helvetica,sans-Serif" font-size="10.00">KOmegaSSTIDDES.cpp</text>
</a>
</g>
</g>
<!-- Node2&#45;&gt;Node7 -->
<g id="edge9" class="edge">
<title>Node2&#45;&gt;Node7</title>
<path fill="none" stroke="midnightblue" d="M227.44,-117.24C201.54,-112.39 167.55,-101.31 150.5,-76 131.7,-48.09 177.06,-29.42 212.7,-19.51"/>
<polygon fill="midnightblue" stroke="midnightblue" points="227.18,-120.74 237.62,-118.91 228.31,-113.84 227.18,-120.74"/>
</g>
<!-- Node4&#45;&gt;Node3 -->
<g id="edge4" class="edge">
<title>Node4&#45;&gt;Node3</title>
<path fill="none" stroke="midnightblue" d="M42.68,-47.27C47.97,-38.05 54.22,-27.17 58.48,-19.75"/>
<polygon fill="midnightblue" stroke="midnightblue" points="39.56,-45.67 37.62,-56.08 45.63,-49.15 39.56,-45.67"/>
</g>
<!-- Node5&#45;&gt;Node6 -->
<g id="edge6" class="edge">
<title>Node5&#45;&gt;Node6</title>
<path fill="none" stroke="midnightblue" d="M388.12,-47.57C394.32,-38.27 401.67,-27.25 406.67,-19.75"/>
<polygon fill="midnightblue" stroke="midnightblue" points="385.08,-45.82 382.44,-56.08 390.9,-49.7 385.08,-45.82"/>
</g>
<!-- Node5&#45;&gt;Node7 -->
<g id="edge7" class="edge">
<title>Node5&#45;&gt;Node7</title>
<path fill="none" stroke="midnightblue" d="M347.34,-52.5C323.72,-42.38 291.07,-28.39 270.37,-19.52"/>
<polygon fill="midnightblue" stroke="midnightblue" points="345.96,-55.72 356.53,-56.44 348.72,-49.29 345.96,-55.72"/>
</g>
<!-- Node8&#45;&gt;Node5 -->
<g id="edge16" class="edge">
<title>Node8&#45;&gt;Node5</title>
<path fill="none" stroke="midnightblue" d="M679.18,-111.94C582.04,-91.57 478.68,-78.4 421.12,-71.8"/>
<polygon fill="midnightblue" stroke="midnightblue" points="678.66,-115.41 689.17,-114.07 680.11,-108.56 678.66,-115.41"/>
</g>
<!-- Node8&#45;&gt;Node6 -->
<g id="edge17" class="edge">
<title>Node8&#45;&gt;Node6</title>
<path fill="none" stroke="midnightblue" d="M724.02,-103.4C731.82,-89.05 738.84,-69.08 727.5,-56 693.48,-16.77 539.54,-10.89 460.17,-10.53"/>
<polygon fill="midnightblue" stroke="midnightblue" points="720.83,-101.91 718.71,-112.29 726.84,-105.5 720.83,-101.91"/>
</g>
<!-- Node8&#45;&gt;Node7 -->
<g id="edge18" class="edge">
<title>Node8&#45;&gt;Node7</title>
<path fill="none" stroke="midnightblue" d="M712.67,-102.09C711.7,-87.21 707.77,-67.19 694.5,-56 687.3,-49.93 434.75,-27.11 313.82,-16.49"/>
<polygon fill="midnightblue" stroke="midnightblue" points="709.17,-102.32 712.93,-112.23 716.17,-102.14 709.17,-102.32"/>
</g>
<!-- Node9 -->
<g id="node9" class="node">
<title>Node9</title>
<g id="a_node9"><a xlink:href="_t_k_e_8cpp.html" target="_top" xlink:title=" ">
<polygon fill="white" stroke="black" points="791.5,-0.5 791.5,-19.5 847.5,-19.5 847.5,-0.5 791.5,-0.5"/>
<text text-anchor="middle" x="819.5" y="-7.5" font-family="Helvetica,sans-Serif" font-size="10.00">TKE.cpp</text>
</a>
</g>
</g>
<!-- Node8&#45;&gt;Node9 -->
<g id="edge12" class="edge">
<title>Node8&#45;&gt;Node9</title>
<path fill="none" stroke="midnightblue" d="M731.99,-105.82C742.33,-97.43 755.02,-86.59 765.5,-76 784.07,-57.23 803.22,-32.72 812.96,-19.82"/>
<polygon fill="midnightblue" stroke="midnightblue" points="729.59,-103.25 723.96,-112.23 733.96,-108.72 729.59,-103.25"/>
</g>
<!-- Node8&#45;&gt;Node10 -->
<g id="edge13" class="edge">
<title>Node8&#45;&gt;Node10</title>
<path fill="none" stroke="midnightblue" d="M743.75,-108.77C769.67,-98.63 805.86,-84.47 828.74,-75.52"/>
<polygon fill="midnightblue" stroke="midnightblue" points="742.4,-105.54 734.37,-112.44 744.95,-112.06 742.4,-105.54"/>
</g>
<!-- Node11 -->
<g id="node11" class="node">
<title>Node11</title>
<g id="a_node11"><a xlink:href="_one_eq_ksgs_8cpp.html" target="_top" xlink:title=" ">
<polygon fill="white" stroke="black" points="593.5,-56.5 593.5,-75.5 685.5,-75.5 685.5,-56.5 593.5,-56.5"/>
<text text-anchor="middle" x="639.5" y="-63.5" font-family="Helvetica,sans-Serif" font-size="10.00">OneEqKsgs.cpp</text>
</a>
</g>
</g>
<!-- Node8&#45;&gt;Node11 -->
<g id="edge15" class="edge">
<title>Node8&#45;&gt;Node11</title>
<path fill="none" stroke="midnightblue" d="M692.36,-106.1C679.22,-96.38 662.52,-84.03 651.44,-75.83"/>
<polygon fill="midnightblue" stroke="midnightblue" points="690.65,-109.19 700.77,-112.32 694.81,-103.56 690.65,-109.19"/>
</g>
<!-- Node10&#45;&gt;Node9 -->
<g id="edge14" class="edge">
<title>Node10&#45;&gt;Node9</title>
<path fill="none" stroke="midnightblue" d="M840.32,-47.27C835.03,-38.05 828.78,-27.17 824.52,-19.75"/>
<polygon fill="midnightblue" stroke="midnightblue" points="837.37,-49.15 845.38,-56.08 843.44,-45.67 837.37,-49.15"/>
</g>
<!-- Node22 -->
<g id="node22" class="node">
<title>Node22</title>
<g id="a_node22"><a xlink:href="_one_eq_ksgs_8_h.html" target="_top" xlink:title=" ">
<polygon fill="white" stroke="black" points="589.5,-112.5 589.5,-131.5 671.5,-131.5 671.5,-112.5 589.5,-112.5"/>
<text text-anchor="middle" x="630.5" y="-119.5" font-family="Helvetica,sans-Serif" font-size="10.00">OneEqKsgs.H</text>
</a>
</g>
</g>
<!-- Node21&#45;&gt;Node22 -->
<g id="edge30" class="edge">
<title>Node21&#45;&gt;Node22</title>
<path fill="none" stroke="midnightblue" d="M592.77,-166.17C602.58,-154.95 615.19,-140.52 623.06,-131.51"/>
<polygon fill="midnightblue" stroke="midnightblue" points="589.9,-164.14 585.95,-173.98 595.17,-168.75 589.9,-164.14"/>
</g>
<!-- Node23 -->
<g id="node23" class="node">
<title>Node23</title>
<g id="a_node23"><a xlink:href="_smagorinsky_8_h.html" target="_top" xlink:title=" ">
<polygon fill="white" stroke="black" points="482,-112.5 482,-131.5 571,-131.5 571,-112.5 482,-112.5"/>
<text text-anchor="middle" x="526.5" y="-119.5" font-family="Helvetica,sans-Serif" font-size="10.00">Smagorinsky.H</text>
</a>
</g>
</g>
<!-- Node21&#45;&gt;Node23 -->
<g id="edge32" class="edge">
<title>Node21&#45;&gt;Node23</title>
<path fill="none" stroke="midnightblue" d="M564.23,-166.17C554.42,-154.95 541.81,-140.52 533.94,-131.51"/>
<polygon fill="midnightblue" stroke="midnightblue" points="561.83,-168.75 571.05,-173.98 567.1,-164.14 561.83,-168.75"/>
</g>
<!-- Node25 -->
<g id="node25" class="node">
<title>Node25</title>
<g id="a_node25"><a xlink:href="_k_omega_s_s_t_8_h.html" target="_top" xlink:title=" ">
<polygon fill="white" stroke="black" points="355.5,-112.5 355.5,-131.5 441.5,-131.5 441.5,-112.5 355.5,-112.5"/>
<text text-anchor="middle" x="398.5" y="-119.5" font-family="Helvetica,sans-Serif" font-size="10.00">KOmegaSST.H</text>
</a>
</g>
</g>
<!-- Node21&#45;&gt;Node25 -->
<g id="edge34" class="edge">
<title>Node21&#45;&gt;Node25</title>
<path fill="none" stroke="midnightblue" d="M542.9,-170.73C507.91,-159.17 455.36,-141.8 424.24,-131.51"/>
<polygon fill="midnightblue" stroke="midnightblue" points="542.12,-174.16 552.71,-173.98 544.31,-167.51 542.12,-174.16"/>
</g>
<!-- Node22&#45;&gt;Node11 -->
<g id="edge31" class="edge">
<title>Node22&#45;&gt;Node11</title>
<path fill="none" stroke="midnightblue" d="M633.65,-102.1C635.14,-93.14 636.86,-82.86 638.04,-75.75"/>
<polygon fill="midnightblue" stroke="midnightblue" points="630.18,-101.64 631.99,-112.08 637.08,-102.79 630.18,-101.64"/>
</g>
<!-- Node24 -->
<g id="node24" class="node">
<title>Node24</title>
<g id="a_node24"><a xlink:href="_smagorinsky_8cpp.html" target="_top" xlink:title=" ">
<polygon fill="white" stroke="black" points="477.5,-56.5 477.5,-75.5 575.5,-75.5 575.5,-56.5 477.5,-56.5"/>
<text text-anchor="middle" x="526.5" y="-63.5" font-family="Helvetica,sans-Serif" font-size="10.00">Smagorinsky.cpp</text>
</a>
</g>
</g>
<!-- Node23&#45;&gt;Node24 -->
<g id="edge33" class="edge">
<title>Node23&#45;&gt;Node24</title>
<path fill="none" stroke="midnightblue" d="M526.5,-101.8C526.5,-92.91 526.5,-82.78 526.5,-75.75"/>
<polygon fill="midnightblue" stroke="midnightblue" points="523,-102.08 526.5,-112.08 530,-102.08 523,-102.08"/>
</g>
<!-- Node25&#45;&gt;Node5 -->
<g id="edge36" class="edge">
<title>Node25&#45;&gt;Node5</title>
<path fill="none" stroke="midnightblue" d="M391.04,-102.69C387.33,-93.59 383.02,-83.01 380.07,-75.75"/>
<polygon fill="midnightblue" stroke="midnightblue" points="387.85,-104.14 394.87,-112.08 394.34,-101.5 387.85,-104.14"/>
</g>
<!-- Node25&#45;&gt;Node6 -->
<g id="edge35" class="edge">
<title>Node25&#45;&gt;Node6</title>
<path fill="none" stroke="midnightblue" d="M413.48,-104.47C419.72,-96.48 426.27,-86.38 429.5,-76 435.67,-56.17 425.04,-32.49 417.99,-19.9"/>
<polygon fill="midnightblue" stroke="midnightblue" points="410.71,-102.32 406.98,-112.23 416.08,-106.81 410.71,-102.32"/>
</g>
<!-- Node26 -->
<g id="node26" class="node">
<title>Node26</title>
<g id="a_node26"><a xlink:href="_k_omega_s_s_t_i_d_d_e_s_8_h.html" target="_top" xlink:title=" ">
<polygon fill="white" stroke="black" points="159.5,-56.5 159.5,-75.5 275.5,-75.5 275.5,-56.5 159.5,-56.5"/>
<text text-anchor="middle" x="217.5" y="-63.5" font-family="Helvetica,sans-Serif" font-size="10.00">KOmegaSSTIDDES.H</text>
</a>
</g>
</g>
<!-- Node25&#45;&gt;Node26 -->
<g id="edge37" class="edge">
<title>Node25&#45;&gt;Node26</title>
<path fill="none" stroke="midnightblue" d="M360.18,-109.57C326.04,-99.38 276.84,-84.7 246.05,-75.52"/>
<polygon fill="midnightblue" stroke="midnightblue" points="359.24,-112.94 369.82,-112.44 361.24,-106.23 359.24,-112.94"/>
</g>
<!-- Node26&#45;&gt;Node7 -->
<g id="edge38" class="edge">
<title>Node26&#45;&gt;Node7</title>
<path fill="none" stroke="midnightblue" d="M228.33,-47.27C233.97,-38.05 240.62,-27.17 245.15,-19.75"/>
<polygon fill="midnightblue" stroke="midnightblue" points="225.18,-45.73 222.95,-56.08 231.15,-49.38 225.18,-45.73"/>
</g>
</g>
</svg>
