<?xml version="1.0" encoding="UTF-8" standalone="no"?>
<!DOCTYPE svg PUBLIC "-//W3C//DTD SVG 1.1//EN"
 "http://www.w3.org/Graphics/SVG/1.1/DTD/svg11.dtd">
<!-- Generated by graphviz version 2.43.0 (0)
 -->
<!-- Title: fvm.H Pages: 1 -->
<!--zoomable 375 -->
<svg id="main" version="1.1" xmlns="http://www.w3.org/2000/svg" xmlns:xlink="http://www.w3.org/1999/xlink" xml:space="preserve" onload="init(evt)">
<style type="text/css"><![CDATA[
.edge:hover path { stroke: red; }
.edge:hover polygon { stroke: red; fill: red; }
]]></style>
<script type="text/javascript"><![CDATA[
var edges = document.getElementsByTagName('g');
if (edges && edges.length) {
  for (var i=0;i<edges.length;i++) {
    if (edges[i].id.substr(0,4)=='edge') {
      edges[i].setAttribute('class','edge');
    }
  }
}
]]></script>
        <defs>
                <circle id="rim" cx="0" cy="0" r="7"/>
                <circle id="rim2" cx="0" cy="0" r="3.5"/>
                <g id="zoomPlus">
                        <use xlink:href="#rim" fill="#404040">
                                <set attributeName="fill" to="#808080" begin="zoomplus.mouseover" end="zoomplus.mouseout"/>
                        </use>
                        <path d="M-4,0h8M0,-4v8" fill="none" stroke="white" stroke-width="1.5" pointer-events="none"/>
                </g>
                <g id="zoomMin">
                        <use xlink:href="#rim" fill="#404040">
                                <set attributeName="fill" to="#808080" begin="zoomminus.mouseover" end="zoomminus.mouseout"/>
                        </use>
                        <path d="M-4,0h8" fill="none" stroke="white" stroke-width="1.5" pointer-events="none"/>
                </g>
                <g id="dirArrow">
                        <path fill="none" stroke="white" stroke-width="1.5" d="M0,-3.0v7 M-2.5,-0.5L0,-3.0L2.5,-0.5"/>
                </g>
               <g id="resetDef">
                       <use xlink:href="#rim2" fill="#404040">
                               <set attributeName="fill" to="#808080" begin="reset.mouseover" end="reset.mouseout"/>
                       </use>
               </g>
        </defs>

<script type="text/javascript">
var viewWidth = 2359;
var viewHeight = 375;
var sectionId = 'dynsection-0';
</script>
<script xlink:href="svgpan.js"/>
<svg id="graph" class="graph">
<g id="viewport">
<title>fvm.H</title>
<polygon fill="white" stroke="transparent" points="-4,4 -4,-371 2355,-371 2355,4 -4,4"/>
<!-- Node1 -->
<g id="node1" class="node">
<title>Node1</title>
<g id="a_node1"><a xlink:title=" ">
<polygon fill="#bfbfbf" stroke="black" points="1622.5,-347.5 1622.5,-366.5 1669.5,-366.5 1669.5,-347.5 1622.5,-347.5"/>
<text text-anchor="middle" x="1646" y="-354.5" font-family="Helvetica,sans-Serif" font-size="10.00">fvm.H</text>
</a>
</g>
</g>
<!-- Node2 -->
<g id="node2" class="node">
<title>Node2</title>
<g id="a_node2"><a xlink:href="curvature_8_h.html" target="_top" xlink:title=" ">
<polygon fill="white" stroke="black" points="1410,-286 1410,-305 1556,-305 1556,-286 1410,-286"/>
<text text-anchor="middle" x="1483" y="-293" font-family="Helvetica,sans-Serif" font-size="10.00">amr&#45;wind/fvm/curvature.H</text>
</a>
</g>
</g>
<!-- Node1&#45;&gt;Node2 -->
<g id="edge1" class="edge">
<title>Node1&#45;&gt;Node2</title>
<path fill="none" stroke="midnightblue" d="M1622.65,-347.48C1594.69,-337.27 1547.67,-320.11 1516.01,-308.55"/>
<polygon fill="midnightblue" stroke="midnightblue" points="1516.9,-305.15 1506.31,-305.01 1514.5,-311.73 1516.9,-305.15"/>
</g>
<!-- Node30 -->
<g id="node30" class="node">
<title>Node30</title>
<g id="a_node30"><a xlink:href="divergence_8_h.html" target="_top" xlink:title=" ">
<polygon fill="white" stroke="black" points="1900.5,-286 1900.5,-305 2053.5,-305 2053.5,-286 1900.5,-286"/>
<text text-anchor="middle" x="1977" y="-293" font-family="Helvetica,sans-Serif" font-size="10.00">amr&#45;wind/fvm/divergence.H</text>
</a>
</g>
</g>
<!-- Node1&#45;&gt;Node30 -->
<g id="edge46" class="edge">
<title>Node1&#45;&gt;Node30</title>
<path fill="none" stroke="midnightblue" d="M1669.54,-351.77C1721.17,-342.49 1845.61,-320.12 1919.38,-306.86"/>
<polygon fill="midnightblue" stroke="midnightblue" points="1920.22,-310.26 1929.44,-305.05 1918.98,-303.37 1920.22,-310.26"/>
</g>
<!-- Node32 -->
<g id="node32" class="node">
<title>Node32</title>
<g id="a_node32"><a xlink:href="gradient_8_h.html" target="_top" xlink:title=" ">
<polygon fill="white" stroke="black" points="2211,-286 2211,-305 2351,-305 2351,-286 2211,-286"/>
<text text-anchor="middle" x="2281" y="-293" font-family="Helvetica,sans-Serif" font-size="10.00">amr&#45;wind/fvm/gradient.H</text>
</a>
</g>
</g>
<!-- Node1&#45;&gt;Node32 -->
<g id="edge51" class="edge">
<title>Node1&#45;&gt;Node32</title>
<path fill="none" stroke="midnightblue" d="M1669.66,-354.94C1746.64,-351.31 1996.77,-338.07 2202,-311 2210.74,-309.85 2219.98,-308.38 2228.94,-306.82"/>
<polygon fill="midnightblue" stroke="midnightblue" points="2229.67,-310.25 2238.9,-305.04 2228.44,-303.36 2229.67,-310.25"/>
</g>
<!-- Node33 -->
<g id="node33" class="node">
<title>Node33</title>
<g id="a_node33"><a xlink:href="laplacian_8_h.html" target="_top" xlink:title=" ">
<polygon fill="white" stroke="black" points="1574.5,-286 1574.5,-305 1717.5,-305 1717.5,-286 1574.5,-286"/>
<text text-anchor="middle" x="1646" y="-293" font-family="Helvetica,sans-Serif" font-size="10.00">amr&#45;wind/fvm/laplacian.H</text>
</a>
</g>
</g>
<!-- Node1&#45;&gt;Node33 -->
<g id="edge56" class="edge">
<title>Node1&#45;&gt;Node33</title>
<path fill="none" stroke="midnightblue" d="M1646,-347.48C1646,-339.08 1646,-325.98 1646,-315.16"/>
<polygon fill="midnightblue" stroke="midnightblue" points="1649.5,-315.01 1646,-305.01 1642.5,-315.01 1649.5,-315.01"/>
</g>
<!-- Node34 -->
<g id="node34" class="node">
<title>Node34</title>
<g id="a_node34"><a xlink:href="strainrate_8_h.html" target="_top" xlink:title=" ">
<polygon fill="white" stroke="black" points="1736,-286 1736,-305 1882,-305 1882,-286 1736,-286"/>
<text text-anchor="middle" x="1809" y="-293" font-family="Helvetica,sans-Serif" font-size="10.00">amr&#45;wind/fvm/strainrate.H</text>
</a>
</g>
</g>
<!-- Node1&#45;&gt;Node34 -->
<g id="edge58" class="edge">
<title>Node1&#45;&gt;Node34</title>
<path fill="none" stroke="midnightblue" d="M1669.35,-347.48C1697.31,-337.27 1744.33,-320.11 1775.99,-308.55"/>
<polygon fill="midnightblue" stroke="midnightblue" points="1777.5,-311.73 1785.69,-305.01 1775.1,-305.15 1777.5,-311.73"/>
</g>
<!-- Node35 -->
<g id="node35" class="node">
<title>Node35</title>
<g id="a_node35"><a xlink:href="vorticity_8_h.html" target="_top" xlink:title=" ">
<polygon fill="white" stroke="black" points="942,-286 942,-305 1080,-305 1080,-286 942,-286"/>
<text text-anchor="middle" x="1011" y="-293" font-family="Helvetica,sans-Serif" font-size="10.00">amr&#45;wind/fvm/vorticity.H</text>
</a>
</g>
</g>
<!-- Node1&#45;&gt;Node35 -->
<g id="edge60" class="edge">
<title>Node1&#45;&gt;Node35</title>
<path fill="none" stroke="midnightblue" d="M1622.29,-354.96C1545.17,-351.4 1294.56,-338.34 1089,-311 1080.46,-309.86 1071.44,-308.42 1062.68,-306.88"/>
<polygon fill="midnightblue" stroke="midnightblue" points="1063.03,-303.39 1052.57,-305.05 1061.78,-310.28 1063.03,-303.39"/>
</g>
<!-- Node36 -->
<g id="node36" class="node">
<title>Node36</title>
<g id="a_node36"><a xlink:href="vorticity__mag_8_h.html" target="_top" xlink:title=" ">
<polygon fill="white" stroke="black" points="1098.5,-280.5 1098.5,-310.5 1227.5,-310.5 1227.5,-280.5 1098.5,-280.5"/>
<text text-anchor="start" x="1106.5" y="-298.5" font-family="Helvetica,sans-Serif" font-size="10.00">amr&#45;wind/fvm/vorticity</text>
<text text-anchor="middle" x="1163" y="-287.5" font-family="Helvetica,sans-Serif" font-size="10.00">_mag.H</text>
</a>
</g>
</g>
<!-- Node1&#45;&gt;Node36 -->
<g id="edge62" class="edge">
<title>Node1&#45;&gt;Node36</title>
<path fill="none" stroke="midnightblue" d="M1622.39,-354.1C1560.87,-349 1390.36,-333.94 1237.56,-311"/>
<polygon fill="midnightblue" stroke="midnightblue" points="1237.93,-307.51 1227.52,-309.47 1236.88,-314.43 1237.93,-307.51"/>
</g>
<!-- Node37 -->
<g id="node37" class="node">
<title>Node37</title>
<g id="a_node37"><a xlink:href="qcriterion_8_h.html" target="_top" xlink:title=" ">
<polygon fill="white" stroke="black" points="1246,-286 1246,-305 1392,-305 1392,-286 1246,-286"/>
<text text-anchor="middle" x="1319" y="-293" font-family="Helvetica,sans-Serif" font-size="10.00">amr&#45;wind/fvm/qcriterion.H</text>
</a>
</g>
</g>
<!-- Node1&#45;&gt;Node37 -->
<g id="edge64" class="edge">
<title>Node1&#45;&gt;Node37</title>
<path fill="none" stroke="midnightblue" d="M1622.48,-351.72C1571.29,-342.41 1448.54,-320.07 1375.8,-306.84"/>
<polygon fill="midnightblue" stroke="midnightblue" points="1376.35,-303.38 1365.88,-305.03 1375.1,-310.26 1376.35,-303.38"/>
</g>
<!-- Node38 -->
<g id="node38" class="node">
<title>Node38</title>
<g id="a_node38"><a xlink:href="filter_8_h.html" target="_top" xlink:title=" ">
<polygon fill="white" stroke="black" points="2071.5,-286 2071.5,-305 2192.5,-305 2192.5,-286 2071.5,-286"/>
<text text-anchor="middle" x="2132" y="-293" font-family="Helvetica,sans-Serif" font-size="10.00">amr&#45;wind/fvm/filter.H</text>
</a>
</g>
</g>
<!-- Node1&#45;&gt;Node38 -->
<g id="edge66" class="edge">
<title>Node1&#45;&gt;Node38</title>
<path fill="none" stroke="midnightblue" d="M1669.62,-354.28C1733.37,-349.46 1914.13,-334.61 2063,-311 2070.15,-309.87 2077.67,-308.48 2085.02,-307.03"/>
<polygon fill="midnightblue" stroke="midnightblue" points="2085.79,-310.44 2094.88,-305.01 2084.39,-303.58 2085.79,-310.44"/>
</g>
<!-- Node3 -->
<g id="node3" class="node">
<title>Node3</title>
<g id="a_node3"><a xlink:href="fvm__utils_8_h.html" target="_top" xlink:title=" ">
<polygon fill="white" stroke="black" points="1654.5,-224.5 1654.5,-243.5 1799.5,-243.5 1799.5,-224.5 1654.5,-224.5"/>
<text text-anchor="middle" x="1727" y="-231.5" font-family="Helvetica,sans-Serif" font-size="10.00">amr&#45;wind/fvm/fvm_utils.H</text>
</a>
</g>
</g>
<!-- Node2&#45;&gt;Node3 -->
<g id="edge2" class="edge">
<title>Node2&#45;&gt;Node3</title>
<path fill="none" stroke="midnightblue" d="M1517.96,-285.98C1561.17,-275.44 1634.79,-257.49 1682.13,-245.94"/>
<polygon fill="midnightblue" stroke="midnightblue" points="1683.22,-249.28 1692.11,-243.51 1681.56,-242.48 1683.22,-249.28"/>
</g>
<!-- Node4 -->
<g id="node4" class="node">
<title>Node4</title>
<g id="a_node4"><a xlink:href="_field_repo_8_h.html" target="_top" xlink:title=" ">
<polygon fill="white" stroke="black" points="1144.5,-168.5 1144.5,-187.5 1293.5,-187.5 1293.5,-168.5 1144.5,-168.5"/>
<text text-anchor="middle" x="1219" y="-175.5" font-family="Helvetica,sans-Serif" font-size="10.00">amr&#45;wind/core/FieldRepo.H</text>
</a>
</g>
</g>
<!-- Node3&#45;&gt;Node4 -->
<g id="edge3" class="edge">
<title>Node3&#45;&gt;Node4</title>
<path fill="none" stroke="midnightblue" d="M1654.49,-225.29C1561.95,-215.46 1402.14,-198.47 1303.99,-188.03"/>
<polygon fill="midnightblue" stroke="midnightblue" points="1304.12,-184.53 1293.8,-186.95 1303.38,-191.49 1304.12,-184.53"/>
</g>
<!-- Node24 -->
<g id="node24" class="node">
<title>Node24</title>
<g id="a_node24"><a xlink:href="stencils_8_h.html" target="_top" xlink:title="Second&#45;order finite volume discretization stencil coefficients.">
<polygon fill="white" stroke="black" points="1809.5,-168.5 1809.5,-187.5 1946.5,-187.5 1946.5,-168.5 1809.5,-168.5"/>
<text text-anchor="middle" x="1878" y="-175.5" font-family="Helvetica,sans-Serif" font-size="10.00">amr&#45;wind/fvm/stencils.H</text>
</a>
</g>
</g>
<!-- Node3&#45;&gt;Node24 -->
<g id="edge40" class="edge">
<title>Node3&#45;&gt;Node24</title>
<path fill="none" stroke="midnightblue" d="M1750.93,-224.44C1776.22,-215.4 1816.3,-201.06 1844.68,-190.92"/>
<polygon fill="midnightblue" stroke="midnightblue" points="1845.95,-194.18 1854.19,-187.52 1843.59,-187.59 1845.95,-194.18"/>
</g>
<!-- Node29 -->
<g id="node29" class="node">
<title>Node29</title>
<g id="a_node29"><a xlink:title=" ">
<polygon fill="white" stroke="#bfbfbf" points="2003,-168.5 2003,-187.5 2101,-187.5 2101,-168.5 2003,-168.5"/>
<text text-anchor="middle" x="2052" y="-175.5" font-family="Helvetica,sans-Serif" font-size="10.00">AMReX_MFIter.H</text>
</a>
</g>
</g>
<!-- Node3&#45;&gt;Node29 -->
<g id="edge45" class="edge">
<title>Node3&#45;&gt;Node29</title>
<path fill="none" stroke="midnightblue" d="M1778.5,-224.44C1836.82,-214.75 1931.69,-198.99 1992.96,-188.81"/>
<polygon fill="midnightblue" stroke="midnightblue" points="1993.58,-192.25 2002.87,-187.16 1992.43,-185.35 1993.58,-192.25"/>
</g>
<!-- Node5 -->
<g id="node5" class="node">
<title>Node5</title>
<g id="a_node5"><a xlink:title=" ">
<polygon fill="white" stroke="#bfbfbf" points="1312,-0.5 1312,-19.5 1356,-19.5 1356,-0.5 1312,-0.5"/>
<text text-anchor="middle" x="1334" y="-7.5" font-family="Helvetica,sans-Serif" font-size="10.00">string</text>
</a>
</g>
</g>
<!-- Node4&#45;&gt;Node5 -->
<g id="edge4" class="edge">
<title>Node4&#45;&gt;Node5</title>
<path fill="none" stroke="midnightblue" d="M1293.9,-174.06C1408.17,-168.82 1615.33,-156.1 1639,-132 1662.72,-107.85 1666.15,-81.6 1644,-56 1608.37,-14.83 1438.85,-10.53 1366.66,-10.61"/>
<polygon fill="midnightblue" stroke="midnightblue" points="1366.33,-7.12 1356.35,-10.66 1366.36,-14.12 1366.33,-7.12"/>
</g>
<!-- Node6 -->
<g id="node6" class="node">
<title>Node6</title>
<g id="a_node6"><a xlink:title=" ">
<polygon fill="white" stroke="#bfbfbf" points="1362.5,-56.5 1362.5,-75.5 1455.5,-75.5 1455.5,-56.5 1362.5,-56.5"/>
<text text-anchor="middle" x="1409" y="-63.5" font-family="Helvetica,sans-Serif" font-size="10.00">unordered_map</text>
</a>
</g>
</g>
<!-- Node4&#45;&gt;Node6 -->
<g id="edge5" class="edge">
<title>Node4&#45;&gt;Node6</title>
<path fill="none" stroke="midnightblue" d="M1233.91,-168.37C1266.79,-149.33 1345.76,-103.62 1385.42,-80.65"/>
<polygon fill="midnightblue" stroke="midnightblue" points="1387.26,-83.63 1394.16,-75.59 1383.75,-77.57 1387.26,-83.63"/>
</g>
<!-- Node7 -->
<g id="node7" class="node">
<title>Node7</title>
<g id="a_node7"><a xlink:href="_field_desc_types_8_h.html" target="_top" xlink:title=" ">
<polygon fill="white" stroke="black" points="541,-0.5 541,-19.5 717,-19.5 717,-0.5 541,-0.5"/>
<text text-anchor="middle" x="629" y="-7.5" font-family="Helvetica,sans-Serif" font-size="10.00">amr&#45;wind/core/FieldDescTypes.H</text>
</a>
</g>
</g>
<!-- Node4&#45;&gt;Node7 -->
<g id="edge6" class="edge">
<title>Node4&#45;&gt;Node7</title>
<path fill="none" stroke="midnightblue" d="M1144.33,-172.97C1043.93,-165.12 861.86,-142.21 722,-76 693.69,-62.6 664.68,-40.77 646.75,-26.16"/>
<polygon fill="midnightblue" stroke="midnightblue" points="648.82,-23.33 638.89,-19.63 644.35,-28.71 648.82,-23.33"/>
</g>
<!-- Node8 -->
<g id="node8" class="node">
<title>Node8</title>
<g id="a_node8"><a xlink:href="_field_utils_8_h.html" target="_top" xlink:title=" ">
<polygon fill="white" stroke="black" points="0,-56.5 0,-75.5 146,-75.5 146,-56.5 0,-56.5"/>
<text text-anchor="middle" x="73" y="-63.5" font-family="Helvetica,sans-Serif" font-size="10.00">amr&#45;wind/core/FieldUtils.H</text>
</a>
</g>
</g>
<!-- Node4&#45;&gt;Node8 -->
<g id="edge7" class="edge">
<title>Node4&#45;&gt;Node8</title>
<path fill="none" stroke="midnightblue" d="M1144.44,-176.37C918.62,-174.12 251.93,-164.73 160,-132 131.56,-121.88 104.67,-98.99 88.51,-83.27"/>
<polygon fill="midnightblue" stroke="midnightblue" points="90.62,-80.43 81.09,-75.81 85.66,-85.36 90.62,-80.43"/>
</g>
<!-- Node9 -->
<g id="node9" class="node">
<title>Node9</title>
<g id="a_node9"><a xlink:title=" ">
<polygon fill="white" stroke="#bfbfbf" points="157.5,-0.5 157.5,-19.5 266.5,-19.5 266.5,-0.5 157.5,-0.5"/>
<text text-anchor="middle" x="212" y="-7.5" font-family="Helvetica,sans-Serif" font-size="10.00">AMReX_MultiFab.H</text>
</a>
</g>
</g>
<!-- Node4&#45;&gt;Node9 -->
<g id="edge38" class="edge">
<title>Node4&#45;&gt;Node9</title>
<path fill="none" stroke="midnightblue" d="M1144.3,-175.79C968.09,-172.48 530.56,-161.47 387,-132 316.07,-117.44 284.57,-127.83 234,-76 221.92,-63.62 216.47,-44.38 214.01,-30.03"/>
<polygon fill="midnightblue" stroke="midnightblue" points="217.43,-29.24 212.61,-19.81 210.5,-30.19 217.43,-29.24"/>
</g>
<!-- Node11 -->
<g id="node11" class="node">
<title>Node11</title>
<g id="a_node11"><a xlink:href="_field_8_h.html" target="_top" xlink:title=" ">
<polygon fill="white" stroke="black" points="930,-112.5 930,-131.5 1054,-131.5 1054,-112.5 930,-112.5"/>
<text text-anchor="middle" x="992" y="-119.5" font-family="Helvetica,sans-Serif" font-size="10.00">amr&#45;wind/core/Field.H</text>
</a>
</g>
</g>
<!-- Node4&#45;&gt;Node11 -->
<g id="edge11" class="edge">
<title>Node4&#45;&gt;Node11</title>
<path fill="none" stroke="midnightblue" d="M1183.03,-168.44C1143.68,-159.08 1080.51,-144.06 1037.69,-133.87"/>
<polygon fill="midnightblue" stroke="midnightblue" points="1038.34,-130.43 1027.8,-131.52 1036.72,-137.24 1038.34,-130.43"/>
</g>
<!-- Node19 -->
<g id="node19" class="node">
<title>Node19</title>
<g id="a_node19"><a xlink:href="_int_field_8_h.html" target="_top" xlink:title=" ">
<polygon fill="white" stroke="black" points="1492.5,-112.5 1492.5,-131.5 1629.5,-131.5 1629.5,-112.5 1492.5,-112.5"/>
<text text-anchor="middle" x="1561" y="-119.5" font-family="Helvetica,sans-Serif" font-size="10.00">amr&#45;wind/core/IntField.H</text>
</a>
</g>
</g>
<!-- Node4&#45;&gt;Node19 -->
<g id="edge26" class="edge">
<title>Node4&#45;&gt;Node19</title>
<path fill="none" stroke="midnightblue" d="M1273.19,-168.44C1333.98,-158.85 1432.49,-143.29 1497.01,-133.1"/>
<polygon fill="midnightblue" stroke="midnightblue" points="1497.73,-136.53 1507.06,-131.52 1496.64,-129.62 1497.73,-136.53"/>
</g>
<!-- Node20 -->
<g id="node20" class="node">
<title>Node20</title>
<g id="a_node20"><a xlink:title=" ">
<polygon fill="white" stroke="#bfbfbf" points="1474,-56.5 1474,-75.5 1586,-75.5 1586,-56.5 1474,-56.5"/>
<text text-anchor="middle" x="1530" y="-63.5" font-family="Helvetica,sans-Serif" font-size="10.00">AMReX_iMultiFab.H</text>
</a>
</g>
</g>
<!-- Node4&#45;&gt;Node20 -->
<g id="edge39" class="edge">
<title>Node4&#45;&gt;Node20</title>
<path fill="none" stroke="midnightblue" d="M1243.14,-168.46C1298.15,-149.01 1432.87,-101.36 1496.14,-78.98"/>
<polygon fill="midnightblue" stroke="midnightblue" points="1497.4,-82.24 1505.66,-75.61 1495.06,-75.65 1497.4,-82.24"/>
</g>
<!-- Node21 -->
<g id="node21" class="node">
<title>Node21</title>
<g id="a_node21"><a xlink:href="_scratch_field_8_h.html" target="_top" xlink:title=" ">
<polygon fill="white" stroke="black" points="396,-112.5 396,-131.5 556,-131.5 556,-112.5 396,-112.5"/>
<text text-anchor="middle" x="476" y="-119.5" font-family="Helvetica,sans-Serif" font-size="10.00">amr&#45;wind/core/ScratchField.H</text>
</a>
</g>
</g>
<!-- Node4&#45;&gt;Node21 -->
<g id="edge30" class="edge">
<title>Node4&#45;&gt;Node21</title>
<path fill="none" stroke="midnightblue" d="M1144.36,-171.58C1006.94,-161.59 714.45,-140.33 566.18,-129.55"/>
<polygon fill="midnightblue" stroke="midnightblue" points="566.42,-126.06 556.2,-128.83 565.92,-133.04 566.42,-126.06"/>
</g>
<!-- Node23 -->
<g id="node23" class="node">
<title>Node23</title>
<g id="a_node23"><a xlink:title=" ">
<polygon fill="white" stroke="#bfbfbf" points="1164,-112.5 1164,-131.5 1274,-131.5 1274,-112.5 1164,-112.5"/>
<text text-anchor="middle" x="1219" y="-119.5" font-family="Helvetica,sans-Serif" font-size="10.00">AMReX_AmrCore.H</text>
</a>
</g>
</g>
<!-- Node4&#45;&gt;Node23 -->
<g id="edge37" class="edge">
<title>Node4&#45;&gt;Node23</title>
<path fill="none" stroke="midnightblue" d="M1219,-168.08C1219,-161.01 1219,-150.86 1219,-141.99"/>
<polygon fill="midnightblue" stroke="midnightblue" points="1222.5,-141.75 1219,-131.75 1215.5,-141.75 1222.5,-141.75"/>
</g>
<!-- Node8&#45;&gt;Node7 -->
<g id="edge8" class="edge">
<title>Node8&#45;&gt;Node7</title>
<path fill="none" stroke="midnightblue" d="M146.26,-57.88C245.06,-48.29 421.27,-31.18 531.27,-20.49"/>
<polygon fill="midnightblue" stroke="midnightblue" points="531.76,-23.96 541.37,-19.51 531.08,-16.99 531.76,-23.96"/>
</g>
<!-- Node8&#45;&gt;Node9 -->
<g id="edge9" class="edge">
<title>Node8&#45;&gt;Node9</title>
<path fill="none" stroke="midnightblue" d="M95.02,-56.44C118.1,-47.48 154.56,-33.31 180.64,-23.18"/>
<polygon fill="midnightblue" stroke="midnightblue" points="182.02,-26.4 190.08,-19.52 179.49,-19.88 182.02,-26.4"/>
</g>
<!-- Node10 -->
<g id="node10" class="node">
<title>Node10</title>
<g id="a_node10"><a xlink:title=" ">
<polygon fill="white" stroke="#bfbfbf" points="11,-0.5 11,-19.5 135,-19.5 135,-0.5 11,-0.5"/>
<text text-anchor="middle" x="73" y="-7.5" font-family="Helvetica,sans-Serif" font-size="10.00">AMReX_Interpolater.H</text>
</a>
</g>
</g>
<!-- Node8&#45;&gt;Node10 -->
<g id="edge10" class="edge">
<title>Node8&#45;&gt;Node10</title>
<path fill="none" stroke="midnightblue" d="M73,-56.08C73,-49.01 73,-38.86 73,-29.99"/>
<polygon fill="midnightblue" stroke="midnightblue" points="76.5,-29.75 73,-19.75 69.5,-29.75 76.5,-29.75"/>
</g>
<!-- Node11&#45;&gt;Node5 -->
<g id="edge12" class="edge">
<title>Node11&#45;&gt;Node5</title>
<path fill="none" stroke="midnightblue" d="M1054.08,-115.91C1142.06,-108.16 1294.58,-92.54 1314,-76 1327.32,-64.65 1331.92,-44.66 1333.43,-29.83"/>
<polygon fill="midnightblue" stroke="midnightblue" points="1336.93,-29.93 1334.08,-19.73 1329.95,-29.48 1336.93,-29.93"/>
</g>
<!-- Node11&#45;&gt;Node6 -->
<g id="edge14" class="edge">
<title>Node11&#45;&gt;Node6</title>
<path fill="none" stroke="midnightblue" d="M1054.11,-113.54C1125.19,-104.92 1245.08,-90.1 1348,-76 1349.46,-75.8 1350.94,-75.6 1352.43,-75.39"/>
<polygon fill="midnightblue" stroke="midnightblue" points="1352.98,-78.85 1362.39,-73.98 1352,-71.91 1352.98,-78.85"/>
</g>
<!-- Node11&#45;&gt;Node7 -->
<g id="edge20" class="edge">
<title>Node11&#45;&gt;Node7</title>
<path fill="none" stroke="midnightblue" d="M934.02,-112.45C889.8,-105.1 827.74,-92.99 775,-76 731.3,-61.92 683.09,-38.88 654.46,-24.35"/>
<polygon fill="midnightblue" stroke="midnightblue" points="655.68,-21.05 645.19,-19.59 652.49,-27.27 655.68,-21.05"/>
</g>
<!-- Node11&#45;&gt;Node9 -->
<g id="edge16" class="edge">
<title>Node11&#45;&gt;Node9</title>
<path fill="none" stroke="midnightblue" d="M929.98,-118.65C835.5,-114.33 650.13,-102.98 495,-76 460.17,-69.94 452.39,-64.22 418,-56 365.54,-43.46 305.22,-30.45 263.47,-21.66"/>
<polygon fill="midnightblue" stroke="midnightblue" points="264.04,-18.21 253.54,-19.58 262.61,-25.06 264.04,-18.21"/>
</g>
<!-- Node12 -->
<g id="node12" class="node">
<title>Node12</title>
<g id="a_node12"><a xlink:title=" ">
<polygon fill="white" stroke="#bfbfbf" points="784,-56.5 784,-75.5 842,-75.5 842,-56.5 784,-56.5"/>
<text text-anchor="middle" x="813" y="-63.5" font-family="Helvetica,sans-Serif" font-size="10.00">memory</text>
</a>
</g>
</g>
<!-- Node11&#45;&gt;Node12 -->
<g id="edge13" class="edge">
<title>Node11&#45;&gt;Node12</title>
<path fill="none" stroke="midnightblue" d="M963.64,-112.44C933.26,-103.28 884.89,-88.69 851.18,-78.52"/>
<polygon fill="midnightblue" stroke="midnightblue" points="851.82,-75.05 841.23,-75.52 849.79,-81.76 851.82,-75.05"/>
</g>
<!-- Node13 -->
<g id="node13" class="node">
<title>Node13</title>
<g id="a_node13"><a xlink:title=" ">
<polygon fill="white" stroke="#bfbfbf" points="860,-56.5 860,-75.5 924,-75.5 924,-56.5 860,-56.5"/>
<text text-anchor="middle" x="892" y="-63.5" font-family="Helvetica,sans-Serif" font-size="10.00">algorithm</text>
</a>
</g>
</g>
<!-- Node11&#45;&gt;Node13 -->
<g id="edge15" class="edge">
<title>Node11&#45;&gt;Node13</title>
<path fill="none" stroke="midnightblue" d="M975.93,-112.32C960.04,-103.74 935.49,-90.49 917.04,-80.52"/>
<polygon fill="midnightblue" stroke="midnightblue" points="918.49,-77.33 908.03,-75.65 915.16,-83.49 918.49,-77.33"/>
</g>
<!-- Node14 -->
<g id="node14" class="node">
<title>Node14</title>
<g id="a_node14"><a xlink:title=" ">
<polygon fill="white" stroke="#bfbfbf" points="942.5,-56.5 942.5,-75.5 1041.5,-75.5 1041.5,-56.5 942.5,-56.5"/>
<text text-anchor="middle" x="992" y="-63.5" font-family="Helvetica,sans-Serif" font-size="10.00">AMReX_BCRec.H</text>
</a>
</g>
</g>
<!-- Node11&#45;&gt;Node14 -->
<g id="edge17" class="edge">
<title>Node11&#45;&gt;Node14</title>
<path fill="none" stroke="midnightblue" d="M992,-112.08C992,-105.01 992,-94.86 992,-85.99"/>
<polygon fill="midnightblue" stroke="midnightblue" points="995.5,-85.75 992,-75.75 988.5,-85.75 995.5,-85.75"/>
</g>
<!-- Node15 -->
<g id="node15" class="node">
<title>Node15</title>
<g id="a_node15"><a xlink:title=" ">
<polygon fill="white" stroke="#bfbfbf" points="1059.5,-56.5 1059.5,-75.5 1146.5,-75.5 1146.5,-56.5 1059.5,-56.5"/>
<text text-anchor="middle" x="1103" y="-63.5" font-family="Helvetica,sans-Serif" font-size="10.00">AMReX_Gpu.H</text>
</a>
</g>
</g>
<!-- Node11&#45;&gt;Node15 -->
<g id="edge18" class="edge">
<title>Node11&#45;&gt;Node15</title>
<path fill="none" stroke="midnightblue" d="M1009.83,-112.32C1027.72,-103.62 1055.48,-90.12 1076.05,-80.11"/>
<polygon fill="midnightblue" stroke="midnightblue" points="1077.75,-83.18 1085.21,-75.65 1074.69,-76.88 1077.75,-83.18"/>
</g>
<!-- Node16 -->
<g id="node16" class="node">
<title>Node16</title>
<g id="a_node16"><a xlink:href="incflo__enums_8_h.html" target="_top" xlink:title=" ">
<polygon fill="white" stroke="black" points="1164.5,-56.5 1164.5,-75.5 1305.5,-75.5 1305.5,-56.5 1164.5,-56.5"/>
<text text-anchor="middle" x="1235" y="-63.5" font-family="Helvetica,sans-Serif" font-size="10.00">amr&#45;wind/incflo_enums.H</text>
</a>
</g>
</g>
<!-- Node11&#45;&gt;Node16 -->
<g id="edge19" class="edge">
<title>Node11&#45;&gt;Node16</title>
<path fill="none" stroke="midnightblue" d="M1030.5,-112.44C1072.81,-103.04 1140.82,-87.93 1186.67,-77.74"/>
<polygon fill="midnightblue" stroke="midnightblue" points="1187.67,-81.1 1196.68,-75.52 1186.15,-74.27 1187.67,-81.1"/>
</g>
<!-- Node17 -->
<g id="node17" class="node">
<title>Node17</title>
<g id="a_node17"><a xlink:href="_view_field_8_h.html" target="_top" xlink:title=" ">
<polygon fill="white" stroke="black" points="504,-56.5 504,-75.5 652,-75.5 652,-56.5 504,-56.5"/>
<text text-anchor="middle" x="578" y="-63.5" font-family="Helvetica,sans-Serif" font-size="10.00">amr&#45;wind/core/ViewField.H</text>
</a>
</g>
</g>
<!-- Node11&#45;&gt;Node17 -->
<g id="edge21" class="edge">
<title>Node11&#45;&gt;Node17</title>
<path fill="none" stroke="midnightblue" d="M929.57,-112.86C855.75,-103.23 732.92,-87.21 653.73,-76.88"/>
<polygon fill="midnightblue" stroke="midnightblue" points="653.7,-73.34 643.33,-75.52 652.8,-80.29 653.7,-73.34"/>
</g>
<!-- Node17&#45;&gt;Node5 -->
<g id="edge22" class="edge">
<title>Node17&#45;&gt;Node5</title>
<path fill="none" stroke="midnightblue" d="M652.21,-59.7C813.31,-48.19 1189.6,-21.31 1301.84,-13.3"/>
<polygon fill="midnightblue" stroke="midnightblue" points="1302.14,-16.78 1311.87,-12.58 1301.64,-9.8 1302.14,-16.78"/>
</g>
<!-- Node17&#45;&gt;Node7 -->
<g id="edge23" class="edge">
<title>Node17&#45;&gt;Node7</title>
<path fill="none" stroke="midnightblue" d="M586.42,-56.08C593.85,-48.22 604.85,-36.57 613.81,-27.08"/>
<polygon fill="midnightblue" stroke="midnightblue" points="616.41,-29.42 620.74,-19.75 611.32,-24.62 616.41,-29.42"/>
</g>
<!-- Node17&#45;&gt;Node9 -->
<g id="edge24" class="edge">
<title>Node17&#45;&gt;Node9</title>
<path fill="none" stroke="midnightblue" d="M520.01,-56.44C453.86,-46.68 345.98,-30.77 277.03,-20.6"/>
<polygon fill="midnightblue" stroke="midnightblue" points="277.14,-17.07 266.73,-19.08 276.12,-24 277.14,-17.07"/>
</g>
<!-- Node18 -->
<g id="node18" class="node">
<title>Node18</title>
<g id="a_node18"><a xlink:title=" ">
<polygon fill="white" stroke="#bfbfbf" points="381,-0.5 381,-19.5 479,-19.5 479,-0.5 381,-0.5"/>
<text text-anchor="middle" x="430" y="-7.5" font-family="Helvetica,sans-Serif" font-size="10.00">AMReX_Vector.H</text>
</a>
</g>
</g>
<!-- Node17&#45;&gt;Node18 -->
<g id="edge25" class="edge">
<title>Node17&#45;&gt;Node18</title>
<path fill="none" stroke="midnightblue" d="M554.55,-56.44C529.87,-47.44 490.81,-33.19 463.02,-23.05"/>
<polygon fill="midnightblue" stroke="midnightblue" points="463.94,-19.66 453.34,-19.52 461.54,-26.23 463.94,-19.66"/>
</g>
<!-- Node19&#45;&gt;Node5 -->
<g id="edge27" class="edge">
<title>Node19&#45;&gt;Node5</title>
<path fill="none" stroke="midnightblue" d="M1581.54,-112.47C1607.5,-100.51 1646.69,-77.76 1628,-56 1594.55,-17.05 1435.66,-11.46 1366.4,-10.9"/>
<polygon fill="midnightblue" stroke="midnightblue" points="1366.11,-7.4 1356.09,-10.85 1366.07,-14.4 1366.11,-7.4"/>
</g>
<!-- Node19&#45;&gt;Node7 -->
<g id="edge28" class="edge">
<title>Node19&#45;&gt;Node7</title>
<path fill="none" stroke="midnightblue" d="M1571.4,-112.49C1586.54,-99.11 1611.18,-72.95 1595,-56 1565.38,-24.96 967.01,-14.8 727.17,-11.96"/>
<polygon fill="midnightblue" stroke="midnightblue" points="727.1,-8.46 717.06,-11.85 727.02,-15.46 727.1,-8.46"/>
</g>
<!-- Node19&#45;&gt;Node20 -->
<g id="edge29" class="edge">
<title>Node19&#45;&gt;Node20</title>
<path fill="none" stroke="midnightblue" d="M1555.88,-112.08C1551.59,-104.61 1545.34,-93.72 1540.06,-84.52"/>
<polygon fill="midnightblue" stroke="midnightblue" points="1543.04,-82.68 1535.02,-75.75 1536.97,-86.17 1543.04,-82.68"/>
</g>
<!-- Node21&#45;&gt;Node5 -->
<g id="edge31" class="edge">
<title>Node21&#45;&gt;Node5</title>
<path fill="none" stroke="midnightblue" d="M508.48,-112.44C563.1,-98.39 677,-70.53 775,-56 973.8,-26.52 1215.45,-15.33 1301.59,-12.09"/>
<polygon fill="midnightblue" stroke="midnightblue" points="1301.91,-15.58 1311.78,-11.72 1301.65,-8.59 1301.91,-15.58"/>
</g>
<!-- Node21&#45;&gt;Node7 -->
<g id="edge32" class="edge">
<title>Node21&#45;&gt;Node7</title>
<path fill="none" stroke="midnightblue" d="M476.11,-112.17C476.75,-98.35 480.01,-71.6 495,-56 511,-39.35 533.34,-28.87 555.19,-22.26"/>
<polygon fill="midnightblue" stroke="midnightblue" points="556.15,-25.62 564.84,-19.57 554.27,-18.88 556.15,-25.62"/>
</g>
<!-- Node21&#45;&gt;Node9 -->
<g id="edge34" class="edge">
<title>Node21&#45;&gt;Node9</title>
<path fill="none" stroke="midnightblue" d="M395.97,-118.59C352.2,-113.97 298.75,-102.65 258,-76 240.52,-64.56 227.64,-43.98 220.03,-29.03"/>
<polygon fill="midnightblue" stroke="midnightblue" points="223.08,-27.28 215.61,-19.76 216.76,-30.3 223.08,-27.28"/>
</g>
<!-- Node21&#45;&gt;Node17 -->
<g id="edge33" class="edge">
<title>Node21&#45;&gt;Node17</title>
<path fill="none" stroke="midnightblue" d="M492.39,-112.32C508.67,-103.7 533.87,-90.36 552.72,-80.39"/>
<polygon fill="midnightblue" stroke="midnightblue" points="554.45,-83.43 561.65,-75.65 551.18,-77.24 554.45,-83.43"/>
</g>
<!-- Node21&#45;&gt;Node18 -->
<g id="edge35" class="edge">
<title>Node21&#45;&gt;Node18</title>
<path fill="none" stroke="midnightblue" d="M395.86,-113.86C344.69,-107.46 285.04,-95.9 269,-76 237.95,-37.48 312.91,-21.63 370.7,-15.22"/>
<polygon fill="midnightblue" stroke="midnightblue" points="371.31,-18.68 380.9,-14.17 370.59,-11.71 371.31,-18.68"/>
</g>
<!-- Node22 -->
<g id="node22" class="node">
<title>Node22</title>
<g id="a_node22"><a xlink:title=" ">
<polygon fill="white" stroke="#bfbfbf" points="278.5,-56.5 278.5,-75.5 409.5,-75.5 409.5,-56.5 278.5,-56.5"/>
<text text-anchor="middle" x="344" y="-63.5" font-family="Helvetica,sans-Serif" font-size="10.00">AMReX_PhysBCFunct.H</text>
</a>
</g>
</g>
<!-- Node21&#45;&gt;Node22 -->
<g id="edge36" class="edge">
<title>Node21&#45;&gt;Node22</title>
<path fill="none" stroke="midnightblue" d="M455.08,-112.44C433.26,-103.52 398.85,-89.44 374.11,-79.32"/>
<polygon fill="midnightblue" stroke="midnightblue" points="375.4,-76.06 364.82,-75.52 372.75,-82.54 375.4,-76.06"/>
</g>
<!-- Node25 -->
<g id="node25" class="node">
<title>Node25</title>
<g id="a_node25"><a xlink:title=" ">
<polygon fill="white" stroke="#bfbfbf" points="1858,-112.5 1858,-131.5 1950,-131.5 1950,-112.5 1858,-112.5"/>
<text text-anchor="middle" x="1904" y="-119.5" font-family="Helvetica,sans-Serif" font-size="10.00">AMReX_REAL.H</text>
</a>
</g>
</g>
<!-- Node24&#45;&gt;Node25 -->
<g id="edge41" class="edge">
<title>Node24&#45;&gt;Node25</title>
<path fill="none" stroke="midnightblue" d="M1882.29,-168.08C1885.85,-160.69 1891.02,-149.95 1895.42,-140.81"/>
<polygon fill="midnightblue" stroke="midnightblue" points="1898.6,-142.28 1899.79,-131.75 1892.29,-139.24 1898.6,-142.28"/>
</g>
<!-- Node26 -->
<g id="node26" class="node">
<title>Node26</title>
<g id="a_node26"><a xlink:title=" ">
<polygon fill="white" stroke="#bfbfbf" points="1968,-112.5 1968,-131.5 2054,-131.5 2054,-112.5 1968,-112.5"/>
<text text-anchor="middle" x="2011" y="-119.5" font-family="Helvetica,sans-Serif" font-size="10.00">AMReX_Box.H</text>
</a>
</g>
</g>
<!-- Node24&#45;&gt;Node26 -->
<g id="edge42" class="edge">
<title>Node24&#45;&gt;Node26</title>
<path fill="none" stroke="midnightblue" d="M1899.07,-168.44C1921.06,-159.52 1955.73,-145.44 1980.66,-135.32"/>
<polygon fill="midnightblue" stroke="midnightblue" points="1982.08,-138.52 1990.02,-131.52 1979.44,-132.04 1982.08,-138.52"/>
</g>
<!-- Node27 -->
<g id="node27" class="node">
<title>Node27</title>
<g id="a_node27"><a xlink:title=" ">
<polygon fill="white" stroke="#bfbfbf" points="1718,-112.5 1718,-131.5 1840,-131.5 1840,-112.5 1718,-112.5"/>
<text text-anchor="middle" x="1779" y="-119.5" font-family="Helvetica,sans-Serif" font-size="10.00">AMReX_Orientation.H</text>
</a>
</g>
</g>
<!-- Node24&#45;&gt;Node27 -->
<g id="edge43" class="edge">
<title>Node24&#45;&gt;Node27</title>
<path fill="none" stroke="midnightblue" d="M1862.09,-168.32C1846.36,-159.74 1822.06,-146.49 1803.79,-136.52"/>
<polygon fill="midnightblue" stroke="midnightblue" points="1805.32,-133.37 1794.87,-131.65 1801.97,-139.52 1805.32,-133.37"/>
</g>
<!-- Node28 -->
<g id="node28" class="node">
<title>Node28</title>
<g id="a_node28"><a xlink:title=" ">
<polygon fill="white" stroke="#bfbfbf" points="2123.5,-112.5 2123.5,-131.5 2238.5,-131.5 2238.5,-112.5 2123.5,-112.5"/>
<text text-anchor="middle" x="2181" y="-119.5" font-family="Helvetica,sans-Serif" font-size="10.00">AMReX_Geometry.H</text>
</a>
</g>
</g>
<!-- Node24&#45;&gt;Node28 -->
<g id="edge44" class="edge">
<title>Node24&#45;&gt;Node28</title>
<path fill="none" stroke="midnightblue" d="M1926.01,-168.44C1979.53,-158.9 2066.07,-143.48 2123.24,-133.29"/>
<polygon fill="midnightblue" stroke="midnightblue" points="2123.98,-136.72 2133.21,-131.52 2122.75,-129.83 2123.98,-136.72"/>
</g>
<!-- Node30&#45;&gt;Node3 -->
<g id="edge47" class="edge">
<title>Node30&#45;&gt;Node3</title>
<path fill="none" stroke="midnightblue" d="M1941.18,-285.98C1896.81,-275.42 1821.16,-257.41 1772.67,-245.87"/>
<polygon fill="midnightblue" stroke="midnightblue" points="1773.29,-242.42 1762.75,-243.51 1771.67,-249.23 1773.29,-242.42"/>
</g>
<!-- Node30&#45;&gt;Node28 -->
<g id="edge49" class="edge">
<title>Node30&#45;&gt;Node28</title>
<path fill="none" stroke="midnightblue" d="M1975.19,-285.79C1971.05,-263.15 1963.42,-201.89 1994,-168 2010,-150.27 2066.47,-138.31 2113.22,-131.2"/>
<polygon fill="midnightblue" stroke="midnightblue" points="2113.94,-134.63 2123.33,-129.71 2112.93,-127.71 2113.94,-134.63"/>
</g>
<!-- Node30&#45;&gt;Node29 -->
<g id="edge50" class="edge">
<title>Node30&#45;&gt;Node29</title>
<path fill="none" stroke="midnightblue" d="M1982.64,-285.82C1994.96,-266.84 2024.5,-221.35 2040.77,-196.29"/>
<polygon fill="midnightblue" stroke="midnightblue" points="2043.79,-198.08 2046.3,-187.78 2037.92,-194.26 2043.79,-198.08"/>
</g>
<!-- Node31 -->
<g id="node31" class="node">
<title>Node31</title>
<g id="a_node31"><a xlink:title=" ">
<polygon fill="white" stroke="#bfbfbf" points="2079,-224.5 2079,-243.5 2179,-243.5 2179,-224.5 2079,-224.5"/>
<text text-anchor="middle" x="2129" y="-231.5" font-family="Helvetica,sans-Serif" font-size="10.00">AMReX_Array4.H</text>
</a>
</g>
</g>
<!-- Node30&#45;&gt;Node31 -->
<g id="edge48" class="edge">
<title>Node30&#45;&gt;Node31</title>
<path fill="none" stroke="midnightblue" d="M1998.78,-285.98C2024.74,-275.81 2068.31,-258.76 2097.83,-247.2"/>
<polygon fill="midnightblue" stroke="midnightblue" points="2099.23,-250.41 2107.26,-243.51 2096.67,-243.9 2099.23,-250.41"/>
</g>
<!-- Node32&#45;&gt;Node3 -->
<g id="edge52" class="edge">
<title>Node32&#45;&gt;Node3</title>
<path fill="none" stroke="midnightblue" d="M2238.47,-285.99C2226.69,-283.83 2213.88,-281.65 2202,-280 2065.05,-260.98 1904.75,-247.63 1809.77,-240.65"/>
<polygon fill="midnightblue" stroke="midnightblue" points="1809.88,-237.14 1799.65,-239.91 1809.37,-244.13 1809.88,-237.14"/>
</g>
<!-- Node32&#45;&gt;Node28 -->
<g id="edge54" class="edge">
<title>Node32&#45;&gt;Node28</title>
<path fill="none" stroke="midnightblue" d="M2276.09,-285.88C2264.41,-265.38 2233.98,-212.14 2208,-168 2202.62,-158.86 2196.55,-148.72 2191.53,-140.39"/>
<polygon fill="midnightblue" stroke="midnightblue" points="2194.39,-138.35 2186.22,-131.6 2188.39,-141.97 2194.39,-138.35"/>
</g>
<!-- Node32&#45;&gt;Node29 -->
<g id="edge55" class="edge">
<title>Node32&#45;&gt;Node29</title>
<path fill="none" stroke="midnightblue" d="M2271.94,-285.97C2256.07,-271.44 2221.71,-241.73 2188,-224 2159.6,-209.07 2125.28,-197.76 2098.23,-190.21"/>
<polygon fill="midnightblue" stroke="midnightblue" points="2098.81,-186.74 2088.24,-187.5 2096.98,-193.5 2098.81,-186.74"/>
</g>
<!-- Node32&#45;&gt;Node31 -->
<g id="edge53" class="edge">
<title>Node32&#45;&gt;Node31</title>
<path fill="none" stroke="midnightblue" d="M2259.22,-285.98C2233.26,-275.81 2189.69,-258.76 2160.17,-247.2"/>
<polygon fill="midnightblue" stroke="midnightblue" points="2161.33,-243.9 2150.74,-243.51 2158.77,-250.41 2161.33,-243.9"/>
</g>
<!-- Node33&#45;&gt;Node3 -->
<g id="edge57" class="edge">
<title>Node33&#45;&gt;Node3</title>
<path fill="none" stroke="midnightblue" d="M1657.61,-285.98C1670.48,-276.52 1691.47,-261.1 1707.01,-249.69"/>
<polygon fill="midnightblue" stroke="midnightblue" points="1709.43,-252.25 1715.42,-243.51 1705.28,-246.61 1709.43,-252.25"/>
</g>
<!-- Node34&#45;&gt;Node3 -->
<g id="edge59" class="edge">
<title>Node34&#45;&gt;Node3</title>
<path fill="none" stroke="midnightblue" d="M1797.25,-285.98C1784.22,-276.52 1762.96,-261.1 1747.24,-249.69"/>
<polygon fill="midnightblue" stroke="midnightblue" points="1748.88,-246.55 1738.73,-243.51 1744.77,-252.21 1748.88,-246.55"/>
</g>
<!-- Node35&#45;&gt;Node3 -->
<g id="edge61" class="edge">
<title>Node35&#45;&gt;Node3</title>
<path fill="none" stroke="midnightblue" d="M1052.15,-285.95C1064,-283.73 1076.98,-281.54 1089,-280 1287.46,-254.64 1522.61,-242.68 1644.49,-237.83"/>
<polygon fill="midnightblue" stroke="midnightblue" points="1644.64,-241.33 1654.5,-237.44 1644.37,-234.33 1644.64,-241.33"/>
</g>
<!-- Node36&#45;&gt;Node3 -->
<g id="edge63" class="edge">
<title>Node36&#45;&gt;Node3</title>
<path fill="none" stroke="midnightblue" d="M1227.51,-281.46C1230.71,-280.94 1233.89,-280.45 1237,-280 1379.52,-259.55 1546.76,-246.52 1644.4,-240.01"/>
<polygon fill="midnightblue" stroke="midnightblue" points="1644.75,-243.49 1654.5,-239.34 1644.29,-236.51 1644.75,-243.49"/>
</g>
<!-- Node37&#45;&gt;Node3 -->
<g id="edge65" class="edge">
<title>Node37&#45;&gt;Node3</title>
<path fill="none" stroke="midnightblue" d="M1365.35,-285.99C1376.98,-283.94 1389.43,-281.82 1401,-280 1485.95,-266.63 1583.71,-253.43 1649.84,-244.81"/>
<polygon fill="midnightblue" stroke="midnightblue" points="1650.31,-248.28 1659.77,-243.52 1649.41,-241.34 1650.31,-248.28"/>
</g>
<!-- Node38&#45;&gt;Node3 -->
<g id="edge67" class="edge">
<title>Node38&#45;&gt;Node3</title>
<path fill="none" stroke="midnightblue" d="M2093.77,-285.94C2083.79,-283.85 2073.01,-281.72 2063,-280 1977.07,-265.24 1878.07,-252.49 1809.91,-244.37"/>
<polygon fill="midnightblue" stroke="midnightblue" points="1810,-240.86 1799.66,-243.16 1809.18,-247.81 1810,-240.86"/>
</g>
<!-- Node38&#45;&gt;Node28 -->
<g id="edge69" class="edge">
<title>Node38&#45;&gt;Node28</title>
<path fill="none" stroke="midnightblue" d="M2147.16,-285.95C2160.72,-277.33 2179.7,-262.66 2188,-244 2202.98,-210.32 2194.18,-166.08 2187.13,-141.5"/>
<polygon fill="midnightblue" stroke="midnightblue" points="2190.4,-140.22 2184.11,-131.7 2183.71,-142.28 2190.4,-140.22"/>
</g>
<!-- Node38&#45;&gt;Node29 -->
<g id="edge70" class="edge">
<title>Node38&#45;&gt;Node29</title>
<path fill="none" stroke="midnightblue" d="M2116.7,-285.87C2102.54,-277.11 2081.92,-262.25 2070,-244 2060.89,-230.06 2056.35,-211.55 2054.11,-197.85"/>
<polygon fill="midnightblue" stroke="midnightblue" points="2057.54,-197.12 2052.72,-187.68 2050.61,-198.06 2057.54,-197.12"/>
</g>
<!-- Node38&#45;&gt;Node31 -->
<g id="edge68" class="edge">
<title>Node38&#45;&gt;Node31</title>
<path fill="none" stroke="midnightblue" d="M2131.57,-285.98C2131.15,-277.58 2130.49,-264.48 2129.94,-253.66"/>
<polygon fill="midnightblue" stroke="midnightblue" points="2133.43,-253.32 2129.43,-243.51 2126.44,-253.67 2133.43,-253.32"/>
</g>
</g>
</svg>
        <g id="navigator" transform="translate(0 0)" fill="#404254">
                <rect fill="#f2f5e9" fill-opacity="0.5" stroke="#606060" stroke-width=".5" x="0" y="0" width="60" height="60"/>
                <use id="zoomplus" xlink:href="#zoomPlus" x="17" y="9" onmousedown="handleZoom(evt,'in')"/>
                <use id="zoomminus" xlink:href="#zoomMin" x="42" y="9" onmousedown="handleZoom(evt,'out')"/>
                <use id="reset" xlink:href="#resetDef" x="30" y="36" onmousedown="handleReset()"/>
                <g id="arrowUp" xlink:href="#dirArrow" transform="translate(30 24)" onmousedown="handlePan(0,-1)">
                  <use xlink:href="#rim" fill="#404040">
                        <set attributeName="fill" to="#808080" begin="arrowUp.mouseover" end="arrowUp.mouseout"/>
                  </use>
                  <path fill="none" stroke="white" stroke-width="1.5" d="M0,-3.0v7 M-2.5,-0.5L0,-3.0L2.5,-0.5"/>
                </g>
                <g id="arrowRight" xlink:href="#dirArrow" transform="rotate(90) translate(36 -43)" onmousedown="handlePan(1,0)">
                  <use xlink:href="#rim" fill="#404040">
                        <set attributeName="fill" to="#808080" begin="arrowRight.mouseover" end="arrowRight.mouseout"/>
                  </use>
                  <path fill="none" stroke="white" stroke-width="1.5" d="M0,-3.0v7 M-2.5,-0.5L0,-3.0L2.5,-0.5"/>
                </g>
                <g id="arrowDown" xlink:href="#dirArrow" transform="rotate(180) translate(-30 -48)" onmousedown="handlePan(0,1)">
                  <use xlink:href="#rim" fill="#404040">
                        <set attributeName="fill" to="#808080" begin="arrowDown.mouseover" end="arrowDown.mouseout"/>
                  </use>
                  <path fill="none" stroke="white" stroke-width="1.5" d="M0,-3.0v7 M-2.5,-0.5L0,-3.0L2.5,-0.5"/>
                </g>
                <g id="arrowLeft" xlink:href="#dirArrow" transform="rotate(270) translate(-36 17)" onmousedown="handlePan(-1,0)">
                  <use xlink:href="#rim" fill="#404040">
                        <set attributeName="fill" to="#808080" begin="arrowLeft.mouseover" end="arrowLeft.mouseout"/>
                  </use>
                  <path fill="none" stroke="white" stroke-width="1.5" d="M0,-3.0v7 M-2.5,-0.5L0,-3.0L2.5,-0.5"/>
                </g>
        </g>
        <svg viewBox="0 0 15 15" width="100%" height="30px" preserveAspectRatio="xMaxYMin meet">
         <g id="arrow_out" transform="scale(0.3 0.3)">
          <a xlink:href="fvm_8_h__incl_org.svg" target="_base">
           <rect id="button" ry="5" rx="5" y="6" x="6" height="38" width="38"
                fill="#f2f5e9" fill-opacity="0.5" stroke="#606060" stroke-width="1.0"/>
           <path id="arrow"
             d="M 11.500037,31.436501 C 11.940474,20.09759 22.043105,11.32322 32.158766,21.979434 L 37.068811,17.246167 C 37.068811,17.246167 37.088388,32 37.088388,32 L 22.160133,31.978069 C 22.160133,31.978069 26.997745,27.140456 26.997745,27.140456 C 18.528582,18.264221 13.291696,25.230495 11.500037,31.436501 z"
             style="fill:#404040;"/>
          </a>
         </g>
        </svg>
</svg>
