<?xml version="1.0" encoding="UTF-8" standalone="no"?>
<!DOCTYPE svg PUBLIC "-//W3C//DTD SVG 1.1//EN"
 "http://www.w3.org/Graphics/SVG/1.1/DTD/svg11.dtd">
<!-- Generated by graphviz version 2.43.0 (0)
 -->
<!-- Title: Utilities Pages: 1 -->
<svg width="227pt" height="150pt"
 viewBox="0.00 0.00 227.00 150.00" xmlns="http://www.w3.org/2000/svg" xmlns:xlink="http://www.w3.org/1999/xlink">
<g id="graph0" class="graph" transform="scale(1 1) rotate(0) translate(4 146)">
<title>Utilities</title>
<polygon fill="white" stroke="transparent" points="-4,4 -4,-146 223,-146 223,4 -4,4"/>
<!-- Node5 -->
<g id="node1" class="node">
<title>Node5</title>
<g id="a_node1"><a xlink:href="group__amr__utils.html" target="_top" xlink:title="Mesh refinement.">
<polygon fill="white" stroke="black" points="204.5,-142 105.5,-142 105.5,-123 204.5,-123 204.5,-142"/>
<text text-anchor="middle" x="155" y="-130" font-family="Helvetica,sans-Serif" font-size="10.00">Mesh refinement</text>
</a>
</g>
</g>
<!-- Node1 -->
<g id="node2" class="node">
<title>Node1</title>
<g id="a_node2"><a xlink:title="Utilities.">
<polygon fill="#bfbfbf" stroke="black" points="55,-77 0,-77 0,-58 55,-58 55,-77"/>
<text text-anchor="middle" x="27.5" y="-65" font-family="Helvetica,sans-Serif" font-size="10.00">Utilities</text>
</a>
</g>
</g>
<!-- Node1&#45;&gt;Node5 -->
<g id="edge4" class="edge">
<title>Node1&#45;&gt;Node5</title>
<path fill="none" stroke="black" d="M47.1,-83.83C58.98,-93.57 75.1,-105.55 91,-113.5 98.46,-117.23 106.79,-120.38 114.88,-122.97"/>
<polygon fill="black" stroke="black" points="49.16,-80.99 39.26,-77.22 44.65,-86.34 49.16,-80.99"/>
</g>
<!-- Node3 -->
<g id="node3" class="node">
<title>Node3</title>
<g id="a_node3"><a xlink:href="group__findinterface.html" target="_top" xlink:title="Multiphase&#45;sampling utilities.">
<polygon fill="white" stroke="black" points="214.5,-104.5 95.5,-104.5 95.5,-74.5 214.5,-74.5 214.5,-104.5"/>
<text text-anchor="start" x="103.5" y="-92.5" font-family="Helvetica,sans-Serif" font-size="10.00">Multiphase&#45;sampling</text>
<text text-anchor="middle" x="155" y="-81.5" font-family="Helvetica,sans-Serif" font-size="10.00"> utilities</text>
</a>
</g>
</g>
<!-- Node1&#45;&gt;Node3 -->
<g id="edge2" class="edge">
<title>Node1&#45;&gt;Node3</title>
<path fill="none" stroke="black" d="M65.01,-73.9C74.54,-75.57 85.05,-77.41 95.41,-79.23"/>
<polygon fill="black" stroke="black" points="65.57,-70.44 55.12,-72.17 64.36,-77.34 65.57,-70.44"/>
</g>
<!-- Node4 -->
<g id="node4" class="node">
<title>Node4</title>
<g id="a_node4"><a xlink:href="group__sampling.html" target="_top" xlink:title="Data&#45;sampling utilities.">
<polygon fill="white" stroke="black" points="219,-56 91,-56 91,-37 219,-37 219,-56"/>
<text text-anchor="middle" x="155" y="-44" font-family="Helvetica,sans-Serif" font-size="10.00">Data&#45;sampling utilities</text>
</a>
</g>
</g>
<!-- Node1&#45;&gt;Node4 -->
<g id="edge3" class="edge">
<title>Node1&#45;&gt;Node4</title>
<path fill="none" stroke="black" d="M65.14,-61.37C75.18,-59.69 86.32,-57.83 97.21,-56"/>
<polygon fill="black" stroke="black" points="64.4,-57.94 55.12,-63.05 65.56,-64.85 64.4,-57.94"/>
</g>
<!-- Node2 -->
<g id="node5" class="node">
<title>Node2</title>
<g id="a_node5"><a xlink:href="group__statistics.html" target="_top" xlink:title="Field statistics.">
<polygon fill="white" stroke="black" points="198.5,-19 111.5,-19 111.5,0 198.5,0 198.5,-19"/>
<text text-anchor="middle" x="155" y="-7" font-family="Helvetica,sans-Serif" font-size="10.00">Field statistics</text>
</a>
</g>
</g>
<!-- Node1&#45;&gt;Node2 -->
<g id="edge1" class="edge">
<title>Node1&#45;&gt;Node2</title>
<path fill="none" stroke="black" d="M50.06,-52.06C61.75,-44.21 76.7,-34.98 91,-28.5 99.01,-24.87 107.9,-21.7 116.42,-19.05"/>
<polygon fill="black" stroke="black" points="48.07,-49.18 41.81,-57.73 52.04,-54.95 48.07,-49.18"/>
</g>
</g>
</svg>
