<?xml version="1.0" encoding="UTF-8" standalone="no"?>
<!DOCTYPE svg PUBLIC "-//W3C//DTD SVG 1.1//EN"
 "http://www.w3.org/Graphics/SVG/1.1/DTD/svg11.dtd">
<!-- Generated by graphviz version 2.43.0 (0)
 -->
<!-- Title: Graphical Class Hierarchy Pages: 1 -->
<svg width="214pt" height="382pt"
 viewBox="0.00 0.00 214.00 382.00" xmlns="http://www.w3.org/2000/svg" xmlns:xlink="http://www.w3.org/1999/xlink">
<g id="graph0" class="graph" transform="scale(1 1) rotate(0) translate(4 378)">
<title>Graphical Class Hierarchy</title>
<polygon fill="white" stroke="transparent" points="-4,4 -4,-378 210,-378 210,4 -4,4"/>
<!-- Node97 -->
<g id="node1" class="node">
<title>Node97</title>
<g id="a_node1"><a xlink:title=" ">
<polygon fill="white" stroke="#bfbfbf" points="0,-177 0,-196 57,-196 57,-177 0,-177"/>
<text text-anchor="middle" x="28.5" y="-184" font-family="Helvetica,sans-Serif" font-size="10.00">Register</text>
</a>
</g>
</g>
<!-- Node0 -->
<g id="node2" class="node">
<title>Node0</title>
<g id="a_node2"><a xlink:href="structamr__wind_1_1derived_1_1_divergence.html" target="_top" xlink:title=" ">
<polygon fill="white" stroke="black" points="93,-343.5 93,-373.5 206,-373.5 206,-343.5 93,-343.5"/>
<text text-anchor="start" x="101" y="-361.5" font-family="Helvetica,sans-Serif" font-size="10.00">amr_wind::derived::</text>
<text text-anchor="middle" x="149.5" y="-350.5" font-family="Helvetica,sans-Serif" font-size="10.00">Divergence</text>
</a>
</g>
</g>
<!-- Node97&#45;&gt;Node0 -->
<g id="edge1" class="edge">
<title>Node97&#45;&gt;Node0</title>
<path fill="none" stroke="midnightblue" d="M33.08,-206.21C39.7,-237.31 56.6,-298 93,-334.5 96.41,-337.92 100.39,-340.88 104.62,-343.45"/>
<polygon fill="midnightblue" stroke="midnightblue" points="36.48,-205.31 31.1,-196.19 29.61,-206.68 36.48,-205.31"/>
</g>
<!-- Node99 -->
<g id="node3" class="node">
<title>Node99</title>
<g id="a_node3"><a xlink:href="structamr__wind_1_1derived_1_1_field_components.html" target="_top" xlink:title=" ">
<polygon fill="white" stroke="black" points="93,-294.5 93,-324.5 206,-324.5 206,-294.5 93,-294.5"/>
<text text-anchor="start" x="101" y="-312.5" font-family="Helvetica,sans-Serif" font-size="10.00">amr_wind::derived::</text>
<text text-anchor="middle" x="149.5" y="-301.5" font-family="Helvetica,sans-Serif" font-size="10.00">FieldComponents</text>
</a>
</g>
</g>
<!-- Node97&#45;&gt;Node99 -->
<g id="edge2" class="edge">
<title>Node97&#45;&gt;Node99</title>
<path fill="none" stroke="midnightblue" d="M37.52,-205.55C47.6,-227.45 66.81,-263.24 93,-285.5 97,-288.9 101.55,-291.89 106.29,-294.49"/>
<polygon fill="midnightblue" stroke="midnightblue" points="40.68,-204.02 33.43,-196.29 34.28,-206.85 40.68,-204.02"/>
</g>
<!-- Node100 -->
<g id="node4" class="node">
<title>Node100</title>
<g id="a_node4"><a xlink:href="structamr__wind_1_1derived_1_1_gradient.html" target="_top" xlink:title=" ">
<polygon fill="white" stroke="black" points="93,-245.5 93,-275.5 206,-275.5 206,-245.5 93,-245.5"/>
<text text-anchor="start" x="101" y="-263.5" font-family="Helvetica,sans-Serif" font-size="10.00">amr_wind::derived::</text>
<text text-anchor="middle" x="149.5" y="-252.5" font-family="Helvetica,sans-Serif" font-size="10.00">Gradient</text>
</a>
</g>
</g>
<!-- Node97&#45;&gt;Node100 -->
<g id="edge3" class="edge">
<title>Node97&#45;&gt;Node100</title>
<path fill="none" stroke="midnightblue" d="M47.78,-202.98C59.99,-213.45 76.74,-226.81 93,-236.5 98.32,-239.67 104.14,-242.66 109.94,-245.37"/>
<polygon fill="midnightblue" stroke="midnightblue" points="49.94,-200.22 40.11,-196.27 45.33,-205.49 49.94,-200.22"/>
</g>
<!-- Node101 -->
<g id="node5" class="node">
<title>Node101</title>
<g id="a_node5"><a xlink:href="structamr__wind_1_1derived_1_1_laplacian.html" target="_top" xlink:title=" ">
<polygon fill="white" stroke="black" points="93,-196.5 93,-226.5 206,-226.5 206,-196.5 93,-196.5"/>
<text text-anchor="start" x="101" y="-214.5" font-family="Helvetica,sans-Serif" font-size="10.00">amr_wind::derived::</text>
<text text-anchor="middle" x="149.5" y="-203.5" font-family="Helvetica,sans-Serif" font-size="10.00">Laplacian</text>
</a>
</g>
</g>
<!-- Node97&#45;&gt;Node101 -->
<g id="edge4" class="edge">
<title>Node97&#45;&gt;Node101</title>
<path fill="none" stroke="midnightblue" d="M67.1,-194.4C75.31,-196.12 84.17,-197.99 92.92,-199.82"/>
<polygon fill="midnightblue" stroke="midnightblue" points="67.61,-190.93 57.1,-192.3 66.17,-197.78 67.61,-190.93"/>
</g>
<!-- Node102 -->
<g id="node6" class="node">
<title>Node102</title>
<g id="a_node6"><a xlink:href="structamr__wind_1_1derived_1_1_q_criterion.html" target="_top" xlink:title=" ">
<polygon fill="white" stroke="black" points="93,-147.5 93,-177.5 206,-177.5 206,-147.5 93,-147.5"/>
<text text-anchor="start" x="101" y="-165.5" font-family="Helvetica,sans-Serif" font-size="10.00">amr_wind::derived::</text>
<text text-anchor="middle" x="149.5" y="-154.5" font-family="Helvetica,sans-Serif" font-size="10.00">QCriterion</text>
</a>
</g>
</g>
<!-- Node97&#45;&gt;Node102 -->
<g id="edge5" class="edge">
<title>Node97&#45;&gt;Node102</title>
<path fill="none" stroke="midnightblue" d="M67.1,-178.92C75.31,-177.26 84.17,-175.47 92.92,-173.71"/>
<polygon fill="midnightblue" stroke="midnightblue" points="66.21,-175.53 57.1,-180.93 67.59,-182.39 66.21,-175.53"/>
</g>
<!-- Node103 -->
<g id="node7" class="node">
<title>Node103</title>
<g id="a_node7"><a xlink:href="structamr__wind_1_1derived_1_1_q_criterion_nondim.html" target="_top" xlink:title=" ">
<polygon fill="white" stroke="black" points="93,-98.5 93,-128.5 206,-128.5 206,-98.5 93,-98.5"/>
<text text-anchor="start" x="101" y="-116.5" font-family="Helvetica,sans-Serif" font-size="10.00">amr_wind::derived::</text>
<text text-anchor="middle" x="149.5" y="-105.5" font-family="Helvetica,sans-Serif" font-size="10.00">QCriterionNondim</text>
</a>
</g>
</g>
<!-- Node97&#45;&gt;Node103 -->
<g id="edge6" class="edge">
<title>Node97&#45;&gt;Node103</title>
<path fill="none" stroke="midnightblue" d="M48.37,-170.45C60.61,-160.51 77.16,-147.89 93,-138.5 98.91,-135 105.39,-131.66 111.78,-128.63"/>
<polygon fill="midnightblue" stroke="midnightblue" points="46.13,-167.77 40.66,-176.84 50.59,-173.16 46.13,-167.77"/>
</g>
<!-- Node104 -->
<g id="node8" class="node">
<title>Node104</title>
<g id="a_node8"><a xlink:href="structamr__wind_1_1derived_1_1_strain_rate_mag.html" target="_top" xlink:title=" ">
<polygon fill="white" stroke="black" points="93,-49.5 93,-79.5 206,-79.5 206,-49.5 93,-49.5"/>
<text text-anchor="start" x="101" y="-67.5" font-family="Helvetica,sans-Serif" font-size="10.00">amr_wind::derived::</text>
<text text-anchor="middle" x="149.5" y="-56.5" font-family="Helvetica,sans-Serif" font-size="10.00">StrainRateMag</text>
</a>
</g>
</g>
<!-- Node97&#45;&gt;Node104 -->
<g id="edge7" class="edge">
<title>Node97&#45;&gt;Node104</title>
<path fill="none" stroke="midnightblue" d="M37.82,-167.62C48.08,-146.2 67.36,-111.41 93,-89.5 97.42,-85.72 102.5,-82.42 107.76,-79.55"/>
<polygon fill="midnightblue" stroke="midnightblue" points="34.53,-166.4 33.52,-176.95 40.88,-169.33 34.53,-166.4"/>
</g>
<!-- Node105 -->
<g id="node9" class="node">
<title>Node105</title>
<g id="a_node9"><a xlink:href="structamr__wind_1_1derived_1_1_vorticity_mag.html" target="_top" xlink:title=" ">
<polygon fill="white" stroke="black" points="93,-0.5 93,-30.5 206,-30.5 206,-0.5 93,-0.5"/>
<text text-anchor="start" x="101" y="-18.5" font-family="Helvetica,sans-Serif" font-size="10.00">amr_wind::derived::</text>
<text text-anchor="middle" x="149.5" y="-7.5" font-family="Helvetica,sans-Serif" font-size="10.00">VorticityMag</text>
</a>
</g>
</g>
<!-- Node97&#45;&gt;Node105 -->
<g id="edge8" class="edge">
<title>Node97&#45;&gt;Node105</title>
<path fill="none" stroke="midnightblue" d="M33.22,-167.12C40.03,-136.52 57.2,-76.77 93,-40.5 96.79,-36.66 101.27,-33.36 106.01,-30.54"/>
<polygon fill="midnightblue" stroke="midnightblue" points="29.78,-166.47 31.17,-176.98 36.64,-167.9 29.78,-166.47"/>
</g>
</g>
</svg>
