<?xml version="1.0" encoding="UTF-8" standalone="no"?>
<!DOCTYPE svg PUBLIC "-//W3C//DTD SVG 1.1//EN"
 "http://www.w3.org/Graphics/SVG/1.1/DTD/svg11.dtd">
<!-- Generated by graphviz version 2.43.0 (0)
 -->
<!-- Title: Graphical Class Hierarchy Pages: 1 -->
<svg width="369pt" height="137pt"
 viewBox="0.00 0.00 369.00 137.00" xmlns="http://www.w3.org/2000/svg" xmlns:xlink="http://www.w3.org/1999/xlink">
<g id="graph0" class="graph" transform="scale(1 1) rotate(0) translate(4 133)">
<title>Graphical Class Hierarchy</title>
<polygon fill="white" stroke="transparent" points="-4,4 -4,-133 365,-133 365,4 -4,4"/>
<!-- Node176 -->
<g id="node1" class="node">
<title>Node176</title>
<g id="a_node1"><a xlink:title=" ">
<polygon fill="white" stroke="#bfbfbf" points="0,-55 0,-74 57,-74 57,-55 0,-55"/>
<text text-anchor="middle" x="28.5" y="-62" font-family="Helvetica,sans-Serif" font-size="10.00">Register</text>
</a>
</g>
</g>
<!-- Node0 -->
<g id="node2" class="node">
<title>Node0</title>
<g id="a_node2"><a xlink:href="classamr__wind_1_1sampling_1_1_line_sampler.html" target="_top" xlink:title="Sample data along a line.">
<polygon fill="white" stroke="black" points="93,-98.5 93,-128.5 209,-128.5 209,-98.5 93,-98.5"/>
<text text-anchor="start" x="101" y="-116.5" font-family="Helvetica,sans-Serif" font-size="10.00">amr_wind::sampling</text>
<text text-anchor="middle" x="151" y="-105.5" font-family="Helvetica,sans-Serif" font-size="10.00">::LineSampler</text>
</a>
</g>
</g>
<!-- Node176&#45;&gt;Node0 -->
<g id="edge1" class="edge">
<title>Node176&#45;&gt;Node0</title>
<path fill="none" stroke="midnightblue" d="M62.28,-77.83C77.9,-84.18 96.64,-91.8 112.79,-98.37"/>
<polygon fill="midnightblue" stroke="midnightblue" points="63.6,-74.59 53.02,-74.06 60.96,-81.07 63.6,-74.59"/>
</g>
<!-- Node179 -->
<g id="node4" class="node">
<title>Node179</title>
<g id="a_node4"><a xlink:href="classamr__wind_1_1sampling_1_1_plane_sampler.html" target="_top" xlink:title="Sample data on uniform grids.">
<polygon fill="white" stroke="black" points="93,-49.5 93,-79.5 209,-79.5 209,-49.5 93,-49.5"/>
<text text-anchor="start" x="101" y="-67.5" font-family="Helvetica,sans-Serif" font-size="10.00">amr_wind::sampling</text>
<text text-anchor="middle" x="151" y="-56.5" font-family="Helvetica,sans-Serif" font-size="10.00">::PlaneSampler</text>
</a>
</g>
</g>
<!-- Node176&#45;&gt;Node179 -->
<g id="edge3" class="edge">
<title>Node176&#45;&gt;Node179</title>
<path fill="none" stroke="midnightblue" d="M67.41,-64.5C75.55,-64.5 84.31,-64.5 92.99,-64.5"/>
<polygon fill="midnightblue" stroke="midnightblue" points="67.15,-61 57.15,-64.5 67.15,-68 67.15,-61"/>
</g>
<!-- Node180 -->
<g id="node5" class="node">
<title>Node180</title>
<g id="a_node5"><a xlink:href="classamr__wind_1_1sampling_1_1_probe_sampler.html" target="_top" xlink:title="Sample data on a cloud of points.">
<polygon fill="white" stroke="black" points="93,-0.5 93,-30.5 209,-30.5 209,-0.5 93,-0.5"/>
<text text-anchor="start" x="101" y="-18.5" font-family="Helvetica,sans-Serif" font-size="10.00">amr_wind::sampling</text>
<text text-anchor="middle" x="151" y="-7.5" font-family="Helvetica,sans-Serif" font-size="10.00">::ProbeSampler</text>
</a>
</g>
</g>
<!-- Node176&#45;&gt;Node180 -->
<g id="edge4" class="edge">
<title>Node176&#45;&gt;Node180</title>
<path fill="none" stroke="midnightblue" d="M62.28,-51.17C77.9,-44.82 96.64,-37.2 112.79,-30.63"/>
<polygon fill="midnightblue" stroke="midnightblue" points="60.96,-47.93 53.02,-54.94 63.6,-54.41 60.96,-47.93"/>
</g>
<!-- Node1 -->
<g id="node3" class="node">
<title>Node1</title>
<g id="a_node3"><a xlink:href="classamr__wind_1_1sampling_1_1_lidar_sampler.html" target="_top" xlink:title="Sample data along a line that moves in time.">
<polygon fill="white" stroke="black" points="245,-98.5 245,-128.5 361,-128.5 361,-98.5 245,-98.5"/>
<text text-anchor="start" x="253" y="-116.5" font-family="Helvetica,sans-Serif" font-size="10.00">amr_wind::sampling</text>
<text text-anchor="middle" x="303" y="-105.5" font-family="Helvetica,sans-Serif" font-size="10.00">::LidarSampler</text>
</a>
</g>
</g>
<!-- Node0&#45;&gt;Node1 -->
<g id="edge2" class="edge">
<title>Node0&#45;&gt;Node1</title>
<path fill="none" stroke="midnightblue" d="M219.31,-113.5C227.73,-113.5 236.28,-113.5 244.53,-113.5"/>
<polygon fill="midnightblue" stroke="midnightblue" points="219.14,-110 209.14,-113.5 219.14,-117 219.14,-110"/>
</g>
</g>
</svg>
