<?xml version="1.0" encoding="UTF-8" standalone="no"?>
<!DOCTYPE svg PUBLIC "-//W3C//DTD SVG 1.1//EN"
 "http://www.w3.org/Graphics/SVG/1.1/DTD/svg11.dtd">
<!-- Generated by graphviz version 2.43.0 (0)
 -->
<!-- Title: Graphical Class Hierarchy Pages: 1 -->
<svg width="270pt" height="835pt"
 viewBox="0.00 0.00 270.00 835.00" xmlns="http://www.w3.org/2000/svg" xmlns:xlink="http://www.w3.org/1999/xlink">
<g id="graph0" class="graph" transform="scale(1 1) rotate(0) translate(4 831)">
<title>Graphical Class Hierarchy</title>
<polygon fill="white" stroke="transparent" points="-4,4 -4,-831 266,-831 266,4 -4,4"/>
<!-- Node124 -->
<g id="node1" class="node">
<title>Node124</title>
<g id="a_node1"><a xlink:title=" ">
<polygon fill="white" stroke="#bfbfbf" points="0,-380.5 0,-399.5 57,-399.5 57,-380.5 0,-380.5"/>
<text text-anchor="middle" x="28.5" y="-387.5" font-family="Helvetica,sans-Serif" font-size="10.00">Register</text>
</a>
</g>
</g>
<!-- Node0 -->
<g id="node2" class="node">
<title>Node0</title>
<g id="a_node2"><a xlink:href="classamr__wind_1_1_a_b_l.html" target="_top" xlink:title="Atmospheric Boundary Layer physics.">
<polygon fill="white" stroke="black" points="133,-807.5 133,-826.5 222,-826.5 222,-807.5 133,-807.5"/>
<text text-anchor="middle" x="177.5" y="-814.5" font-family="Helvetica,sans-Serif" font-size="10.00">amr_wind::ABL</text>
</a>
</g>
</g>
<!-- Node124&#45;&gt;Node0 -->
<g id="edge1" class="edge">
<title>Node124&#45;&gt;Node0</title>
<path fill="none" stroke="midnightblue" d="M29.74,-409.71C31.07,-483.31 39.5,-740.66 93,-798 103.14,-808.87 118.1,-814.15 132.57,-816.54"/>
<polygon fill="midnightblue" stroke="midnightblue" points="33.24,-409.48 29.59,-399.54 26.24,-409.59 33.24,-409.48"/>
</g>
<!-- Node126 -->
<g id="node3" class="node">
<title>Node126</title>
<g id="a_node3"><a xlink:href="classamr__wind_1_1actuator_1_1_actuator.html" target="_top" xlink:title="Actuator line/disk modeling for wind turbines.">
<polygon fill="white" stroke="black" points="122,-758 122,-788 233,-788 233,-758 122,-758"/>
<text text-anchor="start" x="130" y="-776" font-family="Helvetica,sans-Serif" font-size="10.00">amr_wind::actuator</text>
<text text-anchor="middle" x="177.5" y="-765" font-family="Helvetica,sans-Serif" font-size="10.00">::Actuator</text>
</a>
</g>
</g>
<!-- Node124&#45;&gt;Node126 -->
<g id="edge2" class="edge">
<title>Node124&#45;&gt;Node126</title>
<path fill="none" stroke="midnightblue" d="M30.34,-409.76C33.62,-477.22 47.65,-697.09 93,-748 100.55,-756.47 110.84,-762.13 121.62,-765.89"/>
<polygon fill="midnightblue" stroke="midnightblue" points="33.84,-409.47 29.88,-399.64 26.84,-409.79 33.84,-409.47"/>
</g>
<!-- Node127 -->
<g id="node4" class="node">
<title>Node127</title>
<g id="a_node4"><a xlink:href="classamr__wind_1_1_boussinesq_bubble.html" target="_top" xlink:title="Boussinesq Bubble physics.">
<polygon fill="white" stroke="black" points="97.5,-719.5 97.5,-738.5 257.5,-738.5 257.5,-719.5 97.5,-719.5"/>
<text text-anchor="middle" x="177.5" y="-726.5" font-family="Helvetica,sans-Serif" font-size="10.00">amr_wind::BoussinesqBubble</text>
</a>
</g>
</g>
<!-- Node124&#45;&gt;Node127 -->
<g id="edge3" class="edge">
<title>Node124&#45;&gt;Node127</title>
<path fill="none" stroke="midnightblue" d="M30.67,-409.77C34.81,-472.68 50.81,-666.62 93,-710 96.63,-713.73 100.82,-716.8 105.37,-719.31"/>
<polygon fill="midnightblue" stroke="midnightblue" points="34.15,-409.38 30.03,-399.61 27.17,-409.81 34.15,-409.38"/>
</g>
<!-- Node128 -->
<g id="node5" class="node">
<title>Node128</title>
<g id="a_node5"><a xlink:href="classamr__wind_1_1channel__flow_1_1_channel_flow.html" target="_top" xlink:title="Channel Flow physics.">
<polygon fill="white" stroke="black" points="110.5,-670 110.5,-700 244.5,-700 244.5,-670 110.5,-670"/>
<text text-anchor="start" x="118.5" y="-688" font-family="Helvetica,sans-Serif" font-size="10.00">amr_wind::channel_flow</text>
<text text-anchor="middle" x="177.5" y="-677" font-family="Helvetica,sans-Serif" font-size="10.00">::ChannelFlow</text>
</a>
</g>
</g>
<!-- Node124&#45;&gt;Node128 -->
<g id="edge4" class="edge">
<title>Node124&#45;&gt;Node128</title>
<path fill="none" stroke="midnightblue" d="M31.52,-409.52C37.7,-465.38 58.02,-624.24 93,-661 97.89,-666.14 103.79,-670.19 110.18,-673.4"/>
<polygon fill="midnightblue" stroke="midnightblue" points="35,-409.08 30.45,-399.51 28.04,-409.83 35,-409.08"/>
</g>
<!-- Node129 -->
<g id="node6" class="node">
<title>Node129</title>
<g id="a_node6"><a xlink:href="classamr__wind_1_1ctv_1_1_convecting_taylor_vortex.html" target="_top" xlink:title="Convecting Taylor Vortex physics.">
<polygon fill="white" stroke="black" points="104.5,-621 104.5,-651 250.5,-651 250.5,-621 104.5,-621"/>
<text text-anchor="start" x="112.5" y="-639" font-family="Helvetica,sans-Serif" font-size="10.00">amr_wind::ctv::Convecting</text>
<text text-anchor="middle" x="177.5" y="-628" font-family="Helvetica,sans-Serif" font-size="10.00">TaylorVortex</text>
</a>
</g>
</g>
<!-- Node124&#45;&gt;Node129 -->
<g id="edge5" class="edge">
<title>Node124&#45;&gt;Node129</title>
<path fill="none" stroke="midnightblue" d="M29.24,-409.73C29.77,-452.53 37.2,-554.58 93,-611 96.83,-614.87 101.24,-618.15 105.98,-620.93"/>
<polygon fill="midnightblue" stroke="midnightblue" points="32.74,-409.53 29.23,-399.54 25.74,-409.54 32.74,-409.53"/>
</g>
<!-- Node130 -->
<g id="node7" class="node">
<title>Node130</title>
<g id="a_node7"><a xlink:href="classamr__wind_1_1_dam_break.html" target="_top" xlink:title=" ">
<polygon fill="white" stroke="black" points="116.5,-582.5 116.5,-601.5 238.5,-601.5 238.5,-582.5 116.5,-582.5"/>
<text text-anchor="middle" x="177.5" y="-589.5" font-family="Helvetica,sans-Serif" font-size="10.00">amr_wind::DamBreak</text>
</a>
</g>
</g>
<!-- Node124&#45;&gt;Node130 -->
<g id="edge6" class="edge">
<title>Node124&#45;&gt;Node130</title>
<path fill="none" stroke="midnightblue" d="M30.36,-409.91C33.11,-447.65 44.64,-529.7 93,-573 99.65,-578.95 107.76,-583.16 116.3,-586.11"/>
<polygon fill="midnightblue" stroke="midnightblue" points="33.84,-409.49 29.76,-399.71 26.85,-409.9 33.84,-409.49"/>
</g>
<!-- Node131 -->
<g id="node8" class="node">
<title>Node131</title>
<g id="a_node8"><a xlink:href="classamr__wind_1_1_ekman_spiral.html" target="_top" xlink:title="Ekman Spiral physics.">
<polygon fill="white" stroke="black" points="111.5,-544.5 111.5,-563.5 243.5,-563.5 243.5,-544.5 111.5,-544.5"/>
<text text-anchor="middle" x="177.5" y="-551.5" font-family="Helvetica,sans-Serif" font-size="10.00">amr_wind::EkmanSpiral</text>
</a>
</g>
</g>
<!-- Node124&#45;&gt;Node131 -->
<g id="edge7" class="edge">
<title>Node124&#45;&gt;Node131</title>
<path fill="none" stroke="midnightblue" d="M32.38,-409.67C38.06,-441.14 53.76,-502.56 93,-535 98.39,-539.45 104.61,-542.91 111.18,-545.59"/>
<polygon fill="midnightblue" stroke="midnightblue" points="35.79,-408.84 30.71,-399.54 28.88,-409.98 35.79,-408.84"/>
</g>
<!-- Node132 -->
<g id="node9" class="node">
<title>Node132</title>
<g id="a_node9"><a xlink:href="classamr__wind_1_1_free_stream.html" target="_top" xlink:title="Freestream physics.">
<polygon fill="white" stroke="black" points="114,-506.5 114,-525.5 241,-525.5 241,-506.5 114,-506.5"/>
<text text-anchor="middle" x="177.5" y="-513.5" font-family="Helvetica,sans-Serif" font-size="10.00">amr_wind::FreeStream</text>
</a>
</g>
</g>
<!-- Node124&#45;&gt;Node132 -->
<g id="edge8" class="edge">
<title>Node124&#45;&gt;Node132</title>
<path fill="none" stroke="midnightblue" d="M35.62,-409.36C44.34,-433.7 62.73,-474.96 93,-497 99.25,-501.55 106.4,-505.04 113.84,-507.7"/>
<polygon fill="midnightblue" stroke="midnightblue" points="38.9,-408.14 32.37,-399.79 32.27,-410.38 38.9,-408.14"/>
</g>
<!-- Node133 -->
<g id="node10" class="node">
<title>Node133</title>
<g id="a_node10"><a xlink:href="classamr__wind_1_1hybrid__rans__les__abl_1_1_hybrid_r_a_n_s_l_e_s_a_b_l.html" target="_top" xlink:title="Hybrid RANS/LES with ABL.">
<polygon fill="white" stroke="black" points="98.5,-457 98.5,-487 256.5,-487 256.5,-457 98.5,-457"/>
<text text-anchor="start" x="106.5" y="-475" font-family="Helvetica,sans-Serif" font-size="10.00">amr_wind::hybrid_rans</text>
<text text-anchor="middle" x="177.5" y="-464" font-family="Helvetica,sans-Serif" font-size="10.00">_les_abl::HybridRANSLESABL</text>
</a>
</g>
</g>
<!-- Node124&#45;&gt;Node133 -->
<g id="edge9" class="edge">
<title>Node124&#45;&gt;Node133</title>
<path fill="none" stroke="midnightblue" d="M44.96,-407.53C56.94,-420.13 74.56,-436.66 93,-447 99.73,-450.78 107.09,-454.04 114.57,-456.84"/>
<polygon fill="midnightblue" stroke="midnightblue" points="47.3,-404.9 37.95,-399.92 42.15,-409.64 47.3,-404.9"/>
</g>
<!-- Node134 -->
<g id="node11" class="node">
<title>Node134</title>
<g id="a_node11"><a xlink:href="classamr__wind_1_1ib_1_1_i_b.html" target="_top" xlink:title="Immersed boundary modeling for non&#45;blade wind components and complex terrain.">
<polygon fill="white" stroke="black" points="130,-418.5 130,-437.5 225,-437.5 225,-418.5 130,-418.5"/>
<text text-anchor="middle" x="177.5" y="-425.5" font-family="Helvetica,sans-Serif" font-size="10.00">amr_wind::ib::IB</text>
</a>
</g>
</g>
<!-- Node124&#45;&gt;Node134 -->
<g id="edge10" class="edge">
<title>Node124&#45;&gt;Node134</title>
<path fill="none" stroke="midnightblue" d="M66.93,-401.65C75.47,-404.18 84.52,-406.77 93,-409 105.65,-412.33 119.47,-415.61 132.16,-418.49"/>
<polygon fill="midnightblue" stroke="midnightblue" points="67.79,-398.26 57.21,-398.73 65.77,-404.96 67.79,-398.26"/>
</g>
<!-- Node135 -->
<g id="node12" class="node">
<title>Node135</title>
<g id="a_node12"><a xlink:href="classamr__wind_1_1mms_1_1_m_m_s.html" target="_top" xlink:title="Method of manufactured solutions physics.">
<polygon fill="white" stroke="black" points="115,-380.5 115,-399.5 240,-399.5 240,-380.5 115,-380.5"/>
<text text-anchor="middle" x="177.5" y="-387.5" font-family="Helvetica,sans-Serif" font-size="10.00">amr_wind::mms::MMS</text>
</a>
</g>
</g>
<!-- Node124&#45;&gt;Node135 -->
<g id="edge11" class="edge">
<title>Node124&#45;&gt;Node135</title>
<path fill="none" stroke="midnightblue" d="M67.23,-390C81.73,-390 98.69,-390 114.86,-390"/>
<polygon fill="midnightblue" stroke="midnightblue" points="67.15,-386.5 57.15,-390 67.15,-393.5 67.15,-386.5"/>
</g>
<!-- Node136 -->
<g id="node13" class="node">
<title>Node136</title>
<g id="a_node13"><a xlink:href="classamr__wind_1_1_multi_phase.html" target="_top" xlink:title=" ">
<polygon fill="white" stroke="black" points="115,-342.5 115,-361.5 240,-361.5 240,-342.5 115,-342.5"/>
<text text-anchor="middle" x="177.5" y="-349.5" font-family="Helvetica,sans-Serif" font-size="10.00">amr_wind::MultiPhase</text>
</a>
</g>
</g>
<!-- Node124&#45;&gt;Node136 -->
<g id="edge12" class="edge">
<title>Node124&#45;&gt;Node136</title>
<path fill="none" stroke="midnightblue" d="M66.93,-378.35C75.47,-375.82 84.52,-373.23 93,-371 105.65,-367.67 119.47,-364.39 132.16,-361.51"/>
<polygon fill="midnightblue" stroke="midnightblue" points="65.77,-375.04 57.21,-381.27 67.79,-381.74 65.77,-375.04"/>
</g>
<!-- Node137 -->
<g id="node14" class="node">
<title>Node137</title>
<g id="a_node14"><a xlink:href="classamr__wind_1_1_n_w_b.html" target="_top" xlink:title="Numerical Wave Basin physics.">
<polygon fill="white" stroke="black" points="130,-304.5 130,-323.5 225,-323.5 225,-304.5 130,-304.5"/>
<text text-anchor="middle" x="177.5" y="-311.5" font-family="Helvetica,sans-Serif" font-size="10.00">amr_wind::NWB</text>
</a>
</g>
</g>
<!-- Node124&#45;&gt;Node137 -->
<g id="edge13" class="edge">
<title>Node124&#45;&gt;Node137</title>
<path fill="none" stroke="midnightblue" d="M44.36,-372.55C56.24,-359.7 74.01,-342.83 93,-333 104.35,-327.12 117.5,-323.05 129.96,-320.23"/>
<polygon fill="midnightblue" stroke="midnightblue" points="41.49,-370.5 37.44,-380.29 46.71,-375.16 41.49,-370.5"/>
</g>
<!-- Node138 -->
<g id="node15" class="node">
<title>Node138</title>
<g id="a_node15"><a xlink:href="classamr__wind_1_1_rain_drop.html" target="_top" xlink:title=" ">
<polygon fill="white" stroke="black" points="119.5,-266.5 119.5,-285.5 235.5,-285.5 235.5,-266.5 119.5,-266.5"/>
<text text-anchor="middle" x="177.5" y="-273.5" font-family="Helvetica,sans-Serif" font-size="10.00">amr_wind::RainDrop</text>
</a>
</g>
</g>
<!-- Node124&#45;&gt;Node138 -->
<g id="edge14" class="edge">
<title>Node124&#45;&gt;Node138</title>
<path fill="none" stroke="midnightblue" d="M37.04,-370.91C46.68,-349.08 65.47,-313.94 93,-295 100.84,-289.61 109.98,-285.72 119.27,-282.93"/>
<polygon fill="midnightblue" stroke="midnightblue" points="33.69,-369.85 33.05,-380.42 40.15,-372.56 33.69,-369.85"/>
</g>
<!-- Node139 -->
<g id="node16" class="node">
<title>Node139</title>
<g id="a_node16"><a xlink:href="classamr__wind_1_1_rayleigh_taylor.html" target="_top" xlink:title="Rayleigh Taylor physics.">
<polygon fill="white" stroke="black" points="106,-228.5 106,-247.5 249,-247.5 249,-228.5 106,-228.5"/>
<text text-anchor="middle" x="177.5" y="-235.5" font-family="Helvetica,sans-Serif" font-size="10.00">amr_wind::RayleighTaylor</text>
</a>
</g>
</g>
<!-- Node124&#45;&gt;Node139 -->
<g id="edge15" class="edge">
<title>Node124&#45;&gt;Node139</title>
<path fill="none" stroke="midnightblue" d="M33.26,-370.27C39.92,-340.9 56.68,-286.05 93,-257 97.76,-253.19 103.14,-250.12 108.81,-247.64"/>
<polygon fill="midnightblue" stroke="midnightblue" points="29.81,-369.66 31.18,-380.17 36.66,-371.1 29.81,-369.66"/>
</g>
<!-- Node140 -->
<g id="node17" class="node">
<title>Node140</title>
<g id="a_node17"><a xlink:href="classamr__wind_1_1_sloshing_tank.html" target="_top" xlink:title=" ">
<polygon fill="white" stroke="black" points="110.5,-190.5 110.5,-209.5 244.5,-209.5 244.5,-190.5 110.5,-190.5"/>
<text text-anchor="middle" x="177.5" y="-197.5" font-family="Helvetica,sans-Serif" font-size="10.00">amr_wind::SloshingTank</text>
</a>
</g>
</g>
<!-- Node124&#45;&gt;Node140 -->
<g id="edge16" class="edge">
<title>Node124&#45;&gt;Node140</title>
<path fill="none" stroke="midnightblue" d="M30.94,-369.89C34.63,-333.95 47.65,-258.73 93,-219 98.03,-214.59 103.87,-211.15 110.09,-208.46"/>
<polygon fill="midnightblue" stroke="midnightblue" points="27.43,-369.82 30.04,-380.09 34.4,-370.44 27.43,-369.82"/>
</g>
<!-- Node141 -->
<g id="node18" class="node">
<title>Node141</title>
<g id="a_node18"><a xlink:href="classamr__wind_1_1_synthetic_turbulence.html" target="_top" xlink:title=" ">
<polygon fill="white" stroke="black" points="93,-152.5 93,-171.5 262,-171.5 262,-152.5 93,-152.5"/>
<text text-anchor="middle" x="177.5" y="-159.5" font-family="Helvetica,sans-Serif" font-size="10.00">amr_wind::SyntheticTurbulence</text>
</a>
</g>
</g>
<!-- Node124&#45;&gt;Node141 -->
<g id="edge17" class="edge">
<title>Node124&#45;&gt;Node141</title>
<path fill="none" stroke="midnightblue" d="M29.35,-370.2C30.16,-328.66 38.21,-232.02 93,-181 97.03,-177.25 101.63,-174.19 106.57,-171.69"/>
<polygon fill="midnightblue" stroke="midnightblue" points="25.85,-370.35 29.28,-380.38 32.85,-370.4 25.85,-370.35"/>
</g>
<!-- Node142 -->
<g id="node19" class="node">
<title>Node142</title>
<g id="a_node19"><a xlink:href="classamr__wind_1_1_taylor_green_vortex.html" target="_top" xlink:title="Taylor Green Vortex physics.">
<polygon fill="white" stroke="black" points="97,-114.5 97,-133.5 258,-133.5 258,-114.5 97,-114.5"/>
<text text-anchor="middle" x="177.5" y="-121.5" font-family="Helvetica,sans-Serif" font-size="10.00">amr_wind::TaylorGreenVortex</text>
</a>
</g>
</g>
<!-- Node124&#45;&gt;Node142 -->
<g id="edge18" class="edge">
<title>Node124&#45;&gt;Node142</title>
<path fill="none" stroke="midnightblue" d="M31.9,-370.41C38.75,-317.76 60.03,-175.07 93,-143 96.94,-139.16 101.49,-136.04 106.39,-133.5"/>
<polygon fill="midnightblue" stroke="midnightblue" points="28.41,-370.1 30.63,-380.46 35.36,-370.98 28.41,-370.1"/>
</g>
<!-- Node143 -->
<g id="node20" class="node">
<title>Node143</title>
<g id="a_node20"><a xlink:href="classamr__wind_1_1_vortex_patch.html" target="_top" xlink:title=" ">
<polygon fill="white" stroke="black" points="113.5,-76.5 113.5,-95.5 241.5,-95.5 241.5,-76.5 113.5,-76.5"/>
<text text-anchor="middle" x="177.5" y="-83.5" font-family="Helvetica,sans-Serif" font-size="10.00">amr_wind::VortexPatch</text>
</a>
</g>
</g>
<!-- Node124&#45;&gt;Node143 -->
<g id="edge19" class="edge">
<title>Node124&#45;&gt;Node143</title>
<path fill="none" stroke="midnightblue" d="M31.2,-370.14C36.61,-311.84 55.28,-142.89 93,-105 98.66,-99.31 105.65,-95.18 113.16,-92.19"/>
<polygon fill="midnightblue" stroke="midnightblue" points="27.7,-369.98 30.3,-380.25 34.68,-370.6 27.7,-369.98"/>
</g>
<!-- Node144 -->
<g id="node21" class="node">
<title>Node144</title>
<g id="a_node21"><a xlink:href="classamr__wind_1_1_vortex_ring.html" target="_top" xlink:title="Vortex ring physics.">
<polygon fill="white" stroke="black" points="115.5,-38.5 115.5,-57.5 239.5,-57.5 239.5,-38.5 115.5,-38.5"/>
<text text-anchor="middle" x="177.5" y="-45.5" font-family="Helvetica,sans-Serif" font-size="10.00">amr_wind::VortexRing</text>
</a>
</g>
</g>
<!-- Node124&#45;&gt;Node144 -->
<g id="edge20" class="edge">
<title>Node124&#45;&gt;Node144</title>
<path fill="none" stroke="midnightblue" d="M30.64,-370.05C34.69,-306.55 50.47,-110.81 93,-67 99.11,-60.71 106.84,-56.3 115.12,-53.26"/>
<polygon fill="midnightblue" stroke="midnightblue" points="27.13,-370.1 30.02,-380.3 34.12,-370.53 27.13,-370.1"/>
</g>
<!-- Node145 -->
<g id="node22" class="node">
<title>Node145</title>
<g id="a_node22"><a xlink:href="classamr__wind_1_1_zalesak_disk.html" target="_top" xlink:title=" ">
<polygon fill="white" stroke="black" points="112,-0.5 112,-19.5 243,-19.5 243,-0.5 112,-0.5"/>
<text text-anchor="middle" x="177.5" y="-7.5" font-family="Helvetica,sans-Serif" font-size="10.00">amr_wind::ZalesakDisk</text>
</a>
</g>
</g>
<!-- Node124&#45;&gt;Node145 -->
<g id="edge21" class="edge">
<title>Node124&#45;&gt;Node145</title>
<path fill="none" stroke="midnightblue" d="M30.2,-369.96C32.99,-301.57 45.62,-78.79 93,-29 98.23,-23.51 104.68,-19.45 111.68,-16.47"/>
<polygon fill="midnightblue" stroke="midnightblue" points="26.69,-370.1 29.81,-380.22 33.68,-370.36 26.69,-370.1"/>
</g>
</g>
</svg>
