<?xml version="1.0" encoding="UTF-8" standalone="no"?>
<!DOCTYPE svg PUBLIC "-//W3C//DTD SVG 1.1//EN"
 "http://www.w3.org/Graphics/SVG/1.1/DTD/svg11.dtd">
<!-- Generated by graphviz version 2.43.0 (0)
 -->
<!-- Title: Graphical Class Hierarchy Pages: 1 -->
<svg width="244pt" height="333pt"
 viewBox="0.00 0.00 244.00 333.00" xmlns="http://www.w3.org/2000/svg" xmlns:xlink="http://www.w3.org/1999/xlink">
<g id="graph0" class="graph" transform="scale(1 1) rotate(0) translate(4 329)">
<title>Graphical Class Hierarchy</title>
<polygon fill="white" stroke="transparent" points="-4,4 -4,-329 240,-329 240,4 -4,4"/>
<!-- Node152 -->
<g id="node1" class="node">
<title>Node152</title>
<g id="a_node1"><a xlink:title=" ">
<polygon fill="white" stroke="#bfbfbf" points="0,-153 0,-172 57,-172 57,-153 0,-153"/>
<text text-anchor="middle" x="28.5" y="-160" font-family="Helvetica,sans-Serif" font-size="10.00">Register</text>
</a>
</g>
</g>
<!-- Node0 -->
<g id="node2" class="node">
<title>Node0</title>
<g id="a_node2"><a xlink:href="classamr__wind_1_1ascent__int_1_1_ascent_post_process.html" target="_top" xlink:title=" ">
<polygon fill="white" stroke="black" points="104,-294.5 104,-324.5 225,-324.5 225,-294.5 104,-294.5"/>
<text text-anchor="start" x="112" y="-312.5" font-family="Helvetica,sans-Serif" font-size="10.00">amr_wind::ascent_int</text>
<text text-anchor="middle" x="164.5" y="-301.5" font-family="Helvetica,sans-Serif" font-size="10.00">::AscentPostProcess</text>
</a>
</g>
</g>
<!-- Node152&#45;&gt;Node0 -->
<g id="edge1" class="edge">
<title>Node152&#45;&gt;Node0</title>
<path fill="none" stroke="midnightblue" d="M34.51,-181.83C42.47,-208.79 60.52,-257.51 93,-285.5 97.02,-288.96 101.55,-291.93 106.34,-294.47"/>
<polygon fill="midnightblue" stroke="midnightblue" points="37.84,-180.73 31.79,-172.04 31.09,-182.61 37.84,-180.73"/>
</g>
<!-- Node154 -->
<g id="node3" class="node">
<title>Node154</title>
<g id="a_node3"><a xlink:href="classamr__wind_1_1averaging_1_1_time_averaging.html" target="_top" xlink:title="A collection of time&#45;averaged quantities.">
<polygon fill="white" stroke="black" points="105,-245.5 105,-275.5 224,-275.5 224,-245.5 105,-245.5"/>
<text text-anchor="start" x="113" y="-263.5" font-family="Helvetica,sans-Serif" font-size="10.00">amr_wind::averaging</text>
<text text-anchor="middle" x="164.5" y="-252.5" font-family="Helvetica,sans-Serif" font-size="10.00">::TimeAveraging</text>
</a>
</g>
</g>
<!-- Node152&#45;&gt;Node154 -->
<g id="edge2" class="edge">
<title>Node152&#45;&gt;Node154</title>
<path fill="none" stroke="midnightblue" d="M40.78,-180.48C52.11,-197.17 71,-221.61 93,-236.5 98.03,-239.91 103.59,-242.87 109.32,-245.44"/>
<polygon fill="midnightblue" stroke="midnightblue" points="43.71,-178.56 35.3,-172.11 37.85,-182.4 43.71,-178.56"/>
</g>
<!-- Node155 -->
<g id="node4" class="node">
<title>Node155</title>
<g id="a_node4"><a xlink:href="classamr__wind_1_1enstrophy_1_1_enstrophy.html" target="_top" xlink:title="enstrophy object">
<polygon fill="white" stroke="black" points="105,-196.5 105,-226.5 224,-226.5 224,-196.5 105,-196.5"/>
<text text-anchor="start" x="113" y="-214.5" font-family="Helvetica,sans-Serif" font-size="10.00">amr_wind::enstrophy</text>
<text text-anchor="middle" x="164.5" y="-203.5" font-family="Helvetica,sans-Serif" font-size="10.00">::Enstrophy</text>
</a>
</g>
</g>
<!-- Node152&#45;&gt;Node155 -->
<g id="edge3" class="edge">
<title>Node152&#45;&gt;Node155</title>
<path fill="none" stroke="midnightblue" d="M62.35,-175.77C72.17,-179.65 82.99,-183.83 93,-187.5 101.13,-190.48 109.84,-193.55 118.26,-196.45"/>
<polygon fill="midnightblue" stroke="midnightblue" points="63.51,-172.47 52.92,-172.02 60.92,-178.97 63.51,-172.47"/>
</g>
<!-- Node156 -->
<g id="node5" class="node">
<title>Node156</title>
<g id="a_node5"><a xlink:href="classamr__wind_1_1field__norms_1_1_field_norms.html" target="_top" xlink:title="field norm object">
<polygon fill="white" stroke="black" points="100.5,-147.5 100.5,-177.5 228.5,-177.5 228.5,-147.5 100.5,-147.5"/>
<text text-anchor="start" x="108.5" y="-165.5" font-family="Helvetica,sans-Serif" font-size="10.00">amr_wind::field_norms</text>
<text text-anchor="middle" x="164.5" y="-154.5" font-family="Helvetica,sans-Serif" font-size="10.00">::FieldNorms</text>
</a>
</g>
</g>
<!-- Node152&#45;&gt;Node156 -->
<g id="edge4" class="edge">
<title>Node152&#45;&gt;Node156</title>
<path fill="none" stroke="midnightblue" d="M67.5,-162.5C77.77,-162.5 89.16,-162.5 100.41,-162.5"/>
<polygon fill="midnightblue" stroke="midnightblue" points="67.26,-159 57.26,-162.5 67.26,-166 67.26,-159"/>
</g>
<!-- Node157 -->
<g id="node6" class="node">
<title>Node157</title>
<g id="a_node6"><a xlink:href="classamr__wind_1_1free__surface_1_1_free_surface.html" target="_top" xlink:title="Collection of data sampling objects.">
<polygon fill="white" stroke="black" points="99,-98.5 99,-128.5 230,-128.5 230,-98.5 99,-98.5"/>
<text text-anchor="start" x="107" y="-116.5" font-family="Helvetica,sans-Serif" font-size="10.00">amr_wind::free_surface</text>
<text text-anchor="middle" x="164.5" y="-105.5" font-family="Helvetica,sans-Serif" font-size="10.00">::FreeSurface</text>
</a>
</g>
</g>
<!-- Node152&#45;&gt;Node157 -->
<g id="edge5" class="edge">
<title>Node152&#45;&gt;Node157</title>
<path fill="none" stroke="midnightblue" d="M63.94,-149.34C73.35,-145.78 83.55,-141.96 93,-138.5 101.9,-135.24 111.46,-131.81 120.58,-128.56"/>
<polygon fill="midnightblue" stroke="midnightblue" points="62.6,-146.1 54.49,-152.92 65.08,-152.65 62.6,-146.1"/>
</g>
<!-- Node158 -->
<g id="node7" class="node">
<title>Node158</title>
<g id="a_node7"><a xlink:href="classamr__wind_1_1kinetic__energy_1_1_kinetic_energy.html" target="_top" xlink:title="kinetic energy object">
<polygon fill="white" stroke="black" points="93,-49.5 93,-79.5 236,-79.5 236,-49.5 93,-49.5"/>
<text text-anchor="start" x="101" y="-67.5" font-family="Helvetica,sans-Serif" font-size="10.00">amr_wind::kinetic_energy</text>
<text text-anchor="middle" x="164.5" y="-56.5" font-family="Helvetica,sans-Serif" font-size="10.00">::KineticEnergy</text>
</a>
</g>
</g>
<!-- Node152&#45;&gt;Node158 -->
<g id="edge6" class="edge">
<title>Node152&#45;&gt;Node158</title>
<path fill="none" stroke="midnightblue" d="M41.57,-143.84C53.03,-127.46 71.64,-104.04 93,-89.5 98.58,-85.7 104.8,-82.41 111.18,-79.58"/>
<polygon fill="midnightblue" stroke="midnightblue" points="38.38,-142.31 35.68,-152.55 44.18,-146.23 38.38,-142.31"/>
</g>
<!-- Node159 -->
<g id="node8" class="node">
<title>Node159</title>
<g id="a_node8"><a xlink:href="classamr__wind_1_1sampling_1_1_sampling.html" target="_top" xlink:title="Collection of data sampling objects.">
<polygon fill="white" stroke="black" points="106.5,-0.5 106.5,-30.5 222.5,-30.5 222.5,-0.5 106.5,-0.5"/>
<text text-anchor="start" x="114.5" y="-18.5" font-family="Helvetica,sans-Serif" font-size="10.00">amr_wind::sampling</text>
<text text-anchor="middle" x="164.5" y="-7.5" font-family="Helvetica,sans-Serif" font-size="10.00">::Sampling</text>
</a>
</g>
</g>
<!-- Node152&#45;&gt;Node159 -->
<g id="edge7" class="edge">
<title>Node152&#45;&gt;Node159</title>
<path fill="none" stroke="midnightblue" d="M34.72,-142.98C42.85,-116.23 61.01,-68.32 93,-40.5 97.41,-36.66 102.45,-33.41 107.76,-30.64"/>
<polygon fill="midnightblue" stroke="midnightblue" points="31.32,-142.15 31.93,-152.73 38.05,-144.08 31.32,-142.15"/>
</g>
</g>
</svg>
