<?xml version="1.0" encoding="UTF-8" standalone="no"?>
<!DOCTYPE svg PUBLIC "-//W3C//DTD SVG 1.1//EN"
 "http://www.w3.org/Graphics/SVG/1.1/DTD/svg11.dtd">
<!-- Generated by graphviz version 2.43.0 (0)
 -->
<!-- Title: linear_interpolation.H Pages: 1 -->
<svg width="459pt" height="140pt"
 viewBox="0.00 0.00 459.00 140.00" xmlns="http://www.w3.org/2000/svg" xmlns:xlink="http://www.w3.org/1999/xlink">
<g id="graph0" class="graph" transform="scale(1 1) rotate(0) translate(4 136)">
<title>linear_interpolation.H</title>
<polygon fill="white" stroke="transparent" points="-4,4 -4,-136 455,-136 455,4 -4,4"/>
<!-- Node1 -->
<g id="node1" class="node">
<title>Node1</title>
<g id="a_node1"><a xlink:title=" ">
<polygon fill="#bfbfbf" stroke="black" points="161.5,-112.5 161.5,-131.5 283.5,-131.5 283.5,-112.5 161.5,-112.5"/>
<text text-anchor="middle" x="222.5" y="-119.5" font-family="Helvetica,sans-Serif" font-size="10.00">linear_interpolation.H</text>
</a>
</g>
</g>
<!-- Node2 -->
<g id="node2" class="node">
<title>Node2</title>
<g id="a_node2"><a xlink:href="_lidar_sampler_8cpp.html" target="_top" xlink:title=" ">
<polygon fill="white" stroke="black" points="0,-56.5 0,-75.5 101,-75.5 101,-56.5 0,-56.5"/>
<text text-anchor="middle" x="50.5" y="-63.5" font-family="Helvetica,sans-Serif" font-size="10.00">LidarSampler.cpp</text>
</a>
</g>
</g>
<!-- Node1&#45;&gt;Node2 -->
<g id="edge1" class="edge">
<title>Node1&#45;&gt;Node2</title>
<path fill="none" stroke="midnightblue" d="M185.67,-109.44C153.24,-99.26 106.76,-84.66 77.63,-75.52"/>
<polygon fill="midnightblue" stroke="midnightblue" points="184.66,-112.79 195.25,-112.44 186.75,-106.11 184.66,-112.79"/>
</g>
<!-- Node3 -->
<g id="node3" class="node">
<title>Node3</title>
<g id="a_node3"><a xlink:href="_airfoil_table_8cpp.html" target="_top" xlink:title=" ">
<polygon fill="white" stroke="black" points="119.5,-56.5 119.5,-75.5 211.5,-75.5 211.5,-56.5 119.5,-56.5"/>
<text text-anchor="middle" x="165.5" y="-63.5" font-family="Helvetica,sans-Serif" font-size="10.00">AirfoilTable.cpp</text>
</a>
</g>
</g>
<!-- Node1&#45;&gt;Node3 -->
<g id="edge2" class="edge">
<title>Node1&#45;&gt;Node3</title>
<path fill="none" stroke="midnightblue" d="M205.88,-105.25C195.77,-95.67 183.22,-83.79 174.82,-75.83"/>
<polygon fill="midnightblue" stroke="midnightblue" points="203.68,-107.99 213.34,-112.32 208.49,-102.91 203.68,-107.99"/>
</g>
<!-- Node4 -->
<g id="node4" class="node">
<title>Node4</title>
<g id="a_node4"><a xlink:href="uniform__ct__ops_8_h.html" target="_top" xlink:title=" ">
<polygon fill="white" stroke="black" points="229.5,-56.5 229.5,-75.5 331.5,-75.5 331.5,-56.5 229.5,-56.5"/>
<text text-anchor="middle" x="280.5" y="-63.5" font-family="Helvetica,sans-Serif" font-size="10.00">uniform_ct_ops.H</text>
</a>
</g>
</g>
<!-- Node1&#45;&gt;Node4 -->
<g id="edge3" class="edge">
<title>Node1&#45;&gt;Node4</title>
<path fill="none" stroke="midnightblue" d="M239.41,-105.25C249.7,-95.67 262.47,-83.79 271.01,-75.83"/>
<polygon fill="midnightblue" stroke="midnightblue" points="236.75,-102.95 231.82,-112.32 241.52,-108.07 236.75,-102.95"/>
</g>
<!-- Node7 -->
<g id="node7" class="node">
<title>Node7</title>
<g id="a_node7"><a xlink:href="fixed__wing__ops_8_h.html" target="_top" xlink:title=" ">
<polygon fill="white" stroke="black" points="350,-56.5 350,-75.5 451,-75.5 451,-56.5 350,-56.5"/>
<text text-anchor="middle" x="400.5" y="-63.5" font-family="Helvetica,sans-Serif" font-size="10.00">fixed_wing_ops.H</text>
</a>
</g>
</g>
<!-- Node1&#45;&gt;Node7 -->
<g id="edge6" class="edge">
<title>Node1&#45;&gt;Node7</title>
<path fill="none" stroke="midnightblue" d="M260.62,-109.44C294.18,-99.26 342.27,-84.66 372.43,-75.52"/>
<polygon fill="midnightblue" stroke="midnightblue" points="259.26,-106.19 250.7,-112.44 261.29,-112.89 259.26,-106.19"/>
</g>
<!-- Node5 -->
<g id="node5" class="node">
<title>Node5</title>
<g id="a_node5"><a xlink:href="_actuator_disk_8cpp.html" target="_top" xlink:title=" ">
<polygon fill="white" stroke="black" points="107.5,-0.5 107.5,-19.5 207.5,-19.5 207.5,-0.5 107.5,-0.5"/>
<text text-anchor="middle" x="157.5" y="-7.5" font-family="Helvetica,sans-Serif" font-size="10.00">ActuatorDisk.cpp</text>
</a>
</g>
</g>
<!-- Node4&#45;&gt;Node5 -->
<g id="edge4" class="edge">
<title>Node4&#45;&gt;Node5</title>
<path fill="none" stroke="midnightblue" d="M251.73,-52.37C228.69,-42.26 197.02,-28.35 176.9,-19.52"/>
<polygon fill="midnightblue" stroke="midnightblue" points="250.45,-55.63 261.01,-56.44 253.26,-49.22 250.45,-55.63"/>
</g>
<!-- Node6 -->
<g id="node6" class="node">
<title>Node6</title>
<g id="a_node6"><a xlink:href="uniform__ct__ops_8cpp.html" target="_top" xlink:title=" ">
<polygon fill="white" stroke="black" points="225.5,-0.5 225.5,-19.5 337.5,-19.5 337.5,-0.5 225.5,-0.5"/>
<text text-anchor="middle" x="281.5" y="-7.5" font-family="Helvetica,sans-Serif" font-size="10.00">uniform_ct_ops.cpp</text>
</a>
</g>
</g>
<!-- Node4&#45;&gt;Node6 -->
<g id="edge5" class="edge">
<title>Node4&#45;&gt;Node6</title>
<path fill="none" stroke="midnightblue" d="M280.86,-45.8C281.02,-36.91 281.21,-26.78 281.34,-19.75"/>
<polygon fill="midnightblue" stroke="midnightblue" points="277.35,-46.02 280.67,-56.08 284.35,-46.15 277.35,-46.02"/>
</g>
<!-- Node8 -->
<g id="node8" class="node">
<title>Node8</title>
<g id="a_node8"><a xlink:href="_fixed_wing_8cpp.html" target="_top" xlink:title=" ">
<polygon fill="white" stroke="black" points="357,-0.5 357,-19.5 444,-19.5 444,-0.5 357,-0.5"/>
<text text-anchor="middle" x="400.5" y="-7.5" font-family="Helvetica,sans-Serif" font-size="10.00">FixedWing.cpp</text>
</a>
</g>
</g>
<!-- Node7&#45;&gt;Node8 -->
<g id="edge7" class="edge">
<title>Node7&#45;&gt;Node8</title>
<path fill="none" stroke="midnightblue" d="M400.5,-45.8C400.5,-36.91 400.5,-26.78 400.5,-19.75"/>
<polygon fill="midnightblue" stroke="midnightblue" points="397,-46.08 400.5,-56.08 404,-46.08 397,-46.08"/>
</g>
</g>
</svg>
