<?xml version="1.0" encoding="UTF-8" standalone="no"?>
<!DOCTYPE svg PUBLIC "-//W3C//DTD SVG 1.1//EN"
 "http://www.w3.org/Graphics/SVG/1.1/DTD/svg11.dtd">
<!-- Generated by graphviz version 2.43.0 (0)
 -->
<!-- Title: nc_interface.H Pages: 1 -->
<svg width="2424pt" height="263pt"
 viewBox="0.00 0.00 2424.00 263.00" xmlns="http://www.w3.org/2000/svg" xmlns:xlink="http://www.w3.org/1999/xlink">
<g id="graph0" class="graph" transform="scale(1 1) rotate(0) translate(4 259)">
<title>nc_interface.H</title>
<polygon fill="white" stroke="transparent" points="-4,4 -4,-259 2420,-259 2420,4 -4,4"/>
<!-- Node1 -->
<g id="node1" class="node">
<title>Node1</title>
<g id="a_node1"><a xlink:title=" ">
<polygon fill="#bfbfbf" stroke="black" points="1630,-235.5 1630,-254.5 1717,-254.5 1717,-235.5 1630,-235.5"/>
<text text-anchor="middle" x="1673.5" y="-242.5" font-family="Helvetica,sans-Serif" font-size="10.00">nc_interface.H</text>
</a>
</g>
</g>
<!-- Node2 -->
<g id="node2" class="node">
<title>Node2</title>
<g id="a_node2"><a xlink:href="_a_b_l_boundary_plane_8_h.html" target="_top" xlink:title=" ">
<polygon fill="white" stroke="black" points="745,-179.5 745,-198.5 864,-198.5 864,-179.5 745,-179.5"/>
<text text-anchor="middle" x="804.5" y="-186.5" font-family="Helvetica,sans-Serif" font-size="10.00">ABLBoundaryPlane.H</text>
</a>
</g>
</g>
<!-- Node1&#45;&gt;Node2 -->
<g id="edge1" class="edge">
<title>Node1&#45;&gt;Node2</title>
<path fill="none" stroke="midnightblue" d="M1619.6,-241.18C1495.5,-234.61 1180.03,-217.42 916.5,-199 899.47,-197.81 881,-196.38 864.06,-195.02"/>
<polygon fill="midnightblue" stroke="midnightblue" points="1619.79,-244.7 1629.96,-241.73 1620.16,-237.71 1619.79,-244.7"/>
</g>
<!-- Node11 -->
<g id="node11" class="node">
<title>Node11</title>
<g id="a_node11"><a xlink:href="_a_b_l_boundary_plane_8cpp.html" target="_top" xlink:title=" ">
<polygon fill="white" stroke="black" points="869,-62 869,-81 998,-81 998,-62 869,-62"/>
<text text-anchor="middle" x="933.5" y="-69" font-family="Helvetica,sans-Serif" font-size="10.00">ABLBoundaryPlane.cpp</text>
</a>
</g>
</g>
<!-- Node1&#45;&gt;Node11 -->
<g id="edge37" class="edge">
<title>Node1&#45;&gt;Node11</title>
<path fill="none" stroke="midnightblue" d="M1619.84,-244.52C1460.48,-245.55 998.06,-244.56 949.5,-199 916.08,-167.65 926.25,-104.29 931.36,-81.18"/>
<polygon fill="midnightblue" stroke="midnightblue" points="1619.91,-248.02 1629.89,-244.45 1619.86,-241.02 1619.91,-248.02"/>
</g>
<!-- Node14 -->
<g id="node14" class="node">
<title>Node14</title>
<g id="a_node14"><a xlink:href="bluff__body__ops_8cpp.html" target="_top" xlink:title=" ">
<polygon fill="white" stroke="black" points="958.5,-179.5 958.5,-198.5 1068.5,-198.5 1068.5,-179.5 958.5,-179.5"/>
<text text-anchor="middle" x="1013.5" y="-186.5" font-family="Helvetica,sans-Serif" font-size="10.00">bluff_body_ops.cpp</text>
</a>
</g>
</g>
<!-- Node1&#45;&gt;Node14 -->
<g id="edge15" class="edge">
<title>Node1&#45;&gt;Node14</title>
<path fill="none" stroke="midnightblue" d="M1619.67,-241.1C1515.02,-235.2 1276.94,-220.53 1077.5,-199 1074.6,-198.69 1071.63,-198.34 1068.63,-197.98"/>
<polygon fill="midnightblue" stroke="midnightblue" points="1619.49,-244.59 1629.67,-241.66 1619.88,-237.61 1619.49,-244.59"/>
</g>
<!-- Node15 -->
<g id="node15" class="node">
<title>Node15</title>
<g id="a_node15"><a xlink:href="_synthetic_turbulence_8cpp.html" target="_top" xlink:title=" ">
<polygon fill="white" stroke="black" points="1087,-179.5 1087,-198.5 1222,-198.5 1222,-179.5 1087,-179.5"/>
<text text-anchor="middle" x="1154.5" y="-186.5" font-family="Helvetica,sans-Serif" font-size="10.00">SyntheticTurbulence.cpp</text>
</a>
</g>
</g>
<!-- Node1&#45;&gt;Node15 -->
<g id="edge16" class="edge">
<title>Node1&#45;&gt;Node15</title>
<path fill="none" stroke="midnightblue" d="M1619.78,-238.83C1536.41,-230.75 1370.84,-214.44 1230.5,-199 1227.73,-198.69 1224.9,-198.38 1222.04,-198.06"/>
<polygon fill="midnightblue" stroke="midnightblue" points="1619.48,-242.32 1629.77,-239.8 1620.16,-235.35 1619.48,-242.32"/>
</g>
<!-- Node16 -->
<g id="node16" class="node">
<title>Node16</title>
<g id="a_node16"><a xlink:href="nc__interface_8cpp.html" target="_top" xlink:title=" ">
<polygon fill="white" stroke="black" points="1240,-179.5 1240,-198.5 1337,-198.5 1337,-179.5 1240,-179.5"/>
<text text-anchor="middle" x="1288.5" y="-186.5" font-family="Helvetica,sans-Serif" font-size="10.00">nc_interface.cpp</text>
</a>
</g>
</g>
<!-- Node1&#45;&gt;Node16 -->
<g id="edge17" class="edge">
<title>Node1&#45;&gt;Node16</title>
<path fill="none" stroke="midnightblue" d="M1619.85,-236.9C1555.03,-228.27 1442.71,-213.08 1346.5,-199 1343.48,-198.56 1340.36,-198.09 1337.23,-197.62"/>
<polygon fill="midnightblue" stroke="midnightblue" points="1619.46,-240.38 1629.83,-238.23 1620.38,-233.44 1619.46,-240.38"/>
</g>
<!-- Node17 -->
<g id="node17" class="node">
<title>Node17</title>
<g id="a_node17"><a xlink:href="_enstrophy_8cpp.html" target="_top" xlink:title=" ">
<polygon fill="white" stroke="black" points="1355.5,-179.5 1355.5,-198.5 1439.5,-198.5 1439.5,-179.5 1355.5,-179.5"/>
<text text-anchor="middle" x="1397.5" y="-186.5" font-family="Helvetica,sans-Serif" font-size="10.00">Enstrophy.cpp</text>
</a>
</g>
</g>
<!-- Node1&#45;&gt;Node17 -->
<g id="edge18" class="edge">
<title>Node1&#45;&gt;Node17</title>
<path fill="none" stroke="midnightblue" d="M1619.93,-233.52C1567.28,-223.22 1487.99,-207.71 1439.67,-198.25"/>
<polygon fill="midnightblue" stroke="midnightblue" points="1619.28,-236.96 1629.77,-235.44 1620.63,-230.09 1619.28,-236.96"/>
</g>
<!-- Node18 -->
<g id="node18" class="node">
<title>Node18</title>
<g id="a_node18"><a xlink:href="_field_norms_8cpp.html" target="_top" xlink:title=" ">
<polygon fill="white" stroke="black" points="1457.5,-179.5 1457.5,-198.5 1549.5,-198.5 1549.5,-179.5 1457.5,-179.5"/>
<text text-anchor="middle" x="1503.5" y="-186.5" font-family="Helvetica,sans-Serif" font-size="10.00">FieldNorms.cpp</text>
</a>
</g>
</g>
<!-- Node1&#45;&gt;Node18 -->
<g id="edge19" class="edge">
<title>Node1&#45;&gt;Node18</title>
<path fill="none" stroke="midnightblue" d="M1636.68,-232.3C1604.65,-222.13 1558.98,-207.62 1530.31,-198.52"/>
<polygon fill="midnightblue" stroke="midnightblue" points="1635.97,-235.75 1646.56,-235.44 1638.09,-229.08 1635.97,-235.75"/>
</g>
<!-- Node19 -->
<g id="node19" class="node">
<title>Node19</title>
<g id="a_node19"><a xlink:href="_free_surface_8cpp.html" target="_top" xlink:title=" ">
<polygon fill="white" stroke="black" points="1568,-179.5 1568,-198.5 1663,-198.5 1663,-179.5 1568,-179.5"/>
<text text-anchor="middle" x="1615.5" y="-186.5" font-family="Helvetica,sans-Serif" font-size="10.00">FreeSurface.cpp</text>
</a>
</g>
</g>
<!-- Node1&#45;&gt;Node19 -->
<g id="edge20" class="edge">
<title>Node1&#45;&gt;Node19</title>
<path fill="none" stroke="midnightblue" d="M1656.59,-228.25C1646.3,-218.67 1633.53,-206.79 1624.99,-198.83"/>
<polygon fill="midnightblue" stroke="midnightblue" points="1654.48,-231.07 1664.18,-235.32 1659.25,-225.95 1654.48,-231.07"/>
</g>
<!-- Node20 -->
<g id="node20" class="node">
<title>Node20</title>
<g id="a_node20"><a xlink:href="_kinetic_energy_8cpp.html" target="_top" xlink:title=" ">
<polygon fill="white" stroke="black" points="1681,-179.5 1681,-198.5 1784,-198.5 1784,-179.5 1681,-179.5"/>
<text text-anchor="middle" x="1732.5" y="-186.5" font-family="Helvetica,sans-Serif" font-size="10.00">KineticEnergy.cpp</text>
</a>
</g>
</g>
<!-- Node1&#45;&gt;Node20 -->
<g id="edge21" class="edge">
<title>Node1&#45;&gt;Node20</title>
<path fill="none" stroke="midnightblue" d="M1690.39,-228.54C1700.91,-218.91 1714.07,-206.87 1722.85,-198.83"/>
<polygon fill="midnightblue" stroke="midnightblue" points="1687.99,-225.99 1682.98,-235.32 1692.72,-231.15 1687.99,-225.99"/>
</g>
<!-- Node21 -->
<g id="node21" class="node">
<title>Node21</title>
<g id="a_node21"><a xlink:href="_sampler_base_8_h.html" target="_top" xlink:title=" ">
<polygon fill="white" stroke="black" points="1802.5,-179.5 1802.5,-198.5 1894.5,-198.5 1894.5,-179.5 1802.5,-179.5"/>
<text text-anchor="middle" x="1848.5" y="-186.5" font-family="Helvetica,sans-Serif" font-size="10.00">SamplerBase.H</text>
</a>
</g>
</g>
<!-- Node1&#45;&gt;Node21 -->
<g id="edge22" class="edge">
<title>Node1&#45;&gt;Node21</title>
<path fill="none" stroke="midnightblue" d="M1710.97,-232.44C1743.97,-222.26 1791.26,-207.66 1820.9,-198.52"/>
<polygon fill="midnightblue" stroke="midnightblue" points="1709.75,-229.15 1701.23,-235.44 1711.82,-235.84 1709.75,-229.15"/>
</g>
<!-- Node31 -->
<g id="node31" class="node">
<title>Node31</title>
<g id="a_node31"><a xlink:href="_sampling_8cpp.html" target="_top" xlink:title=" ">
<polygon fill="white" stroke="black" points="1758,-62 1758,-81 1841,-81 1841,-62 1758,-62"/>
<text text-anchor="middle" x="1799.5" y="-69" font-family="Helvetica,sans-Serif" font-size="10.00">Sampling.cpp</text>
</a>
</g>
</g>
<!-- Node1&#45;&gt;Node31 -->
<g id="edge36" class="edge">
<title>Node1&#45;&gt;Node31</title>
<path fill="none" stroke="midnightblue" d="M1727.34,-241.15C1788.18,-236.68 1881.62,-225.58 1903.5,-199 1911.59,-189.17 1923.68,-156.3 1902.5,-123 1888.45,-100.9 1861.65,-88.18 1838.92,-81.03"/>
<polygon fill="midnightblue" stroke="midnightblue" points="1726.86,-237.68 1717.12,-241.87 1727.34,-244.66 1726.86,-237.68"/>
</g>
<!-- Node34 -->
<g id="node34" class="node">
<title>Node34</title>
<g id="a_node34"><a xlink:href="_a_b_l_stats_8cpp.html" target="_top" xlink:title=" ">
<polygon fill="white" stroke="black" points="1900.5,-62 1900.5,-81 1980.5,-81 1980.5,-62 1900.5,-62"/>
<text text-anchor="middle" x="1940.5" y="-69" font-family="Helvetica,sans-Serif" font-size="10.00">ABLStats.cpp</text>
</a>
</g>
</g>
<!-- Node1&#45;&gt;Node34 -->
<g id="edge38" class="edge">
<title>Node1&#45;&gt;Node34</title>
<path fill="none" stroke="midnightblue" d="M1727.28,-241.47C1792.27,-237.24 1896.21,-226.29 1922.5,-199 1954.2,-166.09 1946.54,-104.23 1942.34,-81.33"/>
<polygon fill="midnightblue" stroke="midnightblue" points="1726.96,-237.98 1717.2,-242.1 1727.4,-244.97 1726.96,-237.98"/>
</g>
<!-- Node35 -->
<g id="node35" class="node">
<title>Node35</title>
<g id="a_node35"><a xlink:href="uniform__ct__ops_8cpp.html" target="_top" xlink:title=" ">
<polygon fill="white" stroke="black" points="1988.5,-179.5 1988.5,-198.5 2100.5,-198.5 2100.5,-179.5 1988.5,-179.5"/>
<text text-anchor="middle" x="2044.5" y="-186.5" font-family="Helvetica,sans-Serif" font-size="10.00">uniform_ct_ops.cpp</text>
</a>
</g>
</g>
<!-- Node1&#45;&gt;Node35 -->
<g id="edge39" class="edge">
<title>Node1&#45;&gt;Node35</title>
<path fill="none" stroke="midnightblue" d="M1727.46,-236.15C1797.08,-226.01 1917.64,-208.46 1988.33,-198.18"/>
<polygon fill="midnightblue" stroke="midnightblue" points="1726.54,-232.74 1717.15,-237.65 1727.55,-239.67 1726.54,-232.74"/>
</g>
<!-- Node36 -->
<g id="node36" class="node">
<title>Node36</title>
<g id="a_node36"><a xlink:href="_fast_iface_8cpp.html" target="_top" xlink:title=" ">
<polygon fill="white" stroke="black" points="2118.5,-179.5 2118.5,-198.5 2198.5,-198.5 2198.5,-179.5 2118.5,-179.5"/>
<text text-anchor="middle" x="2158.5" y="-186.5" font-family="Helvetica,sans-Serif" font-size="10.00">FastIface.cpp</text>
</a>
</g>
</g>
<!-- Node1&#45;&gt;Node36 -->
<g id="edge40" class="edge">
<title>Node1&#45;&gt;Node36</title>
<path fill="none" stroke="midnightblue" d="M1727.41,-239.81C1809.93,-233.09 1972.43,-218.63 2109.5,-199 2112.41,-198.58 2115.41,-198.12 2118.43,-197.63"/>
<polygon fill="midnightblue" stroke="midnightblue" points="1726.95,-236.34 1717.27,-240.63 1727.52,-243.31 1726.95,-236.34"/>
</g>
<!-- Node37 -->
<g id="node37" class="node">
<title>Node37</title>
<g id="a_node37"><a xlink:href="turbine__utils_8cpp.html" target="_top" xlink:title=" ">
<polygon fill="white" stroke="black" points="2216.5,-179.5 2216.5,-198.5 2314.5,-198.5 2314.5,-179.5 2216.5,-179.5"/>
<text text-anchor="middle" x="2265.5" y="-186.5" font-family="Helvetica,sans-Serif" font-size="10.00">turbine_utils.cpp</text>
</a>
</g>
</g>
<!-- Node1&#45;&gt;Node37 -->
<g id="edge41" class="edge">
<title>Node1&#45;&gt;Node37</title>
<path fill="none" stroke="midnightblue" d="M1727.3,-240.71C1823.75,-234.55 2032.36,-219.94 2207.5,-199 2210.43,-198.65 2213.45,-198.26 2216.49,-197.85"/>
<polygon fill="midnightblue" stroke="midnightblue" points="1726.97,-237.23 1717.21,-241.35 1727.41,-244.21 1726.97,-237.23"/>
</g>
<!-- Node38 -->
<g id="node38" class="node">
<title>Node38</title>
<g id="a_node38"><a xlink:href="wing__ops_8cpp.html" target="_top" xlink:title=" ">
<polygon fill="white" stroke="black" points="2333,-179.5 2333,-198.5 2416,-198.5 2416,-179.5 2333,-179.5"/>
<text text-anchor="middle" x="2374.5" y="-186.5" font-family="Helvetica,sans-Serif" font-size="10.00">wing_ops.cpp</text>
</a>
</g>
</g>
<!-- Node1&#45;&gt;Node38 -->
<g id="edge42" class="edge">
<title>Node1&#45;&gt;Node38</title>
<path fill="none" stroke="midnightblue" d="M1727.32,-242.2C1838.86,-238.04 2103.24,-225.98 2323.5,-199 2326.53,-198.63 2329.66,-198.2 2332.81,-197.73"/>
<polygon fill="midnightblue" stroke="midnightblue" points="1726.87,-238.71 1717.01,-242.57 1727.13,-245.71 1726.87,-238.71"/>
</g>
<!-- Node3 -->
<g id="node3" class="node">
<title>Node3</title>
<g id="a_node3"><a xlink:href="_a_b_l_8_h.html" target="_top" xlink:title=" ">
<polygon fill="white" stroke="black" points="461.5,-123.5 461.5,-142.5 507.5,-142.5 507.5,-123.5 461.5,-123.5"/>
<text text-anchor="middle" x="484.5" y="-130.5" font-family="Helvetica,sans-Serif" font-size="10.00">ABL.H</text>
</a>
</g>
</g>
<!-- Node2&#45;&gt;Node3 -->
<g id="edge2" class="edge">
<title>Node2&#45;&gt;Node3</title>
<path fill="none" stroke="midnightblue" d="M743.56,-177.72C671.99,-165.64 556.8,-146.2 507.79,-137.93"/>
<polygon fill="midnightblue" stroke="midnightblue" points="743.35,-181.23 753.8,-179.44 744.52,-174.33 743.35,-181.23"/>
</g>
<!-- Node9 -->
<g id="node9" class="node">
<title>Node9</title>
<g id="a_node9"><a xlink:href="_a_b_l_8cpp.html" target="_top" xlink:title=" ">
<polygon fill="white" stroke="black" points="678.5,-62 678.5,-81 734.5,-81 734.5,-62 678.5,-62"/>
<text text-anchor="middle" x="706.5" y="-69" font-family="Helvetica,sans-Serif" font-size="10.00">ABL.cpp</text>
</a>
</g>
</g>
<!-- Node2&#45;&gt;Node9 -->
<g id="edge10" class="edge">
<title>Node2&#45;&gt;Node9</title>
<path fill="none" stroke="midnightblue" d="M783.61,-173.12C772.98,-164.95 760.27,-154.21 750.5,-143 733.06,-122.99 717.96,-95.32 710.84,-81.34"/>
<polygon fill="midnightblue" stroke="midnightblue" points="781.84,-176.16 791.94,-179.33 786.02,-170.55 781.84,-176.16"/>
</g>
<!-- Node2&#45;&gt;Node11 -->
<g id="edge11" class="edge">
<title>Node2&#45;&gt;Node11</title>
<path fill="none" stroke="midnightblue" d="M823.07,-172.58C833.31,-163.98 846.22,-153.02 857.5,-143 882,-121.26 910.08,-94.8 924.26,-81.32"/>
<polygon fill="midnightblue" stroke="midnightblue" points="820.61,-170.07 815.18,-179.17 825.09,-175.44 820.61,-170.07"/>
</g>
<!-- Node12 -->
<g id="node12" class="node">
<title>Node12</title>
<g id="a_node12"><a xlink:href="_a_b_l_fill_inflow_8_h.html" target="_top" xlink:title=" ">
<polygon fill="white" stroke="black" points="760,-123.5 760,-142.5 849,-142.5 849,-123.5 760,-123.5"/>
<text text-anchor="middle" x="804.5" y="-130.5" font-family="Helvetica,sans-Serif" font-size="10.00">ABLFillInflow.H</text>
</a>
</g>
</g>
<!-- Node2&#45;&gt;Node12 -->
<g id="edge12" class="edge">
<title>Node2&#45;&gt;Node12</title>
<path fill="none" stroke="midnightblue" d="M804.5,-168.8C804.5,-159.91 804.5,-149.78 804.5,-142.75"/>
<polygon fill="midnightblue" stroke="midnightblue" points="801,-169.08 804.5,-179.08 808,-169.08 801,-169.08"/>
</g>
<!-- Node4 -->
<g id="node4" class="node">
<title>Node4</title>
<g id="a_node4"><a xlink:href="_a_b_l_forcing_8cpp.html" target="_top" xlink:title=" ">
<polygon fill="white" stroke="black" points="135,-62 135,-81 226,-81 226,-62 135,-62"/>
<text text-anchor="middle" x="180.5" y="-69" font-family="Helvetica,sans-Serif" font-size="10.00">ABLForcing.cpp</text>
</a>
</g>
</g>
<!-- Node3&#45;&gt;Node4 -->
<g id="edge3" class="edge">
<title>Node3&#45;&gt;Node4</title>
<path fill="none" stroke="midnightblue" d="M451.28,-126.85C403.38,-119.24 312.25,-104.03 235.5,-87 227.59,-85.25 219.11,-83.13 211.23,-81.06"/>
<polygon fill="midnightblue" stroke="midnightblue" points="450.95,-130.35 461.38,-128.45 452.05,-123.43 450.95,-130.35"/>
</g>
<!-- Node5 -->
<g id="node5" class="node">
<title>Node5</title>
<g id="a_node5"><a xlink:href="_a_b_l_mean_boussinesq_8cpp.html" target="_top" xlink:title=" ">
<polygon fill="white" stroke="black" points="244.5,-62 244.5,-81 382.5,-81 382.5,-62 244.5,-62"/>
<text text-anchor="middle" x="313.5" y="-69" font-family="Helvetica,sans-Serif" font-size="10.00">ABLMeanBoussinesq.cpp</text>
</a>
</g>
</g>
<!-- Node3&#45;&gt;Node5 -->
<g id="edge4" class="edge">
<title>Node3&#45;&gt;Node5</title>
<path fill="none" stroke="midnightblue" d="M451.75,-120.6C418.58,-109.06 368.04,-91.48 338.13,-81.07"/>
<polygon fill="midnightblue" stroke="midnightblue" points="450.84,-123.99 461.44,-123.98 453.14,-117.38 450.84,-123.99"/>
</g>
<!-- Node6 -->
<g id="node6" class="node">
<title>Node6</title>
<g id="a_node6"><a xlink:href="incflo_8cpp.html" target="_top" xlink:title=" ">
<polygon fill="white" stroke="black" points="401,-62 401,-81 464,-81 464,-62 401,-62"/>
<text text-anchor="middle" x="432.5" y="-69" font-family="Helvetica,sans-Serif" font-size="10.00">incflo.cpp</text>
</a>
</g>
</g>
<!-- Node3&#45;&gt;Node6 -->
<g id="edge5" class="edge">
<title>Node3&#45;&gt;Node6</title>
<path fill="none" stroke="midnightblue" d="M470.23,-115.67C460.42,-104.45 447.81,-90.02 439.94,-81.01"/>
<polygon fill="midnightblue" stroke="midnightblue" points="467.83,-118.25 477.05,-123.48 473.1,-113.64 467.83,-118.25"/>
</g>
<!-- Node7 -->
<g id="node7" class="node">
<title>Node7</title>
<g id="a_node7"><a xlink:href="incflo__apply__nodal__projection_8cpp.html" target="_top" xlink:title=" ">
<polygon fill="white" stroke="black" points="482,-56.5 482,-86.5 589,-86.5 589,-56.5 482,-56.5"/>
<text text-anchor="start" x="490" y="-74.5" font-family="Helvetica,sans-Serif" font-size="10.00">incflo_apply_nodal</text>
<text text-anchor="middle" x="535.5" y="-63.5" font-family="Helvetica,sans-Serif" font-size="10.00">_projection.cpp</text>
</a>
</g>
</g>
<!-- Node3&#45;&gt;Node7 -->
<g id="edge6" class="edge">
<title>Node3&#45;&gt;Node7</title>
<path fill="none" stroke="midnightblue" d="M498.38,-115.81C506.23,-106.65 515.95,-95.3 523.48,-86.52"/>
<polygon fill="midnightblue" stroke="midnightblue" points="495.66,-113.6 491.81,-123.48 500.97,-118.16 495.66,-113.6"/>
</g>
<!-- Node8 -->
<g id="node8" class="node">
<title>Node8</title>
<g id="a_node8"><a xlink:href="init_8cpp.html" target="_top" xlink:title=" ">
<polygon fill="white" stroke="black" points="607,-62 607,-81 660,-81 660,-62 607,-62"/>
<text text-anchor="middle" x="633.5" y="-69" font-family="Helvetica,sans-Serif" font-size="10.00">init.cpp</text>
</a>
</g>
</g>
<!-- Node3&#45;&gt;Node8 -->
<g id="edge7" class="edge">
<title>Node3&#45;&gt;Node8</title>
<path fill="none" stroke="midnightblue" d="M515.63,-119.64C538.34,-110.62 569.84,-98.08 597.5,-87 602.25,-85.1 607.36,-83.04 612.19,-81.1"/>
<polygon fill="midnightblue" stroke="midnightblue" points="514.17,-116.45 506.17,-123.4 516.76,-122.96 514.17,-116.45"/>
</g>
<!-- Node3&#45;&gt;Node9 -->
<g id="edge8" class="edge">
<title>Node3&#45;&gt;Node9</title>
<path fill="none" stroke="midnightblue" d="M517.95,-125.13C555.09,-117.21 616.64,-103.17 668.5,-87 674.03,-85.28 679.91,-83.17 685.36,-81.1"/>
<polygon fill="midnightblue" stroke="midnightblue" points="516.76,-121.81 507.7,-127.3 518.21,-128.66 516.76,-121.81"/>
</g>
<!-- Node10 -->
<g id="node10" class="node">
<title>Node10</title>
<g id="a_node10"><a xlink:href="_a_b_l_wall_function_8cpp.html" target="_top" xlink:title=" ">
<polygon fill="white" stroke="black" points="0,-62 0,-81 117,-81 117,-62 0,-62"/>
<text text-anchor="middle" x="58.5" y="-69" font-family="Helvetica,sans-Serif" font-size="10.00">ABLWallFunction.cpp</text>
</a>
</g>
</g>
<!-- Node3&#45;&gt;Node10 -->
<g id="edge9" class="edge">
<title>Node3&#45;&gt;Node10</title>
<path fill="none" stroke="midnightblue" d="M451.07,-128.81C387.43,-122.51 244.62,-107.31 125.5,-87 115.65,-85.32 105.04,-83.18 95.25,-81.07"/>
<polygon fill="midnightblue" stroke="midnightblue" points="451,-132.32 461.3,-129.81 451.69,-125.35 451,-132.32"/>
</g>
<!-- Node12&#45;&gt;Node11 -->
<g id="edge13" class="edge">
<title>Node12&#45;&gt;Node11</title>
<path fill="none" stroke="midnightblue" d="M832.31,-119.17C857.34,-107.63 893.42,-90.99 915.05,-81.01"/>
<polygon fill="midnightblue" stroke="midnightblue" points="830.6,-116.11 822.98,-123.48 833.53,-122.46 830.6,-116.11"/>
</g>
<!-- Node13 -->
<g id="node13" class="node">
<title>Node13</title>
<g id="a_node13"><a xlink:href="_a_b_l_fill_inflow_8cpp.html" target="_top" xlink:title=" ">
<polygon fill="white" stroke="black" points="752.5,-62 752.5,-81 850.5,-81 850.5,-62 752.5,-62"/>
<text text-anchor="middle" x="801.5" y="-69" font-family="Helvetica,sans-Serif" font-size="10.00">ABLFillInflow.cpp</text>
</a>
</g>
</g>
<!-- Node12&#45;&gt;Node13 -->
<g id="edge14" class="edge">
<title>Node12&#45;&gt;Node13</title>
<path fill="none" stroke="midnightblue" d="M803.56,-113.32C803.01,-102.5 802.35,-89.4 801.93,-81.01"/>
<polygon fill="midnightblue" stroke="midnightblue" points="800.07,-113.66 804.07,-123.48 807.06,-113.31 800.07,-113.66"/>
</g>
<!-- Node22 -->
<g id="node22" class="node">
<title>Node22</title>
<g id="a_node22"><a xlink:href="_line_sampler_8_h.html" target="_top" xlink:title=" ">
<polygon fill="white" stroke="black" points="1367,-123.5 1367,-142.5 1454,-142.5 1454,-123.5 1367,-123.5"/>
<text text-anchor="middle" x="1410.5" y="-130.5" font-family="Helvetica,sans-Serif" font-size="10.00">LineSampler.H</text>
</a>
</g>
</g>
<!-- Node21&#45;&gt;Node22 -->
<g id="edge23" class="edge">
<title>Node21&#45;&gt;Node22</title>
<path fill="none" stroke="midnightblue" d="M1792.04,-179.01C1644.54,-159.47 1605.31,-163.13 1462.5,-143 1459.78,-142.62 1456.98,-142.2 1454.16,-141.76"/>
<polygon fill="midnightblue" stroke="midnightblue" points="1792.01,-182.54 1802.38,-180.4 1792.94,-175.6 1792.01,-182.54"/>
</g>
<!-- Node26 -->
<g id="node26" class="node">
<title>Node26</title>
<g id="a_node26"><a xlink:href="_plane_sampler_8_h.html" target="_top" xlink:title=" ">
<polygon fill="white" stroke="black" points="1619.5,-123.5 1619.5,-142.5 1713.5,-142.5 1713.5,-123.5 1619.5,-123.5"/>
<text text-anchor="middle" x="1666.5" y="-130.5" font-family="Helvetica,sans-Serif" font-size="10.00">PlaneSampler.H</text>
</a>
</g>
</g>
<!-- Node21&#45;&gt;Node26 -->
<g id="edge27" class="edge">
<title>Node21&#45;&gt;Node26</title>
<path fill="none" stroke="midnightblue" d="M1809.97,-176.57C1775.64,-166.38 1726.17,-151.7 1695.2,-142.52"/>
<polygon fill="midnightblue" stroke="midnightblue" points="1809.08,-179.95 1819.66,-179.44 1811.07,-173.24 1809.08,-179.95"/>
</g>
<!-- Node28 -->
<g id="node28" class="node">
<title>Node28</title>
<g id="a_node28"><a xlink:href="_probe_sampler_8_h.html" target="_top" xlink:title=" ">
<polygon fill="white" stroke="black" points="1250,-123.5 1250,-142.5 1345,-142.5 1345,-123.5 1250,-123.5"/>
<text text-anchor="middle" x="1297.5" y="-130.5" font-family="Helvetica,sans-Serif" font-size="10.00">ProbeSampler.H</text>
</a>
</g>
</g>
<!-- Node21&#45;&gt;Node28 -->
<g id="edge29" class="edge">
<title>Node21&#45;&gt;Node28</title>
<path fill="none" stroke="midnightblue" d="M1792.44,-179.1C1598.23,-155.91 1547,-165.03 1357.5,-143 1353.52,-142.54 1349.41,-142.01 1345.28,-141.46"/>
<polygon fill="midnightblue" stroke="midnightblue" points="1792.05,-182.58 1802.39,-180.3 1792.89,-175.63 1792.05,-182.58"/>
</g>
<!-- Node30 -->
<g id="node30" class="node">
<title>Node30</title>
<g id="a_node30"><a xlink:href="_sampling_8_h.html" target="_top" xlink:title=" ">
<polygon fill="white" stroke="black" points="1732,-123.5 1732,-142.5 1805,-142.5 1805,-123.5 1732,-123.5"/>
<text text-anchor="middle" x="1768.5" y="-130.5" font-family="Helvetica,sans-Serif" font-size="10.00">Sampling.H</text>
</a>
</g>
</g>
<!-- Node21&#45;&gt;Node30 -->
<g id="edge31" class="edge">
<title>Node21&#45;&gt;Node30</title>
<path fill="none" stroke="midnightblue" d="M1827.2,-173.62C1812.58,-163.76 1793.67,-150.99 1781.32,-142.65"/>
<polygon fill="midnightblue" stroke="midnightblue" points="1825.4,-176.63 1835.65,-179.32 1829.32,-170.83 1825.4,-176.63"/>
</g>
<!-- Node32 -->
<g id="node32" class="node">
<title>Node32</title>
<g id="a_node32"><a xlink:href="_sampling_container_8cpp.html" target="_top" xlink:title=" ">
<polygon fill="white" stroke="black" points="1472,-123.5 1472,-142.5 1601,-142.5 1601,-123.5 1472,-123.5"/>
<text text-anchor="middle" x="1536.5" y="-130.5" font-family="Helvetica,sans-Serif" font-size="10.00">SamplingContainer.cpp</text>
</a>
</g>
</g>
<!-- Node21&#45;&gt;Node32 -->
<g id="edge33" class="edge">
<title>Node21&#45;&gt;Node32</title>
<path fill="none" stroke="midnightblue" d="M1792.6,-178.32C1733.76,-168.14 1642.05,-152.27 1585.82,-142.54"/>
<polygon fill="midnightblue" stroke="midnightblue" points="1792.01,-181.78 1802.46,-180.03 1793.21,-174.88 1792.01,-181.78"/>
</g>
<!-- Node33 -->
<g id="node33" class="node">
<title>Node33</title>
<g id="a_node33"><a xlink:href="_a_b_l_stats_8_h.html" target="_top" xlink:title=" ">
<polygon fill="white" stroke="black" points="1823,-123.5 1823,-142.5 1894,-142.5 1894,-123.5 1823,-123.5"/>
<text text-anchor="middle" x="1858.5" y="-130.5" font-family="Helvetica,sans-Serif" font-size="10.00">ABLStats.H</text>
</a>
</g>
</g>
<!-- Node21&#45;&gt;Node33 -->
<g id="edge34" class="edge">
<title>Node21&#45;&gt;Node33</title>
<path fill="none" stroke="midnightblue" d="M1852,-169.1C1853.66,-160.14 1855.56,-149.86 1856.88,-142.75"/>
<polygon fill="midnightblue" stroke="midnightblue" points="1848.53,-168.61 1850.15,-179.08 1855.41,-169.89 1848.53,-168.61"/>
</g>
<!-- Node23 -->
<g id="node23" class="node">
<title>Node23</title>
<g id="a_node23"><a xlink:href="_lidar_sampler_8_h.html" target="_top" xlink:title=" ">
<polygon fill="white" stroke="black" points="1365,-62 1365,-81 1456,-81 1456,-62 1365,-62"/>
<text text-anchor="middle" x="1410.5" y="-69" font-family="Helvetica,sans-Serif" font-size="10.00">LidarSampler.H</text>
</a>
</g>
</g>
<!-- Node22&#45;&gt;Node23 -->
<g id="edge24" class="edge">
<title>Node22&#45;&gt;Node23</title>
<path fill="none" stroke="midnightblue" d="M1410.5,-113.32C1410.5,-102.5 1410.5,-89.4 1410.5,-81.01"/>
<polygon fill="midnightblue" stroke="midnightblue" points="1407,-113.48 1410.5,-123.48 1414,-113.48 1407,-113.48"/>
</g>
<!-- Node25 -->
<g id="node25" class="node">
<title>Node25</title>
<g id="a_node25"><a xlink:href="_line_sampler_8cpp.html" target="_top" xlink:title=" ">
<polygon fill="white" stroke="black" points="1474,-62 1474,-81 1571,-81 1571,-62 1474,-62"/>
<text text-anchor="middle" x="1522.5" y="-69" font-family="Helvetica,sans-Serif" font-size="10.00">LineSampler.cpp</text>
</a>
</g>
</g>
<!-- Node22&#45;&gt;Node25 -->
<g id="edge26" class="edge">
<title>Node22&#45;&gt;Node25</title>
<path fill="none" stroke="midnightblue" d="M1435.51,-118.71C1457.2,-107.19 1487.95,-90.86 1506.48,-81.01"/>
<polygon fill="midnightblue" stroke="midnightblue" points="1433.74,-115.69 1426.55,-123.48 1437.02,-121.87 1433.74,-115.69"/>
</g>
<!-- Node24 -->
<g id="node24" class="node">
<title>Node24</title>
<g id="a_node24"><a xlink:href="_lidar_sampler_8cpp.html" target="_top" xlink:title=" ">
<polygon fill="white" stroke="black" points="1360,-0.5 1360,-19.5 1461,-19.5 1461,-0.5 1360,-0.5"/>
<text text-anchor="middle" x="1410.5" y="-7.5" font-family="Helvetica,sans-Serif" font-size="10.00">LidarSampler.cpp</text>
</a>
</g>
</g>
<!-- Node23&#45;&gt;Node24 -->
<g id="edge25" class="edge">
<title>Node23&#45;&gt;Node24</title>
<path fill="none" stroke="midnightblue" d="M1410.5,-51.82C1410.5,-41 1410.5,-27.9 1410.5,-19.51"/>
<polygon fill="midnightblue" stroke="midnightblue" points="1407,-51.98 1410.5,-61.98 1414,-51.98 1407,-51.98"/>
</g>
<!-- Node27 -->
<g id="node27" class="node">
<title>Node27</title>
<g id="a_node27"><a xlink:href="_plane_sampler_8cpp.html" target="_top" xlink:title=" ">
<polygon fill="white" stroke="black" points="1614.5,-62 1614.5,-81 1718.5,-81 1718.5,-62 1614.5,-62"/>
<text text-anchor="middle" x="1666.5" y="-69" font-family="Helvetica,sans-Serif" font-size="10.00">PlaneSampler.cpp</text>
</a>
</g>
</g>
<!-- Node26&#45;&gt;Node27 -->
<g id="edge28" class="edge">
<title>Node26&#45;&gt;Node27</title>
<path fill="none" stroke="midnightblue" d="M1666.5,-113.32C1666.5,-102.5 1666.5,-89.4 1666.5,-81.01"/>
<polygon fill="midnightblue" stroke="midnightblue" points="1663,-113.48 1666.5,-123.48 1670,-113.48 1663,-113.48"/>
</g>
<!-- Node29 -->
<g id="node29" class="node">
<title>Node29</title>
<g id="a_node29"><a xlink:href="_probe_sampler_8cpp.html" target="_top" xlink:title=" ">
<polygon fill="white" stroke="black" points="1242.5,-62 1242.5,-81 1346.5,-81 1346.5,-62 1242.5,-62"/>
<text text-anchor="middle" x="1294.5" y="-69" font-family="Helvetica,sans-Serif" font-size="10.00">ProbeSampler.cpp</text>
</a>
</g>
</g>
<!-- Node28&#45;&gt;Node29 -->
<g id="edge30" class="edge">
<title>Node28&#45;&gt;Node29</title>
<path fill="none" stroke="midnightblue" d="M1296.56,-113.32C1296.01,-102.5 1295.35,-89.4 1294.93,-81.01"/>
<polygon fill="midnightblue" stroke="midnightblue" points="1293.07,-113.66 1297.07,-123.48 1300.06,-113.31 1293.07,-113.66"/>
</g>
<!-- Node30&#45;&gt;Node31 -->
<g id="edge32" class="edge">
<title>Node30&#45;&gt;Node31</title>
<path fill="none" stroke="midnightblue" d="M1777.7,-114.33C1783.44,-103.33 1790.56,-89.66 1795.07,-81.01"/>
<polygon fill="midnightblue" stroke="midnightblue" points="1774.46,-112.99 1772.94,-123.48 1780.67,-116.22 1774.46,-112.99"/>
</g>
<!-- Node33&#45;&gt;Node34 -->
<g id="edge35" class="edge">
<title>Node33&#45;&gt;Node34</title>
<path fill="none" stroke="midnightblue" d="M1878.77,-117.29C1894.5,-105.88 1915.75,-90.46 1928.77,-81.01"/>
<polygon fill="midnightblue" stroke="midnightblue" points="1876.29,-114.77 1870.25,-123.48 1880.4,-120.43 1876.29,-114.77"/>
</g>
</g>
</svg>
