<?xml version="1.0" encoding="UTF-8" standalone="no"?>
<!DOCTYPE svg PUBLIC "-//W3C//DTD SVG 1.1//EN"
 "http://www.w3.org/Graphics/SVG/1.1/DTD/svg11.dtd">
<!-- Generated by graphviz version 2.43.0 (0)
 -->
<!-- Title: stencils.H Pages: 1 -->
<!--zoomable 308 -->
<svg id="main" version="1.1" xmlns="http://www.w3.org/2000/svg" xmlns:xlink="http://www.w3.org/1999/xlink" xml:space="preserve" onload="init(evt)">
<style type="text/css"><![CDATA[
.edge:hover path { stroke: red; }
.edge:hover polygon { stroke: red; fill: red; }
]]></style>
<script type="text/javascript"><![CDATA[
var edges = document.getElementsByTagName('g');
if (edges && edges.length) {
  for (var i=0;i<edges.length;i++) {
    if (edges[i].id.substr(0,4)=='edge') {
      edges[i].setAttribute('class','edge');
    }
  }
}
]]></script>
        <defs>
                <circle id="rim" cx="0" cy="0" r="7"/>
                <circle id="rim2" cx="0" cy="0" r="3.5"/>
                <g id="zoomPlus">
                        <use xlink:href="#rim" fill="#404040">
                                <set attributeName="fill" to="#808080" begin="zoomplus.mouseover" end="zoomplus.mouseout"/>
                        </use>
                        <path d="M-4,0h8M0,-4v8" fill="none" stroke="white" stroke-width="1.5" pointer-events="none"/>
                </g>
                <g id="zoomMin">
                        <use xlink:href="#rim" fill="#404040">
                                <set attributeName="fill" to="#808080" begin="zoomminus.mouseover" end="zoomminus.mouseout"/>
                        </use>
                        <path d="M-4,0h8" fill="none" stroke="white" stroke-width="1.5" pointer-events="none"/>
                </g>
                <g id="dirArrow">
                        <path fill="none" stroke="white" stroke-width="1.5" d="M0,-3.0v7 M-2.5,-0.5L0,-3.0L2.5,-0.5"/>
                </g>
               <g id="resetDef">
                       <use xlink:href="#rim2" fill="#404040">
                               <set attributeName="fill" to="#808080" begin="reset.mouseover" end="reset.mouseout"/>
                       </use>
               </g>
        </defs>

<script type="text/javascript">
var viewWidth = 1349;
var viewHeight = 308;
var sectionId = 'dynsection-1';
</script>
<script xlink:href="svgpan.js"/>
<svg id="graph" class="graph">
<g id="viewport">
<title>stencils.H</title>
<polygon fill="white" stroke="transparent" points="-4,4 -4,-304 1344.5,-304 1344.5,4 -4,4"/>
<!-- Node1 -->
<g id="node1" class="node">
<title>Node1</title>
<g id="a_node1"><a xlink:title="Second&#45;order finite volume discretization stencil coefficients.">
<polygon fill="#bfbfbf" stroke="black" points="379,-280.5 379,-299.5 444,-299.5 444,-280.5 379,-280.5"/>
<text text-anchor="middle" x="411.5" y="-287.5" font-family="Helvetica,sans-Serif" font-size="10.00">stencils.H</text>
</a>
</g>
</g>
<!-- Node2 -->
<g id="node2" class="node">
<title>Node2</title>
<g id="a_node2"><a xlink:href="fvm__utils_8_h.html" target="_top" xlink:title=" ">
<polygon fill="white" stroke="black" points="375,-224.5 375,-243.5 448,-243.5 448,-224.5 375,-224.5"/>
<text text-anchor="middle" x="411.5" y="-231.5" font-family="Helvetica,sans-Serif" font-size="10.00">fvm_utils.H</text>
</a>
</g>
</g>
<!-- Node1&#45;&gt;Node2 -->
<g id="edge1" class="edge">
<title>Node1&#45;&gt;Node2</title>
<path fill="none" stroke="midnightblue" d="M411.5,-269.8C411.5,-260.91 411.5,-250.78 411.5,-243.75"/>
<polygon fill="midnightblue" stroke="midnightblue" points="408,-270.08 411.5,-280.08 415,-270.08 408,-270.08"/>
</g>
<!-- Node3 -->
<g id="node3" class="node">
<title>Node3</title>
<g id="a_node3"><a xlink:href="curvature_8_h.html" target="_top" xlink:title=" ">
<polygon fill="white" stroke="black" points="184.5,-168.5 184.5,-187.5 258.5,-187.5 258.5,-168.5 184.5,-168.5"/>
<text text-anchor="middle" x="221.5" y="-175.5" font-family="Helvetica,sans-Serif" font-size="10.00">curvature.H</text>
</a>
</g>
</g>
<!-- Node2&#45;&gt;Node3 -->
<g id="edge2" class="edge">
<title>Node2&#45;&gt;Node3</title>
<path fill="none" stroke="midnightblue" d="M371.74,-221.7C335.88,-211.51 283.93,-196.74 251.47,-187.52"/>
<polygon fill="midnightblue" stroke="midnightblue" points="370.82,-225.08 381.39,-224.44 372.73,-218.34 370.82,-225.08"/>
</g>
<!-- Node6 -->
<g id="node6" class="node">
<title>Node6</title>
<g id="a_node6"><a xlink:href="divergence_8_h.html" target="_top" xlink:title=" ">
<polygon fill="white" stroke="black" points="277,-168.5 277,-187.5 358,-187.5 358,-168.5 277,-168.5"/>
<text text-anchor="middle" x="317.5" y="-175.5" font-family="Helvetica,sans-Serif" font-size="10.00">divergence.H</text>
</a>
</g>
</g>
<!-- Node2&#45;&gt;Node6 -->
<g id="edge5" class="edge">
<title>Node2&#45;&gt;Node6</title>
<path fill="none" stroke="midnightblue" d="M387.44,-219.18C370.14,-209.24 347.35,-196.15 332.57,-187.65"/>
<polygon fill="midnightblue" stroke="midnightblue" points="385.98,-222.38 396.4,-224.32 389.47,-216.31 385.98,-222.38"/>
</g>
<!-- Node7 -->
<g id="node7" class="node">
<title>Node7</title>
<g id="a_node7"><a xlink:href="filter_8_h.html" target="_top" xlink:title=" ">
<polygon fill="white" stroke="black" points="25,-168.5 25,-187.5 74,-187.5 74,-168.5 25,-168.5"/>
<text text-anchor="middle" x="49.5" y="-175.5" font-family="Helvetica,sans-Serif" font-size="10.00">filter.H</text>
</a>
</g>
</g>
<!-- Node2&#45;&gt;Node7 -->
<g id="edge7" class="edge">
<title>Node2&#45;&gt;Node7</title>
<path fill="none" stroke="midnightblue" d="M364.69,-228.4C300.78,-221.71 182.8,-207.88 83.5,-188 80.51,-187.4 77.39,-186.69 74.3,-185.94"/>
<polygon fill="midnightblue" stroke="midnightblue" points="364.55,-231.91 374.85,-229.45 365.27,-224.94 364.55,-231.91"/>
</g>
<!-- Node9 -->
<g id="node9" class="node">
<title>Node9</title>
<g id="a_node9"><a xlink:href="gradient_8_h.html" target="_top" xlink:title=" ">
<polygon fill="white" stroke="black" points="549.5,-168.5 549.5,-187.5 617.5,-187.5 617.5,-168.5 549.5,-168.5"/>
<text text-anchor="middle" x="583.5" y="-175.5" font-family="Helvetica,sans-Serif" font-size="10.00">gradient.H</text>
</a>
</g>
</g>
<!-- Node2&#45;&gt;Node9 -->
<g id="edge10" class="edge">
<title>Node2&#45;&gt;Node9</title>
<path fill="none" stroke="midnightblue" d="M448.33,-221.44C480.76,-211.26 527.24,-196.66 556.37,-187.52"/>
<polygon fill="midnightblue" stroke="midnightblue" points="447.25,-218.11 438.75,-224.44 449.34,-224.79 447.25,-218.11"/>
</g>
<!-- Node25 -->
<g id="node25" class="node">
<title>Node25</title>
<g id="a_node25"><a xlink:href="laplacian_8_h.html" target="_top" xlink:title=" ">
<polygon fill="white" stroke="black" points="376,-168.5 376,-187.5 447,-187.5 447,-168.5 376,-168.5"/>
<text text-anchor="middle" x="411.5" y="-175.5" font-family="Helvetica,sans-Serif" font-size="10.00">laplacian.H</text>
</a>
</g>
</g>
<!-- Node2&#45;&gt;Node25 -->
<g id="edge28" class="edge">
<title>Node2&#45;&gt;Node25</title>
<path fill="none" stroke="midnightblue" d="M411.5,-213.8C411.5,-204.91 411.5,-194.78 411.5,-187.75"/>
<polygon fill="midnightblue" stroke="midnightblue" points="408,-214.08 411.5,-224.08 415,-214.08 408,-214.08"/>
</g>
<!-- Node26 -->
<g id="node26" class="node">
<title>Node26</title>
<g id="a_node26"><a xlink:href="strainrate_8_h.html" target="_top" xlink:title=" ">
<polygon fill="white" stroke="black" points="798.5,-168.5 798.5,-187.5 872.5,-187.5 872.5,-168.5 798.5,-168.5"/>
<text text-anchor="middle" x="835.5" y="-175.5" font-family="Helvetica,sans-Serif" font-size="10.00">strainrate.H</text>
</a>
</g>
</g>
<!-- Node2&#45;&gt;Node26 -->
<g id="edge30" class="edge">
<title>Node2&#45;&gt;Node26</title>
<path fill="none" stroke="midnightblue" d="M458.13,-227.06C542.99,-216.25 720.99,-193.58 798.32,-183.74"/>
<polygon fill="midnightblue" stroke="midnightblue" points="457.49,-223.61 448.02,-228.35 458.38,-230.56 457.49,-223.61"/>
</g>
<!-- Node28 -->
<g id="node28" class="node">
<title>Node28</title>
<g id="a_node28"><a xlink:href="vorticity_8_h.html" target="_top" xlink:title=" ">
<polygon fill="white" stroke="black" points="465.5,-168.5 465.5,-187.5 531.5,-187.5 531.5,-168.5 465.5,-168.5"/>
<text text-anchor="middle" x="498.5" y="-175.5" font-family="Helvetica,sans-Serif" font-size="10.00">vorticity.H</text>
</a>
</g>
</g>
<!-- Node2&#45;&gt;Node28 -->
<g id="edge36" class="edge">
<title>Node2&#45;&gt;Node28</title>
<path fill="none" stroke="midnightblue" d="M434.22,-218.9C450.17,-209 471,-196.07 484.56,-187.65"/>
<polygon fill="midnightblue" stroke="midnightblue" points="432.13,-216.08 425.48,-224.32 435.82,-222.02 432.13,-216.08"/>
</g>
<!-- Node29 -->
<g id="node29" class="node">
<title>Node29</title>
<g id="a_node29"><a xlink:href="vorticity__mag_8_h.html" target="_top" xlink:title=" ">
<polygon fill="white" stroke="black" points="891,-168.5 891,-187.5 986,-187.5 986,-168.5 891,-168.5"/>
<text text-anchor="middle" x="938.5" y="-175.5" font-family="Helvetica,sans-Serif" font-size="10.00">vorticity_mag.H</text>
</a>
</g>
</g>
<!-- Node2&#45;&gt;Node29 -->
<g id="edge39" class="edge">
<title>Node2&#45;&gt;Node29</title>
<path fill="none" stroke="midnightblue" d="M458.21,-229.48C542.8,-222.89 726.93,-207.58 881.5,-188 884.58,-187.61 887.75,-187.18 890.95,-186.73"/>
<polygon fill="midnightblue" stroke="midnightblue" points="457.85,-226 448.15,-230.26 458.39,-232.98 457.85,-226"/>
</g>
<!-- Node31 -->
<g id="node31" class="node">
<title>Node31</title>
<g id="a_node31"><a xlink:href="qcriterion_8_h.html" target="_top" xlink:title=" ">
<polygon fill="white" stroke="black" points="92.5,-168.5 92.5,-187.5 166.5,-187.5 166.5,-168.5 92.5,-168.5"/>
<text text-anchor="middle" x="129.5" y="-175.5" font-family="Helvetica,sans-Serif" font-size="10.00">qcriterion.H</text>
</a>
</g>
</g>
<!-- Node2&#45;&gt;Node31 -->
<g id="edge42" class="edge">
<title>Node2&#45;&gt;Node31</title>
<path fill="none" stroke="midnightblue" d="M364.69,-224.14C317.06,-215.11 241.12,-200.68 175.5,-188 172.62,-187.44 169.65,-186.87 166.65,-186.29"/>
<polygon fill="midnightblue" stroke="midnightblue" points="364.22,-227.62 374.7,-226.04 365.53,-220.74 364.22,-227.62"/>
</g>
<!-- Node4 -->
<g id="node4" class="node">
<title>Node4</title>
<g id="a_node4"><a xlink:href="fvm_8_h.html" target="_top" xlink:title=" ">
<polygon fill="white" stroke="black" points="109,-112.5 109,-131.5 156,-131.5 156,-112.5 109,-112.5"/>
<text text-anchor="middle" x="132.5" y="-119.5" font-family="Helvetica,sans-Serif" font-size="10.00">fvm.H</text>
</a>
</g>
</g>
<!-- Node3&#45;&gt;Node4 -->
<g id="edge3" class="edge">
<title>Node3&#45;&gt;Node4</title>
<path fill="none" stroke="midnightblue" d="M198.26,-162.9C181.94,-153 160.63,-140.07 146.76,-131.65"/>
<polygon fill="midnightblue" stroke="midnightblue" points="196.84,-166.13 207.2,-168.32 200.47,-160.14 196.84,-166.13"/>
</g>
<!-- Node5 -->
<g id="node5" class="node">
<title>Node5</title>
<g id="a_node5"><a xlink:href="_derived_qty_defs_8cpp.html" target="_top" xlink:title=" ">
<polygon fill="white" stroke="black" points="75,-56.5 75,-75.5 190,-75.5 190,-56.5 75,-56.5"/>
<text text-anchor="middle" x="132.5" y="-63.5" font-family="Helvetica,sans-Serif" font-size="10.00">DerivedQtyDefs.cpp</text>
</a>
</g>
</g>
<!-- Node4&#45;&gt;Node5 -->
<g id="edge4" class="edge">
<title>Node4&#45;&gt;Node5</title>
<path fill="none" stroke="midnightblue" d="M132.5,-101.8C132.5,-92.91 132.5,-82.78 132.5,-75.75"/>
<polygon fill="midnightblue" stroke="midnightblue" points="129,-102.08 132.5,-112.08 136,-102.08 129,-102.08"/>
</g>
<!-- Node6&#45;&gt;Node4 -->
<g id="edge6" class="edge">
<title>Node6&#45;&gt;Node4</title>
<path fill="none" stroke="midnightblue" d="M278.23,-165.54C241.19,-154.73 186.89,-138.88 156.1,-129.89"/>
<polygon fill="midnightblue" stroke="midnightblue" points="277.61,-169 288.19,-168.44 279.57,-162.28 277.61,-169"/>
</g>
<!-- Node7&#45;&gt;Node4 -->
<g id="edge8" class="edge">
<title>Node7&#45;&gt;Node4</title>
<path fill="none" stroke="midnightblue" d="M71.6,-162.62C86.76,-152.76 106.38,-139.99 119.2,-131.65"/>
<polygon fill="midnightblue" stroke="midnightblue" points="69.31,-159.94 62.84,-168.32 73.13,-165.8 69.31,-159.94"/>
</g>
<!-- Node8 -->
<g id="node8" class="node">
<title>Node8</title>
<g id="a_node8"><a xlink:href="_multi_phase_8cpp.html" target="_top" xlink:title=" ">
<polygon fill="white" stroke="black" points="0,-112.5 0,-131.5 91,-131.5 91,-112.5 0,-112.5"/>
<text text-anchor="middle" x="45.5" y="-119.5" font-family="Helvetica,sans-Serif" font-size="10.00">MultiPhase.cpp</text>
</a>
</g>
</g>
<!-- Node7&#45;&gt;Node8 -->
<g id="edge9" class="edge">
<title>Node7&#45;&gt;Node8</title>
<path fill="none" stroke="midnightblue" d="M48.1,-158.1C47.44,-149.14 46.67,-138.86 46.15,-131.75"/>
<polygon fill="midnightblue" stroke="midnightblue" points="44.61,-158.37 48.84,-168.08 51.59,-157.85 44.61,-158.37"/>
</g>
<!-- Node9&#45;&gt;Node4 -->
<g id="edge11" class="edge">
<title>Node9&#45;&gt;Node4</title>
<path fill="none" stroke="midnightblue" d="M539.2,-167.97C372.73,-143.53 326.29,-162.25 164.5,-132 161.78,-131.49 158.95,-130.86 156.15,-130.16"/>
<polygon fill="midnightblue" stroke="midnightblue" points="538.89,-171.46 549.29,-169.48 539.92,-164.54 538.89,-171.46"/>
</g>
<!-- Node10 -->
<g id="node10" class="node">
<title>Node10</title>
<g id="a_node10"><a xlink:href="bluff__body__ops_8_h.html" target="_top" xlink:title=" ">
<polygon fill="white" stroke="black" points="546,-112.5 546,-131.5 647,-131.5 647,-112.5 546,-112.5"/>
<text text-anchor="middle" x="596.5" y="-119.5" font-family="Helvetica,sans-Serif" font-size="10.00">bluff_body_ops.H</text>
</a>
</g>
</g>
<!-- Node9&#45;&gt;Node10 -->
<g id="edge12" class="edge">
<title>Node9&#45;&gt;Node10</title>
<path fill="none" stroke="midnightblue" d="M588.05,-158.1C590.21,-149.14 592.68,-138.86 594.39,-131.75"/>
<polygon fill="midnightblue" stroke="midnightblue" points="584.58,-157.54 585.65,-168.08 591.39,-159.18 584.58,-157.54"/>
</g>
<!-- Node11 -->
<g id="node11" class="node">
<title>Node11</title>
<g id="a_node11"><a xlink:href="bluff__body__ops_8cpp.html" target="_top" xlink:title=" ">
<polygon fill="white" stroke="black" points="434.5,-56.5 434.5,-75.5 544.5,-75.5 544.5,-56.5 434.5,-56.5"/>
<text text-anchor="middle" x="489.5" y="-63.5" font-family="Helvetica,sans-Serif" font-size="10.00">bluff_body_ops.cpp</text>
</a>
</g>
</g>
<!-- Node9&#45;&gt;Node11 -->
<g id="edge20" class="edge">
<title>Node9&#45;&gt;Node11</title>
<path fill="none" stroke="midnightblue" d="M565.56,-161.25C556.46,-152.92 545.48,-142.3 536.5,-132 520.04,-113.1 503.49,-88.64 495.11,-75.79"/>
<polygon fill="midnightblue" stroke="midnightblue" points="563.49,-164.1 573.26,-168.18 568.17,-158.89 563.49,-164.1"/>
</g>
<!-- Node18 -->
<g id="node18" class="node">
<title>Node18</title>
<g id="a_node18"><a xlink:href="_dam_break_8cpp.html" target="_top" xlink:title=" ">
<polygon fill="white" stroke="black" points="665,-112.5 665,-131.5 754,-131.5 754,-112.5 665,-112.5"/>
<text text-anchor="middle" x="709.5" y="-119.5" font-family="Helvetica,sans-Serif" font-size="10.00">DamBreak.cpp</text>
</a>
</g>
</g>
<!-- Node9&#45;&gt;Node18 -->
<g id="edge21" class="edge">
<title>Node9&#45;&gt;Node18</title>
<path fill="none" stroke="midnightblue" d="M612.66,-164.5C636.28,-154.38 668.93,-140.39 689.63,-131.52"/>
<polygon fill="midnightblue" stroke="midnightblue" points="611.28,-161.29 603.47,-168.44 614.04,-167.72 611.28,-161.29"/>
</g>
<!-- Node19 -->
<g id="node19" class="node">
<title>Node19</title>
<g id="a_node19"><a xlink:href="_sloshing_tank_8cpp.html" target="_top" xlink:title=" ">
<polygon fill="white" stroke="black" points="174,-112.5 174,-131.5 275,-131.5 275,-112.5 174,-112.5"/>
<text text-anchor="middle" x="224.5" y="-119.5" font-family="Helvetica,sans-Serif" font-size="10.00">SloshingTank.cpp</text>
</a>
</g>
</g>
<!-- Node9&#45;&gt;Node19 -->
<g id="edge22" class="edge">
<title>Node9&#45;&gt;Node19</title>
<path fill="none" stroke="midnightblue" d="M539.13,-167.85C425.6,-148.22 394.98,-148.05 284.5,-132 281.48,-131.56 278.37,-131.11 275.23,-130.64"/>
<polygon fill="midnightblue" stroke="midnightblue" points="538.82,-171.35 549.27,-169.62 540.02,-164.46 538.82,-171.35"/>
</g>
<!-- Node20 -->
<g id="node20" class="node">
<title>Node20</title>
<g id="a_node20"><a xlink:href="_zalesak_disk_8cpp.html" target="_top" xlink:title=" ">
<polygon fill="white" stroke="black" points="293.5,-112.5 293.5,-131.5 391.5,-131.5 391.5,-112.5 293.5,-112.5"/>
<text text-anchor="middle" x="342.5" y="-119.5" font-family="Helvetica,sans-Serif" font-size="10.00">ZalesakDisk.cpp</text>
</a>
</g>
</g>
<!-- Node9&#45;&gt;Node20 -->
<g id="edge23" class="edge">
<title>Node9&#45;&gt;Node20</title>
<path fill="none" stroke="midnightblue" d="M539.62,-167.17C494.2,-156.99 423.94,-141.25 380.72,-131.56"/>
<polygon fill="midnightblue" stroke="midnightblue" points="538.96,-170.61 549.48,-169.38 540.49,-163.78 538.96,-170.61"/>
</g>
<!-- Node21 -->
<g id="node21" class="node">
<title>Node21</title>
<g id="a_node21"><a xlink:href="_one_eq_ksgs_8cpp.html" target="_top" xlink:title=" ">
<polygon fill="white" stroke="black" points="916.5,-112.5 916.5,-131.5 1008.5,-131.5 1008.5,-112.5 916.5,-112.5"/>
<text text-anchor="middle" x="962.5" y="-119.5" font-family="Helvetica,sans-Serif" font-size="10.00">OneEqKsgs.cpp</text>
</a>
</g>
</g>
<!-- Node9&#45;&gt;Node21 -->
<g id="edge24" class="edge">
<title>Node9&#45;&gt;Node21</title>
<path fill="none" stroke="midnightblue" d="M627.87,-171.18C690.32,-162.92 807.71,-147.09 907.5,-132 910.37,-131.57 913.32,-131.11 916.3,-130.64"/>
<polygon fill="midnightblue" stroke="midnightblue" points="627.05,-167.76 617.59,-172.54 627.96,-174.7 627.05,-167.76"/>
</g>
<!-- Node22 -->
<g id="node22" class="node">
<title>Node22</title>
<g id="a_node22"><a xlink:href="_k_omega_s_s_t_8cpp.html" target="_top" xlink:title=" ">
<polygon fill="white" stroke="black" points="1027,-112.5 1027,-131.5 1122,-131.5 1122,-112.5 1027,-112.5"/>
<text text-anchor="middle" x="1074.5" y="-119.5" font-family="Helvetica,sans-Serif" font-size="10.00">KOmegaSST.cpp</text>
</a>
</g>
</g>
<!-- Node9&#45;&gt;Node22 -->
<g id="edge25" class="edge">
<title>Node9&#45;&gt;Node22</title>
<path fill="none" stroke="midnightblue" d="M627.63,-173.21C706.18,-166.28 875.35,-150.58 1017.5,-132 1020.58,-131.6 1023.75,-131.16 1026.94,-130.7"/>
<polygon fill="midnightblue" stroke="midnightblue" points="627.27,-169.73 617.61,-174.09 627.88,-176.7 627.27,-169.73"/>
</g>
<!-- Node23 -->
<g id="node23" class="node">
<title>Node23</title>
<g id="a_node23"><a xlink:href="_k_omega_s_s_t_i_d_d_e_s_8cpp.html" target="_top" xlink:title=" ">
<polygon fill="white" stroke="black" points="772.5,-112.5 772.5,-131.5 898.5,-131.5 898.5,-112.5 772.5,-112.5"/>
<text text-anchor="middle" x="835.5" y="-119.5" font-family="Helvetica,sans-Serif" font-size="10.00">KOmegaSSTIDDES.cpp</text>
</a>
</g>
</g>
<!-- Node9&#45;&gt;Node23 -->
<g id="edge26" class="edge">
<title>Node9&#45;&gt;Node23</title>
<path fill="none" stroke="midnightblue" d="M627.73,-167.52C675.15,-157.36 749.78,-141.37 795.5,-131.57"/>
<polygon fill="midnightblue" stroke="midnightblue" points="626.79,-164.14 617.75,-169.66 628.26,-170.99 626.79,-164.14"/>
</g>
<!-- Node24 -->
<g id="node24" class="node">
<title>Node24</title>
<g id="a_node24"><a xlink:href="_a_b_l_stats_8cpp.html" target="_top" xlink:title=" ">
<polygon fill="white" stroke="black" points="409.5,-112.5 409.5,-131.5 489.5,-131.5 489.5,-112.5 409.5,-112.5"/>
<text text-anchor="middle" x="449.5" y="-119.5" font-family="Helvetica,sans-Serif" font-size="10.00">ABLStats.cpp</text>
</a>
</g>
</g>
<!-- Node9&#45;&gt;Node24 -->
<g id="edge27" class="edge">
<title>Node9&#45;&gt;Node24</title>
<path fill="none" stroke="midnightblue" d="M552.82,-164.64C527.68,-154.5 492.75,-140.43 470.63,-131.52"/>
<polygon fill="midnightblue" stroke="midnightblue" points="551.68,-167.95 562.27,-168.44 554.3,-161.46 551.68,-167.95"/>
</g>
<!-- Node10&#45;&gt;Node11 -->
<g id="edge13" class="edge">
<title>Node10&#45;&gt;Node11</title>
<path fill="none" stroke="midnightblue" d="M570.2,-107.73C550.39,-97.73 523.79,-84.31 506.65,-75.65"/>
<polygon fill="midnightblue" stroke="midnightblue" points="568.8,-110.94 579.31,-112.32 571.96,-104.69 568.8,-110.94"/>
</g>
<!-- Node12 -->
<g id="node12" class="node">
<title>Node12</title>
<g id="a_node12"><a xlink:href="box__ops_8_h.html" target="_top" xlink:title=" ">
<polygon fill="white" stroke="black" points="562.5,-56.5 562.5,-75.5 630.5,-75.5 630.5,-56.5 562.5,-56.5"/>
<text text-anchor="middle" x="596.5" y="-63.5" font-family="Helvetica,sans-Serif" font-size="10.00">box_ops.H</text>
</a>
</g>
</g>
<!-- Node10&#45;&gt;Node12 -->
<g id="edge14" class="edge">
<title>Node10&#45;&gt;Node12</title>
<path fill="none" stroke="midnightblue" d="M596.5,-101.8C596.5,-92.91 596.5,-82.78 596.5,-75.75"/>
<polygon fill="midnightblue" stroke="midnightblue" points="593,-102.08 596.5,-112.08 600,-102.08 593,-102.08"/>
</g>
<!-- Node14 -->
<g id="node14" class="node">
<title>Node14</title>
<g id="a_node14"><a xlink:href="cylinder__ops_8_h.html" target="_top" xlink:title=" ">
<polygon fill="white" stroke="black" points="649,-56.5 649,-75.5 738,-75.5 738,-56.5 649,-56.5"/>
<text text-anchor="middle" x="693.5" y="-63.5" font-family="Helvetica,sans-Serif" font-size="10.00">cylinder_ops.H</text>
</a>
</g>
</g>
<!-- Node10&#45;&gt;Node14 -->
<g id="edge16" class="edge">
<title>Node10&#45;&gt;Node14</title>
<path fill="none" stroke="midnightblue" d="M620.84,-107.45C638.74,-97.48 662.55,-84.23 677.95,-75.65"/>
<polygon fill="midnightblue" stroke="midnightblue" points="619.12,-104.4 612.08,-112.32 622.52,-110.52 619.12,-104.4"/>
</g>
<!-- Node16 -->
<g id="node16" class="node">
<title>Node16</title>
<g id="a_node16"><a xlink:href="sphere__ops_8_h.html" target="_top" xlink:title=" ">
<polygon fill="white" stroke="black" points="756,-56.5 756,-75.5 839,-75.5 839,-56.5 756,-56.5"/>
<text text-anchor="middle" x="797.5" y="-63.5" font-family="Helvetica,sans-Serif" font-size="10.00">sphere_ops.H</text>
</a>
</g>
</g>
<!-- Node10&#45;&gt;Node16 -->
<g id="edge18" class="edge">
<title>Node10&#45;&gt;Node16</title>
<path fill="none" stroke="midnightblue" d="M638.08,-109.83C676.03,-99.63 731.31,-84.78 765.8,-75.52"/>
<polygon fill="midnightblue" stroke="midnightblue" points="637.1,-106.47 628.35,-112.44 638.91,-113.23 637.1,-106.47"/>
</g>
<!-- Node13 -->
<g id="node13" class="node">
<title>Node13</title>
<g id="a_node13"><a xlink:href="_box_8cpp.html" target="_top" xlink:title=" ">
<polygon fill="white" stroke="black" points="568.5,-0.5 568.5,-19.5 624.5,-19.5 624.5,-0.5 568.5,-0.5"/>
<text text-anchor="middle" x="596.5" y="-7.5" font-family="Helvetica,sans-Serif" font-size="10.00">Box.cpp</text>
</a>
</g>
</g>
<!-- Node12&#45;&gt;Node13 -->
<g id="edge15" class="edge">
<title>Node12&#45;&gt;Node13</title>
<path fill="none" stroke="midnightblue" d="M596.5,-45.8C596.5,-36.91 596.5,-26.78 596.5,-19.75"/>
<polygon fill="midnightblue" stroke="midnightblue" points="593,-46.08 596.5,-56.08 600,-46.08 593,-46.08"/>
</g>
<!-- Node15 -->
<g id="node15" class="node">
<title>Node15</title>
<g id="a_node15"><a xlink:href="_cylinder_8cpp.html" target="_top" xlink:title=" ">
<polygon fill="white" stroke="black" points="655,-0.5 655,-19.5 732,-19.5 732,-0.5 655,-0.5"/>
<text text-anchor="middle" x="693.5" y="-7.5" font-family="Helvetica,sans-Serif" font-size="10.00">Cylinder.cpp</text>
</a>
</g>
</g>
<!-- Node14&#45;&gt;Node15 -->
<g id="edge17" class="edge">
<title>Node14&#45;&gt;Node15</title>
<path fill="none" stroke="midnightblue" d="M693.5,-45.8C693.5,-36.91 693.5,-26.78 693.5,-19.75"/>
<polygon fill="midnightblue" stroke="midnightblue" points="690,-46.08 693.5,-56.08 697,-46.08 690,-46.08"/>
</g>
<!-- Node17 -->
<g id="node17" class="node">
<title>Node17</title>
<g id="a_node17"><a xlink:href="_sphere_8cpp.html" target="_top" xlink:title=" ">
<polygon fill="white" stroke="black" points="762,-0.5 762,-19.5 833,-19.5 833,-0.5 762,-0.5"/>
<text text-anchor="middle" x="797.5" y="-7.5" font-family="Helvetica,sans-Serif" font-size="10.00">Sphere.cpp</text>
</a>
</g>
</g>
<!-- Node16&#45;&gt;Node17 -->
<g id="edge19" class="edge">
<title>Node16&#45;&gt;Node17</title>
<path fill="none" stroke="midnightblue" d="M797.5,-45.8C797.5,-36.91 797.5,-26.78 797.5,-19.75"/>
<polygon fill="midnightblue" stroke="midnightblue" points="794,-46.08 797.5,-56.08 801,-46.08 794,-46.08"/>
</g>
<!-- Node25&#45;&gt;Node4 -->
<g id="edge29" class="edge">
<title>Node25&#45;&gt;Node4</title>
<path fill="none" stroke="midnightblue" d="M365.78,-167.91C275.21,-151.12 250.35,-151.67 164.5,-132 161.8,-131.38 158.99,-130.68 156.2,-129.94"/>
<polygon fill="midnightblue" stroke="midnightblue" points="365.18,-171.36 375.65,-169.76 366.47,-164.48 365.18,-171.36"/>
</g>
<!-- Node26&#45;&gt;Node4 -->
<g id="edge31" class="edge">
<title>Node26&#45;&gt;Node4</title>
<path fill="none" stroke="midnightblue" d="M788.28,-175.11C656.2,-169.61 284.79,-152.72 164.5,-132 161.77,-131.53 158.94,-130.92 156.14,-130.24"/>
<polygon fill="midnightblue" stroke="midnightblue" points="788.34,-178.61 798.47,-175.53 788.63,-171.62 788.34,-178.61"/>
</g>
<!-- Node26&#45;&gt;Node21 -->
<g id="edge32" class="edge">
<title>Node26&#45;&gt;Node21</title>
<path fill="none" stroke="midnightblue" d="M864.89,-164.5C888.7,-154.38 921.61,-140.39 942.47,-131.52"/>
<polygon fill="midnightblue" stroke="midnightblue" points="863.46,-161.31 855.62,-168.44 866.2,-167.75 863.46,-161.31"/>
</g>
<!-- Node26&#45;&gt;Node22 -->
<g id="edge34" class="edge">
<title>Node26&#45;&gt;Node22</title>
<path fill="none" stroke="midnightblue" d="M882.41,-166.4C927.48,-156.22 994.74,-141.02 1036.54,-131.58"/>
<polygon fill="midnightblue" stroke="midnightblue" points="881.56,-163 872.58,-168.62 883.11,-169.83 881.56,-163"/>
</g>
<!-- Node26&#45;&gt;Node23 -->
<g id="edge35" class="edge">
<title>Node26&#45;&gt;Node23</title>
<path fill="none" stroke="midnightblue" d="M835.5,-157.8C835.5,-148.91 835.5,-138.78 835.5,-131.75"/>
<polygon fill="midnightblue" stroke="midnightblue" points="832,-158.08 835.5,-168.08 839,-158.08 832,-158.08"/>
</g>
<!-- Node27 -->
<g id="node27" class="node">
<title>Node27</title>
<g id="a_node27"><a xlink:href="_smagorinsky_8cpp.html" target="_top" xlink:title=" ">
<polygon fill="white" stroke="black" points="1140.5,-112.5 1140.5,-131.5 1238.5,-131.5 1238.5,-112.5 1140.5,-112.5"/>
<text text-anchor="middle" x="1189.5" y="-119.5" font-family="Helvetica,sans-Serif" font-size="10.00">Smagorinsky.cpp</text>
</a>
</g>
</g>
<!-- Node26&#45;&gt;Node27 -->
<g id="edge33" class="edge">
<title>Node26&#45;&gt;Node27</title>
<path fill="none" stroke="midnightblue" d="M882.66,-168.05C994.43,-149.42 1024.05,-148.1 1131.5,-132 1134.42,-131.56 1137.43,-131.11 1140.46,-130.65"/>
<polygon fill="midnightblue" stroke="midnightblue" points="881.96,-164.61 872.67,-169.72 883.11,-171.52 881.96,-164.61"/>
</g>
<!-- Node28&#45;&gt;Node4 -->
<g id="edge37" class="edge">
<title>Node28&#45;&gt;Node4</title>
<path fill="none" stroke="midnightblue" d="M455.27,-168.12C325.2,-147.15 289.14,-157.09 164.5,-132 161.78,-131.45 158.96,-130.8 156.17,-130.09"/>
<polygon fill="midnightblue" stroke="midnightblue" points="454.78,-171.58 465.22,-169.75 455.92,-164.67 454.78,-171.58"/>
</g>
<!-- Node28&#45;&gt;Node23 -->
<g id="edge38" class="edge">
<title>Node28&#45;&gt;Node23</title>
<path fill="none" stroke="midnightblue" d="M542.03,-167.8C627.11,-152.39 714.73,-139.55 772.3,-131.53"/>
<polygon fill="midnightblue" stroke="midnightblue" points="541.14,-164.41 531.93,-169.65 542.4,-171.29 541.14,-164.41"/>
</g>
<!-- Node29&#45;&gt;Node4 -->
<g id="edge40" class="edge">
<title>Node29&#45;&gt;Node4</title>
<path fill="none" stroke="midnightblue" d="M880.99,-168.09C562.37,-136.06 476.15,-182.99 164.5,-132 161.77,-131.55 158.93,-130.96 156.13,-130.28"/>
<polygon fill="midnightblue" stroke="midnightblue" points="880.66,-171.57 890.96,-169.11 881.37,-164.61 880.66,-171.57"/>
</g>
<!-- Node30 -->
<g id="node30" class="node">
<title>Node30</title>
<g id="a_node30"><a xlink:href="_enstrophy_8cpp.html" target="_top" xlink:title=" ">
<polygon fill="white" stroke="black" points="1256.5,-112.5 1256.5,-131.5 1340.5,-131.5 1340.5,-112.5 1256.5,-112.5"/>
<text text-anchor="middle" x="1298.5" y="-119.5" font-family="Helvetica,sans-Serif" font-size="10.00">Enstrophy.cpp</text>
</a>
</g>
</g>
<!-- Node29&#45;&gt;Node30 -->
<g id="edge41" class="edge">
<title>Node29&#45;&gt;Node30</title>
<path fill="none" stroke="midnightblue" d="M996.21,-169.12C1058.34,-160.52 1160.04,-146.08 1247.5,-132 1250.43,-131.53 1253.45,-131.03 1256.49,-130.52"/>
<polygon fill="midnightblue" stroke="midnightblue" points="995.64,-165.67 986.21,-170.51 996.59,-172.6 995.64,-165.67"/>
</g>
<!-- Node31&#45;&gt;Node4 -->
<g id="edge43" class="edge">
<title>Node31&#45;&gt;Node4</title>
<path fill="none" stroke="midnightblue" d="M130.57,-157.8C131.06,-148.91 131.62,-138.78 132.01,-131.75"/>
<polygon fill="midnightblue" stroke="midnightblue" points="127.06,-157.9 130,-168.08 134.04,-158.29 127.06,-157.9"/>
</g>
</g>
</svg>
        <g id="navigator" transform="translate(0 0)" fill="#404254">
                <rect fill="#f2f5e9" fill-opacity="0.5" stroke="#606060" stroke-width=".5" x="0" y="0" width="60" height="60"/>
                <use id="zoomplus" xlink:href="#zoomPlus" x="17" y="9" onmousedown="handleZoom(evt,'in')"/>
                <use id="zoomminus" xlink:href="#zoomMin" x="42" y="9" onmousedown="handleZoom(evt,'out')"/>
                <use id="reset" xlink:href="#resetDef" x="30" y="36" onmousedown="handleReset()"/>
                <g id="arrowUp" xlink:href="#dirArrow" transform="translate(30 24)" onmousedown="handlePan(0,-1)">
                  <use xlink:href="#rim" fill="#404040">
                        <set attributeName="fill" to="#808080" begin="arrowUp.mouseover" end="arrowUp.mouseout"/>
                  </use>
                  <path fill="none" stroke="white" stroke-width="1.5" d="M0,-3.0v7 M-2.5,-0.5L0,-3.0L2.5,-0.5"/>
                </g>
                <g id="arrowRight" xlink:href="#dirArrow" transform="rotate(90) translate(36 -43)" onmousedown="handlePan(1,0)">
                  <use xlink:href="#rim" fill="#404040">
                        <set attributeName="fill" to="#808080" begin="arrowRight.mouseover" end="arrowRight.mouseout"/>
                  </use>
                  <path fill="none" stroke="white" stroke-width="1.5" d="M0,-3.0v7 M-2.5,-0.5L0,-3.0L2.5,-0.5"/>
                </g>
                <g id="arrowDown" xlink:href="#dirArrow" transform="rotate(180) translate(-30 -48)" onmousedown="handlePan(0,1)">
                  <use xlink:href="#rim" fill="#404040">
                        <set attributeName="fill" to="#808080" begin="arrowDown.mouseover" end="arrowDown.mouseout"/>
                  </use>
                  <path fill="none" stroke="white" stroke-width="1.5" d="M0,-3.0v7 M-2.5,-0.5L0,-3.0L2.5,-0.5"/>
                </g>
                <g id="arrowLeft" xlink:href="#dirArrow" transform="rotate(270) translate(-36 17)" onmousedown="handlePan(-1,0)">
                  <use xlink:href="#rim" fill="#404040">
                        <set attributeName="fill" to="#808080" begin="arrowLeft.mouseover" end="arrowLeft.mouseout"/>
                  </use>
                  <path fill="none" stroke="white" stroke-width="1.5" d="M0,-3.0v7 M-2.5,-0.5L0,-3.0L2.5,-0.5"/>
                </g>
        </g>
        <svg viewBox="0 0 15 15" width="100%" height="30px" preserveAspectRatio="xMaxYMin meet">
         <g id="arrow_out" transform="scale(0.3 0.3)">
          <a xlink:href="stencils_8_h__dep__incl_org.svg" target="_base">
           <rect id="button" ry="5" rx="5" y="6" x="6" height="38" width="38"
                fill="#f2f5e9" fill-opacity="0.5" stroke="#606060" stroke-width="1.0"/>
           <path id="arrow"
             d="M 11.500037,31.436501 C 11.940474,20.09759 22.043105,11.32322 32.158766,21.979434 L 37.068811,17.246167 C 37.068811,17.246167 37.088388,32 37.088388,32 L 22.160133,31.978069 C 22.160133,31.978069 26.997745,27.140456 26.997745,27.140456 C 18.528582,18.264221 13.291696,25.230495 11.500037,31.436501 z"
             style="fill:#404040;"/>
          </a>
         </g>
        </svg>
</svg>
