<?xml version="1.0" encoding="UTF-8" standalone="no"?>
<!DOCTYPE svg PUBLIC "-//W3C//DTD SVG 1.1//EN"
 "http://www.w3.org/Graphics/SVG/1.1/DTD/svg11.dtd">
<!-- Generated by graphviz version 2.43.0 (0)
 -->
<!-- Title: amr_wind::pde::DiffusionOp&lt; ICNS, Scheme &gt; Pages: 1 -->
<svg width="3059pt" height="518pt"
 viewBox="0.00 0.00 3059.00 518.27" xmlns="http://www.w3.org/2000/svg" xmlns:xlink="http://www.w3.org/1999/xlink">
<g id="graph0" class="graph" transform="scale(1 1) rotate(0) translate(4 514.27)">
<title>amr_wind::pde::DiffusionOp&lt; ICNS, Scheme &gt;</title>
<polygon fill="white" stroke="transparent" points="-4,4 -4,-514.27 3055,-514.27 3055,4 -4,4"/>
<!-- Node1 -->
<g id="node1" class="node">
<title>Node1</title>
<g id="a_node1"><a xlink:title="Specialization of diffusion operator for ICNS.">
<polygon fill="#bfbfbf" stroke="black" points="2913,-11.27 2913,-41.27 3051,-41.27 3051,-11.27 2913,-11.27"/>
<text text-anchor="start" x="2921" y="-29.27" font-family="Helvetica,sans-Serif" font-size="10.00">amr_wind::pde::Diffusion</text>
<text text-anchor="middle" x="2982" y="-18.27" font-family="Helvetica,sans-Serif" font-size="10.00">Op&lt; ICNS, Scheme &gt;</text>
</a>
</g>
</g>
<!-- Node2 -->
<g id="node2" class="node">
<title>Node2</title>
<g id="a_node2"><a xlink:title=" ">
<polygon fill="white" stroke="#bfbfbf" points="2638,-36.27 2638,-66.27 2810,-66.27 2810,-36.27 2638,-36.27"/>
<text text-anchor="start" x="2646" y="-54.27" font-family="Helvetica,sans-Serif" font-size="10.00">std::unique_ptr&lt; amr</text>
<text text-anchor="middle" x="2724" y="-43.27" font-family="Helvetica,sans-Serif" font-size="10.00">_wind::pde::ICNSDiffTensorOp &gt;</text>
</a>
</g>
</g>
<!-- Node2&#45;&gt;Node1 -->
<g id="edge1" class="edge">
<title>Node2&#45;&gt;Node1</title>
<path fill="none" stroke="#9a32cd" stroke-dasharray="5,2" d="M2820.52,-41.94C2851.14,-38.95 2884.42,-35.7 2912.69,-32.94"/>
<polygon fill="#9a32cd" stroke="#9a32cd" points="2819.86,-38.49 2810.24,-42.94 2820.54,-45.45 2819.86,-38.49"/>
<text text-anchor="middle" x="2861.5" y="-44.27" font-family="Helvetica,sans-Serif" font-size="10.00"> m_tensor_op</text>
</g>
<!-- Node3 -->
<g id="node3" class="node">
<title>Node3</title>
<g id="a_node3"><a xlink:href="classamr__wind_1_1pde_1_1_i_c_n_s_diff_tensor_op.html" target="_top" xlink:title=" ">
<polygon fill="white" stroke="black" points="2357,-214.77 2357,-233.77 2537,-233.77 2537,-214.77 2357,-214.77"/>
<text text-anchor="middle" x="2447" y="-221.77" font-family="Helvetica,sans-Serif" font-size="10.00">amr_wind::pde::ICNSDiffTensorOp</text>
</a>
</g>
</g>
<!-- Node3&#45;&gt;Node2 -->
<g id="edge2" class="edge">
<title>Node3&#45;&gt;Node2</title>
<path fill="none" stroke="#9a32cd" stroke-dasharray="5,2" d="M2471.72,-209.35C2523.58,-176.72 2646.61,-99.33 2698.86,-66.45"/>
<polygon fill="#9a32cd" stroke="#9a32cd" points="2469.78,-206.43 2463.18,-214.72 2473.51,-212.36 2469.78,-206.43"/>
<text text-anchor="middle" x="2587.5" y="-156.27" font-family="Helvetica,sans-Serif" font-size="10.00"> ptr</text>
</g>
<!-- Node4 -->
<g id="node4" class="node">
<title>Node4</title>
<g id="a_node4"><a xlink:href="classamr__wind_1_1pde_1_1_diff_solver_iface.html" target="_top" xlink:title=" ">
<polygon fill="white" stroke="black" points="2155.5,-309.27 2155.5,-339.27 2314.5,-339.27 2314.5,-309.27 2155.5,-309.27"/>
<text text-anchor="start" x="2163.5" y="-327.27" font-family="Helvetica,sans-Serif" font-size="10.00">amr_wind::pde::DiffSolver</text>
<text text-anchor="middle" x="2235" y="-316.27" font-family="Helvetica,sans-Serif" font-size="10.00">Iface&lt; amrex::MLTensorOp &gt;</text>
</a>
</g>
</g>
<!-- Node4&#45;&gt;Node3 -->
<g id="edge3" class="edge">
<title>Node4&#45;&gt;Node3</title>
<path fill="none" stroke="midnightblue" d="M2277.05,-304.72C2321.85,-283.39 2391.72,-250.11 2425.86,-233.86"/>
<polygon fill="midnightblue" stroke="midnightblue" points="2275.42,-301.62 2267.89,-309.08 2278.43,-307.94 2275.42,-301.62"/>
</g>
<!-- Node5 -->
<g id="node5" class="node">
<title>Node5</title>
<g id="a_node5"><a xlink:title=" ">
<polygon fill="white" stroke="#bfbfbf" points="572,-120.27 572,-150.27 704,-150.27 704,-120.27 572,-120.27"/>
<text text-anchor="start" x="580" y="-138.27" font-family="Helvetica,sans-Serif" font-size="10.00">std::unique_ptr&lt; amrex</text>
<text text-anchor="middle" x="638" y="-127.27" font-family="Helvetica,sans-Serif" font-size="10.00">::MLTensorOp &gt;</text>
</a>
</g>
</g>
<!-- Node5&#45;&gt;Node4 -->
<g id="edge4" class="edge">
<title>Node5&#45;&gt;Node4</title>
<path fill="none" stroke="#9a32cd" stroke-dasharray="5,2" d="M714.33,-136.49C844.67,-138.49 1120.73,-142.27 1354,-142.27 1354,-142.27 1354,-142.27 1903.5,-142.27 2041.38,-142.27 2175.97,-265.32 2219.46,-309.06"/>
<polygon fill="#9a32cd" stroke="#9a32cd" points="714.12,-132.98 704.06,-136.33 714.01,-139.98 714.12,-132.98"/>
<text text-anchor="middle" x="1355" y="-156.27" font-family="Helvetica,sans-Serif" font-size="10.00"> m_applier</text>
<text text-anchor="middle" x="1355" y="-145.27" font-family="Helvetica,sans-Serif" font-size="10.00">m_solver</text>
</g>
<!-- Node6 -->
<g id="node6" class="node">
<title>Node6</title>
<g id="a_node6"><a xlink:title="STL class.">
<polygon fill="white" stroke="#bfbfbf" points="90,-125.77 90,-144.77 208,-144.77 208,-125.77 90,-125.77"/>
<text text-anchor="middle" x="149" y="-132.77" font-family="Helvetica,sans-Serif" font-size="10.00">std::unique_ptr&lt; T &gt;</text>
</a>
</g>
</g>
<!-- Node6&#45;&gt;Node2 -->
<g id="edge35" class="edge">
<title>Node6&#45;&gt;Node2</title>
<path fill="none" stroke="orange" stroke-dasharray="5,2" d="M207.64,-123.92C271.24,-112.41 376.75,-96.27 468.5,-96.27 468.5,-96.27 468.5,-96.27 1221,-96.27 1599.01,-96.27 1691.99,-45.27 2070,-45.27 2070,-45.27 2070,-45.27 2448,-45.27 2511.63,-45.27 2583.53,-46.89 2637.84,-48.45"/>
<polygon fill="orange" stroke="orange" points="207,-120.48 197.8,-125.73 208.27,-127.36 207,-120.48"/>
<text text-anchor="start" x="1420" y="-105.27" font-family="Helvetica,sans-Serif" font-size="10.00"> &lt; amr_wind::pde::ICNSDiff</text>
<text text-anchor="middle" x="1486.5" y="-94.27" font-family="Helvetica,sans-Serif" font-size="10.00">TensorOp &gt;</text>
</g>
<!-- Node6&#45;&gt;Node5 -->
<g id="edge5" class="edge">
<title>Node6&#45;&gt;Node5</title>
<path fill="none" stroke="orange" stroke-dasharray="5,2" d="M218.49,-135.27C312.3,-135.27 479.59,-135.27 571.7,-135.27"/>
<polygon fill="orange" stroke="orange" points="218.26,-131.77 208.26,-135.27 218.26,-138.77 218.26,-131.77"/>
<text text-anchor="middle" x="300.5" y="-138.27" font-family="Helvetica,sans-Serif" font-size="10.00"> &lt; amrex::MLTensorOp &gt;</text>
</g>
<!-- Node11 -->
<g id="node11" class="node">
<title>Node11</title>
<g id="a_node11"><a xlink:title=" ">
<polygon fill="white" stroke="#bfbfbf" points="385,-202.27 385,-232.27 554,-232.27 554,-202.27 385,-202.27"/>
<text text-anchor="start" x="393" y="-220.27" font-family="Helvetica,sans-Serif" font-size="10.00">std::unique_ptr&lt; amr</text>
<text text-anchor="middle" x="469.5" y="-209.27" font-family="Helvetica,sans-Serif" font-size="10.00">_wind::FieldFillPatchOpsBase &gt;</text>
</a>
</g>
</g>
<!-- Node6&#45;&gt;Node11 -->
<g id="edge12" class="edge">
<title>Node6&#45;&gt;Node11</title>
<path fill="none" stroke="orange" stroke-dasharray="5,2" d="M174.01,-150.15C190.35,-159.62 212.77,-171.35 234,-178.27 290.9,-196.8 307.98,-189.37 367,-199.27 372.82,-200.24 378.83,-201.27 384.88,-202.31"/>
<polygon fill="orange" stroke="orange" points="175.54,-146.99 165.15,-144.89 171.96,-153.01 175.54,-146.99"/>
<text text-anchor="start" x="234" y="-213.27" font-family="Helvetica,sans-Serif" font-size="10.00"> &lt; amr_wind::FieldFillPatch</text>
<text text-anchor="middle" x="300.5" y="-202.27" font-family="Helvetica,sans-Serif" font-size="10.00">OpsBase &gt;</text>
</g>
<!-- Node23 -->
<g id="node23" class="node">
<title>Node23</title>
<g id="a_node23"><a xlink:title=" ">
<polygon fill="white" stroke="#bfbfbf" points="1150,-216.77 1150,-235.77 1290,-235.77 1290,-216.77 1150,-216.77"/>
<text text-anchor="middle" x="1220" y="-223.77" font-family="Helvetica,sans-Serif" font-size="10.00">std::unique_ptr&lt; LinOp &gt;</text>
</a>
</g>
</g>
<!-- Node6&#45;&gt;Node23 -->
<g id="edge32" class="edge">
<title>Node6&#45;&gt;Node23</title>
<path fill="none" stroke="orange" stroke-dasharray="5,2" d="M208.6,-146.5C217.1,-147.91 225.76,-149.22 234,-150.27 576.19,-193.91 988.68,-215.89 1149.79,-223.3"/>
<polygon fill="orange" stroke="orange" points="209.18,-143.05 198.73,-144.82 208,-149.95 209.18,-143.05"/>
<text text-anchor="middle" x="638" y="-199.27" font-family="Helvetica,sans-Serif" font-size="10.00"> &lt; LinOp &gt;</text>
</g>
<!-- Node24 -->
<g id="node24" class="node">
<title>Node24</title>
<g id="a_node24"><a xlink:title=" ">
<polygon fill="white" stroke="#bfbfbf" points="2150,-74.27 2150,-104.27 2320,-104.27 2320,-74.27 2150,-74.27"/>
<text text-anchor="start" x="2158" y="-92.27" font-family="Helvetica,sans-Serif" font-size="10.00">std::unique_ptr&lt; amr</text>
<text text-anchor="middle" x="2235" y="-81.27" font-family="Helvetica,sans-Serif" font-size="10.00">_wind::pde::ICNSDiffScalarOp &gt;</text>
</a>
</g>
</g>
<!-- Node6&#45;&gt;Node24 -->
<g id="edge43" class="edge">
<title>Node6&#45;&gt;Node24</title>
<path fill="none" stroke="orange" stroke-dasharray="5,2" d="M161.87,-117.37C176.38,-97.02 202.87,-64.4 234,-47.27 327.12,4 362.21,-0.27 468.5,-0.27 468.5,-0.27 468.5,-0.27 1221,-0.27 1401.63,-0.27 1940.71,-57.13 2149.81,-79.95"/>
<polygon fill="orange" stroke="orange" points="158.88,-115.54 156.08,-125.76 164.64,-119.52 158.88,-115.54"/>
<text text-anchor="start" x="1153.5" y="-14.27" font-family="Helvetica,sans-Serif" font-size="10.00"> &lt; amr_wind::pde::ICNSDiff</text>
<text text-anchor="middle" x="1220" y="-3.27" font-family="Helvetica,sans-Serif" font-size="10.00">ScalarOp &gt;</text>
</g>
<!-- Node26 -->
<g id="node26" class="node">
<title>Node26</title>
<g id="a_node26"><a xlink:title=" ">
<polygon fill="white" stroke="#bfbfbf" points="862,-33.27 862,-63.27 994,-63.27 994,-33.27 862,-33.27"/>
<text text-anchor="start" x="870" y="-51.27" font-family="Helvetica,sans-Serif" font-size="10.00">std::unique_ptr&lt; amrex</text>
<text text-anchor="middle" x="928" y="-40.27" font-family="Helvetica,sans-Serif" font-size="10.00">::MLABecLaplacian &gt;</text>
</a>
</g>
</g>
<!-- Node6&#45;&gt;Node26 -->
<g id="edge42" class="edge">
<title>Node6&#45;&gt;Node26</title>
<path fill="none" stroke="orange" stroke-dasharray="5,2" d="M169.13,-119.31C185.31,-106.82 209.68,-90.27 234,-82.27 454.84,-9.62 736.58,-27.19 861.87,-40.23"/>
<polygon fill="orange" stroke="orange" points="166.68,-116.79 161.04,-125.75 171.04,-122.26 166.68,-116.79"/>
<text text-anchor="middle" x="469.5" y="-49.27" font-family="Helvetica,sans-Serif" font-size="10.00"> &lt; amrex::MLABecLaplacian &gt;</text>
</g>
<!-- Node7 -->
<g id="node7" class="node">
<title>Node7</title>
<g id="a_node7"><a xlink:title=" ">
<polygon fill="white" stroke="#bfbfbf" points="0,-274.77 0,-293.77 29,-293.77 29,-274.77 0,-274.77"/>
<text text-anchor="middle" x="14.5" y="-281.77" font-family="Helvetica,sans-Serif" font-size="10.00">T</text>
</a>
</g>
</g>
<!-- Node7&#45;&gt;Node6 -->
<g id="edge6" class="edge">
<title>Node7&#45;&gt;Node6</title>
<path fill="none" stroke="#9a32cd" stroke-dasharray="5,2" d="M30.94,-266.9C59.01,-235.34 117.51,-169.55 139.45,-144.88"/>
<polygon fill="#9a32cd" stroke="#9a32cd" points="28.22,-264.69 24.19,-274.49 33.45,-269.34 28.22,-264.69"/>
<text text-anchor="middle" x="55.5" y="-251.27" font-family="Helvetica,sans-Serif" font-size="10.00"> ptr</text>
</g>
<!-- Node15 -->
<g id="node15" class="node">
<title>Node15</title>
<g id="a_node15"><a xlink:title="STL class.">
<polygon fill="white" stroke="#bfbfbf" points="241.5,-265.77 241.5,-284.77 359.5,-284.77 359.5,-265.77 241.5,-265.77"/>
<text text-anchor="middle" x="300.5" y="-272.77" font-family="Helvetica,sans-Serif" font-size="10.00">std::shared_ptr&lt; T &gt;</text>
</a>
</g>
</g>
<!-- Node7&#45;&gt;Node15 -->
<g id="edge16" class="edge">
<title>Node7&#45;&gt;Node15</title>
<path fill="none" stroke="#9a32cd" stroke-dasharray="5,2" d="M39.24,-283.51C83.32,-282.12 178.98,-279.09 241.24,-277.11"/>
<polygon fill="#9a32cd" stroke="#9a32cd" points="39.08,-280.02 29.2,-283.83 39.3,-287.01 39.08,-280.02"/>
<text text-anchor="middle" x="55.5" y="-286.27" font-family="Helvetica,sans-Serif" font-size="10.00"> ptr</text>
</g>
<!-- Node18 -->
<g id="node18" class="node">
<title>Node18</title>
<g id="a_node18"><a xlink:title="STL class.">
<polygon fill="white" stroke="#bfbfbf" points="412.5,-348.27 412.5,-378.27 526.5,-378.27 526.5,-348.27 412.5,-348.27"/>
<text text-anchor="start" x="420.5" y="-366.27" font-family="Helvetica,sans-Serif" font-size="10.00">std::unordered_map</text>
<text text-anchor="middle" x="469.5" y="-355.27" font-family="Helvetica,sans-Serif" font-size="10.00">&lt; K, T &gt;</text>
</a>
</g>
</g>
<!-- Node7&#45;&gt;Node18 -->
<g id="edge23" class="edge">
<title>Node7&#45;&gt;Node18</title>
<path fill="none" stroke="#9a32cd" stroke-dasharray="5,2" d="M30.09,-301.66C42.41,-315.02 61.33,-332.6 82,-341.27 191.86,-387.32 334.88,-380.15 412.47,-371.38"/>
<polygon fill="#9a32cd" stroke="#9a32cd" points="32.56,-299.17 23.31,-294 27.32,-303.81 32.56,-299.17"/>
<text text-anchor="middle" x="149" y="-376.27" font-family="Helvetica,sans-Serif" font-size="10.00"> elements</text>
</g>
<!-- Node8 -->
<g id="node8" class="node">
<title>Node8</title>
<g id="a_node8"><a xlink:href="classamr__wind_1_1_field.html" target="_top" xlink:title="Computational field.">
<polygon fill="white" stroke="black" points="1308,-338.77 1308,-357.77 1402,-357.77 1402,-338.77 1308,-338.77"/>
<text text-anchor="middle" x="1355" y="-345.77" font-family="Helvetica,sans-Serif" font-size="10.00">amr_wind::Field</text>
</a>
</g>
</g>
<!-- Node8&#45;&gt;Node4 -->
<g id="edge7" class="edge">
<title>Node8&#45;&gt;Node4</title>
<path fill="none" stroke="#9a32cd" stroke-dasharray="5,2" d="M1366.98,-329.85C1378.04,-313.24 1396.76,-289.86 1420,-279.27 1549.44,-220.29 1977.43,-281.67 2155.35,-310.76"/>
<polygon fill="#9a32cd" stroke="#9a32cd" points="1363.77,-328.37 1361.38,-338.69 1369.69,-332.11 1363.77,-328.37"/>
<text text-anchor="middle" x="1763.5" y="-267.27" font-family="Helvetica,sans-Serif" font-size="10.00"> m_density</text>
</g>
<!-- Node21 -->
<g id="node21" class="node">
<title>Node21</title>
<g id="a_node21"><a xlink:href="structamr__wind_1_1pde_1_1_p_d_e_fields.html" target="_top" xlink:title="Collection of fields related to a PDE.">
<polygon fill="white" stroke="black" points="1571,-374.77 1571,-393.77 1714,-393.77 1714,-374.77 1571,-374.77"/>
<text text-anchor="middle" x="1642.5" y="-381.77" font-family="Helvetica,sans-Serif" font-size="10.00">amr_wind::pde::PDEFields</text>
</a>
</g>
</g>
<!-- Node8&#45;&gt;Node21 -->
<g id="edge27" class="edge">
<title>Node8&#45;&gt;Node21</title>
<path fill="none" stroke="#9a32cd" stroke-dasharray="5,2" d="M1412.27,-343.07C1451.97,-340.73 1506.2,-340.22 1553,-349.27 1578.31,-354.16 1605.63,-366.08 1623.12,-374.65"/>
<polygon fill="#9a32cd" stroke="#9a32cd" points="1412,-339.58 1402.25,-343.72 1412.45,-346.57 1412,-339.58"/>
<text text-anchor="middle" x="1486.5" y="-396.27" font-family="Helvetica,sans-Serif" font-size="10.00"> src_term</text>
<text text-anchor="middle" x="1486.5" y="-385.27" font-family="Helvetica,sans-Serif" font-size="10.00">field</text>
<text text-anchor="middle" x="1486.5" y="-374.27" font-family="Helvetica,sans-Serif" font-size="10.00">diff_term</text>
<text text-anchor="middle" x="1486.5" y="-363.27" font-family="Helvetica,sans-Serif" font-size="10.00">mueff</text>
<text text-anchor="middle" x="1486.5" y="-352.27" font-family="Helvetica,sans-Serif" font-size="10.00">conv_term</text>
</g>
<!-- Node22 -->
<g id="node22" class="node">
<title>Node22</title>
<g id="a_node22"><a xlink:href="classamr__wind_1_1pde_1_1_diff_solver_iface.html" target="_top" xlink:title="Base class for all diffusion operators.">
<polygon fill="white" stroke="black" points="1831,-414.27 1831,-444.27 1974,-444.27 1974,-414.27 1831,-414.27"/>
<text text-anchor="start" x="1839" y="-432.27" font-family="Helvetica,sans-Serif" font-size="10.00">amr_wind::pde::DiffSolver</text>
<text text-anchor="middle" x="1902.5" y="-421.27" font-family="Helvetica,sans-Serif" font-size="10.00">Iface&lt; LinOp &gt;</text>
</a>
</g>
</g>
<!-- Node8&#45;&gt;Node22 -->
<g id="edge30" class="edge">
<title>Node8&#45;&gt;Node22</title>
<path fill="none" stroke="#9a32cd" stroke-dasharray="5,2" d="M1369.24,-366.28C1380.85,-380.5 1399.11,-399.38 1420,-408.27 1556.09,-466.16 1733.79,-454.12 1830.76,-441.12"/>
<polygon fill="#9a32cd" stroke="#9a32cd" points="1371.81,-363.89 1362.9,-358.15 1366.29,-368.19 1371.81,-363.89"/>
<text text-anchor="middle" x="1642.5" y="-454.27" font-family="Helvetica,sans-Serif" font-size="10.00"> m_density</text>
</g>
<!-- Node25 -->
<g id="node25" class="node">
<title>Node25</title>
<g id="a_node25"><a xlink:href="classamr__wind_1_1pde_1_1_i_c_n_s_diff_scalar_op.html" target="_top" xlink:title=" ">
<polygon fill="white" stroke="black" points="1813,-216.77 1813,-235.77 1992,-235.77 1992,-216.77 1813,-216.77"/>
<text text-anchor="middle" x="1902.5" y="-223.77" font-family="Helvetica,sans-Serif" font-size="10.00">amr_wind::pde::ICNSDiffScalarOp</text>
</a>
</g>
</g>
<!-- Node8&#45;&gt;Node25 -->
<g id="edge38" class="edge">
<title>Node8&#45;&gt;Node25</title>
<path fill="none" stroke="#9a32cd" stroke-dasharray="5,2" d="M1362.65,-329.03C1371.69,-306.1 1390.25,-268.7 1420,-251.27 1563.17,-167.35 1773.36,-198.41 1860.9,-216.7"/>
<polygon fill="#9a32cd" stroke="#9a32cd" points="1359.26,-328.1 1359.06,-338.7 1365.82,-330.54 1359.26,-328.1"/>
<text text-anchor="middle" x="1642.5" y="-204.27" font-family="Helvetica,sans-Serif" font-size="10.00"> m_density</text>
</g>
<!-- Node9 -->
<g id="node9" class="node">
<title>Node9</title>
<g id="a_node9"><a xlink:title=" ">
<polygon fill="white" stroke="#bfbfbf" points="1012,-287.27 1012,-317.27 1132,-317.27 1132,-287.27 1012,-287.27"/>
<text text-anchor="start" x="1020" y="-305.27" font-family="Helvetica,sans-Serif" font-size="10.00">std::shared_ptr&lt; amr</text>
<text text-anchor="middle" x="1072" y="-294.27" font-family="Helvetica,sans-Serif" font-size="10.00">_wind::FieldInfo &gt;</text>
</a>
</g>
</g>
<!-- Node9&#45;&gt;Node8 -->
<g id="edge8" class="edge">
<title>Node9&#45;&gt;Node8</title>
<path fill="none" stroke="#9a32cd" stroke-dasharray="5,2" d="M1142.32,-313.61C1193.88,-322.05 1262.82,-333.34 1307.81,-340.7"/>
<polygon fill="#9a32cd" stroke="#9a32cd" points="1142.68,-310.13 1132.25,-311.97 1141.55,-317.04 1142.68,-310.13"/>
<text text-anchor="middle" x="1220" y="-340.27" font-family="Helvetica,sans-Serif" font-size="10.00"> m_info</text>
</g>
<!-- Node10 -->
<g id="node10" class="node">
<title>Node10</title>
<g id="a_node10"><a xlink:href="structamr__wind_1_1_field_info.html" target="_top" xlink:title="Information common to a field that has multiple states.">
<polygon fill="white" stroke="black" points="726.5,-292.77 726.5,-311.77 839.5,-311.77 839.5,-292.77 726.5,-292.77"/>
<text text-anchor="middle" x="783" y="-299.77" font-family="Helvetica,sans-Serif" font-size="10.00">amr_wind::FieldInfo</text>
</a>
</g>
</g>
<!-- Node10&#45;&gt;Node9 -->
<g id="edge9" class="edge">
<title>Node10&#45;&gt;Node9</title>
<path fill="none" stroke="#9a32cd" stroke-dasharray="5,2" d="M849.82,-302.27C898.63,-302.27 964.61,-302.27 1011.77,-302.27"/>
<polygon fill="#9a32cd" stroke="#9a32cd" points="849.68,-298.77 839.68,-302.27 849.68,-305.77 849.68,-298.77"/>
<text text-anchor="middle" x="928" y="-305.27" font-family="Helvetica,sans-Serif" font-size="10.00"> ptr</text>
</g>
<!-- Node11&#45;&gt;Node10 -->
<g id="edge10" class="edge">
<title>Node11&#45;&gt;Node10</title>
<path fill="none" stroke="#9a32cd" stroke-dasharray="5,2" d="M500.83,-237.87C520.32,-250.11 546.66,-264.85 572,-273.27 599.77,-282.49 674.05,-291.44 726.36,-296.9"/>
<polygon fill="#9a32cd" stroke="#9a32cd" points="502.69,-234.91 492.38,-232.45 498.91,-240.8 502.69,-234.91"/>
<text text-anchor="middle" x="638" y="-297.27" font-family="Helvetica,sans-Serif" font-size="10.00"> m_fillpatch_op</text>
</g>
<!-- Node12 -->
<g id="node12" class="node">
<title>Node12</title>
<g id="a_node12"><a xlink:href="classamr__wind_1_1_field_fill_patch_ops_base.html" target="_top" xlink:title="Abstract interface for classes that handle fill patch and physical boundary condition operations for ...">
<polygon fill="white" stroke="black" points="82,-225.27 82,-255.27 216,-255.27 216,-225.27 82,-225.27"/>
<text text-anchor="start" x="90" y="-243.27" font-family="Helvetica,sans-Serif" font-size="10.00">amr_wind::FieldFillPatch</text>
<text text-anchor="middle" x="149" y="-232.27" font-family="Helvetica,sans-Serif" font-size="10.00">OpsBase</text>
</a>
</g>
</g>
<!-- Node12&#45;&gt;Node11 -->
<g id="edge11" class="edge">
<title>Node12&#45;&gt;Node11</title>
<path fill="none" stroke="#9a32cd" stroke-dasharray="5,2" d="M226.36,-234.75C274.16,-231.3 335.77,-226.85 384.88,-223.3"/>
<polygon fill="#9a32cd" stroke="#9a32cd" points="226.1,-231.26 216.38,-235.47 226.61,-238.24 226.1,-231.26"/>
<text text-anchor="middle" x="300.5" y="-237.27" font-family="Helvetica,sans-Serif" font-size="10.00"> ptr</text>
</g>
<!-- Node13 -->
<g id="node13" class="node">
<title>Node13</title>
<g id="a_node13"><a xlink:title="STL class.">
<polygon fill="white" stroke="#bfbfbf" points="437,-408.77 437,-427.77 502,-427.77 502,-408.77 437,-408.77"/>
<text text-anchor="middle" x="469.5" y="-415.77" font-family="Helvetica,sans-Serif" font-size="10.00">std::string</text>
</a>
</g>
</g>
<!-- Node13&#45;&gt;Node8 -->
<g id="edge17" class="edge">
<title>Node13&#45;&gt;Node8</title>
<path fill="none" stroke="#9a32cd" stroke-dasharray="5,2" d="M512.28,-416.85C559.01,-415.22 636.94,-412.36 704,-409.27 894.29,-400.49 941.79,-396.79 1132,-386.27 1202.23,-382.38 1221.7,-394.07 1290,-377.27 1306.94,-373.1 1324.92,-364.54 1337.5,-357.79"/>
<polygon fill="#9a32cd" stroke="#9a32cd" points="512.1,-413.35 502.23,-417.2 512.35,-420.35 512.1,-413.35"/>
<text text-anchor="middle" x="928" y="-404.27" font-family="Helvetica,sans-Serif" font-size="10.00"> m_name</text>
</g>
<!-- Node13&#45;&gt;Node10 -->
<g id="edge13" class="edge">
<title>Node13&#45;&gt;Node10</title>
<path fill="none" stroke="#9a32cd" stroke-dasharray="5,2" d="M512.07,-409.79C526.7,-405.13 542.38,-398.02 554,-387.27 568.01,-374.3 557.12,-360.23 572,-348.27 595.42,-329.44 672.44,-316.1 726.38,-308.79"/>
<polygon fill="#9a32cd" stroke="#9a32cd" points="510.81,-406.51 502.17,-412.64 512.75,-413.24 510.81,-406.51"/>
<text text-anchor="middle" x="638" y="-351.27" font-family="Helvetica,sans-Serif" font-size="10.00"> m_basename</text>
</g>
<!-- Node17 -->
<g id="node17" class="node">
<title>Node17</title>
<g id="a_node17"><a xlink:title=" ">
<polygon fill="white" stroke="#bfbfbf" points="722,-352.27 722,-382.27 844,-382.27 844,-352.27 722,-352.27"/>
<text text-anchor="start" x="730" y="-370.27" font-family="Helvetica,sans-Serif" font-size="10.00">std::unordered_map</text>
<text text-anchor="middle" x="783" y="-359.27" font-family="Helvetica,sans-Serif" font-size="10.00">&lt; std::string, size_t &gt;</text>
</a>
</g>
</g>
<!-- Node13&#45;&gt;Node17 -->
<g id="edge20" class="edge">
<title>Node13&#45;&gt;Node17</title>
<path fill="none" stroke="#9a32cd" stroke-dasharray="5,2" d="M512.46,-409.53C530.72,-405.85 552.38,-401.65 572,-398.27 622.3,-389.6 679.64,-381.24 721.68,-375.39"/>
<polygon fill="#9a32cd" stroke="#9a32cd" points="511.53,-406.15 502.43,-411.57 512.92,-413.01 511.53,-406.15"/>
<text text-anchor="middle" x="638" y="-401.27" font-family="Helvetica,sans-Serif" font-size="10.00"> keys</text>
</g>
<!-- Node20 -->
<g id="node20" class="node">
<title>Node20</title>
<g id="a_node20"><a xlink:href="structamr__wind_1_1_m_l_m_g_options.html" target="_top" xlink:title="Interface to control the behavior of AMReX LinearSolvers.">
<polygon fill="white" stroke="black" points="1573,-472.77 1573,-491.77 1712,-491.77 1712,-472.77 1573,-472.77"/>
<text text-anchor="middle" x="1642.5" y="-479.77" font-family="Helvetica,sans-Serif" font-size="10.00">amr_wind::MLMGOptions</text>
</a>
</g>
</g>
<!-- Node13&#45;&gt;Node20 -->
<g id="edge25" class="edge">
<title>Node13&#45;&gt;Node20</title>
<path fill="none" stroke="#9a32cd" stroke-dasharray="5,2" d="M511.25,-430.6C570.33,-447.36 683.51,-475.27 782,-475.27 782,-475.27 782,-475.27 1356,-475.27 1430.12,-475.27 1515.04,-477.65 1572.86,-479.64"/>
<polygon fill="#9a32cd" stroke="#9a32cd" points="512.13,-427.21 501.55,-427.81 510.19,-433.93 512.13,-427.21"/>
<text text-anchor="middle" x="1072" y="-500.27" font-family="Helvetica,sans-Serif" font-size="10.00"> hypre_namespace</text>
<text text-anchor="middle" x="1072" y="-489.27" font-family="Helvetica,sans-Serif" font-size="10.00">bottom_solver_type</text>
<text text-anchor="middle" x="1072" y="-478.27" font-family="Helvetica,sans-Serif" font-size="10.00">hypre_interface</text>
</g>
<!-- Node14 -->
<g id="node14" class="node">
<title>Node14</title>
<g id="a_node14"><a xlink:title="STL class.">
<polygon fill="white" stroke="#bfbfbf" points="97,-403.27 97,-433.27 201,-433.27 201,-403.27 97,-403.27"/>
<text text-anchor="start" x="105" y="-421.27" font-family="Helvetica,sans-Serif" font-size="10.00">std::basic_string&lt;</text>
<text text-anchor="middle" x="149" y="-410.27" font-family="Helvetica,sans-Serif" font-size="10.00"> char &gt;</text>
</a>
</g>
</g>
<!-- Node14&#45;&gt;Node13 -->
<g id="edge14" class="edge">
<title>Node14&#45;&gt;Node13</title>
<path fill="none" stroke="midnightblue" d="M211.24,-418.27C278.64,-418.27 384.37,-418.27 436.81,-418.27"/>
<polygon fill="midnightblue" stroke="midnightblue" points="211.17,-414.77 201.17,-418.27 211.17,-421.77 211.17,-414.77"/>
</g>
<!-- Node15&#45;&gt;Node9 -->
<g id="edge15" class="edge">
<title>Node15&#45;&gt;Node9</title>
<path fill="none" stroke="orange" stroke-dasharray="5,2" d="M369.77,-270.43C424.43,-266.81 503.1,-262.18 572,-260.27 630.64,-258.64 645.43,-256.93 704,-260.27 813.01,-266.48 939.34,-283.01 1011.75,-293.38"/>
<polygon fill="orange" stroke="orange" points="369.25,-266.96 359.5,-271.12 369.72,-273.94 369.25,-266.96"/>
<text text-anchor="middle" x="638" y="-263.27" font-family="Helvetica,sans-Serif" font-size="10.00"> &lt; amr_wind::FieldInfo &gt;</text>
</g>
<!-- Node16 -->
<g id="node16" class="node">
<title>Node16</title>
<g id="a_node16"><a xlink:href="classamr__wind_1_1_field_repo.html" target="_top" xlink:title="Field Repository.">
<polygon fill="white" stroke="black" points="1012.5,-357.77 1012.5,-376.77 1131.5,-376.77 1131.5,-357.77 1012.5,-357.77"/>
<text text-anchor="middle" x="1072" y="-364.77" font-family="Helvetica,sans-Serif" font-size="10.00">amr_wind::FieldRepo</text>
</a>
</g>
</g>
<!-- Node16&#45;&gt;Node8 -->
<g id="edge18" class="edge">
<title>Node16&#45;&gt;Node8</title>
<path fill="none" stroke="#9a32cd" stroke-dasharray="5,2" d="M1141.63,-362.63C1193.17,-359.14 1262.39,-354.46 1307.58,-351.41"/>
<polygon fill="#9a32cd" stroke="#9a32cd" points="1141.31,-359.14 1131.56,-363.31 1141.78,-366.12 1141.31,-359.14"/>
<text text-anchor="middle" x="1220" y="-365.27" font-family="Helvetica,sans-Serif" font-size="10.00"> m_repo</text>
</g>
<!-- Node16&#45;&gt;Node21 -->
<g id="edge28" class="edge">
<title>Node16&#45;&gt;Node21</title>
<path fill="none" stroke="#9a32cd" stroke-dasharray="5,2" d="M1130.47,-378.66C1220.65,-394.98 1400.83,-421.25 1553,-404.27 1571.16,-402.24 1591.03,-397.94 1607.34,-393.85"/>
<polygon fill="#9a32cd" stroke="#9a32cd" points="1130.92,-375.19 1120.45,-376.82 1129.66,-382.07 1130.92,-375.19"/>
<text text-anchor="middle" x="1355" y="-411.27" font-family="Helvetica,sans-Serif" font-size="10.00"> repo</text>
</g>
<!-- Node17&#45;&gt;Node16 -->
<g id="edge19" class="edge">
<title>Node17&#45;&gt;Node16</title>
<path fill="none" stroke="#9a32cd" stroke-dasharray="5,2" d="M854.28,-367.27C902.81,-367.27 966.6,-367.27 1012.39,-367.27"/>
<polygon fill="#9a32cd" stroke="#9a32cd" points="854.16,-363.77 844.16,-367.27 854.16,-370.77 854.16,-363.77"/>
<text text-anchor="middle" x="928" y="-381.27" font-family="Helvetica,sans-Serif" font-size="10.00"> m_fid_map</text>
<text text-anchor="middle" x="928" y="-370.27" font-family="Helvetica,sans-Serif" font-size="10.00">m_int_fid_map</text>
</g>
<!-- Node18&#45;&gt;Node17 -->
<g id="edge21" class="edge">
<title>Node18&#45;&gt;Node17</title>
<path fill="none" stroke="orange" stroke-dasharray="5,2" d="M536.65,-362.95C583.41,-362.87 647.55,-363.06 704,-364.27 709.83,-364.39 715.9,-364.56 721.96,-364.75"/>
<polygon fill="orange" stroke="orange" points="536.64,-359.45 526.65,-362.97 536.66,-366.45 536.64,-359.45"/>
<text text-anchor="middle" x="638" y="-367.27" font-family="Helvetica,sans-Serif" font-size="10.00"> &lt; std::string, size_t &gt;</text>
</g>
<!-- Node19 -->
<g id="node19" class="node">
<title>Node19</title>
<g id="a_node19"><a xlink:title=" ">
<polygon fill="white" stroke="#bfbfbf" points="134.5,-312.77 134.5,-331.77 163.5,-331.77 163.5,-312.77 134.5,-312.77"/>
<text text-anchor="middle" x="149" y="-319.77" font-family="Helvetica,sans-Serif" font-size="10.00">K</text>
</a>
</g>
</g>
<!-- Node19&#45;&gt;Node18 -->
<g id="edge22" class="edge">
<title>Node19&#45;&gt;Node18</title>
<path fill="none" stroke="#9a32cd" stroke-dasharray="5,2" d="M173.87,-323.81C213.94,-326.57 297.17,-333.03 367,-343.27 381.75,-345.43 397.6,-348.29 412.3,-351.17"/>
<polygon fill="#9a32cd" stroke="#9a32cd" points="173.98,-320.31 163.77,-323.13 173.51,-327.29 173.98,-320.31"/>
<text text-anchor="middle" x="300.5" y="-346.27" font-family="Helvetica,sans-Serif" font-size="10.00"> keys</text>
</g>
<!-- Node20&#45;&gt;Node4 -->
<g id="edge24" class="edge">
<title>Node20&#45;&gt;Node4</title>
<path fill="none" stroke="#9a32cd" stroke-dasharray="5,2" d="M1717.22,-492.92C1817.38,-503.76 1999.15,-510.33 2132,-440.27 2176.59,-416.75 2210.7,-365.21 2225.67,-339.49"/>
<polygon fill="#9a32cd" stroke="#9a32cd" points="1717.53,-489.43 1707.2,-491.79 1716.75,-496.39 1717.53,-489.43"/>
<text text-anchor="middle" x="1902.5" y="-502.27" font-family="Helvetica,sans-Serif" font-size="10.00"> m_options</text>
</g>
<!-- Node20&#45;&gt;Node22 -->
<g id="edge33" class="edge">
<title>Node20&#45;&gt;Node22</title>
<path fill="none" stroke="#9a32cd" stroke-dasharray="5,2" d="M1708.71,-470.92C1735.5,-466.07 1766.8,-460.18 1795,-454.27 1809.5,-451.23 1825.05,-447.72 1839.66,-444.31"/>
<polygon fill="#9a32cd" stroke="#9a32cd" points="1707.9,-467.51 1698.68,-472.72 1709.14,-474.4 1707.9,-467.51"/>
<text text-anchor="middle" x="1763.5" y="-469.27" font-family="Helvetica,sans-Serif" font-size="10.00"> m_options</text>
</g>
<!-- Node20&#45;&gt;Node25 -->
<g id="edge39" class="edge">
<title>Node20&#45;&gt;Node25</title>
<path fill="none" stroke="#9a32cd" stroke-dasharray="5,2" d="M1701.85,-468.04C1706.34,-465.33 1710.49,-462.1 1714,-458.27 1736.84,-433.29 1713.47,-412.59 1732,-384.27 1751.27,-354.81 1768.68,-359.64 1795,-336.27 1833.95,-301.67 1875.69,-255.57 1893.11,-235.86"/>
<polygon fill="#9a32cd" stroke="#9a32cd" points="1700.16,-464.97 1692.84,-472.64 1703.34,-471.2 1700.16,-464.97"/>
<text text-anchor="middle" x="1763.5" y="-387.27" font-family="Helvetica,sans-Serif" font-size="10.00"> m_options</text>
</g>
<!-- Node21&#45;&gt;Node4 -->
<g id="edge26" class="edge">
<title>Node21&#45;&gt;Node4</title>
<path fill="none" stroke="#9a32cd" stroke-dasharray="5,2" d="M1724.07,-377.01C1747,-374.89 1771.99,-372.54 1795,-370.27 1921.02,-357.84 2067.27,-342.29 2155.12,-332.83"/>
<polygon fill="#9a32cd" stroke="#9a32cd" points="1723.68,-373.53 1714.04,-377.93 1724.32,-380.5 1723.68,-373.53"/>
<text text-anchor="middle" x="1902.5" y="-372.27" font-family="Helvetica,sans-Serif" font-size="10.00"> m_pdefields</text>
</g>
<!-- Node21&#45;&gt;Node22 -->
<g id="edge34" class="edge">
<title>Node21&#45;&gt;Node22</title>
<path fill="none" stroke="#9a32cd" stroke-dasharray="5,2" d="M1708.45,-395.6C1745.7,-402.09 1792.48,-410.25 1830.67,-416.91"/>
<polygon fill="#9a32cd" stroke="#9a32cd" points="1708.67,-392.08 1698.22,-393.81 1707.47,-398.98 1708.67,-392.08"/>
<text text-anchor="middle" x="1763.5" y="-412.27" font-family="Helvetica,sans-Serif" font-size="10.00"> m_pdefields</text>
</g>
<!-- Node21&#45;&gt;Node25 -->
<g id="edge40" class="edge">
<title>Node21&#45;&gt;Node25</title>
<path fill="none" stroke="#9a32cd" stroke-dasharray="5,2" d="M1665.95,-368.76C1683.7,-356.64 1709.19,-339.51 1732,-325.27 1786.92,-290.96 1853.68,-253.05 1884.46,-235.77"/>
<polygon fill="#9a32cd" stroke="#9a32cd" points="1663.7,-366.06 1657.43,-374.6 1667.66,-371.84 1663.7,-366.06"/>
<text text-anchor="middle" x="1763.5" y="-328.27" font-family="Helvetica,sans-Serif" font-size="10.00"> m_pdefields</text>
</g>
<!-- Node22&#45;&gt;Node4 -->
<g id="edge29" class="edge">
<title>Node22&#45;&gt;Node4</title>
<path fill="none" stroke="orange" stroke-dasharray="5,2" d="M1984.24,-427.92C2029.12,-424.83 2085.19,-417.03 2132,-398.27 2166.32,-384.51 2199.78,-356.67 2218.56,-339.33"/>
<polygon fill="orange" stroke="orange" points="1984.02,-424.43 1974.25,-428.54 1984.45,-431.41 1984.02,-424.43"/>
<text text-anchor="middle" x="2071" y="-428.27" font-family="Helvetica,sans-Serif" font-size="10.00"> &lt; amrex::MLTensorOp &gt;</text>
</g>
<!-- Node23&#45;&gt;Node22 -->
<g id="edge31" class="edge">
<title>Node23&#45;&gt;Node22</title>
<path fill="none" stroke="#9a32cd" stroke-dasharray="5,2" d="M1300.11,-232.18C1448.98,-244.03 1759.09,-272.36 1795,-305.27 1821.55,-329.6 1790.86,-355.87 1813,-384.27 1823.39,-397.59 1838.79,-407.3 1853.85,-414.22"/>
<polygon fill="#9a32cd" stroke="#9a32cd" points="1300.36,-228.69 1290.11,-231.39 1299.81,-235.67 1300.36,-228.69"/>
<text text-anchor="middle" x="1486.5" y="-270.27" font-family="Helvetica,sans-Serif" font-size="10.00"> m_applier</text>
<text text-anchor="middle" x="1486.5" y="-259.27" font-family="Helvetica,sans-Serif" font-size="10.00">m_solver</text>
</g>
<!-- Node24&#45;&gt;Node1 -->
<g id="edge36" class="edge">
<title>Node24&#45;&gt;Node1</title>
<path fill="none" stroke="#9a32cd" stroke-dasharray="5,2" d="M2298.69,-71.56C2362.55,-54.5 2464.75,-29.92 2555,-20.27 2680.76,-6.82 2828.59,-14.01 2912.89,-20.27"/>
<polygon fill="#9a32cd" stroke="#9a32cd" points="2297.52,-68.25 2288.77,-74.23 2299.34,-75.01 2297.52,-68.25"/>
<text text-anchor="middle" x="2587.5" y="-23.27" font-family="Helvetica,sans-Serif" font-size="10.00"> m_scalar_op</text>
</g>
<!-- Node25&#45;&gt;Node24 -->
<g id="edge37" class="edge">
<title>Node25&#45;&gt;Node24</title>
<path fill="none" stroke="#9a32cd" stroke-dasharray="5,2" d="M1935.76,-212.89C1997.62,-187.25 2132.55,-131.32 2197.56,-104.37"/>
<polygon fill="#9a32cd" stroke="#9a32cd" points="1934.38,-209.68 1926.48,-216.74 1937.06,-216.15 1934.38,-209.68"/>
<text text-anchor="middle" x="2071" y="-185.27" font-family="Helvetica,sans-Serif" font-size="10.00"> ptr</text>
</g>
<!-- Node26&#45;&gt;Node25 -->
<g id="edge41" class="edge">
<title>Node26&#45;&gt;Node25</title>
<path fill="none" stroke="#9a32cd" stroke-dasharray="5,2" d="M1004.24,-47.05C1099.17,-47.58 1266.4,-55.4 1402,-98.27 1410.73,-101.03 1411.46,-104.98 1420,-108.27 1579.67,-169.74 1629.47,-152.01 1795,-195.27 1820.52,-201.94 1849.23,-210.35 1870.4,-216.72"/>
<polygon fill="#9a32cd" stroke="#9a32cd" points="1004.17,-43.55 994.16,-47.02 1004.15,-50.55 1004.17,-43.55"/>
<text text-anchor="middle" x="1355" y="-112.27" font-family="Helvetica,sans-Serif" font-size="10.00"> m_applier_scalar</text>
<text text-anchor="middle" x="1355" y="-101.27" font-family="Helvetica,sans-Serif" font-size="10.00">m_solver_scalar</text>
</g>
</g>
</svg>
