<?xml version="1.0" encoding="UTF-8" standalone="no"?>
<!DOCTYPE svg PUBLIC "-//W3C//DTD SVG 1.1//EN"
 "http://www.w3.org/Graphics/SVG/1.1/DTD/svg11.dtd">
<!-- Generated by graphviz version 2.43.0 (0)
 -->
<!-- Title: tensor_ops.H Pages: 1 -->
<svg width="1129pt" height="364pt"
 viewBox="0.00 0.00 1129.17 364.00" xmlns="http://www.w3.org/2000/svg" xmlns:xlink="http://www.w3.org/1999/xlink">
<g id="graph0" class="graph" transform="scale(1 1) rotate(0) translate(4 360)">
<title>tensor_ops.H</title>
<polygon fill="white" stroke="transparent" points="-4,4 -4,-360 1125.17,-360 1125.17,4 -4,4"/>
<!-- Node1 -->
<g id="node1" class="node">
<title>Node1</title>
<g id="a_node1"><a xlink:title=" ">
<polygon fill="#bfbfbf" stroke="black" points="460.5,-336.5 460.5,-355.5 540.5,-355.5 540.5,-336.5 460.5,-336.5"/>
<text text-anchor="middle" x="500.5" y="-343.5" font-family="Helvetica,sans-Serif" font-size="10.00">tensor_ops.H</text>
</a>
</g>
</g>
<!-- Node2 -->
<g id="node2" class="node">
<title>Node2</title>
<g id="a_node2"><a xlink:href="_coriolis_forcing_8cpp.html" target="_top" xlink:title=" ">
<polygon fill="white" stroke="black" points="0,-280.5 0,-299.5 109,-299.5 109,-280.5 0,-280.5"/>
<text text-anchor="middle" x="54.5" y="-287.5" font-family="Helvetica,sans-Serif" font-size="10.00">CoriolisForcing.cpp</text>
</a>
</g>
</g>
<!-- Node1&#45;&gt;Node2 -->
<g id="edge1" class="edge">
<title>Node1&#45;&gt;Node2</title>
<path fill="none" stroke="midnightblue" d="M450.17,-339.49C376.91,-331.38 236.62,-315.5 117.5,-300 114.76,-299.64 111.96,-299.27 109.12,-298.89"/>
<polygon fill="midnightblue" stroke="midnightblue" points="450.16,-343.01 460.48,-340.63 450.93,-336.05 450.16,-343.01"/>
</g>
<!-- Node3 -->
<g id="node3" class="node">
<title>Node3</title>
<g id="a_node3"><a xlink:href="_synthetic_turbulence_8cpp.html" target="_top" xlink:title=" ">
<polygon fill="white" stroke="black" points="127,-280.5 127,-299.5 262,-299.5 262,-280.5 127,-280.5"/>
<text text-anchor="middle" x="194.5" y="-287.5" font-family="Helvetica,sans-Serif" font-size="10.00">SyntheticTurbulence.cpp</text>
</a>
</g>
</g>
<!-- Node1&#45;&gt;Node3 -->
<g id="edge2" class="edge">
<title>Node1&#45;&gt;Node3</title>
<path fill="none" stroke="midnightblue" d="M450.56,-336.19C393.15,-326.06 299.56,-309.54 242.84,-299.53"/>
<polygon fill="midnightblue" stroke="midnightblue" points="450.04,-339.65 460.5,-337.94 451.26,-332.76 450.04,-339.65"/>
</g>
<!-- Node4 -->
<g id="node4" class="node">
<title>Node4</title>
<g id="a_node4"><a xlink:href="_lidar_sampler_8cpp.html" target="_top" xlink:title=" ">
<polygon fill="white" stroke="black" points="280,-280.5 280,-299.5 381,-299.5 381,-280.5 280,-280.5"/>
<text text-anchor="middle" x="330.5" y="-287.5" font-family="Helvetica,sans-Serif" font-size="10.00">LidarSampler.cpp</text>
</a>
</g>
</g>
<!-- Node1&#45;&gt;Node4 -->
<g id="edge3" class="edge">
<title>Node1&#45;&gt;Node4</title>
<path fill="none" stroke="midnightblue" d="M463.68,-333.3C431.65,-323.13 385.98,-308.62 357.31,-299.52"/>
<polygon fill="midnightblue" stroke="midnightblue" points="462.97,-336.75 473.56,-336.44 465.09,-330.08 462.97,-336.75"/>
</g>
<!-- Node5 -->
<g id="node5" class="node">
<title>Node5</title>
<g id="a_node5"><a xlink:href="_line_sampler_8cpp.html" target="_top" xlink:title=" ">
<polygon fill="white" stroke="black" points="399,-280.5 399,-299.5 496,-299.5 496,-280.5 399,-280.5"/>
<text text-anchor="middle" x="447.5" y="-287.5" font-family="Helvetica,sans-Serif" font-size="10.00">LineSampler.cpp</text>
</a>
</g>
</g>
<!-- Node1&#45;&gt;Node5 -->
<g id="edge4" class="edge">
<title>Node1&#45;&gt;Node5</title>
<path fill="none" stroke="midnightblue" d="M484.52,-328.72C475.18,-319.2 463.75,-307.56 456.09,-299.75"/>
<polygon fill="midnightblue" stroke="midnightblue" points="482.25,-331.4 491.75,-336.08 487.24,-326.49 482.25,-331.4"/>
</g>
<!-- Node6 -->
<g id="node6" class="node">
<title>Node6</title>
<g id="a_node6"><a xlink:href="_a_b_l_stats_8cpp.html" target="_top" xlink:title=" ">
<polygon fill="white" stroke="black" points="514.5,-280.5 514.5,-299.5 594.5,-299.5 594.5,-280.5 514.5,-280.5"/>
<text text-anchor="middle" x="554.5" y="-287.5" font-family="Helvetica,sans-Serif" font-size="10.00">ABLStats.cpp</text>
</a>
</g>
</g>
<!-- Node1&#45;&gt;Node6 -->
<g id="edge5" class="edge">
<title>Node1&#45;&gt;Node6</title>
<path fill="none" stroke="midnightblue" d="M516.5,-329C526.07,-319.43 537.86,-307.64 545.75,-299.75"/>
<polygon fill="midnightblue" stroke="midnightblue" points="514.01,-326.54 509.42,-336.08 518.96,-331.49 514.01,-326.54"/>
</g>
<!-- Node7 -->
<g id="node7" class="node">
<title>Node7</title>
<g id="a_node7"><a xlink:href="_a_b_l_wall_function_8cpp.html" target="_top" xlink:title=" ">
<polygon fill="white" stroke="black" points="613,-280.5 613,-299.5 730,-299.5 730,-280.5 613,-280.5"/>
<text text-anchor="middle" x="671.5" y="-287.5" font-family="Helvetica,sans-Serif" font-size="10.00">ABLWallFunction.cpp</text>
</a>
</g>
</g>
<!-- Node1&#45;&gt;Node7 -->
<g id="edge6" class="edge">
<title>Node1&#45;&gt;Node7</title>
<path fill="none" stroke="midnightblue" d="M537.54,-333.3C569.76,-323.13 615.69,-308.62 644.53,-299.52"/>
<polygon fill="midnightblue" stroke="midnightblue" points="536.08,-330.09 527.6,-336.44 538.19,-336.77 536.08,-330.09"/>
</g>
<!-- Node8 -->
<g id="node8" class="node">
<title>Node8</title>
<g id="a_node8"><a xlink:href="actuator__utils_8_h.html" target="_top" xlink:title=" ">
<polygon fill="white" stroke="black" points="748.5,-280.5 748.5,-299.5 842.5,-299.5 842.5,-280.5 748.5,-280.5"/>
<text text-anchor="middle" x="795.5" y="-287.5" font-family="Helvetica,sans-Serif" font-size="10.00">actuator_utils.H</text>
</a>
</g>
</g>
<!-- Node1&#45;&gt;Node8 -->
<g id="edge7" class="edge">
<title>Node1&#45;&gt;Node8</title>
<path fill="none" stroke="midnightblue" d="M550.54,-335.84C605.95,-325.7 694.59,-309.47 748.68,-299.57"/>
<polygon fill="midnightblue" stroke="midnightblue" points="549.8,-332.42 540.59,-337.66 551.06,-339.3 549.8,-332.42"/>
</g>
<!-- Node20 -->
<g id="node20" class="node">
<title>Node20</title>
<g id="a_node20"><a xlink:href="uniform__ct__ops_8_h.html" target="_top" xlink:title=" ">
<polygon fill="white" stroke="black" points="993.5,-112.5 993.5,-131.5 1095.5,-131.5 1095.5,-112.5 993.5,-112.5"/>
<text text-anchor="middle" x="1044.5" y="-119.5" font-family="Helvetica,sans-Serif" font-size="10.00">uniform_ct_ops.H</text>
</a>
</g>
</g>
<!-- Node1&#45;&gt;Node20 -->
<g id="edge43" class="edge">
<title>Node1&#45;&gt;Node20</title>
<path fill="none" stroke="midnightblue" d="M550.82,-341.9C634.53,-336.2 798.43,-322.51 851.5,-300 941.91,-261.66 1017.15,-162.01 1038.46,-131.81"/>
<polygon fill="midnightblue" stroke="midnightblue" points="550.53,-338.42 540.78,-342.58 550.99,-345.4 550.53,-338.42"/>
</g>
<!-- Node9 -->
<g id="node9" class="node">
<title>Node9</title>
<g id="a_node9"><a xlink:href="actuator__ops_i_8_h.html" target="_top" xlink:title=" ">
<polygon fill="white" stroke="black" points="655,-224.5 655,-243.5 748,-243.5 748,-224.5 655,-224.5"/>
<text text-anchor="middle" x="701.5" y="-231.5" font-family="Helvetica,sans-Serif" font-size="10.00">actuator_opsI.H</text>
</a>
</g>
</g>
<!-- Node8&#45;&gt;Node9 -->
<g id="edge8" class="edge">
<title>Node8&#45;&gt;Node9</title>
<path fill="none" stroke="midnightblue" d="M771.44,-275.18C754.14,-265.24 731.35,-252.15 716.57,-243.65"/>
<polygon fill="midnightblue" stroke="midnightblue" points="769.98,-278.38 780.4,-280.32 773.47,-272.31 769.98,-278.38"/>
</g>
<!-- Node11 -->
<g id="node11" class="node">
<title>Node11</title>
<g id="a_node11"><a xlink:href="_act_src_line_op_8_h.html" target="_top" xlink:title=" ">
<polygon fill="white" stroke="black" points="771.5,-112.5 771.5,-131.5 863.5,-131.5 863.5,-112.5 771.5,-112.5"/>
<text text-anchor="middle" x="817.5" y="-119.5" font-family="Helvetica,sans-Serif" font-size="10.00">ActSrcLineOp.H</text>
</a>
</g>
</g>
<!-- Node8&#45;&gt;Node11 -->
<g id="edge35" class="edge">
<title>Node8&#45;&gt;Node11</title>
<path fill="none" stroke="midnightblue" d="M798.03,-269.93C802.8,-233.92 812.96,-157.23 816.36,-131.57"/>
<polygon fill="midnightblue" stroke="midnightblue" points="794.53,-269.7 796.68,-280.08 801.47,-270.62 794.53,-269.7"/>
</g>
<!-- Node18 -->
<g id="node18" class="node">
<title>Node18</title>
<g id="a_node18"><a xlink:href="_act_src_disk_op___turbine_8_h.html" target="_top" xlink:title=" ">
<polygon fill="white" stroke="black" points="619.5,-112.5 619.5,-131.5 753.5,-131.5 753.5,-112.5 619.5,-112.5"/>
<text text-anchor="middle" x="686.5" y="-119.5" font-family="Helvetica,sans-Serif" font-size="10.00">ActSrcDiskOp_Turbine.H</text>
</a>
</g>
</g>
<!-- Node8&#45;&gt;Node18 -->
<g id="edge36" class="edge">
<title>Node8&#45;&gt;Node18</title>
<path fill="none" stroke="midnightblue" d="M785.45,-271.55C777.75,-258.35 766.74,-239.86 756.5,-224 733.94,-189.05 705.13,-148.74 692.69,-131.52"/>
<polygon fill="midnightblue" stroke="midnightblue" points="782.58,-273.58 790.63,-280.48 788.64,-270.07 782.58,-273.58"/>
</g>
<!-- Node19 -->
<g id="node19" class="node">
<title>Node19</title>
<g id="a_node19"><a xlink:href="_act_src_disk_op_8_h.html" target="_top" xlink:title=" ">
<polygon fill="white" stroke="black" points="882,-112.5 882,-131.5 975,-131.5 975,-112.5 882,-112.5"/>
<text text-anchor="middle" x="928.5" y="-119.5" font-family="Helvetica,sans-Serif" font-size="10.00">ActSrcDiskOp.H</text>
</a>
</g>
</g>
<!-- Node8&#45;&gt;Node19 -->
<g id="edge37" class="edge">
<title>Node8&#45;&gt;Node19</title>
<path fill="none" stroke="midnightblue" d="M804.26,-271.52C817.14,-246.83 842.86,-201.1 872.5,-168 885.48,-153.51 903.44,-139.97 915.48,-131.6"/>
<polygon fill="midnightblue" stroke="midnightblue" points="801.14,-269.93 799.7,-280.43 807.37,-273.12 801.14,-269.93"/>
</g>
<!-- Node22 -->
<g id="node22" class="node">
<title>Node22</title>
<g id="a_node22"><a xlink:href="turbine__fast__ops_8_h.html" target="_top" xlink:title=" ">
<polygon fill="white" stroke="black" points="287.5,-112.5 287.5,-131.5 395.5,-131.5 395.5,-112.5 287.5,-112.5"/>
<text text-anchor="middle" x="341.5" y="-119.5" font-family="Helvetica,sans-Serif" font-size="10.00">turbine_fast_ops.H</text>
</a>
</g>
</g>
<!-- Node8&#45;&gt;Node22 -->
<g id="edge42" class="edge">
<title>Node8&#45;&gt;Node22</title>
<path fill="none" stroke="midnightblue" d="M738.1,-279.81C659.78,-267.23 528.49,-245.97 523.5,-244 450.78,-215.35 377.24,-154.46 351.29,-131.77"/>
<polygon fill="midnightblue" stroke="midnightblue" points="737.88,-283.32 748.31,-281.45 738.99,-276.41 737.88,-283.32"/>
</g>
<!-- Node27 -->
<g id="node27" class="node">
<title>Node27</title>
<g id="a_node27"><a xlink:href="disk__spreading_8_h.html" target="_top" xlink:title=" ">
<polygon fill="white" stroke="black" points="881,-168.5 881,-187.5 982,-187.5 982,-168.5 881,-168.5"/>
<text text-anchor="middle" x="931.5" y="-175.5" font-family="Helvetica,sans-Serif" font-size="10.00">disk_spreading.H</text>
</a>
</g>
</g>
<!-- Node8&#45;&gt;Node27 -->
<g id="edge38" class="edge">
<title>Node8&#45;&gt;Node27</title>
<path fill="none" stroke="midnightblue" d="M819.8,-275.41C833.95,-267.06 851.83,-255.75 866.5,-244 889.17,-225.85 912.46,-200.65 924.03,-187.6"/>
<polygon fill="midnightblue" stroke="midnightblue" points="818.02,-272.4 811.12,-280.44 821.53,-278.46 818.02,-272.4"/>
</g>
<!-- Node28 -->
<g id="node28" class="node">
<title>Node28</title>
<g id="a_node28"><a xlink:href="actuator__utils_8cpp.html" target="_top" xlink:title=" ">
<polygon fill="white" stroke="black" points="532.5,-224.5 532.5,-243.5 636.5,-243.5 636.5,-224.5 532.5,-224.5"/>
<text text-anchor="middle" x="584.5" y="-231.5" font-family="Helvetica,sans-Serif" font-size="10.00">actuator_utils.cpp</text>
</a>
</g>
</g>
<!-- Node8&#45;&gt;Node28 -->
<g id="edge41" class="edge">
<title>Node8&#45;&gt;Node28</title>
<path fill="none" stroke="midnightblue" d="M752.36,-277.96C712.51,-267.76 654.14,-252.82 617.78,-243.52"/>
<polygon fill="midnightblue" stroke="midnightblue" points="751.51,-281.35 762.07,-280.44 753.25,-274.57 751.51,-281.35"/>
</g>
<!-- Node10 -->
<g id="node10" class="node">
<title>Node10</title>
<g id="a_node10"><a xlink:href="actuator__ops_8_h.html" target="_top" xlink:title=" ">
<polygon fill="white" stroke="black" points="593.5,-168.5 593.5,-187.5 683.5,-187.5 683.5,-168.5 593.5,-168.5"/>
<text text-anchor="middle" x="638.5" y="-175.5" font-family="Helvetica,sans-Serif" font-size="10.00">actuator_ops.H</text>
</a>
</g>
</g>
<!-- Node9&#45;&gt;Node10 -->
<g id="edge9" class="edge">
<title>Node9&#45;&gt;Node10</title>
<path fill="none" stroke="midnightblue" d="M683.46,-217.54C672.23,-207.91 658.18,-195.87 648.81,-187.83"/>
<polygon fill="midnightblue" stroke="midnightblue" points="681.51,-220.47 691.38,-224.32 686.06,-215.16 681.51,-220.47"/>
</g>
<!-- Node10&#45;&gt;Node11 -->
<g id="edge10" class="edge">
<title>Node10&#45;&gt;Node11</title>
<path fill="none" stroke="midnightblue" d="M676.83,-165.44C710.58,-155.26 758.95,-140.66 789.27,-131.52"/>
<polygon fill="midnightblue" stroke="midnightblue" points="675.43,-162.2 666.86,-168.44 677.45,-168.91 675.43,-162.2"/>
</g>
<!-- Node12 -->
<g id="node12" class="node">
<title>Node12</title>
<g id="a_node12"><a xlink:href="_actuator_model_8_h.html" target="_top" xlink:title=" ">
<polygon fill="white" stroke="black" points="703.5,-56.5 703.5,-75.5 801.5,-75.5 801.5,-56.5 703.5,-56.5"/>
<text text-anchor="middle" x="752.5" y="-63.5" font-family="Helvetica,sans-Serif" font-size="10.00">ActuatorModel.H</text>
</a>
</g>
</g>
<!-- Node10&#45;&gt;Node12 -->
<g id="edge17" class="edge">
<title>Node10&#45;&gt;Node12</title>
<path fill="none" stroke="midnightblue" d="M622.64,-160.64C611.21,-146.82 599.56,-126.94 610.5,-112 622.03,-96.25 669.37,-83.42 706.25,-75.55"/>
<polygon fill="midnightblue" stroke="midnightblue" points="620.26,-163.23 629.52,-168.37 625.48,-158.58 620.26,-163.23"/>
</g>
<!-- Node10&#45;&gt;Node18 -->
<g id="edge18" class="edge">
<title>Node10&#45;&gt;Node18</title>
<path fill="none" stroke="midnightblue" d="M653.23,-160.43C661.64,-150.97 671.85,-139.48 678.72,-131.75"/>
<polygon fill="midnightblue" stroke="midnightblue" points="650.45,-158.28 646.43,-168.08 655.69,-162.93 650.45,-158.28"/>
</g>
<!-- Node10&#45;&gt;Node19 -->
<g id="edge20" class="edge">
<title>Node10&#45;&gt;Node19</title>
<path fill="none" stroke="midnightblue" d="M693.69,-166.72C748.41,-156.53 831.3,-141.1 882.55,-131.56"/>
<polygon fill="midnightblue" stroke="midnightblue" points="693,-163.29 683.81,-168.56 694.28,-170.17 693,-163.29"/>
</g>
<!-- Node10&#45;&gt;Node20 -->
<g id="edge22" class="edge">
<title>Node10&#45;&gt;Node20</title>
<path fill="none" stroke="midnightblue" d="M693.71,-170.16C762.04,-161.61 881.93,-146.36 984.5,-132 987.42,-131.59 990.42,-131.16 993.45,-130.73"/>
<polygon fill="midnightblue" stroke="midnightblue" points="693.09,-166.71 683.6,-171.42 693.96,-173.65 693.09,-166.71"/>
</g>
<!-- Node10&#45;&gt;Node22 -->
<g id="edge25" class="edge">
<title>Node10&#45;&gt;Node22</title>
<path fill="none" stroke="midnightblue" d="M583.29,-166.96C527.24,-156.77 441.4,-141.16 388.51,-131.55"/>
<polygon fill="midnightblue" stroke="midnightblue" points="582.93,-170.45 593.39,-168.8 584.18,-163.57 582.93,-170.45"/>
</g>
<!-- Node23 -->
<g id="node23" class="node">
<title>Node23</title>
<g id="a_node23"><a xlink:href="fixed__wing__ops_8_h.html" target="_top" xlink:title=" ">
<polygon fill="white" stroke="black" points="370,-56.5 370,-75.5 471,-75.5 471,-56.5 370,-56.5"/>
<text text-anchor="middle" x="420.5" y="-63.5" font-family="Helvetica,sans-Serif" font-size="10.00">fixed_wing_ops.H</text>
</a>
</g>
</g>
<!-- Node10&#45;&gt;Node23 -->
<g id="edge27" class="edge">
<title>Node10&#45;&gt;Node23</title>
<path fill="none" stroke="midnightblue" d="M582.97,-170.35C532.51,-163.24 462.91,-150.45 442.5,-132 426.06,-117.14 421.9,-89.56 420.85,-75.59"/>
<polygon fill="midnightblue" stroke="midnightblue" points="582.72,-173.85 593.11,-171.74 583.67,-166.91 582.72,-173.85"/>
</g>
<!-- Node24 -->
<g id="node24" class="node">
<title>Node24</title>
<g id="a_node24"><a xlink:href="wing__ops_8_h.html" target="_top" xlink:title=" ">
<polygon fill="white" stroke="black" points="452,-112.5 452,-131.5 525,-131.5 525,-112.5 452,-112.5"/>
<text text-anchor="middle" x="488.5" y="-119.5" font-family="Helvetica,sans-Serif" font-size="10.00">wing_ops.H</text>
</a>
</g>
</g>
<!-- Node10&#45;&gt;Node24 -->
<g id="edge29" class="edge">
<title>Node10&#45;&gt;Node24</title>
<path fill="none" stroke="midnightblue" d="M605.28,-165.04C577.05,-154.88 537.24,-140.55 512.16,-131.52"/>
<polygon fill="midnightblue" stroke="midnightblue" points="604.14,-168.35 614.73,-168.44 606.51,-161.76 604.14,-168.35"/>
</g>
<!-- Node25 -->
<g id="node25" class="node">
<title>Node25</title>
<g id="a_node25"><a xlink:href="flat__plate__ops_8_h.html" target="_top" xlink:title=" ">
<polygon fill="white" stroke="black" points="590,-56.5 590,-75.5 685,-75.5 685,-56.5 590,-56.5"/>
<text text-anchor="middle" x="637.5" y="-63.5" font-family="Helvetica,sans-Serif" font-size="10.00">flat_plate_ops.H</text>
</a>
</g>
</g>
<!-- Node10&#45;&gt;Node25 -->
<g id="edge34" class="edge">
<title>Node10&#45;&gt;Node25</title>
<path fill="none" stroke="midnightblue" d="M609.5,-163.33C597.27,-155.92 584.31,-145.48 577.5,-132 565.52,-108.28 597.14,-86.94 618.89,-75.59"/>
<polygon fill="midnightblue" stroke="midnightblue" points="608.16,-166.59 618.59,-168.41 611.57,-160.48 608.16,-166.59"/>
</g>
<!-- Node11&#45;&gt;Node12 -->
<g id="edge11" class="edge">
<title>Node11&#45;&gt;Node12</title>
<path fill="none" stroke="midnightblue" d="M799.23,-105.82C787.58,-96.15 772.9,-83.95 763.13,-75.83"/>
<polygon fill="midnightblue" stroke="midnightblue" points="797.13,-108.63 807.06,-112.32 801.6,-103.24 797.13,-108.63"/>
</g>
<!-- Node13 -->
<g id="node13" class="node">
<title>Node13</title>
<g id="a_node13"><a xlink:href="_actuator_8cpp.html" target="_top" xlink:title=" ">
<polygon fill="white" stroke="black" points="714,-0.5 714,-19.5 791,-19.5 791,-0.5 714,-0.5"/>
<text text-anchor="middle" x="752.5" y="-7.5" font-family="Helvetica,sans-Serif" font-size="10.00">Actuator.cpp</text>
</a>
</g>
</g>
<!-- Node12&#45;&gt;Node13 -->
<g id="edge12" class="edge">
<title>Node12&#45;&gt;Node13</title>
<path fill="none" stroke="midnightblue" d="M752.5,-45.8C752.5,-36.91 752.5,-26.78 752.5,-19.75"/>
<polygon fill="midnightblue" stroke="midnightblue" points="749,-46.08 752.5,-56.08 756,-46.08 749,-46.08"/>
</g>
<!-- Node14 -->
<g id="node14" class="node">
<title>Node14</title>
<g id="a_node14"><a xlink:href="_actuator_disk_8cpp.html" target="_top" xlink:title=" ">
<polygon fill="white" stroke="black" points="907.5,-0.5 907.5,-19.5 1007.5,-19.5 1007.5,-0.5 907.5,-0.5"/>
<text text-anchor="middle" x="957.5" y="-7.5" font-family="Helvetica,sans-Serif" font-size="10.00">ActuatorDisk.cpp</text>
</a>
</g>
</g>
<!-- Node12&#45;&gt;Node14 -->
<g id="edge13" class="edge">
<title>Node12&#45;&gt;Node14</title>
<path fill="none" stroke="midnightblue" d="M794.91,-53.83C833.61,-43.63 889.99,-28.78 925.17,-19.52"/>
<polygon fill="midnightblue" stroke="midnightblue" points="793.76,-50.51 784.98,-56.44 795.54,-57.28 793.76,-50.51"/>
</g>
<!-- Node15 -->
<g id="node15" class="node">
<title>Node15</title>
<g id="a_node15"><a xlink:href="_turbine_fast_8cpp.html" target="_top" xlink:title=" ">
<polygon fill="white" stroke="black" points="326.5,-0.5 326.5,-19.5 418.5,-19.5 418.5,-0.5 326.5,-0.5"/>
<text text-anchor="middle" x="372.5" y="-7.5" font-family="Helvetica,sans-Serif" font-size="10.00">TurbineFast.cpp</text>
</a>
</g>
</g>
<!-- Node12&#45;&gt;Node15 -->
<g id="edge14" class="edge">
<title>Node12&#45;&gt;Node15</title>
<path fill="none" stroke="midnightblue" d="M693.14,-55.96C588.52,-40.69 478.91,-25.54 418.51,-17.27"/>
<polygon fill="midnightblue" stroke="midnightblue" points="692.85,-59.46 703.25,-57.44 693.86,-52.53 692.85,-59.46"/>
</g>
<!-- Node16 -->
<g id="node16" class="node">
<title>Node16</title>
<g id="a_node16"><a xlink:href="_fixed_wing_8cpp.html" target="_top" xlink:title=" ">
<polygon fill="white" stroke="black" points="480,-0.5 480,-19.5 567,-19.5 567,-0.5 480,-0.5"/>
<text text-anchor="middle" x="523.5" y="-7.5" font-family="Helvetica,sans-Serif" font-size="10.00">FixedWing.cpp</text>
</a>
</g>
</g>
<!-- Node12&#45;&gt;Node16 -->
<g id="edge15" class="edge">
<title>Node12&#45;&gt;Node16</title>
<path fill="none" stroke="midnightblue" d="M706.23,-54.09C662.96,-43.89 599.24,-28.86 559.62,-19.52"/>
<polygon fill="midnightblue" stroke="midnightblue" points="705.68,-57.55 716.21,-56.44 707.28,-50.74 705.68,-57.55"/>
</g>
<!-- Node17 -->
<g id="node17" class="node">
<title>Node17</title>
<g id="a_node17"><a xlink:href="_flat_plate_8cpp.html" target="_top" xlink:title=" ">
<polygon fill="white" stroke="black" points="606.5,-0.5 606.5,-19.5 686.5,-19.5 686.5,-0.5 606.5,-0.5"/>
<text text-anchor="middle" x="646.5" y="-7.5" font-family="Helvetica,sans-Serif" font-size="10.00">FlatPlate.cpp</text>
</a>
</g>
</g>
<!-- Node12&#45;&gt;Node17 -->
<g id="edge16" class="edge">
<title>Node12&#45;&gt;Node17</title>
<path fill="none" stroke="midnightblue" d="M726.44,-51.73C706.82,-41.73 680.47,-28.31 663.49,-19.65"/>
<polygon fill="midnightblue" stroke="midnightblue" points="724.97,-54.9 735.47,-56.32 728.15,-48.67 724.97,-54.9"/>
</g>
<!-- Node18&#45;&gt;Node12 -->
<g id="edge19" class="edge">
<title>Node18&#45;&gt;Node12</title>
<path fill="none" stroke="midnightblue" d="M705.05,-105.82C716.88,-96.15 731.79,-83.95 741.7,-75.83"/>
<polygon fill="midnightblue" stroke="midnightblue" points="702.63,-103.28 697.1,-112.32 707.06,-108.7 702.63,-103.28"/>
</g>
<!-- Node19&#45;&gt;Node12 -->
<g id="edge21" class="edge">
<title>Node19&#45;&gt;Node12</title>
<path fill="none" stroke="midnightblue" d="M890.81,-109.44C857.63,-99.26 810.07,-84.66 780.26,-75.52"/>
<polygon fill="midnightblue" stroke="midnightblue" points="890.03,-112.86 900.61,-112.44 892.08,-106.16 890.03,-112.86"/>
</g>
<!-- Node20&#45;&gt;Node14 -->
<g id="edge23" class="edge">
<title>Node20&#45;&gt;Node14</title>
<path fill="none" stroke="midnightblue" d="M1015.38,-107.71C1001.8,-100.17 986.47,-89.52 976.5,-76 963.8,-58.78 959.56,-33.19 958.16,-19.84"/>
<polygon fill="midnightblue" stroke="midnightblue" points="1013.93,-110.9 1024.42,-112.43 1017.17,-104.7 1013.93,-110.9"/>
</g>
<!-- Node21 -->
<g id="node21" class="node">
<title>Node21</title>
<g id="a_node21"><a xlink:href="uniform__ct__ops_8cpp.html" target="_top" xlink:title=" ">
<polygon fill="white" stroke="black" points="985.5,-56.5 985.5,-75.5 1097.5,-75.5 1097.5,-56.5 985.5,-56.5"/>
<text text-anchor="middle" x="1041.5" y="-63.5" font-family="Helvetica,sans-Serif" font-size="10.00">uniform_ct_ops.cpp</text>
</a>
</g>
</g>
<!-- Node20&#45;&gt;Node21 -->
<g id="edge24" class="edge">
<title>Node20&#45;&gt;Node21</title>
<path fill="none" stroke="midnightblue" d="M1043.43,-101.8C1042.94,-92.91 1042.38,-82.78 1041.99,-75.75"/>
<polygon fill="midnightblue" stroke="midnightblue" points="1039.96,-102.29 1044,-112.08 1046.94,-101.9 1039.96,-102.29"/>
</g>
<!-- Node22&#45;&gt;Node15 -->
<g id="edge26" class="edge">
<title>Node22&#45;&gt;Node15</title>
<path fill="none" stroke="midnightblue" d="M346.66,-102.67C353.44,-78.62 365.06,-37.39 370.08,-19.59"/>
<polygon fill="midnightblue" stroke="midnightblue" points="343.28,-101.79 343.93,-112.37 350.01,-103.69 343.28,-101.79"/>
</g>
<!-- Node23&#45;&gt;Node16 -->
<g id="edge28" class="edge">
<title>Node23&#45;&gt;Node16</title>
<path fill="none" stroke="midnightblue" d="M446.08,-51.59C465.12,-41.61 490.56,-28.27 506.99,-19.65"/>
<polygon fill="midnightblue" stroke="midnightblue" points="444.28,-48.58 437.05,-56.32 447.53,-54.78 444.28,-48.58"/>
</g>
<!-- Node24&#45;&gt;Node23 -->
<g id="edge30" class="edge">
<title>Node24&#45;&gt;Node23</title>
<path fill="none" stroke="midnightblue" d="M469.74,-106.1C457.5,-96.38 441.94,-84.03 431.62,-75.83"/>
<polygon fill="midnightblue" stroke="midnightblue" points="467.57,-108.85 477.57,-112.32 471.92,-103.36 467.57,-108.85"/>
</g>
<!-- Node24&#45;&gt;Node25 -->
<g id="edge31" class="edge">
<title>Node24&#45;&gt;Node25</title>
<path fill="none" stroke="midnightblue" d="M521.87,-108.91C549.88,-98.75 589.2,-84.51 614,-75.52"/>
<polygon fill="midnightblue" stroke="midnightblue" points="520.32,-105.75 512.11,-112.44 522.7,-112.33 520.32,-105.75"/>
</g>
<!-- Node26 -->
<g id="node26" class="node">
<title>Node26</title>
<g id="a_node26"><a xlink:href="wing__ops_8cpp.html" target="_top" xlink:title=" ">
<polygon fill="white" stroke="black" points="489,-56.5 489,-75.5 572,-75.5 572,-56.5 489,-56.5"/>
<text text-anchor="middle" x="530.5" y="-63.5" font-family="Helvetica,sans-Serif" font-size="10.00">wing_ops.cpp</text>
</a>
</g>
</g>
<!-- Node24&#45;&gt;Node26 -->
<g id="edge33" class="edge">
<title>Node24&#45;&gt;Node26</title>
<path fill="none" stroke="midnightblue" d="M501.61,-104.14C508.93,-94.74 517.74,-83.4 523.69,-75.75"/>
<polygon fill="midnightblue" stroke="midnightblue" points="498.81,-102.04 495.44,-112.08 504.34,-106.34 498.81,-102.04"/>
</g>
<!-- Node25&#45;&gt;Node17 -->
<g id="edge32" class="edge">
<title>Node25&#45;&gt;Node17</title>
<path fill="none" stroke="midnightblue" d="M640.65,-46.1C642.14,-37.14 643.86,-26.86 645.04,-19.75"/>
<polygon fill="midnightblue" stroke="midnightblue" points="637.18,-45.64 638.99,-56.08 644.08,-46.79 637.18,-45.64"/>
</g>
<!-- Node27&#45;&gt;Node14 -->
<g id="edge40" class="edge">
<title>Node27&#45;&gt;Node14</title>
<path fill="none" stroke="midnightblue" d="M992.34,-168.95C1036.31,-161.77 1090.36,-149.63 1104.5,-132 1125.64,-105.64 1126.64,-83.13 1106.5,-56 1083.95,-25.63 1041.5,-15.02 1007.66,-11.64"/>
<polygon fill="midnightblue" stroke="midnightblue" points="991.6,-165.53 982.27,-170.54 992.69,-172.44 991.6,-165.53"/>
</g>
<!-- Node27&#45;&gt;Node19 -->
<g id="edge39" class="edge">
<title>Node27&#45;&gt;Node19</title>
<path fill="none" stroke="midnightblue" d="M930.43,-157.8C929.94,-148.91 929.38,-138.78 928.99,-131.75"/>
<polygon fill="midnightblue" stroke="midnightblue" points="926.96,-158.29 931,-168.08 933.94,-157.9 926.96,-158.29"/>
</g>
</g>
</svg>
