<?xml version="1.0" encoding="UTF-8" standalone="no"?>
<!DOCTYPE svg PUBLIC "-//W3C//DTD SVG 1.1//EN"
 "http://www.w3.org/Graphics/SVG/1.1/DTD/svg11.dtd">
<!-- Generated by graphviz version 2.43.0 (0)
 -->
<!-- Title: trig_ops.H Pages: 1 -->
<svg width="3010pt" height="476pt"
 viewBox="0.00 0.00 3010.34 476.00" xmlns="http://www.w3.org/2000/svg" xmlns:xlink="http://www.w3.org/1999/xlink">
<g id="graph0" class="graph" transform="scale(1 1) rotate(0) translate(4 472)">
<title>trig_ops.H</title>
<polygon fill="white" stroke="transparent" points="-4,4 -4,-472 3006.34,-472 3006.34,4 -4,4"/>
<!-- Node1 -->
<g id="node1" class="node">
<title>Node1</title>
<g id="a_node1"><a xlink:title=" ">
<polygon fill="#bfbfbf" stroke="black" points="2056.34,-448.5 2056.34,-467.5 2122.34,-467.5 2122.34,-448.5 2056.34,-448.5"/>
<text text-anchor="middle" x="2089.34" y="-455.5" font-family="Helvetica,sans-Serif" font-size="10.00">trig_ops.H</text>
</a>
</g>
</g>
<!-- Node2 -->
<g id="node2" class="node">
<title>Node2</title>
<g id="a_node2"><a xlink:href="tensor_i_8_h.html" target="_top" xlink:title=" ">
<polygon fill="white" stroke="black" points="672.84,-392.5 672.84,-411.5 733.84,-411.5 733.84,-392.5 672.84,-392.5"/>
<text text-anchor="middle" x="703.34" y="-399.5" font-family="Helvetica,sans-Serif" font-size="10.00">tensorI.H</text>
</a>
</g>
</g>
<!-- Node1&#45;&gt;Node2 -->
<g id="edge1" class="edge">
<title>Node1&#45;&gt;Node2</title>
<path fill="none" stroke="midnightblue" d="M2046.01,-455.31C1834.63,-447.08 914.45,-411.23 734.08,-404.2"/>
<polygon fill="midnightblue" stroke="midnightblue" points="2045.97,-458.81 2056.1,-455.71 2046.25,-451.82 2045.97,-458.81"/>
</g>
<!-- Node43 -->
<g id="node9" class="node">
<title>Node43</title>
<g id="a_node9"><a xlink:href="_synthetic_turbulence_8cpp.html" target="_top" xlink:title=" ">
<polygon fill="white" stroke="black" points="858.84,-168.5 858.84,-187.5 993.84,-187.5 993.84,-168.5 858.84,-168.5"/>
<text text-anchor="middle" x="926.34" y="-175.5" font-family="Helvetica,sans-Serif" font-size="10.00">SyntheticTurbulence.cpp</text>
</a>
</g>
</g>
<!-- Node1&#45;&gt;Node43 -->
<g id="edge59" class="edge">
<title>Node1&#45;&gt;Node43</title>
<path fill="none" stroke="midnightblue" d="M2046,-457.17C1845.7,-457.41 1019.34,-452.03 1019.34,-347 1019.34,-347 1019.34,-347 1019.34,-289 1019.34,-258.5 1016.18,-247.98 997.34,-224 984.17,-207.25 962.93,-194.97 947.1,-187.51"/>
<polygon fill="midnightblue" stroke="midnightblue" points="2046.15,-460.67 2056.14,-457.15 2046.13,-453.67 2046.15,-460.67"/>
</g>
<!-- Node64 -->
<g id="node26" class="node">
<title>Node64</title>
<g id="a_node26"><a xlink:href="_m_o_data_8_h.html" target="_top" xlink:title=" ">
<polygon fill="white" stroke="black" points="1605.84,-392.5 1605.84,-411.5 1672.84,-411.5 1672.84,-392.5 1605.84,-392.5"/>
<text text-anchor="middle" x="1639.34" y="-399.5" font-family="Helvetica,sans-Serif" font-size="10.00">MOData.H</text>
</a>
</g>
</g>
<!-- Node1&#45;&gt;Node64 -->
<g id="edge35" class="edge">
<title>Node1&#45;&gt;Node64</title>
<path fill="none" stroke="midnightblue" d="M2046.2,-451.82C1956.94,-441.11 1753.62,-416.71 1673.09,-407.05"/>
<polygon fill="midnightblue" stroke="midnightblue" points="2045.9,-455.31 2056.25,-453.03 2046.73,-448.36 2045.9,-455.31"/>
</g>
<!-- Node73 -->
<g id="node32" class="node">
<title>Node73</title>
<g id="a_node32"><a xlink:href="_a_b_l_wall_function_8cpp.html" target="_top" xlink:title=" ">
<polygon fill="white" stroke="black" points="1742.84,-168.5 1742.84,-187.5 1859.84,-187.5 1859.84,-168.5 1742.84,-168.5"/>
<text text-anchor="middle" x="1801.34" y="-175.5" font-family="Helvetica,sans-Serif" font-size="10.00">ABLWallFunction.cpp</text>
</a>
</g>
</g>
<!-- Node1&#45;&gt;Node73 -->
<g id="edge62" class="edge">
<title>Node1&#45;&gt;Node73</title>
<path fill="none" stroke="midnightblue" d="M2045.82,-457.32C1969.18,-456.85 1815.01,-450.95 1781.34,-412 1766.4,-394.72 1793.17,-227.83 1799.87,-187.66"/>
<polygon fill="midnightblue" stroke="midnightblue" points="2046.09,-460.82 2056.1,-457.35 2046.11,-453.82 2046.09,-460.82"/>
</g>
<!-- Node80 -->
<g id="node38" class="node">
<title>Node80</title>
<g id="a_node38"><a xlink:href="_body_force_8cpp.html" target="_top" xlink:title=" ">
<polygon fill="white" stroke="black" points="1790.34,-392.5 1790.34,-411.5 1878.34,-411.5 1878.34,-392.5 1790.34,-392.5"/>
<text text-anchor="middle" x="1834.34" y="-399.5" font-family="Helvetica,sans-Serif" font-size="10.00">BodyForce.cpp</text>
</a>
</g>
</g>
<!-- Node1&#45;&gt;Node80 -->
<g id="edge51" class="edge">
<title>Node1&#45;&gt;Node80</title>
<path fill="none" stroke="midnightblue" d="M2046.18,-447.86C1998.18,-437.7 1921.25,-421.4 1874.49,-411.5"/>
<polygon fill="midnightblue" stroke="midnightblue" points="2045.75,-451.35 2056.26,-450 2047.2,-444.5 2045.75,-451.35"/>
</g>
<!-- Node81 -->
<g id="node39" class="node">
<title>Node81</title>
<g id="a_node39"><a xlink:href="_coriolis_forcing_8cpp.html" target="_top" xlink:title=" ">
<polygon fill="white" stroke="black" points="1896.84,-392.5 1896.84,-411.5 2005.84,-411.5 2005.84,-392.5 1896.84,-392.5"/>
<text text-anchor="middle" x="1951.34" y="-399.5" font-family="Helvetica,sans-Serif" font-size="10.00">CoriolisForcing.cpp</text>
</a>
</g>
</g>
<!-- Node1&#45;&gt;Node81 -->
<g id="edge52" class="edge">
<title>Node1&#45;&gt;Node81</title>
<path fill="none" stroke="midnightblue" d="M2058.09,-444.77C2032.16,-434.63 1995.97,-420.47 1973.1,-411.52"/>
<polygon fill="midnightblue" stroke="midnightblue" points="2056.88,-448.06 2067.47,-448.44 2059.43,-441.54 2056.88,-448.06"/>
</g>
<!-- Node82 -->
<g id="node40" class="node">
<title>Node82</title>
<g id="a_node40"><a xlink:href="_geostrophic_forcing_8cpp.html" target="_top" xlink:title=" ">
<polygon fill="white" stroke="black" points="2023.84,-392.5 2023.84,-411.5 2154.84,-411.5 2154.84,-392.5 2023.84,-392.5"/>
<text text-anchor="middle" x="2089.34" y="-399.5" font-family="Helvetica,sans-Serif" font-size="10.00">GeostrophicForcing.cpp</text>
</a>
</g>
</g>
<!-- Node1&#45;&gt;Node82 -->
<g id="edge53" class="edge">
<title>Node1&#45;&gt;Node82</title>
<path fill="none" stroke="midnightblue" d="M2089.34,-437.8C2089.34,-428.91 2089.34,-418.78 2089.34,-411.75"/>
<polygon fill="midnightblue" stroke="midnightblue" points="2085.84,-438.08 2089.34,-448.08 2092.84,-438.08 2085.84,-438.08"/>
</g>
<!-- Node83 -->
<g id="node41" class="node">
<title>Node83</title>
<g id="a_node41"><a xlink:href="_channel_flow_8cpp.html" target="_top" xlink:title=" ">
<polygon fill="white" stroke="black" points="2172.84,-392.5 2172.84,-411.5 2271.84,-411.5 2271.84,-392.5 2172.84,-392.5"/>
<text text-anchor="middle" x="2222.34" y="-399.5" font-family="Helvetica,sans-Serif" font-size="10.00">ChannelFlow.cpp</text>
</a>
</g>
</g>
<!-- Node1&#45;&gt;Node83 -->
<g id="edge54" class="edge">
<title>Node1&#45;&gt;Node83</title>
<path fill="none" stroke="midnightblue" d="M2119.78,-444.64C2144.74,-434.5 2179.41,-420.43 2201.36,-411.52"/>
<polygon fill="midnightblue" stroke="midnightblue" points="2118.36,-441.44 2110.41,-448.44 2120.99,-447.92 2118.36,-441.44"/>
</g>
<!-- Node84 -->
<g id="node42" class="node">
<title>Node84</title>
<g id="a_node42"><a xlink:href="_convecting_taylor_vortex_8cpp.html" target="_top" xlink:title=" ">
<polygon fill="white" stroke="black" points="2290.34,-392.5 2290.34,-411.5 2442.34,-411.5 2442.34,-392.5 2290.34,-392.5"/>
<text text-anchor="middle" x="2366.34" y="-399.5" font-family="Helvetica,sans-Serif" font-size="10.00">ConvectingTaylorVortex.cpp</text>
</a>
</g>
</g>
<!-- Node1&#45;&gt;Node84 -->
<g id="edge55" class="edge">
<title>Node1&#45;&gt;Node84</title>
<path fill="none" stroke="midnightblue" d="M2132.35,-448.62C2184.13,-438.52 2270.62,-421.66 2322.69,-411.51"/>
<polygon fill="midnightblue" stroke="midnightblue" points="2131.62,-445.19 2122.47,-450.54 2132.96,-452.06 2131.62,-445.19"/>
</g>
<!-- Node85 -->
<g id="node43" class="node">
<title>Node85</title>
<g id="a_node43"><a xlink:href="_ekman_spiral_8cpp.html" target="_top" xlink:title=" ">
<polygon fill="white" stroke="black" points="2460.34,-392.5 2460.34,-411.5 2558.34,-411.5 2558.34,-392.5 2460.34,-392.5"/>
<text text-anchor="middle" x="2509.34" y="-399.5" font-family="Helvetica,sans-Serif" font-size="10.00">EkmanSpiral.cpp</text>
</a>
</g>
</g>
<!-- Node1&#45;&gt;Node85 -->
<g id="edge56" class="edge">
<title>Node1&#45;&gt;Node85</title>
<path fill="none" stroke="midnightblue" d="M2133.16,-451.99C2201.3,-444.09 2336.73,-428.01 2451.34,-412 2454.26,-411.59 2457.27,-411.16 2460.3,-410.72"/>
<polygon fill="midnightblue" stroke="midnightblue" points="2132.35,-448.56 2122.82,-453.18 2133.15,-455.51 2132.35,-448.56"/>
</g>
<!-- Node86 -->
<g id="node44" class="node">
<title>Node86</title>
<g id="a_node44"><a xlink:href="_free_stream_8cpp.html" target="_top" xlink:title=" ">
<polygon fill="white" stroke="black" points="2576.84,-392.5 2576.84,-411.5 2669.84,-411.5 2669.84,-392.5 2576.84,-392.5"/>
<text text-anchor="middle" x="2623.34" y="-399.5" font-family="Helvetica,sans-Serif" font-size="10.00">FreeStream.cpp</text>
</a>
</g>
</g>
<!-- Node1&#45;&gt;Node86 -->
<g id="edge57" class="edge">
<title>Node1&#45;&gt;Node86</title>
<path fill="none" stroke="midnightblue" d="M2132.63,-453.88C2216.64,-447.61 2407.56,-432.34 2567.34,-412 2570.36,-411.61 2573.48,-411.19 2576.62,-410.74"/>
<polygon fill="midnightblue" stroke="midnightblue" points="2132.16,-450.4 2122.45,-454.63 2132.68,-457.38 2132.16,-450.4"/>
</g>
<!-- Node87 -->
<g id="node45" class="node">
<title>Node87</title>
<g id="a_node45"><a xlink:href="_n_w_b_8cpp.html" target="_top" xlink:title=" ">
<polygon fill="white" stroke="black" points="2687.84,-392.5 2687.84,-411.5 2748.84,-411.5 2748.84,-392.5 2687.84,-392.5"/>
<text text-anchor="middle" x="2718.34" y="-399.5" font-family="Helvetica,sans-Serif" font-size="10.00">NWB.cpp</text>
</a>
</g>
</g>
<!-- Node1&#45;&gt;Node87 -->
<g id="edge58" class="edge">
<title>Node1&#45;&gt;Node87</title>
<path fill="none" stroke="midnightblue" d="M2132.58,-455.93C2230.46,-453.02 2476.27,-442.99 2679.34,-412 2682.08,-411.58 2684.92,-411.07 2687.76,-410.51"/>
<polygon fill="midnightblue" stroke="midnightblue" points="2132.37,-452.44 2122.48,-456.22 2132.57,-459.43 2132.37,-452.44"/>
</g>
<!-- Node88 -->
<g id="node46" class="node">
<title>Node88</title>
<g id="a_node46"><a xlink:href="_taylor_green_vortex_8cpp.html" target="_top" xlink:title=" ">
<polygon fill="white" stroke="black" points="2766.84,-392.5 2766.84,-411.5 2893.84,-411.5 2893.84,-392.5 2766.84,-392.5"/>
<text text-anchor="middle" x="2830.34" y="-399.5" font-family="Helvetica,sans-Serif" font-size="10.00">TaylorGreenVortex.cpp</text>
</a>
</g>
</g>
<!-- Node1&#45;&gt;Node88 -->
<g id="edge60" class="edge">
<title>Node1&#45;&gt;Node88</title>
<path fill="none" stroke="midnightblue" d="M2132.49,-454.95C2238.95,-449.72 2522.56,-434.65 2758.34,-412 2761.09,-411.74 2763.91,-411.45 2766.75,-411.15"/>
<polygon fill="midnightblue" stroke="midnightblue" points="2132.27,-451.46 2122.46,-455.44 2132.61,-458.45 2132.27,-451.46"/>
</g>
<!-- Node89 -->
<g id="node47" class="node">
<title>Node89</title>
<g id="a_node47"><a xlink:href="_vortex_ring_8cpp.html" target="_top" xlink:title=" ">
<polygon fill="white" stroke="black" points="2912.34,-392.5 2912.34,-411.5 3002.34,-411.5 3002.34,-392.5 2912.34,-392.5"/>
<text text-anchor="middle" x="2957.34" y="-399.5" font-family="Helvetica,sans-Serif" font-size="10.00">VortexRing.cpp</text>
</a>
</g>
</g>
<!-- Node1&#45;&gt;Node89 -->
<g id="edge61" class="edge">
<title>Node1&#45;&gt;Node89</title>
<path fill="none" stroke="midnightblue" d="M2132.42,-456.28C2253.96,-453.91 2609.79,-444.48 2903.34,-412 2906.26,-411.68 2909.28,-411.3 2912.31,-410.89"/>
<polygon fill="midnightblue" stroke="midnightblue" points="2132.33,-452.79 2122.4,-456.47 2132.46,-459.78 2132.33,-452.79"/>
</g>
<!-- Node90 -->
<g id="node48" class="node">
<title>Node90</title>
<g id="a_node48"><a xlink:href="actuator__utils_8_h.html" target="_top" xlink:title=" ">
<polygon fill="white" stroke="black" points="1169.34,-280.5 1169.34,-299.5 1263.34,-299.5 1263.34,-280.5 1169.34,-280.5"/>
<text text-anchor="middle" x="1216.34" y="-287.5" font-family="Helvetica,sans-Serif" font-size="10.00">actuator_utils.H</text>
</a>
</g>
</g>
<!-- Node1&#45;&gt;Node90 -->
<g id="edge63" class="edge">
<title>Node1&#45;&gt;Node90</title>
<path fill="none" stroke="midnightblue" d="M2045.96,-456.17C1959.69,-453.84 1760.77,-445.02 1597.34,-412 1456.86,-383.62 1295.11,-322.29 1237.81,-299.64"/>
<polygon fill="midnightblue" stroke="midnightblue" points="2046.07,-459.68 2056.16,-456.43 2046.25,-452.68 2046.07,-459.68"/>
</g>
<!-- Node3 -->
<g id="node3" class="node">
<title>Node3</title>
<g id="a_node3"><a xlink:href="tensor_8_h.html" target="_top" xlink:title=" ">
<polygon fill="white" stroke="black" points="674.84,-336.5 674.84,-355.5 731.84,-355.5 731.84,-336.5 674.84,-336.5"/>
<text text-anchor="middle" x="703.34" y="-343.5" font-family="Helvetica,sans-Serif" font-size="10.00">tensor.H</text>
</a>
</g>
</g>
<!-- Node2&#45;&gt;Node3 -->
<g id="edge2" class="edge">
<title>Node2&#45;&gt;Node3</title>
<path fill="none" stroke="midnightblue" d="M696.86,-382.1C696.23,-373.14 696.68,-362.86 698.2,-355.75"/>
<polygon fill="midnightblue" stroke="midnightblue" points="693.4,-382.62 698.17,-392.08 700.34,-381.71 693.4,-382.62"/>
</g>
<!-- Node3&#45;&gt;Node2 -->
<g id="edge34" class="edge">
<title>Node3&#45;&gt;Node2</title>
<path fill="none" stroke="midnightblue" d="M709.79,-365.69C710.44,-374.64 710.01,-384.93 708.5,-392.08"/>
<polygon fill="midnightblue" stroke="midnightblue" points="713.26,-365.2 708.47,-355.75 706.32,-366.13 713.26,-365.2"/>
</g>
<!-- Node4 -->
<g id="node4" class="node">
<title>Node4</title>
<g id="a_node4"><a xlink:href="vector__space_8_h.html" target="_top" xlink:title=" ">
<polygon fill="white" stroke="black" points="438.34,-280.5 438.34,-299.5 530.34,-299.5 530.34,-280.5 438.34,-280.5"/>
<text text-anchor="middle" x="484.34" y="-287.5" font-family="Helvetica,sans-Serif" font-size="10.00">vector_space.H</text>
</a>
</g>
</g>
<!-- Node3&#45;&gt;Node4 -->
<g id="edge3" class="edge">
<title>Node3&#45;&gt;Node4</title>
<path fill="none" stroke="midnightblue" d="M664.76,-335.49C623.55,-325.33 558.81,-309.36 519.12,-299.58"/>
<polygon fill="midnightblue" stroke="midnightblue" points="664.16,-338.94 674.71,-337.94 665.83,-332.15 664.16,-338.94"/>
</g>
<!-- Node5 -->
<g id="node5" class="node">
<title>Node5</title>
<g id="a_node5"><a xlink:href="_multi_parser_8_h.html" target="_top" xlink:title=" ">
<polygon fill="white" stroke="red" points="158.84,-224.5 158.84,-243.5 239.84,-243.5 239.84,-224.5 158.84,-224.5"/>
<text text-anchor="middle" x="199.34" y="-231.5" font-family="Helvetica,sans-Serif" font-size="10.00">MultiParser.H</text>
</a>
</g>
</g>
<!-- Node4&#45;&gt;Node5 -->
<g id="edge4" class="edge">
<title>Node4&#45;&gt;Node5</title>
<path fill="none" stroke="midnightblue" d="M429.18,-278.55C373.8,-268.06 289.77,-252.13 240.13,-242.73"/>
<polygon fill="midnightblue" stroke="midnightblue" points="428.7,-282.02 439.18,-280.44 430,-275.14 428.7,-282.02"/>
</g>
<!-- Node36 -->
<g id="node6" class="node">
<title>Node36</title>
<g id="a_node6"><a xlink:href="_i_b_types_8_h.html" target="_top" xlink:title=" ">
<polygon fill="white" stroke="red" points="405.84,-224.5 405.84,-243.5 470.84,-243.5 470.84,-224.5 405.84,-224.5"/>
<text text-anchor="middle" x="438.34" y="-231.5" font-family="Helvetica,sans-Serif" font-size="10.00">IBTypes.H</text>
</a>
</g>
</g>
<!-- Node4&#45;&gt;Node36 -->
<g id="edge5" class="edge">
<title>Node4&#45;&gt;Node36</title>
<path fill="none" stroke="midnightblue" d="M470.22,-272.43C462.16,-262.97 452.38,-251.48 445.79,-243.75"/>
<polygon fill="midnightblue" stroke="midnightblue" points="467.59,-274.74 476.74,-280.08 472.92,-270.2 467.59,-274.74"/>
</g>
<!-- Node37 -->
<g id="node7" class="node">
<title>Node37</title>
<g id="a_node7"><a xlink:href="_bluff_body_8_h.html" target="_top" xlink:title=" ">
<polygon fill="white" stroke="red" points="415.84,-168.5 415.84,-187.5 488.84,-187.5 488.84,-168.5 415.84,-168.5"/>
<text text-anchor="middle" x="452.34" y="-175.5" font-family="Helvetica,sans-Serif" font-size="10.00">BluffBody.H</text>
</a>
</g>
</g>
<!-- Node4&#45;&gt;Node37 -->
<g id="edge7" class="edge">
<title>Node4&#45;&gt;Node37</title>
<path fill="none" stroke="midnightblue" d="M540.46,-289.37C617.6,-287.96 742.04,-277.66 697.34,-224 694,-219.99 556.44,-196.45 488.94,-185.11"/>
<polygon fill="midnightblue" stroke="midnightblue" points="540.33,-285.87 530.38,-289.51 540.43,-292.87 540.33,-285.87"/>
</g>
<!-- Node42 -->
<g id="node8" class="node">
<title>Node42</title>
<g id="a_node8"><a xlink:href="_synthetic_turbulence_8_h.html" target="_top" xlink:title=" ">
<polygon fill="white" stroke="black" points="863.84,-224.5 863.84,-243.5 988.84,-243.5 988.84,-224.5 863.84,-224.5"/>
<text text-anchor="middle" x="926.34" y="-231.5" font-family="Helvetica,sans-Serif" font-size="10.00">SyntheticTurbulence.H</text>
</a>
</g>
</g>
<!-- Node4&#45;&gt;Node42 -->
<g id="edge8" class="edge">
<title>Node4&#45;&gt;Node42</title>
<path fill="none" stroke="midnightblue" d="M540.77,-282.2C613.33,-273.43 743.24,-257.7 854.34,-244 857.34,-243.63 860.41,-243.25 863.51,-242.87"/>
<polygon fill="midnightblue" stroke="midnightblue" points="540,-278.76 530.49,-283.44 540.84,-285.71 540,-278.76"/>
</g>
<!-- Node44 -->
<g id="node10" class="node">
<title>Node44</title>
<g id="a_node10"><a xlink:href="_lidar_sampler_8_h.html" target="_top" xlink:title=" ">
<polygon fill="white" stroke="red" points="296.84,-224.5 296.84,-243.5 387.84,-243.5 387.84,-224.5 296.84,-224.5"/>
<text text-anchor="middle" x="342.34" y="-231.5" font-family="Helvetica,sans-Serif" font-size="10.00">LidarSampler.H</text>
</a>
</g>
</g>
<!-- Node4&#45;&gt;Node44 -->
<g id="edge10" class="edge">
<title>Node4&#45;&gt;Node44</title>
<path fill="none" stroke="midnightblue" d="M452.18,-276.77C425.51,-266.63 388.27,-252.47 364.73,-243.52"/>
<polygon fill="midnightblue" stroke="midnightblue" points="451.24,-280.16 461.84,-280.44 453.73,-273.62 451.24,-280.16"/>
</g>
<!-- Node46 -->
<g id="node11" class="node">
<title>Node46</title>
<g id="a_node11"><a xlink:href="_box_refiner_8_h.html" target="_top" xlink:title=" ">
<polygon fill="white" stroke="red" points="489.34,-224.5 489.34,-243.5 569.34,-243.5 569.34,-224.5 489.34,-224.5"/>
<text text-anchor="middle" x="529.34" y="-231.5" font-family="Helvetica,sans-Serif" font-size="10.00">BoxRefiner.H</text>
</a>
</g>
</g>
<!-- Node4&#45;&gt;Node46 -->
<g id="edge11" class="edge">
<title>Node4&#45;&gt;Node46</title>
<path fill="none" stroke="midnightblue" d="M498.38,-272.14C506.22,-262.74 515.67,-251.4 522.04,-243.75"/>
<polygon fill="midnightblue" stroke="midnightblue" points="495.48,-270.16 491.77,-280.08 500.86,-274.64 495.48,-270.16"/>
</g>
<!-- Node48 -->
<g id="node12" class="node">
<title>Node48</title>
<g id="a_node12"><a xlink:href="_cylinder_refiner_8_h.html" target="_top" xlink:title=" ">
<polygon fill="white" stroke="red" points="587.84,-224.5 587.84,-243.5 688.84,-243.5 688.84,-224.5 587.84,-224.5"/>
<text text-anchor="middle" x="638.34" y="-231.5" font-family="Helvetica,sans-Serif" font-size="10.00">CylinderRefiner.H</text>
</a>
</g>
</g>
<!-- Node4&#45;&gt;Node48 -->
<g id="edge12" class="edge">
<title>Node4&#45;&gt;Node48</title>
<path fill="none" stroke="midnightblue" d="M518.45,-277.04C547.42,-266.88 588.3,-252.55 614.05,-243.52"/>
<polygon fill="midnightblue" stroke="midnightblue" points="517.02,-273.83 508.74,-280.44 519.33,-280.44 517.02,-273.83"/>
</g>
<!-- Node50 -->
<g id="node13" class="node">
<title>Node50</title>
<g id="a_node13"><a xlink:href="actuator__types_8_h.html" target="_top" xlink:title=" ">
<polygon fill="white" stroke="red" points="745.34,-224.5 745.34,-243.5 845.34,-243.5 845.34,-224.5 745.34,-224.5"/>
<text text-anchor="middle" x="795.34" y="-231.5" font-family="Helvetica,sans-Serif" font-size="10.00">actuator_types.H</text>
</a>
</g>
</g>
<!-- Node4&#45;&gt;Node50 -->
<g id="edge13" class="edge">
<title>Node4&#45;&gt;Node50</title>
<path fill="none" stroke="midnightblue" d="M540.77,-279.2C599.48,-269.01 690.48,-253.21 746.29,-243.52"/>
<polygon fill="midnightblue" stroke="midnightblue" points="539.81,-275.81 530.56,-280.97 541.01,-282.71 539.81,-275.81"/>
</g>
<!-- Node61 -->
<g id="node23" class="node">
<title>Node61</title>
<g id="a_node23"><a xlink:href="_actuator_wing_8_h.html" target="_top" xlink:title=" ">
<polygon fill="white" stroke="red" points="520.84,-168.5 520.84,-187.5 613.84,-187.5 613.84,-168.5 520.84,-168.5"/>
<text text-anchor="middle" x="567.34" y="-175.5" font-family="Helvetica,sans-Serif" font-size="10.00">ActuatorWing.H</text>
</a>
</g>
</g>
<!-- Node4&#45;&gt;Node61 -->
<g id="edge33" class="edge">
<title>Node4&#45;&gt;Node61</title>
<path fill="none" stroke="midnightblue" d="M427.87,-288.11C356.05,-285.02 245.98,-272.53 287.34,-224 291.11,-219.57 441.93,-197.16 520.61,-185.72"/>
<polygon fill="midnightblue" stroke="midnightblue" points="428.05,-291.62 438.17,-288.51 428.31,-284.63 428.05,-291.62"/>
</g>
<!-- Node62 -->
<g id="node24" class="node">
<title>Node62</title>
<g id="a_node24"><a xlink:href="_actuator_container_8_h.html" target="_top" xlink:title=" ">
<polygon fill="white" stroke="red" points="25.84,-224.5 25.84,-243.5 140.84,-243.5 140.84,-224.5 25.84,-224.5"/>
<text text-anchor="middle" x="83.34" y="-231.5" font-family="Helvetica,sans-Serif" font-size="10.00">ActuatorContainer.H</text>
</a>
</g>
</g>
<!-- Node4&#45;&gt;Node62 -->
<g id="edge30" class="edge">
<title>Node4&#45;&gt;Node62</title>
<path fill="none" stroke="midnightblue" d="M428.01,-281.47C361.43,-272.56 247.31,-257.26 149.34,-244 146.59,-243.63 143.77,-243.25 140.93,-242.86"/>
<polygon fill="midnightblue" stroke="midnightblue" points="427.9,-284.98 438.27,-282.84 428.82,-278.05 427.9,-284.98"/>
</g>
<!-- Node54 -->
<g id="node25" class="node">
<title>Node54</title>
<g id="a_node25"><a xlink:href="_uniform_ct_8_h.html" target="_top" xlink:title=" ">
<polygon fill="white" stroke="red" points="242.84,-56.5 242.84,-75.5 319.84,-75.5 319.84,-56.5 242.84,-56.5"/>
<text text-anchor="middle" x="281.34" y="-63.5" font-family="Helvetica,sans-Serif" font-size="10.00">UniformCt.H</text>
</a>
</g>
</g>
<!-- Node4&#45;&gt;Node54 -->
<g id="edge31" class="edge">
<title>Node4&#45;&gt;Node54</title>
<path fill="none" stroke="midnightblue" d="M427.81,-287.74C309.32,-284.5 43.54,-273.95 16.34,-244 -59.65,-160.36 154.31,-97.51 243.91,-75.52"/>
<polygon fill="midnightblue" stroke="midnightblue" points="428.04,-291.24 438.13,-288.01 428.23,-284.25 428.04,-291.24"/>
</g>
<!-- Node36&#45;&gt;Node37 -->
<g id="edge6" class="edge">
<title>Node36&#45;&gt;Node37</title>
<path fill="none" stroke="midnightblue" d="M443.16,-214.4C445.5,-205.36 448.2,-194.94 450.07,-187.75"/>
<polygon fill="midnightblue" stroke="midnightblue" points="439.77,-213.52 440.65,-224.08 446.55,-215.28 439.77,-213.52"/>
</g>
<!-- Node42&#45;&gt;Node43 -->
<g id="edge9" class="edge">
<title>Node42&#45;&gt;Node43</title>
<path fill="none" stroke="midnightblue" d="M926.34,-213.8C926.34,-204.91 926.34,-194.78 926.34,-187.75"/>
<polygon fill="midnightblue" stroke="midnightblue" points="922.84,-214.08 926.34,-224.08 929.84,-214.08 922.84,-214.08"/>
</g>
<!-- Node18 -->
<g id="node14" class="node">
<title>Node18</title>
<g id="a_node14"><a xlink:href="_act_src_line_op_8_h.html" target="_top" xlink:title=" ">
<polygon fill="white" stroke="black" points="925.34,-112.5 925.34,-131.5 1017.34,-131.5 1017.34,-112.5 925.34,-112.5"/>
<text text-anchor="middle" x="971.34" y="-119.5" font-family="Helvetica,sans-Serif" font-size="10.00">ActSrcLineOp.H</text>
</a>
</g>
</g>
<!-- Node50&#45;&gt;Node18 -->
<g id="edge14" class="edge">
<title>Node50&#45;&gt;Node18</title>
<path fill="none" stroke="midnightblue" d="M764.88,-219.97C739.88,-207.45 711.03,-187.59 727.34,-168 752,-138.37 861.47,-128.17 925.09,-124.72"/>
<polygon fill="midnightblue" stroke="midnightblue" points="763.64,-223.26 774.18,-224.4 766.65,-216.94 763.64,-223.26"/>
</g>
<!-- Node19 -->
<g id="node15" class="node">
<title>Node19</title>
<g id="a_node15"><a xlink:href="_actuator_model_8_h.html" target="_top" xlink:title=" ">
<polygon fill="white" stroke="red" points="1033.34,-56.5 1033.34,-75.5 1131.34,-75.5 1131.34,-56.5 1033.34,-56.5"/>
<text text-anchor="middle" x="1082.34" y="-63.5" font-family="Helvetica,sans-Serif" font-size="10.00">ActuatorModel.H</text>
</a>
</g>
</g>
<!-- Node50&#45;&gt;Node19 -->
<g id="edge27" class="edge">
<title>Node50&#45;&gt;Node19</title>
<path fill="none" stroke="midnightblue" d="M761.48,-220.6C734.3,-208.71 703.14,-189.44 719.34,-168 757.24,-117.83 942.93,-86.05 1033.07,-73.34"/>
<polygon fill="midnightblue" stroke="midnightblue" points="760.26,-223.89 770.84,-224.49 762.95,-217.42 760.26,-223.89"/>
</g>
<!-- Node17 -->
<g id="node18" class="node">
<title>Node17</title>
<g id="a_node18"><a xlink:href="actuator__ops_8_h.html" target="_top" xlink:title=" ">
<polygon fill="white" stroke="red" points="1207.34,-168.5 1207.34,-187.5 1297.34,-187.5 1297.34,-168.5 1207.34,-168.5"/>
<text text-anchor="middle" x="1252.34" y="-175.5" font-family="Helvetica,sans-Serif" font-size="10.00">actuator_ops.H</text>
</a>
</g>
</g>
<!-- Node50&#45;&gt;Node17 -->
<g id="edge18" class="edge">
<title>Node50&#45;&gt;Node17</title>
<path fill="none" stroke="midnightblue" d="M855.55,-223.88C989.38,-206.27 1135.13,-190.88 1207.2,-183.53"/>
<polygon fill="midnightblue" stroke="midnightblue" points="854.98,-220.43 845.53,-225.21 855.9,-227.37 854.98,-220.43"/>
</g>
<!-- Node55 -->
<g id="node22" class="node">
<title>Node55</title>
<g id="a_node22"><a xlink:href="actuator__utils_8cpp.html" target="_top" xlink:title=" ">
<polygon fill="white" stroke="black" points="736.34,-168.5 736.34,-187.5 840.34,-187.5 840.34,-168.5 736.34,-168.5"/>
<text text-anchor="middle" x="788.34" y="-175.5" font-family="Helvetica,sans-Serif" font-size="10.00">actuator_utils.cpp</text>
</a>
</g>
</g>
<!-- Node50&#45;&gt;Node55 -->
<g id="edge28" class="edge">
<title>Node50&#45;&gt;Node55</title>
<path fill="none" stroke="midnightblue" d="M792.89,-214.1C791.72,-205.14 790.39,-194.86 789.47,-187.75"/>
<polygon fill="midnightblue" stroke="midnightblue" points="789.42,-214.62 794.18,-224.08 796.37,-213.72 789.42,-214.62"/>
</g>
<!-- Node50&#45;&gt;Node61 -->
<g id="edge29" class="edge">
<title>Node50&#45;&gt;Node61</title>
<path fill="none" stroke="midnightblue" d="M749.26,-222.09C706.19,-211.89 642.75,-196.86 603.29,-187.52"/>
<polygon fill="midnightblue" stroke="midnightblue" points="748.67,-225.54 759.21,-224.44 750.28,-218.73 748.67,-225.54"/>
</g>
<!-- Node18&#45;&gt;Node19 -->
<g id="edge15" class="edge">
<title>Node18&#45;&gt;Node19</title>
<path fill="none" stroke="midnightblue" d="M998.34,-107.86C1018.92,-97.85 1046.68,-84.35 1064.55,-75.65"/>
<polygon fill="midnightblue" stroke="midnightblue" points="996.63,-104.8 989.17,-112.32 999.69,-111.1 996.63,-104.8"/>
</g>
<!-- Node21 -->
<g id="node16" class="node">
<title>Node21</title>
<g id="a_node16"><a xlink:href="_actuator_disk_8cpp.html" target="_top" xlink:title=" ">
<polygon fill="white" stroke="black" points="582.34,-0.5 582.34,-19.5 682.34,-19.5 682.34,-0.5 582.34,-0.5"/>
<text text-anchor="middle" x="632.34" y="-7.5" font-family="Helvetica,sans-Serif" font-size="10.00">ActuatorDisk.cpp</text>
</a>
</g>
</g>
<!-- Node19&#45;&gt;Node21 -->
<g id="edge16" class="edge">
<title>Node19&#45;&gt;Node21</title>
<path fill="none" stroke="midnightblue" d="M1023.37,-57.92C934.16,-47.22 766.46,-27.09 682.66,-17.04"/>
<polygon fill="midnightblue" stroke="midnightblue" points="1022.98,-61.4 1033.32,-59.12 1023.81,-54.45 1022.98,-61.4"/>
</g>
<!-- Node22 -->
<g id="node17" class="node">
<title>Node22</title>
<g id="a_node17"><a xlink:href="_turbine_fast_8cpp.html" target="_top" xlink:title=" ">
<polygon fill="white" stroke="black" points="1132.34,-0.5 1132.34,-19.5 1224.34,-19.5 1224.34,-0.5 1132.34,-0.5"/>
<text text-anchor="middle" x="1178.34" y="-7.5" font-family="Helvetica,sans-Serif" font-size="10.00">TurbineFast.cpp</text>
</a>
</g>
</g>
<!-- Node19&#45;&gt;Node22 -->
<g id="edge17" class="edge">
<title>Node19&#45;&gt;Node22</title>
<path fill="none" stroke="midnightblue" d="M1106.91,-51.18C1124.57,-41.24 1147.85,-28.15 1162.95,-19.65"/>
<polygon fill="midnightblue" stroke="midnightblue" points="1104.76,-48.37 1097.76,-56.32 1108.19,-54.47 1104.76,-48.37"/>
</g>
<!-- Node17&#45;&gt;Node18 -->
<g id="edge19" class="edge">
<title>Node17&#45;&gt;Node18</title>
<path fill="none" stroke="midnightblue" d="M1197.89,-166.54C1144.78,-156.33 1065,-141 1015.65,-131.52"/>
<polygon fill="midnightblue" stroke="midnightblue" points="1197.33,-169.99 1207.81,-168.44 1198.65,-163.12 1197.33,-169.99"/>
</g>
<!-- Node17&#45;&gt;Node19 -->
<g id="edge20" class="edge">
<title>Node17&#45;&gt;Node19</title>
<path fill="none" stroke="midnightblue" d="M1228.28,-163.34C1213.2,-154.63 1193.44,-142.96 1176.34,-132 1146.26,-112.73 1112.01,-88.43 1094.32,-75.69"/>
<polygon fill="midnightblue" stroke="midnightblue" points="1226.59,-166.4 1237,-168.35 1230.07,-160.33 1226.59,-166.4"/>
</g>
<!-- Node25 -->
<g id="node19" class="node">
<title>Node25</title>
<g id="a_node19"><a xlink:href="_act_src_disk_op___turbine_8_h.html" target="_top" xlink:title=" ">
<polygon fill="white" stroke="black" points="1185.34,-112.5 1185.34,-131.5 1319.34,-131.5 1319.34,-112.5 1185.34,-112.5"/>
<text text-anchor="middle" x="1252.34" y="-119.5" font-family="Helvetica,sans-Serif" font-size="10.00">ActSrcDiskOp_Turbine.H</text>
</a>
</g>
</g>
<!-- Node17&#45;&gt;Node25 -->
<g id="edge21" class="edge">
<title>Node17&#45;&gt;Node25</title>
<path fill="none" stroke="midnightblue" d="M1252.34,-157.8C1252.34,-148.91 1252.34,-138.78 1252.34,-131.75"/>
<polygon fill="midnightblue" stroke="midnightblue" points="1248.84,-158.08 1252.34,-168.08 1255.84,-158.08 1248.84,-158.08"/>
</g>
<!-- Node26 -->
<g id="node20" class="node">
<title>Node26</title>
<g id="a_node20"><a xlink:href="_act_src_disk_op_8_h.html" target="_top" xlink:title=" ">
<polygon fill="white" stroke="black" points="1035.84,-112.5 1035.84,-131.5 1128.84,-131.5 1128.84,-112.5 1035.84,-112.5"/>
<text text-anchor="middle" x="1082.34" y="-119.5" font-family="Helvetica,sans-Serif" font-size="10.00">ActSrcDiskOp.H</text>
</a>
</g>
</g>
<!-- Node17&#45;&gt;Node26 -->
<g id="edge23" class="edge">
<title>Node17&#45;&gt;Node26</title>
<path fill="none" stroke="midnightblue" d="M1215.52,-165.3C1183.48,-155.13 1137.82,-140.62 1109.15,-131.52"/>
<polygon fill="midnightblue" stroke="midnightblue" points="1214.81,-168.75 1225.4,-168.44 1216.93,-162.08 1214.81,-168.75"/>
</g>
<!-- Node29 -->
<g id="node21" class="node">
<title>Node29</title>
<g id="a_node21"><a xlink:href="turbine__fast__ops_8_h.html" target="_top" xlink:title=" ">
<polygon fill="white" stroke="black" points="1337.34,-112.5 1337.34,-131.5 1445.34,-131.5 1445.34,-112.5 1337.34,-112.5"/>
<text text-anchor="middle" x="1391.34" y="-119.5" font-family="Helvetica,sans-Serif" font-size="10.00">turbine_fast_ops.H</text>
</a>
</g>
</g>
<!-- Node17&#45;&gt;Node29 -->
<g id="edge25" class="edge">
<title>Node17&#45;&gt;Node29</title>
<path fill="none" stroke="midnightblue" d="M1283.81,-164.77C1309.92,-154.63 1346.37,-140.47 1369.41,-131.52"/>
<polygon fill="midnightblue" stroke="midnightblue" points="1282.41,-161.56 1274.36,-168.44 1284.95,-168.08 1282.41,-161.56"/>
</g>
<!-- Node25&#45;&gt;Node19 -->
<g id="edge22" class="edge">
<title>Node25&#45;&gt;Node19</title>
<path fill="none" stroke="midnightblue" d="M1215.52,-109.3C1183.48,-99.13 1137.82,-84.62 1109.15,-75.52"/>
<polygon fill="midnightblue" stroke="midnightblue" points="1214.81,-112.75 1225.4,-112.44 1216.93,-106.08 1214.81,-112.75"/>
</g>
<!-- Node26&#45;&gt;Node19 -->
<g id="edge24" class="edge">
<title>Node26&#45;&gt;Node19</title>
<path fill="none" stroke="midnightblue" d="M1082.34,-101.8C1082.34,-92.91 1082.34,-82.78 1082.34,-75.75"/>
<polygon fill="midnightblue" stroke="midnightblue" points="1078.84,-102.08 1082.34,-112.08 1085.84,-102.08 1078.84,-102.08"/>
</g>
<!-- Node29&#45;&gt;Node22 -->
<g id="edge26" class="edge">
<title>Node29&#45;&gt;Node22</title>
<path fill="none" stroke="midnightblue" d="M1365.65,-107.73C1321.4,-84.88 1231.99,-38.71 1194.97,-19.59"/>
<polygon fill="midnightblue" stroke="midnightblue" points="1364.13,-110.89 1374.62,-112.37 1367.34,-104.67 1364.13,-110.89"/>
</g>
<!-- Node54&#45;&gt;Node21 -->
<g id="edge32" class="edge">
<title>Node54&#45;&gt;Node21</title>
<path fill="none" stroke="midnightblue" d="M330.11,-57.5C396.56,-47.27 514.96,-29.06 582.14,-18.72"/>
<polygon fill="midnightblue" stroke="midnightblue" points="329.25,-54.09 319.9,-59.07 330.32,-61.01 329.25,-54.09"/>
</g>
<!-- Node65 -->
<g id="node27" class="node">
<title>Node65</title>
<g id="a_node27"><a xlink:href="_a_b_l_wall_function_8_h.html" target="_top" xlink:title=" ">
<polygon fill="white" stroke="black" points="1554.84,-336.5 1554.84,-355.5 1661.84,-355.5 1661.84,-336.5 1554.84,-336.5"/>
<text text-anchor="middle" x="1608.34" y="-343.5" font-family="Helvetica,sans-Serif" font-size="10.00">ABLWallFunction.H</text>
</a>
</g>
</g>
<!-- Node64&#45;&gt;Node65 -->
<g id="edge36" class="edge">
<title>Node64&#45;&gt;Node65</title>
<path fill="none" stroke="midnightblue" d="M1629.16,-383.27C1623.86,-374.05 1617.62,-363.17 1613.36,-355.75"/>
<polygon fill="midnightblue" stroke="midnightblue" points="1626.2,-385.15 1634.22,-392.08 1632.27,-381.67 1626.2,-385.15"/>
</g>
<!-- Node78 -->
<g id="node36" class="node">
<title>Node78</title>
<g id="a_node36"><a xlink:href="_shear_stress_8_h.html" target="_top" xlink:title=" ">
<polygon fill="white" stroke="black" points="1679.84,-336.5 1679.84,-355.5 1764.84,-355.5 1764.84,-336.5 1679.84,-336.5"/>
<text text-anchor="middle" x="1722.34" y="-343.5" font-family="Helvetica,sans-Serif" font-size="10.00">ShearStress.H</text>
</a>
</g>
</g>
<!-- Node64&#45;&gt;Node78 -->
<g id="edge48" class="edge">
<title>Node64&#45;&gt;Node78</title>
<path fill="none" stroke="midnightblue" d="M1661.44,-386.62C1676.6,-376.76 1696.22,-363.99 1709.03,-355.65"/>
<polygon fill="midnightblue" stroke="midnightblue" points="1659.14,-383.94 1652.67,-392.32 1662.96,-389.8 1659.14,-383.94"/>
</g>
<!-- Node79 -->
<g id="node37" class="node">
<title>Node79</title>
<g id="a_node37"><a xlink:href="_m_o_data_8cpp.html" target="_top" xlink:title=" ">
<polygon fill="white" stroke="black" points="1459.84,-336.5 1459.84,-355.5 1536.84,-355.5 1536.84,-336.5 1459.84,-336.5"/>
<text text-anchor="middle" x="1498.34" y="-343.5" font-family="Helvetica,sans-Serif" font-size="10.00">MOData.cpp</text>
</a>
</g>
</g>
<!-- Node64&#45;&gt;Node79 -->
<g id="edge50" class="edge">
<title>Node64&#45;&gt;Node79</title>
<path fill="none" stroke="midnightblue" d="M1607.41,-388.77C1580.92,-378.63 1543.94,-364.47 1520.57,-355.52"/>
<polygon fill="midnightblue" stroke="midnightblue" points="1606.4,-392.14 1616.99,-392.44 1608.91,-385.6 1606.4,-392.14"/>
</g>
<!-- Node66 -->
<g id="node28" class="node">
<title>Node66</title>
<g id="a_node28"><a xlink:href="_a_b_l_8_h.html" target="_top" xlink:title=" ">
<polygon fill="white" stroke="red" points="1507.34,-224.5 1507.34,-243.5 1553.34,-243.5 1553.34,-224.5 1507.34,-224.5"/>
<text text-anchor="middle" x="1530.34" y="-231.5" font-family="Helvetica,sans-Serif" font-size="10.00">ABL.H</text>
</a>
</g>
</g>
<!-- Node65&#45;&gt;Node66 -->
<g id="edge37" class="edge">
<title>Node65&#45;&gt;Node66</title>
<path fill="none" stroke="midnightblue" d="M1544.63,-335.18C1487.53,-325.72 1411.39,-311.25 1402.34,-300 1371.78,-262.05 1462.54,-244.15 1507.15,-237.82"/>
<polygon fill="midnightblue" stroke="midnightblue" points="1544.25,-338.66 1554.69,-336.82 1545.38,-331.75 1544.25,-338.66"/>
</g>
<!-- Node65&#45;&gt;Node73 -->
<g id="edge47" class="edge">
<title>Node65&#45;&gt;Node73</title>
<path fill="none" stroke="midnightblue" d="M1631.25,-331.01C1644.52,-322.57 1661.33,-311.29 1675.34,-300 1723.04,-261.56 1773.91,-208.45 1793.25,-187.75"/>
<polygon fill="midnightblue" stroke="midnightblue" points="1629.31,-328.1 1622.7,-336.37 1633.03,-334.03 1629.31,-328.1"/>
</g>
<!-- Node74 -->
<g id="node33" class="node">
<title>Node74</title>
<g id="a_node33"><a xlink:href="_a_b_l_stats_base_8_h.html" target="_top" xlink:title=" ">
<polygon fill="white" stroke="black" points="1555.84,-280.5 1555.84,-299.5 1650.84,-299.5 1650.84,-280.5 1555.84,-280.5"/>
<text text-anchor="middle" x="1603.34" y="-287.5" font-family="Helvetica,sans-Serif" font-size="10.00">ABLStatsBase.H</text>
</a>
</g>
</g>
<!-- Node65&#45;&gt;Node74 -->
<g id="edge42" class="edge">
<title>Node65&#45;&gt;Node74</title>
<path fill="none" stroke="midnightblue" d="M1606.59,-326.1C1605.76,-317.14 1604.8,-306.86 1604.15,-299.75"/>
<polygon fill="midnightblue" stroke="midnightblue" points="1603.1,-326.45 1607.51,-336.08 1610.07,-325.8 1603.1,-326.45"/>
</g>
<!-- Node75 -->
<g id="node34" class="node">
<title>Node75</title>
<g id="a_node34"><a xlink:href="_a_b_l_stats_8_h.html" target="_top" xlink:title=" ">
<polygon fill="white" stroke="red" points="1602.84,-224.5 1602.84,-243.5 1673.84,-243.5 1673.84,-224.5 1602.84,-224.5"/>
<text text-anchor="middle" x="1638.34" y="-231.5" font-family="Helvetica,sans-Serif" font-size="10.00">ABLStats.H</text>
</a>
</g>
</g>
<!-- Node65&#45;&gt;Node75 -->
<g id="edge46" class="edge">
<title>Node65&#45;&gt;Node75</title>
<path fill="none" stroke="midnightblue" d="M1632.71,-330.73C1643.28,-323.09 1654.56,-312.64 1660.34,-300 1669.25,-280.5 1654.75,-256.28 1645.36,-243.63"/>
<polygon fill="midnightblue" stroke="midnightblue" points="1630.49,-328 1624.12,-336.47 1634.38,-333.82 1630.49,-328"/>
</g>
<!-- Node77 -->
<g id="node35" class="node">
<title>Node77</title>
<g id="a_node35"><a xlink:href="_boussinesq_bubble_8cpp.html" target="_top" xlink:title=" ">
<polygon fill="white" stroke="black" points="1411.34,-280.5 1411.34,-299.5 1537.34,-299.5 1537.34,-280.5 1411.34,-280.5"/>
<text text-anchor="middle" x="1474.34" y="-287.5" font-family="Helvetica,sans-Serif" font-size="10.00">BoussinesqBubble.cpp</text>
</a>
</g>
</g>
<!-- Node65&#45;&gt;Node77 -->
<g id="edge45" class="edge">
<title>Node65&#45;&gt;Node77</title>
<path fill="none" stroke="midnightblue" d="M1577.66,-332.64C1552.51,-322.5 1517.58,-308.43 1495.47,-299.52"/>
<polygon fill="midnightblue" stroke="midnightblue" points="1576.52,-335.95 1587.1,-336.44 1579.14,-329.46 1576.52,-335.95"/>
</g>
<!-- Node67 -->
<g id="node29" class="node">
<title>Node67</title>
<g id="a_node29"><a xlink:href="_a_b_l_forcing_8cpp.html" target="_top" xlink:title=" ">
<polygon fill="white" stroke="black" points="1476.84,-168.5 1476.84,-187.5 1567.84,-187.5 1567.84,-168.5 1476.84,-168.5"/>
<text text-anchor="middle" x="1522.34" y="-175.5" font-family="Helvetica,sans-Serif" font-size="10.00">ABLForcing.cpp</text>
</a>
</g>
</g>
<!-- Node66&#45;&gt;Node67 -->
<g id="edge38" class="edge">
<title>Node66&#45;&gt;Node67</title>
<path fill="none" stroke="midnightblue" d="M1527.54,-214.1C1526.21,-205.14 1524.69,-194.86 1523.63,-187.75"/>
<polygon fill="midnightblue" stroke="midnightblue" points="1524.09,-214.7 1529.01,-224.08 1531.01,-213.68 1524.09,-214.7"/>
</g>
<!-- Node68 -->
<g id="node30" class="node">
<title>Node68</title>
<g id="a_node30"><a xlink:href="_a_b_l_mean_boussinesq_8cpp.html" target="_top" xlink:title=" ">
<polygon fill="white" stroke="black" points="1586.34,-168.5 1586.34,-187.5 1724.34,-187.5 1724.34,-168.5 1586.34,-168.5"/>
<text text-anchor="middle" x="1655.34" y="-175.5" font-family="Helvetica,sans-Serif" font-size="10.00">ABLMeanBoussinesq.cpp</text>
</a>
</g>
</g>
<!-- Node66&#45;&gt;Node68 -->
<g id="edge39" class="edge">
<title>Node66&#45;&gt;Node68</title>
<path fill="none" stroke="midnightblue" d="M1559.58,-220.37C1582.99,-210.26 1615.18,-196.35 1635.62,-187.52"/>
<polygon fill="midnightblue" stroke="midnightblue" points="1557.93,-217.26 1550.14,-224.44 1560.71,-223.69 1557.93,-217.26"/>
</g>
<!-- Node69 -->
<g id="node31" class="node">
<title>Node69</title>
<g id="a_node31"><a xlink:href="incflo_8cpp.html" target="_top" xlink:title=" ">
<polygon fill="white" stroke="black" points="1395.84,-168.5 1395.84,-187.5 1458.84,-187.5 1458.84,-168.5 1395.84,-168.5"/>
<text text-anchor="middle" x="1427.34" y="-175.5" font-family="Helvetica,sans-Serif" font-size="10.00">incflo.cpp</text>
</a>
</g>
</g>
<!-- Node66&#45;&gt;Node69 -->
<g id="edge40" class="edge">
<title>Node66&#45;&gt;Node69</title>
<path fill="none" stroke="midnightblue" d="M1504.76,-219.59C1485.71,-209.61 1460.27,-196.27 1443.84,-187.65"/>
<polygon fill="midnightblue" stroke="midnightblue" points="1503.31,-222.78 1513.79,-224.32 1506.56,-216.58 1503.31,-222.78"/>
</g>
<!-- Node66&#45;&gt;Node73 -->
<g id="edge41" class="edge">
<title>Node66&#45;&gt;Node73</title>
<path fill="none" stroke="midnightblue" d="M1563.52,-226.39C1612.57,-216.61 1704.45,-198.31 1758.52,-187.53"/>
<polygon fill="midnightblue" stroke="midnightblue" points="1562.56,-223.01 1553.44,-228.4 1563.93,-229.87 1562.56,-223.01"/>
</g>
<!-- Node74&#45;&gt;Node66 -->
<g id="edge43" class="edge">
<title>Node74&#45;&gt;Node66</title>
<path fill="none" stroke="midnightblue" d="M1583.19,-274.1C1570.06,-264.38 1553.35,-252.03 1542.28,-243.83"/>
<polygon fill="midnightblue" stroke="midnightblue" points="1581.49,-277.19 1591.61,-280.32 1585.65,-271.56 1581.49,-277.19"/>
</g>
<!-- Node74&#45;&gt;Node75 -->
<g id="edge44" class="edge">
<title>Node74&#45;&gt;Node75</title>
<path fill="none" stroke="midnightblue" d="M1614.64,-271.57C1620.66,-262.27 1627.8,-251.25 1632.66,-243.75"/>
<polygon fill="midnightblue" stroke="midnightblue" points="1611.62,-269.79 1609.12,-280.08 1617.49,-273.6 1611.62,-269.79"/>
</g>
<!-- Node78&#45;&gt;Node73 -->
<g id="edge49" class="edge">
<title>Node78&#45;&gt;Node73</title>
<path fill="none" stroke="midnightblue" d="M1730.55,-327.36C1741.55,-303.77 1761.74,-260.65 1779.34,-224 1785.43,-211.3 1792.62,-196.65 1797.08,-187.61"/>
<polygon fill="midnightblue" stroke="midnightblue" points="1727.35,-325.93 1726.3,-336.47 1733.7,-328.89 1727.35,-325.93"/>
</g>
<!-- Node90&#45;&gt;Node18 -->
<g id="edge66" class="edge">
<title>Node90&#45;&gt;Node18</title>
<path fill="none" stroke="midnightblue" d="M1203.83,-271.92C1180.55,-240.31 1131.98,-175.26 1121.34,-168 1103.03,-155.52 1047.22,-140.69 1009.09,-131.56"/>
<polygon fill="midnightblue" stroke="midnightblue" points="1201.18,-274.23 1209.92,-280.21 1206.82,-270.08 1201.18,-274.23"/>
</g>
<!-- Node90&#45;&gt;Node25 -->
<g id="edge67" class="edge">
<title>Node90&#45;&gt;Node25</title>
<path fill="none" stroke="midnightblue" d="M1265.45,-276.89C1282.33,-270.13 1299.46,-259.75 1309.34,-244 1316.3,-232.9 1321.38,-198 1306.34,-168 1298.24,-151.85 1281.46,-139.34 1268.74,-131.65"/>
<polygon fill="midnightblue" stroke="midnightblue" points="1263.79,-273.77 1255.59,-280.48 1266.18,-280.35 1263.79,-273.77"/>
</g>
<!-- Node90&#45;&gt;Node26 -->
<g id="edge68" class="edge">
<title>Node90&#45;&gt;Node26</title>
<path fill="none" stroke="midnightblue" d="M1208.68,-270.91C1195.91,-241.32 1170.21,-184.21 1155.34,-168 1140.44,-151.77 1118.36,-139.26 1102.39,-131.6"/>
<polygon fill="midnightblue" stroke="midnightblue" points="1205.6,-272.63 1212.75,-280.45 1212.04,-269.88 1205.6,-272.63"/>
</g>
<!-- Node90&#45;&gt;Node29 -->
<g id="edge73" class="edge">
<title>Node90&#45;&gt;Node29</title>
<path fill="none" stroke="midnightblue" d="M1263.98,-277.42C1284.97,-270.46 1308.8,-259.79 1326.34,-244 1362.66,-211.29 1382.49,-153.38 1388.95,-131.6"/>
<polygon fill="midnightblue" stroke="midnightblue" points="1262.75,-274.14 1254.25,-280.46 1264.84,-280.82 1262.75,-274.14"/>
</g>
<!-- Node90&#45;&gt;Node55 -->
<g id="edge72" class="edge">
<title>Node90&#45;&gt;Node55</title>
<path fill="none" stroke="midnightblue" d="M1180.11,-277.32C1136.87,-263.6 1062.26,-240.6 997.34,-224 940.88,-209.57 875.06,-195.91 832.6,-187.51"/>
<polygon fill="midnightblue" stroke="midnightblue" points="1179.3,-280.74 1189.89,-280.44 1181.42,-274.07 1179.3,-280.74"/>
</g>
<!-- Node91 -->
<g id="node49" class="node">
<title>Node91</title>
<g id="a_node49"><a xlink:href="actuator__ops_i_8_h.html" target="_top" xlink:title=" ">
<polygon fill="white" stroke="black" points="1207.84,-224.5 1207.84,-243.5 1300.84,-243.5 1300.84,-224.5 1207.84,-224.5"/>
<text text-anchor="middle" x="1254.34" y="-231.5" font-family="Helvetica,sans-Serif" font-size="10.00">actuator_opsI.H</text>
</a>
</g>
</g>
<!-- Node90&#45;&gt;Node91 -->
<g id="edge64" class="edge">
<title>Node90&#45;&gt;Node91</title>
<path fill="none" stroke="midnightblue" d="M1228.4,-271.86C1234.98,-262.5 1242.85,-251.33 1248.18,-243.75"/>
<polygon fill="midnightblue" stroke="midnightblue" points="1225.5,-269.89 1222.61,-280.08 1231.23,-273.92 1225.5,-269.89"/>
</g>
<!-- Node92 -->
<g id="node50" class="node">
<title>Node92</title>
<g id="a_node50"><a xlink:href="disk__spreading_8_h.html" target="_top" xlink:title=" ">
<polygon fill="white" stroke="black" points="1011.84,-168.5 1011.84,-187.5 1112.84,-187.5 1112.84,-168.5 1011.84,-168.5"/>
<text text-anchor="middle" x="1062.34" y="-175.5" font-family="Helvetica,sans-Serif" font-size="10.00">disk_spreading.H</text>
</a>
</g>
</g>
<!-- Node90&#45;&gt;Node92 -->
<g id="edge69" class="edge">
<title>Node90&#45;&gt;Node92</title>
<path fill="none" stroke="midnightblue" d="M1185.4,-276.3C1167.62,-268.29 1145.32,-257.02 1127.34,-244 1103.81,-226.96 1080.88,-201.3 1069.59,-187.88"/>
<polygon fill="midnightblue" stroke="midnightblue" points="1184.19,-279.59 1194.76,-280.4 1187,-273.18 1184.19,-279.59"/>
</g>
<!-- Node91&#45;&gt;Node17 -->
<g id="edge65" class="edge">
<title>Node91&#45;&gt;Node17</title>
<path fill="none" stroke="midnightblue" d="M1253.62,-213.8C1253.3,-204.91 1252.92,-194.78 1252.66,-187.75"/>
<polygon fill="midnightblue" stroke="midnightblue" points="1250.14,-214.22 1254.01,-224.08 1257.13,-213.96 1250.14,-214.22"/>
</g>
<!-- Node92&#45;&gt;Node21 -->
<g id="edge71" class="edge">
<title>Node92&#45;&gt;Node21</title>
<path fill="none" stroke="midnightblue" d="M1021.33,-165.6C991.86,-157.1 951.32,-144.8 916.34,-132 814.17,-94.6 695.45,-40.43 650.68,-19.6"/>
<polygon fill="midnightblue" stroke="midnightblue" points="1020.69,-169.05 1031.26,-168.44 1022.61,-162.32 1020.69,-169.05"/>
</g>
<!-- Node92&#45;&gt;Node26 -->
<g id="edge70" class="edge">
<title>Node92&#45;&gt;Node26</title>
<path fill="none" stroke="midnightblue" d="M1069.12,-158.69C1072.49,-149.59 1076.4,-139.01 1079.09,-131.75"/>
<polygon fill="midnightblue" stroke="midnightblue" points="1065.83,-157.49 1065.64,-168.08 1072.39,-159.92 1065.83,-157.49"/>
</g>
</g>
</svg>
