<?xml version="1.0" encoding="UTF-8" standalone="no"?>
<!DOCTYPE svg PUBLIC "-//W3C//DTD SVG 1.1//EN"
 "http://www.w3.org/Graphics/SVG/1.1/DTD/svg11.dtd">
<!-- Generated by graphviz version 2.43.0 (0)
 -->
<!-- Title: turbine_utils.H Pages: 1 -->
<svg width="979pt" height="475pt"
 viewBox="0.00 0.00 979.09 475.00" xmlns="http://www.w3.org/2000/svg" xmlns:xlink="http://www.w3.org/1999/xlink">
<g id="graph0" class="graph" transform="scale(1 1) rotate(0) translate(4 471)">
<title>turbine_utils.H</title>
<polygon fill="white" stroke="transparent" points="-4,4 -4,-471 975.09,-471 975.09,4 -4,4"/>
<!-- Node1 -->
<g id="node1" class="node">
<title>Node1</title>
<g id="a_node1"><a xlink:title=" ">
<polygon fill="#bfbfbf" stroke="black" points="286,-447.5 286,-466.5 374,-466.5 374,-447.5 286,-447.5"/>
<text text-anchor="middle" x="330" y="-454.5" font-family="Helvetica,sans-Serif" font-size="10.00">turbine_utils.H</text>
</a>
</g>
</g>
<!-- Node2 -->
<g id="node2" class="node">
<title>Node2</title>
<g id="a_node2"><a xlink:href="turbine__types_8_h.html" target="_top" xlink:title=" ">
<polygon fill="white" stroke="black" points="187.5,-369.5 187.5,-410.5 322.5,-410.5 322.5,-369.5 187.5,-369.5"/>
<text text-anchor="start" x="195.5" y="-398.5" font-family="Helvetica,sans-Serif" font-size="10.00">amr&#45;wind/wind_energy</text>
<text text-anchor="start" x="195.5" y="-387.5" font-family="Helvetica,sans-Serif" font-size="10.00">/actuator/turbine/turbine</text>
<text text-anchor="middle" x="255" y="-376.5" font-family="Helvetica,sans-Serif" font-size="10.00">_types.H</text>
</a>
</g>
</g>
<!-- Node1&#45;&gt;Node2 -->
<g id="edge1" class="edge">
<title>Node1&#45;&gt;Node2</title>
<path fill="none" stroke="midnightblue" d="M319.89,-447.23C311.03,-439.56 297.69,-428 285.41,-417.36"/>
<polygon fill="midnightblue" stroke="midnightblue" points="287.4,-414.45 277.55,-410.54 282.81,-419.74 287.4,-414.45"/>
</g>
<!-- Node21 -->
<g id="node21" class="node">
<title>Node21</title>
<g id="a_node21"><a xlink:href="_act_parser_8_h.html" target="_top" xlink:title=" ">
<polygon fill="white" stroke="black" points="346,-375 346,-405 474,-405 474,-375 346,-375"/>
<text text-anchor="start" x="354" y="-393" font-family="Helvetica,sans-Serif" font-size="10.00">amr&#45;wind/wind_energy</text>
<text text-anchor="middle" x="410" y="-382" font-family="Helvetica,sans-Serif" font-size="10.00">/actuator/ActParser.H</text>
</a>
</g>
</g>
<!-- Node1&#45;&gt;Node21 -->
<g id="edge31" class="edge">
<title>Node1&#45;&gt;Node21</title>
<path fill="none" stroke="midnightblue" d="M340.79,-447.23C352.02,-438.11 370,-423.5 384.81,-411.46"/>
<polygon fill="midnightblue" stroke="midnightblue" points="387.11,-414.11 392.66,-405.09 382.69,-408.68 387.11,-414.11"/>
</g>
<!-- Node3 -->
<g id="node3" class="node">
<title>Node3</title>
<g id="a_node3"><a xlink:href="actuator__types_8_h.html" target="_top" xlink:title=" ">
<polygon fill="white" stroke="black" points="173,-302.5 173,-332.5 319,-332.5 319,-302.5 173,-302.5"/>
<text text-anchor="start" x="181" y="-320.5" font-family="Helvetica,sans-Serif" font-size="10.00">amr&#45;wind/wind_energy</text>
<text text-anchor="middle" x="246" y="-309.5" font-family="Helvetica,sans-Serif" font-size="10.00">/actuator/actuator_types.H</text>
</a>
</g>
</g>
<!-- Node2&#45;&gt;Node3 -->
<g id="edge2" class="edge">
<title>Node2&#45;&gt;Node3</title>
<path fill="none" stroke="midnightblue" d="M252.49,-369.36C251.44,-361.14 250.21,-351.49 249.1,-342.82"/>
<polygon fill="midnightblue" stroke="midnightblue" points="252.58,-342.37 247.84,-332.89 245.63,-343.25 252.58,-342.37"/>
</g>
<!-- Node4 -->
<g id="node4" class="node">
<title>Node4</title>
<g id="a_node4"><a xlink:href="_slice_8_h.html" target="_top" xlink:title=" ">
<polygon fill="white" stroke="black" points="254,-241 254,-260 378,-260 378,-241 254,-241"/>
<text text-anchor="middle" x="316" y="-248" font-family="Helvetica,sans-Serif" font-size="10.00">amr&#45;wind/core/Slice.H</text>
</a>
</g>
</g>
<!-- Node3&#45;&gt;Node4 -->
<g id="edge3" class="edge">
<title>Node3&#45;&gt;Node4</title>
<path fill="none" stroke="midnightblue" d="M261.19,-302.4C272.32,-292.06 287.44,-278.02 298.97,-267.31"/>
<polygon fill="midnightblue" stroke="midnightblue" points="301.69,-269.56 306.64,-260.19 296.93,-264.43 301.69,-269.56"/>
</g>
<!-- Node7 -->
<g id="node7" class="node">
<title>Node7</title>
<g id="a_node7"><a xlink:title=" ">
<polygon fill="white" stroke="#bfbfbf" points="406.5,-0.5 406.5,-19.5 493.5,-19.5 493.5,-0.5 406.5,-0.5"/>
<text text-anchor="middle" x="450" y="-7.5" font-family="Helvetica,sans-Serif" font-size="10.00">AMReX_Gpu.H</text>
</a>
</g>
</g>
<!-- Node3&#45;&gt;Node7 -->
<g id="edge28" class="edge">
<title>Node3&#45;&gt;Node7</title>
<path fill="none" stroke="midnightblue" d="M234.15,-302.36C216.66,-280.01 186,-234.48 186,-190 186,-190 186,-190 186,-132 186,-40.32 319.19,-17.83 396.37,-12.5"/>
<polygon fill="midnightblue" stroke="midnightblue" points="396.64,-15.99 406.41,-11.88 396.21,-9 396.64,-15.99"/>
</g>
<!-- Node8 -->
<g id="node8" class="node">
<title>Node8</title>
<g id="a_node8"><a xlink:href="vector__space_8_h.html" target="_top" xlink:title=" ">
<polygon fill="white" stroke="black" points="406.5,-235.5 406.5,-265.5 541.5,-265.5 541.5,-235.5 406.5,-235.5"/>
<text text-anchor="start" x="414.5" y="-253.5" font-family="Helvetica,sans-Serif" font-size="10.00">amr&#45;wind/core/vs/vector</text>
<text text-anchor="middle" x="474" y="-242.5" font-family="Helvetica,sans-Serif" font-size="10.00">_space.H</text>
</a>
</g>
</g>
<!-- Node3&#45;&gt;Node8 -->
<g id="edge7" class="edge">
<title>Node3&#45;&gt;Node8</title>
<path fill="none" stroke="midnightblue" d="M295.19,-302.48C330.28,-292.47 377.64,-278.97 414.8,-268.38"/>
<polygon fill="midnightblue" stroke="midnightblue" points="415.85,-271.72 424.5,-265.61 413.93,-264.99 415.85,-271.72"/>
</g>
<!-- Node19 -->
<g id="node19" class="node">
<title>Node19</title>
<g id="a_node19"><a xlink:title=" ">
<polygon fill="white" stroke="#bfbfbf" points="0,-241 0,-260 108,-260 108,-241 0,-241"/>
<text text-anchor="middle" x="54" y="-248" font-family="Helvetica,sans-Serif" font-size="10.00">AMReX_RealBox.H</text>
</a>
</g>
</g>
<!-- Node3&#45;&gt;Node19 -->
<g id="edge29" class="edge">
<title>Node3&#45;&gt;Node19</title>
<path fill="none" stroke="midnightblue" d="M204.34,-302.4C169.76,-290.69 121.14,-274.23 88.66,-263.23"/>
<polygon fill="midnightblue" stroke="midnightblue" points="89.72,-259.9 79.13,-260.01 87.48,-266.53 89.72,-259.9"/>
</g>
<!-- Node20 -->
<g id="node20" class="node">
<title>Node20</title>
<g id="a_node20"><a xlink:title=" ">
<polygon fill="white" stroke="#bfbfbf" points="126,-241 126,-260 158,-260 158,-241 126,-241"/>
<text text-anchor="middle" x="142" y="-248" font-family="Helvetica,sans-Serif" font-size="10.00">set</text>
</a>
</g>
</g>
<!-- Node3&#45;&gt;Node20 -->
<g id="edge30" class="edge">
<title>Node3&#45;&gt;Node20</title>
<path fill="none" stroke="midnightblue" d="M223.43,-302.4C205.99,-291.5 181.97,-276.48 164.53,-265.58"/>
<polygon fill="midnightblue" stroke="midnightblue" points="165.95,-262.34 155.61,-260.01 162.24,-268.28 165.95,-262.34"/>
</g>
<!-- Node5 -->
<g id="node5" class="node">
<title>Node5</title>
<g id="a_node5"><a xlink:title=" ">
<polygon fill="white" stroke="#bfbfbf" points="330.5,-179.5 330.5,-198.5 383.5,-198.5 383.5,-179.5 330.5,-179.5"/>
<text text-anchor="middle" x="357" y="-186.5" font-family="Helvetica,sans-Serif" font-size="10.00">iterator</text>
</a>
</g>
</g>
<!-- Node4&#45;&gt;Node5 -->
<g id="edge4" class="edge">
<title>Node4&#45;&gt;Node5</title>
<path fill="none" stroke="midnightblue" d="M321.87,-240.98C327.96,-232.14 337.64,-218.09 345.3,-206.98"/>
<polygon fill="midnightblue" stroke="midnightblue" points="348.34,-208.73 351.14,-198.51 342.58,-204.76 348.34,-208.73"/>
</g>
<!-- Node6 -->
<g id="node6" class="node">
<title>Node6</title>
<g id="a_node6"><a xlink:title=" ">
<polygon fill="white" stroke="#bfbfbf" points="214,-179.5 214,-198.5 312,-198.5 312,-179.5 214,-179.5"/>
<text text-anchor="middle" x="263" y="-186.5" font-family="Helvetica,sans-Serif" font-size="10.00">AMReX_Vector.H</text>
</a>
</g>
</g>
<!-- Node4&#45;&gt;Node6 -->
<g id="edge5" class="edge">
<title>Node4&#45;&gt;Node6</title>
<path fill="none" stroke="midnightblue" d="M308.41,-240.98C300.3,-231.87 287.27,-217.24 277.24,-205.98"/>
<polygon fill="midnightblue" stroke="midnightblue" points="279.84,-203.65 270.58,-198.51 274.62,-208.3 279.84,-203.65"/>
</g>
<!-- Node4&#45;&gt;Node7 -->
<g id="edge6" class="edge">
<title>Node4&#45;&gt;Node7</title>
<path fill="none" stroke="midnightblue" d="M335.96,-240.98C353.18,-232.66 377.49,-218.42 392,-199 431.48,-146.17 444.4,-66.07 448.37,-29.9"/>
<polygon fill="midnightblue" stroke="midnightblue" points="451.87,-30.09 449.36,-19.79 444.9,-29.4 451.87,-30.09"/>
</g>
<!-- Node9 -->
<g id="node9" class="node">
<title>Node9</title>
<g id="a_node9"><a xlink:href="vector_8_h.html" target="_top" xlink:title=" ">
<polygon fill="white" stroke="black" points="517.5,-123.5 517.5,-142.5 662.5,-142.5 662.5,-123.5 517.5,-123.5"/>
<text text-anchor="middle" x="590" y="-130.5" font-family="Helvetica,sans-Serif" font-size="10.00">amr&#45;wind/core/vs/vector.H</text>
</a>
</g>
</g>
<!-- Node8&#45;&gt;Node9 -->
<g id="edge8" class="edge">
<title>Node8&#45;&gt;Node9</title>
<path fill="none" stroke="midnightblue" d="M488.22,-235.34C509.98,-213.68 551.38,-172.45 574.1,-149.83"/>
<polygon fill="midnightblue" stroke="midnightblue" points="576.68,-152.21 581.29,-142.67 571.74,-147.25 576.68,-152.21"/>
</g>
<!-- Node16 -->
<g id="node16" class="node">
<title>Node16</title>
<g id="a_node16"><a xlink:href="tensor_8_h.html" target="_top" xlink:title=" ">
<polygon fill="white" stroke="black" points="635.5,-179.5 635.5,-198.5 780.5,-198.5 780.5,-179.5 635.5,-179.5"/>
<text text-anchor="middle" x="708" y="-186.5" font-family="Helvetica,sans-Serif" font-size="10.00">amr&#45;wind/core/vs/tensor.H</text>
</a>
</g>
</g>
<!-- Node8&#45;&gt;Node16 -->
<g id="edge17" class="edge">
<title>Node8&#45;&gt;Node16</title>
<path fill="none" stroke="midnightblue" d="M529.16,-235.47C570.59,-224.94 626.53,-210.72 664.75,-201"/>
<polygon fill="midnightblue" stroke="midnightblue" points="665.72,-204.36 674.55,-198.51 663.99,-197.58 665.72,-204.36"/>
</g>
<!-- Node9&#45;&gt;Node7 -->
<g id="edge9" class="edge">
<title>Node9&#45;&gt;Node7</title>
<path fill="none" stroke="midnightblue" d="M568.31,-123.35C550.57,-115.58 525.49,-102.96 507,-87 487.38,-70.06 470.37,-45.28 460.15,-28.67"/>
<polygon fill="midnightblue" stroke="midnightblue" points="463.09,-26.75 454.96,-19.95 457.07,-30.33 463.09,-26.75"/>
</g>
<!-- Node10 -->
<g id="node10" class="node">
<title>Node10</title>
<g id="a_node10"><a xlink:href="vstraits_8_h.html" target="_top" xlink:title=" ">
<polygon fill="white" stroke="black" points="683,-62 683,-81 835,-81 835,-62 683,-62"/>
<text text-anchor="middle" x="759" y="-69" font-family="Helvetica,sans-Serif" font-size="10.00">amr&#45;wind/core/vs/vstraits.H</text>
</a>
</g>
</g>
<!-- Node9&#45;&gt;Node10 -->
<g id="edge10" class="edge">
<title>Node9&#45;&gt;Node10</title>
<path fill="none" stroke="midnightblue" d="M614.21,-123.48C643.33,-113.22 692.37,-95.96 725.2,-84.4"/>
<polygon fill="midnightblue" stroke="midnightblue" points="726.56,-87.63 734.83,-81.01 724.24,-81.03 726.56,-87.63"/>
</g>
<!-- Node13 -->
<g id="node13" class="node">
<title>Node13</title>
<g id="a_node13"><a xlink:href="vector_i_8_h.html" target="_top" xlink:title=" ">
<polygon fill="white" stroke="black" points="515.5,-62 515.5,-81 664.5,-81 664.5,-62 515.5,-62"/>
<text text-anchor="middle" x="590" y="-69" font-family="Helvetica,sans-Serif" font-size="10.00">amr&#45;wind/core/vs/vectorI.H</text>
</a>
</g>
</g>
<!-- Node9&#45;&gt;Node13 -->
<g id="edge13" class="edge">
<title>Node9&#45;&gt;Node13</title>
<path fill="none" stroke="midnightblue" d="M585.1,-123.48C583.27,-115.08 582.8,-101.98 583.69,-91.16"/>
<polygon fill="midnightblue" stroke="midnightblue" points="587.19,-91.4 585.1,-81.01 580.25,-90.43 587.19,-91.4"/>
</g>
<!-- Node11 -->
<g id="node11" class="node">
<title>Node11</title>
<g id="a_node11"><a xlink:title=" ">
<polygon fill="white" stroke="#bfbfbf" points="723,-0.5 723,-19.5 767,-19.5 767,-0.5 723,-0.5"/>
<text text-anchor="middle" x="745" y="-7.5" font-family="Helvetica,sans-Serif" font-size="10.00">limits</text>
</a>
</g>
</g>
<!-- Node10&#45;&gt;Node11 -->
<g id="edge11" class="edge">
<title>Node10&#45;&gt;Node11</title>
<path fill="none" stroke="midnightblue" d="M756.99,-61.98C755,-53.49 751.87,-40.2 749.31,-29.32"/>
<polygon fill="midnightblue" stroke="midnightblue" points="752.7,-28.44 747,-19.51 745.89,-30.04 752.7,-28.44"/>
</g>
<!-- Node12 -->
<g id="node12" class="node">
<title>Node12</title>
<g id="a_node12"><a xlink:title=" ">
<polygon fill="white" stroke="#bfbfbf" points="785,-0.5 785,-19.5 877,-19.5 877,-0.5 785,-0.5"/>
<text text-anchor="middle" x="831" y="-7.5" font-family="Helvetica,sans-Serif" font-size="10.00">AMReX_REAL.H</text>
</a>
</g>
</g>
<!-- Node10&#45;&gt;Node12 -->
<g id="edge12" class="edge">
<title>Node10&#45;&gt;Node12</title>
<path fill="none" stroke="midnightblue" d="M769.32,-61.98C780.65,-52.61 799.07,-37.38 812.84,-26.01"/>
<polygon fill="midnightblue" stroke="midnightblue" points="815.22,-28.58 820.7,-19.51 810.77,-23.18 815.22,-28.58"/>
</g>
<!-- Node13&#45;&gt;Node9 -->
<g id="edge16" class="edge">
<title>Node13&#45;&gt;Node9</title>
<path fill="none" stroke="midnightblue" d="M594.9,-81.01C596.73,-89.4 597.2,-102.5 596.32,-113.32"/>
<polygon fill="midnightblue" stroke="midnightblue" points="592.81,-113.09 594.9,-123.48 599.75,-114.05 592.81,-113.09"/>
</g>
<!-- Node14 -->
<g id="node14" class="node">
<title>Node14</title>
<g id="a_node14"><a xlink:title=" ">
<polygon fill="white" stroke="#bfbfbf" points="561.5,-0.5 561.5,-19.5 618.5,-19.5 618.5,-0.5 561.5,-0.5"/>
<text text-anchor="middle" x="590" y="-7.5" font-family="Helvetica,sans-Serif" font-size="10.00">ostream</text>
</a>
</g>
</g>
<!-- Node13&#45;&gt;Node14 -->
<g id="edge14" class="edge">
<title>Node13&#45;&gt;Node14</title>
<path fill="none" stroke="midnightblue" d="M590,-61.98C590,-53.58 590,-40.48 590,-29.66"/>
<polygon fill="midnightblue" stroke="midnightblue" points="593.5,-29.51 590,-19.51 586.5,-29.51 593.5,-29.51"/>
</g>
<!-- Node15 -->
<g id="node15" class="node">
<title>Node15</title>
<g id="a_node15"><a xlink:title=" ">
<polygon fill="white" stroke="#bfbfbf" points="895.5,-0.5 895.5,-19.5 942.5,-19.5 942.5,-0.5 895.5,-0.5"/>
<text text-anchor="middle" x="919" y="-7.5" font-family="Helvetica,sans-Serif" font-size="10.00">cmath</text>
</a>
</g>
</g>
<!-- Node13&#45;&gt;Node15 -->
<g id="edge15" class="edge">
<title>Node13&#45;&gt;Node15</title>
<path fill="none" stroke="midnightblue" d="M639.3,-61.97C650.69,-60 662.77,-57.92 674,-56 765.07,-40.41 790.97,-40.57 885.31,-19.97"/>
<polygon fill="midnightblue" stroke="midnightblue" points="886.26,-23.34 895.28,-17.77 884.76,-16.5 886.26,-23.34"/>
</g>
<!-- Node16&#45;&gt;Node7 -->
<g id="edge18" class="edge">
<title>Node16&#45;&gt;Node7</title>
<path fill="none" stroke="midnightblue" d="M635.15,-185.25C594.77,-180.56 545.51,-169.28 509,-143 471.41,-115.95 457.36,-59.32 452.44,-29.8"/>
<polygon fill="midnightblue" stroke="midnightblue" points="455.86,-28.99 450.93,-19.62 448.93,-30.02 455.86,-28.99"/>
</g>
<!-- Node16&#45;&gt;Node9 -->
<g id="edge20" class="edge">
<title>Node16&#45;&gt;Node9</title>
<path fill="none" stroke="midnightblue" d="M689.3,-179.44C670.06,-170.64 639.85,-156.81 617.8,-146.72"/>
<polygon fill="midnightblue" stroke="midnightblue" points="619.16,-143.5 608.61,-142.52 616.25,-149.86 619.16,-143.5"/>
</g>
<!-- Node16&#45;&gt;Node10 -->
<g id="edge19" class="edge">
<title>Node16&#45;&gt;Node10</title>
<path fill="none" stroke="midnightblue" d="M711.83,-179.32C720.14,-160.51 739.95,-115.65 751.07,-90.46"/>
<polygon fill="midnightblue" stroke="midnightblue" points="754.28,-91.84 755.12,-81.28 747.88,-89.02 754.28,-91.84"/>
</g>
<!-- Node17 -->
<g id="node17" class="node">
<title>Node17</title>
<g id="a_node17"><a xlink:href="tensor_i_8_h.html" target="_top" xlink:title=" ">
<polygon fill="white" stroke="black" points="791.5,-123.5 791.5,-142.5 940.5,-142.5 940.5,-123.5 791.5,-123.5"/>
<text text-anchor="middle" x="866" y="-130.5" font-family="Helvetica,sans-Serif" font-size="10.00">amr&#45;wind/core/vs/tensorI.H</text>
</a>
</g>
</g>
<!-- Node16&#45;&gt;Node17 -->
<g id="edge21" class="edge">
<title>Node16&#45;&gt;Node17</title>
<path fill="none" stroke="midnightblue" d="M727.95,-179.44C752.64,-170.32 794.89,-155.81 826.24,-145.65"/>
<polygon fill="midnightblue" stroke="midnightblue" points="827.55,-148.91 836,-142.52 825.41,-142.24 827.55,-148.91"/>
</g>
<!-- Node17&#45;&gt;Node15 -->
<g id="edge22" class="edge">
<title>Node17&#45;&gt;Node15</title>
<path fill="none" stroke="midnightblue" d="M910.7,-123.48C931.23,-117.09 953.7,-106.02 966,-87 973.48,-75.43 971.41,-68.67 966,-56 960.85,-43.95 950.72,-33.58 941.17,-25.84"/>
<polygon fill="midnightblue" stroke="midnightblue" points="943.17,-22.96 933.08,-19.74 938.96,-28.55 943.17,-22.96"/>
</g>
<!-- Node17&#45;&gt;Node16 -->
<g id="edge23" class="edge">
<title>Node17&#45;&gt;Node16</title>
<path fill="none" stroke="midnightblue" d="M846.16,-142.52C821.52,-151.62 779.28,-166.13 747.9,-176.3"/>
<polygon fill="midnightblue" stroke="midnightblue" points="746.57,-173.05 738.12,-179.44 748.72,-179.72 746.57,-173.05"/>
</g>
<!-- Node18 -->
<g id="node18" class="node">
<title>Node18</title>
<g id="a_node18"><a xlink:href="trig__ops_8_h.html" target="_top" xlink:title=" ">
<polygon fill="white" stroke="black" points="853.5,-56.5 853.5,-86.5 956.5,-86.5 956.5,-56.5 853.5,-56.5"/>
<text text-anchor="start" x="861.5" y="-74.5" font-family="Helvetica,sans-Serif" font-size="10.00">amr&#45;wind/utilities</text>
<text text-anchor="middle" x="905" y="-63.5" font-family="Helvetica,sans-Serif" font-size="10.00">/trig_ops.H</text>
</a>
</g>
</g>
<!-- Node17&#45;&gt;Node18 -->
<g id="edge24" class="edge">
<title>Node17&#45;&gt;Node18</title>
<path fill="none" stroke="midnightblue" d="M871.59,-123.48C876.43,-116.09 883.65,-105.08 890.14,-95.17"/>
<polygon fill="midnightblue" stroke="midnightblue" points="893.25,-96.81 895.81,-86.52 887.4,-92.97 893.25,-96.81"/>
</g>
<!-- Node18&#45;&gt;Node7 -->
<g id="edge27" class="edge">
<title>Node18&#45;&gt;Node7</title>
<path fill="none" stroke="midnightblue" d="M853.17,-57.73C850.08,-57.11 847,-56.53 844,-56 779.94,-44.77 595.86,-25.61 503.79,-16.34"/>
<polygon fill="midnightblue" stroke="midnightblue" points="504.13,-12.85 493.83,-15.34 503.43,-19.82 504.13,-12.85"/>
</g>
<!-- Node18&#45;&gt;Node12 -->
<g id="edge26" class="edge">
<title>Node18&#45;&gt;Node12</title>
<path fill="none" stroke="midnightblue" d="M887.46,-56.4C876.16,-47.31 861.46,-35.49 849.89,-26.19"/>
<polygon fill="midnightblue" stroke="midnightblue" points="851.75,-23.2 841.77,-19.66 847.37,-28.65 851.75,-23.2"/>
</g>
<!-- Node18&#45;&gt;Node15 -->
<g id="edge25" class="edge">
<title>Node18&#45;&gt;Node15</title>
<path fill="none" stroke="midnightblue" d="M908.32,-56.4C910.21,-48.38 912.59,-38.23 914.63,-29.57"/>
<polygon fill="midnightblue" stroke="midnightblue" points="918.08,-30.19 916.96,-19.66 911.27,-28.59 918.08,-30.19"/>
</g>
<!-- Node22 -->
<g id="node22" class="node">
<title>Node22</title>
<g id="a_node22"><a xlink:href="_multi_parser_8_h.html" target="_top" xlink:title=" ">
<polygon fill="white" stroke="black" points="396.5,-308 396.5,-327 551.5,-327 551.5,-308 396.5,-308"/>
<text text-anchor="middle" x="474" y="-315" font-family="Helvetica,sans-Serif" font-size="10.00">amr&#45;wind/core/MultiParser.H</text>
</a>
</g>
</g>
<!-- Node21&#45;&gt;Node22 -->
<g id="edge32" class="edge">
<title>Node21&#45;&gt;Node22</title>
<path fill="none" stroke="midnightblue" d="M422.95,-374.73C433.4,-363.23 448.1,-347.03 459.05,-334.97"/>
<polygon fill="midnightblue" stroke="midnightblue" points="461.8,-337.15 465.93,-327.39 456.61,-332.44 461.8,-337.15"/>
</g>
<!-- Node22&#45;&gt;Node8 -->
<g id="edge33" class="edge">
<title>Node22&#45;&gt;Node8</title>
<path fill="none" stroke="midnightblue" d="M474,-307.73C474,-299.54 474,-286.92 474,-275.71"/>
<polygon fill="midnightblue" stroke="midnightblue" points="477.5,-275.59 474,-265.59 470.5,-275.59 477.5,-275.59"/>
</g>
<!-- Node23 -->
<g id="node23" class="node">
<title>Node23</title>
<g id="a_node23"><a xlink:title=" ">
<polygon fill="white" stroke="#bfbfbf" points="559.5,-241 559.5,-260 678.5,-260 678.5,-241 559.5,-241"/>
<text text-anchor="middle" x="619" y="-248" font-family="Helvetica,sans-Serif" font-size="10.00">AMReX_ParmParse.H</text>
</a>
</g>
</g>
<!-- Node22&#45;&gt;Node23 -->
<g id="edge34" class="edge">
<title>Node22&#45;&gt;Node23</title>
<path fill="none" stroke="midnightblue" d="M493.25,-307.87C518.17,-296.7 561.79,-277.15 590.53,-264.26"/>
<polygon fill="midnightblue" stroke="midnightblue" points="591.97,-267.45 599.67,-260.17 589.11,-261.06 591.97,-267.45"/>
</g>
</g>
</svg>
