<?xml version="1.0" encoding="UTF-8" standalone="no"?>
<!DOCTYPE svg PUBLIC "-//W3C//DTD SVG 1.1//EN"
 "http://www.w3.org/Graphics/SVG/1.1/DTD/svg11.dtd">
<!-- Generated by graphviz version 2.43.0 (0)
 -->
<!-- Title: turbine_utils.cpp Pages: 1 -->
<!--zoomable 553 -->
<svg id="main" version="1.1" xmlns="http://www.w3.org/2000/svg" xmlns:xlink="http://www.w3.org/1999/xlink" xml:space="preserve" onload="init(evt)">
<style type="text/css"><![CDATA[
.edge:hover path { stroke: red; }
.edge:hover polygon { stroke: red; fill: red; }
]]></style>
<script type="text/javascript"><![CDATA[
var edges = document.getElementsByTagName('g');
if (edges && edges.length) {
  for (var i=0;i<edges.length;i++) {
    if (edges[i].id.substr(0,4)=='edge') {
      edges[i].setAttribute('class','edge');
    }
  }
}
]]></script>
        <defs>
                <circle id="rim" cx="0" cy="0" r="7"/>
                <circle id="rim2" cx="0" cy="0" r="3.5"/>
                <g id="zoomPlus">
                        <use xlink:href="#rim" fill="#404040">
                                <set attributeName="fill" to="#808080" begin="zoomplus.mouseover" end="zoomplus.mouseout"/>
                        </use>
                        <path d="M-4,0h8M0,-4v8" fill="none" stroke="white" stroke-width="1.5" pointer-events="none"/>
                </g>
                <g id="zoomMin">
                        <use xlink:href="#rim" fill="#404040">
                                <set attributeName="fill" to="#808080" begin="zoomminus.mouseover" end="zoomminus.mouseout"/>
                        </use>
                        <path d="M-4,0h8" fill="none" stroke="white" stroke-width="1.5" pointer-events="none"/>
                </g>
                <g id="dirArrow">
                        <path fill="none" stroke="white" stroke-width="1.5" d="M0,-3.0v7 M-2.5,-0.5L0,-3.0L2.5,-0.5"/>
                </g>
               <g id="resetDef">
                       <use xlink:href="#rim2" fill="#404040">
                               <set attributeName="fill" to="#808080" begin="reset.mouseover" end="reset.mouseout"/>
                       </use>
               </g>
        </defs>

<script type="text/javascript">
var viewWidth = 1048;
var viewHeight = 553;
var sectionId = 'dynsection-0';
</script>
<script xlink:href="svgpan.js"/>
<svg id="graph" class="graph">
<g id="viewport">
<title>turbine_utils.cpp</title>
<polygon fill="white" stroke="transparent" points="-4,4 -4,-549 1043.5,-549 1043.5,4 -4,4"/>
<!-- Node1 -->
<g id="node1" class="node">
<title>Node1</title>
<g id="a_node1"><a xlink:title=" ">
<polygon fill="#bfbfbf" stroke="black" points="588.5,-525.5 588.5,-544.5 686.5,-544.5 686.5,-525.5 588.5,-525.5"/>
<text text-anchor="middle" x="637.5" y="-532.5" font-family="Helvetica,sans-Serif" font-size="10.00">turbine_utils.cpp</text>
</a>
</g>
</g>
<!-- Node2 -->
<g id="node2" class="node">
<title>Node2</title>
<g id="a_node2"><a xlink:href="turbine__utils_8_h.html" target="_top" xlink:title=" ">
<polygon fill="white" stroke="black" points="255,-447.5 255,-488.5 390,-488.5 390,-447.5 255,-447.5"/>
<text text-anchor="start" x="263" y="-476.5" font-family="Helvetica,sans-Serif" font-size="10.00">amr&#45;wind/wind_energy</text>
<text text-anchor="start" x="263" y="-465.5" font-family="Helvetica,sans-Serif" font-size="10.00">/actuator/turbine/turbine</text>
<text text-anchor="middle" x="322.5" y="-454.5" font-family="Helvetica,sans-Serif" font-size="10.00">_utils.H</text>
</a>
</g>
</g>
<!-- Node1&#45;&gt;Node2 -->
<g id="edge1" class="edge">
<title>Node1&#45;&gt;Node2</title>
<path fill="none" stroke="midnightblue" d="M596,-525.44C546.3,-515.18 462.05,-497.8 400.15,-485.02"/>
<polygon fill="midnightblue" stroke="midnightblue" points="400.54,-481.53 390.03,-482.94 399.12,-488.38 400.54,-481.53"/>
</g>
<!-- Node25 -->
<g id="node25" class="node">
<title>Node25</title>
<g id="a_node25"><a xlink:href="nc__interface_8_h.html" target="_top" xlink:title=" ">
<polygon fill="white" stroke="black" points="575,-453 575,-483 700,-483 700,-453 575,-453"/>
<text text-anchor="start" x="583" y="-471" font-family="Helvetica,sans-Serif" font-size="10.00">amr&#45;wind/utilities</text>
<text text-anchor="middle" x="637.5" y="-460" font-family="Helvetica,sans-Serif" font-size="10.00">/ncutils/nc_interface.H</text>
</a>
</g>
</g>
<!-- Node1&#45;&gt;Node25 -->
<g id="edge36" class="edge">
<title>Node1&#45;&gt;Node25</title>
<path fill="none" stroke="midnightblue" d="M637.5,-525.23C637.5,-517.04 637.5,-504.42 637.5,-493.21"/>
<polygon fill="midnightblue" stroke="midnightblue" points="641,-493.09 637.5,-483.09 634,-493.09 641,-493.09"/>
</g>
<!-- Node31 -->
<g id="node31" class="node">
<title>Node31</title>
<g id="a_node31"><a xlink:href="io__utils_8_h.html" target="_top" xlink:title=" ">
<polygon fill="white" stroke="black" points="820,-453 820,-483 923,-483 923,-453 820,-453"/>
<text text-anchor="start" x="828" y="-471" font-family="Helvetica,sans-Serif" font-size="10.00">amr&#45;wind/utilities</text>
<text text-anchor="middle" x="871.5" y="-460" font-family="Helvetica,sans-Serif" font-size="10.00">/io_utils.H</text>
</a>
</g>
</g>
<!-- Node1&#45;&gt;Node31 -->
<g id="edge42" class="edge">
<title>Node1&#45;&gt;Node31</title>
<path fill="none" stroke="midnightblue" d="M668.57,-525.37C704.83,-515.3 765.61,-498.41 811.22,-485.74"/>
<polygon fill="midnightblue" stroke="midnightblue" points="812.3,-489.08 821,-483.03 810.43,-482.33 812.3,-489.08"/>
</g>
<!-- Node3 -->
<g id="node3" class="node">
<title>Node3</title>
<g id="a_node3"><a xlink:href="turbine__types_8_h.html" target="_top" xlink:title=" ">
<polygon fill="white" stroke="black" points="255,-369.5 255,-410.5 390,-410.5 390,-369.5 255,-369.5"/>
<text text-anchor="start" x="263" y="-398.5" font-family="Helvetica,sans-Serif" font-size="10.00">amr&#45;wind/wind_energy</text>
<text text-anchor="start" x="263" y="-387.5" font-family="Helvetica,sans-Serif" font-size="10.00">/actuator/turbine/turbine</text>
<text text-anchor="middle" x="322.5" y="-376.5" font-family="Helvetica,sans-Serif" font-size="10.00">_types.H</text>
</a>
</g>
</g>
<!-- Node2&#45;&gt;Node3 -->
<g id="edge2" class="edge">
<title>Node2&#45;&gt;Node3</title>
<path fill="none" stroke="midnightblue" d="M322.5,-447.43C322.5,-439.27 322.5,-429.62 322.5,-420.63"/>
<polygon fill="midnightblue" stroke="midnightblue" points="326,-420.51 322.5,-410.51 319,-420.51 326,-420.51"/>
</g>
<!-- Node22 -->
<g id="node22" class="node">
<title>Node22</title>
<g id="a_node22"><a xlink:href="_act_parser_8_h.html" target="_top" xlink:title=" ">
<polygon fill="white" stroke="black" points="108.5,-375 108.5,-405 236.5,-405 236.5,-375 108.5,-375"/>
<text text-anchor="start" x="116.5" y="-393" font-family="Helvetica,sans-Serif" font-size="10.00">amr&#45;wind/wind_energy</text>
<text text-anchor="middle" x="172.5" y="-382" font-family="Helvetica,sans-Serif" font-size="10.00">/actuator/ActParser.H</text>
</a>
</g>
</g>
<!-- Node2&#45;&gt;Node22 -->
<g id="edge32" class="edge">
<title>Node2&#45;&gt;Node22</title>
<path fill="none" stroke="midnightblue" d="M283.87,-447.43C260.98,-435.83 232.13,-421.21 209.53,-409.76"/>
<polygon fill="midnightblue" stroke="midnightblue" points="211.08,-406.62 200.58,-405.23 207.91,-412.87 211.08,-406.62"/>
</g>
<!-- Node4 -->
<g id="node4" class="node">
<title>Node4</title>
<g id="a_node4"><a xlink:href="actuator__types_8_h.html" target="_top" xlink:title=" ">
<polygon fill="white" stroke="black" points="370.5,-302.5 370.5,-332.5 516.5,-332.5 516.5,-302.5 370.5,-302.5"/>
<text text-anchor="start" x="378.5" y="-320.5" font-family="Helvetica,sans-Serif" font-size="10.00">amr&#45;wind/wind_energy</text>
<text text-anchor="middle" x="443.5" y="-309.5" font-family="Helvetica,sans-Serif" font-size="10.00">/actuator/actuator_types.H</text>
</a>
</g>
</g>
<!-- Node3&#45;&gt;Node4 -->
<g id="edge3" class="edge">
<title>Node3&#45;&gt;Node4</title>
<path fill="none" stroke="midnightblue" d="M356.21,-369.36C373.08,-359.53 393.44,-347.67 410.25,-337.87"/>
<polygon fill="midnightblue" stroke="midnightblue" points="412.3,-340.73 419.18,-332.67 408.78,-334.68 412.3,-340.73"/>
</g>
<!-- Node5 -->
<g id="node5" class="node">
<title>Node5</title>
<g id="a_node5"><a xlink:href="_slice_8_h.html" target="_top" xlink:title=" ">
<polygon fill="white" stroke="black" points="521.5,-241 521.5,-260 645.5,-260 645.5,-241 521.5,-241"/>
<text text-anchor="middle" x="583.5" y="-248" font-family="Helvetica,sans-Serif" font-size="10.00">amr&#45;wind/core/Slice.H</text>
</a>
</g>
</g>
<!-- Node4&#45;&gt;Node5 -->
<g id="edge4" class="edge">
<title>Node4&#45;&gt;Node5</title>
<path fill="none" stroke="midnightblue" d="M473.88,-302.4C498.33,-291.04 532.41,-275.22 556.05,-264.24"/>
<polygon fill="midnightblue" stroke="midnightblue" points="557.58,-267.39 565.18,-260.01 554.63,-261.04 557.58,-267.39"/>
</g>
<!-- Node8 -->
<g id="node8" class="node">
<title>Node8</title>
<g id="a_node8"><a xlink:title=" ">
<polygon fill="white" stroke="#bfbfbf" points="502,-0.5 502,-19.5 589,-19.5 589,-0.5 502,-0.5"/>
<text text-anchor="middle" x="545.5" y="-7.5" font-family="Helvetica,sans-Serif" font-size="10.00">AMReX_Gpu.H</text>
</a>
</g>
</g>
<!-- Node4&#45;&gt;Node8 -->
<g id="edge29" class="edge">
<title>Node4&#45;&gt;Node8</title>
<path fill="none" stroke="midnightblue" d="M516.55,-315.52C603.62,-310.03 737.5,-285.99 737.5,-190 737.5,-190 737.5,-190 737.5,-132 737.5,-66.21 655.82,-34.77 599.01,-20.85"/>
<polygon fill="midnightblue" stroke="midnightblue" points="599.6,-17.4 589.07,-18.53 598.01,-24.21 599.6,-17.4"/>
</g>
<!-- Node9 -->
<g id="node9" class="node">
<title>Node9</title>
<g id="a_node9"><a xlink:href="vector__space_8_h.html" target="_top" xlink:title=" ">
<polygon fill="white" stroke="black" points="192,-235.5 192,-265.5 327,-265.5 327,-235.5 192,-235.5"/>
<text text-anchor="start" x="200" y="-253.5" font-family="Helvetica,sans-Serif" font-size="10.00">amr&#45;wind/core/vs/vector</text>
<text text-anchor="middle" x="259.5" y="-242.5" font-family="Helvetica,sans-Serif" font-size="10.00">_space.H</text>
</a>
</g>
</g>
<!-- Node4&#45;&gt;Node9 -->
<g id="edge8" class="edge">
<title>Node4&#45;&gt;Node9</title>
<path fill="none" stroke="midnightblue" d="M403.57,-302.4C375.85,-292.6 338.71,-279.48 309.08,-269.02"/>
<polygon fill="midnightblue" stroke="midnightblue" points="309.94,-265.61 299.35,-265.58 307.61,-272.21 309.94,-265.61"/>
</g>
<!-- Node20 -->
<g id="node20" class="node">
<title>Node20</title>
<g id="a_node20"><a xlink:title=" ">
<polygon fill="white" stroke="#bfbfbf" points="345.5,-241 345.5,-260 453.5,-260 453.5,-241 345.5,-241"/>
<text text-anchor="middle" x="399.5" y="-248" font-family="Helvetica,sans-Serif" font-size="10.00">AMReX_RealBox.H</text>
</a>
</g>
</g>
<!-- Node4&#45;&gt;Node20 -->
<g id="edge30" class="edge">
<title>Node4&#45;&gt;Node20</title>
<path fill="none" stroke="midnightblue" d="M433.95,-302.4C427.23,-292.46 418.19,-279.11 411.06,-268.57"/>
<polygon fill="midnightblue" stroke="midnightblue" points="413.89,-266.51 405.39,-260.19 408.09,-270.44 413.89,-266.51"/>
</g>
<!-- Node21 -->
<g id="node21" class="node">
<title>Node21</title>
<g id="a_node21"><a xlink:title=" ">
<polygon fill="white" stroke="#bfbfbf" points="471.5,-241 471.5,-260 503.5,-260 503.5,-241 471.5,-241"/>
<text text-anchor="middle" x="487.5" y="-248" font-family="Helvetica,sans-Serif" font-size="10.00">set</text>
</a>
</g>
</g>
<!-- Node4&#45;&gt;Node21 -->
<g id="edge31" class="edge">
<title>Node4&#45;&gt;Node21</title>
<path fill="none" stroke="midnightblue" d="M453.05,-302.4C459.77,-292.46 468.81,-279.11 475.94,-268.57"/>
<polygon fill="midnightblue" stroke="midnightblue" points="478.91,-270.44 481.61,-260.19 473.11,-266.51 478.91,-270.44"/>
</g>
<!-- Node6 -->
<g id="node6" class="node">
<title>Node6</title>
<g id="a_node6"><a xlink:title=" ">
<polygon fill="white" stroke="#bfbfbf" points="502,-179.5 502,-198.5 555,-198.5 555,-179.5 502,-179.5"/>
<text text-anchor="middle" x="528.5" y="-186.5" font-family="Helvetica,sans-Serif" font-size="10.00">iterator</text>
</a>
</g>
</g>
<!-- Node5&#45;&gt;Node6 -->
<g id="edge5" class="edge">
<title>Node5&#45;&gt;Node6</title>
<path fill="none" stroke="midnightblue" d="M575.62,-240.98C567.21,-231.87 553.68,-217.24 543.27,-205.98"/>
<polygon fill="midnightblue" stroke="midnightblue" points="545.72,-203.48 536.37,-198.51 540.58,-208.23 545.72,-203.48"/>
</g>
<!-- Node7 -->
<g id="node7" class="node">
<title>Node7</title>
<g id="a_node7"><a xlink:title=" ">
<polygon fill="white" stroke="#bfbfbf" points="611.5,-179.5 611.5,-198.5 709.5,-198.5 709.5,-179.5 611.5,-179.5"/>
<text text-anchor="middle" x="660.5" y="-186.5" font-family="Helvetica,sans-Serif" font-size="10.00">AMReX_Vector.H</text>
</a>
</g>
</g>
<!-- Node5&#45;&gt;Node7 -->
<g id="edge6" class="edge">
<title>Node5&#45;&gt;Node7</title>
<path fill="none" stroke="midnightblue" d="M594.53,-240.98C606.77,-231.52 626.73,-216.1 641.49,-204.69"/>
<polygon fill="midnightblue" stroke="midnightblue" points="643.72,-207.39 649.49,-198.51 639.44,-201.85 643.72,-207.39"/>
</g>
<!-- Node5&#45;&gt;Node8 -->
<g id="edge7" class="edge">
<title>Node5&#45;&gt;Node8</title>
<path fill="none" stroke="midnightblue" d="M582.1,-240.73C576.57,-206.03 556.16,-77.89 548.46,-29.59"/>
<polygon fill="midnightblue" stroke="midnightblue" points="551.9,-28.92 546.87,-19.6 544.99,-30.03 551.9,-28.92"/>
</g>
<!-- Node10 -->
<g id="node10" class="node">
<title>Node10</title>
<g id="a_node10"><a xlink:href="vector_8_h.html" target="_top" xlink:title=" ">
<polygon fill="white" stroke="black" points="96,-123.5 96,-142.5 241,-142.5 241,-123.5 96,-123.5"/>
<text text-anchor="middle" x="168.5" y="-130.5" font-family="Helvetica,sans-Serif" font-size="10.00">amr&#45;wind/core/vs/vector.H</text>
</a>
</g>
</g>
<!-- Node9&#45;&gt;Node10 -->
<g id="edge9" class="edge">
<title>Node9&#45;&gt;Node10</title>
<path fill="none" stroke="midnightblue" d="M244.11,-235.18C234.03,-225.44 220.84,-212 210.5,-199 198.38,-183.77 186.53,-164.97 178.53,-151.51"/>
<polygon fill="midnightblue" stroke="midnightblue" points="181.49,-149.65 173.43,-142.78 175.45,-153.18 181.49,-149.65"/>
</g>
<!-- Node17 -->
<g id="node17" class="node">
<title>Node17</title>
<g id="a_node17"><a xlink:href="tensor_8_h.html" target="_top" xlink:title=" ">
<polygon fill="white" stroke="black" points="220,-179.5 220,-198.5 365,-198.5 365,-179.5 220,-179.5"/>
<text text-anchor="middle" x="292.5" y="-186.5" font-family="Helvetica,sans-Serif" font-size="10.00">amr&#45;wind/core/vs/tensor.H</text>
</a>
</g>
</g>
<!-- Node9&#45;&gt;Node17 -->
<g id="edge18" class="edge">
<title>Node9&#45;&gt;Node17</title>
<path fill="none" stroke="midnightblue" d="M267.32,-235.4C271.97,-227.02 277.9,-216.33 282.84,-207.42"/>
<polygon fill="midnightblue" stroke="midnightblue" points="285.91,-209.1 287.7,-198.66 279.79,-205.71 285.91,-209.1"/>
</g>
<!-- Node10&#45;&gt;Node8 -->
<g id="edge10" class="edge">
<title>Node10&#45;&gt;Node8</title>
<path fill="none" stroke="midnightblue" d="M241.01,-124.77C328.81,-115.55 467.61,-99.34 488.5,-87 511.4,-73.48 528.07,-46.84 537.27,-28.97"/>
<polygon fill="midnightblue" stroke="midnightblue" points="540.47,-30.38 541.71,-19.86 534.18,-27.31 540.47,-30.38"/>
</g>
<!-- Node11 -->
<g id="node11" class="node">
<title>Node11</title>
<g id="a_node11"><a xlink:href="vstraits_8_h.html" target="_top" xlink:title=" ">
<polygon fill="white" stroke="black" points="167.5,-62 167.5,-81 319.5,-81 319.5,-62 167.5,-62"/>
<text text-anchor="middle" x="243.5" y="-69" font-family="Helvetica,sans-Serif" font-size="10.00">amr&#45;wind/core/vs/vstraits.H</text>
</a>
</g>
</g>
<!-- Node10&#45;&gt;Node11 -->
<g id="edge11" class="edge">
<title>Node10&#45;&gt;Node11</title>
<path fill="none" stroke="midnightblue" d="M179.25,-123.48C191.05,-114.11 210.24,-98.88 224.58,-87.51"/>
<polygon fill="midnightblue" stroke="midnightblue" points="227.12,-89.97 232.77,-81.01 222.76,-84.48 227.12,-89.97"/>
</g>
<!-- Node14 -->
<g id="node14" class="node">
<title>Node14</title>
<g id="a_node14"><a xlink:href="vector_i_8_h.html" target="_top" xlink:title=" ">
<polygon fill="white" stroke="black" points="0,-62 0,-81 149,-81 149,-62 0,-62"/>
<text text-anchor="middle" x="74.5" y="-69" font-family="Helvetica,sans-Serif" font-size="10.00">amr&#45;wind/core/vs/vectorI.H</text>
</a>
</g>
</g>
<!-- Node10&#45;&gt;Node14 -->
<g id="edge14" class="edge">
<title>Node10&#45;&gt;Node14</title>
<path fill="none" stroke="midnightblue" d="M150.13,-123.48C132.97,-113.93 107.96,-98.31 91.33,-86.87"/>
<polygon fill="midnightblue" stroke="midnightblue" points="93.23,-83.93 83.05,-81.01 89.19,-89.64 93.23,-83.93"/>
</g>
<!-- Node12 -->
<g id="node12" class="node">
<title>Node12</title>
<g id="a_node12"><a xlink:title=" ">
<polygon fill="white" stroke="#bfbfbf" points="221.5,-0.5 221.5,-19.5 265.5,-19.5 265.5,-0.5 221.5,-0.5"/>
<text text-anchor="middle" x="243.5" y="-7.5" font-family="Helvetica,sans-Serif" font-size="10.00">limits</text>
</a>
</g>
</g>
<!-- Node11&#45;&gt;Node12 -->
<g id="edge12" class="edge">
<title>Node11&#45;&gt;Node12</title>
<path fill="none" stroke="midnightblue" d="M243.5,-61.98C243.5,-53.58 243.5,-40.48 243.5,-29.66"/>
<polygon fill="midnightblue" stroke="midnightblue" points="247,-29.51 243.5,-19.51 240,-29.51 247,-29.51"/>
</g>
<!-- Node13 -->
<g id="node13" class="node">
<title>Node13</title>
<g id="a_node13"><a xlink:title=" ">
<polygon fill="white" stroke="#bfbfbf" points="381.5,-0.5 381.5,-19.5 473.5,-19.5 473.5,-0.5 381.5,-0.5"/>
<text text-anchor="middle" x="427.5" y="-7.5" font-family="Helvetica,sans-Serif" font-size="10.00">AMReX_REAL.H</text>
</a>
</g>
</g>
<!-- Node11&#45;&gt;Node13 -->
<g id="edge13" class="edge">
<title>Node11&#45;&gt;Node13</title>
<path fill="none" stroke="midnightblue" d="M269.86,-61.98C301.84,-51.64 355.88,-34.16 391.62,-22.6"/>
<polygon fill="midnightblue" stroke="midnightblue" points="392.75,-25.92 401.19,-19.51 390.59,-19.26 392.75,-25.92"/>
</g>
<!-- Node14&#45;&gt;Node10 -->
<g id="edge17" class="edge">
<title>Node14&#45;&gt;Node10</title>
<path fill="none" stroke="midnightblue" d="M92.84,-81.01C109.99,-90.55 135,-106.17 151.65,-117.61"/>
<polygon fill="midnightblue" stroke="midnightblue" points="149.75,-120.56 159.93,-123.48 153.79,-114.84 149.75,-120.56"/>
</g>
<!-- Node15 -->
<g id="node15" class="node">
<title>Node15</title>
<g id="a_node15"><a xlink:title=" ">
<polygon fill="white" stroke="#bfbfbf" points="46,-0.5 46,-19.5 103,-19.5 103,-0.5 46,-0.5"/>
<text text-anchor="middle" x="74.5" y="-7.5" font-family="Helvetica,sans-Serif" font-size="10.00">ostream</text>
</a>
</g>
</g>
<!-- Node14&#45;&gt;Node15 -->
<g id="edge15" class="edge">
<title>Node14&#45;&gt;Node15</title>
<path fill="none" stroke="midnightblue" d="M74.5,-61.98C74.5,-53.58 74.5,-40.48 74.5,-29.66"/>
<polygon fill="midnightblue" stroke="midnightblue" points="78,-29.51 74.5,-19.51 71,-29.51 78,-29.51"/>
</g>
<!-- Node16 -->
<g id="node16" class="node">
<title>Node16</title>
<g id="a_node16"><a xlink:title=" ">
<polygon fill="white" stroke="#bfbfbf" points="316,-0.5 316,-19.5 363,-19.5 363,-0.5 316,-0.5"/>
<text text-anchor="middle" x="339.5" y="-7.5" font-family="Helvetica,sans-Serif" font-size="10.00">cmath</text>
</a>
</g>
</g>
<!-- Node14&#45;&gt;Node16 -->
<g id="edge16" class="edge">
<title>Node14&#45;&gt;Node16</title>
<path fill="none" stroke="midnightblue" d="M112.47,-61.98C164.31,-50.34 256.43,-29.65 305.89,-18.55"/>
<polygon fill="midnightblue" stroke="midnightblue" points="306.78,-21.93 315.77,-16.33 305.25,-15.1 306.78,-21.93"/>
</g>
<!-- Node17&#45;&gt;Node8 -->
<g id="edge19" class="edge">
<title>Node17&#45;&gt;Node8</title>
<path fill="none" stroke="midnightblue" d="M347.4,-179.45C380.21,-172.77 421.92,-161.43 455.5,-143 488.05,-125.13 496.7,-117.76 517.5,-87 529.53,-69.21 537.17,-45.59 541.38,-29.43"/>
<polygon fill="midnightblue" stroke="midnightblue" points="544.81,-30.15 543.76,-19.6 538.01,-28.5 544.81,-30.15"/>
</g>
<!-- Node17&#45;&gt;Node10 -->
<g id="edge21" class="edge">
<title>Node17&#45;&gt;Node10</title>
<path fill="none" stroke="midnightblue" d="M272.85,-179.44C252.54,-170.6 220.6,-156.69 197.4,-146.59"/>
<polygon fill="midnightblue" stroke="midnightblue" points="198.62,-143.3 188.06,-142.52 195.83,-149.72 198.62,-143.3"/>
</g>
<!-- Node17&#45;&gt;Node11 -->
<g id="edge20" class="edge">
<title>Node17&#45;&gt;Node11</title>
<path fill="none" stroke="midnightblue" d="M288.82,-179.32C280.87,-160.59 261.97,-116.05 251.26,-90.79"/>
<polygon fill="midnightblue" stroke="midnightblue" points="254.35,-89.12 247.23,-81.28 247.91,-91.85 254.35,-89.12"/>
</g>
<!-- Node18 -->
<g id="node18" class="node">
<title>Node18</title>
<g id="a_node18"><a xlink:href="tensor_i_8_h.html" target="_top" xlink:title=" ">
<polygon fill="white" stroke="black" points="297,-123.5 297,-142.5 446,-142.5 446,-123.5 297,-123.5"/>
<text text-anchor="middle" x="371.5" y="-130.5" font-family="Helvetica,sans-Serif" font-size="10.00">amr&#45;wind/core/vs/tensorI.H</text>
</a>
</g>
</g>
<!-- Node17&#45;&gt;Node18 -->
<g id="edge22" class="edge">
<title>Node17&#45;&gt;Node18</title>
<path fill="none" stroke="midnightblue" d="M300.08,-179.32C310.58,-170.9 329.19,-157.97 344.9,-148.07"/>
<polygon fill="midnightblue" stroke="midnightblue" points="347.04,-150.87 353.73,-142.65 343.38,-144.9 347.04,-150.87"/>
</g>
<!-- Node18&#45;&gt;Node16 -->
<g id="edge23" class="edge">
<title>Node18&#45;&gt;Node16</title>
<path fill="none" stroke="midnightblue" d="M369.2,-123.3C364.03,-103.76 351.42,-56.06 344.41,-29.55"/>
<polygon fill="midnightblue" stroke="midnightblue" points="347.72,-28.4 341.78,-19.62 340.95,-30.19 347.72,-28.4"/>
</g>
<!-- Node18&#45;&gt;Node17 -->
<g id="edge24" class="edge">
<title>Node18&#45;&gt;Node17</title>
<path fill="none" stroke="midnightblue" d="M363.73,-142.83C353.19,-151.26 334.7,-164.1 319.08,-173.94"/>
<polygon fill="midnightblue" stroke="midnightblue" points="317,-171.11 310.31,-179.32 320.66,-177.07 317,-171.11"/>
</g>
<!-- Node19 -->
<g id="node19" class="node">
<title>Node19</title>
<g id="a_node19"><a xlink:href="trig__ops_8_h.html" target="_top" xlink:title=" ">
<polygon fill="white" stroke="black" points="376,-56.5 376,-86.5 479,-86.5 479,-56.5 376,-56.5"/>
<text text-anchor="start" x="384" y="-74.5" font-family="Helvetica,sans-Serif" font-size="10.00">amr&#45;wind/utilities</text>
<text text-anchor="middle" x="427.5" y="-63.5" font-family="Helvetica,sans-Serif" font-size="10.00">/trig_ops.H</text>
</a>
</g>
</g>
<!-- Node18&#45;&gt;Node19 -->
<g id="edge25" class="edge">
<title>Node18&#45;&gt;Node19</title>
<path fill="none" stroke="midnightblue" d="M379.52,-123.48C386.75,-115.79 397.69,-104.17 407.3,-93.96"/>
<polygon fill="midnightblue" stroke="midnightblue" points="410,-96.2 414.3,-86.52 404.9,-91.41 410,-96.2"/>
</g>
<!-- Node19&#45;&gt;Node8 -->
<g id="edge28" class="edge">
<title>Node19&#45;&gt;Node8</title>
<path fill="none" stroke="midnightblue" d="M455.46,-56.4C474.82,-46.64 500.41,-33.74 519.36,-24.18"/>
<polygon fill="midnightblue" stroke="midnightblue" points="520.98,-27.29 528.33,-19.66 517.83,-21.04 520.98,-27.29"/>
</g>
<!-- Node19&#45;&gt;Node13 -->
<g id="edge27" class="edge">
<title>Node19&#45;&gt;Node13</title>
<path fill="none" stroke="midnightblue" d="M427.5,-56.4C427.5,-48.47 427.5,-38.46 427.5,-29.86"/>
<polygon fill="midnightblue" stroke="midnightblue" points="431,-29.66 427.5,-19.66 424,-29.66 431,-29.66"/>
</g>
<!-- Node19&#45;&gt;Node16 -->
<g id="edge26" class="edge">
<title>Node19&#45;&gt;Node16</title>
<path fill="none" stroke="midnightblue" d="M406.65,-56.4C392.8,-47.04 374.69,-34.79 360.76,-25.38"/>
<polygon fill="midnightblue" stroke="midnightblue" points="362.55,-22.36 352.3,-19.66 358.63,-28.16 362.55,-22.36"/>
</g>
<!-- Node23 -->
<g id="node23" class="node">
<title>Node23</title>
<g id="a_node23"><a xlink:href="_multi_parser_8_h.html" target="_top" xlink:title=" ">
<polygon fill="white" stroke="black" points="95,-308 95,-327 250,-327 250,-308 95,-308"/>
<text text-anchor="middle" x="172.5" y="-315" font-family="Helvetica,sans-Serif" font-size="10.00">amr&#45;wind/core/MultiParser.H</text>
</a>
</g>
</g>
<!-- Node22&#45;&gt;Node23 -->
<g id="edge33" class="edge">
<title>Node22&#45;&gt;Node23</title>
<path fill="none" stroke="midnightblue" d="M172.5,-374.73C172.5,-364 172.5,-349.19 172.5,-337.46"/>
<polygon fill="midnightblue" stroke="midnightblue" points="176,-337.39 172.5,-327.39 169,-337.39 176,-337.39"/>
</g>
<!-- Node23&#45;&gt;Node9 -->
<g id="edge34" class="edge">
<title>Node23&#45;&gt;Node9</title>
<path fill="none" stroke="midnightblue" d="M184.23,-307.73C196.56,-298.53 216.36,-283.73 232.56,-271.63"/>
<polygon fill="midnightblue" stroke="midnightblue" points="234.73,-274.38 240.64,-265.59 230.54,-268.77 234.73,-274.38"/>
</g>
<!-- Node24 -->
<g id="node24" class="node">
<title>Node24</title>
<g id="a_node24"><a xlink:title=" ">
<polygon fill="white" stroke="#bfbfbf" points="55,-241 55,-260 174,-260 174,-241 55,-241"/>
<text text-anchor="middle" x="114.5" y="-248" font-family="Helvetica,sans-Serif" font-size="10.00">AMReX_ParmParse.H</text>
</a>
</g>
</g>
<!-- Node23&#45;&gt;Node24 -->
<g id="edge35" class="edge">
<title>Node23&#45;&gt;Node24</title>
<path fill="none" stroke="midnightblue" d="M164.68,-307.73C155.55,-297.5 140.26,-280.36 128.95,-267.69"/>
<polygon fill="midnightblue" stroke="midnightblue" points="131.47,-265.26 122.2,-260.13 126.24,-269.92 131.47,-265.26"/>
</g>
<!-- Node26 -->
<g id="node26" class="node">
<title>Node26</title>
<g id="a_node26"><a xlink:title=" ">
<polygon fill="white" stroke="#bfbfbf" points="753.5,-380.5 753.5,-399.5 797.5,-399.5 797.5,-380.5 753.5,-380.5"/>
<text text-anchor="middle" x="775.5" y="-387.5" font-family="Helvetica,sans-Serif" font-size="10.00">string</text>
</a>
</g>
</g>
<!-- Node25&#45;&gt;Node26 -->
<g id="edge37" class="edge">
<title>Node25&#45;&gt;Node26</title>
<path fill="none" stroke="midnightblue" d="M666.04,-452.95C687.82,-442.02 718.41,-426.2 744.5,-411 747.64,-409.17 750.91,-407.17 754.1,-405.17"/>
<polygon fill="midnightblue" stroke="midnightblue" points="756.18,-407.99 762.69,-399.63 752.39,-402.1 756.18,-407.99"/>
</g>
<!-- Node27 -->
<g id="node27" class="node">
<title>Node27</title>
<g id="a_node27"><a xlink:title=" ">
<polygon fill="white" stroke="#bfbfbf" points="503,-380.5 503,-399.5 596,-399.5 596,-380.5 503,-380.5"/>
<text text-anchor="middle" x="549.5" y="-387.5" font-family="Helvetica,sans-Serif" font-size="10.00">unordered_map</text>
</a>
</g>
</g>
<!-- Node25&#45;&gt;Node27 -->
<g id="edge38" class="edge">
<title>Node25&#45;&gt;Node27</title>
<path fill="none" stroke="midnightblue" d="M620.95,-452.7C605.66,-439.5 583,-419.93 567.32,-406.39"/>
<polygon fill="midnightblue" stroke="midnightblue" points="569.27,-403.45 559.42,-399.56 564.7,-408.75 569.27,-403.45"/>
</g>
<!-- Node28 -->
<g id="node28" class="node">
<title>Node28</title>
<g id="a_node28"><a xlink:title=" ">
<polygon fill="white" stroke="#bfbfbf" points="614,-380.5 614,-399.5 661,-399.5 661,-380.5 614,-380.5"/>
<text text-anchor="middle" x="637.5" y="-387.5" font-family="Helvetica,sans-Serif" font-size="10.00">vector</text>
</a>
</g>
</g>
<!-- Node25&#45;&gt;Node28 -->
<g id="edge39" class="edge">
<title>Node25&#45;&gt;Node28</title>
<path fill="none" stroke="midnightblue" d="M637.5,-452.7C637.5,-440.6 637.5,-423.15 637.5,-409.89"/>
<polygon fill="midnightblue" stroke="midnightblue" points="641,-409.56 637.5,-399.56 634,-409.56 641,-409.56"/>
</g>
<!-- Node29 -->
<g id="node29" class="node">
<title>Node29</title>
<g id="a_node29"><a xlink:title=" ">
<polygon fill="white" stroke="#bfbfbf" points="679.5,-380.5 679.5,-399.5 735.5,-399.5 735.5,-380.5 679.5,-380.5"/>
<text text-anchor="middle" x="707.5" y="-387.5" font-family="Helvetica,sans-Serif" font-size="10.00">netcdf.h</text>
</a>
</g>
</g>
<!-- Node25&#45;&gt;Node29 -->
<g id="edge40" class="edge">
<title>Node25&#45;&gt;Node29</title>
<path fill="none" stroke="midnightblue" d="M650.67,-452.7C662.6,-439.74 680.19,-420.66 692.63,-407.15"/>
<polygon fill="midnightblue" stroke="midnightblue" points="695.41,-409.29 699.61,-399.56 690.26,-404.55 695.41,-409.29"/>
</g>
<!-- Node30 -->
<g id="node30" class="node">
<title>Node30</title>
<g id="a_node30"><a xlink:title=" ">
<polygon fill="white" stroke="#bfbfbf" points="408,-380.5 408,-399.5 485,-399.5 485,-380.5 408,-380.5"/>
<text text-anchor="middle" x="446.5" y="-387.5" font-family="Helvetica,sans-Serif" font-size="10.00">netcdf_par.h</text>
</a>
</g>
</g>
<!-- Node25&#45;&gt;Node30 -->
<g id="edge41" class="edge">
<title>Node25&#45;&gt;Node30</title>
<path fill="none" stroke="midnightblue" d="M600.97,-452.95C572.03,-441.75 530.59,-425.58 494.5,-411 488.71,-408.66 482.54,-406.12 476.63,-403.67"/>
<polygon fill="midnightblue" stroke="midnightblue" points="477.59,-400.28 467.02,-399.66 474.9,-406.74 477.59,-400.28"/>
</g>
<!-- Node31&#45;&gt;Node7 -->
<g id="edge47" class="edge">
<title>Node31&#45;&gt;Node7</title>
<path fill="none" stroke="midnightblue" d="M877.13,-452.9C884.11,-433.12 893.56,-396.46 880.5,-369 840.45,-284.79 739.27,-227.21 689.31,-202.95"/>
<polygon fill="midnightblue" stroke="midnightblue" points="690.57,-199.67 680.03,-198.54 687.57,-206 690.57,-199.67"/>
</g>
<!-- Node31&#45;&gt;Node26 -->
<g id="edge45" class="edge">
<title>Node31&#45;&gt;Node26</title>
<path fill="none" stroke="midnightblue" d="M853.44,-452.7C836.61,-439.38 811.59,-419.57 794.47,-406.01"/>
<polygon fill="midnightblue" stroke="midnightblue" points="796.33,-403.03 786.32,-399.56 791.99,-408.51 796.33,-403.03"/>
</g>
<!-- Node32 -->
<g id="node32" class="node">
<title>Node32</title>
<g id="a_node32"><a xlink:title=" ">
<polygon fill="white" stroke="#bfbfbf" points="927.5,-380.5 927.5,-399.5 977.5,-399.5 977.5,-380.5 927.5,-380.5"/>
<text text-anchor="middle" x="952.5" y="-387.5" font-family="Helvetica,sans-Serif" font-size="10.00">chrono</text>
</a>
</g>
</g>
<!-- Node31&#45;&gt;Node32 -->
<g id="edge43" class="edge">
<title>Node31&#45;&gt;Node32</title>
<path fill="none" stroke="midnightblue" d="M886.74,-452.7C900.68,-439.62 921.28,-420.3 935.7,-406.77"/>
<polygon fill="midnightblue" stroke="midnightblue" points="938.48,-408.96 943.37,-399.56 933.69,-403.85 938.48,-408.96"/>
</g>
<!-- Node33 -->
<g id="node33" class="node">
<title>Node33</title>
<g id="a_node33"><a xlink:title=" ">
<polygon fill="white" stroke="#bfbfbf" points="995.5,-380.5 995.5,-399.5 1039.5,-399.5 1039.5,-380.5 995.5,-380.5"/>
<text text-anchor="middle" x="1017.5" y="-387.5" font-family="Helvetica,sans-Serif" font-size="10.00">ctime</text>
</a>
</g>
</g>
<!-- Node31&#45;&gt;Node33 -->
<g id="edge44" class="edge">
<title>Node31&#45;&gt;Node33</title>
<path fill="none" stroke="midnightblue" d="M903.26,-452.78C926.65,-442.02 959.03,-426.48 986.5,-411 989.82,-409.13 993.27,-407.05 996.61,-404.95"/>
<polygon fill="midnightblue" stroke="midnightblue" points="998.53,-407.88 1005.04,-399.52 994.74,-402 998.53,-407.88"/>
</g>
<!-- Node34 -->
<g id="node34" class="node">
<title>Node34</title>
<g id="a_node34"><a xlink:title=" ">
<polygon fill="white" stroke="#bfbfbf" points="815.5,-380.5 815.5,-399.5 871.5,-399.5 871.5,-380.5 815.5,-380.5"/>
<text text-anchor="middle" x="843.5" y="-387.5" font-family="Helvetica,sans-Serif" font-size="10.00">sstream</text>
</a>
</g>
</g>
<!-- Node31&#45;&gt;Node34 -->
<g id="edge46" class="edge">
<title>Node31&#45;&gt;Node34</title>
<path fill="none" stroke="midnightblue" d="M866.23,-452.7C861.68,-440.35 855.08,-422.44 850.17,-409.1"/>
<polygon fill="midnightblue" stroke="midnightblue" points="853.4,-407.74 846.65,-399.56 846.83,-410.16 853.4,-407.74"/>
</g>
</g>
</svg>
        <g id="navigator" transform="translate(0 0)" fill="#404254">
                <rect fill="#f2f5e9" fill-opacity="0.5" stroke="#606060" stroke-width=".5" x="0" y="0" width="60" height="60"/>
                <use id="zoomplus" xlink:href="#zoomPlus" x="17" y="9" onmousedown="handleZoom(evt,'in')"/>
                <use id="zoomminus" xlink:href="#zoomMin" x="42" y="9" onmousedown="handleZoom(evt,'out')"/>
                <use id="reset" xlink:href="#resetDef" x="30" y="36" onmousedown="handleReset()"/>
                <g id="arrowUp" xlink:href="#dirArrow" transform="translate(30 24)" onmousedown="handlePan(0,-1)">
                  <use xlink:href="#rim" fill="#404040">
                        <set attributeName="fill" to="#808080" begin="arrowUp.mouseover" end="arrowUp.mouseout"/>
                  </use>
                  <path fill="none" stroke="white" stroke-width="1.5" d="M0,-3.0v7 M-2.5,-0.5L0,-3.0L2.5,-0.5"/>
                </g>
                <g id="arrowRight" xlink:href="#dirArrow" transform="rotate(90) translate(36 -43)" onmousedown="handlePan(1,0)">
                  <use xlink:href="#rim" fill="#404040">
                        <set attributeName="fill" to="#808080" begin="arrowRight.mouseover" end="arrowRight.mouseout"/>
                  </use>
                  <path fill="none" stroke="white" stroke-width="1.5" d="M0,-3.0v7 M-2.5,-0.5L0,-3.0L2.5,-0.5"/>
                </g>
                <g id="arrowDown" xlink:href="#dirArrow" transform="rotate(180) translate(-30 -48)" onmousedown="handlePan(0,1)">
                  <use xlink:href="#rim" fill="#404040">
                        <set attributeName="fill" to="#808080" begin="arrowDown.mouseover" end="arrowDown.mouseout"/>
                  </use>
                  <path fill="none" stroke="white" stroke-width="1.5" d="M0,-3.0v7 M-2.5,-0.5L0,-3.0L2.5,-0.5"/>
                </g>
                <g id="arrowLeft" xlink:href="#dirArrow" transform="rotate(270) translate(-36 17)" onmousedown="handlePan(-1,0)">
                  <use xlink:href="#rim" fill="#404040">
                        <set attributeName="fill" to="#808080" begin="arrowLeft.mouseover" end="arrowLeft.mouseout"/>
                  </use>
                  <path fill="none" stroke="white" stroke-width="1.5" d="M0,-3.0v7 M-2.5,-0.5L0,-3.0L2.5,-0.5"/>
                </g>
        </g>
        <svg viewBox="0 0 15 15" width="100%" height="30px" preserveAspectRatio="xMaxYMin meet">
         <g id="arrow_out" transform="scale(0.3 0.3)">
          <a xlink:href="turbine__utils_8cpp__incl_org.svg" target="_base">
           <rect id="button" ry="5" rx="5" y="6" x="6" height="38" width="38"
                fill="#f2f5e9" fill-opacity="0.5" stroke="#606060" stroke-width="1.0"/>
           <path id="arrow"
             d="M 11.500037,31.436501 C 11.940474,20.09759 22.043105,11.32322 32.158766,21.979434 L 37.068811,17.246167 C 37.068811,17.246167 37.088388,32 37.088388,32 L 22.160133,31.978069 C 22.160133,31.978069 26.997745,27.140456 26.997745,27.140456 C 18.528582,18.264221 13.291696,25.230495 11.500037,31.436501 z"
             style="fill:#404040;"/>
          </a>
         </g>
        </svg>
</svg>
