<?xml version="1.0" encoding="UTF-8" standalone="no"?>
<!DOCTYPE svg PUBLIC "-//W3C//DTD SVG 1.1//EN"
 "http://www.w3.org/Graphics/SVG/1.1/DTD/svg11.dtd">
<!-- Generated by graphviz version 2.43.0 (0)
 -->
<!-- Title: turbine_types.H Pages: 1 -->
<svg width="643pt" height="196pt"
 viewBox="0.00 0.00 642.50 196.00" xmlns="http://www.w3.org/2000/svg" xmlns:xlink="http://www.w3.org/1999/xlink">
<g id="graph0" class="graph" transform="scale(1 1) rotate(0) translate(4 192)">
<title>turbine_types.H</title>
<polygon fill="white" stroke="transparent" points="-4,4 -4,-192 638.5,-192 638.5,4 -4,4"/>
<!-- Node1 -->
<g id="node1" class="node">
<title>Node1</title>
<g id="a_node1"><a xlink:title=" ">
<polygon fill="#bfbfbf" stroke="black" points="336.5,-168.5 336.5,-187.5 430.5,-187.5 430.5,-168.5 336.5,-168.5"/>
<text text-anchor="middle" x="383.5" y="-175.5" font-family="Helvetica,sans-Serif" font-size="10.00">turbine_types.H</text>
</a>
</g>
</g>
<!-- Node2 -->
<g id="node2" class="node">
<title>Node2</title>
<g id="a_node2"><a xlink:href="_act_src_disk_op___turbine_8_h.html" target="_top" xlink:title=" ">
<polygon fill="white" stroke="black" points="190.5,-112.5 190.5,-131.5 324.5,-131.5 324.5,-112.5 190.5,-112.5"/>
<text text-anchor="middle" x="257.5" y="-119.5" font-family="Helvetica,sans-Serif" font-size="10.00">ActSrcDiskOp_Turbine.H</text>
</a>
</g>
</g>
<!-- Node1&#45;&gt;Node2 -->
<g id="edge1" class="edge">
<title>Node1&#45;&gt;Node2</title>
<path fill="none" stroke="midnightblue" d="M354.34,-164.5C330.72,-154.38 298.07,-140.39 277.37,-131.52"/>
<polygon fill="midnightblue" stroke="midnightblue" points="352.96,-167.72 363.53,-168.44 355.72,-161.29 352.96,-167.72"/>
</g>
<!-- Node9 -->
<g id="node9" class="node">
<title>Node9</title>
<g id="a_node9"><a xlink:href="_turbine_fast_8_h.html" target="_top" xlink:title=" ">
<polygon fill="white" stroke="black" points="342.5,-112.5 342.5,-131.5 424.5,-131.5 424.5,-112.5 342.5,-112.5"/>
<text text-anchor="middle" x="383.5" y="-119.5" font-family="Helvetica,sans-Serif" font-size="10.00">TurbineFast.H</text>
</a>
</g>
</g>
<!-- Node1&#45;&gt;Node9 -->
<g id="edge8" class="edge">
<title>Node1&#45;&gt;Node9</title>
<path fill="none" stroke="midnightblue" d="M383.5,-157.8C383.5,-148.91 383.5,-138.78 383.5,-131.75"/>
<polygon fill="midnightblue" stroke="midnightblue" points="380,-158.08 383.5,-168.08 387,-158.08 380,-158.08"/>
</g>
<!-- Node11 -->
<g id="node11" class="node">
<title>Node11</title>
<g id="a_node11"><a xlink:href="turbine__utils_8_h.html" target="_top" xlink:title=" ">
<polygon fill="white" stroke="black" points="442.5,-112.5 442.5,-131.5 530.5,-131.5 530.5,-112.5 442.5,-112.5"/>
<text text-anchor="middle" x="486.5" y="-119.5" font-family="Helvetica,sans-Serif" font-size="10.00">turbine_utils.H</text>
</a>
</g>
</g>
<!-- Node1&#45;&gt;Node11 -->
<g id="edge12" class="edge">
<title>Node1&#45;&gt;Node11</title>
<path fill="none" stroke="midnightblue" d="M409.08,-163.59C428.12,-153.61 453.56,-140.27 469.99,-131.65"/>
<polygon fill="midnightblue" stroke="midnightblue" points="407.28,-160.58 400.05,-168.32 410.53,-166.78 407.28,-160.58"/>
</g>
<!-- Node3 -->
<g id="node3" class="node">
<title>Node3</title>
<g id="a_node3"><a xlink:href="_actuator_model_8_h.html" target="_top" xlink:title=" ">
<polygon fill="white" stroke="black" points="208.5,-56.5 208.5,-75.5 306.5,-75.5 306.5,-56.5 208.5,-56.5"/>
<text text-anchor="middle" x="257.5" y="-63.5" font-family="Helvetica,sans-Serif" font-size="10.00">ActuatorModel.H</text>
</a>
</g>
</g>
<!-- Node2&#45;&gt;Node3 -->
<g id="edge2" class="edge">
<title>Node2&#45;&gt;Node3</title>
<path fill="none" stroke="midnightblue" d="M257.5,-101.8C257.5,-92.91 257.5,-82.78 257.5,-75.75"/>
<polygon fill="midnightblue" stroke="midnightblue" points="254,-102.08 257.5,-112.08 261,-102.08 254,-102.08"/>
</g>
<!-- Node4 -->
<g id="node4" class="node">
<title>Node4</title>
<g id="a_node4"><a xlink:href="_actuator_8cpp.html" target="_top" xlink:title=" ">
<polygon fill="white" stroke="black" points="0,-0.5 0,-19.5 77,-19.5 77,-0.5 0,-0.5"/>
<text text-anchor="middle" x="38.5" y="-7.5" font-family="Helvetica,sans-Serif" font-size="10.00">Actuator.cpp</text>
</a>
</g>
</g>
<!-- Node3&#45;&gt;Node4 -->
<g id="edge3" class="edge">
<title>Node3&#45;&gt;Node4</title>
<path fill="none" stroke="midnightblue" d="M212.99,-54.02C171.62,-43.82 110.86,-28.84 73.04,-19.52"/>
<polygon fill="midnightblue" stroke="midnightblue" points="212.25,-57.45 222.8,-56.44 213.93,-50.65 212.25,-57.45"/>
</g>
<!-- Node5 -->
<g id="node5" class="node">
<title>Node5</title>
<g id="a_node5"><a xlink:href="_actuator_disk_8cpp.html" target="_top" xlink:title=" ">
<polygon fill="white" stroke="black" points="95.5,-0.5 95.5,-19.5 195.5,-19.5 195.5,-0.5 95.5,-0.5"/>
<text text-anchor="middle" x="145.5" y="-7.5" font-family="Helvetica,sans-Serif" font-size="10.00">ActuatorDisk.cpp</text>
</a>
</g>
</g>
<!-- Node3&#45;&gt;Node5 -->
<g id="edge4" class="edge">
<title>Node3&#45;&gt;Node5</title>
<path fill="none" stroke="midnightblue" d="M230.25,-51.86C209.48,-41.85 181.48,-28.35 163.45,-19.65"/>
<polygon fill="midnightblue" stroke="midnightblue" points="228.98,-55.13 239.51,-56.32 232.02,-48.83 228.98,-55.13"/>
</g>
<!-- Node6 -->
<g id="node6" class="node">
<title>Node6</title>
<g id="a_node6"><a xlink:href="_turbine_fast_8cpp.html" target="_top" xlink:title=" ">
<polygon fill="white" stroke="black" points="417.5,-0.5 417.5,-19.5 509.5,-19.5 509.5,-0.5 417.5,-0.5"/>
<text text-anchor="middle" x="463.5" y="-7.5" font-family="Helvetica,sans-Serif" font-size="10.00">TurbineFast.cpp</text>
</a>
</g>
</g>
<!-- Node3&#45;&gt;Node6 -->
<g id="edge5" class="edge">
<title>Node3&#45;&gt;Node6</title>
<path fill="none" stroke="midnightblue" d="M300.12,-53.83C339.01,-43.63 395.66,-28.78 431.01,-19.52"/>
<polygon fill="midnightblue" stroke="midnightblue" points="298.93,-50.52 290.14,-56.44 300.7,-57.29 298.93,-50.52"/>
</g>
<!-- Node7 -->
<g id="node7" class="node">
<title>Node7</title>
<g id="a_node7"><a xlink:href="_fixed_wing_8cpp.html" target="_top" xlink:title=" ">
<polygon fill="white" stroke="black" points="214,-0.5 214,-19.5 301,-19.5 301,-0.5 214,-0.5"/>
<text text-anchor="middle" x="257.5" y="-7.5" font-family="Helvetica,sans-Serif" font-size="10.00">FixedWing.cpp</text>
</a>
</g>
</g>
<!-- Node3&#45;&gt;Node7 -->
<g id="edge6" class="edge">
<title>Node3&#45;&gt;Node7</title>
<path fill="none" stroke="midnightblue" d="M257.5,-45.8C257.5,-36.91 257.5,-26.78 257.5,-19.75"/>
<polygon fill="midnightblue" stroke="midnightblue" points="254,-46.08 257.5,-56.08 261,-46.08 254,-46.08"/>
</g>
<!-- Node8 -->
<g id="node8" class="node">
<title>Node8</title>
<g id="a_node8"><a xlink:href="_flat_plate_8cpp.html" target="_top" xlink:title=" ">
<polygon fill="white" stroke="black" points="319.5,-0.5 319.5,-19.5 399.5,-19.5 399.5,-0.5 319.5,-0.5"/>
<text text-anchor="middle" x="359.5" y="-7.5" font-family="Helvetica,sans-Serif" font-size="10.00">FlatPlate.cpp</text>
</a>
</g>
</g>
<!-- Node3&#45;&gt;Node8 -->
<g id="edge7" class="edge">
<title>Node3&#45;&gt;Node8</title>
<path fill="none" stroke="midnightblue" d="M282.83,-51.59C301.69,-41.61 326.88,-28.27 343.15,-19.65"/>
<polygon fill="midnightblue" stroke="midnightblue" points="281.09,-48.55 273.89,-56.32 284.36,-54.74 281.09,-48.55"/>
</g>
<!-- Node9&#45;&gt;Node6 -->
<g id="edge11" class="edge">
<title>Node9&#45;&gt;Node6</title>
<path fill="none" stroke="midnightblue" d="M385.38,-101.99C387.51,-88.22 392.01,-69.68 401.5,-56 412.72,-39.83 431.69,-27.31 445.7,-19.63"/>
<polygon fill="midnightblue" stroke="midnightblue" points="381.87,-101.88 384.1,-112.24 388.81,-102.75 381.87,-101.88"/>
</g>
<!-- Node10 -->
<g id="node10" class="node">
<title>Node10</title>
<g id="a_node10"><a xlink:href="turbine__fast__ops_8_h.html" target="_top" xlink:title=" ">
<polygon fill="white" stroke="black" points="410.5,-56.5 410.5,-75.5 518.5,-75.5 518.5,-56.5 410.5,-56.5"/>
<text text-anchor="middle" x="464.5" y="-63.5" font-family="Helvetica,sans-Serif" font-size="10.00">turbine_fast_ops.H</text>
</a>
</g>
</g>
<!-- Node9&#45;&gt;Node10 -->
<g id="edge9" class="edge">
<title>Node9&#45;&gt;Node10</title>
<path fill="none" stroke="midnightblue" d="M405.07,-106.62C419.86,-96.76 439.01,-83.99 451.52,-75.65"/>
<polygon fill="midnightblue" stroke="midnightblue" points="402.89,-103.86 396.51,-112.32 406.78,-109.69 402.89,-103.86"/>
</g>
<!-- Node10&#45;&gt;Node6 -->
<g id="edge10" class="edge">
<title>Node10&#45;&gt;Node6</title>
<path fill="none" stroke="midnightblue" d="M464.14,-45.8C463.98,-36.91 463.79,-26.78 463.66,-19.75"/>
<polygon fill="midnightblue" stroke="midnightblue" points="460.65,-46.15 464.33,-56.08 467.65,-46.02 460.65,-46.15"/>
</g>
<!-- Node11&#45;&gt;Node10 -->
<g id="edge13" class="edge">
<title>Node11&#45;&gt;Node10</title>
<path fill="none" stroke="midnightblue" d="M479.04,-102.69C475.33,-93.59 471.02,-83.01 468.07,-75.75"/>
<polygon fill="midnightblue" stroke="midnightblue" points="475.85,-104.14 482.87,-112.08 482.34,-101.5 475.85,-104.14"/>
</g>
<!-- Node12 -->
<g id="node12" class="node">
<title>Node12</title>
<g id="a_node12"><a xlink:href="turbine__utils_8cpp.html" target="_top" xlink:title=" ">
<polygon fill="white" stroke="black" points="536.5,-56.5 536.5,-75.5 634.5,-75.5 634.5,-56.5 536.5,-56.5"/>
<text text-anchor="middle" x="585.5" y="-63.5" font-family="Helvetica,sans-Serif" font-size="10.00">turbine_utils.cpp</text>
</a>
</g>
</g>
<!-- Node11&#45;&gt;Node12 -->
<g id="edge14" class="edge">
<title>Node11&#45;&gt;Node12</title>
<path fill="none" stroke="midnightblue" d="M511.34,-107.45C529.61,-97.48 553.92,-84.23 569.63,-75.65"/>
<polygon fill="midnightblue" stroke="midnightblue" points="509.51,-104.46 502.41,-112.32 512.86,-110.61 509.51,-104.46"/>
</g>
</g>
</svg>
