<?xml version="1.0" encoding="UTF-8" standalone="no"?>
<!DOCTYPE svg PUBLIC "-//W3C//DTD SVG 1.1//EN"
 "http://www.w3.org/Graphics/SVG/1.1/DTD/svg11.dtd">
<!-- Generated by graphviz version 2.43.0 (0)
 -->
<!-- Title: uniform_ct_ops.cpp Pages: 1 -->
<svg width="2292pt" height="631pt"
 viewBox="0.00 0.00 2291.50 631.00" xmlns="http://www.w3.org/2000/svg" xmlns:xlink="http://www.w3.org/1999/xlink">
<g id="graph0" class="graph" transform="scale(1 1) rotate(0) translate(4 627)">
<title>uniform_ct_ops.cpp</title>
<polygon fill="white" stroke="transparent" points="-4,4 -4,-627 2287.5,-627 2287.5,4 -4,4"/>
<!-- Node1 -->
<g id="node1" class="node">
<title>Node1</title>
<g id="a_node1"><a xlink:title=" ">
<polygon fill="#bfbfbf" stroke="black" points="1834.5,-603.5 1834.5,-622.5 1946.5,-622.5 1946.5,-603.5 1834.5,-603.5"/>
<text text-anchor="middle" x="1890.5" y="-610.5" font-family="Helvetica,sans-Serif" font-size="10.00">uniform_ct_ops.cpp</text>
</a>
</g>
</g>
<!-- Node2 -->
<g id="node2" class="node">
<title>Node2</title>
<g id="a_node2"><a xlink:href="uniform__ct__ops_8_h.html" target="_top" xlink:title=" ">
<polygon fill="white" stroke="black" points="442.5,-525.5 442.5,-566.5 570.5,-566.5 570.5,-525.5 442.5,-525.5"/>
<text text-anchor="start" x="450.5" y="-554.5" font-family="Helvetica,sans-Serif" font-size="10.00">amr&#45;wind/wind_energy</text>
<text text-anchor="start" x="450.5" y="-543.5" font-family="Helvetica,sans-Serif" font-size="10.00">/actuator/disk/uniform</text>
<text text-anchor="middle" x="506.5" y="-532.5" font-family="Helvetica,sans-Serif" font-size="10.00">_ct_ops.H</text>
</a>
</g>
</g>
<!-- Node1&#45;&gt;Node2 -->
<g id="edge1" class="edge">
<title>Node1&#45;&gt;Node2</title>
<path fill="none" stroke="midnightblue" d="M1834.1,-609.35C1615.97,-599.11 827.57,-562.08 580.84,-550.49"/>
<polygon fill="midnightblue" stroke="midnightblue" points="580.7,-546.98 570.55,-550.01 580.38,-553.97 580.7,-546.98"/>
</g>
<!-- Node63 -->
<g id="node43" class="node">
<title>Node63</title>
<g id="a_node43"><a xlink:href="nc__interface_8_h.html" target="_top" xlink:title=" ">
<polygon fill="white" stroke="black" points="1828,-257.5 1828,-287.5 1953,-287.5 1953,-257.5 1828,-257.5"/>
<text text-anchor="start" x="1836" y="-275.5" font-family="Helvetica,sans-Serif" font-size="10.00">amr&#45;wind/utilities</text>
<text text-anchor="middle" x="1890.5" y="-264.5" font-family="Helvetica,sans-Serif" font-size="10.00">/ncutils/nc_interface.H</text>
</a>
</g>
</g>
<!-- Node1&#45;&gt;Node63 -->
<g id="edge69" class="edge">
<title>Node1&#45;&gt;Node63</title>
<path fill="none" stroke="midnightblue" d="M1890.5,-603.31C1890.5,-581.6 1890.5,-523.2 1890.5,-474.5 1890.5,-474.5 1890.5,-474.5 1890.5,-405.5 1890.5,-368 1890.5,-324.51 1890.5,-298.01"/>
<polygon fill="midnightblue" stroke="midnightblue" points="1894,-297.76 1890.5,-287.76 1887,-297.76 1894,-297.76"/>
</g>
<!-- Node67 -->
<g id="node47" class="node">
<title>Node67</title>
<g id="a_node47"><a xlink:href="io__utils_8_h.html" target="_top" xlink:title=" ">
<polygon fill="white" stroke="black" points="2019,-257.5 2019,-287.5 2122,-287.5 2122,-257.5 2019,-257.5"/>
<text text-anchor="start" x="2027" y="-275.5" font-family="Helvetica,sans-Serif" font-size="10.00">amr&#45;wind/utilities</text>
<text text-anchor="middle" x="2070.5" y="-264.5" font-family="Helvetica,sans-Serif" font-size="10.00">/io_utils.H</text>
</a>
</g>
</g>
<!-- Node1&#45;&gt;Node67 -->
<g id="edge75" class="edge">
<title>Node1&#45;&gt;Node67</title>
<path fill="none" stroke="midnightblue" d="M1900.58,-603.5C1923.1,-583.5 1975.5,-530.91 1975.5,-474.5 1975.5,-474.5 1975.5,-474.5 1975.5,-405.5 1975.5,-358.99 2014.84,-317.68 2042.89,-294.13"/>
<polygon fill="midnightblue" stroke="midnightblue" points="2045.26,-296.71 2050.82,-287.69 2040.85,-291.28 2045.26,-296.71"/>
</g>
<!-- Node3 -->
<g id="node3" class="node">
<title>Node3</title>
<g id="a_node3"><a xlink:href="_uniform_ct_8_h.html" target="_top" xlink:title=" ">
<polygon fill="white" stroke="black" points="433,-458.5 433,-488.5 580,-488.5 580,-458.5 433,-458.5"/>
<text text-anchor="start" x="441" y="-476.5" font-family="Helvetica,sans-Serif" font-size="10.00">amr&#45;wind/wind_energy</text>
<text text-anchor="middle" x="506.5" y="-465.5" font-family="Helvetica,sans-Serif" font-size="10.00">/actuator/disk/UniformCt.H</text>
</a>
</g>
</g>
<!-- Node2&#45;&gt;Node3 -->
<g id="edge2" class="edge">
<title>Node2&#45;&gt;Node3</title>
<path fill="none" stroke="midnightblue" d="M506.5,-525.36C506.5,-517.23 506.5,-507.7 506.5,-499.11"/>
<polygon fill="midnightblue" stroke="midnightblue" points="510,-498.89 506.5,-488.89 503,-498.89 510,-498.89"/>
</g>
<!-- Node23 -->
<g id="node23" class="node">
<title>Node23</title>
<g id="a_node23"><a xlink:href="actuator__ops_8_h.html" target="_top" xlink:title=" ">
<polygon fill="white" stroke="black" points="651,-458.5 651,-488.5 788,-488.5 788,-458.5 651,-458.5"/>
<text text-anchor="start" x="659" y="-476.5" font-family="Helvetica,sans-Serif" font-size="10.00">amr&#45;wind/wind_energy</text>
<text text-anchor="middle" x="719.5" y="-465.5" font-family="Helvetica,sans-Serif" font-size="10.00">/actuator/actuator_ops.H</text>
</a>
</g>
</g>
<!-- Node2&#45;&gt;Node23 -->
<g id="edge34" class="edge">
<title>Node2&#45;&gt;Node23</title>
<path fill="none" stroke="midnightblue" d="M565.55,-525.46C597.43,-514.9 636.45,-501.99 667.23,-491.8"/>
<polygon fill="midnightblue" stroke="midnightblue" points="668.52,-495.06 676.91,-488.6 666.32,-488.42 668.52,-495.06"/>
</g>
<!-- Node30 -->
<g id="node30" class="node">
<title>Node30</title>
<g id="a_node30"><a xlink:href="tensor__ops_8_h.html" target="_top" xlink:title=" ">
<polygon fill="white" stroke="black" points="253,-190.5 253,-220.5 356,-220.5 356,-190.5 253,-190.5"/>
<text text-anchor="start" x="261" y="-208.5" font-family="Helvetica,sans-Serif" font-size="10.00">amr&#45;wind/utilities</text>
<text text-anchor="middle" x="304.5" y="-197.5" font-family="Helvetica,sans-Serif" font-size="10.00">/tensor_ops.H</text>
</a>
</g>
</g>
<!-- Node2&#45;&gt;Node30 -->
<g id="edge66" class="edge">
<title>Node2&#45;&gt;Node30</title>
<path fill="none" stroke="midnightblue" d="M442.38,-544.38C350.27,-539.72 191.5,-515.95 191.5,-407.5 191.5,-407.5 191.5,-407.5 191.5,-338.5 191.5,-301.31 187.89,-286.53 210.5,-257 221.04,-243.24 236.43,-232.79 251.72,-225.07"/>
<polygon fill="midnightblue" stroke="midnightblue" points="253.63,-228.04 261.19,-220.61 250.65,-221.7 253.63,-228.04"/>
</g>
<!-- Node62 -->
<g id="node42" class="node">
<title>Node62</title>
<g id="a_node42"><a xlink:href="linear__interpolation_8_h.html" target="_top" xlink:title=" ">
<polygon fill="white" stroke="black" points="0,-123.5 0,-153.5 125,-153.5 125,-123.5 0,-123.5"/>
<text text-anchor="start" x="8" y="-141.5" font-family="Helvetica,sans-Serif" font-size="10.00">amr&#45;wind/utilities</text>
<text text-anchor="middle" x="62.5" y="-130.5" font-family="Helvetica,sans-Serif" font-size="10.00">/linear_interpolation.H</text>
</a>
</g>
</g>
<!-- Node2&#45;&gt;Node62 -->
<g id="edge67" class="edge">
<title>Node2&#45;&gt;Node62</title>
<path fill="none" stroke="midnightblue" d="M442.1,-537.39C324.85,-521.72 88.5,-481.03 88.5,-407.5 88.5,-407.5 88.5,-407.5 88.5,-271.5 88.5,-233.11 77.78,-189.61 70.11,-163.38"/>
<polygon fill="midnightblue" stroke="midnightblue" points="73.39,-162.14 67.15,-153.58 66.69,-164.16 73.39,-162.14"/>
</g>
<!-- Node4 -->
<g id="node4" class="node">
<title>Node4</title>
<g id="a_node4"><a xlink:href="disk__types_8_h.html" target="_top" xlink:title=" ">
<polygon fill="white" stroke="black" points="379,-391.5 379,-421.5 528,-421.5 528,-391.5 379,-391.5"/>
<text text-anchor="start" x="387" y="-409.5" font-family="Helvetica,sans-Serif" font-size="10.00">amr&#45;wind/wind_energy</text>
<text text-anchor="middle" x="453.5" y="-398.5" font-family="Helvetica,sans-Serif" font-size="10.00">/actuator/disk/disk_types.H</text>
</a>
</g>
</g>
<!-- Node3&#45;&gt;Node4 -->
<g id="edge3" class="edge">
<title>Node3&#45;&gt;Node4</title>
<path fill="none" stroke="midnightblue" d="M495,-458.4C488.12,-449.96 479.24,-439.07 471.46,-429.52"/>
<polygon fill="midnightblue" stroke="midnightblue" points="474.01,-427.11 464.98,-421.58 468.58,-431.54 474.01,-427.11"/>
</g>
<!-- Node10 -->
<g id="node10" class="node">
<title>Node10</title>
<g id="a_node10"><a xlink:href="vector__space_8_h.html" target="_top" xlink:title=" ">
<polygon fill="white" stroke="black" points="526,-257.5 526,-287.5 661,-287.5 661,-257.5 526,-257.5"/>
<text text-anchor="start" x="534" y="-275.5" font-family="Helvetica,sans-Serif" font-size="10.00">amr&#45;wind/core/vs/vector</text>
<text text-anchor="middle" x="593.5" y="-264.5" font-family="Helvetica,sans-Serif" font-size="10.00">_space.H</text>
</a>
</g>
</g>
<!-- Node3&#45;&gt;Node10 -->
<g id="edge33" class="edge">
<title>Node3&#45;&gt;Node10</title>
<path fill="none" stroke="midnightblue" d="M515.83,-458.27C522.12,-448.35 530.36,-434.66 536.5,-422 557.18,-379.32 575.77,-327.07 585.76,-297.3"/>
<polygon fill="midnightblue" stroke="midnightblue" points="589.1,-298.35 588.93,-287.76 582.46,-296.15 589.1,-298.35"/>
</g>
<!-- Node5 -->
<g id="node5" class="node">
<title>Node5</title>
<g id="a_node5"><a xlink:href="actuator__types_8_h.html" target="_top" xlink:title=" ">
<polygon fill="white" stroke="black" points="380.5,-324.5 380.5,-354.5 526.5,-354.5 526.5,-324.5 380.5,-324.5"/>
<text text-anchor="start" x="388.5" y="-342.5" font-family="Helvetica,sans-Serif" font-size="10.00">amr&#45;wind/wind_energy</text>
<text text-anchor="middle" x="453.5" y="-331.5" font-family="Helvetica,sans-Serif" font-size="10.00">/actuator/actuator_types.H</text>
</a>
</g>
</g>
<!-- Node4&#45;&gt;Node5 -->
<g id="edge4" class="edge">
<title>Node4&#45;&gt;Node5</title>
<path fill="none" stroke="midnightblue" d="M453.5,-391.4C453.5,-383.64 453.5,-373.81 453.5,-364.86"/>
<polygon fill="midnightblue" stroke="midnightblue" points="457,-364.58 453.5,-354.58 450,-364.58 457,-364.58"/>
</g>
<!-- Node6 -->
<g id="node6" class="node">
<title>Node6</title>
<g id="a_node6"><a xlink:href="_slice_8_h.html" target="_top" xlink:title=" ">
<polygon fill="white" stroke="black" points="345.5,-263 345.5,-282 469.5,-282 469.5,-263 345.5,-263"/>
<text text-anchor="middle" x="407.5" y="-270" font-family="Helvetica,sans-Serif" font-size="10.00">amr&#45;wind/core/Slice.H</text>
</a>
</g>
</g>
<!-- Node5&#45;&gt;Node6 -->
<g id="edge5" class="edge">
<title>Node5&#45;&gt;Node6</title>
<path fill="none" stroke="midnightblue" d="M443.52,-324.4C436.49,-314.46 427.04,-301.11 419.58,-290.57"/>
<polygon fill="midnightblue" stroke="midnightblue" points="422.29,-288.34 413.65,-282.19 416.57,-292.38 422.29,-288.34"/>
</g>
<!-- Node9 -->
<g id="node9" class="node">
<title>Node9</title>
<g id="a_node9"><a xlink:title=" ">
<polygon fill="white" stroke="#bfbfbf" points="286,-0.5 286,-19.5 373,-19.5 373,-0.5 286,-0.5"/>
<text text-anchor="middle" x="329.5" y="-7.5" font-family="Helvetica,sans-Serif" font-size="10.00">AMReX_Gpu.H</text>
</a>
</g>
</g>
<!-- Node5&#45;&gt;Node9 -->
<g id="edge30" class="edge">
<title>Node5&#45;&gt;Node9</title>
<path fill="none" stroke="midnightblue" d="M380.5,-337C291.69,-330.84 153.5,-305.37 153.5,-206.5 153.5,-206.5 153.5,-206.5 153.5,-137.5 153.5,-73.34 231.58,-38.53 283.73,-22.43"/>
<polygon fill="midnightblue" stroke="midnightblue" points="284.86,-25.75 293.46,-19.55 282.88,-19.04 284.86,-25.75"/>
</g>
<!-- Node5&#45;&gt;Node10 -->
<g id="edge9" class="edge">
<title>Node5&#45;&gt;Node10</title>
<path fill="none" stroke="midnightblue" d="M483.88,-324.4C504.43,-314.86 531.76,-302.16 554,-291.84"/>
<polygon fill="midnightblue" stroke="midnightblue" points="555.59,-294.96 563.18,-287.58 552.64,-288.61 555.59,-294.96"/>
</g>
<!-- Node21 -->
<g id="node21" class="node">
<title>Node21</title>
<g id="a_node21"><a xlink:title=" ">
<polygon fill="white" stroke="#bfbfbf" points="219.5,-263 219.5,-282 327.5,-282 327.5,-263 219.5,-263"/>
<text text-anchor="middle" x="273.5" y="-270" font-family="Helvetica,sans-Serif" font-size="10.00">AMReX_RealBox.H</text>
</a>
</g>
</g>
<!-- Node5&#45;&gt;Node21 -->
<g id="edge31" class="edge">
<title>Node5&#45;&gt;Node21</title>
<path fill="none" stroke="midnightblue" d="M414.44,-324.4C382.3,-312.79 337.23,-296.51 306.78,-285.52"/>
<polygon fill="midnightblue" stroke="midnightblue" points="307.65,-282.11 297.06,-282.01 305.27,-288.7 307.65,-282.11"/>
</g>
<!-- Node22 -->
<g id="node22" class="node">
<title>Node22</title>
<g id="a_node22"><a xlink:title=" ">
<polygon fill="white" stroke="#bfbfbf" points="481.5,-196 481.5,-215 513.5,-215 513.5,-196 481.5,-196"/>
<text text-anchor="middle" x="497.5" y="-203" font-family="Helvetica,sans-Serif" font-size="10.00">set</text>
</a>
</g>
</g>
<!-- Node5&#45;&gt;Node22 -->
<g id="edge32" class="edge">
<title>Node5&#45;&gt;Node22</title>
<path fill="none" stroke="midnightblue" d="M461.63,-324.3C467.03,-314.39 473.94,-300.71 478.5,-288 485.99,-267.11 491.31,-242.13 494.38,-225.38"/>
<polygon fill="midnightblue" stroke="midnightblue" points="497.87,-225.71 496.14,-215.25 490.98,-224.5 497.87,-225.71"/>
</g>
<!-- Node7 -->
<g id="node7" class="node">
<title>Node7</title>
<g id="a_node7"><a xlink:title=" ">
<polygon fill="white" stroke="#bfbfbf" points="182,-196 182,-215 235,-215 235,-196 182,-196"/>
<text text-anchor="middle" x="208.5" y="-203" font-family="Helvetica,sans-Serif" font-size="10.00">iterator</text>
</a>
</g>
</g>
<!-- Node6&#45;&gt;Node7 -->
<g id="edge6" class="edge">
<title>Node6&#45;&gt;Node7</title>
<path fill="none" stroke="midnightblue" d="M376.69,-262.95C343.51,-253.53 289.33,-237.51 243.5,-221 241.64,-220.33 239.74,-219.62 237.83,-218.89"/>
<polygon fill="midnightblue" stroke="midnightblue" points="238.95,-215.56 228.36,-215.11 236.35,-222.07 238.95,-215.56"/>
</g>
<!-- Node8 -->
<g id="node8" class="node">
<title>Node8</title>
<g id="a_node8"><a xlink:title=" ">
<polygon fill="white" stroke="#bfbfbf" points="1572.5,-196 1572.5,-215 1670.5,-215 1670.5,-196 1572.5,-196"/>
<text text-anchor="middle" x="1621.5" y="-203" font-family="Helvetica,sans-Serif" font-size="10.00">AMReX_Vector.H</text>
</a>
</g>
</g>
<!-- Node6&#45;&gt;Node8 -->
<g id="edge7" class="edge">
<title>Node6&#45;&gt;Node8</title>
<path fill="none" stroke="midnightblue" d="M463.4,-263C480.41,-260.7 499.19,-258.45 516.5,-257 980.49,-218.25 1102.43,-285.82 1563.5,-221 1569.77,-220.12 1576.35,-218.83 1582.73,-217.39"/>
<polygon fill="midnightblue" stroke="midnightblue" points="1583.63,-220.77 1592.53,-215.02 1581.98,-213.97 1583.63,-220.77"/>
</g>
<!-- Node6&#45;&gt;Node9 -->
<g id="edge8" class="edge">
<title>Node6&#45;&gt;Node9</title>
<path fill="none" stroke="midnightblue" d="M404.9,-262.83C393.85,-225.9 350.53,-81.22 335.04,-29.5"/>
<polygon fill="midnightblue" stroke="midnightblue" points="338.33,-28.28 332.1,-19.7 331.62,-30.28 338.33,-28.28"/>
</g>
<!-- Node11 -->
<g id="node11" class="node">
<title>Node11</title>
<g id="a_node11"><a xlink:href="vector_8_h.html" target="_top" xlink:title=" ">
<polygon fill="white" stroke="black" points="469,-129 469,-148 614,-148 614,-129 469,-129"/>
<text text-anchor="middle" x="541.5" y="-136" font-family="Helvetica,sans-Serif" font-size="10.00">amr&#45;wind/core/vs/vector.H</text>
</a>
</g>
</g>
<!-- Node10&#45;&gt;Node11 -->
<g id="edge10" class="edge">
<title>Node10&#45;&gt;Node11</title>
<path fill="none" stroke="midnightblue" d="M584.54,-257.34C578.56,-247.44 570.84,-233.76 565.5,-221 556.8,-200.22 549.94,-175.22 545.82,-158.44"/>
<polygon fill="midnightblue" stroke="midnightblue" points="549.12,-157.21 543.41,-148.28 542.31,-158.82 549.12,-157.21"/>
</g>
<!-- Node18 -->
<g id="node18" class="node">
<title>Node18</title>
<g id="a_node18"><a xlink:href="tensor_8_h.html" target="_top" xlink:title=" ">
<polygon fill="white" stroke="black" points="608,-196 608,-215 753,-215 753,-196 608,-196"/>
<text text-anchor="middle" x="680.5" y="-203" font-family="Helvetica,sans-Serif" font-size="10.00">amr&#45;wind/core/vs/tensor.H</text>
</a>
</g>
</g>
<!-- Node10&#45;&gt;Node18 -->
<g id="edge19" class="edge">
<title>Node10&#45;&gt;Node18</title>
<path fill="none" stroke="midnightblue" d="M612.38,-257.4C626.61,-246.76 646.1,-232.2 660.58,-221.38"/>
<polygon fill="midnightblue" stroke="midnightblue" points="662.95,-223.98 668.86,-215.19 658.76,-218.38 662.95,-223.98"/>
</g>
<!-- Node11&#45;&gt;Node9 -->
<g id="edge11" class="edge">
<title>Node11&#45;&gt;Node9</title>
<path fill="none" stroke="midnightblue" d="M516.12,-128.95C491.54,-120.15 453.66,-105.17 423.5,-87 407.8,-77.54 369.76,-45.61 347.18,-26.27"/>
<polygon fill="midnightblue" stroke="midnightblue" points="349.22,-23.41 339.36,-19.55 344.66,-28.72 349.22,-23.41"/>
</g>
<!-- Node12 -->
<g id="node12" class="node">
<title>Node12</title>
<g id="a_node12"><a xlink:href="vstraits_8_h.html" target="_top" xlink:title=" ">
<polygon fill="white" stroke="black" points="600.5,-62 600.5,-81 752.5,-81 752.5,-62 600.5,-62"/>
<text text-anchor="middle" x="676.5" y="-69" font-family="Helvetica,sans-Serif" font-size="10.00">amr&#45;wind/core/vs/vstraits.H</text>
</a>
</g>
</g>
<!-- Node11&#45;&gt;Node12 -->
<g id="edge12" class="edge">
<title>Node11&#45;&gt;Node12</title>
<path fill="none" stroke="midnightblue" d="M559.43,-128.87C582.42,-117.8 622.53,-98.49 649.3,-85.6"/>
<polygon fill="midnightblue" stroke="midnightblue" points="651.01,-88.66 658.5,-81.17 647.97,-82.35 651.01,-88.66"/>
</g>
<!-- Node15 -->
<g id="node15" class="node">
<title>Node15</title>
<g id="a_node15"><a xlink:href="vector_i_8_h.html" target="_top" xlink:title=" ">
<polygon fill="white" stroke="black" points="433,-62 433,-81 582,-81 582,-62 433,-62"/>
<text text-anchor="middle" x="507.5" y="-69" font-family="Helvetica,sans-Serif" font-size="10.00">amr&#45;wind/core/vs/vectorI.H</text>
</a>
</g>
</g>
<!-- Node11&#45;&gt;Node15 -->
<g id="edge15" class="edge">
<title>Node11&#45;&gt;Node15</title>
<path fill="none" stroke="midnightblue" d="M532.13,-128.73C524.98,-118.99 516.16,-102.98 510.82,-90.53"/>
<polygon fill="midnightblue" stroke="midnightblue" points="514.07,-89.24 507.25,-81.13 507.52,-91.72 514.07,-89.24"/>
</g>
<!-- Node13 -->
<g id="node13" class="node">
<title>Node13</title>
<g id="a_node13"><a xlink:title=" ">
<polygon fill="white" stroke="#bfbfbf" points="654.5,-0.5 654.5,-19.5 698.5,-19.5 698.5,-0.5 654.5,-0.5"/>
<text text-anchor="middle" x="676.5" y="-7.5" font-family="Helvetica,sans-Serif" font-size="10.00">limits</text>
</a>
</g>
</g>
<!-- Node12&#45;&gt;Node13 -->
<g id="edge13" class="edge">
<title>Node12&#45;&gt;Node13</title>
<path fill="none" stroke="midnightblue" d="M676.5,-61.98C676.5,-53.58 676.5,-40.48 676.5,-29.66"/>
<polygon fill="midnightblue" stroke="midnightblue" points="680,-29.51 676.5,-19.51 673,-29.51 680,-29.51"/>
</g>
<!-- Node14 -->
<g id="node14" class="node">
<title>Node14</title>
<g id="a_node14"><a xlink:title=" ">
<polygon fill="white" stroke="#bfbfbf" points="822.5,-0.5 822.5,-19.5 914.5,-19.5 914.5,-0.5 822.5,-0.5"/>
<text text-anchor="middle" x="868.5" y="-7.5" font-family="Helvetica,sans-Serif" font-size="10.00">AMReX_REAL.H</text>
</a>
</g>
</g>
<!-- Node12&#45;&gt;Node14 -->
<g id="edge14" class="edge">
<title>Node12&#45;&gt;Node14</title>
<path fill="none" stroke="midnightblue" d="M704.01,-61.98C737.37,-51.64 793.76,-34.16 831.06,-22.6"/>
<polygon fill="midnightblue" stroke="midnightblue" points="832.53,-25.81 841.04,-19.51 830.45,-19.13 832.53,-25.81"/>
</g>
<!-- Node15&#45;&gt;Node11 -->
<g id="edge18" class="edge">
<title>Node15&#45;&gt;Node11</title>
<path fill="none" stroke="midnightblue" d="M516.77,-81.13C523.9,-90.81 532.73,-106.81 538.11,-119.29"/>
<polygon fill="midnightblue" stroke="midnightblue" points="534.87,-120.63 541.7,-128.73 541.42,-118.14 534.87,-120.63"/>
</g>
<!-- Node16 -->
<g id="node16" class="node">
<title>Node16</title>
<g id="a_node16"><a xlink:title=" ">
<polygon fill="white" stroke="#bfbfbf" points="479,-0.5 479,-19.5 536,-19.5 536,-0.5 479,-0.5"/>
<text text-anchor="middle" x="507.5" y="-7.5" font-family="Helvetica,sans-Serif" font-size="10.00">ostream</text>
</a>
</g>
</g>
<!-- Node15&#45;&gt;Node16 -->
<g id="edge16" class="edge">
<title>Node15&#45;&gt;Node16</title>
<path fill="none" stroke="midnightblue" d="M507.5,-61.98C507.5,-53.58 507.5,-40.48 507.5,-29.66"/>
<polygon fill="midnightblue" stroke="midnightblue" points="511,-29.51 507.5,-19.51 504,-29.51 511,-29.51"/>
</g>
<!-- Node17 -->
<g id="node17" class="node">
<title>Node17</title>
<g id="a_node17"><a xlink:title=" ">
<polygon fill="white" stroke="#bfbfbf" points="757,-0.5 757,-19.5 804,-19.5 804,-0.5 757,-0.5"/>
<text text-anchor="middle" x="780.5" y="-7.5" font-family="Helvetica,sans-Serif" font-size="10.00">cmath</text>
</a>
</g>
</g>
<!-- Node15&#45;&gt;Node17 -->
<g id="edge17" class="edge">
<title>Node15&#45;&gt;Node17</title>
<path fill="none" stroke="midnightblue" d="M546.61,-61.98C600.41,-50.25 696.31,-29.35 746.98,-18.31"/>
<polygon fill="midnightblue" stroke="midnightblue" points="747.76,-21.72 756.78,-16.17 746.27,-14.88 747.76,-21.72"/>
</g>
<!-- Node18&#45;&gt;Node9 -->
<g id="edge20" class="edge">
<title>Node18&#45;&gt;Node9</title>
<path fill="none" stroke="midnightblue" d="M607.83,-196.9C563.19,-190.09 505.88,-177.4 459.5,-154 402.46,-125.23 358.36,-60.16 339.5,-28.69"/>
<polygon fill="midnightblue" stroke="midnightblue" points="342.34,-26.62 334.28,-19.75 336.3,-30.15 342.34,-26.62"/>
</g>
<!-- Node18&#45;&gt;Node11 -->
<g id="edge22" class="edge">
<title>Node18&#45;&gt;Node11</title>
<path fill="none" stroke="midnightblue" d="M662.04,-195.87C638.26,-184.75 596.71,-165.32 569.15,-152.43"/>
<polygon fill="midnightblue" stroke="midnightblue" points="570.58,-149.23 560.03,-148.17 567.61,-155.57 570.58,-149.23"/>
</g>
<!-- Node18&#45;&gt;Node12 -->
<g id="edge21" class="edge">
<title>Node18&#45;&gt;Node12</title>
<path fill="none" stroke="midnightblue" d="M679.39,-195.94C678.16,-185.91 676.23,-168.78 675.5,-154 674.44,-132.62 674.99,-108.05 675.6,-91.52"/>
<polygon fill="midnightblue" stroke="midnightblue" points="679.12,-91.21 676.05,-81.07 672.13,-90.91 679.12,-91.21"/>
</g>
<!-- Node19 -->
<g id="node19" class="node">
<title>Node19</title>
<g id="a_node19"><a xlink:href="tensor_i_8_h.html" target="_top" xlink:title=" ">
<polygon fill="white" stroke="black" points="684,-129 684,-148 833,-148 833,-129 684,-129"/>
<text text-anchor="middle" x="758.5" y="-136" font-family="Helvetica,sans-Serif" font-size="10.00">amr&#45;wind/core/vs/tensorI.H</text>
</a>
</g>
</g>
<!-- Node18&#45;&gt;Node19 -->
<g id="edge23" class="edge">
<title>Node18&#45;&gt;Node19</title>
<path fill="none" stroke="midnightblue" d="M686.23,-195.73C696.74,-185.11 718.09,-167.05 735.02,-154.26"/>
<polygon fill="midnightblue" stroke="midnightblue" points="737.39,-156.86 743.39,-148.13 733.25,-151.22 737.39,-156.86"/>
</g>
<!-- Node19&#45;&gt;Node17 -->
<g id="edge24" class="edge">
<title>Node19&#45;&gt;Node17</title>
<path fill="none" stroke="midnightblue" d="M760.01,-128.81C763.54,-108.49 772.4,-57.55 777.23,-29.78"/>
<polygon fill="midnightblue" stroke="midnightblue" points="780.71,-30.21 778.98,-19.76 773.82,-29.01 780.71,-30.21"/>
</g>
<!-- Node19&#45;&gt;Node18 -->
<g id="edge25" class="edge">
<title>Node19&#45;&gt;Node18</title>
<path fill="none" stroke="midnightblue" d="M752.91,-148.13C742.49,-158.69 721.17,-176.74 704.2,-189.57"/>
<polygon fill="midnightblue" stroke="midnightblue" points="701.8,-186.99 695.81,-195.73 705.94,-192.63 701.8,-186.99"/>
</g>
<!-- Node20 -->
<g id="node20" class="node">
<title>Node20</title>
<g id="a_node20"><a xlink:href="trig__ops_8_h.html" target="_top" xlink:title=" ">
<polygon fill="white" stroke="black" points="809,-56.5 809,-86.5 912,-86.5 912,-56.5 809,-56.5"/>
<text text-anchor="start" x="817" y="-74.5" font-family="Helvetica,sans-Serif" font-size="10.00">amr&#45;wind/utilities</text>
<text text-anchor="middle" x="860.5" y="-63.5" font-family="Helvetica,sans-Serif" font-size="10.00">/trig_ops.H</text>
</a>
</g>
</g>
<!-- Node19&#45;&gt;Node20 -->
<g id="edge26" class="edge">
<title>Node19&#45;&gt;Node20</title>
<path fill="none" stroke="midnightblue" d="M772.26,-128.73C786.97,-119.36 810.77,-104.19 829.95,-91.97"/>
<polygon fill="midnightblue" stroke="midnightblue" points="831.84,-94.91 838.39,-86.59 828.08,-89.01 831.84,-94.91"/>
</g>
<!-- Node20&#45;&gt;Node9 -->
<g id="edge29" class="edge">
<title>Node20&#45;&gt;Node9</title>
<path fill="none" stroke="midnightblue" d="M808.92,-62.53C793.67,-60.29 776.93,-57.93 761.5,-56 625.53,-38.97 464.91,-23.44 383.15,-15.86"/>
<polygon fill="midnightblue" stroke="midnightblue" points="383.38,-12.37 373.1,-14.94 382.74,-19.34 383.38,-12.37"/>
</g>
<!-- Node20&#45;&gt;Node14 -->
<g id="edge28" class="edge">
<title>Node20&#45;&gt;Node14</title>
<path fill="none" stroke="midnightblue" d="M862.4,-56.4C863.47,-48.38 864.84,-38.23 866,-29.57"/>
<polygon fill="midnightblue" stroke="midnightblue" points="869.47,-30.04 867.34,-19.66 862.53,-29.1 869.47,-30.04"/>
</g>
<!-- Node20&#45;&gt;Node17 -->
<g id="edge27" class="edge">
<title>Node20&#45;&gt;Node17</title>
<path fill="none" stroke="midnightblue" d="M841.54,-56.4C829.08,-47.13 812.8,-35.03 800.19,-25.65"/>
<polygon fill="midnightblue" stroke="midnightblue" points="802.25,-22.82 792.14,-19.66 798.08,-28.43 802.25,-22.82"/>
</g>
<!-- Node23&#45;&gt;Node5 -->
<g id="edge35" class="edge">
<title>Node23&#45;&gt;Node5</title>
<path fill="none" stroke="midnightblue" d="M691.03,-458.37C642.74,-434.41 544.76,-385.78 490.95,-359.09"/>
<polygon fill="midnightblue" stroke="midnightblue" points="492.28,-355.83 481.76,-354.52 489.16,-362.11 492.28,-355.83"/>
</g>
<!-- Node23&#45;&gt;Node8 -->
<g id="edge40" class="edge">
<title>Node23&#45;&gt;Node8</title>
<path fill="none" stroke="midnightblue" d="M788.09,-471.04C997.03,-465.01 1618.81,-434.83 1741.5,-288 1768.22,-256.02 1710.25,-231.33 1665.92,-217.87"/>
<polygon fill="midnightblue" stroke="midnightblue" points="1666.72,-214.45 1656.14,-215.01 1664.75,-221.17 1666.72,-214.45"/>
</g>
<!-- Node24 -->
<g id="node24" class="node">
<title>Node24</title>
<g id="a_node24"><a xlink:href="_act_parser_8_h.html" target="_top" xlink:title=" ">
<polygon fill="white" stroke="black" points="655.5,-391.5 655.5,-421.5 783.5,-421.5 783.5,-391.5 655.5,-391.5"/>
<text text-anchor="start" x="663.5" y="-409.5" font-family="Helvetica,sans-Serif" font-size="10.00">amr&#45;wind/wind_energy</text>
<text text-anchor="middle" x="719.5" y="-398.5" font-family="Helvetica,sans-Serif" font-size="10.00">/actuator/ActParser.H</text>
</a>
</g>
</g>
<!-- Node23&#45;&gt;Node24 -->
<g id="edge36" class="edge">
<title>Node23&#45;&gt;Node24</title>
<path fill="none" stroke="midnightblue" d="M719.5,-458.4C719.5,-450.64 719.5,-440.81 719.5,-431.86"/>
<polygon fill="midnightblue" stroke="midnightblue" points="723,-431.58 719.5,-421.58 716,-431.58 723,-431.58"/>
</g>
<!-- Node27 -->
<g id="node27" class="node">
<title>Node27</title>
<g id="a_node27"><a xlink:href="actuator__ops_i_8_h.html" target="_top" xlink:title=" ">
<polygon fill="white" stroke="black" points="846.5,-391.5 846.5,-421.5 986.5,-421.5 986.5,-391.5 846.5,-391.5"/>
<text text-anchor="start" x="854.5" y="-409.5" font-family="Helvetica,sans-Serif" font-size="10.00">amr&#45;wind/wind_energy</text>
<text text-anchor="middle" x="916.5" y="-398.5" font-family="Helvetica,sans-Serif" font-size="10.00">/actuator/actuator_opsI.H</text>
</a>
</g>
</g>
<!-- Node23&#45;&gt;Node27 -->
<g id="edge41" class="edge">
<title>Node23&#45;&gt;Node27</title>
<path fill="none" stroke="midnightblue" d="M762.25,-458.4C792.19,-448.52 832.39,-435.25 864.24,-424.74"/>
<polygon fill="midnightblue" stroke="midnightblue" points="865.44,-428.03 873.84,-421.58 863.24,-421.39 865.44,-428.03"/>
</g>
<!-- Node25 -->
<g id="node25" class="node">
<title>Node25</title>
<g id="a_node25"><a xlink:href="_multi_parser_8_h.html" target="_top" xlink:title=" ">
<polygon fill="white" stroke="black" points="642,-330 642,-349 797,-349 797,-330 642,-330"/>
<text text-anchor="middle" x="719.5" y="-337" font-family="Helvetica,sans-Serif" font-size="10.00">amr&#45;wind/core/MultiParser.H</text>
</a>
</g>
</g>
<!-- Node24&#45;&gt;Node25 -->
<g id="edge37" class="edge">
<title>Node24&#45;&gt;Node25</title>
<path fill="none" stroke="midnightblue" d="M719.5,-391.4C719.5,-382.06 719.5,-369.71 719.5,-359.52"/>
<polygon fill="midnightblue" stroke="midnightblue" points="723,-359.19 719.5,-349.19 716,-359.19 723,-359.19"/>
</g>
<!-- Node25&#45;&gt;Node10 -->
<g id="edge38" class="edge">
<title>Node25&#45;&gt;Node10</title>
<path fill="none" stroke="midnightblue" d="M702.77,-329.87C684.33,-320.36 654.11,-304.77 630.12,-292.39"/>
<polygon fill="midnightblue" stroke="midnightblue" points="631.42,-289.13 620.93,-287.65 628.21,-295.35 631.42,-289.13"/>
</g>
<!-- Node26 -->
<g id="node26" class="node">
<title>Node26</title>
<g id="a_node26"><a xlink:title=" ">
<polygon fill="white" stroke="#bfbfbf" points="679,-263 679,-282 798,-282 798,-263 679,-263"/>
<text text-anchor="middle" x="738.5" y="-270" font-family="Helvetica,sans-Serif" font-size="10.00">AMReX_ParmParse.H</text>
</a>
</g>
</g>
<!-- Node25&#45;&gt;Node26 -->
<g id="edge39" class="edge">
<title>Node25&#45;&gt;Node26</title>
<path fill="none" stroke="midnightblue" d="M722.06,-329.73C724.88,-320.09 729.5,-304.3 733.12,-291.91"/>
<polygon fill="midnightblue" stroke="midnightblue" points="736.53,-292.71 735.98,-282.13 729.81,-290.74 736.53,-292.71"/>
</g>
<!-- Node28 -->
<g id="node28" class="node">
<title>Node28</title>
<g id="a_node28"><a xlink:href="actuator__utils_8_h.html" target="_top" xlink:title=" ">
<polygon fill="white" stroke="black" points="816.5,-257.5 816.5,-287.5 956.5,-287.5 956.5,-257.5 816.5,-257.5"/>
<text text-anchor="start" x="824.5" y="-275.5" font-family="Helvetica,sans-Serif" font-size="10.00">amr&#45;wind/wind_energy</text>
<text text-anchor="middle" x="886.5" y="-264.5" font-family="Helvetica,sans-Serif" font-size="10.00">/actuator/actuator_utils.H</text>
</a>
</g>
</g>
<!-- Node27&#45;&gt;Node28 -->
<g id="edge42" class="edge">
<title>Node27&#45;&gt;Node28</title>
<path fill="none" stroke="midnightblue" d="M913.29,-391.37C908.19,-368.94 898.19,-324.92 891.95,-297.49"/>
<polygon fill="midnightblue" stroke="midnightblue" points="895.32,-296.5 889.69,-287.52 888.49,-298.05 895.32,-296.5"/>
</g>
<!-- Node31 -->
<g id="node31" class="node">
<title>Node31</title>
<g id="a_node31"><a xlink:href="_c_f_d_sim_8_h.html" target="_top" xlink:title=" ">
<polygon fill="white" stroke="black" points="1220.5,-330 1220.5,-349 1336.5,-349 1336.5,-330 1220.5,-330"/>
<text text-anchor="middle" x="1278.5" y="-337" font-family="Helvetica,sans-Serif" font-size="10.00">amr&#45;wind/CFDSim.H</text>
</a>
</g>
</g>
<!-- Node27&#45;&gt;Node31 -->
<g id="edge50" class="edge">
<title>Node27&#45;&gt;Node31</title>
<path fill="none" stroke="midnightblue" d="M986.73,-392.89C1055.04,-380.62 1157.55,-362.22 1221.11,-350.8"/>
<polygon fill="midnightblue" stroke="midnightblue" points="1221.74,-354.25 1230.97,-349.03 1220.51,-347.36 1221.74,-354.25"/>
</g>
<!-- Node44 -->
<g id="node41" class="node">
<title>Node44</title>
<g id="a_node41"><a xlink:title=" ">
<polygon fill="white" stroke="#bfbfbf" points="914.5,-330 914.5,-349 978.5,-349 978.5,-330 914.5,-330"/>
<text text-anchor="middle" x="946.5" y="-337" font-family="Helvetica,sans-Serif" font-size="10.00">algorithm</text>
</a>
</g>
</g>
<!-- Node27&#45;&gt;Node44 -->
<g id="edge65" class="edge">
<title>Node27&#45;&gt;Node44</title>
<path fill="none" stroke="midnightblue" d="M923.01,-391.4C927.46,-381.76 933.39,-368.91 938.18,-358.54"/>
<polygon fill="midnightblue" stroke="midnightblue" points="941.47,-359.74 942.49,-349.19 935.12,-356.81 941.47,-359.74"/>
</g>
<!-- Node28&#45;&gt;Node11 -->
<g id="edge43" class="edge">
<title>Node28&#45;&gt;Node11</title>
<path fill="none" stroke="midnightblue" d="M816.3,-258.58C813.32,-258.04 810.38,-257.51 807.5,-257 715.14,-240.53 678.9,-270.98 599.5,-221 575.32,-205.78 558.26,-176.46 549.16,-157.45"/>
<polygon fill="midnightblue" stroke="midnightblue" points="552.24,-155.77 544.93,-148.1 545.87,-158.66 552.24,-155.77"/>
</g>
<!-- Node28&#45;&gt;Node17 -->
<g id="edge48" class="edge">
<title>Node28&#45;&gt;Node17</title>
<path fill="none" stroke="midnightblue" d="M891.35,-257.47C905.64,-214.94 945.2,-88.44 921.5,-56 918.22,-51.51 854.75,-32.47 814.1,-20.64"/>
<polygon fill="midnightblue" stroke="midnightblue" points="814.89,-17.23 804.31,-17.81 812.94,-23.95 814.89,-17.23"/>
</g>
<!-- Node28&#45;&gt;Node20 -->
<g id="edge44" class="edge">
<title>Node28&#45;&gt;Node20</title>
<path fill="none" stroke="midnightblue" d="M884.63,-257.19C880.23,-223.48 869.16,-138.8 863.68,-96.84"/>
<polygon fill="midnightblue" stroke="midnightblue" points="867.12,-96.14 862.35,-86.68 860.18,-97.05 867.12,-96.14"/>
</g>
<!-- Node28&#45;&gt;Node22 -->
<g id="edge49" class="edge">
<title>Node28&#45;&gt;Node22</title>
<path fill="none" stroke="midnightblue" d="M816.31,-258.49C813.34,-257.98 810.39,-257.48 807.5,-257 700.23,-239.18 672.5,-240.35 565.5,-221 551.58,-218.48 536.15,-215.23 523.52,-212.45"/>
<polygon fill="midnightblue" stroke="midnightblue" points="524.18,-209.01 513.66,-210.24 522.65,-215.84 524.18,-209.01"/>
</g>
<!-- Node29 -->
<g id="node29" class="node">
<title>Node29</title>
<g id="a_node29"><a xlink:title=" ">
<polygon fill="white" stroke="#bfbfbf" points="1250.5,-196 1250.5,-215 1360.5,-215 1360.5,-196 1250.5,-196"/>
<text text-anchor="middle" x="1305.5" y="-203" font-family="Helvetica,sans-Serif" font-size="10.00">AMReX_AmrCore.H</text>
</a>
</g>
</g>
<!-- Node28&#45;&gt;Node29 -->
<g id="edge45" class="edge">
<title>Node28&#45;&gt;Node29</title>
<path fill="none" stroke="midnightblue" d="M956.63,-260.62C1035.78,-248.34 1163.5,-228.53 1240.48,-216.59"/>
<polygon fill="midnightblue" stroke="midnightblue" points="1241.19,-220.02 1250.54,-215.03 1240.12,-213.1 1241.19,-220.02"/>
</g>
<!-- Node28&#45;&gt;Node30 -->
<g id="edge46" class="edge">
<title>Node28&#45;&gt;Node30</title>
<path fill="none" stroke="midnightblue" d="M816.34,-258.32C813.35,-257.85 810.4,-257.41 807.5,-257 723.78,-245.13 481.13,-222.52 366.22,-212.06"/>
<polygon fill="midnightblue" stroke="midnightblue" points="366.45,-208.57 356.18,-211.15 365.82,-215.54 366.45,-208.57"/>
</g>
<!-- Node30&#45;&gt;Node9 -->
<g id="edge47" class="edge">
<title>Node30&#45;&gt;Node9</title>
<path fill="none" stroke="midnightblue" d="M304.48,-190.44C304.68,-163.91 306.23,-104.76 315.5,-56 317.2,-47.06 320.07,-37.39 322.76,-29.31"/>
<polygon fill="midnightblue" stroke="midnightblue" points="326.09,-30.41 326.1,-19.81 319.48,-28.09 326.09,-30.41"/>
</g>
<!-- Node31&#45;&gt;Node29 -->
<g id="edge51" class="edge">
<title>Node31&#45;&gt;Node29</title>
<path fill="none" stroke="midnightblue" d="M1270.4,-329.8C1257.41,-314.74 1234.55,-282.96 1246.5,-257 1253.6,-241.58 1267.99,-229.11 1280.79,-220.42"/>
<polygon fill="midnightblue" stroke="midnightblue" points="1282.72,-223.34 1289.28,-215.01 1278.96,-217.43 1282.72,-223.34"/>
</g>
<!-- Node32 -->
<g id="node32" class="node">
<title>Node32</title>
<g id="a_node32"><a xlink:href="_sim_time_8_h.html" target="_top" xlink:title=" ">
<polygon fill="white" stroke="black" points="1055.5,-263 1055.5,-282 1199.5,-282 1199.5,-263 1055.5,-263"/>
<text text-anchor="middle" x="1127.5" y="-270" font-family="Helvetica,sans-Serif" font-size="10.00">amr&#45;wind/core/SimTime.H</text>
</a>
</g>
</g>
<!-- Node31&#45;&gt;Node32 -->
<g id="edge52" class="edge">
<title>Node31&#45;&gt;Node32</title>
<path fill="none" stroke="midnightblue" d="M1258.45,-329.87C1232.5,-318.7 1187.08,-299.15 1157.14,-286.26"/>
<polygon fill="midnightblue" stroke="midnightblue" points="1158.2,-282.91 1147.63,-282.17 1155.44,-289.34 1158.2,-282.91"/>
</g>
<!-- Node35 -->
<g id="node35" class="node">
<title>Node35</title>
<g id="a_node35"><a xlink:href="_field_repo_8_h.html" target="_top" xlink:title=" ">
<polygon fill="white" stroke="red" points="1255,-263 1255,-282 1404,-282 1404,-263 1255,-263"/>
<text text-anchor="middle" x="1329.5" y="-270" font-family="Helvetica,sans-Serif" font-size="10.00">amr&#45;wind/core/FieldRepo.H</text>
</a>
</g>
</g>
<!-- Node31&#45;&gt;Node35 -->
<g id="edge56" class="edge">
<title>Node31&#45;&gt;Node35</title>
<path fill="none" stroke="midnightblue" d="M1285.38,-329.73C1293.33,-319.6 1306.6,-302.69 1316.51,-290.06"/>
<polygon fill="midnightblue" stroke="midnightblue" points="1319.31,-292.16 1322.73,-282.13 1313.8,-287.83 1319.31,-292.16"/>
</g>
<!-- Node52 -->
<g id="node39" class="node">
<title>Node52</title>
<g id="a_node39"><a xlink:href="_p_d_e_base_8_h.html" target="_top" xlink:title=" ">
<polygon fill="white" stroke="red" points="1577,-257.5 1577,-287.5 1732,-287.5 1732,-257.5 1577,-257.5"/>
<text text-anchor="start" x="1585" y="-275.5" font-family="Helvetica,sans-Serif" font-size="10.00">amr&#45;wind/equation_systems</text>
<text text-anchor="middle" x="1654.5" y="-264.5" font-family="Helvetica,sans-Serif" font-size="10.00">/PDEBase.H</text>
</a>
</g>
</g>
<!-- Node31&#45;&gt;Node52 -->
<g id="edge61" class="edge">
<title>Node31&#45;&gt;Node52</title>
<path fill="none" stroke="midnightblue" d="M1328.04,-329.94C1388.61,-319.47 1492.19,-301.56 1566.45,-288.72"/>
<polygon fill="midnightblue" stroke="midnightblue" points="1567.47,-292.1 1576.72,-286.95 1566.27,-285.2 1567.47,-292.1"/>
</g>
<!-- Node60 -->
<g id="node40" class="node">
<title>Node60</title>
<g id="a_node40"><a xlink:href="_physics_8_h.html" target="_top" xlink:title=" ">
<polygon fill="white" stroke="red" points="1422,-263 1422,-282 1559,-282 1559,-263 1422,-263"/>
<text text-anchor="middle" x="1490.5" y="-270" font-family="Helvetica,sans-Serif" font-size="10.00">amr&#45;wind/core/Physics.H</text>
</a>
</g>
</g>
<!-- Node31&#45;&gt;Node60 -->
<g id="edge64" class="edge">
<title>Node31&#45;&gt;Node60</title>
<path fill="none" stroke="midnightblue" d="M1306.65,-329.87C1344.29,-318.33 1411.13,-297.84 1453.01,-285"/>
<polygon fill="midnightblue" stroke="midnightblue" points="1454.03,-288.34 1462.57,-282.06 1451.98,-281.65 1454.03,-288.34"/>
</g>
<!-- Node32&#45;&gt;Node14 -->
<g id="edge53" class="edge">
<title>Node32&#45;&gt;Node14</title>
<path fill="none" stroke="midnightblue" d="M1151.12,-262.99C1169.07,-255.13 1192.5,-241.52 1203.5,-221 1210.01,-208.86 1210.58,-201.82 1203.5,-190 1142.34,-87.97 1001.02,-40.85 922.89,-21.92"/>
<polygon fill="midnightblue" stroke="midnightblue" points="923.29,-18.42 912.76,-19.54 921.69,-25.23 923.29,-18.42"/>
</g>
<!-- Node33 -->
<g id="node33" class="node">
<title>Node33</title>
<g id="a_node33"><a xlink:title=" ">
<polygon fill="white" stroke="#bfbfbf" points="1060.5,-196 1060.5,-215 1194.5,-215 1194.5,-196 1060.5,-196"/>
<text text-anchor="middle" x="1127.5" y="-203" font-family="Helvetica,sans-Serif" font-size="10.00">AMReX_GpuQualifiers.H</text>
</a>
</g>
</g>
<!-- Node32&#45;&gt;Node33 -->
<g id="edge54" class="edge">
<title>Node32&#45;&gt;Node33</title>
<path fill="none" stroke="midnightblue" d="M1127.5,-262.73C1127.5,-253.18 1127.5,-237.62 1127.5,-225.28"/>
<polygon fill="midnightblue" stroke="midnightblue" points="1131,-225.13 1127.5,-215.13 1124,-225.13 1131,-225.13"/>
</g>
<!-- Node34 -->
<g id="node34" class="node">
<title>Node34</title>
<g id="a_node34"><a xlink:title=" ">
<polygon fill="white" stroke="#bfbfbf" points="926.5,-196 926.5,-215 1042.5,-215 1042.5,-196 926.5,-196"/>
<text text-anchor="middle" x="984.5" y="-203" font-family="Helvetica,sans-Serif" font-size="10.00">AMReX_Extension.H</text>
</a>
</g>
</g>
<!-- Node32&#45;&gt;Node34 -->
<g id="edge55" class="edge">
<title>Node32&#45;&gt;Node34</title>
<path fill="none" stroke="midnightblue" d="M1108.51,-262.87C1084.04,-251.75 1041.3,-232.32 1012.94,-219.43"/>
<polygon fill="midnightblue" stroke="midnightblue" points="1014.12,-216.12 1003.57,-215.17 1011.22,-222.49 1014.12,-216.12"/>
</g>
<!-- Node35&#45;&gt;Node29 -->
<g id="edge60" class="edge">
<title>Node35&#45;&gt;Node29</title>
<path fill="none" stroke="midnightblue" d="M1326.26,-262.73C1322.66,-252.99 1316.75,-236.98 1312.16,-224.53"/>
<polygon fill="midnightblue" stroke="midnightblue" points="1315.43,-223.3 1308.69,-215.13 1308.87,-225.72 1315.43,-223.3"/>
</g>
<!-- Node36 -->
<g id="node36" class="node">
<title>Node36</title>
<g id="a_node36"><a xlink:title=" ">
<polygon fill="white" stroke="#bfbfbf" points="1800.5,-196 1800.5,-215 1844.5,-215 1844.5,-196 1800.5,-196"/>
<text text-anchor="middle" x="1822.5" y="-203" font-family="Helvetica,sans-Serif" font-size="10.00">string</text>
</a>
</g>
</g>
<!-- Node35&#45;&gt;Node36 -->
<g id="edge57" class="edge">
<title>Node35&#45;&gt;Node36</title>
<path fill="none" stroke="midnightblue" d="M1375.18,-262.97C1387.58,-260.83 1401.03,-258.67 1413.5,-257 1580.77,-234.63 1628.69,-265.4 1791.5,-221 1793.43,-220.47 1795.4,-219.83 1797.35,-219.12"/>
<polygon fill="midnightblue" stroke="midnightblue" points="1798.97,-222.23 1806.81,-215.11 1796.24,-215.79 1798.97,-222.23"/>
</g>
<!-- Node37 -->
<g id="node37" class="node">
<title>Node37</title>
<g id="a_node37"><a xlink:title=" ">
<polygon fill="white" stroke="#bfbfbf" points="1689,-196 1689,-215 1782,-215 1782,-196 1689,-196"/>
<text text-anchor="middle" x="1735.5" y="-203" font-family="Helvetica,sans-Serif" font-size="10.00">unordered_map</text>
</a>
</g>
</g>
<!-- Node35&#45;&gt;Node37 -->
<g id="edge58" class="edge">
<title>Node35&#45;&gt;Node37</title>
<path fill="none" stroke="midnightblue" d="M1376.98,-262.99C1388.89,-260.94 1401.65,-258.82 1413.5,-257 1531.41,-238.85 1562.44,-243.99 1679.5,-221 1684.6,-220 1689.94,-218.81 1695.19,-217.55"/>
<polygon fill="midnightblue" stroke="midnightblue" points="1696.28,-220.88 1705.13,-215.06 1694.58,-214.09 1696.28,-220.88"/>
</g>
<!-- Node38 -->
<g id="node38" class="node">
<title>Node38</title>
<g id="a_node38"><a xlink:href="_field_desc_types_8_h.html" target="_top" xlink:title=" ">
<polygon fill="white" stroke="black" points="1378.5,-196 1378.5,-215 1554.5,-215 1554.5,-196 1378.5,-196"/>
<text text-anchor="middle" x="1466.5" y="-203" font-family="Helvetica,sans-Serif" font-size="10.00">amr&#45;wind/core/FieldDescTypes.H</text>
</a>
</g>
</g>
<!-- Node35&#45;&gt;Node38 -->
<g id="edge59" class="edge">
<title>Node35&#45;&gt;Node38</title>
<path fill="none" stroke="midnightblue" d="M1347.69,-262.87C1371.03,-251.8 1411.73,-232.49 1438.89,-219.6"/>
<polygon fill="midnightblue" stroke="midnightblue" points="1440.7,-222.62 1448.23,-215.17 1437.7,-216.29 1440.7,-222.62"/>
</g>
<!-- Node52&#45;&gt;Node36 -->
<g id="edge62" class="edge">
<title>Node52&#45;&gt;Node36</title>
<path fill="none" stroke="midnightblue" d="M1695.31,-257.47C1722.74,-247.8 1759.57,-234.33 1791.5,-221 1792.87,-220.43 1794.27,-219.83 1795.68,-219.21"/>
<polygon fill="midnightblue" stroke="midnightblue" points="1797.24,-222.35 1804.91,-215.04 1794.36,-215.97 1797.24,-222.35"/>
</g>
<!-- Node52&#45;&gt;Node38 -->
<g id="edge63" class="edge">
<title>Node52&#45;&gt;Node38</title>
<path fill="none" stroke="midnightblue" d="M1613.71,-257.4C1579.99,-245.74 1532.66,-229.37 1500.85,-218.38"/>
<polygon fill="midnightblue" stroke="midnightblue" points="1501.7,-214.97 1491.1,-215.01 1499.41,-221.58 1501.7,-214.97"/>
</g>
<!-- Node62&#45;&gt;Node9 -->
<g id="edge68" class="edge">
<title>Node62&#45;&gt;Node9</title>
<path fill="none" stroke="midnightblue" d="M71.89,-123.3C84.84,-104.86 109.99,-73.02 139.5,-56 181.51,-31.77 235.89,-20.57 275.71,-15.4"/>
<polygon fill="midnightblue" stroke="midnightblue" points="276.25,-18.86 285.76,-14.18 275.41,-11.91 276.25,-18.86"/>
</g>
<!-- Node63&#45;&gt;Node36 -->
<g id="edge70" class="edge">
<title>Node63&#45;&gt;Node36</title>
<path fill="none" stroke="midnightblue" d="M1875.75,-257.4C1864.93,-247.06 1850.25,-233.02 1839.04,-222.31"/>
<polygon fill="midnightblue" stroke="midnightblue" points="1841.24,-219.57 1831.6,-215.19 1836.41,-224.63 1841.24,-219.57"/>
</g>
<!-- Node63&#45;&gt;Node37 -->
<g id="edge71" class="edge">
<title>Node63&#45;&gt;Node37</title>
<path fill="none" stroke="midnightblue" d="M1856.87,-257.4C1829.55,-245.94 1791.39,-229.94 1765.19,-218.95"/>
<polygon fill="midnightblue" stroke="midnightblue" points="1766.36,-215.65 1755.79,-215.01 1763.65,-222.1 1766.36,-215.65"/>
</g>
<!-- Node64 -->
<g id="node44" class="node">
<title>Node64</title>
<g id="a_node44"><a xlink:title=" ">
<polygon fill="white" stroke="#bfbfbf" points="2032,-196 2032,-215 2079,-215 2079,-196 2032,-196"/>
<text text-anchor="middle" x="2055.5" y="-203" font-family="Helvetica,sans-Serif" font-size="10.00">vector</text>
</a>
</g>
</g>
<!-- Node63&#45;&gt;Node64 -->
<g id="edge72" class="edge">
<title>Node63&#45;&gt;Node64</title>
<path fill="none" stroke="midnightblue" d="M1929.45,-257.44C1956.1,-247.64 1992.14,-234.04 2023.5,-221 2024.87,-220.43 2026.27,-219.84 2027.69,-219.23"/>
<polygon fill="midnightblue" stroke="midnightblue" points="2029.24,-222.37 2036.97,-215.13 2026.41,-215.97 2029.24,-222.37"/>
</g>
<!-- Node65 -->
<g id="node45" class="node">
<title>Node65</title>
<g id="a_node45"><a xlink:title=" ">
<polygon fill="white" stroke="#bfbfbf" points="1862.5,-196 1862.5,-215 1918.5,-215 1918.5,-196 1862.5,-196"/>
<text text-anchor="middle" x="1890.5" y="-203" font-family="Helvetica,sans-Serif" font-size="10.00">netcdf.h</text>
</a>
</g>
</g>
<!-- Node63&#45;&gt;Node65 -->
<g id="edge73" class="edge">
<title>Node63&#45;&gt;Node65</title>
<path fill="none" stroke="midnightblue" d="M1890.5,-257.4C1890.5,-248.06 1890.5,-235.71 1890.5,-225.52"/>
<polygon fill="midnightblue" stroke="midnightblue" points="1894,-225.19 1890.5,-215.19 1887,-225.19 1894,-225.19"/>
</g>
<!-- Node66 -->
<g id="node46" class="node">
<title>Node66</title>
<g id="a_node46"><a xlink:title=" ">
<polygon fill="white" stroke="#bfbfbf" points="1937,-196 1937,-215 2014,-215 2014,-196 1937,-196"/>
<text text-anchor="middle" x="1975.5" y="-203" font-family="Helvetica,sans-Serif" font-size="10.00">netcdf_par.h</text>
</a>
</g>
</g>
<!-- Node63&#45;&gt;Node66 -->
<g id="edge74" class="edge">
<title>Node63&#45;&gt;Node66</title>
<path fill="none" stroke="midnightblue" d="M1908.94,-257.4C1922.85,-246.76 1941.89,-232.2 1956.04,-221.38"/>
<polygon fill="midnightblue" stroke="midnightblue" points="1958.31,-224.05 1964.13,-215.19 1954.06,-218.49 1958.31,-224.05"/>
</g>
<!-- Node67&#45;&gt;Node8 -->
<g id="edge80" class="edge">
<title>Node67&#45;&gt;Node8</title>
<path fill="none" stroke="midnightblue" d="M2018.87,-264.5C2001.02,-262.1 1980.88,-259.41 1962.5,-257 1837.22,-240.59 1804.72,-244.12 1680.5,-221 1674.99,-219.97 1669.23,-218.75 1663.55,-217.45"/>
<polygon fill="midnightblue" stroke="midnightblue" points="1664.05,-213.97 1653.51,-215.07 1662.43,-220.79 1664.05,-213.97"/>
</g>
<!-- Node67&#45;&gt;Node36 -->
<g id="edge78" class="edge">
<title>Node67&#45;&gt;Node36</title>
<path fill="none" stroke="midnightblue" d="M2018.79,-262.62C1974.28,-254.23 1908.7,-240.1 1853.5,-221 1851.88,-220.44 1850.23,-219.82 1848.58,-219.16"/>
<polygon fill="midnightblue" stroke="midnightblue" points="1849.86,-215.9 1839.29,-215.13 1847.07,-222.32 1849.86,-215.9"/>
</g>
<!-- Node68 -->
<g id="node48" class="node">
<title>Node68</title>
<g id="a_node48"><a xlink:title=" ">
<polygon fill="white" stroke="#bfbfbf" points="2233.5,-196 2233.5,-215 2283.5,-215 2283.5,-196 2233.5,-196"/>
<text text-anchor="middle" x="2258.5" y="-203" font-family="Helvetica,sans-Serif" font-size="10.00">chrono</text>
</a>
</g>
</g>
<!-- Node67&#45;&gt;Node68 -->
<g id="edge76" class="edge">
<title>Node67&#45;&gt;Node68</title>
<path fill="none" stroke="midnightblue" d="M2116.68,-257.5C2147.46,-247.89 2188.69,-234.48 2224.5,-221 2226.15,-220.38 2227.84,-219.72 2229.54,-219.05"/>
<polygon fill="midnightblue" stroke="midnightblue" points="2231.28,-222.12 2239.2,-215.07 2228.62,-215.64 2231.28,-222.12"/>
</g>
<!-- Node69 -->
<g id="node49" class="node">
<title>Node69</title>
<g id="a_node49"><a xlink:title=" ">
<polygon fill="white" stroke="#bfbfbf" points="2097.5,-196 2097.5,-215 2141.5,-215 2141.5,-196 2097.5,-196"/>
<text text-anchor="middle" x="2119.5" y="-203" font-family="Helvetica,sans-Serif" font-size="10.00">ctime</text>
</a>
</g>
</g>
<!-- Node67&#45;&gt;Node69 -->
<g id="edge77" class="edge">
<title>Node67&#45;&gt;Node69</title>
<path fill="none" stroke="midnightblue" d="M2081.13,-257.4C2088.7,-247.36 2098.89,-233.84 2106.87,-223.25"/>
<polygon fill="midnightblue" stroke="midnightblue" points="2109.72,-225.29 2112.95,-215.19 2104.13,-221.07 2109.72,-225.29"/>
</g>
<!-- Node70 -->
<g id="node50" class="node">
<title>Node70</title>
<g id="a_node50"><a xlink:title=" ">
<polygon fill="white" stroke="#bfbfbf" points="2159.5,-196 2159.5,-215 2215.5,-215 2215.5,-196 2159.5,-196"/>
<text text-anchor="middle" x="2187.5" y="-203" font-family="Helvetica,sans-Serif" font-size="10.00">sstream</text>
</a>
</g>
</g>
<!-- Node67&#45;&gt;Node70 -->
<g id="edge79" class="edge">
<title>Node67&#45;&gt;Node70</title>
<path fill="none" stroke="midnightblue" d="M2095.89,-257.4C2115.87,-246.29 2143.54,-230.92 2163.23,-219.98"/>
<polygon fill="midnightblue" stroke="midnightblue" points="2165.15,-222.92 2172.19,-215.01 2161.75,-216.8 2165.15,-222.92"/>
</g>
</g>
</svg>
